<svg width="60" height="60" viewBox="0 0 60 60" fill="none" xmlns="http://www.w3.org/2000/svg">
<mask id="mask0_13628_11132" style="mask-type:luminance" maskUnits="userSpaceOnUse" x="0" y="0" width="60" height="60">
<path d="M30 60C46.5685 60 60 46.5685 60 30C60 13.4315 46.5685 0 30 0C13.4315 0 0 13.4315 0 30C0 46.5685 13.4315 60 30 60Z" fill="white"/>
</mask>
<g mask="url(#mask0_13628_11132)">
<mask id="mask1_13628_11132" style="mask-type:luminance" maskUnits="userSpaceOnUse" x="-10" y="0" width="80" height="60">
<path d="M70 0H-10V60H70V0Z" fill="white"/>
</mask>
<g mask="url(#mask1_13628_11132)">
<path fill-rule="evenodd" clip-rule="evenodd" d="M-10 0H70V60H-10V0Z" fill="black"/>
<path fill-rule="evenodd" clip-rule="evenodd" d="M43.3398 0H69.9998V60H43.3398V0Z" fill="#009900"/>
<path fill-rule="evenodd" clip-rule="evenodd" d="M16.6602 0H43.3402V60H16.6602V0Z" fill="#BF0000"/>
<path fill-rule="evenodd" clip-rule="evenodd" d="M32.5999 33.4299H33.6999C33.6999 33.8599 33.9699 34.3099 34.2999 34.5599H32.1699C32.4999 34.2699 32.5999 33.8999 32.5999 33.4299Z" fill="white" stroke="#BD6B00" stroke-width="0.07"/>
<path fill-rule="evenodd" clip-rule="evenodd" d="M25.5801 27.14L26.1901 27.8L33.7701 27.83L34.3801 27.17L32.4401 27.13L31.5101 26.47H28.4501L27.5701 27.15H25.5801V27.14Z" fill="white"/>
<path fill-rule="evenodd" clip-rule="evenodd" d="M28.6801 26.37H31.3001C31.6501 26.18 31.7701 25.59 31.7701 25.25C31.7701 24.27 31.0701 23.79 30.3701 23.76C30.2601 23.76 30.1401 23.68 30.1201 23.59C30.0501 23.38 30.0701 23.23 29.9901 23.24C29.9401 23.24 29.9501 23.37 29.9001 23.56C29.8601 23.67 29.7501 23.76 29.6301 23.77C28.7801 23.81 28.2201 24.43 28.2301 25.25C28.2401 25.78 28.3101 26.1 28.6801 26.37Z" fill="white" stroke="#BD6B00" stroke-width="0.07"/>
<path fill-rule="evenodd" clip-rule="evenodd" d="M24.3799 35.6899H35.5899L34.5899 34.8799H25.3599L24.3599 35.6899H24.3699H24.3799Z" fill="white"/>
<path fill-rule="evenodd" clip-rule="evenodd" d="M29.5301 32.62L29.7301 33.23H30.2001L29.8301 32.62H29.5401H29.5301ZM29.2601 33.23L29.3901 33.84H29.9201L29.7201 33.23H29.2501H29.2601ZM30.1901 33.23L30.5601 33.84H31.3401L30.7301 33.23H30.1801H30.1901ZM25.6001 34.61C26.0101 34.22 26.2801 33.91 26.2801 33.44H27.2901C27.2901 33.71 27.3801 33.85 27.5301 33.84H28.5501V33.24H27.8101V29.96C27.7801 28.79 29.2201 28.13 29.8001 28.13H26.3001V28.02H33.6501V28.13H30.1301C31.1801 28.13 32.1901 29.13 32.2001 29.96V30.89H32.0701V29.97C32.0601 29.05 30.9001 28.2 29.9701 28.23C29.1701 28.24 27.9201 29.01 27.9401 29.96V30.25H29.8401L29.8301 30.6L30.1201 30.79L30.7201 30.98V31.49L31.1501 31.61V32.1L31.6601 32.33V32.84L31.9901 33.04V33.56L32.4201 33.87H31.3801L32.0301 34.6H31.0601L30.5801 33.87H29.9601L30.2401 34.59H29.5801L29.4101 33.87H28.5901V34.64H25.6301L25.6001 34.61ZM28.5501 32.62V33.23H29.2501L29.1201 32.62H28.5401H28.5501Z" fill="white"/>
<path d="M29.7301 33.23L29.5301 32.62H29.8201L30.1901 33.23H29.7201M29.7201 33.23L29.9201 33.84H29.3901M29.7201 33.23H29.2501M29.2501 33.23L29.3801 33.84M29.2501 33.23H28.5501V32.62H28.5401H29.1201L29.2501 33.23ZM30.5501 33.84L30.1801 33.23H30.1701H30.7201L31.3301 33.84H30.5501ZM30.5501 33.84H29.9301L30.2101 34.56H29.5501L29.3801 33.84M30.5501 33.84L31.0301 34.57H32.0001L31.3501 33.84H32.3901L31.9501 33.53V33.01L31.6301 32.81V32.3L31.1201 32.07V31.58L30.6901 31.46V30.95L30.0901 30.76L29.8001 30.57V30.24L27.9101 30.23V29.94C27.9001 29 29.1501 28.23 29.9401 28.21C30.8701 28.18 32.0301 29.03 32.0301 29.95V30.87H32.1801V29.94C32.1701 29.1 31.1601 28.11 30.1101 28.11H33.6301V28H26.2801V28.11H29.7801C29.2001 28.11 27.7601 28.77 27.7901 29.94V33.22H28.5301V33.82H27.5101C27.3601 33.83 27.2701 33.69 27.2701 33.42H26.2601C26.2601 33.89 25.9901 34.2 25.5801 34.59H28.5401V33.82H29.3601L29.3801 33.84" stroke="#BD6B00" stroke-width="0.07"/>
<path d="M28.6001 31.55H29.0401V32.5601H28.6001V31.55Z" stroke="#BD6B00" stroke-width="0.07"/>
<path d="M27.9702 32.63H28.4002V31.89C28.4002 31.57 28.6902 31.24 28.8302 31.23C28.9902 31.23 29.2202 31.54 29.2302 31.87V32.64H29.6802V30.73H27.9802V32.64L27.9702 32.63ZM31.3702 33.07H31.9002V33.5H31.3702V33.07ZM31.0502 32.37H31.5802V32.78H31.0502V32.37ZM30.5302 31.65H31.0602V32.06H30.5302V31.65ZM30.0902 31.05H30.6202V31.46H30.0902V31.05Z" stroke="#BD6B00" stroke-width="0.07"/>
<path d="M29.74 32.63L30.3 32.66L31.27 33.51V33L30.94 32.76V32.36L30.46 32.09V31.65L29.99 31.49V30.92L29.76 30.72V32.63L29.73 32.62L29.74 32.63Z" stroke="#BD6B00" stroke-width="0.07"/>
<path fill-rule="evenodd" clip-rule="evenodd" d="M32.0498 31.3701H32.1798V32.3101H32.0498V31.3701Z" fill="white" stroke="#BD6B00" stroke-width="0.07"/>
<path fill-rule="evenodd" clip-rule="evenodd" d="M24.33 28.1999C24.17 27.9299 23.97 28.5699 23.29 29.0399C22.98 29.2499 22.76 29.8199 22.76 30.1999C22.76 30.4699 22.79 30.7199 22.76 30.9699C22.75 31.1199 22.57 31.4799 22.69 31.5699C22.98 31.7799 23.37 32.2899 23.54 32.4599C23.7 32.5899 23.83 31.7599 23.94 31.3999C24.07 30.9999 24.02 30.5099 24.37 30.1499C24.61 29.8799 25.22 29.6399 25.17 29.5399L24.33 28.2099V28.1999Z" fill="white" stroke="#BD6B00" stroke-width="0.07"/>
<path fill-rule="evenodd" clip-rule="evenodd" d="M24.2898 30.25C24.2398 30.12 24.1698 30.01 24.0798 29.9C23.9998 29.79 23.8898 29.71 23.7598 29.66C23.6398 29.62 23.5298 29.55 23.4398 29.46C23.3898 29.4 23.3498 29.33 23.3298 29.26C23.3098 29.17 23.3098 29.08 23.3298 28.99L23.2898 29.03C22.9798 29.24 22.7598 29.81 22.7598 30.19C22.7598 30.29 22.7598 30.39 22.7598 30.5C22.7898 30.57 22.7998 30.63 22.8398 30.67L22.9898 30.78L23.3498 30.87C23.4798 30.93 23.5998 31.02 23.6998 31.14C23.7998 31.24 23.8798 31.36 23.9398 31.49L23.9698 31.38C24.0798 31.02 24.0598 30.6 24.3198 30.25H24.3098H24.2898Z" fill="#BF0000" stroke="#BD6B00" stroke-width="0.07"/>
<path d="M23.33 28.99C23.26 29.43 23.52 29.59 23.76 29.67C24 29.76 24.2 30.02 24.29 30.25M22.73 30.45C22.84 30.85 23.1 30.8 23.34 30.88C23.58 30.97 23.83 31.28 23.94 31.52" stroke="#BD6B00" stroke-width="0.07"/>
<path fill-rule="evenodd" clip-rule="evenodd" d="M24.1001 27.9401L24.2301 27.8601L26.5801 31.8301L26.4501 31.9101L24.1001 27.9201V27.9401Z" fill="white" stroke="#BD6B00" stroke-width="0.07"/>
<path fill-rule="evenodd" clip-rule="evenodd" d="M24.3598 27.7801C24.3598 27.8501 24.3298 27.9201 24.2798 27.9701C24.2298 28.0201 24.1598 28.0501 24.0898 28.0501C24.0198 28.0501 23.9498 28.0201 23.8998 27.9701C23.8498 27.9201 23.8198 27.8501 23.8198 27.7801C23.8198 27.7101 23.8498 27.6401 23.8998 27.5901C23.9498 27.5401 24.0198 27.5101 24.0898 27.5101C24.1598 27.5101 24.2298 27.5401 24.2798 27.5901C24.3298 27.6401 24.3598 27.7101 24.3598 27.7801ZM26.3798 24.5901H27.3398V24.8001H26.3798V24.5901ZM26.3798 25.0001H27.3398V26.8301H26.3798V25.0001ZM26.3298 24.3401H27.3898C27.4198 23.9801 27.0598 23.6001 26.8598 23.6001C26.6498 23.6101 26.3098 24.0001 26.3298 24.3401Z" fill="white" stroke="#BD6B00" stroke-width="0.07"/>
<path fill-rule="evenodd" clip-rule="evenodd" d="M29.02 24.12C28.82 24.2 28.66 24.43 28.57 24.69C28.48 24.96 28.44 25.26 28.49 25.5C28.49 25.59 28.53 25.65 28.56 25.7C28.59 25.74 28.61 25.77 28.64 25.77C28.68 25.77 28.72 25.77 28.73 25.73L28.76 25.62C28.75 25.35 28.75 25.11 28.8 24.9C28.86 24.66 29 24.46 29.2 24.32C29.24 24.29 29.25 24.25 29.27 24.23C29.27 24.19 29.26 24.16 29.23 24.14C29.18 24.1 29.1 24.09 29.03 24.13L29.02 24.12ZM29.05 24.17C29.1 24.14 29.16 24.17 29.18 24.18V24.21C29.18 24.21 29.19 24.24 29.15 24.26C28.95 24.41 28.8 24.63 28.74 24.87C28.68 25.11 28.67 25.37 28.7 25.61C28.7 25.64 28.7 25.67 28.67 25.69C28.67 25.69 28.67 25.7 28.64 25.69C28.64 25.69 28.61 25.69 28.59 25.65C28.56 25.6 28.55 25.55 28.54 25.49C28.5 25.25 28.54 24.96 28.63 24.69C28.72 24.45 28.87 24.24 29.03 24.16H29.04L29.05 24.17Z" fill="#BD6B00"/>
<path fill-rule="evenodd" clip-rule="evenodd" d="M29.3701 24.3801C29.1701 24.4701 29.0401 24.6901 28.9701 24.9401C28.9001 25.2001 28.8901 25.4601 28.9301 25.7201C28.9601 25.8901 29.0601 25.9901 29.1401 25.9901C29.1801 26.0001 29.2201 25.9901 29.2501 25.9501C29.2801 25.9101 29.2901 25.8701 29.2801 25.8201C29.2301 25.6101 29.2101 25.3701 29.2401 25.1401C29.2801 24.9101 29.3701 24.7101 29.5301 24.5901C29.5701 24.5501 29.6001 24.5201 29.6001 24.4801C29.6001 24.4701 29.6001 24.4501 29.6001 24.4401C29.6001 24.4301 29.5901 24.4101 29.5801 24.4001C29.5301 24.3601 29.4501 24.3501 29.3801 24.3701L29.3701 24.3801ZM29.4001 24.4501C29.4501 24.4201 29.5101 24.4401 29.5301 24.4501V24.4901L29.5001 24.5401C29.4101 24.6101 29.3401 24.7001 29.2801 24.8001C29.2301 24.9001 29.1901 25.0101 29.1801 25.1201C29.1401 25.3601 29.1701 25.6101 29.2101 25.8101C29.2201 25.8601 29.2101 25.8901 29.2101 25.9201H29.1401C29.1401 25.9201 29.0101 25.8701 28.9801 25.7101C28.9401 25.4801 28.9501 25.1901 29.0201 24.9501C29.0901 24.7101 29.2201 24.5101 29.3901 24.4401L29.4001 24.4501Z" fill="#BD6B00"/>
<path fill-rule="evenodd" clip-rule="evenodd" d="M26.32 28.3201H27.38V29.7801H26.32V28.3201ZM26.39 30.6301H27.41V30.9501H26.39V30.6301ZM26.36 31.1801H27.42V32.3401H26.36V31.1801ZM26.28 32.5801H27.44V33.2301H26.28V32.5801ZM26.43 30.3701H27.36L27.55 30.0501H26.27L26.43 30.3701ZM27.68 29.2301V28.4301H28.33C28.06 28.6401 27.83 28.9201 27.68 29.2301Z" fill="white" stroke="#BD6B00" stroke-width="0.07"/>
<path d="M26.5 29.5601C26.5 29.7301 26.7 29.6701 26.7 29.5701V28.8301C26.7 28.7001 27.02 28.7201 27.02 28.8201V29.6201C27.02 29.7501 27.25 29.7401 27.23 29.6201V28.6901C27.23 28.4001 26.5 28.4101 26.5 28.6801V29.5701V29.5601ZM26.5 31.3301H27.26V32.2601H26.5V31.3301Z" stroke="#BD6B00" stroke-width="0.07"/>
<path fill-rule="evenodd" clip-rule="evenodd" d="M26.9699 31.7299H27.2399V31.8599H26.9699V31.7299ZM26.4999 31.7299H26.7699V31.8599H26.4999V31.7299ZM26.7699 31.3299H26.9699V31.7299H26.7699V31.3299ZM26.7699 31.8599H26.9699V32.2699H26.7699V31.8599ZM22.5599 21.8899C22.6099 22.6199 22.3699 23.0299 21.9899 22.9699C21.8799 22.5699 22.1199 22.2899 22.5599 21.8899ZM21.6999 23.5299C21.3499 23.3599 21.6099 21.9999 21.7399 21.4299C21.8299 22.1599 22.0099 23.1999 21.6999 23.5299Z" fill="white"/>
<path d="M26.9699 31.7299H27.2399V31.8599H26.9699M26.9699 31.7299V31.8599M26.9699 31.7299V31.3299H26.7699V31.7299M26.9699 31.7299H26.7699M26.9699 31.8599H26.7699M26.9699 31.8599V32.2699H26.7699V31.8599M26.7699 31.7299H26.4999V31.8599H26.7699M26.7699 31.7299V31.8599M22.5599 21.8899C22.6099 22.6199 22.3699 23.0299 21.9899 22.9699C21.8799 22.5699 22.1199 22.2899 22.5599 21.8899ZM21.6999 23.5299C21.3499 23.3599 21.6099 21.9999 21.7399 21.4299C21.8299 22.1599 22.0099 23.1999 21.6999 23.5299Z" stroke="#BD6B00" stroke-width="0.07"/>
<path fill-rule="evenodd" clip-rule="evenodd" d="M21.8202 23.5899C22.4002 23.7899 22.8802 23.1599 23.0302 22.4299C22.5502 23.0899 21.7702 23.0899 21.8302 23.5899H21.8202ZM21.3802 24.2699C20.9302 24.1499 21.1902 22.7099 21.2902 22.1399C21.3802 22.7399 21.7002 24.0699 21.3802 24.2699ZM21.5402 24.2299C21.5702 23.7399 22.0602 23.8699 22.4002 23.6099C22.3302 23.8799 22.1302 24.2999 21.5402 24.2299ZM20.9802 24.8899C20.5302 24.7599 20.7902 23.2099 20.7702 22.5799C20.9002 23.1399 21.3302 24.7499 20.9802 24.8899ZM21.1902 24.8199C21.5602 24.9399 22.0502 24.6899 22.0902 24.2499C21.7602 24.4799 21.2502 24.2999 21.1902 24.8199Z" fill="white" stroke="#BD6B00" stroke-width="0.07"/>
<path fill-rule="evenodd" clip-rule="evenodd" d="M20.63 25.5701C20.2 25.6101 20.39 24.2901 20.39 23.0701C20.55 24.2101 20.99 25.2601 20.63 25.5701Z" fill="white" stroke="#BD6B00" stroke-width="0.07"/>
<path fill-rule="evenodd" clip-rule="evenodd" d="M20.79 25.5201C21.08 25.6501 21.6 25.4301 21.75 24.9401C21.22 25.1701 20.87 24.9401 20.79 25.5201ZM24.19 22.5701C24.11 23.2201 23.84 23.5901 23.46 23.5301C23.35 23.1301 23.67 22.8701 24.19 22.5701ZM23.15 24.2201C23.8 24.3101 24.03 23.8201 24.48 23.1701C23.86 23.6201 23.12 23.7001 23.15 24.2301V24.2201Z" fill="white" stroke="#BD6B00" stroke-width="0.07"/>
<path fill-rule="evenodd" clip-rule="evenodd" d="M22.9601 24.15C22.6101 23.72 22.9601 23.18 23.2301 22.73C23.1801 23.41 23.4001 23.79 22.9601 24.15ZM22.8301 24.85C22.7801 24.42 23.4901 24.33 23.8101 24.11C23.6901 24.35 23.5401 25 22.8101 24.85H22.8201H22.8301Z" fill="white" stroke="#BD6B00" stroke-width="0.07"/>
<path fill-rule="evenodd" clip-rule="evenodd" d="M22.67 24.85C22.18 24.8 22.38 23.96 22.74 23.51C22.59 24.15 23.01 24.59 22.67 24.85Z" fill="white" stroke="#BD6B00" stroke-width="0.07"/>
<path fill-rule="evenodd" clip-rule="evenodd" d="M22.2898 25.5599C21.7298 25.2899 22.0898 24.5999 22.2898 24.1899C22.2098 24.7399 22.6598 25.1499 22.2898 25.5499V25.5599Z" fill="white" stroke="#BD6B00" stroke-width="0.07"/>
<path fill-rule="evenodd" clip-rule="evenodd" d="M22.3998 25.48C22.6898 25.88 23.2598 25.37 23.3798 24.79C22.8898 25.2 22.5198 25.14 22.3998 25.49V25.48ZM21.1198 28.18C21.0698 27.61 21.4898 26.58 21.1898 26.03C21.1498 25.95 21.2798 25.75 21.3798 25.87C21.5098 26.07 21.6498 26.63 21.7098 26.42C21.7598 26.19 21.7798 25.81 21.9798 25.73C22.1098 25.69 22.2898 25.65 22.2298 25.86C22.1798 26.05 22.0698 26.31 22.1898 26.33C22.2598 26.33 22.4598 26.06 22.6298 25.93C22.7598 25.82 22.9798 26.01 22.7598 26.17C22.1198 26.7 21.4998 26.95 21.1198 28.19V28.18ZM19.9598 36.75C19.8798 36.75 19.7898 36.71 19.8798 36.83C20.6398 37.76 20.8498 38.03 21.9498 37.89C23.0498 37.74 23.3198 37.44 24.0998 37C24.3298 36.88 24.5798 36.81 24.8298 36.78C25.0898 36.76 25.3398 36.78 25.5898 36.86C25.7998 36.93 25.9398 36.93 25.7798 36.77C25.6198 36.62 25.4498 36.41 25.2498 36.26C24.7498 35.93 24.1498 35.8 23.5598 35.9C22.7598 36.03 22.0798 36.55 21.2698 36.75C20.8398 36.84 20.3898 36.84 19.9498 36.75H19.9598ZM26.3098 38.41C26.4398 38.44 26.5398 38.7 26.6198 38.53C26.7298 38.22 26.6498 38 26.5098 38.01C26.3498 38.05 26.0998 38.41 26.3098 38.41Z" fill="white" stroke="#BD6B00" stroke-width="0.07"/>
<path fill-rule="evenodd" clip-rule="evenodd" d="M19.4499 27.7399C19.2899 27.5499 19.3299 27.4999 19.5799 27.4899C19.7699 27.4899 20.1399 27.6199 20.2799 27.4999C20.4099 27.4099 20.3499 27.0099 20.4099 26.8399C20.4399 26.7199 20.4999 26.5699 20.6799 26.8099C21.1599 27.5799 21.7399 28.5099 22.0099 29.4199C22.1399 29.9299 22.0099 30.7199 21.5599 31.2499C21.5599 30.7999 21.3999 30.4899 21.1999 30.1099C20.9299 29.6199 19.9899 28.2499 19.4499 27.7299V27.7399Z" fill="white"/>
<path fill-rule="evenodd" clip-rule="evenodd" d="M21.4301 31.7799C21.9601 31.7799 22.0501 31.0799 22.0501 30.8799C21.7801 30.9299 21.3301 31.3699 21.4301 31.7799ZM26.0201 38.6799C26.3901 38.7599 26.3801 37.8599 25.9901 37.4699C26.1601 38.0499 25.7201 38.5899 26.0001 38.6699H26.0101L26.0201 38.6799ZM25.8601 38.6699C25.8901 39.0999 24.8001 38.6199 24.5301 38.2699C25.1701 38.5499 25.8301 38.3199 25.8601 38.6699ZM25.3901 38.0599C25.4301 38.4699 24.4601 38.0999 24.1501 37.7799C24.8001 37.9899 25.3501 37.7099 25.3901 38.0499V38.0599ZM25.5601 38.1099C25.9501 38.1999 25.8801 37.2599 25.5101 36.9399C25.7001 37.5599 25.2701 38.0199 25.5601 38.1099ZM25.1601 37.5399C25.5501 37.6299 25.3201 36.8199 25.0401 36.4999C25.0901 37.0799 24.9101 37.4999 25.1701 37.5399H25.1601ZM24.9601 37.5399C25.0001 37.9699 24.2401 37.6499 23.9501 37.2299C24.5901 37.4299 24.9201 37.1899 24.9601 37.5399ZM24.7601 37.2099C25.0001 37.0399 24.7501 36.5699 24.2701 36.5999C24.3201 36.8799 24.4801 37.3799 24.7601 37.2099ZM26.6201 39.1599C26.6301 39.5899 25.5601 39.3699 25.2101 38.9199C25.9001 39.0499 26.5801 38.8099 26.6101 39.1599H26.6201ZM22.3101 38.3899C22.3501 38.8199 21.1701 38.3399 20.8701 37.9399C21.4901 38.1499 22.2701 38.0499 22.3101 38.3899ZM23.0301 38.5599C23.2801 38.3899 22.7801 37.9399 22.3701 37.8299C22.4201 38.1099 22.7701 38.7299 23.0301 38.5699V38.5599ZM23.1101 38.8699C23.1401 39.2599 21.8501 39.0399 21.5101 38.6799C22.6101 38.8799 23.0701 38.5299 23.1101 38.8699Z" fill="white" stroke="#BD6B00" stroke-width="0.07"/>
<path fill-rule="evenodd" clip-rule="evenodd" d="M23.7299 39.1199C23.8599 39.4799 22.6299 39.3899 22.1899 39.1899C22.8899 39.1899 23.6299 38.8699 23.7299 39.1199Z" fill="white" stroke="#BD6B00" stroke-width="0.07"/>
<path fill-rule="evenodd" clip-rule="evenodd" d="M24.3 39.3799C24.43 39.6999 23.29 39.6999 22.73 39.5099C23.47 39.5099 24.17 39.0599 24.3 39.3799ZM25.14 39.5499C25.35 39.9399 24.13 39.9599 23.74 39.7799C24.43 39.6899 24.96 39.2499 25.14 39.5499ZM23.72 38.8999C23.33 39.1399 23.36 38.4199 23.06 37.9299C23.54 38.3699 23.99 38.6699 23.72 38.8999Z" fill="white" stroke="#BD6B00" stroke-width="0.07"/>
<path fill-rule="evenodd" clip-rule="evenodd" d="M24.4099 39.17C24.0899 39.45 23.8299 38.47 23.5299 37.91C24.0099 38.44 24.6999 38.93 24.4099 39.16V39.17ZM25.3099 39.44C25.0399 39.76 24.2499 38.51 23.9499 37.84C24.3899 38.36 25.5199 39.17 25.3099 39.44ZM24.5399 40.4C24.4099 40.88 22.3899 39.95 22.1499 39.46C23.3199 40.07 24.5699 39.94 24.5399 40.39V40.4ZM18.0699 30.59C18.0199 30.52 17.8799 30.59 17.9099 30.74C17.9499 30.94 18.2399 31.96 18.7499 32.31C19.1099 32.58 21.0099 32.99 21.8599 33.17C22.3399 33.26 22.7199 33.5 23.0399 33.87C22.9299 33.43 22.7999 32.99 22.6399 32.57C22.4799 32.17 22.0599 31.75 21.5999 31.73C20.7899 31.69 19.7299 31.62 18.9399 31.29C18.5799 31.14 18.2799 30.9 18.0499 30.59H18.0599H18.0699Z" fill="white" stroke="#BD6B00" stroke-width="0.07"/>
<path fill-rule="evenodd" clip-rule="evenodd" d="M22.7599 34.64C23.0299 34.83 23.3099 34.15 22.9899 33.5C22.9799 34.12 22.4799 34.34 22.7599 34.64Z" fill="white" stroke="#BD6B00" stroke-width="0.07"/>
<path fill-rule="evenodd" clip-rule="evenodd" d="M23.0099 35.26C23.3699 35.37 23.4799 34.73 23.2499 34.22C23.2899 34.76 22.6799 35.1 23.0099 35.26Z" fill="white" stroke="#BD6B00" stroke-width="0.07"/>
<path fill-rule="evenodd" clip-rule="evenodd" d="M23.2898 35.7701C23.6398 35.9401 23.7598 35.2901 23.5198 34.8301C23.5498 35.4301 23.0298 35.6101 23.2898 35.7601V35.7701Z" fill="white" stroke="#BD6B00" stroke-width="0.07"/>
<path fill-rule="evenodd" clip-rule="evenodd" d="M23.1498 35.81C23.0198 36.21 22.2198 35.45 22.0898 35.04C22.5798 35.53 23.2498 35.47 23.1498 35.8V35.81Z" fill="white" stroke="#BD6B00" stroke-width="0.07"/>
<path fill-rule="evenodd" clip-rule="evenodd" d="M22.7902 35.18C22.6302 35.58 21.6302 34.52 21.4102 34.02C21.9002 34.51 22.9002 34.88 22.7902 35.16V35.18Z" fill="white" stroke="#BD6B00" stroke-width="0.07"/>
<path fill-rule="evenodd" clip-rule="evenodd" d="M22.5898 34.5599C22.4298 35.0299 21.3498 33.7899 21.0298 33.3499C21.5598 33.8299 22.6998 34.2299 22.5898 34.5599ZM22.5498 34.1099C22.9498 34.0299 22.5398 33.7099 22.0598 33.1899C22.0498 33.7399 22.1298 34.1199 22.5498 34.1099Z" fill="white" stroke="#BD6B00" stroke-width="0.07"/>
<path fill-rule="evenodd" clip-rule="evenodd" d="M21.8999 33.7901C22.0699 33.6201 21.7499 33.5401 21.3499 33.0901C21.2799 33.4001 21.7199 33.9501 21.9099 33.7901H21.8999ZM23.7599 35.8101C23.9699 35.9401 24.1099 35.5001 23.8499 35.1201C23.7799 35.5501 23.5699 35.6501 23.7599 35.8101ZM19.2099 33.1101C18.7699 33.3801 18.0699 32.3101 17.8799 31.8701C18.2699 32.3801 19.2899 32.8301 19.2099 33.1101Z" fill="white" stroke="#BD6B00" stroke-width="0.07"/>
<path fill-rule="evenodd" clip-rule="evenodd" d="M19.6001 33.7199C19.3501 33.9899 18.5801 33.2499 18.3101 32.8799C18.7101 33.2399 19.7101 33.2799 19.6001 33.7199Z" fill="white" stroke="#BD6B00" stroke-width="0.07"/>
<path fill-rule="evenodd" clip-rule="evenodd" d="M20.0098 34.2799C19.9298 34.6499 18.8098 33.8099 18.5498 33.4199C19.0298 33.8899 20.0898 33.8499 20.0098 34.2799Z" fill="white" stroke="#BD6B00" stroke-width="0.07"/>
<path fill-rule="evenodd" clip-rule="evenodd" d="M19.84 34.6901C19.67 35.0201 18.75 34.1801 18.52 33.7601C19.09 34.2401 19.98 34.3601 19.85 34.6901H19.84ZM19.37 33.0501C19.65 32.7401 19.53 32.6001 19.32 32.1201C19.21 32.6101 19.04 32.8101 19.37 33.0501ZM19.76 33.6201C20.29 33.6501 19.76 33.0101 19.63 32.4601C19.68 33.0701 19.5 33.5601 19.76 33.6201Z" fill="white" stroke="#BD6B00" stroke-width="0.07"/>
<path fill-rule="evenodd" clip-rule="evenodd" d="M20.0899 34.1299C20.4499 34.0499 20.3599 33.5299 20.0599 32.9099C20.1299 33.5899 19.7499 33.9699 20.0899 34.1299ZM19.9599 35.1499C19.8299 35.5499 18.7899 34.6199 18.6299 34.2499C19.1599 34.6999 20.0499 34.8499 19.9599 35.1499Z" fill="white" stroke="#BD6B00" stroke-width="0.07"/>
<path fill-rule="evenodd" clip-rule="evenodd" d="M20.5798 35.7899C20.4298 36.1899 19.3398 35.3599 19.0098 34.9099C19.6598 35.4399 20.6598 35.3899 20.5798 35.7899Z" fill="white" stroke="#BD6B00" stroke-width="0.07"/>
<path fill-rule="evenodd" clip-rule="evenodd" d="M21.2198 36.4499C21.0498 37.0199 19.8998 36.0999 19.5698 35.6499C20.2898 36.2099 21.2998 36.0499 21.2198 36.4499ZM20.1598 34.9899C20.4698 35.1399 20.5898 34.2699 20.4098 33.6499C20.4098 34.3099 19.7898 34.8199 20.1398 34.9799H20.1498L20.1598 34.9899Z" fill="white" stroke="#BD6B00" stroke-width="0.07"/>
<path fill-rule="evenodd" clip-rule="evenodd" d="M20.6699 35.6801C21.0399 35.7901 20.9399 34.8401 20.5999 34.2201C20.5599 34.8401 20.2899 35.4201 20.6699 35.6801ZM21.3299 36.3301C21.7299 36.3401 21.4599 35.5201 21.1199 35.0501C21.1699 35.6501 20.9899 36.2501 21.3299 36.3301ZM20.5999 36.6801C20.4699 36.8901 20.1699 36.5101 19.6699 36.2101C20.1199 36.3401 20.6499 36.4801 20.5999 36.6801ZM20.3599 29.6701C20.7599 29.3801 20.4499 28.8501 20.3599 28.3401C20.2299 28.8201 19.9099 29.4601 20.3599 29.6701ZM20.3599 30.3701C19.7599 30.3001 19.8499 29.5601 19.8299 29.0801C20.0199 29.7301 20.4899 29.8401 20.3599 30.3801V30.3701ZM20.4399 30.2801C20.9299 30.2501 20.9099 29.7001 20.9299 29.1401C20.6799 29.6601 20.3999 29.7401 20.4399 30.2801Z" fill="white" stroke="#BD6B00" stroke-width="0.07"/>
<path fill-rule="evenodd" clip-rule="evenodd" d="M20.43 30.97C20.03 31.01 19.85 30.62 19.77 30.04C20.13 30.59 20.45 30.41 20.43 30.97ZM20.56 30.93C21.05 31 20.96 30.42 20.96 30C20.8 30.4 20.4 30.53 20.56 30.93Z" fill="white" stroke="#BD6B00" stroke-width="0.07"/>
<path fill-rule="evenodd" clip-rule="evenodd" d="M19.7998 30.6899C19.8398 31.0599 20.0798 31.6999 20.4598 31.5499C20.6098 31.0999 20.1098 30.9999 19.7998 30.6899Z" fill="white" stroke="#BD6B00" stroke-width="0.07"/>
<path fill-rule="evenodd" clip-rule="evenodd" d="M20.5698 31.5901C20.4098 31.2701 20.9698 31.1001 21.0798 30.6701C21.1498 31.2801 21.0898 31.6801 20.5698 31.6001V31.5901ZM18.9898 27.7101C19.2998 27.3901 19.0298 26.8601 18.9398 26.3501C18.8098 26.8301 18.6098 27.4701 18.9898 27.7101ZM18.9898 28.3201C18.4598 28.3901 18.3298 27.3001 18.2598 26.8201C18.4498 27.4701 19.0598 27.7501 18.9898 28.3401V28.3201ZM19.0998 28.3201C19.4698 28.1201 19.3898 27.7001 19.4998 27.3901C19.2598 27.7801 19.0198 27.8301 19.0998 28.3201Z" fill="white" stroke="#BD6B00" stroke-width="0.07"/>
<path fill-rule="evenodd" clip-rule="evenodd" d="M18.9698 29.0399C18.4198 29.0799 18.0898 27.8699 18.0698 27.3899C18.2398 28.0399 19.0498 28.3899 18.9898 29.0399H18.9798H18.9698ZM19.0898 29.0099C19.6198 28.8899 19.5598 28.5399 19.4798 27.9999C19.3098 28.5599 19.0098 28.4399 19.0898 29.0099Z" fill="white" stroke="#BD6B00" stroke-width="0.07"/>
<path fill-rule="evenodd" clip-rule="evenodd" d="M18.9702 29.7299C18.3602 29.8399 18.4002 28.8499 17.9102 28.1499C18.3402 28.6799 19.1102 29.3499 18.9702 29.7299ZM19.1002 29.6899C19.5802 29.7199 19.6302 29.0099 19.6102 28.7199C19.4902 29.0099 18.9502 29.2799 19.1202 29.6999H19.1102L19.1002 29.6899Z" fill="white" stroke="#BD6B00" stroke-width="0.07"/>
<path fill-rule="evenodd" clip-rule="evenodd" d="M18.0098 28.98C18.2398 29.74 18.5698 30.5 18.9698 30.44C19.1698 30 18.5798 29.95 18.0098 28.98Z" fill="white" stroke="#BD6B00" stroke-width="0.07"/>
<path fill-rule="evenodd" clip-rule="evenodd" d="M19.1202 30.3199C18.9602 29.9899 19.5202 29.8299 19.6302 29.3999C19.7002 30.0099 19.6402 30.4099 19.1202 30.3199ZM18.1802 29.8399C18.5102 30.5199 18.6602 31.2999 19.1102 31.1799C19.2802 30.6499 18.6002 30.5399 18.1802 29.8399Z" fill="white" stroke="#BD6B00" stroke-width="0.07"/>
<path fill-rule="evenodd" clip-rule="evenodd" d="M19.2 31.0599C19 30.6899 19.56 30.5699 19.71 30.0799C19.78 30.7199 19.71 31.1799 19.2 31.0499V31.0599ZM20.16 26.4699C20.48 26.5499 20.82 26.1899 20.71 25.6499C20.34 25.7299 20.18 26.0799 20.16 26.4699ZM19.11 26.1899C19.14 26.3499 19.34 26.3599 19.27 26.1399C19.22 25.9899 19.22 25.8299 19.27 25.6899C19.33 25.4899 19.33 25.2799 19.27 25.0799C19.22 24.9499 19.03 25.0299 19.11 25.1299C19.19 25.2499 19.2 25.4999 19.14 25.6199C19.06 25.7899 19.09 26.0199 19.11 26.1899ZM22.15 28.3199C22.02 28.4899 21.76 28.3699 21.96 28.1199C22.12 27.9199 22.36 27.7499 22.36 27.5399C22.39 27.2699 22.53 26.8799 22.68 26.7299C22.83 26.5799 23 26.7799 22.84 26.8899C22.67 26.9999 22.55 27.4699 22.56 27.6599C22.55 27.9299 22.29 28.1299 22.15 28.3199ZM21.75 28.0099C21.62 28.1999 21.43 28.0799 21.54 27.7799C21.63 27.5799 21.65 27.3099 21.75 27.1699C21.91 26.9399 22.15 26.7599 22.3 26.6099C22.46 26.4799 22.57 26.6099 22.43 26.7399C22.27 26.8999 22.12 27.0799 21.99 27.2699C21.8 27.5599 21.88 27.7999 21.75 27.9999V28.0099ZM19.66 27.0499C19.65 27.3199 19.86 27.3699 19.85 26.9999C19.85 26.5999 19.56 26.2299 19.72 25.6299C19.83 25.3399 19.83 24.7899 19.77 24.5099C19.72 24.2199 19.5 24.3999 19.6 24.6299C19.68 24.8999 19.59 25.3699 19.52 25.6299C19.32 26.3499 19.68 26.6899 19.65 27.0499H19.66ZM20.23 25.5899C20.2 25.8399 19.99 25.8599 20.06 25.5199C20.11 25.2499 20.11 25.0399 20.06 24.8199C19.98 24.5399 20.01 24.0599 20.06 23.8599C20.13 23.6499 20.33 23.7699 20.25 23.9299C20.16 24.1799 20.14 24.4499 20.21 24.7099C20.29 24.9799 20.28 25.3499 20.24 25.5999L20.23 25.5899ZM18.16 30.5199C18.27 30.6399 18.43 30.5599 18.29 30.3899C18.16 30.2599 18.2 30.2299 18.12 30.0699C18.04 29.8799 18.05 29.7899 17.96 29.6699C17.87 29.5399 17.75 29.6699 17.83 29.7599C17.94 29.8899 17.91 29.9699 17.96 30.0899C18.09 30.2899 18.05 30.3999 18.16 30.5199ZM20.87 33.7899C21.03 33.8799 21.17 34.0099 21.27 34.1599C21.37 34.3199 21.43 34.4899 21.45 34.6799C21.46 35.0099 21.55 35.3299 21.72 35.6199C21.45 35.5499 21.32 35.1299 21.28 34.7199C21.24 34.2899 21.01 34.1199 20.88 33.7899H20.87ZM21.55 34.5699C21.78 34.9799 22.08 35.1399 22.11 35.4499C22.14 35.8099 22.16 35.8199 22.26 36.1699C21.99 36.0999 21.93 36.0799 21.86 35.5499C21.82 35.1799 21.51 34.9299 21.55 34.5799V34.5699Z" fill="white" stroke="#BD6B00" stroke-width="0.07"/>
<path fill-rule="evenodd" clip-rule="evenodd" d="M28.5398 38.41C28.6698 38.65 28.8098 39.01 29.0698 38.94C29.0698 38.77 28.7898 38.63 28.5398 38.41ZM28.9398 38.4901C29.4298 38.7001 29.8698 38.6501 29.9398 38.9701C29.4598 39.0201 29.2798 38.8401 28.9298 38.4901H28.9398ZM26.7998 36.8C27.1298 37.06 27.3598 37.42 27.4598 37.82C27.5698 38.19 27.7298 38.5401 27.9398 38.8601C27.5898 38.6301 27.3398 38.2801 27.2398 37.8801C27.1498 37.4801 27.0298 37.18 26.7998 36.82V36.8ZM27.2098 36.8C27.5798 37.09 27.9298 37.44 28.0298 37.85C28.1398 38.24 28.1998 38.53 28.4598 38.91C28.0598 38.66 27.9198 38.29 27.7998 37.87C27.7098 37.47 27.4698 37.1801 27.2198 36.8101L27.2098 36.8ZM28.4298 37.7701C28.4298 37.7701 28.4298 37.7 28.4498 37.67C28.4698 37.64 28.4898 37.6201 28.5198 37.6101C28.6298 37.5701 28.7498 37.53 28.8698 37.5C28.9998 37.46 29.0798 37.55 29.0798 37.62V37.89C29.0798 37.98 29.0498 38 28.9898 38.01C28.8998 38.02 28.7598 38.04 28.6698 38.1C28.5898 38.15 28.5098 38.11 28.4698 38.03L28.4298 37.76V37.7701ZM29.8398 37.7701C29.8398 37.6901 29.8098 37.6201 29.7598 37.6101C29.6598 37.5701 29.5498 37.5501 29.4398 37.5601C29.3098 37.5601 29.2898 37.59 29.2898 37.64V37.92C29.2898 37.9934 29.3065 38.0367 29.3398 38.05C29.4298 38.05 29.5798 38.0501 29.6698 38.1301C29.7398 38.1701 29.7998 38.13 29.8198 38.05V37.7701H29.8398Z" fill="white"/>
<path fill-rule="evenodd" clip-rule="evenodd" d="M35.6798 28.1999C35.8398 27.9299 36.0398 28.5699 36.7198 29.0399C37.0298 29.2499 37.2498 29.8199 37.2498 30.1999C37.2498 30.4699 37.2198 30.7199 37.2498 30.9699C37.2598 31.1199 37.4398 31.4799 37.3198 31.5699C37.0298 31.7799 36.6398 32.2899 36.4698 32.4599C36.3098 32.5899 36.1798 31.7599 36.0698 31.3999C35.9398 30.9999 35.9898 30.5099 35.6398 30.1499C35.3998 29.8799 34.7898 29.6399 34.8398 29.5399L35.6798 28.2099V28.1999Z" fill="white" stroke="#BD6B00" stroke-width="0.07"/>
<path fill-rule="evenodd" clip-rule="evenodd" d="M35.7199 30.25C35.7699 30.12 35.8399 30.01 35.9299 29.9C36.0099 29.79 36.1199 29.71 36.2499 29.66C36.3699 29.62 36.4799 29.55 36.5699 29.46C36.6199 29.4 36.6599 29.33 36.6799 29.26C36.6999 29.17 36.6999 29.08 36.6799 28.99L36.7199 29.03C37.0299 29.24 37.2499 29.81 37.2499 30.19C37.2499 30.29 37.2499 30.39 37.2499 30.5C37.2199 30.57 37.2099 30.63 37.1699 30.67L37.0199 30.78L36.6599 30.87C36.5299 30.93 36.4099 31.02 36.3099 31.14C36.2099 31.24 36.1299 31.36 36.0699 31.49L36.0399 31.38C35.9299 31.02 35.9499 30.6 35.6899 30.25H35.6999H35.7199Z" fill="#BF0000" stroke="#BD6B00" stroke-width="0.07"/>
<path d="M36.6802 28.99C36.7502 29.43 36.4902 29.59 36.2502 29.67C36.0102 29.76 35.8102 30.02 35.7202 30.25M37.2802 30.45C37.1702 30.85 36.9102 30.8 36.6702 30.88C36.4302 30.97 36.1802 31.28 36.0702 31.52" stroke="#BD6B00" stroke-width="0.07"/>
<path fill-rule="evenodd" clip-rule="evenodd" d="M35.9102 27.9401L35.7802 27.8601L33.4302 31.8301L33.5602 31.9101L35.9102 27.9201V27.9401Z" fill="white" stroke="#BD6B00" stroke-width="0.07"/>
<path fill-rule="evenodd" clip-rule="evenodd" d="M35.6499 27.7801C35.6499 27.8501 35.6799 27.9201 35.7299 27.9701C35.7799 28.0201 35.8499 28.0501 35.9199 28.0501C35.9899 28.0501 36.0599 28.0201 36.1099 27.9701C36.1599 27.9201 36.1899 27.8501 36.1899 27.7801C36.1899 27.7101 36.1599 27.6401 36.1099 27.5901C36.0599 27.5401 35.9899 27.5101 35.9199 27.5101C35.8499 27.5101 35.7799 27.5401 35.7299 27.5901C35.6799 27.6401 35.6499 27.7101 35.6499 27.7801ZM33.6299 24.5901H32.6699V24.8001H33.6299V24.5901ZM33.6299 25.0001H32.6699V26.8301H33.6299V25.0001ZM33.6799 24.3401H32.6199C32.5899 23.9801 32.9499 23.6001 33.1499 23.6001C33.3599 23.6101 33.6899 24.0001 33.6799 24.3401Z" fill="white" stroke="#BD6B00" stroke-width="0.07"/>
<path fill-rule="evenodd" clip-rule="evenodd" d="M30.9902 24.12C31.1902 24.2 31.3502 24.43 31.4402 24.69C31.5302 24.96 31.5702 25.26 31.5202 25.5C31.5202 25.59 31.4802 25.65 31.4502 25.7C31.4202 25.74 31.4002 25.77 31.3702 25.77C31.3302 25.77 31.2902 25.77 31.2802 25.73L31.2502 25.62C31.2602 25.35 31.2602 25.11 31.2102 24.9C31.1502 24.66 31.0102 24.46 30.8102 24.32C30.7702 24.29 30.7602 24.25 30.7402 24.23C30.7402 24.19 30.7502 24.16 30.7802 24.14C30.8302 24.1 30.9102 24.09 30.9802 24.13L30.9902 24.12ZM30.9602 24.17C30.9102 24.14 30.8502 24.17 30.8302 24.18V24.21C30.8302 24.21 30.8202 24.24 30.8602 24.26C31.0602 24.41 31.2102 24.63 31.2702 24.87C31.3302 25.11 31.3402 25.37 31.3102 25.61C31.3102 25.64 31.3102 25.67 31.3402 25.69C31.3402 25.69 31.3402 25.7 31.3702 25.69C31.3702 25.69 31.4002 25.69 31.4202 25.65C31.4502 25.6 31.4602 25.55 31.4702 25.49C31.5102 25.25 31.4702 24.96 31.3802 24.69C31.2902 24.45 31.1402 24.24 30.9802 24.16H30.9702L30.9602 24.17Z" fill="#BD6B00"/>
<path fill-rule="evenodd" clip-rule="evenodd" d="M30.6402 24.3801C30.8402 24.4701 30.9702 24.6901 31.0402 24.9401C31.1102 25.2001 31.1202 25.4601 31.0802 25.7201C31.0502 25.8901 30.9502 25.9901 30.8702 25.9901C30.8302 26.0001 30.7902 25.9901 30.7602 25.9501C30.7302 25.9101 30.7202 25.8701 30.7302 25.8201C30.7802 25.6101 30.8002 25.3701 30.7702 25.1401C30.7302 24.9101 30.6402 24.7101 30.4802 24.5901C30.4402 24.5501 30.4102 24.5201 30.4102 24.4801C30.4102 24.4701 30.4102 24.4501 30.4102 24.4401C30.4102 24.4301 30.4202 24.4101 30.4302 24.4001C30.4802 24.3601 30.5602 24.3501 30.6302 24.3701L30.6402 24.3801ZM30.6102 24.4501C30.5602 24.4201 30.5002 24.4401 30.4802 24.4501V24.4901L30.5102 24.5401C30.6002 24.6101 30.6702 24.7001 30.7302 24.8001C30.7802 24.9001 30.8202 25.0101 30.8302 25.1201C30.8702 25.3601 30.8402 25.6101 30.8002 25.8101C30.7902 25.8601 30.8002 25.8901 30.8002 25.9201H30.8702C30.8702 25.9201 31.0002 25.8701 31.0302 25.7101C31.0702 25.4801 31.0602 25.1901 30.9902 24.9501C30.9202 24.7101 30.7902 24.5101 30.6202 24.4401L30.6102 24.4501Z" fill="#BD6B00"/>
<path fill-rule="evenodd" clip-rule="evenodd" d="M33.6902 28.3201H32.6302V29.7801H33.6902V28.3201ZM33.6202 30.6301H32.6002V30.9501H33.6202V30.6301ZM33.6502 31.1801H32.5902V32.3401H33.6502V31.1801ZM33.7302 32.5801H32.5702V33.2301H33.7302V32.5801ZM33.5802 30.3701H32.6502L32.4602 30.0501H33.7402L33.5802 30.3701ZM32.3302 29.2301V28.4301H31.6802C31.9502 28.6401 32.1802 28.9201 32.3302 29.2301Z" fill="white" stroke="#BD6B00" stroke-width="0.07"/>
<path d="M33.51 29.5601C33.51 29.7301 33.31 29.6701 33.31 29.5701V28.8301C33.31 28.7001 32.99 28.7201 32.99 28.8201V29.6201C32.99 29.7501 32.76 29.7401 32.78 29.6201V28.6901C32.78 28.4001 33.51 28.4101 33.51 28.6801V29.5701V29.5601ZM33.51 31.3301H32.75V32.2601H33.51V31.3301Z" stroke="#BD6B00" stroke-width="0.07"/>
<path fill-rule="evenodd" clip-rule="evenodd" d="M33.04 31.7299H32.77V31.8599H33.04V31.7299ZM33.51 31.7299H33.24V31.8599H33.51V31.7299ZM33.24 31.3299H33.04V31.7299H33.24V31.3299ZM33.24 31.8599H33.04V32.2699H33.24V31.8599ZM37.45 21.8899C37.4 22.6199 37.64 23.0299 38.02 22.9699C38.13 22.5699 37.89 22.2899 37.45 21.8899ZM38.31 23.5299C38.66 23.3599 38.4 21.9999 38.27 21.4299C38.18 22.1599 38 23.1999 38.31 23.5299Z" fill="white"/>
<path d="M33.04 31.7299H32.77V31.8599H33.04M33.04 31.7299V31.8599M33.04 31.7299V31.3299H33.24V31.7299M33.04 31.7299H33.24M33.04 31.8599H33.24M33.04 31.8599V32.2699H33.24V31.8599M33.24 31.7299H33.51V31.8599H33.24M33.24 31.7299V31.8599M37.45 21.8899C37.4 22.6199 37.64 23.0299 38.02 22.9699C38.13 22.5699 37.89 22.2899 37.45 21.8899ZM38.31 23.5299C38.66 23.3599 38.4 21.9999 38.27 21.4299C38.18 22.1599 38 23.1999 38.31 23.5299Z" stroke="#BD6B00" stroke-width="0.07"/>
<path fill-rule="evenodd" clip-rule="evenodd" d="M38.19 23.5899C37.61 23.7899 37.13 23.1599 36.98 22.4299C37.46 23.0899 38.24 23.0899 38.18 23.5899H38.19ZM38.63 24.2699C39.08 24.1499 38.82 22.7099 38.72 22.1399C38.63 22.7399 38.31 24.0699 38.63 24.2699ZM38.47 24.2299C38.44 23.7399 37.95 23.8699 37.61 23.6099C37.68 23.8799 37.88 24.2999 38.47 24.2299ZM39.03 24.8899C39.48 24.7599 39.22 23.2099 39.24 22.5799C39.11 23.1399 38.68 24.7499 39.03 24.8899ZM38.82 24.8199C38.45 24.9399 37.96 24.6899 37.92 24.2499C38.25 24.4799 38.76 24.2999 38.82 24.8199Z" fill="white" stroke="#BD6B00" stroke-width="0.07"/>
<path fill-rule="evenodd" clip-rule="evenodd" d="M39.3802 25.5701C39.8102 25.6101 39.6202 24.2901 39.6202 23.0701C39.4602 24.2101 39.0202 25.2601 39.3802 25.5701Z" fill="white" stroke="#BD6B00" stroke-width="0.07"/>
<path fill-rule="evenodd" clip-rule="evenodd" d="M39.2198 25.5201C38.9298 25.6501 38.4098 25.4301 38.2598 24.9401C38.7898 25.1701 39.1398 24.9401 39.2198 25.5201ZM35.8198 22.5701C35.8998 23.2201 36.1698 23.5901 36.5498 23.5301C36.6598 23.1301 36.3398 22.8701 35.8198 22.5701ZM36.8598 24.2201C36.2098 24.3101 35.9798 23.8201 35.5298 23.1701C36.1498 23.6201 36.8898 23.7001 36.8598 24.2301V24.2201Z" fill="white" stroke="#BD6B00" stroke-width="0.07"/>
<path fill-rule="evenodd" clip-rule="evenodd" d="M37.0502 24.15C37.4002 23.72 37.0502 23.18 36.7802 22.73C36.8302 23.41 36.6102 23.79 37.0502 24.15ZM37.1802 24.85C37.2302 24.42 36.5202 24.33 36.2002 24.11C36.3202 24.35 36.4702 25 37.2002 24.85H37.1902H37.1802Z" fill="white" stroke="#BD6B00" stroke-width="0.07"/>
<path fill-rule="evenodd" clip-rule="evenodd" d="M37.3399 24.85C37.8299 24.8 37.6299 23.96 37.2699 23.51C37.4199 24.15 36.9999 24.59 37.3399 24.85Z" fill="white" stroke="#BD6B00" stroke-width="0.07"/>
<path fill-rule="evenodd" clip-rule="evenodd" d="M37.7101 25.5599C38.2701 25.2899 37.9101 24.5999 37.7101 24.1899C37.7901 24.7399 37.3401 25.1499 37.7101 25.5499V25.5599Z" fill="white" stroke="#BD6B00" stroke-width="0.07"/>
<path fill-rule="evenodd" clip-rule="evenodd" d="M37.6099 25.48C37.3199 25.88 36.7499 25.37 36.6299 24.79C37.1199 25.2 37.4899 25.14 37.6099 25.49V25.48ZM38.8899 28.18C38.9399 27.61 38.5199 26.58 38.8199 26.03C38.8599 25.95 38.7299 25.75 38.6299 25.87C38.4999 26.07 38.3599 26.63 38.2999 26.42C38.2499 26.19 38.2299 25.81 38.0299 25.73C37.8999 25.69 37.7199 25.65 37.7799 25.86C37.8299 26.05 37.9399 26.31 37.8199 26.33C37.7499 26.33 37.5499 26.06 37.3799 25.93C37.2499 25.82 37.0299 26.01 37.2499 26.17C37.8899 26.7 38.5099 26.95 38.8899 28.19V28.18ZM40.0499 36.75C40.1299 36.75 40.2199 36.71 40.1299 36.83C39.3699 37.76 39.1599 38.03 38.0599 37.89C36.9599 37.74 36.6899 37.44 35.9099 37C35.6799 36.88 35.4299 36.81 35.1799 36.78C34.9199 36.76 34.6699 36.78 34.4199 36.86C34.2099 36.93 34.0699 36.93 34.2299 36.77C34.3899 36.62 34.5599 36.41 34.7599 36.26C35.2599 35.93 35.8599 35.8 36.4499 35.9C37.2499 36.03 37.9299 36.55 38.7399 36.75C39.1699 36.84 39.6199 36.84 40.0599 36.75H40.0499ZM33.6999 38.41C33.5699 38.44 33.4699 38.7 33.3899 38.53C33.2799 38.22 33.3599 38 33.4999 38.01C33.6599 38.05 33.9099 38.41 33.6999 38.41Z" fill="white" stroke="#BD6B00" stroke-width="0.07"/>
<path fill-rule="evenodd" clip-rule="evenodd" d="M40.56 27.7399C40.72 27.5499 40.68 27.4999 40.43 27.4899C40.24 27.4899 39.87 27.6199 39.73 27.4999C39.6 27.4099 39.66 27.0099 39.6 26.8399C39.57 26.7199 39.51 26.5699 39.33 26.8099C38.85 27.5799 38.27 28.5099 38 29.4199C37.87 29.9299 38 30.7199 38.45 31.2499C38.45 30.7999 38.61 30.4899 38.81 30.1099C39.08 29.6199 40.02 28.2499 40.56 27.7299V27.7399Z" fill="white"/>
<path fill-rule="evenodd" clip-rule="evenodd" d="M38.5802 31.7799C38.0502 31.7799 37.9602 31.0799 37.9602 30.8799C38.2302 30.9299 38.6802 31.3699 38.5802 31.7799ZM33.9902 38.6799C33.6202 38.7599 33.6302 37.8599 34.0202 37.4699C33.8502 38.0499 34.2902 38.5899 34.0102 38.6699H34.0002L33.9902 38.6799ZM34.1502 38.6699C34.1202 39.0999 35.2102 38.6199 35.4802 38.2699C34.8402 38.5499 34.1802 38.3199 34.1502 38.6699ZM34.6202 38.0599C34.5802 38.4699 35.5502 38.0999 35.8602 37.7799C35.2102 37.9899 34.6602 37.7099 34.6202 38.0499V38.0599ZM34.4502 38.1099C34.0602 38.1999 34.1302 37.2599 34.5002 36.9399C34.3102 37.5599 34.7402 38.0199 34.4502 38.1099ZM34.8502 37.5399C34.4602 37.6299 34.6902 36.8199 34.9702 36.4999C34.9202 37.0799 35.1002 37.4999 34.8402 37.5399H34.8502ZM35.0502 37.5399C35.0102 37.9699 35.7702 37.6499 36.0602 37.2299C35.4202 37.4299 35.0902 37.1899 35.0502 37.5399ZM35.2502 37.2099C35.0102 37.0399 35.2602 36.5699 35.7402 36.5999C35.6902 36.8799 35.5302 37.3799 35.2502 37.2099ZM33.3902 39.1599C33.3802 39.5899 34.4502 39.3699 34.8002 38.9199C34.1102 39.0499 33.4302 38.8099 33.4002 39.1599H33.3902ZM37.7002 38.3899C37.6602 38.8199 38.8402 38.3399 39.1402 37.9399C38.5202 38.1499 37.7402 38.0499 37.7002 38.3899ZM36.9802 38.5599C36.7302 38.3899 37.2302 37.9399 37.6402 37.8299C37.5902 38.1099 37.2402 38.7299 36.9802 38.5699V38.5599ZM36.9002 38.8699C36.8702 39.2599 38.1602 39.0399 38.5002 38.6799C37.4002 38.8799 36.9402 38.5299 36.9002 38.8699Z" fill="white" stroke="#BD6B00" stroke-width="0.07"/>
<path fill-rule="evenodd" clip-rule="evenodd" d="M36.2801 39.1199C36.1501 39.4799 37.3801 39.3899 37.8201 39.1899C37.1201 39.1899 36.3801 38.8699 36.2801 39.1199Z" fill="white" stroke="#BD6B00" stroke-width="0.07"/>
<path fill-rule="evenodd" clip-rule="evenodd" d="M35.7098 39.3799C35.5798 39.6999 36.7198 39.6999 37.2798 39.5099C36.5398 39.5099 35.8398 39.0599 35.7098 39.3799ZM34.8698 39.5499C34.6598 39.9399 35.8798 39.9599 36.2698 39.7799C35.5798 39.6899 35.0498 39.2499 34.8698 39.5499ZM36.2898 38.8999C36.6798 39.1399 36.6498 38.4199 36.9498 37.9299C36.4698 38.3699 36.0198 38.6699 36.2898 38.8999Z" fill="white" stroke="#BD6B00" stroke-width="0.07"/>
<path fill-rule="evenodd" clip-rule="evenodd" d="M35.6001 39.17C35.9201 39.45 36.1801 38.47 36.4801 37.91C36.0001 38.44 35.3101 38.93 35.6001 39.16V39.17ZM34.7001 39.44C34.9701 39.76 35.7601 38.51 36.0601 37.84C35.6201 38.36 34.4901 39.17 34.7001 39.44ZM35.4701 40.4C35.6001 40.88 37.6201 39.95 37.8601 39.46C36.6901 40.07 35.4401 39.94 35.4701 40.39V40.4ZM41.9401 30.59C41.9901 30.52 42.1301 30.59 42.1001 30.74C42.0601 30.94 41.7701 31.96 41.2601 32.31C40.9001 32.58 39.0001 32.99 38.1501 33.17C37.6701 33.26 37.2901 33.5 36.9701 33.87C37.0801 33.43 37.2101 32.99 37.3701 32.57C37.5301 32.17 37.9501 31.75 38.4101 31.73C39.2201 31.69 40.2801 31.62 41.0701 31.29C41.4301 31.14 41.7301 30.9 41.9601 30.59H41.9501H41.9401Z" fill="white" stroke="#BD6B00" stroke-width="0.07"/>
<path fill-rule="evenodd" clip-rule="evenodd" d="M37.2498 34.64C36.9798 34.83 36.7098 34.15 37.0198 33.5C37.0298 34.12 37.5298 34.34 37.2498 34.64Z" fill="white" stroke="#BD6B00" stroke-width="0.07"/>
<path fill-rule="evenodd" clip-rule="evenodd" d="M37.0001 35.26C36.6401 35.37 36.5301 34.73 36.7601 34.22C36.7201 34.76 37.3301 35.1 37.0001 35.26Z" fill="white" stroke="#BD6B00" stroke-width="0.07"/>
<path fill-rule="evenodd" clip-rule="evenodd" d="M36.7201 35.7701C36.3701 35.9401 36.2501 35.2901 36.4901 34.8301C36.4601 35.4301 36.9801 35.6101 36.7201 35.7601V35.7701Z" fill="white" stroke="#BD6B00" stroke-width="0.07"/>
<path fill-rule="evenodd" clip-rule="evenodd" d="M36.8601 35.81C36.9901 36.21 37.7901 35.45 37.9201 35.04C37.4301 35.53 36.7601 35.47 36.8601 35.8V35.81Z" fill="white" stroke="#BD6B00" stroke-width="0.07"/>
<path fill-rule="evenodd" clip-rule="evenodd" d="M37.2198 35.18C37.3798 35.58 38.3798 34.52 38.5998 34.02C38.1098 34.51 37.1098 34.88 37.2198 35.16V35.18Z" fill="white" stroke="#BD6B00" stroke-width="0.07"/>
<path fill-rule="evenodd" clip-rule="evenodd" d="M37.4201 34.5599C37.5801 35.0299 38.6601 33.7899 38.9801 33.3499C38.4501 33.8299 37.3101 34.2299 37.4201 34.5599ZM37.4601 34.1099C37.0601 34.0299 37.4701 33.7099 37.9501 33.1899C37.9601 33.7399 37.8801 34.1199 37.4601 34.1099Z" fill="white" stroke="#BD6B00" stroke-width="0.07"/>
<path fill-rule="evenodd" clip-rule="evenodd" d="M38.1098 33.7901C37.9398 33.6201 38.2598 33.5401 38.6498 33.0901C38.7198 33.4001 38.2798 33.9501 38.0898 33.7901H38.0998H38.1098ZM36.2498 35.8101C36.0398 35.9401 35.8998 35.5001 36.1598 35.1201C36.2298 35.5501 36.4398 35.6501 36.2498 35.8101ZM40.7998 33.1101C41.2398 33.3801 41.9398 32.3101 42.1298 31.8701C41.7398 32.3801 40.7198 32.8301 40.7998 33.1101Z" fill="white" stroke="#BD6B00" stroke-width="0.07"/>
<path fill-rule="evenodd" clip-rule="evenodd" d="M40.4098 33.7199C40.6598 33.9899 41.4298 33.2499 41.6998 32.8799C41.2998 33.2399 40.2998 33.2799 40.4098 33.7199Z" fill="white" stroke="#BD6B00" stroke-width="0.07"/>
<path fill-rule="evenodd" clip-rule="evenodd" d="M39.9999 34.2799C40.0799 34.6499 41.1999 33.8099 41.4599 33.4199C40.9799 33.8899 39.9199 33.8499 39.9999 34.2799Z" fill="white" stroke="#BD6B00" stroke-width="0.07"/>
<path fill-rule="evenodd" clip-rule="evenodd" d="M40.1701 34.6901C40.3401 35.0201 41.2601 34.1801 41.4901 33.7601C40.9201 34.2401 40.0301 34.3601 40.1601 34.6901H40.1701ZM40.6401 33.0501C40.3601 32.7401 40.4801 32.6001 40.6901 32.1201C40.8001 32.6101 40.9701 32.8101 40.6401 33.0501ZM40.2501 33.6201C39.7201 33.6501 40.2501 33.0101 40.3801 32.4601C40.3301 33.0701 40.5101 33.5601 40.2501 33.6201Z" fill="white" stroke="#BD6B00" stroke-width="0.07"/>
<path fill-rule="evenodd" clip-rule="evenodd" d="M39.9201 34.1299C39.5601 34.0499 39.6501 33.5299 39.9501 32.9099C39.8801 33.5899 40.2601 33.9699 39.9201 34.1299ZM40.0501 35.1499C40.1801 35.5499 41.2201 34.6199 41.3801 34.2499C40.8501 34.6999 39.9601 34.8499 40.0501 35.1499Z" fill="white" stroke="#BD6B00" stroke-width="0.07"/>
<path fill-rule="evenodd" clip-rule="evenodd" d="M39.4298 35.7899C39.5798 36.1899 40.6698 35.3599 40.9998 34.9099C40.3498 35.4399 39.3498 35.3899 39.4298 35.7899Z" fill="white" stroke="#BD6B00" stroke-width="0.07"/>
<path fill-rule="evenodd" clip-rule="evenodd" d="M38.7901 36.4499C38.9601 37.0199 40.1101 36.0999 40.4401 35.6499C39.7201 36.2099 38.7101 36.0499 38.7901 36.4499ZM39.8501 34.9899C39.5401 35.1399 39.4201 34.2699 39.6001 33.6499C39.6001 34.3099 40.2201 34.8199 39.8701 34.9799H39.8601L39.8501 34.9899Z" fill="white" stroke="#BD6B00" stroke-width="0.07"/>
<path fill-rule="evenodd" clip-rule="evenodd" d="M39.34 35.6801C38.97 35.7901 39.07 34.8401 39.41 34.2201C39.45 34.8401 39.72 35.4201 39.34 35.6801ZM38.68 36.3301C38.28 36.3401 38.55 35.5201 38.89 35.0501C38.84 35.6501 39.02 36.2501 38.68 36.3301ZM39.41 36.6801C39.54 36.8901 39.84 36.5101 40.34 36.2101C39.89 36.3401 39.36 36.4801 39.41 36.6801ZM39.65 29.6701C39.25 29.3801 39.56 28.8501 39.65 28.3401C39.78 28.8201 40.1 29.4601 39.65 29.6701ZM39.65 30.3701C40.25 30.3001 40.16 29.5601 40.18 29.0801C39.99 29.7301 39.52 29.8401 39.65 30.3801V30.3701ZM39.57 30.2801C39.08 30.2501 39.1 29.7001 39.08 29.1401C39.33 29.6601 39.61 29.7401 39.57 30.2801Z" fill="white" stroke="#BD6B00" stroke-width="0.07"/>
<path fill-rule="evenodd" clip-rule="evenodd" d="M39.58 30.97C39.98 31.01 40.16 30.62 40.24 30.04C39.88 30.59 39.56 30.41 39.58 30.97ZM39.45 30.93C38.96 31 39.05 30.42 39.05 30C39.21 30.4 39.61 30.53 39.45 30.93Z" fill="white" stroke="#BD6B00" stroke-width="0.07"/>
<path fill-rule="evenodd" clip-rule="evenodd" d="M40.2099 30.6899C40.1699 31.0599 39.9299 31.6999 39.5499 31.5499C39.3999 31.0999 39.8999 30.9999 40.2099 30.6899Z" fill="white" stroke="#BD6B00" stroke-width="0.07"/>
<path fill-rule="evenodd" clip-rule="evenodd" d="M39.4401 31.5901C39.6001 31.2701 39.0401 31.1001 38.9301 30.6701C38.8601 31.2801 38.9201 31.6801 39.4401 31.6001V31.5901ZM41.0201 27.7101C40.7101 27.3901 40.9801 26.8601 41.0701 26.3501C41.2001 26.8301 41.4001 27.4701 41.0201 27.7101ZM41.0201 28.3201C41.5501 28.3901 41.6801 27.3001 41.7501 26.8201C41.5601 27.4701 40.9501 27.7501 41.0201 28.3401V28.3201ZM40.9101 28.3201C40.5401 28.1201 40.6201 27.7001 40.5101 27.3901C40.7501 27.7801 40.9901 27.8301 40.9101 28.3201Z" fill="white" stroke="#BD6B00" stroke-width="0.07"/>
<path fill-rule="evenodd" clip-rule="evenodd" d="M41.0398 29.0399C41.5798 29.0799 41.9198 27.8699 41.9398 27.3899C41.7698 28.0399 40.9598 28.3899 41.0198 29.0399H41.0298H41.0398ZM40.9198 29.0099C40.3898 28.8899 40.4498 28.5399 40.5298 27.9999C40.6998 28.5599 40.9998 28.4399 40.9198 29.0099Z" fill="white" stroke="#BD6B00" stroke-width="0.07"/>
<path fill-rule="evenodd" clip-rule="evenodd" d="M41.0401 29.7299C41.6501 29.8399 41.6101 28.8499 42.1001 28.1499C41.6701 28.6799 40.9001 29.3499 41.0401 29.7299ZM40.9101 29.6899C40.4301 29.7199 40.3801 29.0099 40.4001 28.7199C40.5201 29.0099 41.0601 29.2799 40.8901 29.6999H40.9001L40.9101 29.6899Z" fill="white" stroke="#BD6B00" stroke-width="0.07"/>
<path fill-rule="evenodd" clip-rule="evenodd" d="M41.9998 28.98C41.7698 29.74 41.4398 30.5 41.0398 30.44C40.8398 30 41.4298 29.95 41.9998 28.98Z" fill="white" stroke="#BD6B00" stroke-width="0.07"/>
<path fill-rule="evenodd" clip-rule="evenodd" d="M40.8898 30.3199C41.0498 29.9899 40.4898 29.8299 40.3798 29.3999C40.3098 30.0099 40.3698 30.4099 40.8898 30.3199ZM41.8298 29.8399C41.4998 30.5199 41.3498 31.2999 40.8998 31.1799C40.7298 30.6499 41.4098 30.5399 41.8298 29.8399Z" fill="white" stroke="#BD6B00" stroke-width="0.07"/>
<path fill-rule="evenodd" clip-rule="evenodd" d="M40.81 31.0599C41.01 30.6899 40.45 30.5699 40.3 30.0799C40.23 30.7199 40.3 31.1799 40.81 31.0499V31.0599ZM39.85 26.4699C39.53 26.5499 39.19 26.1899 39.3 25.6499C39.67 25.7299 39.83 26.0799 39.85 26.4699ZM40.9 26.1899C40.87 26.3499 40.67 26.3599 40.74 26.1399C40.79 25.9899 40.79 25.8299 40.74 25.6899C40.68 25.4899 40.68 25.2799 40.74 25.0799C40.79 24.9499 40.98 25.0299 40.9 25.1299C40.82 25.2499 40.81 25.4999 40.87 25.6199C40.95 25.7899 40.92 26.0199 40.9 26.1899ZM37.86 28.3199C37.99 28.4899 38.25 28.3699 38.05 28.1199C37.89 27.9199 37.65 27.7499 37.65 27.5399C37.62 27.2699 37.48 26.8799 37.33 26.7299C37.18 26.5799 37.01 26.7799 37.17 26.8899C37.34 26.9999 37.46 27.4699 37.45 27.6599C37.46 27.9299 37.72 28.1299 37.86 28.3199ZM38.26 28.0099C38.39 28.1999 38.58 28.0799 38.47 27.7799C38.38 27.5799 38.36 27.3099 38.26 27.1699C38.1 26.9399 37.86 26.7599 37.71 26.6099C37.55 26.4799 37.44 26.6099 37.58 26.7399C37.74 26.8999 37.89 27.0799 38.02 27.2699C38.21 27.5599 38.13 27.7999 38.26 27.9999V28.0099ZM40.35 27.0499C40.36 27.3199 40.15 27.3699 40.16 26.9999C40.16 26.5999 40.45 26.2299 40.29 25.6299C40.18 25.3399 40.18 24.7899 40.24 24.5099C40.29 24.2199 40.51 24.3999 40.41 24.6299C40.33 24.8999 40.42 25.3699 40.49 25.6299C40.69 26.3499 40.33 26.6899 40.36 27.0499H40.35ZM39.78 25.5899C39.81 25.8399 40.02 25.8599 39.95 25.5199C39.9 25.2499 39.9 25.0399 39.95 24.8199C40.03 24.5399 40 24.0599 39.95 23.8599C39.88 23.6499 39.68 23.7699 39.76 23.9299C39.85 24.1799 39.87 24.4499 39.8 24.7099C39.72 24.9799 39.73 25.3499 39.77 25.5999L39.78 25.5899ZM41.85 30.5199C41.74 30.6399 41.58 30.5599 41.72 30.3899C41.85 30.2599 41.81 30.2299 41.89 30.0699C41.97 29.8799 41.96 29.7899 42.05 29.6699C42.14 29.5399 42.26 29.6699 42.18 29.7599C42.07 29.8899 42.1 29.9699 42.05 30.0899C41.92 30.2899 41.96 30.3999 41.85 30.5199ZM39.14 33.7899C38.98 33.8799 38.84 34.0099 38.74 34.1599C38.64 34.3199 38.58 34.4899 38.56 34.6799C38.55 35.0099 38.46 35.3299 38.29 35.6199C38.56 35.5499 38.69 35.1299 38.73 34.7199C38.77 34.2899 39 34.1199 39.13 33.7899H39.14ZM38.46 34.5699C38.23 34.9799 37.93 35.1399 37.9 35.4499C37.87 35.8099 37.85 35.8199 37.75 36.1699C38.02 36.0999 38.08 36.0799 38.15 35.5499C38.19 35.1799 38.5 34.9299 38.46 34.5799V34.5699Z" fill="white" stroke="#BD6B00" stroke-width="0.07"/>
<path fill-rule="evenodd" clip-rule="evenodd" d="M31.4698 38.41C31.3398 38.65 31.1998 39.01 30.9398 38.94C30.9398 38.77 31.2198 38.63 31.4698 38.41ZM31.0698 38.4901C30.5798 38.7001 30.1398 38.6501 30.0698 38.9701C30.5498 39.0201 30.7298 38.8401 31.0798 38.4901H31.0698ZM33.2098 36.8C32.8798 37.06 32.6498 37.42 32.5498 37.82C32.4398 38.19 32.2798 38.5401 32.0698 38.8601C32.4198 38.6301 32.6698 38.2801 32.7698 37.8801C32.8598 37.4801 32.9798 37.18 33.2098 36.82V36.8ZM32.7998 36.8C32.4298 37.09 32.0798 37.44 31.9798 37.85C31.8698 38.24 31.8098 38.53 31.5498 38.91C31.9498 38.66 32.0998 38.29 32.2098 37.87C32.2998 37.47 32.5398 37.1801 32.7898 36.8101L32.7998 36.8ZM31.5798 37.7701C31.5798 37.7701 31.5798 37.7 31.5598 37.67C31.5398 37.64 31.5198 37.6201 31.4898 37.6101C31.3798 37.5701 31.2598 37.53 31.1398 37.5C31.0098 37.46 30.9298 37.55 30.9298 37.62V37.89C30.9298 37.98 30.9598 38 31.0198 38.01C31.1098 38.02 31.2498 38.04 31.3398 38.1C31.4198 38.15 31.4998 38.11 31.5398 38.03L31.5798 37.76V37.7701ZM30.1698 37.7701C30.1698 37.6901 30.1998 37.6201 30.2498 37.6101C30.3498 37.5701 30.4598 37.5501 30.5698 37.5601C30.6998 37.5601 30.7198 37.59 30.7198 37.64V37.92C30.7198 37.9934 30.7032 38.0367 30.6698 38.05C30.5798 38.05 30.4298 38.0501 30.3398 38.1301C30.2698 38.1701 30.2098 38.13 30.1898 38.05V37.7701H30.1698Z" fill="white"/>
<path fill-rule="evenodd" clip-rule="evenodd" d="M33.7901 41.5099C33.7901 41.6699 33.8201 41.7999 33.9201 41.9199C33.3101 41.7399 32.6601 41.7899 32.0901 42.0699C31.8501 42.1799 31.5601 41.9399 31.8401 41.7099C32.2401 41.3999 33.1301 41.5799 33.7901 41.5099ZM26.1501 41.5099C26.1601 41.6499 26.1501 41.7799 26.1001 41.9099C26.6801 41.6799 27.3101 41.8799 27.9101 42.1199C28.3101 42.2899 28.3501 41.9899 28.2801 41.8899C28.2101 41.7799 28.1101 41.6899 27.9901 41.6199C27.8701 41.5499 27.7501 41.5099 27.6101 41.5099H26.1501ZM26.6601 38.6299C26.4901 38.5599 26.3001 38.6299 26.1301 38.8199C25.5601 39.3799 24.8801 39.9199 24.3401 40.3599C24.1401 40.5299 23.9401 40.8499 24.7901 41.1599C24.8301 41.1899 25.4501 41.4299 25.8501 41.4299C26.0201 41.4299 26.0201 41.6699 25.9801 41.7399C25.9101 41.8699 25.9701 41.9299 25.8301 42.0499C25.6801 42.1799 25.8301 42.3299 25.9601 42.2199C26.4401 41.7899 27.2401 42.0699 27.9901 42.3099C28.1801 42.3599 28.5001 42.3499 28.5001 42.0999C28.5001 41.8299 28.7001 41.6499 28.8201 41.6299C29.1401 41.6799 30.6801 41.6999 31.1501 41.6399C31.4201 41.5999 31.4401 42.0299 31.5901 42.1699C31.7001 42.2899 32.0801 42.3199 32.3601 42.1999C32.8901 41.9599 33.6901 41.9599 34.0201 42.1999C34.1501 42.2899 34.2701 42.1999 34.1901 42.1099C34.0801 41.9799 34.1001 41.8999 34.0401 41.7899C33.9101 41.5199 34.0101 41.4699 34.1501 41.4599C35.6101 41.2599 36.0901 40.7699 35.6401 40.3599C35.0601 39.8499 34.4201 39.3399 33.8601 38.7399C33.7001 38.5799 33.5901 38.5099 33.2901 38.6499C32.2301 39.1299 31.0901 39.3999 29.9301 39.4299C28.8001 39.3599 27.7001 39.0999 26.6601 38.6599V38.6299Z" fill="white"/>
<path fill-rule="evenodd" clip-rule="evenodd" d="M33.5401 38.71L33.3301 38.76C32.1301 39.19 31.0401 39.48 29.9101 39.48C28.7801 39.48 27.6501 39.16 26.6001 38.74C26.5401 38.72 26.4701 38.72 26.4001 38.74C26.3301 38.75 26.2701 38.79 26.2301 38.83C25.7401 39.32 25.2101 39.78 24.6601 40.2C24.5701 40.27 24.5801 40.44 24.7301 40.49C25.8301 40.89 26.9101 41.62 29.9901 41.59C33.1101 41.56 34.2201 40.85 35.2001 40.51C35.2701 40.48 35.3301 40.44 35.3701 40.38C35.3701 40.36 35.3901 40.35 35.3901 40.33C35.3901 40.31 35.3901 40.29 35.3901 40.28C35.3701 40.24 35.3501 40.2 35.3101 40.17C34.7401 39.7 34.1401 39.33 33.7401 38.79C33.7001 38.72 33.6201 38.71 33.5401 38.72V38.71ZM33.5401 38.78C33.6101 38.78 33.6701 38.78 33.6901 38.82C34.0901 39.39 34.7101 39.75 35.2701 40.22L35.3201 40.31C35.3201 40.31 35.3201 40.33 35.3201 40.34C35.3201 40.35 35.3201 40.36 35.3201 40.37C35.3101 40.41 35.2401 40.45 35.1901 40.46C34.1801 40.81 33.1001 41.52 30.0101 41.55C26.9301 41.58 25.8601 40.85 24.7601 40.45C24.6501 40.4 24.6701 40.29 24.7101 40.26C25.2701 39.83 25.8001 39.36 26.2801 38.88C26.3201 38.84 26.3701 38.81 26.4301 38.8H26.5901C27.6401 39.26 28.7701 39.51 29.9101 39.54C31.0701 39.54 32.1701 39.25 33.3701 38.84C33.4301 38.81 33.5001 38.8 33.5701 38.79H33.5601L33.5401 38.78Z" fill="#BD6B00"/>
<path fill-rule="evenodd" clip-rule="evenodd" d="M25.9801 18.6499C25.9801 18.4599 26.2501 18.4499 26.2201 18.6999C26.1801 19.0099 26.8201 19.7999 26.8701 20.2999C26.9101 20.6299 26.6701 20.9099 26.4401 21.0999C26.3101 21.1899 26.1601 21.2499 26.0001 21.2599C25.8401 21.2699 25.6801 21.2399 25.5401 21.1699C25.4201 21.0599 25.3101 20.7299 25.4101 20.5999C25.4401 20.5599 25.5801 21.0899 25.9001 21.0899C26.3401 21.0899 26.7001 20.7599 26.7001 20.4699C26.7301 19.9599 26.0001 19.1699 25.9801 18.6599V18.6499ZM27.2401 19.8999C27.3201 19.8499 27.4301 20.0699 27.3501 20.1299C27.2801 20.1699 27.1501 19.9599 27.2401 19.8899V19.8999ZM27.4401 19.4299C27.4401 19.4299 27.3301 19.4299 27.3501 19.3999C27.4801 19.2199 27.6401 19.0699 27.8301 18.9599C27.8801 18.9299 27.9601 19.0099 27.9401 19.0499C27.8001 19.2099 27.6401 19.3299 27.4501 19.4199L27.4401 19.4299ZM29.1101 18.0999C29.1501 18.0199 29.3901 17.9299 29.4601 17.8699C29.5101 17.7999 29.5401 17.9199 29.5101 17.9599C29.4701 18.0499 29.2601 18.1899 29.1601 18.1999C29.1201 18.1999 29.0801 18.1499 29.1101 18.1099V18.0999ZM29.6801 18.1399C29.7501 17.9599 29.8601 17.8099 30.0101 17.6899C30.0801 17.6499 30.1801 17.6899 30.1601 17.7399C30.0701 17.9199 29.9401 18.0699 29.7701 18.1799C29.7301 18.2199 29.6601 18.1799 29.6801 18.1399ZM29.1901 18.4999C29.1901 18.4999 29.1801 18.5899 29.2001 18.6099C29.2801 18.6399 29.4001 18.6399 29.4701 18.6099C29.5501 18.5599 29.5101 18.2199 29.4001 18.3999C29.3201 18.5099 29.2701 18.4799 29.1901 18.5099V18.4999ZM28.2201 19.2399C28.0501 19.1099 28.2701 18.9199 28.4501 19.0499C28.8101 19.3199 27.9201 20.3499 27.4401 20.8299C27.3501 20.9199 27.2701 20.6999 27.3901 20.5799C27.7401 20.2899 28.0401 19.9499 28.2801 19.5699C28.3301 19.4999 28.3701 19.3599 28.2301 19.2399H28.2201ZM30.2501 18.3599C30.2601 18.2299 30.0401 18.3599 30.0401 18.1899C30.0401 18.0999 30.2901 18.0299 30.4001 18.1399C30.5701 18.3299 30.4401 18.6299 30.1301 18.6599C29.8901 18.6599 29.4701 19.0199 29.5301 19.0899C29.6001 19.1799 30.2501 19.2399 30.6301 19.1799C30.8701 19.1399 30.8201 19.3499 30.5801 19.3799C30.3401 19.4099 30.1501 19.3799 29.9401 19.4599C29.6701 19.5299 29.5701 19.8599 29.4201 19.9899C29.3901 20.0199 29.3101 19.8799 29.3401 19.8299C29.4501 19.6699 29.6101 19.4299 29.7901 19.3499C29.9001 19.3099 29.4701 19.2999 29.3401 19.2599C29.2301 19.2299 29.2601 19.0899 29.3001 19.0099C29.3501 18.8999 29.7501 18.4899 29.9201 18.4999C30.0701 18.4999 30.2301 18.4599 30.2401 18.3699L30.2501 18.3599ZM30.9101 18.3899C30.9901 18.3199 31.0401 18.2199 31.1101 18.1499C31.1501 18.1099 31.2301 18.1499 31.2201 18.2599C31.2101 18.3499 31.0901 18.4199 31.0201 18.4899C30.9501 18.5299 30.8901 18.4399 30.9301 18.3999H30.9201L30.9101 18.3899ZM31.7701 18.0799C31.8901 18.0799 31.9001 18.2899 31.8001 18.3199C31.7201 18.3499 31.6701 18.0899 31.7701 18.0799ZM31.4901 18.7399C31.4901 18.9399 31.5801 18.9299 31.7601 18.9099C31.9301 18.9099 32.0801 18.9099 32.0801 18.7499C32.0801 18.5799 31.9901 18.4199 31.9501 18.5399C31.9401 18.6499 31.9101 18.8299 31.8401 18.7499C31.7901 18.6799 31.8101 18.6699 31.7101 18.7799C31.6401 18.8499 31.6401 18.7499 31.6001 18.6999C31.5701 18.6599 31.4901 18.7299 31.4901 18.7499V18.7399ZM30.2701 19.6999C30.2301 19.9499 30.2701 20.2999 30.3901 20.2999C30.5501 20.2999 30.8701 19.7699 31.0301 19.4799C31.1201 19.3199 31.2701 19.2899 31.2001 19.4699C31.1101 19.7199 31.1201 20.2699 31.2001 20.4299C31.2501 20.5099 31.6001 20.3499 31.6501 20.2299C31.7601 19.9999 31.6601 19.5899 31.7001 19.3399C31.7101 19.1799 31.8701 19.1399 31.8601 19.2999C31.8401 19.6299 31.8301 19.9599 31.8501 20.2999C31.8501 20.4299 32.2401 20.6199 32.2901 20.2199C32.3201 19.9799 32.4501 19.7299 32.2901 19.4599C32.1801 19.2899 32.4401 19.2999 32.5701 19.5399C32.6601 19.6999 32.4901 19.9699 32.5001 20.1599C32.5001 20.4799 32.2601 20.6699 32.0901 20.6699C31.9301 20.6699 31.8201 20.4699 31.6901 20.4699C31.5601 20.4699 31.4001 20.6999 31.2901 20.6799C30.8101 20.6499 31.0601 19.9799 30.9201 19.9599C30.7601 19.9599 30.5901 20.6199 30.3901 20.6099C30.2001 20.5799 29.9901 20.0499 30.0801 19.8399C30.1501 19.6299 30.2801 19.5699 30.2701 19.7099V19.6999ZM32.5201 18.6399C32.2901 18.5099 32.5201 18.1499 32.6401 18.2699C32.8501 18.5399 33.0701 19.1299 33.2201 19.1899C33.3101 19.2199 33.3001 18.7399 33.3701 18.5299C33.4201 18.3599 33.6101 18.4099 33.5801 18.6199C33.5701 18.6899 33.3101 19.4699 33.3401 19.4999C33.5201 19.8299 33.6601 20.1799 33.7801 20.5399C33.8201 20.6999 33.6301 20.5899 33.6101 20.5699C33.4901 20.3799 33.2901 19.7099 33.2901 19.7499L33.0601 20.7699C33.0301 20.8999 32.8301 20.8799 32.8901 20.6399C32.9301 20.4499 33.2001 19.5399 33.1801 19.4999C33.0301 19.1699 32.8001 18.8899 32.5201 18.6599V18.6399Z" fill="white"/>
<path fill-rule="evenodd" clip-rule="evenodd" d="M32.93 20.8501C32.88 20.8501 32.77 20.9801 33.09 21.0501C33.5 21.1301 33.97 20.9801 34.1 20.5701C34.27 20.0801 34.37 19.6101 34.46 19.4401C34.57 19.2401 34.7 19.2501 34.59 18.9601C34.52 18.7301 34.39 18.8001 34.36 18.9201C34.29 19.2301 34.01 20.2501 33.92 20.4201C33.76 20.7701 33.43 20.9001 32.92 20.8501H32.93Z" fill="white"/>
<path fill-rule="evenodd" clip-rule="evenodd" d="M33.7801 19.23C33.7301 19.14 33.6201 19.23 33.6501 19.32C33.6501 19.36 33.6801 19.39 33.7101 19.42C33.7401 19.44 33.7801 19.46 33.8101 19.46C33.9001 19.46 34.1001 19.47 34.1001 19.33C34.1001 19.22 34.0101 19.13 33.9501 19.25C33.8801 19.36 33.8201 19.34 33.7801 19.25V19.23ZM33.8701 18.83C33.8701 18.83 33.8701 18.98 33.9101 18.96C34.0601 18.96 34.2101 18.92 34.3501 18.85C34.3801 18.82 34.3601 18.76 34.3201 18.76C34.1901 18.76 33.9701 18.76 33.8701 18.83ZM35.0401 19.14C35.1501 18.98 35.4101 18.97 35.3101 19.19C35.0401 19.74 34.7601 20.28 34.4701 20.83C34.3601 21.02 34.2801 20.92 34.3601 20.78C34.4501 20.59 35.0101 19.18 35.0401 19.14Z" fill="white"/>
<path fill-rule="evenodd" clip-rule="evenodd" d="M34.0202 21.09C33.9902 20.98 33.8202 20.82 33.8502 21.12C33.8802 21.63 34.5802 21.47 34.7802 21.29C34.9802 21.12 34.8202 21.86 35.0702 21.94C35.2002 21.98 35.4702 21.79 35.6002 21.62C35.9602 21.15 36.2002 20.48 36.5302 20.02C36.6602 19.83 36.4602 19.7 36.4002 19.85C36.0802 20.36 35.7102 21.39 35.3002 21.66C34.9702 21.87 35.0702 21.39 35.0602 21.23C35.0502 21.12 34.9102 20.96 34.7402 21.11C34.6002 21.22 34.4302 21.28 34.2502 21.27C34.1602 21.27 34.0602 21.27 34.0202 21.08V21.09Z" fill="white"/>
<path fill-rule="evenodd" clip-rule="evenodd" d="M35.2701 20.16C35.2701 20.16 35.1201 20.11 35.1401 20.25C35.1401 20.36 35.2701 20.38 35.2901 20.38C35.4901 20.22 35.2501 20.3 35.2801 20.14L35.2701 20.16ZM34.9601 20.74C34.9601 20.74 34.8801 20.87 34.9901 20.89L35.5101 20.86C35.5601 20.86 35.5901 20.74 35.4601 20.75C35.3001 20.75 35.1001 20.71 34.9701 20.75L34.9601 20.74ZM26.7201 18.53C26.7901 18.53 26.9301 18.72 26.9201 18.78C26.9201 18.81 26.7601 18.78 26.7201 18.74C26.6801 18.7 26.6901 18.53 26.7201 18.53ZM26.0201 19.91C25.8901 19.99 26.0501 20.14 26.1501 20.07C26.5201 19.82 27.0801 19.56 27.2101 19.07C27.2501 18.91 27.4001 18.66 27.5401 18.6C27.6701 18.53 27.8901 18.85 28.0201 18.6C28.1001 18.47 28.3801 18.69 28.4501 18.55C28.5301 18.38 28.4901 18.28 28.4901 18.1C28.4901 17.99 28.4001 17.97 28.3301 18.14C28.3001 18.22 28.3301 18.3 28.3201 18.35C28.2901 18.38 28.2401 18.4 28.1901 18.38C28.1601 18.35 28.1901 18.29 28.1101 18.25C28.0801 18.25 28.0301 18.24 28.0001 18.28C27.9101 18.45 27.8701 18.61 27.7201 18.41C27.6001 18.28 27.5301 18 27.4501 18.37C27.4201 18.5 27.2201 18.69 27.1001 18.69C26.9501 18.69 26.9901 18.29 26.6701 18.36C26.5001 18.4 26.5101 18.72 26.5401 18.83C26.5801 19 27.0701 18.88 27.0301 18.99C26.9501 19.35 26.4501 19.71 26.0101 19.92L26.0201 19.91ZM23.0001 21.66C22.9901 21.73 23.0701 21.89 23.1501 21.9C23.2301 21.9 23.2801 21.73 23.2601 21.66C23.2301 21.62 23.0201 21.62 23.0101 21.66H23.0001ZM23.4401 22.31C23.3901 22.26 23.2301 22.4 23.3601 22.51C23.4301 22.58 23.6901 22.66 23.7601 22.54C23.8701 22.38 23.6701 21.81 23.7601 21.74C23.8301 21.67 24.1301 22.11 24.2901 22.14C24.6501 22.19 24.5601 21.53 24.9501 21.58C25.2001 21.61 25.2301 21.29 25.1901 21.07C25.1601 20.87 24.8401 20.59 24.7001 20.46C24.5101 20.3 24.4201 20.59 24.5401 20.67C24.7001 20.8 24.9801 21.06 25.0201 21.22C25.0301 21.3 24.8301 21.46 24.7501 21.42C24.5601 21.31 24.4001 20.89 24.2401 20.8C24.1901 20.77 24.0501 20.84 24.1101 20.97C24.1901 21.12 24.5101 21.33 24.5201 21.49C24.5301 21.62 24.3901 21.92 24.2801 21.92C24.1601 21.92 23.8801 21.56 23.7901 21.39C23.7401 21.32 23.5901 21.32 23.5601 21.44C23.5601 21.69 23.5701 21.93 23.6301 22.17C23.6601 22.38 23.5101 22.4 23.4301 22.32L23.4401 22.31ZM22.9101 21.17C22.8601 21.22 23.0201 21.33 23.0401 21.3C23.0901 21.25 23.3201 20.99 23.2801 20.9C23.2401 20.82 22.9301 20.63 22.8801 20.73C22.7901 20.88 23.1701 20.96 23.1101 21C23.0401 21.05 22.9701 21.11 22.9101 21.17ZM23.4501 20.05C23.4501 20.05 23.5601 20.38 23.6401 20.24C23.6901 20.15 23.4501 20.05 23.4501 20.05ZM23.6101 20.58C23.6101 20.58 23.4801 20.67 23.5401 20.71C23.6501 20.76 23.9301 20.82 23.8601 20.62C23.8201 20.5 24.2901 20.62 24.1701 20.3C24.1201 20.2 24.0401 20.12 23.9401 20.07C23.8901 20.07 23.7401 20.14 23.8301 20.19C23.9001 20.22 24.1001 20.34 24.0301 20.42C23.9401 20.5 23.8801 20.38 23.7801 20.41C23.7301 20.41 23.7701 20.57 23.7301 20.61C23.7301 20.64 23.6401 20.56 23.6101 20.57V20.58ZM24.3401 19.32C24.2601 19.39 24.2001 19.48 24.1801 19.59C24.1801 19.62 24.2201 19.67 24.2501 19.66C24.3301 19.6 24.3901 19.51 24.4101 19.41C24.4101 19.37 24.3801 19.3 24.3401 19.33V19.32ZM24.7101 19.28C24.6001 19.15 24.8401 18.93 24.9401 19.21C25.0101 19.38 25.6701 20.26 25.8001 20.55C25.9101 20.75 25.8001 20.83 25.6801 20.68C25.3501 20.25 25.0701 19.72 24.7101 19.27V19.28ZM25.4001 19.29C25.5201 19.16 25.7601 18.89 25.6901 18.76C25.6401 18.63 25.4901 18.63 25.4601 18.67C25.3301 18.84 25.5701 18.8 25.5301 18.86C25.4601 18.99 25.4001 19.07 25.3601 19.21C25.3501 19.25 25.3701 19.33 25.4001 19.3V19.29ZM35.7401 19.72C35.6501 19.65 35.8201 19.32 35.9401 19.45C36.2501 19.81 36.3901 20.99 36.4901 21.88C36.4901 21.88 36.3601 22 36.3601 21.97C36.3601 21.5 36.1601 20.06 35.7501 19.71L35.7401 19.72ZM28.6801 18.58C28.5701 18.34 28.8301 18.26 28.8701 18.42C29.0401 19.19 29.4701 19.78 29.8001 20.29C29.8901 20.45 29.8001 20.56 29.5701 20.4C29.4101 20.29 29.2401 19.88 29.1701 19.87C29.0101 19.84 28.6601 20.53 27.9601 20.34C27.7701 20.29 27.7901 19.74 27.7701 19.5C27.7701 19.38 27.9001 19.37 27.9001 19.5C27.9001 19.73 27.9001 20.19 28.1801 20.22C28.4201 20.22 28.9201 19.9 29.0301 19.64C29.1401 19.37 28.7801 18.86 28.6701 18.58H28.6801Z" fill="white"/>
<path fill-rule="evenodd" clip-rule="evenodd" d="M35.9302 21.8101C35.9802 21.6501 36.7402 20.3701 36.8502 20.1001C36.9002 19.9701 37.1202 20.3401 36.9002 20.5401C36.7102 20.7001 36.1702 21.6001 36.0602 21.9201C36.0102 22.0501 35.8702 21.9901 35.9302 21.8101Z" fill="white"/>
<path fill-rule="evenodd" clip-rule="evenodd" d="M37.22 20.6C37.35 20.07 37.7 20.68 37.39 20.97C36.94 21.42 36.79 22.29 36.06 22.42C35.87 22.46 35.53 22.33 35.42 22.25C35.38 22.22 35.45 22.04 35.57 22.13C35.74 22.26 36.11 22.3 36.31 22.14C36.74 21.72 37.06 21.18 37.21 20.6H37.22ZM29.64 22.29C29.64 22.29 29.51 22.33 29.49 22.38C29.45 22.57 29.49 22.67 29.45 22.86C29.41 23.05 29.28 23.05 29.29 22.9C29.29 22.71 29.46 22.43 29.34 22.42C29.26 22.41 29.21 22.3 29.29 22.25C29.44 22.16 29.52 22.17 29.61 22.2C29.65 22.21 29.66 22.27 29.64 22.29Z" fill="white"/>
<path fill-rule="evenodd" clip-rule="evenodd" d="M29.5402 22.0199C29.3502 22.2099 29.1702 22.2699 29.0002 22.4899C28.9202 22.5699 28.9302 22.6899 28.8802 22.8099C28.8402 22.9299 28.6902 22.9399 28.6502 22.9299C28.5802 22.8799 28.6002 22.6599 28.5202 22.7699C28.4402 22.8899 28.4002 23.0399 28.2902 23.0399C28.2002 23.0399 28.0202 22.8399 28.1202 22.8399C28.4302 22.7999 28.4102 22.5699 28.5202 22.5499C28.6502 22.5399 28.6502 22.7499 28.7502 22.7099C28.8002 22.6799 28.8402 22.4299 28.9102 22.3599C29.1102 22.1499 29.2702 22.0399 29.4802 21.8799C29.5702 21.7999 29.6502 21.9499 29.5502 22.0399L29.5402 22.0199ZM30.2402 22.6799C30.0802 22.7099 30.1102 22.9099 30.1602 22.9199C30.2302 22.9599 30.3502 22.9699 30.3902 22.7499C30.4202 22.6599 30.4302 23.2199 30.6302 22.9999C30.7602 22.8699 31.0402 23.0299 31.1602 22.8699C31.2502 22.7499 31.2902 22.6699 31.2102 22.5099C31.1802 22.4699 31.0802 22.4799 31.0802 22.5999C31.0802 22.7099 31.0102 22.8299 30.9102 22.8099C30.8602 22.7999 30.9402 22.5599 30.8802 22.4899C30.8702 22.4799 30.8502 22.4699 30.8302 22.4699C30.8102 22.4699 30.8002 22.4699 30.7802 22.4899C30.7402 22.5399 30.8202 22.7799 30.7002 22.8099C30.5402 22.8399 30.6202 22.6499 30.5702 22.6199C30.3402 22.5099 30.3302 22.6499 30.2402 22.6599V22.6799ZM31.4402 22.2799C31.5602 22.2499 31.5202 22.2499 31.7102 22.1099C31.7802 22.0599 31.7902 22.2199 31.7802 22.2799C31.7802 22.3699 31.6502 22.3099 31.6102 22.3999C31.5602 22.5199 31.5802 22.7999 31.5602 22.9099C31.5602 22.9599 31.4502 22.9599 31.4502 22.9099C31.4202 22.7799 31.4602 22.6399 31.4502 22.4699C31.4502 22.4199 31.3802 22.3199 31.4502 22.2999L31.4402 22.2799ZM30.7802 21.9499C30.7502 22.0699 30.7502 22.1599 30.7502 22.2599C30.7502 22.3299 30.8802 22.2899 30.8802 22.2699C30.8802 22.1599 30.9102 21.9999 30.8802 21.9599C30.8502 21.9499 30.7902 21.9199 30.7702 21.9499H30.7802Z" fill="white"/>
<path fill-rule="evenodd" clip-rule="evenodd" d="M29.9401 20.72L29.7501 21.46L29.4801 20.95V21.47L28.9001 20.78L29.1001 21.52L28.5701 21.07L28.8601 21.58L27.9301 20.98L28.5101 21.67L27.7701 21.3L28.3001 21.75L27.1001 21.3L28.2601 21.87C28.7901 21.63 29.3601 21.51 29.9301 21.52C30.5801 21.52 31.1701 21.65 31.5901 21.87L32.7601 21.3L31.5601 21.75L32.0901 21.3L31.3601 21.67L31.9301 20.98L31.0001 21.58L31.2901 21.07L30.7601 21.51L30.9601 20.78L30.3901 21.47V20.95L30.1201 21.46L29.9201 20.72H29.9401Z" fill="white"/>
<path d="M28.9101 36.8799L28.8701 37.2099H28.8201V36.9799C28.7901 36.9099 28.7701 36.8399 28.7401 36.7799C28.7201 36.7199 28.7001 36.6699 28.6801 36.6199L28.5601 36.4499L28.6601 36.1699C28.7401 36.2599 28.8101 36.3599 28.8501 36.4699C28.8901 36.5999 28.9201 36.7299 28.9101 36.8699M29.7901 36.3499C29.7901 36.4399 29.7701 36.4999 29.7301 36.5399C29.7101 36.5799 29.6601 36.6099 29.5701 36.6299L29.6201 36.8199C29.6301 36.8999 29.6301 36.9899 29.6201 37.0699C29.6201 37.1199 29.6201 37.1799 29.6101 37.2299H29.5601C29.5601 37.1799 29.5601 37.1199 29.5501 37.0699C29.5501 37.0299 29.5401 36.9899 29.5301 36.9499L29.4801 36.8299C29.4601 36.7699 29.4301 36.7099 29.3901 36.6599L29.2701 36.4499L29.3501 36.1999L29.4701 36.3199C29.4701 36.3199 29.5501 36.3599 29.5901 36.3599C29.6901 36.3599 29.7401 36.3099 29.7401 36.1999H29.7901V36.3799M30.5901 36.9799L30.5301 37.2399C30.5301 37.2399 30.4501 37.1999 30.4301 37.1499L30.3801 36.9899C30.3801 36.9199 30.3701 36.8499 30.3701 36.7799C30.3301 36.7899 30.2901 36.7999 30.2501 36.8099C30.1901 36.8099 30.1301 36.7999 30.0901 36.7599C30.0701 36.7499 30.0601 36.7299 30.0401 36.6999C30.0301 36.6799 30.0201 36.6499 30.0201 36.6299C30.0201 36.5199 30.0601 36.4199 30.1101 36.3399C30.1701 36.2499 30.2301 36.2199 30.3001 36.1999C30.3601 36.1999 30.4001 36.2099 30.4201 36.2499C30.4401 36.2799 30.4501 36.3199 30.4601 36.3599V36.6099C30.4601 36.7199 30.4701 36.7999 30.5001 36.8499C30.5001 36.8899 30.5401 36.9299 30.6001 36.9699L30.5901 36.9799ZM30.3401 36.5399C30.3401 36.4599 30.3001 36.4399 30.2401 36.4399C30.2101 36.4399 30.1901 36.4399 30.1701 36.4499C30.1401 36.4599 30.1401 36.4799 30.1401 36.4899C30.1401 36.5299 30.1801 36.5499 30.2601 36.5499H30.3401V36.5399ZM31.4301 36.9199L31.3901 37.2499C31.3301 37.1999 31.2701 37.1299 31.2201 36.9999C31.1501 36.8299 31.1001 36.6599 31.0601 36.4899C31.0001 36.7199 30.9201 36.9499 30.8401 37.1799C30.8101 37.2199 30.7801 37.2399 30.7401 37.2699V36.9599C30.8101 36.8699 30.8501 36.8199 30.8601 36.7699C30.9001 36.6999 30.9401 36.6299 30.9601 36.5599L31.0201 36.2199H31.0701L31.1801 36.5599C31.2101 36.6399 31.2401 36.7099 31.2901 36.7599L31.4101 36.9299" fill="white"/>
<path d="M33.8498 39.9199C33.8498 39.9199 33.9298 40.0199 33.9398 40.0699L33.9898 40.2699H33.8898C33.8598 40.2199 33.8098 40.1499 33.7698 40.0899C33.7298 40.0399 33.6798 39.9899 33.6298 39.9399C33.5598 39.8799 33.4898 39.8099 33.4198 39.7499C33.3398 39.6799 33.2598 39.6099 33.1698 39.5399C33.1198 39.5199 33.0898 39.4899 33.0898 39.4799C33.0698 39.4499 33.0598 39.4199 33.0498 39.3799C33.0398 39.3099 33.0298 39.2499 33.0198 39.1799L33.3598 39.4599C33.4698 39.5499 33.5698 39.6399 33.6698 39.7299L33.8398 39.9199H33.8498ZM32.6598 39.1999L32.6398 39.4499H32.2498L32.2898 39.1999H32.6698H32.6598ZM33.7098 40.3099L32.7598 40.5999L32.5998 40.3499L33.4098 40.0999L33.3198 39.9999C33.3198 39.9999 33.2498 39.9399 33.2098 39.9199C33.2098 39.9399 33.2098 39.9699 33.1998 39.9899C33.1998 40.0099 33.1798 40.0299 33.1598 40.0499C33.1298 40.0899 33.0798 40.1099 33.0398 40.1299C32.9698 40.1499 32.8898 40.1499 32.8198 40.1299C32.7598 40.1299 32.6998 40.0899 32.6598 40.0399C32.5998 39.9599 32.5698 39.8599 32.5698 39.7699C32.5698 39.6499 32.6098 39.5699 32.6798 39.5399C32.7698 39.5199 32.8998 39.5399 33.0598 39.6299C33.2098 39.6999 33.3398 39.7999 33.4398 39.9299L33.7298 40.3199L33.7098 40.3099ZM32.9898 39.8099C32.9898 39.8099 32.9198 39.7799 32.8898 39.7699C32.8698 39.7699 32.8398 39.7699 32.8098 39.7699C32.7998 39.7699 32.7898 39.7699 32.7698 39.7799C32.7598 39.7799 32.7498 39.7999 32.7398 39.8099C32.7398 39.8199 32.7298 39.8299 32.7298 39.8499C32.7298 39.8699 32.7298 39.8799 32.7398 39.8899L32.7998 39.9099H32.8798L32.9298 39.8699L32.9798 39.8099H32.9898ZM31.9898 39.6099L31.9298 39.8599L31.5298 39.8199L31.5898 39.5699L31.9798 39.6099M32.9198 40.5699L32.7098 40.6199C32.6398 40.6299 32.5698 40.6299 32.4998 40.6199C32.4298 40.6199 32.3698 40.5999 32.3098 40.5699C32.2698 40.6299 32.2098 40.6899 32.1198 40.7199C32.0598 40.7499 31.9898 40.7799 31.9198 40.7999L31.7698 40.8399L31.6498 40.5899L31.7898 40.5499C31.8498 40.5399 31.8998 40.5199 31.9498 40.4999L32.0598 40.4399L31.9398 40.3799H31.8498H31.8298C31.8198 40.3799 31.8098 40.3999 31.7998 40.4199H31.7398C31.6798 40.3199 31.6598 40.2299 31.6998 40.1699C31.7398 40.1099 31.8098 40.0699 31.9498 40.0499C32.0598 40.0199 32.1698 40.0099 32.2798 40.0299C32.3798 40.0399 32.4398 40.0799 32.4698 40.1399C32.4898 40.1699 32.4898 40.1999 32.4898 40.2299L32.4398 40.3799H32.4998C32.4998 40.3799 32.5498 40.3799 32.5798 40.3799L32.7898 40.3399L32.9098 40.5899M31.9098 40.8099L31.7098 40.8499C31.6198 40.8699 31.5198 40.8499 31.4298 40.7999C31.3298 40.7099 31.2598 40.5999 31.2198 40.4799L31.1198 40.1999C31.0998 40.1499 31.0698 40.0999 31.0198 40.0799C30.9898 40.0499 30.9498 40.0299 30.9098 40.0199L30.9898 39.7599C31.0698 39.7999 31.1098 39.8399 31.1598 39.8799L31.2798 40.0899L31.3398 40.2799L31.4798 40.5499C31.4798 40.5499 31.5698 40.5999 31.5998 40.5899L31.8098 40.5599L31.8998 40.8099H31.9098ZM31.0298 39.8699L30.9098 40.1099L30.5298 40.0199L30.6498 39.7799L31.0298 39.8699ZM31.2598 40.9199L30.3198 41.0099L30.2698 40.7599L31.0398 40.6699C31.0398 40.6699 30.9998 40.5999 30.9598 40.5699C30.9198 40.5399 30.8798 40.5199 30.8398 40.4899L30.8998 40.2399C30.9898 40.2899 31.0498 40.3499 31.0998 40.3999C31.1398 40.4599 31.1798 40.5499 31.1998 40.6599L31.2498 40.9099L31.2598 40.9199ZM30.5098 41.0399C30.4198 41.0399 30.3298 41.0299 30.2298 41.0199C30.1598 41.0099 30.0898 40.9799 30.0198 40.9599C29.9698 40.9799 29.9098 40.9999 29.8598 41.0099C29.7898 41.0099 29.7198 41.0099 29.6498 41.0099H29.3998C29.3498 41.0099 29.2998 40.9999 29.2498 40.9699C29.2098 40.9399 29.1898 40.9099 29.1498 40.8499C29.0998 40.9099 29.0298 40.9499 28.9598 40.9699H28.7498L28.5398 40.9799L28.5698 40.7199H28.7798C28.8798 40.7199 28.9698 40.7199 29.0398 40.6699C29.0898 40.6499 29.1298 40.6199 29.1598 40.5799C29.1898 40.5399 29.2098 40.4899 29.2098 40.4399H29.2998C29.2998 40.5099 29.2998 40.5599 29.2898 40.6099C29.2898 40.6499 29.2898 40.6699 29.3298 40.6999C29.3698 40.7199 29.4098 40.7399 29.4498 40.7399H29.6398C29.7598 40.7399 29.8398 40.7399 29.8898 40.7199C29.9698 40.6899 29.9998 40.6599 30.0098 40.5799V40.5299C30.0098 40.5299 30.0598 40.5299 30.0898 40.4999L30.1498 40.4699V40.5199C30.1498 40.5199 30.1498 40.5399 30.1498 40.5599L30.1098 40.6999C30.1898 40.7299 30.2798 40.7499 30.3598 40.7599C30.3698 40.7299 30.3598 40.7099 30.3498 40.6699L30.3098 40.5899C30.3098 40.5899 30.3098 40.5599 30.3198 40.5499L30.3598 40.5199L30.4798 40.4099L30.5398 40.5299V40.6499L30.5198 41.0099L30.5098 41.0399ZM29.0998 39.9499L28.8498 40.1099L28.6898 39.9999L28.5198 40.1199L28.2798 39.9999L28.4998 39.8399L28.6898 39.9399L28.8798 39.8199L29.0998 39.9399M28.7198 40.9699L27.8098 40.8199L27.9098 40.5699L28.6898 40.6899C28.6898 40.6899 28.6898 40.5999 28.6598 40.5699C28.6398 40.5299 28.6198 40.4999 28.5998 40.4699L28.7998 40.2599C28.8498 40.3399 28.8798 40.3799 28.8898 40.4599C28.8898 40.5199 28.8598 40.6099 28.8298 40.7199L28.7298 40.9699H28.7198ZM27.9598 40.8499L27.7598 40.8099C27.6498 40.7899 27.5898 40.7299 27.5698 40.6599C27.5398 40.5799 27.5798 40.4699 27.6698 40.3099L27.8198 40.0599C27.8598 39.9999 27.8698 39.9499 27.8598 39.9099C27.8598 39.8799 27.8398 39.8499 27.8198 39.8199L28.0898 39.6199C28.1298 39.6799 28.1298 39.7399 28.1298 39.7899C28.1298 39.8499 28.0898 39.9299 28.0398 40.0199L27.9398 40.1899C27.8798 40.2699 27.8498 40.3699 27.8298 40.4699C27.8298 40.5199 27.8498 40.5399 27.8898 40.5599L28.0898 40.6099L27.9498 40.8599M27.4698 39.8599L27.1598 39.9999L26.9398 39.7899L27.2698 39.6699L27.4798 39.8799M27.3598 40.7099C27.2998 40.7799 27.2398 40.8399 27.1598 40.8799C27.0998 40.9199 27.0198 40.9499 26.9498 40.9599H26.6498C26.5298 40.9299 26.4098 40.8999 26.2998 40.8599C26.1398 40.8099 25.9898 40.7299 25.8798 40.6099C25.7998 40.5099 25.7998 40.4199 25.8798 40.3299C25.9498 40.2499 26.0398 40.1799 26.1298 40.1299C26.2298 40.0699 26.3798 40.0099 26.5998 39.9299L26.6498 39.9899L26.2998 40.1399C26.2398 40.1799 26.1798 40.2199 26.1398 40.2599C26.0898 40.3099 26.0998 40.3799 26.1598 40.4599C26.3898 40.6299 26.6598 40.7299 26.9498 40.7299C27.0998 40.7299 27.1998 40.6899 27.2398 40.6399C27.2798 40.5999 27.2898 40.5599 27.2998 40.5199L27.3298 40.3199L27.6398 40.1299C27.6398 40.1899 27.6398 40.2599 27.6298 40.3199C27.5998 40.3899 27.5598 40.4599 27.5098 40.5199L27.3598 40.6899" fill="#BF0000"/>
</g>
</g>
</svg>
