<svg width="60" height="60" viewBox="0 0 60 60" fill="none" xmlns="http://www.w3.org/2000/svg">
<mask id="mask0_13628_11133" style="mask-type:luminance" maskUnits="userSpaceOnUse" x="0" y="0" width="60" height="60">
<path d="M30 60C46.5685 60 60 46.5685 60 30C60 13.4315 46.5685 0 30 0C13.4315 0 0 13.4315 0 30C0 46.5685 13.4315 60 30 60Z" fill="white"/>
</mask>
<g mask="url(#mask0_13628_11133)">
<mask id="mask1_13628_11133" style="mask-type:luminance" maskUnits="userSpaceOnUse" x="-10" y="0" width="80" height="60">
<path d="M70 0H-10V60H70V0Z" fill="white"/>
</mask>
<g mask="url(#mask1_13628_11133)">
<path d="M-10 0H70V60H-10V0Z" fill="#00008B"/>
<path d="M-5.31 0L9.94 11.31L25.12 0H30V3.88L15 15.07L30 26.19V30H25L10 18.81L-4.94 30H-10V26.25L4.94 15.13L-10 4.01V0H-5.31Z" fill="white"/>
<path d="M16.5 17.56L30 27.5V30L13.06 17.56H16.5ZM5 18.81L5.38 21L-6.62 30H-10L5 18.81ZM30 0V0.19L14.44 11.94L14.56 9.19L26.87 0H29.99H30ZM-10 0L4.94 11H1.19L-10 2.62V0Z" fill="#FF0000"/>
<path d="M5.06 0V30H15.06V0H5.06ZM-10 10V20H30V10H-10Z" fill="white"/>
<path d="M-10 12.06V18.06H30V12.06H-10ZM7.06 0V30H13.06V0H7.06Z" fill="#FF0000"/>
<path d="M55.8798 49.5901L53.3198 49.9101L53.5998 52.4701L51.7498 50.6701L49.9098 52.4801L50.1598 49.9201L47.5998 49.6201L49.7598 48.2201L48.3998 46.0301L50.8498 46.8401L51.7098 44.4001L52.5998 46.8301L55.0398 45.9901L53.6998 48.1901L55.8798 49.5801H55.8898L55.8798 49.5901ZM55.4198 34.9401L55.7598 33.3201L54.5398 32.2001L56.1898 32.0101L56.8798 30.5001L57.5698 32.0101L59.2198 32.2001L57.9898 33.3201L58.3298 34.9401L56.8798 34.1101L55.4298 34.9401H55.4198ZM42.4098 27.4401L39.8698 27.7101L40.0898 30.2501L38.2898 28.4401L36.4398 30.2001L36.7398 27.6601L34.2098 27.3201L36.3698 25.9701L35.0598 23.7801L37.4698 24.6301L38.3698 22.2401L39.2098 24.6501L41.6298 23.8601L40.2698 26.0201L42.4098 27.4201H42.3998L42.4098 27.4401ZM67.8798 23.3401L65.2698 23.6801L65.5598 26.2901L63.6698 24.4501L61.7898 26.3001L62.0498 23.6801L59.4398 23.3801L61.6498 21.9401L60.2598 19.7001L62.7598 20.5401L63.6398 18.0601L64.5398 20.5401L67.0298 19.6801L65.6498 21.9301L67.8698 23.3401H67.8798ZM55.8698 12.9001L53.2798 13.1901L53.5198 15.7901L51.6798 13.9401L49.7898 15.7401L50.0898 13.1501L47.4998 12.8001L49.7098 11.4201L48.3698 9.1801L50.8298 10.0401L51.7398 7.6001L52.5898 10.0601L55.0698 9.2501L53.6798 11.4501L55.8598 12.8901L55.8698 12.9001ZM19.2598 48.2101L13.5298 48.8801L14.1098 54.6201L10.0098 50.5701L5.88979 54.5901L6.49979 48.8501L0.779785 48.1301L5.63979 45.0301L2.63979 40.1101L8.08978 41.9901L10.0698 36.5701L12.0098 42.0101L17.4698 40.1701L14.4298 45.0701L19.2798 48.2101H19.2698H19.2598Z" fill="white"/>
</g>
</g>
</svg>
