<svg width="60" height="60" viewBox="0 0 60 60" fill="none" xmlns="http://www.w3.org/2000/svg">
<g clip-path="url(#clip0_14015_15218)">
<mask id="mask0_14015_15218" style="mask-type:alpha" maskUnits="userSpaceOnUse" x="0" y="0" width="60" height="60">
<circle cx="30" cy="30" r="30" fill="#012169"/>
</mask>
<g mask="url(#mask0_14015_15218)">
<g clip-path="url(#clip1_14015_15218)">
<g clip-path="url(#clip2_14015_15218)">
<g clip-path="url(#clip3_14015_15218)">
<g clip-path="url(#clip4_14015_15218)">
<g clip-path="url(#clip5_14015_15218)">
<g clip-path="url(#clip6_14015_15218)">
<g clip-path="url(#clip7_14015_15218)">
<path d="M0 0H80V60H0" fill="white"/>
<path d="M80 0H12L25.8375 6L12 12L25.8375 18L12 24L25.8375 30L12 36L25.8375 42L12 48L25.8375 54L12 60H80" fill="#CE1126"/>
</g>
</g>
</g>
</g>
</g>
</g>
</g>
</g>
</g>
<defs>
<clipPath id="clip0_14015_15218">
<rect width="60" height="60" fill="white"/>
</clipPath>
<clipPath id="clip1_14015_15218">
<rect width="80" height="60" fill="white" transform="translate(-15)"/>
</clipPath>
<clipPath id="clip2_14015_15218">
<rect width="80" height="60" fill="white" transform="translate(-15)"/>
</clipPath>
<clipPath id="clip3_14015_15218">
<rect width="80" height="60" fill="white" transform="translate(-15)"/>
</clipPath>
<clipPath id="clip4_14015_15218">
<rect width="80" height="60" fill="white" transform="translate(-15)"/>
</clipPath>
<clipPath id="clip5_14015_15218">
<rect width="80" height="60" fill="white" transform="translate(-4)"/>
</clipPath>
<clipPath id="clip6_14015_15218">
<rect width="80" height="60" fill="white" transform="translate(-10)"/>
</clipPath>
<clipPath id="clip7_14015_15218">
<rect width="80" height="60" fill="white"/>
</clipPath>
</defs>
</svg>
