<svg width="60" height="60" viewBox="0 0 60 60" fill="none" xmlns="http://www.w3.org/2000/svg">
<mask id="mask0_13628_11136" style="mask-type:luminance" maskUnits="userSpaceOnUse" x="0" y="0" width="60" height="60">
<path d="M30 60C46.5685 60 60 46.5685 60 30C60 13.4315 46.5685 0 30 0C13.4315 0 0 13.4315 0 30C0 46.5685 13.4315 60 30 60Z" fill="white"/>
</mask>
<g mask="url(#mask0_13628_11136)">
<mask id="mask1_13628_11136" style="mask-type:luminance" maskUnits="userSpaceOnUse" x="-10" y="0" width="80" height="60">
<path d="M70 0H-10V60H70V0Z" fill="white"/>
</mask>
<g mask="url(#mask1_13628_11136)">
<path d="M-10 0H70V60H-10V0Z" fill="#CF142B"/>
<path d="M59.9599 16.3301V36.5301C59.9599 41.9201 49.1799 43.6801 49.1799 43.6801C49.1799 43.6801 38.3799 41.9301 38.3799 36.5101V16.3401H59.9599V16.3301Z" fill="white"/>
<path d="M59.9599 36.5299C59.9599 41.9199 49.1799 43.6799 49.1799 43.6799C49.1799 43.6799 38.3799 41.9299 38.3799 36.5099C38.3799 36.5099 38.3799 36.0699 38.5999 35.8399C38.5999 35.8399 38.4799 36.7299 39.1599 37.4199C39.1599 37.4199 38.6199 36.4399 39.1599 35.5099C39.1599 35.5099 38.9499 36.7399 39.7099 37.4199C39.7099 37.4199 39.2999 36.4299 39.7599 35.3299C39.7599 35.3299 39.5299 37.1199 40.3499 37.4899C40.3499 37.4899 40.5799 36.4399 40.2499 35.7899C40.2499 35.7899 40.8099 36.0099 40.7899 37.5099C40.7899 37.5099 40.9699 37.2899 41.0199 36.1999C41.0199 36.1999 41.0399 37.4499 41.4599 37.7399C41.4599 37.7399 41.6099 37.6199 41.4199 37.0499C41.2199 36.4999 41.4999 36.2999 41.5399 36.2999C41.5399 36.2999 41.4399 36.9199 41.9599 37.3999C41.9599 37.3999 41.7399 36.4099 42.0499 36.2799C42.0499 36.2799 41.9699 37.1199 42.6499 37.2899C42.6499 37.2899 42.6899 37.0499 42.5499 36.7899C42.5499 36.7899 42.4299 36.4799 42.5099 36.2299C42.5099 36.2299 42.7199 36.9799 43.0099 37.1099C43.0099 37.1099 42.8299 36.6599 43.0099 36.2299C43.0099 36.2299 43.0299 36.8499 43.5999 37.1199C43.5999 37.1199 43.2299 36.6199 43.3599 36.0999L46.9499 36.2699L48.8299 36.3599L54.4199 35.9799L55.3699 35.1399C55.3699 35.1399 55.7599 35.6499 55.1499 36.4899C55.1499 36.4899 55.7499 36.3899 55.9399 35.4499C55.9399 35.4499 56.1899 35.9599 55.8499 36.5499C55.8499 36.5499 56.5099 35.8799 56.5999 35.1399C56.5999 35.1399 56.8599 35.8599 56.2399 36.6399C56.2399 36.6399 56.7899 36.4399 57.0299 35.6299C57.0299 35.6299 57.2299 36.1299 56.6899 36.8199C56.6899 36.8199 57.6999 36.3099 57.6799 35.1999C57.6799 35.1999 58.0899 35.7999 57.6199 36.6499C57.6199 36.6499 58.1199 36.1899 58.1799 35.4899C58.1799 35.4899 58.4699 35.7999 58.1499 36.6599C58.1499 36.6599 58.7699 36.0599 58.8699 35.4199C58.8699 35.4199 58.9899 36.0199 58.4699 36.7699C58.4699 36.7699 58.8299 36.6699 59.1799 35.9399C59.1799 35.9399 59.2699 36.2399 58.9599 36.7699C58.9599 36.7699 59.3099 36.7099 59.5299 36.0299C59.5299 36.0299 59.5699 36.4299 59.4699 36.7799C59.4699 36.7799 59.7299 36.6199 59.7999 35.8699C59.7999 36.0599 59.8499 36.2499 59.9499 36.4199V36.5399L59.9599 36.5299Z" fill="#2F8F22"/>
<path d="M54.42 24.84C54.42 24.84 54.04 24.92 53.55 24.77C53.08 24.62 52.89 24.68 52.74 24.77C52.74 24.77 52.93 24.38 52.45 24.07C52.45 24.07 52.6 24.47 52.39 24.65C52.39 24.65 52.3 24.74 52.19 24.61C52.19 24.61 52.03 24.42 51.84 24.31C51.84 24.31 52.25 24.16 52.18 23.75C52.11 23.34 51.88 23.3 51.77 23.24C51.75 23.34 51.75 23.44 51.77 23.54C51.77 23.54 51.33 23.29 51.92 22.95C52.52 22.61 52.42 22.4 52.31 22.22C52.19 22.04 52.05 21.89 51.87 21.77C51.87 21.77 51.99 21.97 51.96 22.13C51.95 22.28 51.66 22.38 51.71 22.12C51.77 21.82 51.71 21.87 51.71 21.58C51.71 21.58 52.23 21.75 52.46 21.23C52.46 21.23 52.66 20.69 51.98 20.43C51.98 20.43 52.14 20.66 52.07 20.81C52.07 20.81 51.92 21.09 51.76 20.89C51.6 20.68 51.48 20.62 51.5 20.37C51.5 20.37 52.11 20.46 51.95 19.78C51.95 19.78 51.84 20.23 51.05 19.63C51.05 19.63 51.58 19.11 51.36 18.68C51.36 18.68 51.3 18.49 50.75 18.59C50.75 18.59 51.22 18.29 51.04 18.03C51.04 18.03 50.93 17.87 50.47 18.08C50.47 18.08 50.66 17.79 50.21 17.46C50.21 17.46 49.91 17.61 49.76 17.76C49.76 17.76 49.46 17.39 49.26 17.22C49.26 17.22 48.91 17.36 48.82 17.76C48.82 17.76 48.66 17.57 48.28 17.46C48.28 17.46 48.1 17.81 48.34 18.08C48.34 18.08 48.16 18.08 47.84 17.94C47.84 17.94 47.49 17.79 47.55 18.08C47.59 18.38 47.63 18.46 47.7 18.6C47.7 18.6 46.89 18.41 46.92 18.85C46.92 19 46.96 19.14 47.03 19.28C47.09 19.41 47.19 19.53 47.3 19.63C47.3 19.63 46.86 20.23 46.47 19.78C46.47 19.78 46.32 19.93 46.62 20.3C46.62 20.3 46.92 20.61 46.66 20.82C46.66 20.82 46.35 21.07 46.2 20.57C46.2 20.57 45.69 21.08 46.3 21.47C46.3 21.47 46.68 21.69 47.09 21.35C47.09 21.35 46.97 22.35 46.59 22.15C46.59 22.15 46.35 22 46.76 21.79C46.76 21.79 46.16 21.72 46.07 22.29C46.07 22.29 45.99 22.73 46.51 22.91C46.51 22.91 46.9 23.06 46.51 23.36C46.51 23.36 46.2 23.57 46.4 23.91C46.4 23.91 46.62 24.26 46.04 24.31C46.04 24.31 45.74 24.31 45.63 24.26C45.63 24.26 45.51 24.51 45.58 24.76C45.58 24.76 45.29 24.55 44.64 24.78C43.99 25.03 44.03 24.85 43.99 24.93L43.79 25.23C43.79 25.23 44.14 25.68 44.15 25.64L44.07 26.14L44.24 26.21L45.59 25.61L46.97 24.9L48.08 24.95L48.78 25.11L49.68 25.19L50.35 24.84H51.3L52.35 25.36L53.54 26.07L54.16 26.19L54.65 26.15V25.17L54.42 24.82V24.84Z" fill="#D40000" stroke="black" stroke-width="0.15" stroke-linejoin="round"/>
<path d="M43.5299 25.9601C43.5299 25.9601 44.0499 26.2301 44.2799 25.9201C44.2799 25.9201 44.5499 25.3701 43.9299 25.1701C43.9299 25.1701 44.2799 24.7701 43.9099 24.4001C43.9099 24.4001 43.7099 24.2001 43.3799 24.3401C43.3799 24.3401 43.2299 24.0501 42.9199 24.0701C42.9199 24.0701 42.6199 24.0701 42.5399 24.3801C42.5399 24.3801 42.1399 24.2301 41.9299 24.4601C41.9299 24.4601 41.5499 24.8601 42.0699 25.1801L42.4299 25.2201L42.7799 25.0501L43.1899 25.1601C43.1899 25.1601 43.0799 25.5601 43.5299 25.9701V25.9601Z" fill="#D40000" stroke="black" stroke-width="0.15" stroke-linejoin="round"/>
<path d="M55.2 25.0099C55.38 24.9899 55.55 25.0199 55.71 25.1099C55.87 25.1999 55.99 25.3299 56.06 25.4899C56.38 26.2699 55.68 26.6899 55.68 26.6899C55.73 26.8499 55.74 27.0899 55.74 27.0899C56.71 27.2099 56.54 28.3199 56.54 28.3199L56.21 28.0499C55.65 27.8199 55.05 28.3199 54.64 29.1199C54.21 29.9499 54.42 30.3099 54.49 31.2799C54.56 32.2399 56.11 32.8299 56.11 32.8299L54.9 35.9499C54.43 37.1999 53.4 36.6899 53.11 36.4099C52.82 36.1599 52.75 36.3099 52.61 36.4099C52.47 36.5299 53.27 37.1599 51.8 37.7599C50.34 38.3499 50.09 38.7999 49.84 38.9499C49.59 39.0999 48.59 39.0099 48.49 38.8699C48.37 38.7499 48.44 38.7499 48.05 38.5099C47.67 38.2999 47.02 38.0699 46.33 37.7299C45.63 37.3899 45.65 36.9599 45.67 36.8699C45.67 36.7799 45.91 36.0599 45.08 36.6299C44.27 37.2199 43.57 36.3499 43.57 36.3499C43.42 36.1399 42.72 34.2999 42.72 34.2999C42.58 33.7899 42.4 33.2899 42.18 32.7999C42.18 32.7999 42.13 32.8999 42.74 32.5499C43.34 32.2099 43.62 31.6399 43.83 31.0599C44.04 30.4799 43.83 29.4999 43.75 29.3099C43.67 29.1099 43.22 28.1999 42.66 28.0099C42.11 27.8099 41.72 28.3099 41.72 28.3099C41.72 28.3099 41.56 27.1899 42.55 27.0599C42.55 27.0599 42.55 26.8299 42.6 26.6699C42.6 26.6699 41.9 26.2499 42.22 25.4699C42.22 25.4699 42.45 24.9299 43.07 24.9999L42.93 25.2999C42.93 25.2999 42.78 26.8799 45.08 25.8199C47.39 24.7499 47.33 24.5499 48.67 25.2199H49.62C49.62 25.2199 51 24.5499 51.46 24.8299C51.9 25.1199 53.5 25.9999 53.5 25.9999C53.5 25.9999 55.05 26.5899 55.36 25.4999L55.18 24.9899L55.2 25.0099Z" fill="#64B4D1" stroke="black" stroke-width="0.15"/>
<path d="M48.23 31.88C48.23 31.88 48.15 31.39 48.08 31.08C48.08 31.08 47.89 30.59 48.2 30.23L48.55 29.82C48.55 29.82 48.78 29.52 49.05 29.48C49.05 29.48 49.34 29.48 49.35 29.42C49.39 29.36 49.7 28.86 50.42 29.42C50.42 29.42 50.65 29.04 51.02 28.97C51.02 28.97 51.4 28.87 51.58 29.14C51.58 29.14 52.02 28.81 52.38 29.35C52.38 29.35 52.89 29.05 53.28 29.64C53.28 29.64 53.78 29.39 54.08 29.9C54.39 30.44 54.33 30.65 54.33 30.65L54.58 31.5L55.39 32.5L53.49 33.23H52.61L50.9 33.68L47.86 33.92L47.02 32.92L48.22 31.88H48.21H48.23Z" fill="white" stroke="#00247D" stroke-width="0.15" stroke-miterlimit="10"/>
<path d="M45.6602 36.9401C45.6602 36.9401 45.2102 36.9501 44.9702 37.0901C44.7502 37.1901 44.5602 37.3101 44.3002 37.4901C44.3002 37.4901 44.1802 37.6501 43.6502 37.5501C43.6502 37.5501 42.7502 37.3401 42.7502 38.0501C42.7502 38.0501 41.6503 38.1301 42.1003 39.0901C42.1003 39.0901 42.3903 39.8401 43.0103 39.3101C43.0103 39.3101 42.6103 39.8701 43.3903 40.1001C43.3903 40.1001 43.9402 40.2501 44.1102 39.6601C44.1102 39.6601 44.2002 39.4401 43.9902 39.1601C43.9902 39.1601 44.2502 39.1101 44.4402 38.8201C44.4402 38.8201 43.8602 39.5401 44.5002 39.8201C44.5002 39.8201 45.2902 40.0101 45.3302 39.2001C45.3302 39.2001 45.2502 38.8001 45.5802 38.6601C45.5802 38.6601 46.2002 38.5101 46.4602 37.8401C46.4602 37.8401 45.5803 37.3501 45.6703 36.9401H45.6602ZM43.8203 29.7501C43.8203 29.7501 43.1202 29.4401 42.7702 29.7501C42.7702 29.7501 42.3302 29.4801 41.8302 29.7501C41.8302 29.7501 41.3703 30.0501 41.0403 30.4001C41.0403 30.4001 40.8203 30.5901 40.8903 31.2001C40.8903 31.2001 41.0103 31.6401 40.9503 31.8401C40.9503 31.8401 40.8002 31.8201 40.4902 32.1901C40.4902 32.1901 40.1002 32.6301 39.7402 32.2301C39.7402 32.2301 39.8602 32.8101 40.5002 32.7101C40.5002 32.7101 40.1902 32.9601 40.4602 33.5901C40.4602 33.5901 40.6602 34.0401 40.3402 34.6101C40.3402 34.6101 40.9003 34.3901 40.8903 33.7101C40.8903 33.7101 40.8303 33.2601 41.0103 32.9601C41.0103 32.9601 40.8202 33.2301 41.2102 33.8501C41.2102 33.8501 41.5102 34.3001 41.2702 34.7501C41.2702 34.7501 41.8202 34.5501 41.7702 33.8701C41.7202 33.2001 41.3903 33.4701 41.6003 32.8501C41.6003 32.8501 41.6602 33.1701 41.8302 33.3501C41.9502 33.4501 42.0503 33.5901 42.1003 33.7501C42.1503 33.9001 42.1602 34.0701 42.1302 34.2301C42.1302 34.2301 42.4602 33.8001 42.3802 33.3801C42.3602 33.1901 42.3002 33.0001 42.2202 32.8301L43.2702 32.2301L43.8102 31.2901V29.7701L43.8203 29.7501Z" fill="#D40000" stroke="black" stroke-width="0.15" stroke-linejoin="round"/>
<path d="M42.22 32.4401C42.22 32.4401 41.78 32.4101 41.72 32.0601M40.96 31.8301C40.96 31.8301 41.11 31.8301 41.26 31.9801C41.26 31.9801 41.35 32.1301 41.5 32.1001" stroke="black" stroke-width="0.15" stroke-miterlimit="10"/>
<path d="M42.8798 31.15C42.8798 31.15 42.6598 31.15 42.4998 31.05C42.4998 31.05 42.3898 30.96 42.3098 31.1C42.3098 31.1 42.1798 31.3 42.4098 31.39C42.4098 31.39 42.6898 31.54 42.2598 31.81C42.2598 31.81 42.7598 31.61 42.5598 31.36C42.5598 31.36 42.3298 31.21 42.4098 31.15C42.4098 31.15 42.4398 31.1 42.5298 31.15C42.6098 31.23 42.7798 31.2 42.8698 31.15H42.8798Z" fill="black"/>
<path d="M49.7002 32.3801L49.9601 32.3L48.2101 26.3H48.1602L49.7002 32.3801Z" fill="#784421" stroke="black" stroke-width="0.15"/>
<path d="M43.8999 39.0399C43.8999 39.0399 43.4999 38.7999 43.1499 39.0799C43.1499 39.0799 43.1999 38.9299 43.4499 38.8699C43.4499 38.8699 43.5999 38.4699 43.9899 38.5099C43.9899 38.5099 43.8299 38.7099 43.6099 38.8599C43.6099 38.8599 43.8299 38.8899 43.9099 39.0499H43.8999V39.0399Z" fill="black"/>
<path d="M42.4601 39.9699C42.4601 39.9699 41.8102 39.5699 42.1702 38.8799C42.1702 38.8799 42.2701 38.6899 42.4601 38.7299C42.4601 38.7299 42.8702 38.8499 42.5602 39.4199C42.5602 39.4199 42.3901 39.7799 42.4601 39.9799V39.9699ZM43.7701 40.6299C43.7701 40.6299 42.8502 40.2099 43.1302 39.4799C43.1302 39.4799 43.2201 39.2299 43.4301 39.2599C43.4301 39.2599 43.7802 39.2799 43.7202 39.7599C43.7202 39.7599 43.6101 40.2099 43.7701 40.6399V40.6299Z" fill="#64B4D1" stroke="#00247D" stroke-width="0.15" stroke-miterlimit="2.6"/>
<path d="M43.5899 37.95C43.5899 37.95 43.2999 38.1599 43.1999 38.2999C43.1999 38.2999 43.0699 38.15 42.9199 38.08C42.9199 38.08 43.1099 38.0399 43.1999 38.1199C43.1999 38.1199 43.3499 37.9999 43.5799 37.9599H43.5899V37.95Z" fill="black"/>
<path d="M44.3999 40.45C44.3999 40.45 45.1499 40.28 44.9999 39.51C44.9999 39.51 44.9199 39.18 44.6199 39.23C44.6199 39.23 44.2399 39.33 44.4999 39.81C44.4999 39.81 44.6399 40.14 44.3999 40.45Z" fill="#64B4D1" stroke="#00247D" stroke-width="0.15" stroke-miterlimit="2.6"/>
<path d="M47.7002 24.59L48.4102 24.83C48.4102 24.83 49.0902 25.12 49.9502 24.83L50.6002 24.58L50.1602 25.25V25.6101L50.4202 26.01C50.4202 26.01 50.2602 26.08 49.7502 25.76C49.7502 25.76 49.2002 25.33 48.5502 25.76C48.5502 25.76 48.1802 26.01 47.8802 26.01L48.3202 25.5301L48.1602 25.09L47.7102 24.55V24.57L47.7002 24.59Z" fill="#F5CE00" stroke="black" stroke-width="0.15" stroke-miterlimit="2.6"/>
<path d="M44.6898 39.56C44.6898 39.56 44.7098 39.51 44.6898 39.5L44.6298 39.53C44.6298 39.53 44.5498 39.65 44.6298 39.83C44.6298 39.83 44.6898 39.94 44.6698 40.05V40.1C44.6698 40.1 44.7098 40.09 44.7098 40.05C44.7098 40.05 44.7598 39.95 44.6798 39.83C44.6798 39.83 44.5998 39.66 44.6898 39.57V39.56Z" fill="white"/>
<path d="M54.7499 25.9601C54.7499 25.9601 54.2199 26.2301 53.9999 25.9201C53.9999 25.9201 53.7399 25.3701 54.3599 25.1701C54.3599 25.1701 54.0099 24.7701 54.3699 24.4001C54.3699 24.4001 54.5699 24.2001 54.8999 24.3401C54.8999 24.3401 55.0499 24.0501 55.3599 24.0701C55.3599 24.0701 55.6599 24.0701 55.7399 24.3801C55.7399 24.3801 56.1499 24.2301 56.3599 24.4601C56.3599 24.4601 56.7099 24.8601 56.2099 25.1801L55.8499 25.2201L55.4899 25.0501L55.1099 25.1601C55.1099 25.1601 55.2099 25.5601 54.7299 25.9701H54.7399L54.7499 25.9601Z" fill="#D40000" stroke="black" stroke-width="0.15" stroke-linejoin="round"/>
<path d="M50.5999 25.5499C50.5999 25.5499 50.5999 25.6499 50.4999 25.6699C50.4999 25.6699 50.3799 25.7099 50.3099 25.5599V25.5199C50.3099 25.4599 50.2699 25.2699 50.4799 25.1099C50.4799 25.1099 50.8099 24.8499 51.4299 25.1699C52.0299 25.5099 52.6499 25.8199 53.2799 26.1099C53.2799 26.1099 53.6699 26.3099 54.2699 26.3399C54.2699 26.3399 55.0799 26.3999 55.4299 25.8299C55.4299 25.8299 55.6899 25.3899 55.4299 25.0999C55.4299 25.0999 55.3199 24.9799 55.1399 24.9999C55.0499 25.0199 54.9699 25.0699 54.9199 25.1499C54.9199 25.1499 54.7999 25.3299 54.9299 25.4599C54.9299 25.4599 55.1299 25.5799 55.2099 25.3399C55.2099 25.3599 55.2699 25.5499 55.1599 25.6999C55.1599 25.6999 54.6599 26.4499 53.2999 25.6899L51.5099 24.6799C51.5099 24.6799 50.6199 24.2199 50.0599 24.9399C50.0599 24.9399 49.6399 25.5399 50.1999 25.9299C50.1999 25.9299 50.6199 26.1799 50.8699 25.7799C50.8699 25.7799 51.0999 25.3899 50.7499 25.2299C50.7499 25.2299 50.4499 25.0799 50.3399 25.3799C50.2199 25.6799 50.5599 25.7599 50.5899 25.5399C50.5899 25.5399 50.5899 25.4899 50.6299 25.5399H50.6099L50.5999 25.5499Z" fill="#F5CE00" stroke="black" stroke-width="0.15" stroke-miterlimit="2.6"/>
<path d="M43.5002 28.6501V27.5301C43.5002 27.4301 43.5002 27.3801 43.6502 27.2601C43.7702 27.1601 43.9102 26.9701 44.1102 27.4701C44.1102 27.4701 44.5102 27.0301 44.6402 26.9701C44.6402 26.9701 44.8902 26.7801 45.0502 27.0601C45.0502 27.0601 45.2502 26.7401 45.4302 26.6601C45.4302 26.6601 45.8302 26.4101 45.8402 27.1801L46.1502 26.8801C46.1502 26.8801 46.4002 26.6901 46.6702 26.9701C46.6702 26.9701 47.1102 27.4201 47.1702 27.5501C47.1702 27.5501 47.2702 27.6701 47.2902 27.8901C47.2902 27.8901 47.2902 28.1401 47.4102 28.2701C47.4102 28.2701 47.5502 28.3901 47.6902 28.4201C47.6902 28.4201 48.0002 28.4301 48.1402 28.7501C48.1402 28.7501 48.1802 28.6901 48.3402 30.1501V32.8401L46.5402 34.9801L43.6502 34.1501L42.5002 33.6601L42.2202 32.8301L43.3402 32.0901L43.9402 30.4701L43.7502 29.3101L43.4702 28.6601L43.5002 28.6501Z" fill="#E4CB5E" stroke="black" stroke-width="0.15" stroke-miterlimit="2.6"/>
<path d="M51.4502 30.0501L51.6002 29.8601L51.9102 29.6101C51.9102 29.6101 52.4102 30.9101 52.4402 31.2001V31.6001C52.4402 31.6001 53.1902 31.8001 53.3402 32.9401L52.7202 34.0901L51.7402 33.5401L51.4502 33.3501V30.0601V30.0501Z" fill="#784421" stroke="black" stroke-width="0.15"/>
<path d="M42.2898 39.05C42.2898 39.05 42.3098 39.01 42.2898 38.97L42.2298 39.02C42.2298 39.02 42.0398 39.23 42.1998 39.57C42.1998 39.57 42.1998 39.62 42.2398 39.59C42.2398 39.59 42.2798 39.59 42.2398 39.55C42.2398 39.55 42.0998 39.25 42.2898 39.05Z" fill="white"/>
<path d="M45.21 38.8299C45.21 38.8299 45.22 38.7299 45.16 38.6299C45.16 38.6299 45.12 38.5499 45.13 38.4399M45.83 27.1799C45.83 27.1799 45.83 27.4699 45.92 27.6799C46 27.8799 46.28 28.2399 46.3 28.4199" stroke="black" stroke-width="0.15" stroke-miterlimit="10"/>
<path d="M52.6198 36.9399C52.6198 36.9399 53.0698 36.9499 53.3098 37.0899C53.5598 37.1899 53.7298 37.3099 53.9998 37.4899C53.9998 37.4899 54.1198 37.6499 54.6498 37.5499C54.6498 37.5499 55.5498 37.3399 55.5498 38.0499C55.5498 38.0499 56.6398 38.1299 56.1998 39.0899C56.1998 39.0899 55.8998 39.8399 55.2798 39.3099C55.2798 39.3099 55.6798 39.8699 54.8998 40.0999C54.8998 40.0999 54.3498 40.2499 54.1898 39.6599C54.1898 39.6599 54.0898 39.4399 54.3098 39.1599C54.3098 39.1599 54.0498 39.1099 53.8698 38.8199C53.8698 38.8199 54.4298 39.5399 53.8098 39.8199C53.8098 39.8199 53.0198 40.0099 52.9698 39.1999C52.9698 39.1999 53.0298 38.7999 52.7198 38.6599C52.7198 38.6599 52.0998 38.5099 51.8198 37.8399C51.8198 37.8399 52.7198 37.3499 52.6298 36.9399H52.6198Z" fill="#D40000" stroke="black" stroke-width="0.15" stroke-linejoin="round"/>
<path d="M45.48 28.4199L46.23 34.3999M45.67 28.4099L46.49 33.9799M45.8 28.3799L46.78 33.8999" stroke="black" stroke-width="0.15" stroke-miterlimit="10"/>
<path d="M47.3298 33.4401L47.6098 33.3501L45.8598 27.3501H45.7998L47.3398 33.4401H47.3298Z" fill="#784421" stroke="black" stroke-width="0.15"/>
<path d="M46.3402 28.1599L48.1002 32.5999M46.2202 28.2299L47.9202 32.8499" stroke="black" stroke-width="0.15" stroke-miterlimit="10"/>
<path d="M43.4502 40.1999C43.4502 40.1999 43.2401 40.0099 43.2801 39.6599C43.2801 39.6599 43.2801 39.5899 43.2401 39.5699C43.2401 39.5699 43.2002 39.5599 43.2002 39.6499C43.2002 39.6499 43.1402 40.0099 43.3902 40.2099C43.3902 40.2099 43.4001 40.2499 43.4401 40.2299C43.4401 40.2299 43.4701 40.2299 43.4401 40.1899H43.4502V40.1999Z" fill="white"/>
<path d="M46.4399 28.1001L48.2299 32.1501M45.9399 28.3501L47.0599 33.8101" stroke="black" stroke-width="0.15" stroke-miterlimit="10"/>
<path d="M55 32.3799C54.21 31.9299 54.04 30.9599 54.04 30.9599C53.93 30.3599 53.9999 29.7399 54.2399 29.1699C54.7399 28.0899 55.63 27.8799 55.63 27.8799C55.63 27.8799 54.77 28.4799 54.53 29.2799C54.53 29.2799 54.35 29.9699 54.45 30.6199C54.55 31.3099 54.51 31.1299 54.68 31.6599L55 32.4099V32.3799Z" fill="#F5CE00" stroke="black" stroke-width="0.15" stroke-miterlimit="2.6"/>
<path d="M51.5899 29.8401L48.2599 30.9001L48.0899 32.4001C47.2999 33.5401 45.6899 33.7401 45.6899 33.7401L46.9399 35.0801L49.3199 35.5801L50.5999 34.6001L51.7499 33.5501C51.6299 32.9901 51.6899 32.1501 51.6899 32.1501C51.6899 32.0001 51.7499 31.6701 51.7499 31.6701C51.7499 31.6701 51.5599 30.3301 51.5999 29.8601V29.8401H51.5899Z" fill="#784421" stroke="black" stroke-width="0.15"/>
<path d="M48.1198 32.03C48.1198 32.03 50.3198 31.34 51.6198 30.78M47.0698 33.28C47.0698 33.28 49.8198 32.78 51.7298 31.68L52.4298 31.21" stroke="black" stroke-width="0.15" stroke-miterlimit="10"/>
<path d="M52.44 31.6001L51.69 32.1501C51.69 32.1501 48.63 33.5501 46.29 33.6001M51.68 33.1501C51.68 33.1501 49.33 34.3701 48.01 34.3701" stroke="black" stroke-width="0.15" stroke-miterlimit="10"/>
<path d="M54.48 29.7501C54.48 29.7501 55.18 29.4401 55.53 29.7501C55.53 29.7501 55.98 29.4801 56.48 29.7501C56.48 29.7501 56.93 30.0501 57.26 30.4001C57.26 30.4001 57.48 30.5901 57.41 31.2001C57.41 31.2001 57.29 31.6401 57.37 31.8401C57.37 31.8401 57.51 31.8201 57.81 32.1901C57.81 32.1901 58.22 32.6301 58.56 32.2301C58.56 32.2301 58.46 32.8101 57.81 32.7101C57.81 32.7101 58.11 32.9601 57.85 33.5901C57.85 33.5901 57.65 34.0401 57.97 34.6101C57.97 34.6101 57.4 34.3901 57.42 33.7101C57.42 33.7101 57.47 33.2601 57.3 32.9601C57.3 32.9601 57.48 33.2301 57.09 33.8501C57.09 33.8501 56.79 34.3001 57.04 34.7501C57.04 34.7501 56.48 34.5501 56.54 33.8701C56.58 33.2001 56.92 33.4701 56.7 32.8501C56.7 32.8501 56.65 33.1701 56.49 33.3501C56.37 33.4501 56.27 33.5901 56.22 33.7501C56.17 33.9001 56.16 34.0701 56.19 34.2301C56.19 34.2301 55.86 33.8001 55.94 33.3801C56.01 32.9401 56.09 32.8301 56.09 32.8301L55.05 32.2301L54.53 31.2901L54.49 29.7701L54.48 29.7501Z" fill="#D40000" stroke="black" stroke-width="0.15" stroke-linejoin="round"/>
<path d="M42.5801 33.55C42.5801 33.55 42.6801 33.09 43.1201 33.25C43.1201 33.25 43.2701 32.5 44.0801 32.47C44.8901 32.45 44.9301 33.27 44.9301 33.32C44.9301 33.32 45.1801 32.97 45.5701 33.01C45.5701 33.01 46.2601 32.97 46.0201 34.07L46.1401 34.22C46.1401 34.22 46.6501 32.98 47.7301 33.3C47.7301 33.3 48.7801 33.63 48.1101 34.64C48.1101 34.64 48.6401 35.33 49.0601 35.26C49.5101 35.2 49.9001 35.06 50.3401 34.28C50.7901 33.51 51.8001 33.38 52.0501 33.43C52.3001 33.47 52.5101 33.65 52.5501 33.83C52.5501 33.83 53.0901 32.04 55.0201 32.3L55.8001 32.71L56.1001 32.83L55.6501 34.08L54.6001 36.48L53.7701 36.73L52.9201 36.24L52.6201 36.39V37.13L51.5001 37.93L50.7301 38.24L49.8801 38.84L49.6701 39.37C49.6701 39.37 49.2101 39.16 48.6701 39.37L48.4901 38.92L47.9901 38.46L46.0401 37.54L45.7001 36.42L45.3401 36.26L44.9401 36.71L44.3801 36.78L43.5001 36.18L42.5801 33.56H42.5901L42.5801 33.55Z" fill="white" stroke="#00247D" stroke-width="0.15" stroke-miterlimit="10"/>
<path d="M51.0201 24.75C51.0201 24.75 50.2701 24.73 50.3101 25.5" stroke="black" stroke-width="0.15" stroke-miterlimit="2.6"/>
<path d="M55.8799 32.9099C54.5999 32.5099 54.2599 31.1199 54.2599 31.1199C54.1099 30.4699 54.1599 29.7999 54.4099 29.1799C55.0099 27.7999 55.9999 27.7999 55.9999 27.7999C56.1299 27.7799 56.2599 27.8099 56.3599 27.8899C56.4599 27.9599 56.5399 28.0799 56.5599 28.1999C56.6099 28.4999 56.3999 28.6099 56.3999 28.6099C56.0599 28.7999 55.8399 28.5499 55.8399 28.5499C55.6899 28.3499 55.7999 28.1899 55.7999 28.1899C55.8899 28.0699 56.0499 28.1399 56.0499 28.1399C56.2099 28.1599 56.1699 28.3399 56.1699 28.3399C56.1699 28.3399 56.2199 28.1399 56.0199 28.1099C56.0199 28.1099 55.6199 28.0199 55.1699 28.5899C55.1699 28.5899 54.5799 29.3499 54.5799 30.3499C54.5799 30.3499 54.5099 32.1999 56.4199 32.6799C56.4199 32.6799 56.2199 32.9799 55.8499 34.0699C55.8499 34.0699 55.4399 35.4699 55.0499 36.2299C55.0499 36.2299 54.5099 37.3099 53.3099 36.8699C53.3099 36.8699 52.6099 36.5599 52.6099 36.0599C52.6099 36.0599 52.5699 35.5899 52.9899 35.5599C52.9899 35.5599 53.3999 35.5199 53.3999 35.8699C53.3999 35.8699 53.3999 36.2499 52.9599 36.1699C52.9599 36.1699 52.8099 36.1299 52.8199 35.9799C52.8199 35.9799 52.8499 35.8299 53.0399 35.8999C53.2299 35.9799 53.0399 35.8999 53.0399 35.8899C53.0399 35.8899 52.9699 35.8499 52.8899 35.8899C52.8899 35.8899 52.8099 35.8899 52.8099 36.0099C52.8099 36.0099 52.8099 36.0799 52.8999 36.1499L53.1099 36.1799C53.1099 36.1799 53.2299 36.4299 53.4899 36.5199C53.6399 36.5699 53.7999 36.5799 53.9499 36.5499C54.0999 36.5199 54.2499 36.4599 54.3799 36.3699C54.5499 36.2199 54.6799 36.0399 54.7599 35.8299C55.0099 35.2799 55.2299 34.7199 55.4099 34.1399C55.4099 34.1399 55.6299 33.4299 55.8299 33.0499L55.8799 32.8999V32.9099Z" fill="#F5CE00" stroke="black" stroke-width="0.15" stroke-miterlimit="2.6"/>
<path d="M52.2502 36.43C52.2502 36.43 52.5002 36.41 52.5002 36.62C52.5002 36.62 52.4902 36.92 52.1002 36.86C52.1002 36.86 51.7202 36.78 51.8502 36.36C51.8502 36.36 51.9502 36.07 52.3002 36.11C52.3002 36.11 52.6502 36.11 52.8002 36.58C52.8002 36.58 52.9202 36.99 52.7102 37.33C52.4802 37.71 51.9302 37.95 51.6602 38.08C51.6602 38.08 50.5702 38.49 50.2502 38.74C50.2502 38.74 49.7502 39.1 49.9802 39.44C49.9802 39.44 50.0702 39.58 50.1902 39.58C50.1902 39.58 50.3402 39.58 50.3502 39.43C50.3502 39.43 50.3502 39.52 50.2602 39.55C50.2602 39.55 50.1602 39.6 50.0502 39.51C50.0502 39.51 49.9302 39.39 50.0302 39.21C50.0302 39.21 50.1502 39.01 50.4802 39.13C50.4802 39.13 50.7302 39.27 50.6302 39.54C50.6302 39.54 50.5202 39.8 50.2102 39.79C50.2102 39.79 49.9702 39.79 49.8102 39.64C49.5602 39.38 49.5602 38.89 49.7902 38.64C49.7902 38.64 49.9802 38.38 50.3802 38.19L51.5002 37.75C51.8302 37.61 52.1102 37.46 52.3002 37.24C52.3002 37.24 52.4602 37.07 52.5202 36.74C52.5202 36.74 52.5702 36.49 52.4202 36.44L52.2702 36.4H52.2602L52.2502 36.43Z" fill="#F5CE00" stroke="black" stroke-width="0.15" stroke-miterlimit="2.6"/>
<path d="M52.27 36.4199C52.27 36.4199 52.53 36.3699 52.71 36.6999C52.71 36.6999 52.8 36.8899 52.81 37.0099M52.9 35.8899C52.9 35.8899 52.64 35.9299 52.78 36.3099C52.92 36.6699 53.16 36.7699 53.22 36.8399" stroke="black" stroke-width="0.15" stroke-miterlimit="2.6"/>
<path d="M47.7 25.55C47.7 25.55 47.6999 25.65 47.8199 25.67C47.8199 25.67 47.92 25.7 47.9799 25.56V25.52C47.9799 25.46 48.0199 25.27 47.8299 25.11C47.8299 25.11 47.4799 24.85 46.8499 25.17C46.8499 25.17 46.3499 25.42 46.0099 25.62C46.0099 25.62 45.1199 26.1 45.0099 26.12C45.0099 26.12 44.6099 26.32 44.0099 26.35C44.0099 26.35 43.1999 26.41 42.8599 25.84C42.8599 25.84 42.5799 25.4 42.8599 25.11C42.8599 25.11 42.96 24.99 43.14 25.01C43.21 25.02 43.2899 25.06 43.3599 25.16C43.3599 25.16 43.4799 25.33 43.3499 25.47C43.3499 25.47 43.1499 25.59 43.0799 25.35C43.0799 25.37 43.04 25.55 43.14 25.73C43.14 25.73 43.6399 26.47 44.9899 25.69L46.7799 24.69C46.7799 24.69 47.6799 24.23 48.2299 24.94C48.2299 24.94 48.6499 25.54 48.1099 25.94C48.1099 25.94 47.7 26.19 47.42 25.79C47.42 25.79 47.2199 25.41 47.5399 25.24C47.5399 25.24 47.84 25.09 47.9799 25.39C48.0999 25.69 47.7299 25.77 47.7099 25.55C47.7099 25.55 47.71 25.5 47.7 25.55ZM43.2999 32.39C44.0899 31.95 44.2799 30.95 44.2799 30.95C44.4499 29.95 44.0699 29.16 44.0699 29.16C43.5699 28.08 42.6899 27.87 42.6899 27.87C42.6899 27.87 43.5399 28.47 43.7799 29.27C43.7799 29.27 43.9799 29.96 43.8499 30.61C43.7499 31.3 43.7899 31.12 43.6299 31.65L43.2999 32.39Z" fill="#F5CE00" stroke="black" stroke-width="0.15" stroke-miterlimit="2.6"/>
<path d="M47.2998 24.75C47.2998 24.75 48.0498 24.73 47.9998 25.5" stroke="black" stroke-width="0.15" stroke-miterlimit="2.6"/>
<path d="M42.4102 32.9099C43.7002 32.5099 44.0302 31.1199 44.0302 31.1199C44.1902 30.4799 44.1402 29.7999 43.8902 29.1799C43.2902 27.7999 42.3002 27.7999 42.3002 27.7999C42.1702 27.7799 42.0402 27.8099 41.9402 27.8899C41.8402 27.9599 41.7602 28.0799 41.7402 28.1999C41.7002 28.4999 41.9002 28.6099 41.9002 28.6099C42.2502 28.7999 42.4802 28.5499 42.4802 28.5499C42.6202 28.3499 42.5102 28.1899 42.5102 28.1899C42.4202 28.0699 42.2602 28.1399 42.2602 28.1399C42.1102 28.1599 42.1402 28.3399 42.1402 28.3399C42.1402 28.3399 42.1002 28.1399 42.2902 28.1099C42.2902 28.1099 42.6902 28.0199 43.1402 28.5899C43.1402 28.5899 43.7402 29.3499 43.7402 30.3499C43.7402 30.3499 43.8202 32.1999 41.8902 32.6799C41.8902 32.6799 42.1002 32.9799 42.4702 34.0699C42.4702 34.0699 42.8902 35.4699 43.2902 36.2299C43.2902 36.2299 43.8202 37.3099 45.0002 36.8699C45.0002 36.8699 45.7002 36.5599 45.7002 36.0599C45.7002 36.0599 45.7502 35.5899 45.3202 35.5599C45.3202 35.5599 44.9102 35.5199 44.9102 35.8699C44.9102 35.8699 44.9101 36.2499 45.3601 36.1699C45.3601 36.1699 45.5102 36.1299 45.4802 35.9799C45.4802 35.9799 45.4602 35.8299 45.2702 35.8999C45.0702 35.9799 45.2702 35.8999 45.2702 35.8899C45.2702 35.8899 45.3302 35.8499 45.4102 35.8899C45.4102 35.8899 45.4902 35.8899 45.4902 36.0099C45.4902 36.0099 45.4902 36.0799 45.4002 36.1499L45.2102 36.1799C45.2102 36.1799 45.0902 36.4299 44.8102 36.5199C44.6602 36.5699 44.5102 36.5799 44.3502 36.5599C44.2002 36.5299 44.0502 36.4699 43.9302 36.3699C43.7602 36.2199 43.6302 36.0399 43.5502 35.8299C43.2902 35.2799 43.0702 34.7199 42.8902 34.1399C42.8902 34.1399 42.6602 33.4299 42.4902 33.0499L42.4102 32.8999H42.4002L42.4102 32.9099Z" fill="#F5CE00" stroke="black" stroke-width="0.15" stroke-miterlimit="2.6"/>
<path d="M46.06 36.43C46.06 36.43 45.81 36.41 45.81 36.62C45.81 36.62 45.81 36.92 46.21 36.86C46.21 36.86 46.59 36.78 46.45 36.36C46.45 36.36 46.36 36.07 46 36.11C46 36.11 45.66 36.11 45.5 36.58C45.5 36.58 45.39 36.99 45.6 37.33C45.83 37.71 46.38 37.95 46.64 38.08C46.64 38.08 47.73 38.49 48.06 38.74C48.06 38.74 48.55 39.1 48.32 39.44C48.32 39.44 48.24 39.58 48.11 39.58C48.11 39.58 47.96 39.58 47.95 39.43C47.95 39.43 47.95 39.52 48.04 39.55C48.04 39.55 48.15 39.6 48.25 39.51C48.25 39.51 48.37 39.39 48.28 39.21C48.28 39.21 48.16 39.01 47.85 39.13C47.85 39.13 47.58 39.27 47.7 39.54C47.7 39.54 47.79 39.8 48.1 39.79C48.1 39.79 48.35 39.79 48.5 39.64C48.75 39.38 48.75 38.89 48.55 38.64C48.55 38.64 48.34 38.38 47.95 38.19C47.71 38.11 47.26 37.93 46.83 37.75C46.49 37.61 46.21 37.46 46.02 37.24C46.02 37.24 45.86 37.07 45.79 36.74C45.79 36.74 45.75 36.49 45.9 36.44L46.05 36.4H46.06V36.43Z" fill="#F5CE00" stroke="black" stroke-width="0.15" stroke-miterlimit="2.6"/>
<path d="M46.0299 36.43C46.0299 36.43 45.7699 36.38 45.5999 36.71C45.5999 36.71 45.5099 36.9 45.4899 37.02M45.3999 35.9C45.3999 35.9 45.6699 35.94 45.5399 36.32C45.3899 36.68 45.1599 36.78 45.0899 36.85M48.5099 25.46C48.5099 25.46 49.1599 25.05 49.8099 25.5M44.8499 29.41C44.8499 29.41 44.9399 29.03 44.5299 28.41C44.5299 28.41 44.2499 27.82 44.1299 27.47M45.0499 27.06L45.3399 27.88L45.7199 28.73" stroke="black" stroke-width="0.15" stroke-miterlimit="2.6"/>
<path d="M45.1498 29.79C45.1498 29.79 45.3998 30.05 45.3698 30.49M44.3598 29.5C44.3598 29.5 44.6198 29.62 44.5998 30.35C44.5998 30.35 44.5898 30.85 44.9798 31.12M44.3198 31.29C44.3198 31.29 45.1598 31.1999 45.2198 31.7299C45.2198 31.7299 45.2198 32.23 45.5198 32.27C45.5198 32.27 45.9298 32.31 46.0198 32.72M44.5998 31.87C44.5998 31.87 44.7498 32.08 44.8998 32.2M45.6698 31.32C45.6698 31.32 45.8698 31.66 45.9198 31.83M46.5798 27.45C46.5798 27.45 46.7798 27.71 46.9698 27.83M47.3598 29.03C47.3598 29.03 47.7898 29.23 47.7398 30.28C47.7398 30.28 47.6698 30.9 47.8498 31.24" stroke="black" stroke-width="0.15" stroke-miterlimit="10"/>
<path d="M45.3901 28.3301L45.4401 28.4301C45.4401 28.4301 46.1901 28.4701 46.5801 27.9601L46.5401 27.8601C46.5401 27.8601 45.8801 27.8201 45.4201 28.3401H45.4001L45.3901 28.3301Z" fill="#784421" stroke="black" stroke-width="0.15"/>
<path d="M48.0898 32.3101C48.0898 32.3101 50.6699 31.5601 51.6699 31.1101" stroke="black" stroke-width="0.15" stroke-miterlimit="10"/>
<path d="M47.81 27.56L47.79 27.48L49.05 26.98L49.09 27.08L47.81 27.56Z" fill="#784421" stroke="black" stroke-width="0.15"/>
<path d="M47.9199 27.5101L48.7699 31.6701M48.0699 27.4701L49.0299 31.5901M48.2299 27.3901L49.2799 31.5001M48.6599 27.2401L50.0999 30.3201M48.8499 27.2001L50.3899 30.2201M48.9799 27.1201L50.6599 30.1601M48.7199 31.7101L49.3699 31.5101M48.2299 31.3101C48.2299 31.3101 50.1299 30.7501 51.6099 30.1601M48.1899 31.5001C48.1899 31.5001 50.6299 30.8801 51.5899 30.4001M48.9399 33.4701L49.0599 33.8801L49.4099 33.7601L49.2899 33.3701M49.9099 33.2101L50.0299 33.5901L50.3799 33.4801L50.2599 33.1001M48.2599 30.9001L48.2299 30.3801L51.4199 29.4201L51.5799 29.8701M49.5799 29.9701L49.7399 30.4501M50.6899 29.6501L50.8899 30.1001M50.9499 29.5601L51.1499 29.9701M51.1999 29.4701L51.3999 29.9201M51.3999 29.4201L51.7499 29.2201L51.8999 29.6101M51.5699 29.3201L51.7399 29.7301" stroke="black" stroke-width="0.15" stroke-miterlimit="10"/>
<path d="M43.69 35.39C43.69 35.39 43.07 34.75 43.69 34.14C43.69 34.14 43 33.81 43.11 33.26M44.81 35.88C44.81 35.88 44.15 35.97 44.35 34.71C44.35 34.71 44.08 35.21 43.99 35.46C43.95 35.58 43.95 35.72 43.99 35.84C44.04 35.96 44.1201 36.07 44.2301 36.13C44.3401 36.21 44.92 36.35 45.11 35.98M44.07 33.96C44.07 33.96 43.81 34.2 43.99 34.63M44.34 34.01C44.34 34.01 44.37 34.45 44.59 34.68M44.53 33.84C44.53 33.84 44.5301 34.34 44.8901 34.67M44.7001 33.67C44.7001 33.67 44.7 34.23 45.12 34.59M46.81 34.5C46.81 34.5 47.01 34.01 47.46 34.05C47.46 34.05 47.25 34.15 47.25 34.36C47.25 34.36 47.22 34.74 47.61 34.76C47.61 34.76 47.92 34.81 48.08 34.64" stroke="#00247D" stroke-width="0.15" stroke-miterlimit="10"/>
<path d="M47.89 36.6401C47.89 36.6401 46.78 36.1101 46.89 35.3801C46.89 35.3801 46.94 34.9301 47.39 34.7101M47.14 35.1801C47.14 35.1801 47.04 35.4901 47.26 35.7201M47.4 34.9701C47.4 34.9701 47.25 35.3201 47.49 35.5701M47.68 34.7801C47.68 34.7801 47.51 35.0801 47.71 35.3401M46.66 36.7201C46.66 36.7201 47.26 37.2601 47.73 37.2601M46.47 36.9001C46.47 36.9001 47.03 37.3501 47.39 37.4201M46.27 37.0201C46.27 37.0201 46.96 37.6301 47.39 37.6701M49.1 38.2501C49.1 38.2501 48.41 38.6301 48.95 39.0301M48.65 37.8601L49.77 37.2801M48.93 38.0501C48.93 38.0501 50.05 37.3601 50.39 37.2101M49.51 38.1101C49.51 38.1101 50.47 37.4601 51 37.1701M50.15 38.0601C50.15 38.0601 50.81 37.5601 51.46 37.1701M51.67 36.5301C51.67 36.5301 51.34 36.0401 50.27 36.5301C50.27 36.5301 50.68 36.1701 51.46 35.8801M52.52 33.8401C52.52 33.8401 52.62 34.2301 52.52 34.4601" stroke="#00247D" stroke-width="0.15" stroke-miterlimit="10"/>
<path d="M50.8099 35.71C50.8099 35.71 51.0299 35.38 51.5999 35.21C51.5999 35.21 51.7499 35.59 52.1999 35.52C52.1999 35.52 52.8499 35.38 52.6499 34.64C52.6499 34.64 52.5099 34.11 51.7499 34.05M54.0099 33.14C54.0099 33.14 54.7699 33.29 54.7599 33.9C54.7599 33.9 54.8399 34.85 53.8399 35.02M54.6599 33.52C54.6599 33.52 54.8599 33.06 55.3499 32.87M54.7799 32.59C54.7799 32.59 54.9899 32.94 55.1299 32.98M54.6799 32.86C54.6799 32.86 54.8699 33.12 54.9299 33.17M54.5999 33.11C54.6499 33.19 54.7199 33.25 54.7899 33.31M50.6299 29.46C50.6299 29.46 50.7799 29.21 51.1699 29.31M52.6799 31.28C52.6799 31.28 52.9299 30.31 53.7399 30.66M53.4099 30.59C53.4099 30.59 53.4899 30.14 53.2899 29.9M52.8399 30.55C52.8399 30.55 52.9499 30.74 52.8499 30.89" stroke="#00247D" stroke-width="0.15" stroke-miterlimit="10"/>
<path d="M54.53 40.6201C54.53 40.6201 55.45 40.2101 55.17 39.4801C55.17 39.4801 55.08 39.2301 54.87 39.2601C54.87 39.2601 54.52 39.2701 54.58 39.7601C54.58 39.7601 54.7 40.2301 54.52 40.6401H54.53V40.6201Z" fill="#64B4D1" stroke="#00247D" stroke-width="0.15" stroke-miterlimit="2.6"/>
<path d="M54.85 40.1999C54.85 40.1999 55.06 40.0099 55.04 39.6599C55.04 39.6599 55.02 39.5899 55.04 39.5699C55.04 39.5699 55.09 39.5599 55.09 39.6499C55.09 39.6499 55.15 40.0099 54.91 40.2099C54.91 40.2099 54.9 40.2499 54.86 40.2299C54.86 40.2299 54.83 40.2299 54.86 40.1899H54.85V40.1999Z" fill="white"/>
<path d="M55.8401 39.9699C55.8401 39.9699 56.4901 39.5699 56.1401 38.8799C56.1401 38.8799 56.0301 38.6899 55.8401 38.7299C55.8401 38.7299 55.4401 38.8499 55.7501 39.4199C55.7501 39.4199 55.9001 39.7799 55.8401 39.9799V39.9699Z" fill="#64B4D1" stroke="#00247D" stroke-width="0.15" stroke-miterlimit="2.6"/>
<path d="M56.0001 39.05C56.0001 39.05 55.9701 39.01 56.0001 38.97L56.0501 39.02C56.0501 39.02 56.2401 39.23 56.0901 39.57C56.0901 39.57 56.0801 39.62 56.0301 39.59V39.55C56.0301 39.55 56.1801 39.25 56.0001 39.05Z" fill="white"/>
<path d="M53.8801 40.45C53.8801 40.45 53.1601 40.28 53.2901 39.51C53.2901 39.51 53.3601 39.18 53.6801 39.23C53.6801 39.23 54.0601 39.33 53.8001 39.81C53.8001 39.81 53.6601 40.14 53.8901 40.45H53.8801Z" fill="#64B4D1" stroke="#00247D" stroke-width="0.15" stroke-miterlimit="2.6"/>
<path d="M53.6002 39.56V39.5C53.6002 39.5 53.6502 39.5 53.6602 39.53C53.6602 39.53 53.7302 39.65 53.6702 39.83C53.6702 39.83 53.6102 39.94 53.6502 40.05C53.6502 40.05 53.6502 40.09 53.6102 40.1L53.5902 40.05C53.5902 40.05 53.5502 39.95 53.6102 39.83C53.6102 39.83 53.6902 39.66 53.6102 39.57H53.6002V39.56Z" fill="white"/>
<path d="M54.3998 39.04C54.3998 39.04 54.8198 38.8 55.1498 39.08C55.1498 39.08 55.1198 38.9299 54.8498 38.8699C54.8498 38.8699 54.7298 38.4699 54.3198 38.5099C54.3198 38.5099 54.4698 38.71 54.6998 38.86C54.6998 38.86 54.4798 38.8899 54.3998 39.0499V39.04ZM54.6998 37.95C54.6998 37.95 54.9998 38.1599 55.0998 38.2999C55.0998 38.2999 55.2098 38.15 55.3498 38.08C55.3498 38.08 55.1998 38.0399 55.0998 38.1199C55.0998 38.1199 54.9598 37.9999 54.7198 37.9599H54.6898L54.6998 37.95Z" fill="black"/>
<path d="M53.0998 38.8301C53.0998 38.8301 53.0598 38.7301 53.1398 38.6301C53.1398 38.6301 53.1898 38.5501 53.1598 38.4401M56.0898 32.4401C56.0898 32.4401 56.5298 32.4101 56.5898 32.0601M57.3398 31.8301C57.3398 31.8301 57.1898 31.8301 57.0598 31.9801C57.0598 31.9801 56.9498 32.1301 56.8098 32.1001" stroke="black" stroke-width="0.15" stroke-miterlimit="10"/>
<path d="M55.45 31.15C55.45 31.15 55.6799 31.15 55.7899 31.05C55.7899 31.05 55.9299 30.96 55.9999 31.1C55.9999 31.1 56.1199 31.3 55.8999 31.39C55.8999 31.39 55.6199 31.54 56.0599 31.81C56.0599 31.81 55.5299 31.61 55.7599 31.36C55.7599 31.36 55.9899 31.21 55.8799 31.15C55.8799 31.15 55.8599 31.1 55.7699 31.15C55.6799 31.23 55.5099 31.2 55.4399 31.15H55.45Z" fill="black"/>
<path d="M55.75 25.6999C55.75 25.6999 55.85 25.5499 55.81 25.1499C55.76 24.7499 56.13 24.6899 56.26 24.7999C56.26 24.7999 56.41 24.9199 56.26 25.1899C56.16 25.4199 55.97 25.5999 55.75 25.6999Z" fill="#64B4D1" stroke="#00247D" stroke-width="0.15" stroke-miterlimit="2.6"/>
<path d="M55.8799 25.3799C55.8799 25.3799 56.0299 25.2399 55.9499 24.9299L55.9799 24.9099H56.0199C56.0199 24.9099 56.0999 25.2599 55.9499 25.4299C55.9499 25.4299 55.9199 25.4699 55.8899 25.4299V25.3799H55.8799Z" fill="white"/>
<path d="M55.6399 25.55C55.6399 25.55 55.6398 25.38 55.3498 25.1C55.0498 24.8 55.2898 24.55 55.4698 24.55C55.4698 24.55 55.6298 24.55 55.7198 24.84C55.7798 25.08 55.7498 25.33 55.6298 25.55H55.6399Z" fill="#64B4D1" stroke="#00247D" stroke-width="0.15" stroke-miterlimit="2.6"/>
<path d="M55.5998 25.17C55.5998 25.17 55.5998 24.97 55.3198 24.76V24.71H55.3698C55.3698 24.71 55.6598 24.94 55.6598 25.19C55.6598 25.19 55.6598 25.23 55.6198 25.23C55.6198 25.23 55.5898 25.23 55.5898 25.18L55.5998 25.17Z" fill="white"/>
<path d="M55.25 25.41C55.25 25.41 55.16 25.29 54.81 25.15C54.45 25.03 54.53 24.71 54.69 24.65C54.69 24.65 54.85 24.59 55.02 24.79C55.17 24.96 55.25 25.19 55.24 25.41H55.25Z" fill="#64B4D1" stroke="#00247D" stroke-width="0.15" stroke-miterlimit="2.6"/>
<path d="M55.0699 25.16C55.0699 25.16 54.9999 24.99 54.6699 24.9C54.6699 24.9 54.6499 24.9 54.6499 24.86C54.6499 24.86 54.6499 24.84 54.6899 24.85C54.6899 24.85 55.0499 24.93 55.1499 25.15V25.19C55.1499 25.19 55.0999 25.19 55.0899 25.17H55.0799L55.0699 25.16Z" fill="white"/>
<path d="M55.46 25.55C55.46 25.55 55.3 25.61 54.91 25.43C54.52 25.24 54.36 25.57 54.44 25.72C54.44 25.72 54.5 25.92 54.79 25.87C55.04 25.86 55.28 25.75 55.47 25.57L55.46 25.55Z" fill="#64B4D1" stroke="#00247D" stroke-width="0.15" stroke-miterlimit="2.6"/>
<path d="M54.5702 25.6699C54.5702 25.6699 54.7502 25.7899 55.0602 25.6699H55.1002C55.1002 25.6699 55.1002 25.6999 55.0702 25.7099C55.0702 25.7099 54.7502 25.8599 54.5202 25.7199C54.5202 25.7199 54.4902 25.7199 54.5202 25.6799H54.5702V25.6699Z" fill="white"/>
<path d="M54.9102 24.3401C54.9102 24.3401 55.0902 24.4401 55.0602 24.6501" stroke="black" stroke-width="0.15" stroke-miterlimit="2.6"/>
<path d="M55.75 24.3799C55.75 24.3799 55.82 24.6199 55.75 24.7599" stroke="black" stroke-width="0.15" stroke-miterlimit="10"/>
<path d="M42.5198 25.7001C42.5198 25.7001 42.4198 25.5501 42.4598 25.1501C42.5098 24.7201 42.1498 24.6901 42.0198 24.8001C42.0198 24.8001 41.8698 24.9201 41.9998 25.1901C42.1098 25.4201 42.2898 25.6001 42.5198 25.7001Z" fill="#64B4D1" stroke="#00247D" stroke-width="0.15" stroke-miterlimit="2.6"/>
<path d="M42.3899 25.3799C42.3899 25.3799 42.2699 25.2399 42.3099 24.9299V24.9099H42.2599C42.2599 24.9099 42.1999 25.2599 42.3499 25.4299C42.3499 25.4299 42.3799 25.4699 42.3899 25.4299V25.3799Z" fill="white"/>
<path d="M42.6502 25.55C42.6502 25.55 42.6502 25.38 42.9502 25.1C43.2402 24.8 43.0002 24.55 42.8302 24.55C42.8302 24.55 42.6302 24.55 42.5802 24.84C42.5202 25.08 42.5502 25.33 42.6602 25.55H42.6502Z" fill="#64B4D1" stroke="#00247D" stroke-width="0.15" stroke-miterlimit="2.6"/>
<path d="M42.6899 25.17C42.6899 25.17 42.6899 24.97 42.9399 24.76C42.9399 24.76 42.9799 24.72 42.9399 24.71H42.9099C42.9099 24.71 42.6099 24.94 42.6099 25.19C42.6099 25.19 42.6099 25.23 42.6599 25.23C42.6599 25.23 42.6899 25.23 42.6899 25.18V25.17Z" fill="white"/>
<path d="M43.04 25.41C43.04 25.41 43.12 25.29 43.48 25.15C43.83 25.03 43.73 24.71 43.59 24.65C43.59 24.65 43.44 24.59 43.27 24.79C43.12 24.96 43.04 25.19 43.04 25.41Z" fill="#64B4D1" stroke="#00247D" stroke-width="0.15" stroke-miterlimit="2.6"/>
<path d="M43.2001 25.16C43.2001 25.16 43.2701 24.99 43.6001 24.9C43.6001 24.9 43.6301 24.9 43.6301 24.86C43.6301 24.86 43.6301 24.84 43.6001 24.85C43.6001 24.85 43.2401 24.93 43.1401 25.15V25.19C43.1401 25.19 43.1901 25.19 43.2001 25.17V25.16Z" fill="white"/>
<path d="M42.8101 25.5499C42.8101 25.5499 42.98 25.6099 43.36 25.4299C43.74 25.2499 43.91 25.5699 43.86 25.7199C43.86 25.7199 43.7701 25.9199 43.4801 25.8699C43.2301 25.8599 42.9901 25.7499 42.8101 25.5699V25.5499Z" fill="#64B4D1" stroke="#00247D" stroke-width="0.15" stroke-miterlimit="2.6"/>
<path d="M43.7002 25.6699C43.7002 25.6699 43.5402 25.7899 43.2102 25.6699H43.1802V25.7099C43.1802 25.7099 43.5302 25.8599 43.7402 25.7199C43.7402 25.7199 43.7702 25.7199 43.7402 25.6799H43.6902L43.7002 25.6699Z" fill="white"/>
<path d="M43.3699 24.3401C43.3699 24.3401 43.1799 24.4401 43.2199 24.6501" stroke="black" stroke-width="0.15" stroke-miterlimit="2.6"/>
<path d="M42.5302 24.3799C42.5302 24.3799 42.4502 24.6199 42.5302 24.7599" stroke="black" stroke-width="0.15" stroke-miterlimit="10"/>
<path d="M50.8401 22.2C50.8401 22.2 50.9601 22.54 50.9201 22.85C50.8801 23.15 50.9401 23.21 51.0401 23.27C51.1301 23.31 51.3401 23.22 51.3501 23C51.3501 23 51.6001 23.48 51.1201 23.79C51.1201 23.79 50.7801 24 50.5001 23.74C50.4001 23.63 50.3501 23.36 50.4101 23.12C50.4101 23.12 50.4801 22.78 50.3501 22.43C50.3501 22.43 50.5501 22.63 50.5001 23.04C50.5001 23.04 50.4001 23.79 50.9501 23.74C50.9501 23.74 51.3301 23.74 51.3301 23.29C51.3301 23.29 51.1901 23.44 51.0301 23.39C50.9501 23.37 50.8901 23.33 50.8501 23.26C50.8101 23.19 50.7901 23.12 50.8101 23.04C50.8201 22.84 50.8901 22.5 50.8501 22.2H50.8401ZM50.2501 23.37C50.2501 23.37 50.2001 23.97 49.6701 24.11C49.6701 24.11 49.7501 24 49.6301 23.7C49.6301 23.7 49.5101 23.55 49.5101 23.29C49.5101 23.29 49.3601 23.41 49.5501 23.77C49.6701 23.98 49.5501 24.22 49.5401 24.23C49.4901 24.24 50.4001 24.11 50.2401 23.39H50.2501V23.37ZM49.5501 22.81C49.5501 22.81 49.4101 22.66 49.4001 22.33C49.4001 21.99 49.3401 21.91 49.2901 21.88C49.2901 21.88 49.3501 22.17 49.3401 22.33C49.3301 22.46 49.3401 22.59 49.3901 22.71C49.3901 22.71 49.0901 22.75 48.9001 22.33C48.7401 21.92 48.5601 21.95 48.4801 21.95C48.4801 21.95 48.5801 21.96 48.7801 22.33C48.9801 22.71 49.0401 22.79 49.5501 22.79V22.81ZM48.2001 21.93C48.2001 21.93 48.3501 22.33 48.3701 22.53C48.3701 22.53 47.9801 22.41 47.8701 22.09C47.8701 22.09 47.4701 22.21 47.6201 22.68C47.6201 22.68 47.2601 22.56 47.1001 22.28C47.1001 22.28 47.3001 22.43 47.4901 22.49C47.4901 22.49 47.4701 22.1 47.9401 21.97C47.9401 21.97 48.0201 22.31 48.2701 22.38L48.2101 21.93H48.2001ZM48.8201 21.26C48.8201 21.26 48.9701 21.45 49.2401 21.45C49.3201 21.45 49.3901 21.45 49.4601 21.41C49.5301 21.38 49.5901 21.33 49.6401 21.26C49.6401 21.26 49.6301 21.58 49.2401 21.6C49.2401 21.6 48.8301 21.6 48.8301 21.26H48.8201ZM47.1501 23.57L47.4001 23.81C47.4001 23.81 47.5501 23.96 47.6501 23.77C47.6501 23.77 47.8101 23.47 48.0101 23.5C48.0101 23.5 47.8601 23.59 47.7101 23.88C47.7101 23.88 47.6801 23.97 47.5601 23.98C47.5001 23.98 47.4401 24 47.3401 23.89C47.3401 23.89 47.2501 23.78 47.1501 23.59V23.57ZM49.2401 19.89C48.8401 19.89 49.1801 20.19 49.1801 20.19C49.1801 20.69 48.7901 20.86 48.5201 20.71C48.2501 20.56 48.4701 20.21 48.4701 20.21C48.4701 20.21 48.1701 20.4 48.3501 20.7C48.5501 21 49.0601 20.85 49.2501 20.59C49.4401 20.86 49.9601 21 50.1401 20.7C50.3501 20.4 50.0401 20.2 50.0401 20.2C50.0401 20.2 50.2601 20.56 49.9801 20.7C49.7201 20.86 49.3101 20.7 49.3301 20.2C49.3301 20.2 49.6701 19.89 49.2701 19.89H49.2601H49.2401ZM49.4901 19.34C49.4901 19.34 49.6401 19.59 49.6101 19.96C49.6101 19.96 49.7201 19.58 49.4901 19.35V19.34ZM48.2401 19.93C48.2401 19.93 48.2001 19.66 47.9401 19.63C47.9401 19.63 48.1801 19.79 48.2401 19.93ZM50.2401 19.93C50.2401 19.93 50.2801 19.66 50.5501 19.63C50.5501 19.63 50.3301 19.79 50.2501 19.93H50.2401ZM47.8401 20.33C47.8401 20.33 48.0401 20.39 48.1701 20.24L47.8401 20.33ZM47.1701 18.69C47.1701 18.69 47.4101 18.68 47.6401 19.03C47.6401 19.03 47.4001 19.15 47.3401 19.23C47.3401 19.23 47.3401 19.11 47.4601 19.02C47.4601 19.02 47.4101 18.85 47.1601 18.71L47.1701 18.69ZM51.1701 18.69C51.1701 18.69 50.9201 18.68 50.6801 19.03C50.6801 19.03 50.9301 19.15 50.9801 19.23C50.9801 19.23 50.9801 19.11 50.8601 19.02C50.8601 19.02 50.9101 18.85 51.1701 18.71V18.69ZM49.3301 18.96C49.3301 18.96 49.5401 19.02 49.8001 18.87C49.8001 18.87 50.1301 18.69 50.3401 18.87C50.3401 18.87 50.1701 18.78 49.8001 18.96C49.8001 18.96 49.4601 19.16 49.3301 18.96Z" fill="black"/>
<path d="M49.5498 19.2001C49.5498 19.2001 49.7198 18.8901 50.2998 18.9501C50.2998 18.9501 50.1398 19.4001 49.5498 19.2001Z" fill="white"/>
<path d="M49.9198 19.24C49.9798 19.24 50.0198 19.18 50.0198 19.1C50.0198 19.02 49.9798 18.96 49.9198 18.96C49.8598 18.96 49.8198 19.02 49.8198 19.1C49.8198 19.18 49.8598 19.24 49.9198 19.24Z" fill="#784421"/>
<path d="M49.9199 19.19C49.9199 19.19 49.9799 19.15 49.9799 19.1C49.9799 19.05 49.9499 19.01 49.9199 19.01C49.8899 19.01 49.8599 19.05 49.8599 19.1C49.8599 19.15 49.8899 19.19 49.9199 19.19Z" fill="black"/>
<path d="M48.35 18.5099C48.35 18.5099 48.7 18.5499 48.92 18.6599C48.92 18.6599 49.15 18.8099 49.4 18.6199C49.4 18.6199 49.67 18.4399 49.86 18.2299C49.86 18.2299 49.42 18.5199 49.26 18.5699C49.26 18.5699 49.11 18.4499 49.07 18.2799C49.07 18.2799 49.07 18.1599 49.32 17.9399C49.32 17.9399 49.01 18.0399 48.94 18.2999C48.98 18.4099 49.04 18.4999 49.11 18.5899C49.11 18.5899 49.06 18.6299 48.91 18.5099C48.91 18.5099 48.56 18.4099 48.34 18.5099H48.35ZM49.25 20.6299C48.95 20.8899 49.25 20.8699 49.25 20.8699C49.25 20.8699 49.55 20.8899 49.25 20.6199V20.6299ZM49.08 18.9799C49.08 18.9799 48.86 19.0399 48.58 18.8899C48.58 18.8899 48.25 18.7199 48.04 18.8899C48.04 18.8899 48.23 18.7999 48.58 18.9799C48.58 18.9799 48.94 19.1799 49.08 18.9799Z" fill="black"/>
<path d="M48.8501 19.2001C48.8501 19.2001 48.6601 18.8901 48.1001 18.9501C48.1001 18.9501 48.2501 19.4001 48.8501 19.2001Z" fill="white"/>
<path d="M48.4599 19.24C48.5199 19.24 48.5599 19.18 48.5599 19.1C48.5599 19.02 48.5199 18.96 48.4599 18.96C48.3999 18.96 48.3599 19.02 48.3599 19.1C48.3599 19.18 48.3999 19.24 48.4599 19.24Z" fill="#784421"/>
<path d="M48.4599 19.19C48.4599 19.19 48.5199 19.15 48.5199 19.1C48.5199 19.05 48.4899 19.01 48.4599 19.01C48.4299 19.01 48.3999 19.05 48.3999 19.1C48.3999 19.15 48.4299 19.19 48.4599 19.19Z" fill="black"/>
<path d="M59.9999 16.3301V36.5301C59.9999 41.9201 49.2199 43.6801 49.2199 43.6801C49.2199 43.6801 38.4199 41.9301 38.4199 36.5301V16.3301H60.0099H59.9999Z" stroke="black" stroke-width="0.15"/>
<path d="M-10 0H30V30H-10V0Z" fill="#000066"/>
<path d="M-5.31024 0L9.93976 11.31L25.1298 0H30.0098V3.88L15.0098 15.07L30.0098 26.19V30H25.0098L10.0098 18.81L-4.93024 30H-9.99023V26.25L4.94977 15.13L-9.99023 4.01V0H-5.30023H-5.31024Z" fill="white"/>
<path d="M16.5 17.56L30 27.5V30L13.06 17.56H16.5ZM5 18.81L5.38 21L-6.62 30H-10L5 18.81ZM30 0V0.19L14.44 11.94L14.56 9.19L26.87 0H29.99H30ZM-10 0L4.94 11H1.19L-10 2.62V0Z" fill="#C8102E"/>
<path d="M5.06 0V30H15.06V0H5.06ZM-10 10V20H30V10H-10Z" fill="white"/>
<path d="M-10 12.06V18.06H30V12.06H-10ZM7.06 0V30H13.06V0H7.06Z" fill="#C8102E"/>
</g>
</g>
</svg>
