<svg width="60" height="60" viewBox="0 0 60 60" fill="none" xmlns="http://www.w3.org/2000/svg">
<g clip-path="url(#clip0_14015_15053)">
<mask id="mask0_14015_15053" style="mask-type:alpha" maskUnits="userSpaceOnUse" x="0" y="0" width="60" height="60">
<circle cx="30" cy="30" r="30" fill="#012169"/>
</mask>
<g mask="url(#mask0_14015_15053)">
<g clip-path="url(#clip1_14015_15053)">
<g clip-path="url(#clip2_14015_15053)">
<g clip-path="url(#clip3_14015_15053)">
<g clip-path="url(#clip4_14015_15053)">
<g clip-path="url(#clip5_14015_15053)">
<g clip-path="url(#clip6_14015_15053)">
<path d="M-10 0H70V60H-10V0Z" fill="#032EA1"/>
<path d="M-10 15H70V45H-10V15Z" fill="#E00025"/>
<path d="M21.5498 28.2749H38.6198V34.8449H21.5498V28.2749Z" fill="white" stroke="black" stroke-width="0.15" stroke-linejoin="bevel"/>
<path d="M37.7498 31.89H38.2748V34.365H37.7498V31.89ZM21.5498 30.675H38.6198V31.425H21.5498V30.675ZM21.5498 29.625H38.6198V30.315H21.5498V29.625Z" fill="white" stroke="black" stroke-width="0.15" stroke-linejoin="bevel"/>
<path d="M21.5498 28.605H38.6198V29.25H21.5498V28.605Z" fill="white" stroke="black" stroke-width="0.135" stroke-linejoin="bevel"/>
<path d="M26.0502 31.8899H26.5902V34.3649H26.0502V31.8899ZM33.4002 31.8899H33.9402V34.3649H33.4002V31.8899ZM21.7002 31.8899H22.2252V34.3649H21.7002V31.8899ZM22.7502 31.8899H23.2752V34.3649H22.7502V31.8899ZM23.8752 31.8899H24.4002V34.3649H23.8752V31.8899ZM25.0002 31.8899H25.5252V34.3649H25.0002V31.8899ZM34.4202 31.8899H34.9602V34.3649H34.4202V31.8899ZM35.5452 31.8899H36.0852V34.3649H35.5452V31.8899ZM36.6702 31.8899H37.2102V34.3649H36.6702V31.8899Z" fill="white" stroke="black" stroke-width="0.15" stroke-linejoin="bevel"/>
<path d="M14.875 35.1749C15.1886 35.0041 15.4249 34.7196 15.535 34.3799H44.5C44.6101 34.7196 44.8464 35.0041 45.16 35.1749H14.875Z" fill="white" stroke="black" stroke-width="0.15"/>
<path d="M29.6497 18.2699C29.6497 18.2699 29.6347 17.6549 29.9947 17.6399C30.3397 17.6399 30.3247 18.2699 30.3247 18.2699H29.6497ZM27.7747 26.4449V25.6199C27.7747 25.1999 27.3547 25.1699 27.3547 24.8699C27.3547 24.8699 27.2947 24.4199 27.4147 24.2099C27.5797 24.8099 27.8647 24.7049 27.8647 24.4499C27.8647 24.2399 27.7147 24.0299 27.3697 23.5049C27.2497 23.3399 27.3247 22.8149 27.4747 22.6199C27.5347 23.0699 27.6097 23.2949 27.8047 23.2949C27.9247 23.2949 28.0147 23.2199 28.0147 22.9949C28.0147 22.6949 27.8197 22.5449 27.7147 22.2749C27.663 22.1405 27.6511 21.9941 27.6803 21.8531C27.7096 21.7122 27.7788 21.5826 27.8797 21.4799C27.9547 21.9299 27.9397 22.1099 28.1347 22.1099C28.5397 21.9749 28.1347 21.3899 28.0447 21.2399C27.9547 21.0749 28.1947 20.7299 28.1947 20.7299C28.3147 21.1349 28.3447 21.1649 28.4947 21.1199C28.6747 21.0749 28.6447 20.8199 28.4347 20.6099C28.2997 20.4599 28.3147 20.2649 28.4647 20.1149C28.6147 20.3999 28.7947 20.3849 28.8097 20.2049L28.6897 19.5449H31.2997L31.1647 20.1899C31.1347 20.3699 31.3747 20.4149 31.5247 20.1149C31.6747 20.2649 31.6897 20.4749 31.5547 20.6099C31.3447 20.8199 31.3147 21.0749 31.4947 21.1199C31.6447 21.1649 31.6747 21.1199 31.7947 20.7299C31.7947 20.7299 32.0197 20.9549 31.9447 21.2399C31.8547 21.3899 31.4497 21.9899 31.8547 22.1099C32.0497 22.1099 32.0347 21.9299 32.1097 21.4799C32.2081 21.5842 32.2745 21.7145 32.3011 21.8554C32.3277 21.9963 32.3133 22.1419 32.2597 22.2749C32.1697 22.5449 31.9597 22.6949 31.9597 22.9949C31.9597 23.2199 32.0647 23.2949 32.1847 23.2949C32.3797 23.2949 32.4547 23.0849 32.5147 22.6199C32.6647 22.8149 32.7397 23.3399 32.6197 23.5199C32.2747 24.0299 32.1097 24.2399 32.1097 24.4499C32.1097 24.7049 32.4097 24.8099 32.5597 24.2099C32.6947 24.4199 32.6347 24.8699 32.6347 24.8699C32.6347 25.1699 32.2297 25.1999 32.2147 25.6199V26.4449H27.7747ZM28.8547 19.5449L28.7947 19.0799H31.1797L31.1197 19.5449H28.8547ZM29.0047 19.0649L28.9747 18.6899H30.9997L30.9547 19.0649H29.0047ZM29.3497 18.6749L29.3047 18.2849H30.6547L30.6397 18.6749H29.3497ZM34.2997 35.1749C33.9997 35.0699 33.5497 34.7399 33.5497 34.4249V30.7799L33.9397 30.2699H26.0497L26.4247 30.7799V34.4249C26.4247 34.7399 26.1247 35.0699 25.8247 35.1749H34.2997Z" fill="white" stroke="black" stroke-width="0.15"/>
<path d="M27.4297 31.8899H27.9697V34.3649H27.4297V31.8899ZM31.9897 31.8899H32.5297V34.3649H31.9897V31.8899Z" fill="white" stroke="black" stroke-width="0.15" stroke-linejoin="bevel"/>
<path d="M25.8998 26.1299V30.2699H33.9998V26.1299C33.9062 26.1641 33.822 26.22 33.7542 26.293C33.6864 26.366 33.6369 26.454 33.6098 26.5499V28.3199H26.3048V26.5499C26.3048 26.5499 26.2148 26.2499 25.8848 26.1299H25.8998Z" fill="white" stroke="black" stroke-width="0.15"/>
<path d="M32.8898 35.175C32.6198 35.07 32.0498 34.74 32.0498 34.425V30.345C32.1098 30.12 32.4098 29.985 32.6048 29.835H27.2498C27.5048 29.985 27.7898 30.09 27.8948 30.345V34.425C27.8948 34.74 27.4448 35.07 27.1748 35.175H32.8898Z" fill="white" stroke="black" stroke-width="0.15"/>
<path d="M33.6097 29.8798V26.9398H32.8747V26.6548H27.0547V26.9548H26.3047V29.8798H33.6097ZM31.7497 35.1748C31.4797 35.0698 31.1047 34.7398 31.1047 34.4248V30.9448L31.3147 30.6298H28.6597L28.8847 30.9298V34.4248C28.8847 34.7398 28.4947 35.0698 28.2397 35.1748H31.7497Z" fill="white" stroke="black" stroke-width="0.15"/>
<path d="M29.3047 30.6299H30.6547V35.1749H29.3047V30.6299Z" fill="white" stroke="black" stroke-width="0.15"/>
<path d="M31.3598 29.6249C31.3598 29.3249 32.2298 29.3099 32.6798 29.0549H27.2798C27.7298 29.3099 28.5848 29.3249 28.5848 29.6249L28.7648 30.2099L31.0148 30.2999L31.3598 29.6249Z" fill="white" stroke="black" stroke-width="0.15" stroke-linejoin="bevel"/>
<path d="M32.4099 26.4448C32.4099 25.7098 32.4399 25.4398 32.6649 25.4398V27.7498C32.1099 27.9598 31.7199 28.6498 31.7199 28.6498H28.2399C28.2399 28.6498 27.8499 27.9598 27.2949 27.7498V25.4248C27.5649 25.4248 27.5649 25.7248 27.5649 26.4298L32.4099 26.4448ZM32.6649 26.1448C32.6649 25.3048 33.3999 25.2148 33.3999 25.2148V25.9648C33.1149 25.9498 32.9799 26.2048 32.9799 26.5648C32.9799 26.9398 33.2049 26.9398 33.2049 26.9398V29.0698H32.6649V26.1448Z" fill="white" stroke="black" stroke-width="0.15"/>
<path d="M27.2951 26.1448C27.2951 25.3048 26.5601 25.2148 26.5601 25.2148V25.9648C26.8451 25.9498 26.9801 26.2048 26.9801 26.5648C26.9801 26.9398 26.7551 26.9398 26.7551 26.9398V29.0698H27.2951V26.1448Z" fill="white" stroke="black" stroke-width="0.15"/>
<path d="M28.7197 20.3398H31.2997M28.4197 21.1498H31.5697M28.1197 22.1248H31.8547M27.8047 23.3099H32.2297M27.6997 24.6599H32.2597" stroke="black" stroke-width="0.12"/>
<path d="M26.3198 29.0999H33.6098M28.6298 29.0999H31.3298V30.0898H28.6298V29.0999Z" stroke="black" stroke-width="0.15"/>
<path d="M28.2998 26.8799C28.7498 27.4199 28.6898 28.3349 28.6898 28.8749H31.2998C31.2998 28.3349 31.2398 27.4199 31.6898 26.8799H28.2998ZM29.7548 20.7299L29.3948 20.5349V20.0099C29.5448 20.0549 29.6948 20.0699 29.7248 20.3099C29.7698 19.9649 29.8748 19.9949 30.0098 19.8599C30.1598 19.9949 30.2348 19.9649 30.2948 20.3099C30.2948 20.0699 30.4748 20.0549 30.6098 20.0099V20.5349L30.2648 20.7149L29.7548 20.7299Z" fill="white" stroke="black" stroke-width="0.15"/>
<path d="M29.725 21.585L29.125 21.1649V20.7C29.35 20.745 29.575 20.775 29.605 21.03C29.665 20.655 29.8 20.475 30.01 20.325C30.205 20.475 30.34 20.655 30.415 21.03C30.43 20.775 30.67 20.745 30.865 20.7V21.18L30.28 21.585H29.725Z" fill="white" stroke="black" stroke-width="0.15"/>
<path d="M29.6797 22.9198L29.0047 22.3198V21.6148C29.2447 21.6748 29.5147 21.7048 29.5447 22.0798C29.6197 21.5548 29.7697 21.2698 29.9947 21.0598C30.2347 21.2698 30.3847 21.5548 30.4747 22.0798C30.5047 21.7048 30.7747 21.6748 31.0147 21.6148V22.3198L30.3247 22.9198H29.6797ZM30.9397 23.7148L30.3397 24.5698H29.6347L29.0197 23.7148H30.9397ZM28.6597 25.1398C28.9597 25.3048 29.0797 25.6498 29.1097 26.2798H30.8497C30.8797 25.6498 30.9997 25.3048 31.2997 25.1398H28.6597Z" fill="white" stroke="black" stroke-width="0.15"/>
<path d="M31.3299 23.6998V22.8598C31.2007 22.8874 31.0807 22.9472 30.981 23.0338C30.8813 23.1204 30.8052 23.2308 30.7599 23.3548C30.7599 23.0548 30.3849 22.4098 29.9799 22.0798C29.5749 22.4398 29.1849 23.0398 29.1999 23.3398C29.1249 23.1148 28.9299 22.9348 28.6299 22.8598V23.7148L31.3299 23.6998Z" fill="white" stroke="black" stroke-width="0.15" stroke-linejoin="bevel"/>
<path d="M31.4498 25.1398V24.2998C31.1348 24.3898 30.9248 24.5548 30.8348 24.7948C30.8348 24.4948 30.4298 23.8498 29.9798 23.5198C29.5298 23.8948 29.1098 24.4798 29.1248 24.7948C29.0498 24.5698 28.8248 24.3898 28.5098 24.2998V25.1548L31.4498 25.1398Z" fill="white" stroke="black" stroke-width="0.15" stroke-linejoin="bevel"/>
<path d="M31.8098 26.8949V25.9049C31.4974 26.0024 31.2276 26.2035 31.0448 26.4749C31.0448 25.9499 30.4448 25.1249 29.9798 24.8699C29.4998 25.1399 28.9148 25.9799 28.9148 26.4749C28.7273 26.2016 28.4521 26.0005 28.1348 25.9049V26.8949H31.8098Z" fill="white" stroke="black" stroke-width="0.15" stroke-linejoin="bevel"/>
<path d="M31.5999 29.0999V28.0799C31.2399 28.2149 31.1499 28.5449 31.0299 28.7849C31.0749 27.7499 30.4599 26.6549 29.9799 26.3699C29.4999 26.6549 28.8699 27.7799 28.9299 28.7699C28.8099 28.5599 28.7049 28.2149 28.3599 28.0799V29.0849L31.5999 29.0999Z" fill="white" stroke="black" stroke-width="0.15" stroke-linejoin="bevel"/>
<path d="M31.3601 30.63V29.61C30.9851 29.7 30.9701 29.835 30.8501 30.06C30.8951 29.445 30.4601 28.74 29.9801 28.47C29.5001 28.74 29.0801 29.445 29.1101 30.06C28.9901 29.835 28.9751 29.7 28.6001 29.61V30.63H31.3601Z" fill="white" stroke="black" stroke-width="0.15"/>
<path d="M15.5499 34.3801V31.3201C15.4449 30.9301 15.0999 30.5701 14.8599 30.5101V27.8101L15.4149 28.1101L16.0599 30.9451V34.3951L15.5499 34.3801Z" fill="white" stroke="black" stroke-width="0.15"/>
<path d="M15.5499 34.3949V31.3199C15.4449 30.9299 15.0999 30.5699 14.8599 30.5099V27.6299C15.2349 27.6299 15.4149 28.1099 15.4149 28.1099L16.0599 30.9449V34.3799L15.5499 34.3949Z" fill="white" stroke="black" stroke-width="0.15"/>
<path d="M15.145 35.1749C15.4 35.0699 15.775 34.7399 15.775 34.4249V30.5849L15.595 30.2849H22.15L21.895 30.5849V34.4249C21.906 34.5839 21.959 34.7371 22.0486 34.8688C22.1382 35.0006 22.2612 35.1062 22.405 35.1749H15.145Z" fill="white" stroke="black" stroke-width="0.15"/>
<path d="M21.0697 35.175C20.8147 35.07 20.4397 34.74 20.4397 34.425V30.78L20.9797 30.27H16.5397L17.0797 30.78V34.425C17.0797 34.74 16.7047 35.07 16.4497 35.175H21.0697Z" fill="white" stroke="black" stroke-width="0.15"/>
<path d="M20.4549 35.1749C20.1999 35.0699 19.8099 34.7399 19.8099 34.4249V31.1249L20.1699 30.6299H17.3499L17.7099 31.1249V34.4249C17.7099 34.7399 17.3349 35.0699 17.0649 35.1749H20.4549Z" fill="white" stroke="black" stroke-width="0.15"/>
<path d="M18.1 30.6299H19.435V35.1899H18.085L18.1 30.6299Z" fill="white" stroke="black" stroke-width="0.15"/>
<path d="M16.255 31.89H16.795V34.365H16.255V31.89ZM20.875 31.89H21.4V34.365H20.86L20.875 31.89ZM15.79 27.72H16.45V30.27H15.79V27.72ZM15.79 27.24H16.435V27.72H15.79V27.24ZM21.13 28.275H22.045V30.225H21.13V28.275Z" fill="white"/>
<path d="M15.79 27.72H16.45V30.27H15.79V27.72ZM15.79 27.72H16.435V27.24H15.79V27.72ZM16.255 31.89H16.795V34.365H16.255V31.89ZM20.875 31.89H21.4V34.365H20.86L20.875 31.89ZM21.13 28.275H22.045V30.225H21.13V28.275Z" stroke="black" stroke-width="0.15" stroke-linejoin="bevel"/>
<path d="M16.4349 30.24V25.89C16.6149 25.89 16.6449 26.535 17.0649 26.535C17.2899 26.535 17.2749 26.265 17.1399 26.055C17.0349 25.86 16.8999 25.605 17.0799 25.11C17.2149 25.485 17.5449 25.605 17.4849 25.38C17.3799 24.975 17.0649 24.9 17.3049 24.285C17.3799 24.795 17.7099 24.78 17.6349 24.48C17.5449 24.135 17.3499 23.985 17.5899 23.505C17.7249 24.06 17.8899 24.03 17.8899 23.685C17.8899 23.175 17.8899 22.635 18.5199 22.44C18.5199 22.44 18.5649 21.99 18.8049 21.99C19.0299 21.99 19.0749 22.44 19.0749 22.44C19.7199 22.635 19.7049 23.19 19.7049 23.685C19.7049 24.03 19.8699 24.06 20.0049 23.505C20.2449 23.985 20.0499 24.135 19.9599 24.48C19.8849 24.78 20.2149 24.795 20.2899 24.285C20.5299 24.9 20.2149 24.975 20.1099 25.38C20.0499 25.605 20.3799 25.485 20.5149 25.11C20.6949 25.605 20.5599 25.86 20.4549 26.055C20.3349 26.265 20.3049 26.535 20.5299 26.535C20.9499 26.535 20.9799 25.905 21.1599 25.905V30.24H16.4349ZM15.3999 26.955V30.27H15.7749V26.955C15.6399 26.88 15.5199 26.88 15.3999 26.955Z" fill="white" stroke="black" stroke-width="0.15"/>
<path d="M15.4297 29.0999C15.8947 29.3399 16.3597 29.6249 16.4797 30.2699H15.4297V29.0999ZM21.9097 28.1099V30.2699H22.2097V28.1099C22.1197 28.0649 21.9847 28.0499 21.9097 28.1099Z" fill="white" stroke="black" stroke-width="0.15"/>
<path d="M22.2098 29.1C21.7448 29.325 21.2798 29.595 21.1598 30.255H22.2098V29.1ZM19.1198 24.045L19.3898 23.82V23.52C19.2998 23.52 19.2398 23.565 19.1648 23.67C19.1357 23.5736 19.0875 23.4842 19.0231 23.4068C18.9586 23.3295 18.8793 23.266 18.7898 23.22C18.699 23.2627 18.6177 23.3232 18.5507 23.3979C18.4837 23.4727 18.4324 23.5601 18.3998 23.655C18.3248 23.55 18.2798 23.535 18.1748 23.505V23.805L18.4448 24.045H19.1198Z" fill="white" stroke="black" stroke-width="0.15"/>
<path d="M19.2698 24.7801L19.3898 24.4951V24.1201C19.2998 24.1201 19.2398 24.1651 19.1648 24.2701C19.1357 24.1737 19.0875 24.0843 19.0231 24.0069C18.9586 23.9296 18.8793 23.8661 18.7898 23.8201C18.699 23.8628 18.6177 23.9233 18.5507 23.998C18.4837 24.0728 18.4324 24.1602 18.3998 24.2551C18.3248 24.1501 18.2798 24.1351 18.1748 24.1201V24.4951L18.2948 24.7801H19.2698Z" fill="white" stroke="black" stroke-width="0.15"/>
<path d="M19.3 25.7701L19.69 25.2751V24.7951C19.54 24.7951 19.465 24.8701 19.36 25.0351C19.255 24.6901 19.06 24.6301 18.79 24.4651C18.505 24.6151 18.31 24.6901 18.22 25.0201C18.1 24.8551 18.025 24.8101 17.875 24.7951V25.2751L18.28 25.7701H19.3Z" fill="white" stroke="black" stroke-width="0.15"/>
<path d="M19.405 26.745C19.405 26.745 19.885 26.34 19.9 26.115V25.59C19.72 25.605 19.555 25.65 19.42 25.875C19.3 25.44 19.12 25.32 18.79 25.125C18.445 25.32 18.265 25.44 18.16 25.875C18.01 25.65 17.86 25.605 17.665 25.575V26.115C17.791 26.3529 17.9587 26.5663 18.16 26.745H19.405Z" fill="white" stroke="black" stroke-width="0.15"/>
<path d="M19.5997 28.5449C19.5997 28.5449 20.2597 27.8399 20.2747 27.5549V26.7449C20.0347 26.7749 19.7947 26.9399 19.6147 27.2849C19.4647 26.6099 19.2247 26.1449 18.7897 25.8149C18.3397 26.1449 18.0997 26.6099 17.9497 27.2849C17.7697 26.9399 17.5447 26.7749 17.3047 26.7449V27.5549C17.3497 27.8399 17.9647 28.5449 17.9647 28.5449H19.5997Z" fill="white" stroke="black" stroke-width="0.15"/>
<path d="M19.5997 29.6099C19.5997 29.6099 20.1547 29.0549 20.2747 28.8149V28.0049C20.0347 28.0349 19.7947 28.1999 19.6147 28.5299C19.5746 28.257 19.481 27.9946 19.3395 27.7578C19.1979 27.521 19.0111 27.3145 18.7897 27.1499C18.3397 27.4799 18.0997 27.8549 17.9497 28.5299C17.7697 28.1999 17.5447 28.0349 17.3047 28.0049V28.8149C17.4547 29.0549 17.9647 29.6099 17.9647 29.6099H19.5997Z" fill="white" stroke="black" stroke-width="0.15"/>
<path d="M19.8247 30.2401C19.6747 29.5351 19.5247 29.0101 18.7597 28.4851C17.9797 29.0101 17.8447 29.5351 17.6797 30.2401H19.8247Z" fill="white" stroke="black" stroke-width="0.15"/>
<path d="M20.2297 30.6299V29.6099C19.8697 29.7599 19.5547 29.9549 19.4347 30.1799C19.3147 29.6099 19.0597 29.3699 18.7447 29.0249C18.4297 29.3699 18.2197 29.6249 18.0847 30.1799C17.9647 29.9549 17.6497 29.7449 17.3047 29.6099V30.6299H20.2297Z" fill="white" stroke="black" stroke-width="0.15"/>
<path d="M44.455 34.3801V31.3201C44.56 30.9301 44.905 30.5701 45.145 30.5101V27.8101L44.59 28.1101L43.945 30.9451V34.3951L44.455 34.3801Z" fill="white" stroke="black" stroke-width="0.15"/>
<path d="M44.455 34.3949V31.3199C44.56 30.9299 44.905 30.5699 45.145 30.5099V27.6299C44.77 27.6299 44.59 28.1099 44.59 28.1099L43.945 30.9449V34.3799L44.455 34.3949Z" fill="white" stroke="black" stroke-width="0.15"/>
<path d="M44.8599 35.1749C44.6049 35.0699 44.2299 34.7399 44.2299 34.4249V30.5849L44.4099 30.2849H37.8549L38.1099 30.5849V34.4249C38.0989 34.5839 38.0458 34.7371 37.9562 34.8688C37.8666 35.0006 37.7437 35.1062 37.5999 35.1749H44.8599Z" fill="white" stroke="black" stroke-width="0.15"/>
<path d="M38.9352 35.175C39.1902 35.07 39.5652 34.74 39.5652 34.425V30.78L39.0252 30.27H43.4652L42.9252 30.78V34.425C42.9252 34.74 43.3002 35.07 43.5552 35.175H38.9352Z" fill="white" stroke="black" stroke-width="0.15"/>
<path d="M39.5499 35.1749C39.8049 35.0699 40.1949 34.7399 40.1949 34.4249V31.1249L39.8349 30.6299H42.6549L42.2949 31.1249V34.4249C42.2949 34.7399 42.6699 35.0699 42.9399 35.1749H39.5499Z" fill="white" stroke="black" stroke-width="0.15"/>
<path d="M41.9049 30.6299H40.5699V35.1899H41.9199L41.9049 30.6299Z" fill="white" stroke="black" stroke-width="0.15"/>
<path d="M43.7498 31.89H43.2098V34.365H43.7498V31.89ZM39.1298 31.89H38.6048V34.365H39.1448L39.1298 31.89ZM44.2148 27.72H43.5548V30.27H44.2148V27.72ZM44.2148 27.24H43.5698V27.72H44.2148V27.24ZM38.8748 28.275H37.9598V30.225H38.8748V28.275Z" fill="white"/>
<path d="M44.2148 27.72H43.5548V30.27H44.2148V27.72ZM44.2148 27.72H43.5698V27.24H44.2148V27.72ZM43.7498 31.89H43.2098V34.365H43.7498V31.89ZM39.1298 31.89H38.6048V34.365H39.1448L39.1298 31.89ZM38.8748 28.275H37.9598V30.225H38.8748V28.275Z" stroke="black" stroke-width="0.15" stroke-linejoin="bevel"/>
<path d="M43.57 30.24V25.89C43.39 25.89 43.36 26.535 42.94 26.535C42.715 26.535 42.73 26.265 42.865 26.055C42.97 25.86 43.105 25.605 42.925 25.11C42.79 25.485 42.46 25.605 42.52 25.38C42.625 24.975 42.94 24.9 42.7 24.285C42.625 24.795 42.295 24.78 42.37 24.48C42.46 24.135 42.655 23.985 42.415 23.505C42.28 24.06 42.115 24.03 42.115 23.685C42.115 23.175 42.115 22.635 41.485 22.44C41.485 22.44 41.44 21.99 41.2 21.99C40.975 21.99 40.93 22.44 40.93 22.44C40.285 22.635 40.3 23.19 40.3 23.685C40.3 24.03 40.135 24.06 40 23.505C39.76 23.985 39.955 24.135 40.045 24.48C40.12 24.78 39.79 24.795 39.715 24.285C39.475 24.9 39.79 24.975 39.895 25.38C39.955 25.605 39.625 25.485 39.49 25.11C39.31 25.605 39.445 25.86 39.55 26.055C39.67 26.265 39.7 26.535 39.475 26.535C39.055 26.535 39.025 25.905 38.845 25.905V30.24H43.57ZM44.605 26.955V30.27H44.23V26.955C44.365 26.88 44.485 26.88 44.605 26.955Z" fill="white" stroke="black" stroke-width="0.15"/>
<path d="M44.5752 29.0999C44.1102 29.3399 43.6452 29.6249 43.5252 30.2699H44.5752V29.0999ZM38.0952 28.1099V30.2699H37.7952V28.1099C37.8852 28.0649 38.0202 28.0499 38.0952 28.1099Z" fill="white" stroke="black" stroke-width="0.15"/>
<path d="M37.7951 29.1C38.2601 29.325 38.7251 29.595 38.8451 30.255H37.7951V29.1ZM40.8851 24.045L40.6151 23.82V23.52C40.7051 23.52 40.7651 23.565 40.8401 23.67C40.8692 23.5736 40.9174 23.4842 40.9818 23.4068C41.0463 23.3295 41.1256 23.266 41.2151 23.22C41.3059 23.2627 41.3872 23.3232 41.4542 23.3979C41.5212 23.4727 41.5725 23.5601 41.6051 23.655C41.6801 23.55 41.7251 23.535 41.8301 23.505V23.805L41.5601 24.045H40.8851Z" fill="white" stroke="black" stroke-width="0.15"/>
<path d="M40.7351 24.7801L40.6151 24.4951V24.1201C40.7051 24.1201 40.7651 24.1651 40.8401 24.2701C40.8692 24.1737 40.9174 24.0843 40.9818 24.0069C41.0463 23.9296 41.1256 23.8661 41.2151 23.8201C41.3059 23.8628 41.3872 23.9233 41.4542 23.998C41.5212 24.0728 41.5725 24.1602 41.6051 24.2551C41.6801 24.1501 41.7251 24.1351 41.8301 24.1201V24.4951L41.7101 24.7801H40.7351Z" fill="white" stroke="black" stroke-width="0.15"/>
<path d="M40.7049 25.7701L40.3149 25.2751V24.7951C40.4649 24.7951 40.5399 24.8701 40.6449 25.0351C40.7499 24.6901 40.9449 24.6301 41.2149 24.4651C41.4999 24.6151 41.6949 24.6901 41.7849 25.0201C41.9049 24.8551 41.9799 24.8101 42.1299 24.7951V25.2751L41.7249 25.7701H40.7049Z" fill="white" stroke="black" stroke-width="0.15"/>
<path d="M40.5998 26.745C40.5998 26.745 40.1198 26.34 40.1048 26.115V25.59C40.2848 25.605 40.4498 25.65 40.5848 25.875C40.7048 25.44 40.8848 25.32 41.2148 25.125C41.5598 25.32 41.7398 25.44 41.8448 25.875C41.9948 25.65 42.1448 25.605 42.3398 25.575V26.115C42.2139 26.3529 42.0462 26.5663 41.8448 26.745H40.5998Z" fill="white" stroke="black" stroke-width="0.15"/>
<path d="M40.4052 28.5449C40.4052 28.5449 39.7452 27.8399 39.7302 27.5549V26.7449C39.9702 26.7749 40.2102 26.9399 40.3902 27.2849C40.5402 26.6099 40.7802 26.1449 41.2152 25.8149C41.6652 26.1449 41.9052 26.6099 42.0552 27.2849C42.2352 26.9399 42.4602 26.7749 42.7002 26.7449V27.5549C42.6552 27.8399 42.0402 28.5449 42.0402 28.5449H40.4052Z" fill="white" stroke="black" stroke-width="0.15"/>
<path d="M40.4052 29.6099C40.4052 29.6099 39.8502 29.0549 39.7302 28.8149V28.0049C39.9702 28.0349 40.2102 28.1999 40.3902 28.5299C40.4303 28.257 40.5238 27.9946 40.6654 27.7578C40.807 27.521 40.9938 27.3145 41.2152 27.1499C41.6652 27.4799 41.9052 27.8549 42.0552 28.5299C42.2352 28.1999 42.4602 28.0349 42.7002 28.0049V28.8149C42.5502 29.0549 42.0402 29.6099 42.0402 29.6099H40.4052Z" fill="white" stroke="black" stroke-width="0.15"/>
<path d="M40.1802 30.2401C40.3302 29.5351 40.4802 29.0101 41.2452 28.4851C42.0252 29.0101 42.1602 29.5351 42.3252 30.2401H40.1802Z" fill="white" stroke="black" stroke-width="0.15"/>
<path d="M39.7752 30.6299V29.6099C40.1352 29.7599 40.4502 29.9549 40.5702 30.1799C40.6902 29.6099 40.9452 29.3699 41.2602 29.0249C41.5752 29.3699 41.7852 29.6249 41.9202 30.1799C42.0402 29.9549 42.3552 29.7449 42.7002 29.6099V30.6299H39.7752Z" fill="white" stroke="black" stroke-width="0.15"/>
<path d="M11.6049 38.8949H48.3999V40.7699H11.6049V38.8949ZM10.6299 40.7699H49.3749V42.6449H10.6299V40.7699ZM13.5399 36.075H46.4499V37.2899H13.5399V36.075Z" fill="white" stroke="black" stroke-width="0.15"/>
<path d="M12.5801 37.2898H47.4401V38.8798H12.5801V37.2898ZM14.1101 35.1448H45.9101V36.0748H14.1101V35.1448Z" fill="white" stroke="black" stroke-width="0.15"/>
<path d="M17.5601 35.1448H19.9601V42.6448H17.5601V35.1448Z" fill="white" stroke="black" stroke-width="0.15"/>
<path d="M18.1 35.1448H19.435V42.6448H18.085L18.1 35.1448ZM28.75 35.1448H31.15V42.6448H28.75V35.1448Z" fill="white" stroke="black" stroke-width="0.15"/>
<path d="M29.3047 35.1448H30.6547V42.6448H29.3047V35.1448ZM40.0297 35.1448H42.4297V42.6448H40.0297V35.1448Z" fill="white" stroke="black" stroke-width="0.15"/>
<path d="M40.5547 35.1448H41.9047V42.6448H40.5547V35.1448Z" fill="white" stroke="black" stroke-width="0.15"/>
<path d="M15.5498 34.3799H44.4998M18.0698 41.6999H19.4498M18.0698 40.7549H19.4498M18.0698 39.8249H19.4498M18.0698 38.8799H19.4498M18.0698 37.9499H19.4498M18.0698 37.0049H19.4498M18.0698 36.0749H19.4498M29.3198 41.6999H30.6098M29.3198 40.7549H30.6098M29.3198 39.8249H30.6098M29.3198 38.8799H30.6098M29.3198 37.9499H30.6098M29.3198 37.0049H30.6098M29.3198 36.0749H30.6098M40.5398 41.6999H41.9198M40.5398 40.7549H41.9198M40.5398 39.8249H41.9198M40.5398 38.8799H41.9198M40.5398 37.9499H41.9198M40.5398 37.0049H41.9198M40.5398 36.0749H41.9198" stroke="black" stroke-width="0.15"/>
</g>
</g>
</g>
</g>
</g>
</g>
</g>
</g>
<defs>
<clipPath id="clip0_14015_15053">
<rect width="60" height="60" fill="white"/>
</clipPath>
<clipPath id="clip1_14015_15053">
<rect width="80" height="60" fill="white" transform="translate(-15)"/>
</clipPath>
<clipPath id="clip2_14015_15053">
<rect width="80" height="60" fill="white" transform="translate(-15)"/>
</clipPath>
<clipPath id="clip3_14015_15053">
<rect width="80" height="60" fill="white" transform="translate(-15)"/>
</clipPath>
<clipPath id="clip4_14015_15053">
<rect width="80" height="60" fill="white" transform="translate(-15)"/>
</clipPath>
<clipPath id="clip5_14015_15053">
<rect width="80" height="60" fill="white" transform="translate(-4)"/>
</clipPath>
<clipPath id="clip6_14015_15053">
<rect width="80" height="60" fill="white" transform="translate(-10)"/>
</clipPath>
</defs>
</svg>
