<svg width="60" height="60" viewBox="0 0 60 60" fill="none" xmlns="http://www.w3.org/2000/svg">
<mask id="mask0_13628_11138" style="mask-type:luminance" maskUnits="userSpaceOnUse" x="0" y="0" width="60" height="60">
<path d="M30 60C46.5685 60 60 46.5685 60 30C60 13.4315 46.5685 0 30 0C13.4315 0 0 13.4315 0 30C0 46.5685 13.4315 60 30 60Z" fill="white"/>
</mask>
<g mask="url(#mask0_13628_11138)">
<mask id="mask1_13628_11138" style="mask-type:luminance" maskUnits="userSpaceOnUse" x="-10" y="0" width="80" height="60">
<path d="M70 0H-10V60H70V0Z" fill="white"/>
</mask>
<g mask="url(#mask1_13628_11138)">
<path d="M8.75995 0H51.22V60H8.75V0H8.75995Z" fill="white"/>
<path d="M-12.46 0H8.76001V60H-12.46V0ZM51.23 0H72.46V60H51.2501V0H51.23ZM15.1301 29L13.47 29.55L21.14 36.3C21.73 38.01 20.9401 38.53 20.4401 39.42L28.77 38.37L28.5701 46.75L30.3101 46.71L29.92 38.38L38.26 39.38C37.75 38.29 37.29 37.72 37.76 35.98L45.42 29.6L44.08 29.1C42.98 28.25 44.55 25.03 44.78 22.99C44.78 22.99 40.32 24.53 40.03 23.72L38.8801 21.53L34.8 26.01C34.3601 26.12 34.1801 25.95 34.0601 25.57L35.9401 16.22L32.97 17.89C32.72 18 32.4701 17.9 32.3201 17.62L29.4401 11.87L26.4901 17.85C26.2701 18.06 26.0401 18.09 25.8701 17.94L23.01 16.35L24.72 25.61C24.58 25.99 24.2601 26.09 23.8801 25.89L19.98 21.48C19.48 22.29 19.13 23.62 18.46 23.92C17.79 24.21 15.52 23.36 14.01 23.04C14.54 24.89 16.1301 27.99 15.1301 29Z" fill="#D52B1E"/>
</g>
</g>
</svg>
