<svg width="60" height="60" viewBox="0 0 60 60" fill="none" xmlns="http://www.w3.org/2000/svg">
<mask id="mask0_13628_11139" style="mask-type:luminance" maskUnits="userSpaceOnUse" x="0" y="0" width="60" height="60">
<path d="M30 60C46.5685 60 60 46.5685 60 30C60 13.4315 46.5685 0 30 0C13.4315 0 0 13.4315 0 30C0 46.5685 13.4315 60 30 60Z" fill="white"/>
</mask>
<g mask="url(#mask0_13628_11139)">
<mask id="mask1_13628_11139" style="mask-type:luminance" maskUnits="userSpaceOnUse" x="-11" y="0" width="81" height="60">
<path d="M69.9902 0H-10.0098V60H69.9902V0Z" fill="white"/>
</mask>
<g mask="url(#mask1_13628_11139)">
<path d="M-10.0098 0H70.0002V60H-10.0098V0Z" fill="#C8102E"/>
<path d="M15.7002 0H24.2702V60H15.7002V0Z" fill="white"/>
<path d="M-10.0098 25.71H70.0002V34.28H-10.0098V25.71Z" fill="white"/>
</g>
</g>
</svg>
