<svg width="34" height="34" viewBox="0 0 34 34" fill="none" xmlns="http://www.w3.org/2000/svg">
<g clip-path="url(#clip0_13029_14226)">
<path d="M33.6525 16.8262C33.6525 7.53331 26.1192 -6.10352e-05 16.8263 -6.10352e-05C7.53337 -6.10352e-05 0 7.53331 0 16.8262C0 25.2247 6.15312 32.1858 14.1972 33.4481V21.69H9.92487V16.8262H14.1972V13.1192C14.1972 8.90209 16.7092 6.5727 20.5527 6.5727C22.3936 6.5727 24.3192 6.90134 24.3192 6.90134V11.0422H22.1975C20.1072 11.0422 19.4554 12.3392 19.4554 13.6699V16.8262H24.122L23.376 21.69H19.4554V33.4481C27.4994 32.1858 33.6525 25.2247 33.6525 16.8262Z" fill="#1877F2"/>
<path d="M23.376 21.69L24.122 16.8262H19.4553V13.6699C19.4553 12.3392 20.1072 11.0422 22.1974 11.0422H24.3191V6.90133C24.3191 6.90133 22.3936 6.57269 20.5526 6.57269C16.7091 6.57269 14.1971 8.90208 14.1971 13.1192V16.8262H9.9248V21.69H14.1971V33.4481C15.0538 33.5825 15.9318 33.6525 16.8262 33.6525C17.7206 33.6525 18.5986 33.5825 19.4553 33.4481V21.69H23.376Z" fill="white"/>
</g>
<defs>
<clipPath id="clip0_13029_14226">
<rect width="33.6525" height="33.6525" fill="white"/>
</clipPath>
</defs>
</svg>
