<svg width="60" height="60" viewBox="0 0 60 60" fill="none" xmlns="http://www.w3.org/2000/svg">
<mask id="mask0_13628_11140" style="mask-type:luminance" maskUnits="userSpaceOnUse" x="0" y="0" width="60" height="60">
<path d="M30 60C46.5685 60 60 46.5685 60 30C60 13.4315 46.5685 0 30 0C13.4315 0 0 13.4315 0 30C0 46.5685 13.4315 60 30 60Z" fill="white"/>
</mask>
<g mask="url(#mask0_13628_11140)">
<mask id="mask1_13628_11140" style="mask-type:luminance" maskUnits="userSpaceOnUse" x="-10" y="0" width="80" height="60">
<path d="M70 0H-10V60H70V0Z" fill="white"/>
</mask>
<g mask="url(#mask1_13628_11140)">
<path d="M-10 0V60H70V0H-10Z" fill="#68BFE5"/>
<path d="M42.6099 24.1499V41.1999C42.6099 46.7799 52.6899 50.0799 52.6899 50.0799C52.6899 50.0799 62.7499 46.7799 62.7499 41.1999V24.1499H42.6099Z" fill="white"/>
<path d="M51.2901 30.1499V37.8299H42.6201V40.6199H51.2901V49.5599L52.6901 50.0999L54.0801 49.5599V40.6399H62.7601V37.8399H54.0801V30.1599H51.2901V30.1499Z" fill="#D21034"/>
<path d="M42.6101 24.1499H62.7501V30.7499H42.6001V24.1499H42.6101Z" fill="#D21034"/>
<path d="M44.2198 29.08C44.8398 29.08 45.3498 28.67 45.3498 28.17C45.3498 27.67 44.8398 27.26 44.2198 27.26C43.5998 27.26 43.0898 27.67 43.0898 28.17C43.0898 28.67 43.5998 29.08 44.2198 29.08Z" fill="white" stroke="black" stroke-width="0.07" stroke-miterlimit="3"/>
<path d="M44.2199 28.1899C44.7799 28.1899 45.2299 27.9599 45.2299 27.6799C45.2299 27.3999 44.7799 27.1699 44.2199 27.1699C43.6599 27.1699 43.21 27.3999 43.21 27.6799C43.21 27.9599 43.6599 28.1899 44.2199 28.1899Z" fill="white" stroke="black" stroke-width="0.07" stroke-miterlimit="3"/>
<path d="M44.2199 29.2199C44.7799 29.2199 45.2299 28.9899 45.2299 28.7099C45.2299 28.4299 44.7799 28.2 44.2199 28.2C43.6599 28.2 43.21 28.4299 43.21 28.7099C43.21 28.9899 43.6599 29.2199 44.2199 29.2199Z" fill="white" stroke="black" stroke-width="0.07" stroke-miterlimit="3"/>
<path d="M44.2199 28.6699C44.7799 28.6699 45.2299 28.4399 45.2299 28.1599C45.2299 27.8799 44.7799 27.6499 44.2199 27.6499C43.6599 27.6499 43.21 27.8799 43.21 28.1599C43.21 28.4399 43.6599 28.6699 44.2199 28.6699Z" fill="white" stroke="black" stroke-width="0.07" stroke-miterlimit="3"/>
<path d="M62.2497 29.4199L62.0898 28.9699C62.0898 28.9699 61.6397 28.7799 61.5997 28.5399C61.5297 27.8999 61.2997 27.6699 60.9497 27.5699C60.7597 27.5199 60.5597 27.5399 60.3897 27.6299C60.2897 27.7799 59.7697 27.7799 59.4897 27.7899C59.1997 27.7899 59.1897 27.6699 59.1897 27.6699C58.9797 27.6699 58.8797 27.5099 58.8797 27.5099C58.7397 27.2199 58.6297 27.1099 58.5597 27.0699C58.9397 27.0699 59.2097 26.9099 59.6297 26.4699C60.0797 25.9899 60.4097 26.1699 60.4097 26.1699C60.1897 26.6199 60.4797 26.5799 60.4797 26.5799C61.0797 26.2699 60.5597 25.4899 60.3797 25.5299C60.1897 25.5699 60.1397 25.4399 60.1397 25.4399C60.1397 25.5799 59.9397 25.6399 59.9397 25.6399C60.0897 24.7499 59.5597 24.5199 59.5597 24.5199C59.4897 24.5999 59.4397 24.7599 59.4397 24.7599C59.2897 25.2999 58.7997 25.2099 58.2497 24.9499C57.6997 24.6999 56.2497 25.2199 55.7897 25.4099C55.3297 25.5999 54.4897 25.8699 53.7397 25.4599C52.9897 25.0399 52.7997 25.1099 52.4997 25.1999C52.2097 25.2799 51.6897 25.3999 51.4997 25.2999C51.3697 25.2299 51.2197 25.1999 51.0797 25.1899C51.1297 25.1699 51.0497 25.0399 51.0497 25.0399C50.8097 24.7299 51.0797 24.5399 51.0797 24.5399C51.0797 24.5399 50.6597 24.6699 50.8297 25.3899L50.9097 25.4899C50.9097 25.4899 50.9597 25.7299 51.0797 25.7899V25.8399C51.0797 25.8399 51.1897 25.7899 51.2197 25.9399C51.2597 26.0899 51.4197 25.9399 51.4797 25.8199C51.4797 25.8199 51.3697 26.4899 52.1897 26.6599C52.1897 26.6599 52.0997 26.5499 52.1297 26.4899C52.1697 26.4099 52.0297 26.3699 52.0397 26.2599C52.0497 26.1499 51.8397 26.1099 51.9997 26.0199C52.1697 25.9399 52.2497 25.7799 52.6197 26.0099C52.9797 26.2199 53.2697 26.1699 53.2697 26.1699C53.2697 26.1699 53.0397 25.7199 53.1697 25.7199C53.2997 25.7199 53.8397 26.3999 54.1097 26.3699C54.3797 26.3299 54.9097 26.0199 55.1697 26.1299C55.1697 26.1299 55.1897 26.0099 56.1897 25.8299C57.1897 25.6499 58.4398 25.1499 58.8998 25.5899C58.8998 25.5899 58.9498 25.9399 59.1498 26.0299C59.1498 26.0299 59.1097 26.7599 57.8697 26.3599L57.4197 26.2399C57.4197 26.2399 57.3497 26.0299 54.9797 26.6399C54.9797 26.6399 54.8397 26.6899 54.7397 26.7499C54.6497 26.8099 54.5297 26.7099 54.0497 26.8699C53.5897 27.0599 51.8397 27.6199 50.7597 27.4199C50.5197 27.3399 50.3097 27.3799 50.2997 27.3399C50.2997 27.2999 50.4197 27.3499 50.4197 27.3499C50.3397 27.2599 50.3097 27.2499 50.3097 27.2499C49.4097 27.1499 49.5597 26.7499 49.5597 26.7499L49.6097 26.8699C49.7597 26.6699 49.5597 26.2199 49.5597 26.2199H49.5497C49.5497 26.2199 49.5497 26.1999 49.5497 26.1799L49.6097 26.1299C50.0497 25.7499 50.5497 25.6899 50.5497 25.6899C50.2497 25.3099 49.6297 25.5099 49.6297 25.5099C49.6397 25.0699 49.4497 24.5499 49.4497 24.5499C49.0697 24.6099 48.7197 24.8199 48.4897 25.1399C48.4597 24.6799 47.8797 24.4099 47.8797 24.4099C48.0997 24.6699 47.9697 25.3099 47.9697 25.3099H47.9997H47.9397V25.4499H47.8998C47.8998 25.4499 47.6897 25.5299 47.4397 26.0999C47.4397 26.0999 47.4097 26.2199 47.3197 26.3499V26.2999C47.3197 26.2999 47.0298 26.6799 46.3998 26.2999C46.3998 26.2999 45.5197 25.7899 45.1997 25.7999C44.8997 25.8199 44.6997 25.9599 44.7097 26.0499C44.7097 26.0499 43.9997 25.9999 43.7597 26.3999C43.7597 26.3999 43.2197 26.5999 43.6797 27.0199C43.6797 27.0199 43.7397 27.2199 43.8697 27.3199C43.8697 27.3199 43.8597 26.9199 43.9597 27.0299L44.0197 27.1099C44.0197 27.1099 44.0797 27.3099 44.1697 27.3999L44.2497 27.3799C44.2497 27.2799 44.2797 27.1499 44.2997 27.0999H44.3297L44.4497 27.2999L44.5697 27.2199C44.6497 27.2199 44.7297 27.2799 44.7297 27.2799L44.8897 27.1399C45.0497 27.1699 45.0997 26.8399 45.0997 26.8399C45.1697 26.8599 45.2297 26.8599 45.2997 26.8399C45.3697 26.8299 45.4297 26.8099 45.4897 26.7699C45.5697 27.0199 46.1397 27.3099 46.1397 27.3099H46.1597L46.0797 27.3599C46.3397 27.5499 46.8297 27.4999 46.8297 27.4999C46.6297 27.5799 46.6597 27.9599 46.6597 27.9599C46.5397 28.0099 46.5397 28.1199 46.5397 28.1199C46.9397 28.2799 47.1997 28.1399 47.1997 28.1399C47.2197 28.2599 47.1997 28.2899 47.1997 28.2899C47.0397 28.6299 46.9597 28.9599 46.9597 28.9599H46.9697V28.9799C46.9697 28.9799 46.2597 29.2299 45.9597 29.5699C45.9597 29.5699 45.9198 29.4699 45.8398 29.4699C45.7598 29.4699 45.4897 29.2399 45.3697 29.2099C45.2497 29.1799 45.0597 29.2499 44.9897 29.1899C44.9497 29.1399 44.9797 28.7399 44.8897 28.6899L44.7997 28.4399C44.7497 28.5599 44.4997 28.5399 44.4997 28.5399L44.3998 28.6099H44.2997C44.2997 28.6099 44.2497 28.6599 44.2397 28.7199L44.1997 28.7599V28.6899C44.1997 28.6899 44.0597 28.6799 44.0197 28.6799C43.9997 28.6799 43.9697 28.7299 43.9597 28.7899H43.7197V29.1299C43.4297 29.2799 43.5697 29.5199 43.5697 29.5199C43.7197 30.2699 45.0097 29.9299 45.1097 30.0299C45.2097 30.1299 45.4397 30.1499 45.5497 30.1499C45.6697 30.1499 45.8097 30.4199 45.9697 30.4499C46.1297 30.4799 45.9697 30.2299 46.7297 30.0499C47.4897 29.8599 47.7597 29.5499 47.7597 29.5499C47.9997 29.4999 48.0597 29.2099 48.0697 29.0999L48.0898 29.2699C48.1298 29.5299 47.9397 29.6499 47.9397 29.6499L48.5997 29.4399C48.8597 29.3799 48.8197 29.1399 48.8197 29.1399C49.0697 29.8699 49.5298 29.9199 49.5298 29.9199C49.6198 29.6499 49.6097 29.5599 49.6097 29.5599H49.8197C49.8197 29.3999 49.6997 29.2899 49.6097 29.2399L49.9397 29.4299H50.0597C50.0597 29.5299 50.2197 29.6299 50.2197 29.6299L50.2497 29.4799C50.3997 29.6799 50.6697 29.5999 50.6697 29.5999C50.6697 29.5699 50.6597 29.5299 50.6397 29.4999C51.2297 29.8599 52.1697 29.3999 52.1697 29.3999C52.4197 29.4499 52.4597 29.2999 52.4597 29.2999C52.7397 29.3399 52.8097 29.1399 52.8097 29.1399C53.4697 29.0899 53.9497 28.6199 53.9497 28.6199C54.2897 28.5999 54.2997 28.3599 54.2997 28.3599C54.2997 28.3599 54.6297 28.4199 54.9497 28.0199C55.6997 26.9599 56.7997 27.5199 56.7997 27.5199L56.1597 27.5599C54.4697 27.5499 55.1697 28.6799 55.1697 28.6799H55.2697C55.4297 28.6999 55.9797 29.1399 55.7697 29.4499V29.4699C55.4197 29.9299 54.7897 29.4899 54.6097 29.0899C54.4397 28.6899 54.0597 28.7799 54.0597 28.7799C54.0597 28.7799 53.1197 28.9399 53.5097 29.6899C53.5197 29.8799 53.6297 30.0899 53.9797 30.2899C54.1697 30.5599 54.7897 30.5899 55.2397 30.4899C55.4597 30.4699 56.5898 29.9699 56.5898 29.9699C56.6798 29.7199 56.9697 29.7799 57.2097 29.4199C57.4597 29.0699 56.8497 28.9399 56.7097 28.7399C56.5897 28.5499 56.7497 28.5899 56.7497 28.5899C57.2997 28.8799 57.3497 27.9399 57.3497 27.9399C57.3697 28.0899 57.4297 28.2399 57.5197 28.3599C57.6097 28.4799 57.7397 28.5699 57.8897 28.6299C58.1797 28.3399 57.9597 27.7299 57.9597 27.7299C58.6697 28.9999 59.0997 28.7899 59.0997 28.7899C58.7197 28.5599 58.9097 28.2399 58.9097 28.2399C59.2497 29.5899 60.6597 28.4199 60.6597 28.4199C60.5897 28.6199 60.6598 28.7299 60.7798 28.8599C60.8998 28.9899 61.0597 29.0299 60.9797 29.2699C60.9197 29.4999 60.2597 29.4499 60.2597 29.4499C60.2597 29.4499 59.6397 29.4299 59.6797 29.9499C59.7197 30.0699 60.1297 30.1199 60.2997 30.0899C60.2997 30.0899 60.2297 30.1199 60.4597 30.1399H60.7397C60.9997 30.1399 61.2997 30.0899 61.2997 30.0899C61.6597 30.0199 61.5997 29.8899 61.5997 29.8899C62.1597 29.7899 62.2197 29.4099 62.2197 29.4099H62.1897L62.2497 29.4199Z" fill="#FFD100" stroke="black" stroke-width="0.1" stroke-miterlimit="3"/>
<path d="M43.7 27.09C43.7 27.09 43.7399 27.03 43.7899 27.01C43.8399 27.01 43.8899 27.03 43.9399 27.11L43.9799 27.09C43.9799 27.09 43.8299 26.86 43.8799 26.71C43.9199 26.63 43.98 26.59 44.08 26.57V26.53C43.96 26.55 43.8799 26.61 43.8499 26.69C43.8399 26.72 43.83 26.75 43.83 26.78C43.83 26.86 43.85 26.93 43.89 26.99C43.86 26.97 43.8299 26.96 43.7899 26.97C43.7699 26.97 43.7499 26.98 43.7299 26.99C43.7099 27 43.6999 27.02 43.6899 27.04V27.08L43.7 27.09ZM61.3199 30.09C60.9399 30.15 60.38 30.18 60.33 30.06C60.33 30.04 60.3299 29.96 60.6299 29.76L60.6099 29.7C60.3499 29.87 60.23 29.99 60.27 30.08C60.36 30.31 61.17 30.18 61.33 30.16V30.1L61.3199 30.09ZM54.02 30.3C53.93 30.18 53.98 29.99 54.14 29.76L54.08 29.72C53.9 29.97 53.87 30.17 53.96 30.34L54.02 30.29V30.3Z" fill="black"/>
<path d="M53.5098 29.73C53.5098 29.97 53.6798 30.18 53.9998 30.37L54.0398 30.31C53.7398 30.14 53.5898 29.94 53.5898 29.74C53.5598 29.43 53.8998 29.18 53.9098 29.18L53.8698 29.13C53.8698 29.13 53.4998 29.39 53.5098 29.75V29.73ZM60.0098 29.82C59.9098 29.98 59.9498 30.17 59.9498 30.17H60.0098C60.0098 30.17 59.9898 30 60.0698 29.86C60.0998 29.82 60.1398 29.79 60.1798 29.76C60.2198 29.73 60.2698 29.72 60.3198 29.71V29.65C60.1798 29.67 60.0698 29.74 60.0198 29.82H60.0098ZM45.1198 26.9H45.0898V26.92C45.0898 26.92 45.0698 27.12 44.9698 27.17C44.9498 27.17 44.9198 27.17 44.8998 27.17L44.7398 27.08C44.7398 27.08 44.6898 27.04 44.6398 27.05C44.6198 27.03 44.6098 27 44.5998 26.97C44.5998 26.94 44.5898 26.91 44.5998 26.88C44.6098 26.79 44.6698 26.71 44.7998 26.63L44.7798 26.59C44.6598 26.68 44.5798 26.78 44.5698 26.88C44.5698 27 44.6298 27.08 44.6298 27.08L44.6598 27.09C44.6998 27.08 44.6998 27.09 44.7398 27.11L44.9098 27.21H45.0298C45.1198 27.15 45.1498 26.97 45.1498 26.94C45.5498 27.03 45.8698 26.53 45.8998 26.52L45.8598 26.49C45.8598 26.49 45.5198 26.99 45.1398 26.89L45.1198 26.9Z" fill="black"/>
<path d="M44.1401 26.81C44.1301 26.9 44.1401 26.99 44.1901 27.06C44.2301 27.12 44.2801 27.16 44.3101 27.17C44.3701 27.17 44.4101 27.13 44.4601 27.09C44.4801 27.07 44.5101 27.04 44.5301 27.04L44.5701 27.06L44.5901 27.04L44.5301 27C44.5301 27 44.4601 27.02 44.4301 27.06C44.4001 27.1 44.3501 27.12 44.3101 27.12C44.2801 27.12 44.2501 27.08 44.2101 27.02C44.1901 26.99 44.18 26.95 44.17 26.92C44.17 26.88 44.17 26.85 44.17 26.81C44.22 26.64 44.4301 26.5 44.4301 26.5V26.46C44.4301 26.46 44.1801 26.61 44.1301 26.8L44.1401 26.81ZM43.5901 29.4C43.6001 29.32 43.6601 29.28 43.7501 29.22C43.7201 29.22 43.83 29.3 43.91 29.3L43.97 29.26C43.97 29.26 44.1501 29.42 44.1501 29.6C44.1501 29.64 44.1501 29.68 44.1201 29.71H44.16C44.27 29.46 43.9901 29.22 43.9901 29.22H43.97L43.92 29.26C43.85 29.26 43.7601 29.18 43.7601 29.18C43.6401 29.23 43.5901 29.3 43.5601 29.38H43.6L43.5901 29.4ZM44.8801 28.72C44.7901 28.73 44.5701 28.77 44.4901 28.9C44.4701 28.95 44.45 29 44.48 29.05L44.5101 29.12C44.5901 29.32 44.6601 29.52 44.7501 29.57V29.53C44.6901 29.49 44.61 29.28 44.55 29.11L44.5301 29.03C44.5301 29.03 44.5101 28.99 44.5101 28.97C44.5101 28.95 44.5101 28.93 44.5301 28.91C44.5901 28.82 44.81 28.79 44.91 28.77C44.96 28.77 44.9701 28.96 44.9901 29.07H45.0301C45.0201 28.9 44.99 28.72 44.91 28.72H44.8801Z" fill="black"/>
<path d="M44.2402 28.9301C44.2402 28.9301 44.2002 29.0301 44.2002 29.0401C44.2002 29.0501 44.2302 29.5401 44.4502 29.6401V29.6001C44.2602 29.5101 44.2402 29.0401 44.2402 29.0301C44.2402 29.0301 44.2402 28.9801 44.2702 28.9501C44.3102 28.9301 44.3702 28.9101 44.4702 28.9501V28.9101C44.3702 28.8701 44.3002 28.8901 44.2402 28.9101V28.9301Z" fill="black"/>
<path d="M44.0502 28.9601C43.9502 29.0401 43.9602 29.2301 43.9602 29.2501H44.0002C44.0002 29.2501 44.0002 29.0501 44.0802 29.0001C44.1202 28.9801 44.1602 28.9801 44.2002 29.0001V28.9501C44.2002 28.9501 44.0902 28.9201 44.0502 28.9501V28.9601Z" fill="black"/>
<path d="M49.5498 26.27C49.5498 26.27 49.6598 26.52 49.6598 26.71C49.6598 26.74 49.6398 26.77 49.6398 26.79L49.5998 26.68L49.5798 26.76C49.5798 26.76 49.5298 26.88 49.5998 27C49.6998 27.17 49.9498 27.27 50.3498 27.31C50.3498 27.31 50.3298 27.32 50.3198 27.33L50.2998 27.35V27.38C50.2998 27.38 50.3598 27.42 50.4498 27.42H50.5098L50.5598 27.44C50.6398 27.44 50.7498 27.46 50.8598 27.5L50.7798 27.52L50.8698 27.56C50.8698 27.56 51.5898 27.85 51.8798 28.08C51.7998 28.15 51.4398 28.41 50.8198 28.26L50.7198 28.24L50.7898 28.32C50.7898 28.32 51.1998 28.79 51.2798 29.07C51.1398 29.07 50.5998 29.07 50.4098 28.9L50.3698 28.94C50.3698 28.94 50.6198 29.32 50.6898 29.61C50.6098 29.63 50.4398 29.63 50.3298 29.49L50.2798 29.43L50.2598 29.6C50.2598 29.6 50.1398 29.51 50.1398 29.44V29.41L49.9898 29.43L49.6698 29.24C49.6698 29.24 49.6398 29.22 49.6198 29.21L49.5898 29.27L49.6398 29.29C49.7098 29.34 49.8198 29.43 49.8298 29.56H49.6298V29.6C49.6298 29.6 49.6298 29.72 49.5598 29.91C49.4698 29.89 49.1198 29.77 48.9098 29.18L48.8398 29.2V29.22C48.8398 29.28 48.8198 29.41 48.6398 29.46L48.0998 29.63C48.1498 29.56 48.1698 29.48 48.1698 29.4V29.33C48.1598 29.26 48.1498 29.19 48.1498 29.11C48.1498 28.99 48.1698 28.91 48.2698 28.86L48.2398 28.79C48.2398 28.79 47.4398 29.11 47.0498 28.98C47.0698 28.9 47.1298 28.63 47.2698 28.35L47.2498 28.37C47.2498 28.37 47.2998 28.32 47.2698 28.19V28.15L47.2298 28.17C47.2298 28.17 46.9798 28.29 46.6098 28.15C46.6098 28.12 46.6298 28.07 46.7098 28.03H46.7298V27.96C46.7298 27.86 46.7298 27.63 46.8798 27.58L46.8598 27.51C46.8598 27.51 46.4398 27.54 46.1798 27.4C46.2898 27.32 46.4198 27.27 46.5498 27.24H46.5698V27.21C46.5698 27.14 46.5498 27.08 46.5298 27.02C46.6298 27.05 46.7498 27.08 46.7898 27.04H46.8098L46.7898 26.77H46.7198V26.99L46.4798 26.93L46.3798 26.9L46.4498 26.98C46.4898 27.04 46.5098 27.11 46.5098 27.18C46.3598 27.21 46.2198 27.28 46.0898 27.37L46.0498 27.4L46.0898 27.42C46.2898 27.55 46.5998 27.57 46.7498 27.56C46.6798 27.67 46.6398 27.8 46.6398 27.93V27.96C46.6398 27.96 46.5798 28.01 46.5598 28.04C46.5398 28.07 46.5198 28.11 46.5198 28.15V28.17H46.5398C46.7498 28.27 46.9798 28.29 47.1998 28.22V28.29C47.0298 28.64 46.9498 28.98 46.9498 28.98V29.01H46.9698C47.2898 29.14 47.8598 28.97 48.1198 28.88C48.0898 28.94 48.0598 29 48.0598 29.09C48.0598 29.18 48.0598 29.28 48.0898 29.37C48.0898 29.56 47.9698 29.64 47.9598 29.64L47.9798 29.71L48.6398 29.51C48.7898 29.47 48.8498 29.38 48.8698 29.3C49.1298 29.91 49.5298 29.96 49.5598 29.97H49.5798V29.95C49.6298 29.84 49.6598 29.73 49.6698 29.62C49.7398 29.62 49.7998 29.62 49.8698 29.62V29.58C49.8698 29.52 49.8698 29.47 49.8398 29.43L49.9598 29.5L50.0698 29.48C50.0998 29.59 50.2298 29.68 50.2398 29.69L50.2798 29.71L50.3098 29.57C50.4798 29.71 50.6998 29.67 50.7198 29.67H50.7398V29.63C50.7098 29.41 50.5598 29.14 50.4698 29C50.7598 29.13 51.2898 29.12 51.3198 29.12H51.3498V29.08C51.2398 28.81 51.0798 28.55 50.8798 28.33C51.5598 28.45 51.9298 28.1 51.9398 28.08L51.9598 28.05L51.9298 28.03C51.6298 27.82 51.3098 27.64 50.9698 27.51L51.0398 27.49L50.9598 27.45C50.8098 27.37 50.6498 27.33 50.4798 27.33C50.3998 27.23 50.3598 27.22 50.3498 27.21C49.8798 27.16 49.7198 27.04 49.6498 26.94V26.92L49.6698 26.9C49.7098 26.84 49.7298 26.77 49.7298 26.68C49.7298 26.46 49.6198 26.22 49.6198 26.21L49.5498 26.23V26.27Z" fill="black"/>
<path d="M47.43 26.14C47.43 26.14 47.38 26.39 47.16 26.51C46.99 26.59 46.79 26.59 46.53 26.49H46.5V26.51C46.52 26.62 46.58 26.71 46.67 26.78C46.78 26.86 46.94 26.9 47.16 26.88C47.09 26.96 46.86 27.25 46.86 27.53V27.57C46.86 27.57 47.24 27.69 47.41 27.48C47.41 27.56 47.44 27.85 47.55 27.96C47.62 28.03 47.63 28.11 47.63 28.18C47.63 28.25 47.61 28.3 47.61 28.3L47.59 28.35L47.63 28.32C47.63 28.32 47.97 28.07 48.07 27.76C48.07 27.76 48.13 27.68 48.23 27.65V27.69C48.23 27.81 48.28 28.03 48.63 28.16H48.66V28.14C48.66 28.12 48.66 28.1 48.66 28.08C48.66 27.99 48.66 27.83 48.75 27.75C48.79 27.72 48.81 27.67 48.82 27.62C48.82 27.57 48.82 27.52 48.8 27.47C48.87 27.49 49.04 27.54 49.11 27.67C49.21 27.85 49.55 27.7 49.57 27.7V27.66C49.57 27.66 49.41 27.69 49.32 27.64C49.3 27.63 49.29 27.61 49.27 27.58C49.26 27.56 49.25 27.53 49.25 27.51L49.23 27.31C49.23 27.23 49.21 27.17 49.17 27.13C49.21 27.13 49.3 27.13 49.34 27.21C49.41 27.34 49.61 27.35 49.62 27.35H49.69L49.63 27.32C49.63 27.32 49.45 27.2 49.48 27.05L49.5 26.93C49.55 26.72 49.63 26.38 49.56 26.17L49.53 26.19C49.53 26.19 49.55 26.31 49.55 26.37C49.55 26.55 49.49 26.79 49.47 26.93L49.44 27.05C49.44 27.05 49.44 27.08 49.44 27.09C49.44 27.2 49.5 27.27 49.55 27.31C49.49 27.31 49.41 27.27 49.38 27.2C49.32 27.08 49.19 27.08 49.13 27.09H49.08L49.11 27.13C49.17 27.16 49.18 27.21 49.18 27.32L49.2 27.51C49.2 27.58 49.24 27.63 49.28 27.66C49.33 27.69 49.38 27.69 49.42 27.7C49.32 27.72 49.18 27.74 49.13 27.65C49.04 27.47 48.77 27.43 48.76 27.42H48.72L48.74 27.45C48.74 27.45 48.77 27.5 48.77 27.57C48.77 27.61 48.75 27.67 48.71 27.71C48.62 27.8 48.6 27.98 48.6 28.07V28.1C48.3 27.98 48.25 27.79 48.25 27.68V27.6L48.27 27.58H48.24C48.24 27.58 48.15 27.6 48.12 27.63C48.09 27.66 48.05 27.69 48.03 27.73C47.95 27.93 47.81 28.11 47.64 28.25C47.64 28.22 47.64 28.19 47.64 28.17C47.64 28.1 47.62 28 47.56 27.93C47.44 27.81 47.42 27.43 47.42 27.43V27.36L47.39 27.42C47.26 27.65 46.87 27.54 46.87 27.54C46.85 27.25 47.2 26.87 47.2 26.86L47.23 26.83H47.18C46.96 26.86 46.78 26.83 46.66 26.75C46.59 26.7 46.55 26.62 46.53 26.54C46.78 26.63 47 26.64 47.16 26.54C47.23 26.5 47.29 26.44 47.34 26.37C47.39 26.3 47.42 26.22 47.44 26.14C47.69 25.59 47.9 25.5 47.9 25.5V25.47C47.9 25.47 47.66 25.55 47.41 26.13L47.43 26.14Z" fill="black"/>
<path d="M47.99 25.3201H47.97L47.77 25.5901H47.83C48.45 25.6401 49.03 25.9101 49.47 26.3501L49.49 26.3701L49.68 26.1601L49.66 26.1401C49.12 25.2901 47.99 25.3101 47.97 25.3101L47.99 25.3201ZM48.01 25.3901C48.14 25.3901 49.11 25.4101 49.61 26.1601L49.5 26.2801C49.06 25.8601 48.5 25.6001 47.9 25.5401C47.94 25.4901 47.98 25.4401 48.02 25.3901H48.01Z" fill="black"/>
<path d="M47.83 25.8801C47.74 26.0001 47.68 26.1301 47.66 26.2801V26.3101C47.61 26.3701 47.57 26.4401 47.54 26.5201C47.51 26.6001 47.5 26.6801 47.5 26.7701C47.5 26.8801 47.52 26.9901 47.55 27.0901L47.57 27.1501C47.67 27.4301 47.76 27.6801 48.22 27.5301C48.65 27.4001 48.67 27.3601 48.78 27.1801L48.81 27.1401C48.87 27.0401 48.93 27.0201 49 27.0001C49.08 26.9801 49.17 26.9501 49.25 26.8001L49.32 26.6901C49.4 26.5801 49.5 26.4401 49.51 26.2701H49.48C49.46 26.4101 49.39 26.5501 49.3 26.6601L49.22 26.7801C49.22 26.7801 49.17 26.8701 49.14 26.9001C49.1 26.9301 49.06 26.9501 49.01 26.9601C48.97 26.9601 48.92 26.9901 48.89 27.0101C48.85 27.0401 48.82 27.0701 48.8 27.1101L48.77 27.1601C48.67 27.3301 48.65 27.3601 48.23 27.4901C47.81 27.6201 47.73 27.4201 47.63 27.1201L47.61 27.0601C47.49 26.7401 47.59 26.4301 47.74 26.3101L47.79 26.2701H47.72C47.72 26.2101 47.78 26.0501 47.89 25.9001C47.99 25.7701 48.22 25.6401 48.22 25.6301L48.2 25.6001C48.2 25.6001 47.96 25.7401 47.86 25.8701L47.83 25.8801Z" fill="black"/>
<path d="M47.6302 27.04C47.7002 27.09 47.8002 27.08 47.9402 27.04C47.9402 27.08 47.9402 27.18 48.0202 27.25C48.1202 27.33 48.2701 27.3499 48.4801 27.2999V27.26C48.2801 27.31 48.1301 27.2899 48.0501 27.2199C48.0201 27.1899 48.0001 27.1599 47.9901 27.1299C47.9801 27.0999 47.9701 27.06 47.9801 27.02V26.99L47.9602 27.01C47.8402 27.06 47.7401 27.07 47.6601 27.01C47.5401 26.93 47.5401 26.7 47.5401 26.7H47.5102C47.5102 26.7 47.4902 26.9499 47.6402 27.0499L47.6302 27.04Z" fill="black"/>
<path d="M47.8602 26.7301C47.8602 26.7301 47.7902 26.7901 47.7902 26.8201V26.8401C47.8102 26.9401 47.9102 27.0101 48.0102 27.0301C48.1102 27.0501 48.2302 27.0601 48.2702 27.0101C48.2902 26.9901 48.3002 26.9401 48.2702 26.8701C48.2302 26.8001 48.1702 26.7501 48.1002 26.7201C48.0302 26.6901 47.9402 26.7001 47.8702 26.7201L47.8602 26.7301ZM48.0302 27.0001C47.9502 26.9801 47.8502 26.9201 47.8402 26.8301C47.8402 26.8301 47.8402 26.7701 47.8802 26.7601C47.9402 26.7301 48.0202 26.7301 48.0802 26.7601C48.1402 26.7801 48.2002 26.8301 48.2302 26.9001C48.2502 26.9301 48.2502 26.9701 48.2302 26.9801C48.2102 27.0201 48.1102 27.0301 48.0202 27.0001H48.0302ZM48.0002 27.2201C47.9702 27.4301 48.0002 27.4401 48.0002 27.4401H48.0302L48.1502 27.2701L48.0002 27.2001V27.2201ZM48.0402 27.2501L48.1002 27.2701L48.0302 27.3601V27.2401L48.0402 27.2501ZM47.6902 27.0501V27.2401L47.8502 27.0401L47.6802 27.0201V27.0401L47.6902 27.0501ZM47.7202 27.0701H47.7702L47.7202 27.1401V27.0701Z" fill="black"/>
<path d="M47.5701 27.0001C47.5701 27.0001 47.69 27.2401 47.72 27.3301C47.72 27.3801 47.8001 27.4501 47.8901 27.4701C47.9701 27.5001 48.06 27.5001 48.11 27.4701L48.22 27.3801C48.22 27.3801 48.27 27.3301 48.3 27.3401V27.3001C48.3 27.3001 48.2301 27.3201 48.1901 27.3501L48.0801 27.4301C48.0101 27.4801 47.9401 27.4601 47.9001 27.4501C47.8201 27.4301 47.7601 27.3701 47.7501 27.3301C47.7201 27.2501 47.61 27.0101 47.6 27.0001L47.5701 27.0201V27.0001ZM47.7401 26.2901C47.6501 26.3401 47.57 26.4201 47.54 26.5201H47.5701C47.5701 26.5201 47.6301 26.3801 47.7401 26.3201C47.7701 26.3101 47.8101 26.3001 47.8401 26.3001C47.8701 26.3001 47.9101 26.3001 47.9401 26.3201V26.2901C47.8701 26.2601 47.8 26.2601 47.72 26.2901H47.7401ZM48.6401 26.7201C48.6401 26.7201 48.9101 26.9201 48.7601 27.1501L48.7801 27.1801C48.9501 26.9101 48.66 26.6901 48.66 26.6801L48.6401 26.7201ZM47.8801 26.7501C47.8801 26.7501 47.84 26.8901 48.05 26.9401C48.05 26.9401 47.8601 26.9401 47.8401 26.8901C47.8401 26.8401 47.8401 26.7301 47.8801 26.7501ZM48.5001 26.9201L48.48 26.9401C48.48 26.9401 48.4701 26.9401 48.4601 26.9401C48.4601 26.9401 48.4601 26.9401 48.4601 26.9301C48.4601 26.9101 48.46 26.9101 48.48 26.9101C48.48 26.9101 48.5001 26.9101 48.5001 26.9301V26.9201ZM48.5201 27.0201C48.5201 27.0201 48.5201 27.0401 48.5001 27.0401C48.5001 27.0401 48.49 27.0401 48.48 27.0401C48.48 27.0401 48.48 27.0401 48.48 27.0301C48.48 27.0301 48.48 27.0201 48.48 27.0101C48.48 27.0001 48.4901 27.0101 48.5001 27.0101C48.5001 27.0101 48.5201 27.0101 48.5201 27.0301V27.0201Z" fill="black"/>
<path d="M48.3598 26.99C48.3598 26.99 48.3798 26.9799 48.3798 26.9699C48.3798 26.9599 48.3698 26.95 48.3598 26.95C48.3498 26.95 48.3398 26.9599 48.3398 26.9699C48.3398 26.9799 48.3498 26.99 48.3598 26.99Z" fill="black"/>
<path d="M48.4299 27.1C48.4299 27.1 48.4299 27.11 48.4299 27.12C48.4299 27.12 48.4198 27.12 48.4098 27.12C48.3998 27.12 48.3999 27.12 48.3899 27.12C48.3899 27.12 48.3899 27.11 48.3899 27.1C48.3899 27.1 48.3898 27.08 48.4098 27.08L48.4299 27.1ZM47.8399 26.49C47.8399 26.49 47.8399 26.5 47.8399 26.51C47.8399 26.51 47.8299 26.51 47.8199 26.51C47.8099 26.51 47.8099 26.51 47.7999 26.51C47.7899 26.51 47.7999 26.5 47.7999 26.49C47.7999 26.49 47.7999 26.49 47.8099 26.49C47.8199 26.49 47.8099 26.49 47.8199 26.49H47.8399Z" fill="black"/>
<path d="M47.8301 26.6101C47.8301 26.6101 47.86 26.6001 47.86 26.5901C47.86 26.5801 47.8501 26.5701 47.8301 26.5701C47.8101 26.5701 47.8101 26.5801 47.8101 26.5901C47.8101 26.6001 47.8201 26.6101 47.8301 26.6101Z" fill="black"/>
<path d="M47.71 26.57C47.71 26.57 47.7299 26.56 47.7299 26.55C47.7299 26.54 47.72 26.53 47.71 26.53C47.7 26.53 47.6899 26.54 47.6899 26.55C47.6899 26.56 47.7 26.57 47.71 26.57Z" fill="black"/>
<path d="M47.76 26.67C47.76 26.67 47.76 26.68 47.76 26.69C47.76 26.69 47.76 26.69 47.75 26.69C47.75 26.69 47.74 26.69 47.73 26.69C47.73 26.69 47.73 26.68 47.73 26.67C47.73 26.66 47.73 26.66 47.73 26.65C47.73 26.65 47.74 26.65 47.75 26.65C47.75 26.65 47.75 26.65 47.76 26.65C47.76 26.65 47.76 26.65 47.76 26.67ZM48.16 25.87C48.16 25.87 48.45 26.05 48.16 26.39C48.16 26.39 48.3 26.28 48.31 26.11C48.33 25.94 48.21 25.79 48.14 25.87H48.16ZM49.28 26.36C49.18 26.41 49.05 26.32 48.98 26.24C48.91 26.16 48.77 26.13 48.68 26.29C48.6 26.44 48.47 26.5 48.47 26.5C48.47 26.5 48.59 26.43 48.72 26.29C48.84 26.16 48.92 26.27 49.04 26.33C49.16 26.4 49.18 26.41 49.26 26.37L49.28 26.36Z" fill="black"/>
<path d="M49.2601 26.39C49.2601 26.39 49.2 26.42 49.17 26.42C49.14 26.42 49.1001 26.41 49.0801 26.38C49.0001 26.31 48.94 26.23 48.85 26.28C48.75 26.33 48.5801 26.46 48.5801 26.46C48.5801 26.46 48.8701 26.26 48.9301 26.31C48.9801 26.35 49.1101 26.46 49.1901 26.43L49.2701 26.39H49.2601Z" fill="black"/>
<path d="M49.0401 26.5099C48.9501 26.4399 48.8602 26.5899 48.7802 26.5799C48.7002 26.5599 48.6401 26.4299 48.6401 26.4299C48.6401 26.4299 48.7101 26.5599 48.8101 26.5399C48.9201 26.5099 48.9801 26.4399 49.0501 26.4899C49.1101 26.5399 49.0501 26.5099 49.0501 26.5099H49.0401Z" fill="black"/>
<path d="M48.89 26.5301C48.89 26.5301 48.8399 26.5301 48.8199 26.5301C48.7999 26.5301 48.7699 26.5101 48.7599 26.5001C48.7399 26.4901 48.73 26.4701 48.71 26.4401C48.7 26.4201 48.6899 26.3901 48.6899 26.3701C48.6899 26.3701 48.7499 26.5201 48.9099 26.4901L48.89 26.5201V26.5301Z" fill="black"/>
<path d="M48.8901 26.4201C48.8901 26.4201 48.8901 26.4901 48.8501 26.4901C48.8101 26.4901 48.7701 26.4701 48.7701 26.4201C48.7701 26.3801 48.8901 26.3901 48.8901 26.4201ZM48.2401 26.1701C48.2401 26.1701 48.2401 26.2001 48.2201 26.2101C48.2101 26.2101 48.2001 26.2201 48.1801 26.2201C48.1501 26.2201 48.1401 26.2001 48.1401 26.1701C48.1401 26.1401 48.1401 26.1101 48.1801 26.1101C48.2201 26.1101 48.2401 26.1301 48.2401 26.1701Z" fill="black"/>
<path d="M48.0299 25.96C48.0299 25.96 48.3499 25.96 48.1999 26.35C48.1999 26.35 48.3198 26.16 48.2398 26.02C48.1598 25.89 48.0498 25.92 48.0498 25.92C48.0498 25.92 48.0199 25.94 48.0299 25.96Z" fill="black"/>
<path d="M48.03 26.12C48.03 26.2 48.08 26.28 48.18 26.36L48.2 26.33C48.11 26.26 48.06 26.19 48.06 26.12C48.06 26.05 48.11 26.01 48.11 26.01L48.09 25.99C48.09 25.99 48.03 26.04 48.02 26.12H48.03Z" fill="black"/>
<path d="M48.1001 26.18C48.1001 26.18 48.1501 26.26 48.2001 26.28L48.2201 26.25C48.2201 26.25 48.1501 26.2 48.1401 26.17C48.1201 26.1 48.1701 26.03 48.1701 26.03L48.1401 26.01C48.1401 26.01 48.0801 26.11 48.1101 26.19L48.1001 26.18ZM48.5201 26.4C48.5201 26.4 48.5801 26.52 48.5001 26.66L48.4201 26.79C48.4201 26.79 48.5201 26.6 48.4801 26.52C48.4501 26.44 48.5302 26.4 48.5302 26.4H48.5201ZM49.7301 27.71C50.0501 27.77 50.7701 28.33 50.7701 28.33L50.8101 28.28C50.8101 28.28 50.0701 27.7 49.7401 27.64L49.7201 27.71H49.7301ZM50.0101 28.5C50.0301 28.79 50.3401 28.97 50.3401 28.97L50.3801 28.91C50.3801 28.91 50.0901 28.74 50.0701 28.49H50.0001L50.0101 28.5ZM49.2401 28.57C49.2401 28.89 49.5401 29.27 49.5601 29.28L49.6101 29.24C49.6101 29.24 49.3101 28.86 49.3101 28.57H49.2401ZM48.2301 28.6C48.2801 28.71 48.2801 28.76 48.2601 28.78C48.2401 28.81 48.2101 28.81 48.2101 28.81V28.88C48.2101 28.88 48.2901 28.86 48.3201 28.81C48.3501 28.75 48.3401 28.67 48.2901 28.56L48.2301 28.59V28.6Z" fill="black"/>
<path d="M43.7002 27.04C43.7002 27.04 43.7102 27.25 43.8702 27.38C43.8702 27.38 43.8602 27.16 43.9102 27.06C43.9102 27.06 43.8202 26.96 43.7002 27.05V27.04ZM44.0302 27.16C44.0302 27.16 44.0702 27.36 44.1802 27.45H44.2502C44.2502 27.45 44.2802 27.19 44.3102 27.16C44.3502 27.14 44.1502 27.25 44.0202 27.16H44.0302Z" fill="white" stroke="black" stroke-width="0.03" stroke-miterlimit="3"/>
<path d="M44.3099 27.1599L44.4299 27.3599L44.5799 27.2699L44.5499 27.0399C44.5499 27.0399 44.4599 27.0199 44.2999 27.1499L44.3099 27.1599ZM44.8999 27.1999L44.7399 27.3399C44.7399 27.3399 44.6499 27.2799 44.5899 27.2799L44.6199 27.0699C44.6199 27.0699 44.7399 26.9799 44.9099 27.2099L44.8999 27.1999ZM43.7399 29.1999C43.7399 29.1999 43.7099 28.8999 43.7399 28.8899C43.7399 28.8899 43.8599 28.9299 43.9099 28.8899C43.9099 28.8899 43.9699 29.1199 43.9599 29.2199C43.9299 29.3199 43.8199 29.2799 43.7399 29.2199V29.1999ZM44.4899 28.8999C44.4899 28.8999 44.4799 28.6499 44.5099 28.6099C44.5099 28.6099 44.7599 28.6499 44.8099 28.5099L44.8999 28.7599C44.8999 28.7599 44.6399 28.7199 44.4799 28.8799H44.4899V28.8999Z" fill="white"/>
<path d="M44.5899 27.2801L44.4399 27.3701L44.3199 27.1701C44.4799 27.0301 44.5699 27.0601 44.5699 27.0601L44.5999 27.2901L44.5899 27.2801ZM44.5899 27.2801C44.6499 27.2801 44.7399 27.3401 44.7399 27.3401L44.8999 27.2001C44.7399 26.9701 44.6099 27.0601 44.6099 27.0601L44.5799 27.2701L44.5899 27.2801ZM43.7399 29.2001C43.7399 29.2001 43.7099 28.9001 43.7399 28.8901C43.7399 28.8901 43.8599 28.9301 43.9099 28.8901C43.9099 28.8901 43.9699 29.1201 43.9599 29.2201C43.9299 29.3201 43.8199 29.2801 43.7399 29.2201V29.2001ZM44.4899 28.9001C44.4899 28.9001 44.4799 28.6501 44.5099 28.6101C44.5099 28.6101 44.7599 28.6501 44.8099 28.5101L44.8999 28.7601C44.8999 28.7601 44.6399 28.7201 44.4799 28.8801H44.4899V28.9001Z" stroke="black" stroke-width="0.03" stroke-miterlimit="3"/>
<path d="M44.2302 28.9499C44.2302 28.9499 44.2702 28.6899 44.3202 28.6799C44.3202 28.6799 44.4402 28.7199 44.4802 28.6699V28.9999C44.4802 28.9999 44.4802 28.8599 44.2302 28.9599V28.9499ZM43.9402 28.9899C43.9402 28.9899 44.0002 28.7499 44.0402 28.7499C44.0802 28.7499 44.1602 28.8099 44.2102 28.7799V28.9499C44.2102 28.9499 44.0102 28.8999 43.9702 29.1899L43.9302 28.9899H43.9402Z" fill="white" stroke="black" stroke-width="0.03" stroke-miterlimit="3"/>
<path d="M47.71 33.7999C47.71 33.7999 48.36 34.4099 48.2 34.9499C48.2 34.9499 48.61 34.0399 48.16 33.7599C47.71 33.5099 47.7 33.6999 47.71 33.7999Z" fill="#00A651" stroke="black" stroke-width="0.06" stroke-miterlimit="4.8"/>
<path d="M46.88 34.39C46.88 34.39 46.7199 34.64 46.9099 34.8C46.9099 34.8 46.7 35.1 46.86 35.35C46.86 35.35 46.74 35.61 46.76 35.9C46.76 35.9 46.66 36.34 46.88 36.54C46.88 36.54 47.13 36.66 47.26 36.55C47.26 36.55 47.47 36.23 47.34 35.89C47.34 35.89 47.49 35.6 47.32 35.24C47.32 35.24 47.37 35.04 47.23 34.8C47.23 34.8 47.32 34.65 47.24 34.53C47.24 34.53 46.93 34.19 46.89 34.41L46.88 34.39Z" fill="#964B36" stroke="black" stroke-width="0.06" stroke-miterlimit="4.8"/>
<path d="M47.0602 33.62C47.0602 33.62 46.2902 32.12 45.7302 32.06C45.1802 32 45.1602 31.46 45.1602 31.46C45.1602 31.46 45.2202 31.71 45.6602 31.71C46.1002 31.71 46.9302 32.34 47.0402 32.8C47.1302 33.26 47.2302 33.2 47.2302 33.2L47.0702 33.62H47.0602Z" fill="#00A651" stroke="black" stroke-width="0.06" stroke-miterlimit="4.8"/>
<path d="M47.0598 33.51C47.0598 33.51 47.3498 31.62 48.5898 31.58C49.8298 31.56 49.4198 31.68 49.7098 31.48C49.7098 31.48 48.8798 31.91 48.3698 31.98C47.8498 32.03 47.4198 33.04 47.4498 33.23C47.4498 33.42 47.1598 33.78 47.0298 33.65C46.8798 33.53 47.0698 33.5 47.0698 33.5L47.0598 33.51Z" fill="#00A651" stroke="black" stroke-width="0.06" stroke-miterlimit="4.8"/>
<path d="M47.3498 34.22C47.3498 34.22 47.6399 33.47 48.1099 33.72C48.1099 33.72 47.7299 33 47.0599 33.62C47.0599 33.62 47.3598 34.03 47.3498 34.22ZM46.4098 33.47C46.4098 33.47 46.8099 35.15 46.1899 35.66C46.1899 35.66 46.2199 34.8 45.8299 34.28C45.4499 33.76 46.2099 33.19 46.4199 33.47H46.4098Z" fill="#00A651" stroke="black" stroke-width="0.06" stroke-miterlimit="4.8"/>
<path d="M46.4599 33.7599C46.4599 33.7599 47.1999 34.4699 47.2299 34.7099C47.2799 34.9299 47.4599 33.9999 47.1099 33.7299C46.7599 33.4699 46.3999 33.4199 46.3999 33.4199L46.4599 33.7699V33.7599Z" fill="#00A651" stroke="black" stroke-width="0.06" stroke-miterlimit="4.8"/>
<path d="M45.1001 35.62C45.1001 35.62 45.1601 35.91 45.3501 35.97C45.3501 35.97 45.3501 36.18 45.5201 36.25C45.5201 36.25 45.4301 36.44 45.5701 36.55C45.5701 36.55 45.5401 36.93 45.6701 36.99C45.6701 36.99 46.0101 36.98 46.1201 36.88C46.1201 36.88 46.1801 36.64 46.0001 36.41C46.0001 36.41 46.0401 36.18 45.8501 36.06C45.8501 36.06 45.9101 35.75 45.6701 35.64C45.6701 35.64 45.6301 35.39 45.5001 35.26C45.5001 35.26 45.2301 35.65 45.1001 35.64V35.62Z" fill="#964B36" stroke="black" stroke-width="0.06" stroke-miterlimit="4.8"/>
<path d="M45.46 35.25C45.46 35.25 44.5 34.9 43.96 35.4C43.96 35.4 44.7899 35.52 44.8799 35.69C44.9799 35.85 45.49 35.42 45.46 35.25Z" fill="#00A651" stroke="black" stroke-width="0.06" stroke-miterlimit="4.8"/>
<path d="M45.1601 35.85L44.9902 35.73C44.9002 35.65 44.0901 35.44 43.9801 36.23C43.9801 36.23 43.6801 35.44 44.1001 35.35C44.5401 35.23 44.8701 35.47 45.1601 35.85ZM44.5401 34.25C44.5401 34.25 44.8302 34.9 44.9402 34.92C45.0502 34.96 45.1302 34.85 45.1302 34.85C45.1302 34.85 44.7402 34.27 44.5302 34.25H44.5401ZM44.3102 33.26C44.3102 33.26 44.0602 32.43 43.7602 32.66C43.4602 32.87 43.5401 33.47 43.5401 33.47C43.5401 33.47 42.9501 32.85 43.2901 32.37C43.6401 31.88 44.3102 32.42 44.3102 33.26Z" fill="#00A651" stroke="black" stroke-width="0.06" stroke-miterlimit="4.8"/>
<path d="M44.9902 34.9699C44.9902 34.9699 44.9902 35.1299 45.1002 35.1699C45.2002 35.2199 45.4102 35.2899 45.4102 35.2099C45.4102 35.1299 45.2502 34.7499 45.1902 34.7999C45.1302 34.8499 45.0202 34.8499 44.9902 34.9699Z" fill="#964B36" stroke="black" stroke-width="0.06" stroke-miterlimit="4.8"/>
<path d="M44.8001 33.9999C44.8001 33.9999 44.7601 33.2899 45.2401 33.0099C45.2401 33.0099 45.3301 33.0399 45.3801 32.8899C45.3801 32.8899 45.0001 33.7999 45.1201 34.2699V34.3199" fill="#00A651"/>
<path d="M44.8001 33.9999C44.8001 33.9999 44.7601 33.2899 45.2401 33.0099C45.2401 33.0099 45.3301 33.0399 45.3801 32.8899C45.3801 32.8899 45.0001 33.7999 45.1201 34.2699V34.3199" stroke="black" stroke-width="0.06" stroke-miterlimit="4.8"/>
<path d="M44.8901 33.1199C44.8901 33.1199 45.7401 31.3699 46.7701 31.9799C46.7701 31.9799 45.6901 32.1899 45.3101 32.9699L44.9201 33.5499L44.8901 33.1299V33.1199Z" fill="#00A651" stroke="black" stroke-width="0.06" stroke-miterlimit="4.8"/>
<path d="M44.4401 33.76C44.4401 33.76 44.1901 32.59 44.0301 32.43C43.8801 32.27 43.62 32.1 43.29 32.37C43.29 32.37 43.84 31.88 44.41 32.29C45 32.69 44.8701 33.34 44.8701 33.34L44.8101 34.15L44.42 33.79" fill="#00A651"/>
<path d="M44.4401 33.76C44.4401 33.76 44.1901 32.59 44.0301 32.43C43.8801 32.27 43.62 32.1 43.29 32.37C43.29 32.37 43.84 31.88 44.41 32.29C45 32.69 44.8701 33.34 44.8701 33.34L44.8101 34.15L44.42 33.79" stroke="black" stroke-width="0.06" stroke-miterlimit="4.8"/>
<path d="M45.3497 35.1599C45.3497 35.1599 44.3098 33.1999 43.6398 34.5999C43.6398 34.5999 43.5198 34.9599 43.6498 35.0999C43.6498 35.0999 43.2698 34.8099 43.4498 34.1299C43.6298 33.4499 44.7597 33.7499 45.0997 34.3199C45.4197 34.8799 45.5097 35.1699 45.4797 35.1999C45.4297 35.2399 45.3597 35.1699 45.3597 35.1699L45.3497 35.1599ZM48.2598 35.7199C48.2598 35.7199 49.0098 34.1699 49.4498 34.8699C49.4498 34.8699 49.5698 35.2199 49.3898 35.3699C49.3898 35.3699 49.0898 34.9899 48.8298 35.4499C48.5498 35.8899 48.6697 35.8499 48.6697 35.8499C48.6697 35.8499 48.3898 35.9299 48.2698 35.7299L48.2598 35.7199Z" fill="#00A651" stroke="black" stroke-width="0.06" stroke-miterlimit="4.8"/>
<path d="M49.3799 35.3799C49.3799 35.3799 49.7899 35.5899 49.6599 36.0299C49.6599 36.0299 50.2099 34.9799 49.4599 34.8799C49.4599 34.8799 49.5999 35.2199 49.3999 35.3799H49.3899H49.3799ZM49.4399 34.2999C49.4399 34.2999 50.4299 34.5899 50.4499 35.0099C50.4499 35.0099 50.6199 34.1799 50.0599 33.9299C50.0599 33.9299 49.3899 34.0499 49.4399 34.3099V34.2999Z" fill="#00A651" stroke="black" stroke-width="0.06" stroke-miterlimit="4.8"/>
<path d="M49.8802 33.0001C50.3002 32.1701 50.8303 33.2601 50.8303 33.2601C50.8303 33.2601 51.0202 32.4001 50.4902 32.2501C49.9502 32.0901 49.6102 34.0901 49.6102 34.0901L48.9902 34.2101C48.9902 34.2101 49.1503 32.4801 50.0903 32.3301H50.2103" fill="#00A651"/>
<path d="M49.8802 33.0001C50.3002 32.1701 50.8303 33.2601 50.8303 33.2601C50.8303 33.2601 51.0202 32.4001 50.4902 32.2501C49.9502 32.0901 49.6102 34.0901 49.6102 34.0901L48.9902 34.2101C48.9902 34.2101 49.1503 32.4801 50.0903 32.3301H50.2103" stroke="black" stroke-width="0.06" stroke-miterlimit="4.8"/>
<path d="M49.13 33.5001C49.13 33.5001 48.53 32.2801 48.13 32.1501C47.73 32.0301 48.34 31.8401 48.59 32.0701C48.84 32.3101 49.32 32.6101 49.26 33.2301L49.12 33.4901L49.13 33.5001ZM48.51 35.1701C48.51 35.1701 48.68 34.3401 49.16 34.0901C49.64 33.8401 50.07 33.9301 50.07 33.9301C50.07 33.9301 49.51 34.0501 49.41 34.3401C49.32 34.6201 49.16 34.6401 49.16 34.6401L48.52 35.1601H48.51V35.1701Z" fill="#00A651" stroke="black" stroke-width="0.06" stroke-miterlimit="4.8"/>
<path d="M48.2501 35.72C48.2501 35.72 48.0001 36.22 48.0501 36.3C48.0501 36.3 47.7801 36.71 47.8901 36.92C47.8901 36.92 48.1701 37.13 48.2901 37.04C48.2901 37.04 48.6101 36.58 48.5301 36.33C48.5301 36.33 48.7501 36.03 48.6701 35.84C48.6701 35.84 48.3401 35.85 48.2701 35.72H48.2601H48.2501Z" fill="#964B36" stroke="black" stroke-width="0.06" stroke-miterlimit="4.8"/>
<path d="M46.8801 34.83C46.8801 34.83 47.07 34.92 47.17 34.88L47.2401 34.82L47.1801 34.79C47.1401 34.87 46.97 34.8 46.92 34.78L46.8901 34.83H46.8801ZM46.8701 35.33L46.85 35.39C46.85 35.39 47.1901 35.45 47.3401 35.31L47.29 35.26C47.17 35.37 46.8801 35.31 46.8701 35.31H46.8801L46.8701 35.33ZM46.7801 35.88L46.7401 35.93C46.7401 35.93 47.12 36.19 47.35 35.91L47.29 35.87C47.1 36.11 46.7901 35.9 46.7801 35.87V35.88ZM45.3401 35.96V36C45.3401 36 45.6801 35.88 45.7001 35.64H45.66C45.65 35.84 45.3501 35.97 45.3301 35.97L45.3401 35.96ZM45.5101 36.25V36.29C45.5101 36.29 45.8201 36.26 45.8701 36.06H45.8301C45.7801 36.22 45.5201 36.25 45.5001 36.25H45.5101ZM45.5701 36.55V36.59C45.5701 36.59 45.9101 36.6 46.0201 36.43L45.98 36.41C45.88 36.57 45.5701 36.56 45.5701 36.56V36.55ZM48.0301 36.34C48.0301 36.34 48.1701 36.49 48.3301 36.48C48.3701 36.48 48.4101 36.47 48.4501 36.45C48.4901 36.43 48.52 36.41 48.55 36.38L48.5001 36.33C48.4501 36.39 48.4001 36.42 48.3401 36.42C48.2201 36.42 48.0901 36.3 48.0901 36.3L48.04 36.35L48.0301 36.34Z" fill="black"/>
<path d="M57.7499 37.4701C57.7499 37.4701 57.72 37.4901 57.71 37.5101L57.7599 37.4701H57.7499ZM58.9099 37.1801C58.9099 37.1801 58.8899 37.1701 58.8699 37.1501L58.8199 37.0501H58.78L58.6899 36.8801C58.6899 36.8801 58.6899 36.8501 58.6899 36.8401C58.6899 36.8201 58.6899 36.8101 58.6899 36.7901C58.6899 36.7901 58.66 36.7901 58.65 36.7701V36.5101C58.65 36.5101 58.5999 36.4201 58.5999 36.3701V36.2501C58.5999 36.2501 58.59 36.1701 58.59 36.1301V36.0201L58.5999 35.3501V35.2301L58.5699 35.1801V34.9801V35.3001L58.5399 34.7601L58.1199 34.5601C58.1199 34.5601 58.08 35.3401 58.09 35.4401C58.09 35.5501 58.1399 36.2801 58.1199 36.3601L58.0599 36.9001C58.0599 36.9001 57.86 37.0501 57.78 37.2001C57.69 37.3601 57.7199 37.4101 57.6899 37.4101L57.8799 37.3801L57.7399 37.4801C57.7399 37.4801 57.7699 37.4801 57.7899 37.4801C57.8099 37.4801 57.82 37.4801 57.83 37.5001L57.8599 37.5301L57.89 37.5001C57.89 37.5001 57.9499 37.5501 57.9799 37.5401L58.03 37.5101L58.0599 37.4601C58.0599 37.4601 58.0999 37.4601 58.1099 37.4601H58.2C58.2 37.4601 58.2699 37.4001 58.3099 37.3701C58.3399 37.3501 58.36 37.3301 58.4 37.3301C58.44 37.3301 58.47 37.3701 58.52 37.3701C58.55 37.3701 58.56 37.3701 58.58 37.3501L58.6299 37.2701H58.7299H58.78H58.8599L58.9 37.2901L58.9299 37.2401V37.1901L58.9099 37.1801Z" fill="#964B36"/>
<path d="M57.7599 37.4701L57.71 37.51C57.71 37.51 57.7299 37.4801 57.7499 37.4701H57.7599ZM57.7599 37.4701L57.9 37.37L57.71 37.4001C57.71 37.4001 57.7099 37.35 57.7999 37.19C57.8699 37.04 58.08 36.89 58.08 36.89L58.14 36.35C58.16 36.26 58.1099 35.54 58.1099 35.43C58.0999 35.33 58.14 34.55 58.14 34.55L58.5599 34.75L58.59 35.2901V34.9701V35.2201L58.6199 35.34V36.1301C58.6199 36.1301 58.6299 36.21 58.6199 36.25V36.37C58.6199 36.37 58.6299 36.47 58.6599 36.51V36.57L58.6699 36.7701C58.6799 36.7901 58.71 36.7901 58.71 36.7901C58.71 36.8101 58.71 36.82 58.71 36.84C58.71 36.85 58.71 36.8701 58.71 36.8801L58.7999 37.05H58.84L58.89 37.1501C58.89 37.1501 58.9199 37.15 58.9299 37.18V37.23L58.9199 37.28L58.8799 37.26H58.7599H58.6599L58.6099 37.34C58.6099 37.34 58.5699 37.3601 58.5499 37.3601C58.4999 37.3601 58.4599 37.32 58.4299 37.32C58.3999 37.32 58.37 37.3301 58.34 37.3601C58.3 37.3901 58.2699 37.4501 58.2299 37.4501H58.14C58.14 37.4501 58.1 37.4401 58.09 37.4501L58.0599 37.5L58.0099 37.53C58.0099 37.53 57.9599 37.4901 57.9199 37.4901L57.89 37.5201L57.8599 37.4901C57.8599 37.4901 57.8299 37.4701 57.8199 37.4701C57.7999 37.4701 57.79 37.4701 57.77 37.4701H57.7599Z" stroke="black" stroke-width="0.04" stroke-miterlimit="4.8"/>
<path d="M58.0599 37.4601H58.1399V37.4801C58.1399 37.4801 58.14 37.4801 58.15 37.4801C58.16 37.4801 58.1499 37.4801 58.1599 37.4801L58.1999 37.5101H58.2899C58.2899 37.5101 58.3399 37.5201 58.3699 37.5101C58.3999 37.4801 58.4099 37.5101 58.4399 37.5301C58.4399 37.5301 58.4499 37.5301 58.4699 37.5301H58.4799L58.52 37.5101H58.5599L58.6099 37.4701L58.6599 37.5001C58.6599 37.5001 58.6799 37.5001 58.6899 37.5001L58.78 37.4401C58.78 37.4401 58.8399 37.4401 58.8699 37.4401H58.9099C58.9099 37.4401 58.93 37.4401 58.96 37.4401C58.96 37.4301 58.9599 37.4101 58.9899 37.4001L59.0799 37.4501C59.0799 37.4501 59.17 37.4701 59.15 37.4201C59.15 37.3701 59.1 37.4101 59.09 37.3701V37.2901C59.09 37.2901 59.0699 37.2501 59.0499 37.2401C59.0199 37.2401 59.0199 37.2501 58.9999 37.2401L58.9799 37.1601L58.9399 37.1901C58.9399 37.1901 58.92 37.1801 58.9 37.1501C58.86 37.1101 58.8499 37.1801 58.8099 37.1601C58.7899 37.1601 58.7599 37.1001 58.7499 37.0701C58.7399 37.0601 58.7099 37.0101 58.6899 37.0201C58.6699 37.0301 58.6899 37.0801 58.6899 37.1101H58.6299C58.6299 37.1101 58.61 37.1101 58.59 37.1401C58.56 37.1901 58.5499 37.2301 58.4999 37.2101C58.4899 37.2101 58.4599 37.2001 58.4499 37.2101L58.3899 37.2401C58.3899 37.2401 58.36 37.2401 58.34 37.2401L58.2899 37.1901C58.2899 37.1901 58.29 37.1701 58.28 37.1601C58.28 37.1601 58.2666 37.1734 58.2399 37.2001V37.2601L58.1899 37.3101H58.1399C58.1399 37.3101 58.09 37.3601 58.09 37.3201C58.07 37.2701 58.1299 37.1801 58.0699 37.2001C58.0599 37.2001 58.04 37.2001 58.03 37.2201V37.3101C58.03 37.3101 57.94 37.4101 57.96 37.4301C57.96 37.4701 58.0099 37.4301 58.0099 37.4301L58.03 37.4801C58.03 37.4801 58.1199 37.4301 58.1199 37.4801M57.8599 37.1401V37.1201H57.8099C57.8099 37.1201 57.7599 37.1401 57.7499 37.1601C57.7199 37.2101 57.7199 37.2801 57.6799 37.2801H57.6199V37.4001C57.6199 37.4001 57.59 37.4001 57.59 37.4301C57.58 37.4801 57.6199 37.4501 57.6399 37.4501H57.8299C57.8299 37.4501 57.8799 37.4401 57.8899 37.4101C57.8899 37.3901 57.9099 37.3801 57.9099 37.3601V37.3101C57.9099 37.3101 57.9499 37.3001 57.9499 37.2601C57.9599 37.1701 57.8699 37.2401 57.8899 37.1501" fill="#964B36"/>
<path d="M58.0599 37.4601H58.1399V37.4801C58.1399 37.4801 58.14 37.4801 58.15 37.4801C58.16 37.4801 58.1499 37.4801 58.1599 37.4801L58.1999 37.5101H58.2899C58.2899 37.5101 58.3399 37.5201 58.3699 37.5101C58.3999 37.4801 58.4099 37.5101 58.4399 37.5301C58.4399 37.5301 58.4499 37.5301 58.4699 37.5301H58.4799L58.52 37.5101H58.5599L58.6099 37.4701L58.6599 37.5001C58.6599 37.5001 58.6799 37.5001 58.6899 37.5001L58.78 37.4401C58.78 37.4401 58.8399 37.4401 58.8699 37.4401H58.9099C58.9099 37.4401 58.93 37.4401 58.96 37.4401C58.96 37.4301 58.9599 37.4101 58.9899 37.4001L59.0799 37.4501C59.0799 37.4501 59.17 37.4701 59.15 37.4201C59.15 37.3701 59.1 37.4101 59.09 37.3701V37.2901C59.09 37.2901 59.0699 37.2501 59.0499 37.2401C59.0199 37.2401 59.0199 37.2501 58.9999 37.2401L58.9799 37.1601L58.9399 37.1901C58.9399 37.1901 58.92 37.1801 58.9 37.1501C58.86 37.1101 58.8499 37.1801 58.8099 37.1601C58.7899 37.1601 58.7599 37.1001 58.7499 37.0701C58.7399 37.0601 58.7099 37.0101 58.6899 37.0201C58.6699 37.0301 58.6899 37.0801 58.6899 37.1101H58.6299C58.6299 37.1101 58.61 37.1101 58.59 37.1401C58.56 37.1901 58.5499 37.2301 58.4999 37.2101C58.4899 37.2101 58.4599 37.2001 58.4499 37.2101L58.3899 37.2401C58.3899 37.2401 58.36 37.2401 58.34 37.2401L58.2899 37.1901C58.2899 37.1901 58.29 37.1701 58.28 37.1601C58.28 37.1601 58.2666 37.1734 58.2399 37.2001V37.2601L58.1899 37.3101H58.1399C58.1399 37.3101 58.09 37.3601 58.09 37.3201C58.07 37.2701 58.1299 37.1801 58.0699 37.2001C58.0599 37.2001 58.04 37.2001 58.03 37.2201V37.3101C58.03 37.3101 57.94 37.4101 57.96 37.4301C57.96 37.4701 58.0099 37.4301 58.0099 37.4301L58.03 37.4801C58.03 37.4801 58.1199 37.4301 58.1199 37.4801M57.8599 37.1401V37.1201H57.8099C57.8099 37.1201 57.7599 37.1401 57.7499 37.1601C57.7199 37.2101 57.7199 37.2801 57.6799 37.2801H57.6199V37.4001C57.6199 37.4001 57.59 37.4001 57.59 37.4301C57.58 37.4801 57.6199 37.4501 57.6399 37.4501H57.8299C57.8299 37.4501 57.8799 37.4401 57.8899 37.4101C57.8899 37.3901 57.9099 37.3801 57.9099 37.3601V37.3101C57.9099 37.3101 57.9499 37.3001 57.9499 37.2601C57.9599 37.1701 57.8699 37.2401 57.8899 37.1501" stroke="black" stroke-width="0.04" stroke-miterlimit="4.8"/>
<path d="M58.8499 34.74C58.8499 34.85 58.7799 34.94 58.6799 34.94C58.5899 34.94 58.4999 34.85 58.4999 34.74C58.4999 34.63 58.5899 34.54 58.6799 34.54C58.7799 34.54 58.8499 34.63 58.8499 34.74ZM58.2899 34.49C58.2899 34.6 58.2199 34.69 58.1199 34.69C58.0199 34.69 57.9399 34.6 57.9399 34.49C57.9399 34.37 58.0299 34.29 58.1199 34.29C58.2099 34.29 58.2899 34.38 58.2899 34.49Z" fill="black" stroke="black" stroke-width="0.06" stroke-miterlimit="4.8"/>
<path d="M58.5903 34.5601C58.5903 34.6801 58.5102 34.7601 58.4102 34.7601C58.3102 34.7601 58.2402 34.6701 58.2402 34.5601C58.2402 34.4501 58.3102 34.3601 58.4102 34.3601C58.5102 34.3601 58.5903 34.4501 58.5903 34.5601Z" fill="black" stroke="black" stroke-width="0.06" stroke-miterlimit="4.8"/>
<path d="M58.2999 34.75C58.2999 34.86 58.2199 34.9501 58.1199 34.9501C58.0199 34.9501 57.9399 34.86 57.9399 34.75C57.9399 34.64 58.0199 34.55 58.1199 34.55C58.2199 34.55 58.2999 34.64 58.2999 34.75Z" fill="black" stroke="black" stroke-width="0.06" stroke-miterlimit="4.8"/>
<path d="M58.5599 34.91C58.5599 35.01 58.4799 35.11 58.3799 35.11C58.2899 35.11 58.21 35.02 58.21 34.91C58.21 34.79 58.2999 34.7 58.3799 34.7C58.4799 34.7 58.5599 34.79 58.5599 34.9V34.91Z" fill="black" stroke="black" stroke-width="0.06" stroke-miterlimit="4.8"/>
<path d="M58.6498 32.69C58.6498 32.69 60.3898 30.27 62.2498 32.78C62.2498 32.78 62.2598 33.03 62.0898 33.3L62.0497 33.09L61.9297 33.13L61.8998 33.01H61.6998L61.7598 32.72L61.5497 32.89L61.5698 32.7L61.3198 32.95L61.3597 32.41L61.0798 32.87L61.1198 32.56L61.0198 32.7L60.9697 32.51L60.8798 32.7L60.7598 32.61V32.73L60.5397 32.54L60.4697 32.79L60.3597 32.52L60.3298 32.71L60.2197 32.5V32.74L59.8398 32.58L59.9097 32.8L59.7498 32.68L59.7798 32.8L59.5397 32.75L59.5698 32.89L59.3198 32.84L59.3597 32.96L59.0198 32.92L59.1398 33.04L59.0997 33.12C59.0997 33.12 60.9797 32.5 61.0997 34.84L60.7598 35L60.8597 34.81L60.7598 34.75L60.4697 34.54L60.5598 34.24L60.4598 34.28V34.11L60.3998 34.14L60.2897 33.98L60.2598 34.04L60.1898 33.83L60.0997 33.98L60.0598 33.63L59.9398 33.85L59.9097 33.73L59.8698 33.81L59.7098 33.62L59.6597 33.74L59.5997 33.64L59.5598 33.76L59.3798 33.59V33.71L59.2598 33.62L59.2197 33.68L58.9598 33.54V33.66L58.7997 33.54L58.7598 33.66C58.7598 33.66 60.4598 34.64 59.9398 36.21L59.8398 36.41L59.8098 35.89L59.6498 36.16L59.7598 35.55L59.6498 35.67V35.42L59.4998 35.67L59.4498 35.39L59.3898 35.47L59.2897 35.07L59.2197 35.23L59.0997 34.78L58.9998 34.97L58.9398 34.58L58.8798 34.82L58.6898 34.47L58.6597 34.61L58.5497 34.33L58.4897 34.42C58.4897 34.42 58.1798 34.41 58.0798 34.33C57.9898 34.24 57.7297 34.79 57.7297 34.79L57.7598 34.46L57.6498 34.69V34.46L57.4498 35.12L57.3998 34.64L57.2997 35.05L57.2498 34.93L57.2098 35.09L57.1498 35.03L57.0997 35.22L56.9998 35.14V35.39L56.8998 35.27L56.8298 35.65L56.7798 35.5V35.66L56.7098 35.57L56.6298 35.95L56.5098 35.79V36.07L56.5497 36.27L56.4297 36.21L56.4797 36.54C56.4797 36.54 55.9898 35.64 56.5798 34.77C57.1598 33.89 57.9398 33.65 57.9398 33.65L57.8497 33.57V33.49L57.3798 33.73V33.59L57.2598 33.69L57.2297 33.54L57.1597 33.68V33.62L57.0198 33.79L56.9697 33.54L56.8898 33.84L56.8198 33.63L56.6597 34.07V33.74L56.5397 34.09L56.4897 33.71L56.3998 34.14V33.76L56.2498 34.14L56.1597 33.76L56.0997 34.14L55.9998 33.85L55.9097 34.27L55.7598 33.89L55.6797 34.45L55.5898 34.23L55.5598 34.64L55.4598 34.39L55.5598 34.92L55.4398 34.72L55.4797 35.05L55.2798 34.69V35.11L55.1797 34.97L55.1298 35.13C55.1298 35.13 55.0898 33.51 56.1998 33.18C57.3098 32.87 58.0298 33.28 58.0298 33.28L57.5997 32.93L57.6498 32.82H57.4998L57.5598 32.7H57.2197L57.3198 32.59L57.0698 32.63V32.55L56.9097 32.67L56.9697 32.52L56.7598 32.67V32.46L56.6198 32.64L56.5698 32.45L56.0698 32.95L56.1898 32.44L56.0997 32.55V32.43L55.9498 32.65L55.9097 32.5L55.8497 32.69L55.7997 32.46L55.6998 32.69L55.5798 32.49L55.5397 32.75L55.4697 32.61L55.3698 32.81L55.2498 32.69V32.81L54.9998 32.7L55.0497 32.89L54.8597 32.74L54.8098 32.99L54.7098 32.87L54.6198 33.18L54.5397 32.88L54.4697 33.12C54.4697 33.12 55.4397 30.6 57.9197 32.24C57.9197 32.24 58.1998 32.5 58.2598 32.69C58.3198 32.88 58.2698 32.71 58.2698 32.71L58.2197 30.97L58.3198 31.72L58.3798 31.47V31.85L58.6198 31.31C58.6198 31.31 58.3197 32.21 58.4297 32.55C58.4297 32.55 58.5397 31.5 58.9197 31.38L58.5698 32.13H58.6797L58.5997 32.27H58.6898L58.5798 32.52L58.5198 32.64L58.5798 32.76L58.6797 32.67L58.6498 32.69Z" fill="#00A651" stroke="black" stroke-width="0.06" stroke-miterlimit="4.8"/>
<path d="M58.3901 33.7001L58.4401 33.7501C58.4401 33.7501 58.6001 33.5801 58.8701 33.8001L58.91 33.7501C58.6 33.4901 58.41 33.7001 58.41 33.7001H58.4001H58.3901ZM58.3201 32.8501V32.9101L58.4301 32.8601L58.3401 33.0101L58.5301 32.9501L58.3101 33.2401L58.36 33.2801L58.72 32.8201L58.5001 32.9001L58.6 32.7401L58.4001 32.8201L58.4401 32.5801H58.3801L58.3301 32.8701L58.3201 32.8501Z" fill="black"/>
<path d="M57.99 32.88L58.06 33.04L57.94 32.99L58.3 33.64L58.35 33.58L58.28 33.77L58.34 33.79L58.49 33.39L58.44 33.35L58.32 33.51L58.1 33.12L58.2 33.16L58.1 32.95L58.24 33.03V32.79H58.18V32.91L57.96 32.77L58.01 32.87L57.99 32.88ZM57.75 33.68L57.78 33.74C57.88 33.7 57.97 33.69 58.03 33.72C58.09 33.76 58.12 33.83 58.12 33.84L58.18 33.81C58.18 33.81 58.15 33.7 58.06 33.66C57.98 33.62 57.88 33.62 57.76 33.67L57.75 33.68ZM58.04 34.35L57.98 34H58.06L58.11 34.34H58.05L58.04 34.35ZM58.51 34.3L58.42 34.03H58.48L58.57 34.27L58.51 34.31V34.3ZM58.69 34.49L58.63 34.23H58.69L58.76 34.48H58.69V34.49Z" fill="black"/>
<path d="M45.33 42.5299C45.33 42.5299 45.03 42.4099 44.89 42.4999C44.77 42.5899 44.78 42.7399 44.66 42.7199C44.66 42.7199 45.11 42.8199 45.2 42.7099L45.32 42.5599M45.37 42.6499C45.37 42.6499 45.17 42.8999 45.25 43.0599C45.31 43.2099 45.46 43.2199 45.42 43.3399C45.42 43.3399 45.61 42.9299 45.52 42.7999C45.43 42.6799 45.4 42.6599 45.4 42.6599M45.05 41.9399C45.05 41.9399 44.74 42.0399 44.7 42.1899C44.67 42.3599 44.77 42.4499 44.69 42.5299C44.69 42.5299 45.09 42.2999 45.08 42.1499V41.9599M45.23 42.0499C45.23 42.0499 45.38 41.7599 45.29 41.6299C45.19 41.4799 45.04 41.5099 45.07 41.3799C45.07 41.3799 44.95 41.8199 45.07 41.9299L45.21 42.0499M44.93 41.9399C44.93 41.9399 44.93 41.6099 44.81 41.5399C44.66 41.4499 44.54 41.5299 44.5 41.4199C44.5 41.4199 44.59 41.8699 44.73 41.9199L44.92 41.9599M45.47 42.4799C45.47 42.4799 45.81 42.3599 45.85 42.7299C45.88 43.1099 45.82 42.9799 45.82 42.9799C45.82 42.9799 45.65 42.5799 45.44 42.5199L45.47 42.4799Z" fill="#00A651"/>
<path d="M45.33 42.5299C45.33 42.5299 45.03 42.4099 44.89 42.4999C44.77 42.5899 44.78 42.7399 44.66 42.7199C44.66 42.7199 45.11 42.8199 45.2 42.7099L45.32 42.5599M45.37 42.6499C45.37 42.6499 45.17 42.8999 45.25 43.0599C45.31 43.2099 45.46 43.2199 45.42 43.3399C45.42 43.3399 45.61 42.9299 45.52 42.7999C45.43 42.6799 45.4 42.6599 45.4 42.6599M45.05 41.9399C45.05 41.9399 44.74 42.0399 44.7 42.1899C44.67 42.3599 44.77 42.4499 44.69 42.5299C44.69 42.5299 45.09 42.2999 45.08 42.1499V41.9599M45.23 42.0499C45.23 42.0499 45.38 41.7599 45.29 41.6299C45.19 41.4799 45.04 41.5099 45.07 41.3799C45.07 41.3799 44.95 41.8199 45.07 41.9299L45.21 42.0499M44.93 41.9399C44.93 41.9399 44.93 41.6099 44.81 41.5399C44.66 41.4499 44.54 41.5299 44.5 41.4199C44.5 41.4199 44.59 41.8699 44.73 41.9199L44.92 41.9599M45.47 42.4799C45.47 42.4799 45.81 42.3599 45.85 42.7299C45.88 43.1099 45.82 42.9799 45.82 42.9799C45.82 42.9799 45.65 42.5799 45.44 42.5199L45.47 42.4799Z" stroke="black" stroke-width="0.06" stroke-miterlimit="4.8"/>
<path d="M45.3801 42.66L45.4101 42.94H45.4601L45.4201 42.66L45.5401 42.05H45.4901L45.3701 42.66H45.3801Z" fill="black"/>
<path d="M45.06 42.58V42.62C45.21 42.68 45.42 42.5 45.44 42.5L45.41 42.46C45.41 42.46 45.2 42.62 45.06 42.58ZM45.48 42.22L44.73 41.84L44.76 41.78L45.51 42.16L45.48 42.22Z" fill="black"/>
<path d="M44.9401 42.1199L44.8901 42.0699L45.0401 41.9199L45.0901 41.9699L44.9401 42.1199ZM45.2001 42.0399L45.0401 41.6899L45.1001 41.6599L45.2601 42.0099L45.2001 42.0299V42.0399ZM45.4301 42.4599V42.5399C45.6401 42.5299 45.6801 42.6599 45.6801 42.6599L45.7501 42.6399C45.7501 42.6399 45.6601 42.4499 45.4301 42.4599Z" fill="black"/>
<path d="M48.9002 42.6199C49.1502 42.4999 49.2002 41.9999 49.2002 41.9999C49.1402 42.1699 48.6802 42.3599 48.6802 42.3599C49.0202 42.1499 49.4302 41.1899 49.4302 41.1899C49.3302 41.5299 48.4302 41.8099 47.8502 42.1399C47.2702 42.4699 47.5702 43.3899 47.5702 43.3899C47.4102 43.2799 47.1002 42.7899 47.0302 42.3499C46.9602 41.9099 46.8002 41.7399 46.4102 41.6899C46.0202 41.6399 45.7902 42.0899 45.7902 42.0899L45.2002 42.3899L45.8002 42.4099C45.8002 42.4099 46.2202 42.5499 46.2202 42.8899C46.2202 43.2299 45.8402 44.5499 46.4702 45.2999C46.8802 45.8099 48.4702 46.1099 48.4702 46.1099" fill="white"/>
<path d="M48.9002 42.6199C49.1502 42.4999 49.2002 41.9999 49.2002 41.9999C49.1402 42.1699 48.6802 42.3599 48.6802 42.3599C49.0202 42.1499 49.4302 41.1899 49.4302 41.1899C49.3302 41.5299 48.4302 41.8099 47.8502 42.1399C47.2702 42.4699 47.5702 43.3899 47.5702 43.3899C47.4102 43.2799 47.1002 42.7899 47.0302 42.3499C46.9602 41.9099 46.8002 41.7399 46.4102 41.6899C46.0202 41.6399 45.7902 42.0899 45.7902 42.0899L45.2002 42.3899L45.8002 42.4099C45.8002 42.4099 46.2202 42.5499 46.2202 42.8899C46.2202 43.2299 45.8402 44.5499 46.4702 45.2999C46.8802 45.8099 48.4702 46.1099 48.4702 46.1099" stroke="black" stroke-width="0.09" stroke-miterlimit="4.8"/>
<path d="M47.7402 43.6601C47.7402 43.6601 47.8602 43.0601 48.2502 43.0901C48.6402 43.1101 48.7502 42.6401 48.9902 42.5801C49.2302 42.5001 50.4302 42.1801 50.5502 41.6001C50.5502 41.6001 50.4403 42.5501 49.3403 43.0301C49.3403 43.0301 50.2303 42.7401 50.3403 42.5401C50.3403 42.5401 49.9402 43.3901 48.9802 43.5301C48.9802 43.5301 49.8803 43.4501 50.0103 43.2201C50.0103 43.2201 49.6103 43.7401 48.9503 43.8201C48.9503 43.8201 49.5802 44.0701 49.7302 43.8601C49.7302 43.8601 49.3902 44.2601 48.9802 44.2901L49.1002 44.3101C49.1002 44.3101 48.7003 44.7901 48.2603 44.4701C47.8203 44.1501 47.8102 44.5401 47.8102 44.5401" fill="white"/>
<path d="M47.7402 43.6601C47.7402 43.6601 47.8602 43.0601 48.2502 43.0901C48.6402 43.1101 48.7502 42.6401 48.9902 42.5801C49.2302 42.5001 50.4302 42.1801 50.5502 41.6001C50.5502 41.6001 50.4403 42.5501 49.3403 43.0301C49.3403 43.0301 50.2303 42.7401 50.3403 42.5401C50.3403 42.5401 49.9402 43.3901 48.9802 43.5301C48.9802 43.5301 49.8803 43.4501 50.0103 43.2201C50.0103 43.2201 49.6103 43.7401 48.9503 43.8201C48.9503 43.8201 49.5802 44.0701 49.7302 43.8601C49.7302 43.8601 49.3902 44.2601 48.9802 44.2901L49.1002 44.3101C49.1002 44.3101 48.7003 44.7901 48.2603 44.4701C47.8203 44.1501 47.8102 44.5401 47.8102 44.5401" stroke="black" stroke-width="0.09" stroke-miterlimit="4.8"/>
<path d="M48.6299 44.5601C48.6299 44.5601 49.1399 45.4101 49.1899 45.8601C49.1899 45.8601 50.17 46.9201 50.53 46.9801C50.53 46.9801 50.36 47.0601 50.03 46.7901C50.03 46.7901 50.2999 47.0701 50.3599 47.0801C50.4099 47.0801 50.1499 47.0501 50.1099 46.9801C50.1599 47.0501 50.22 47.1201 50.28 47.1701L50.2199 47.1501C50.2199 47.1501 50.1 47.1401 50.02 47.0901C49.96 47.0401 50.0099 47.2101 50.0099 47.2101C50.0099 47.2101 49.8599 47.1701 49.8099 47.1201C49.7599 47.0701 49.8199 47.2301 49.8199 47.2301L49.7 47.1901L49.5999 47.2501C49.5999 47.2501 49.5999 47.3101 49.5399 47.2501C49.4799 47.2101 49.3699 47.2501 49.3699 47.2501C49.3699 47.2501 49.2899 47.3301 49.2499 47.2701C49.2099 47.2201 49.0599 47.4701 49.0599 47.4701L48.4399 45.9301" fill="white"/>
<path d="M48.6299 44.5601C48.6299 44.5601 49.1399 45.4101 49.1899 45.8601C49.1899 45.8601 50.17 46.9201 50.53 46.9801C50.53 46.9801 50.36 47.0601 50.03 46.7901C50.03 46.7901 50.2999 47.0701 50.3599 47.0801C50.4099 47.0801 50.1499 47.0501 50.1099 46.9801C50.1599 47.0501 50.22 47.1201 50.28 47.1701L50.2199 47.1501C50.2199 47.1501 50.1 47.1401 50.02 47.0901C49.96 47.0401 50.0099 47.2101 50.0099 47.2101C50.0099 47.2101 49.8599 47.1701 49.8099 47.1201C49.7599 47.0701 49.8199 47.2301 49.8199 47.2301L49.7 47.1901L49.5999 47.2501C49.5999 47.2501 49.5999 47.3101 49.5399 47.2501C49.4799 47.2101 49.3699 47.2501 49.3699 47.2501C49.3699 47.2501 49.2899 47.3301 49.2499 47.2701C49.2099 47.2201 49.0599 47.4701 49.0599 47.4701L48.4399 45.9301" stroke="black" stroke-width="0.09" stroke-miterlimit="4.8"/>
<path d="M49.2399 47.3401L48.4399 45.8101L48.52 45.7601L49.3199 47.3001L49.2399 47.3401ZM49.9399 47.2401L48.5599 45.7001L48.64 45.6401L50.02 47.1801L49.9399 47.2401ZM50.2499 47.1201L48.6899 45.6301L48.7499 45.5701L50.3099 47.0301L50.2499 47.1201Z" fill="black"/>
<path d="M46.3198 42.1701C46.3198 42.1701 46.2198 41.9901 46.1298 42.0601C46.0498 42.1301 45.9997 42.1401 45.9797 42.1301C45.9797 42.1301 46.0598 42.1301 46.1198 42.0901C46.1698 42.0401 46.2498 42.0701 46.3198 42.1701ZM45.7698 42.0901L45.8298 42.2101L45.7598 42.4001L45.8098 42.4201L45.8698 42.2101L45.8098 42.0801L45.7698 42.1001V42.0901Z" fill="black"/>
<path d="M46.2997 42.1499C46.2997 42.1499 46.2198 42.2299 46.1198 42.2199L46.0098 42.1999H46.1597C46.2197 42.1999 46.2897 42.1699 46.2997 42.1599V42.1499Z" fill="black"/>
<path d="M46.2799 42.1599C46.2799 42.1599 46.1799 42.0599 46.1099 42.0899C46.1099 42.0899 46.2299 42.0499 46.2899 42.1499H46.2699L46.2799 42.1599Z" fill="black"/>
<path d="M46.2601 42.1499C46.2601 42.1499 46.15 42.2199 46.04 42.1499V42.1299C46.04 42.1299 46.1801 42.1899 46.2601 42.1499Z" fill="black"/>
<path d="M46.1701 42.1601C46.1701 42.1601 46.2001 42.1501 46.2001 42.1301C46.2001 42.1101 46.1901 42.1001 46.1701 42.1001C46.1501 42.1001 46.1401 42.1101 46.1401 42.1301C46.1401 42.1501 46.1501 42.1601 46.1701 42.1601Z" fill="black"/>
<path d="M46.2499 44.9499C46.2499 44.9499 46.1599 45.0999 46.2099 45.1999C46.2499 45.2899 46.4599 45.3199 46.4699 45.4499C46.4899 45.5699 46.5699 45.5699 46.6599 45.5699L46.7699 45.5299C46.7699 45.5299 46.3799 45.3299 46.2699 44.9899L46.2399 44.9399L46.2499 44.9499Z" fill="black"/>
<path d="M58.6798 41.85C58.6798 41.85 59.3798 40.93 59.9998 41.16C60.6198 41.41 61.0098 41.54 61.0098 41.54C61.0098 41.54 61.0198 42.15 60.6998 42.15C60.3798 42.15 60.0498 41.53 59.7498 41.71C59.5198 41.84 59.3298 42.02 59.1898 42.23C59.1798 42.32 58.3998 42.33 58.6798 41.84V41.85Z" fill="#964B36" stroke="black" stroke-width="0.04" stroke-miterlimit="4.8"/>
<path d="M56.0298 46.3001C56.0298 46.3001 55.8298 46.5001 55.9198 46.5501C56.0098 46.6001 56.1798 46.5501 56.1798 46.4701C56.1798 46.3901 56.0598 46.2701 56.0298 46.3001Z" fill="#964B36" stroke="black" stroke-width="0.06" stroke-miterlimit="4.8"/>
<path d="M55.8801 46.5001C55.8801 46.5001 55.5001 46.2901 55.2301 46.7801C54.9401 47.2501 54.7201 48.0401 54.5601 48.1601C54.4001 48.2601 56.1601 47.3801 56.1801 47.0101C56.1801 47.0101 56.2901 46.5401 56.1001 46.5501C55.9101 46.5501 55.9001 46.5701 55.8601 46.5001H55.8701H55.8801Z" fill="#964B36" stroke="black" stroke-width="0.06" stroke-miterlimit="4.8"/>
<path d="M55.9098 46.55C55.9098 46.55 55.5298 46.64 55.4598 47.16C55.3898 47.69 54.8698 47.95 54.8398 47.97M61.0198 41.52C61.0198 41.52 60.4698 41.72 60.5598 42.11L61.0198 41.52Z" fill="#964B36"/>
<path d="M55.9098 46.55C55.9098 46.55 55.5298 46.64 55.4598 47.16C55.3898 47.69 54.8698 47.95 54.8398 47.97M61.0198 41.52C61.0198 41.52 60.4698 41.72 60.5598 42.11" stroke="black" stroke-width="0.04" stroke-miterlimit="4.8"/>
<path d="M56.71 42.6601C56.71 42.6601 56.7399 41.3401 57.8199 41.3901C58.0199 41.4101 57.9199 41.6501 57.9199 41.6501C57.9199 41.6501 58.17 41.4901 58.27 41.7501C58.27 41.7501 58.61 41.6001 58.65 41.9401C58.65 41.9401 59.0299 41.8901 58.9699 42.1901C58.9699 42.1901 59.2199 42.1301 59.2199 42.3401C59.2199 42.3401 59.5099 42.2301 59.4699 42.5301C59.4699 42.5301 59.7999 42.3201 59.7599 42.7001C59.7599 42.7001 60.08 42.4601 60.2 42.8501C60.32 43.2501 59.8699 44.0801 59.4399 44.2901" fill="#FFF200"/>
<path d="M56.71 42.6601C56.71 42.6601 56.7399 41.3401 57.8199 41.3901C58.0199 41.4101 57.9199 41.6501 57.9199 41.6501C57.9199 41.6501 58.17 41.4901 58.27 41.7501C58.27 41.7501 58.61 41.6001 58.65 41.9401C58.65 41.9401 59.0299 41.8901 58.9699 42.1901C58.9699 42.1901 59.2199 42.1301 59.2199 42.3401C59.2199 42.3401 59.5099 42.2301 59.4699 42.5301C59.4699 42.5301 59.7999 42.3201 59.7599 42.7001C59.7599 42.7001 60.08 42.4601 60.2 42.8501C60.32 43.2501 59.8699 44.0801 59.4399 44.2901" stroke="black" stroke-width="0.04" stroke-miterlimit="4.8"/>
<path d="M59.7401 42.7499C59.7401 42.7499 59.88 43.7799 59.3 44.1599V44.1799C59.92 43.7999 59.7701 42.7399 59.7701 42.7299H59.73L59.7401 42.7499ZM59.0301 43.8699L59.0601 43.8999C59.4401 43.5399 59.5201 42.5699 59.5201 42.5199H59.48C59.48 42.5199 59.3901 43.5199 59.0301 43.8699ZM58.6901 43.6299H58.73C58.81 43.1699 58.9801 42.7299 59.2401 42.3399H59.2101C59.2101 42.3399 58.7401 43.0099 58.6801 43.6299H58.6901ZM58.41 43.4599H58.4501C58.5101 42.7499 59.0001 42.2099 59.0001 42.1999L58.97 42.1699C58.97 42.1699 58.47 42.7299 58.41 43.4599ZM58.0301 43.2099H58.0701C58.1101 42.3699 58.67 41.9599 58.67 41.9599L58.6401 41.9199C58.6401 41.9199 58.0601 42.3499 58.0201 43.2199H58.0301V43.2099ZM57.6801 43.0099H57.72C57.69 42.2299 58.28 41.7599 58.3 41.7599L58.2701 41.7299C58.2701 41.7299 57.6501 42.2099 57.6801 43.0099ZM57.0601 42.7199H57.1C57.13 42.4799 57.2201 42.2599 57.3701 42.0699C57.5201 41.8799 57.7201 41.7399 57.9501 41.6699V41.6299C57.7101 41.7099 57.51 41.8499 57.35 42.0499C57.19 42.2399 57.0901 42.4799 57.0601 42.7199Z" fill="black"/>
<path d="M56.0702 44.2801C56.0702 44.2801 55.8802 43.0401 56.6202 42.6601C56.6202 42.6601 56.7602 42.6301 56.8302 42.8101C56.8302 42.8101 57.2202 42.6501 57.2302 42.9701C57.2302 42.9701 57.4302 42.8201 57.4802 43.0301C57.4802 43.0301 57.8902 42.9401 57.8202 43.2501C57.8202 43.2501 58.1702 43.1501 58.1302 43.4501C58.1302 43.4501 58.4802 43.3301 58.4302 43.5701C58.4302 43.5701 58.8102 43.4901 58.7102 43.7901C58.7102 43.7901 59.1702 43.7401 59.0302 44.0501C59.0302 44.0501 59.3702 43.9601 59.2802 44.2201C59.2802 44.2201 59.7302 44.3101 59.5302 44.6001C59.2002 44.9901 58.7802 45.2901 58.3102 45.4801" fill="#00A651"/>
<path d="M56.0702 44.2801C56.0702 44.2801 55.8802 43.0401 56.6202 42.6601C56.6202 42.6601 56.7602 42.6301 56.8302 42.8101C56.8302 42.8101 57.2202 42.6501 57.2302 42.9701C57.2302 42.9701 57.4302 42.8201 57.4802 43.0301C57.4802 43.0301 57.8902 42.9401 57.8202 43.2501C57.8202 43.2501 58.1702 43.1501 58.1302 43.4501C58.1302 43.4501 58.4802 43.3301 58.4302 43.5701C58.4302 43.5701 58.8102 43.4901 58.7102 43.7901C58.7102 43.7901 59.1702 43.7401 59.0302 44.0501C59.0302 44.0501 59.3702 43.9601 59.2802 44.2201C59.2802 44.2201 59.7302 44.3101 59.5302 44.6001C59.2002 44.9901 58.7802 45.2901 58.3102 45.4801" stroke="black" stroke-width="0.04" stroke-miterlimit="4.8"/>
<path d="M55.68 45.51C55.68 45.51 55.38 44.48 55.95 44.22C55.95 44.22 56.06 44.19 56.07 44.29C56.07 44.29 56.2 44.13 56.3 44.28C56.3 44.28 56.5899 44.14 56.6599 44.35C56.6599 44.35 56.85 44.19 56.95 44.43C56.95 44.43 57.14 44.35 57.14 44.55C57.14 44.55 57.39 44.43 57.39 44.67C57.39 44.67 57.64 44.57 57.58 44.82C57.58 44.82 57.96 44.88 57.84 45.06C57.84 45.06 58.18 45.15 58.05 45.28C58.05 45.28 58.4 45.24 58.21 45.48C58.21 45.48 58.49 45.39 58.33 45.69C58.17 45.99 57.68 46.31 57.33 46.36" fill="#00A651"/>
<path d="M55.68 45.51C55.68 45.51 55.38 44.48 55.95 44.22C55.95 44.22 56.06 44.19 56.07 44.29C56.07 44.29 56.2 44.13 56.3 44.28C56.3 44.28 56.5899 44.14 56.6599 44.35C56.6599 44.35 56.85 44.19 56.95 44.43C56.95 44.43 57.14 44.35 57.14 44.55C57.14 44.55 57.39 44.43 57.39 44.67C57.39 44.67 57.64 44.57 57.58 44.82C57.58 44.82 57.96 44.88 57.84 45.06C57.84 45.06 58.18 45.15 58.05 45.28C58.05 45.28 58.4 45.24 58.21 45.48C58.21 45.48 58.49 45.39 58.33 45.69C58.17 45.99 57.68 46.31 57.33 46.36" stroke="black" stroke-width="0.04" stroke-miterlimit="4.8"/>
<path d="M56.0401 46.33C56.0401 46.33 55.4002 45.71 55.7002 45.53C55.7002 45.53 55.8202 45.57 55.8902 45.7C55.8902 45.7 56.0402 45.47 56.1402 45.7C56.1402 45.7 56.3701 45.62 56.3701 45.79L56.5401 45.91C56.5401 45.91 56.7501 45.9 56.7201 46.03C56.7201 46.03 56.9601 45.99 56.9401 46.12C56.9401 46.12 57.1401 46.13 57.1301 46.27C57.1301 46.27 57.4802 46.33 57.3202 46.51C57.3202 46.51 56.7202 46.63 56.2802 46.46C56.2802 46.46 56.0701 46.38 56.0401 46.32V46.33Z" fill="#00A651" stroke="black" stroke-width="0.04" stroke-miterlimit="4.8"/>
<path d="M58.24 45.3V45.34C58.66 45.04 59.02 44.67 59.31 44.25L59.27 44.22C59.27 44.22 58.59 45.16 58.23 45.3H58.24ZM58.02 45.14L58.04 45.18C58.37 44.99 59.03 44.12 59.04 44.08V44.05C59.04 44.05 58.3401 44.95 58.0301 45.14H58.02ZM57.83 45.06L57.85 45.09C58.2 44.7 58.49 44.27 58.73 43.8H58.71C58.71 43.8 58.18 44.78 57.83 45.06ZM57.67 44.84H57.71C57.77 44.36 58.46 43.6 58.46 43.59H58.42C58.42 43.59 57.73 44.35 57.67 44.84ZM56.31 44.25H56.35C56.3 43.56 56.86 42.81 56.88 42.81L56.8401 42.78C56.8401 42.78 56.25 43.56 56.31 44.24V44.25ZM56.67 44.31H56.71C56.61 43.76 57.26 42.98 57.26 42.97L57.23 42.95C57.23 42.95 56.57 43.75 56.67 44.31ZM57.22 44.51H57.26C57.23 43.89 57.84 43.26 57.85 43.26L57.82 43.22C57.82 43.22 57.2 43.87 57.22 44.51ZM55.91 45.63H55.95C55.73 45.04 56.1 44.3 56.11 44.3L56.07 44.27C56.07 44.27 55.68 45.03 55.91 45.63ZM56.16 45.68H56.2C56 45.08 56.32 44.29 56.32 44.29L56.29 44.27C56.29 44.27 55.95 45.08 56.15 45.68H56.16ZM57.2 46.27V46.29C57.82 46.08 58.24 45.5 58.24 45.5L58.2 45.47C58.2 45.47 57.8 46.03 57.2 46.26V46.27ZM57.08 46.13V46.17C57.58 45.95 58.04 45.32 58.04 45.32L58.01 45.29C58.01 45.29 57.55 45.91 57.07 46.13H57.08ZM56.96 46.08L56.99 46.12C57.37 45.83 57.87 45.12 57.87 45.12L57.8401 45.09C57.8401 45.09 57.34 45.8 56.96 46.08ZM56.3401 45.72H56.39C56.37 45.25 56.48 44.78 56.7 44.36H56.66C56.66 44.36 56.26 45.1 56.35 45.72H56.3401ZM56.62 45.9L56.65 45.92C57.05 45.56 57.19 44.59 57.19 44.54H57.15C57.15 44.54 57.03 45.54 56.62 45.89V45.9ZM56.9 46L56.93 46.04C57.29 45.73 57.54 45.32 57.64 44.85H57.6C57.6 44.85 57.45 45.6 56.9 46.01V46ZM56.96 44.33V44.44L56.5301 45.82H56.57L57 44.46C56.94 43.79 57.53 43.05 57.54 43.05L57.5 43.03C57.5 43.03 56.96 43.69 56.96 44.34V44.33Z" fill="black"/>
<path d="M57.3801 44.6599C57.3801 44.6599 57.2401 45.6199 56.7301 45.9699L56.7601 46.0099C57.2901 45.6499 57.4101 44.7199 57.4101 44.6699C57.6301 44.4099 58.1601 43.4599 58.1601 43.4599L58.1301 43.4299C58.1301 43.4299 57.6001 44.3799 57.3801 44.6499V44.6599ZM55.8801 45.6999C55.8801 45.6999 55.9501 46.1999 56.0601 46.3499H56.1001C56.0001 46.1799 55.9101 45.6999 55.9101 45.6899H55.8701L55.8801 45.6999ZM56.1201 45.6999V46.3599H56.1401V45.6999H56.1201Z" fill="black"/>
<path d="M56.1201 46.38H56.1601C56.3201 46.04 56.3701 45.79 56.3701 45.79H56.3301C56.3301 45.79 56.2801 46.03 56.1201 46.38ZM56.1601 46.39L56.1901 46.43C56.3801 46.32 56.5101 46.14 56.5701 45.93H56.5302C56.5302 45.93 56.4501 46.23 56.1701 46.39H56.1601ZM56.2201 46.41V46.45C56.5201 46.42 56.7201 46.06 56.7201 46.04H56.6901C56.6901 46.04 56.4901 46.39 56.2201 46.42V46.41Z" fill="black"/>
<path d="M56.25 46.4399V46.4799C56.74 46.4399 56.95 46.1599 56.95 46.1399H56.93C56.93 46.1399 56.72 46.3999 56.25 46.4399Z" fill="black"/>
<path d="M56.29 46.44V46.48C56.29 46.48 56.9101 46.62 57.1301 46.31L57.0901 46.29C56.9001 46.59 56.29 46.46 56.29 46.45V46.44Z" fill="black"/>
<path d="M42.6099 24.1499V41.1999C42.6099 46.7799 52.6899 50.0799 52.6899 50.0799C52.6899 50.0799 62.7499 46.7799 62.7499 41.1999V24.1499H42.6099Z" stroke="black" stroke-width="0.35" stroke-miterlimit="4.8"/>
<path d="M-10 0H30V30H-10V0Z" fill="#012169"/>
<path d="M-5.31024 0L9.93976 11.31L25.1298 0H30.0098V3.88L15.0098 15.07L30.0098 26.19V30H25.0098L10.0098 18.81L-4.93024 30H-9.99023V26.25L4.94977 15.13L-9.99023 4.01V0H-5.30023H-5.31024Z" fill="white"/>
<path d="M16.5 17.56L30 27.5V30L13.06 17.56H16.5ZM5 18.81L5.38 21L-6.62 30H-10L5 18.81ZM30 0V0.19L14.44 11.94L14.56 9.19L26.87 0H29.99H30ZM-10 0L4.94 11H1.19L-10 2.62V0Z" fill="#C8102E"/>
<path d="M5.06 0V30H15.06V0H5.06ZM-10 10V20H30V10H-10Z" fill="white"/>
<path d="M-10 12.06V18.06H30V12.06H-10ZM7.06 0V30H13.06V0H7.06Z" fill="#C8102E"/>
</g>
</g>
</svg>
