<svg width="60" height="60" viewBox="0 0 60 60" fill="none" xmlns="http://www.w3.org/2000/svg">
<g clip-path="url(#clip0_14078_3362)">
<mask id="mask0_14078_3362" style="mask-type:alpha" maskUnits="userSpaceOnUse" x="0" y="0" width="60" height="60">
<circle cx="30" cy="30" r="30" fill="#012169"/>
</mask>
<g mask="url(#mask0_14078_3362)">
<g clip-path="url(#clip1_14078_3362)">
<g clip-path="url(#clip2_14078_3362)">
<g clip-path="url(#clip3_14078_3362)">
<g clip-path="url(#clip4_14078_3362)">
<g clip-path="url(#clip5_14078_3362)">
<g clip-path="url(#clip6_14078_3362)">
<g clip-path="url(#clip7_14078_3362)">
<path d="M-10 0H70V60H-10V0Z" fill="#DA000C"/>
<path d="M-10 0H70V40.2H-10V0Z" fill="white"/>
<path d="M16.0781 27.2578H31.0781V37.5703H16.0781V27.2578Z" fill="black"/>
<path d="M23.8594 36.0703H14.7187L12.6797 37.4063V38.8125H23.8594M20.0391 30.1406C21.3516 30.1406 22.4297 31.2422 22.4297 32.6016V36.0469H24.1406V22.9219H14.6953V36.0469H17.6484V32.6016C17.6484 31.2891 18.7031 30.1406 20.0391 30.1406Z" fill="#DA000C"/>
<path d="M23.8594 36.0703H14.7187L12.6797 37.4063V38.8125H23.8594M20.0391 30.1406C21.3516 30.1406 22.4297 31.2422 22.4297 32.6016V36.0469H24.1406V22.9219H14.6953V36.0469H17.6484V32.6016C17.6484 31.2891 18.7031 30.1406 20.0391 30.1406Z" stroke="black" stroke-width="0.234375" stroke-linecap="square"/>
<path d="M17.9297 14.0625H22.2891V22.0312H17.9297V14.0625Z" fill="black"/>
<path d="M22.2656 20.7891H18.4688V19.4297H15.6797V20.7891H13.8047V19.4297H12.6562V21.8672H22.2656M13.7813 21.8672H21.9844V22.9219H13.7813V21.8672ZM17.0625 11.1562V19.4531H18.4688V17.1797C18.4688 16.3359 19.0547 15.6328 19.8984 15.5859H19.9922C20.2015 15.5859 20.4087 15.6272 20.6021 15.7073C20.7955 15.7873 20.9711 15.9047 21.1191 16.0527C21.2671 16.2007 21.3845 16.3764 21.4646 16.5698C21.5447 16.7631 21.5859 16.9704 21.5859 17.1797V19.4531H22.9219V11.1562H17.0625ZM16.5234 10.0312V11.1562H23.3906V10.0312H16.5234ZM15.6563 7.89844V10.0312H23.8594V7.89844H22.6172V9H21.0703V7.89844H18.7266V9H17.2031V7.89844H15.6563ZM12.6562 37.4063H23.9062H12.6562ZM31.1719 36.75H23.5781L21.2813 37.8516V39.4922H31.1719" fill="#DA000C"/>
<path d="M22.2656 20.7891H18.4688V19.4297H15.6797V20.7891H13.8047V19.4297H12.6562V21.8672H22.2656M12.6562 37.4063H23.9062M31.1719 36.75H23.5781L21.2813 37.8516V39.4922H31.1719M13.7813 21.8672H21.9844V22.9219H13.7813V21.8672ZM17.0625 11.1562V19.4531H18.4688V17.1797C18.4688 16.3359 19.0547 15.6328 19.8984 15.5859H19.9922C20.2015 15.5859 20.4087 15.6272 20.6021 15.7073C20.7955 15.7873 20.9711 15.9047 21.1191 16.0527C21.2671 16.2007 21.3845 16.3764 21.4646 16.5698C21.5447 16.7631 21.5859 16.9704 21.5859 17.1797V19.4531H22.9219V11.1562H17.0625ZM16.5234 10.0312V11.1562H23.3906V10.0312H16.5234ZM15.6563 7.89844V10.0312H23.8594V7.89844H22.6172V9H21.0703V7.89844H18.7266V9H17.2031V7.89844H15.6563Z" stroke="black" stroke-width="0.234375" stroke-linecap="square"/>
<path d="M21.2812 37.8516H31.4062H21.2812Z" fill="#DA000C"/>
<path d="M21.2812 37.8516H31.4062" stroke="black" stroke-width="0.234375"/>
<path d="M43.9219 27.2578H28.9219V37.5703H43.9219V27.2578Z" fill="black"/>
<path d="M36.1406 36.0703H45.2813L47.3203 37.4063V38.8125H36.1406M39.9609 30.1406C38.6484 30.1406 37.5703 31.2422 37.5703 32.6016V36.0469H35.8594V22.9219H45.3047V36.0469H42.3516V32.6016C42.3516 31.2891 41.2969 30.1406 39.9609 30.1406Z" fill="#DA000C"/>
<path d="M36.1406 36.0703H45.2813L47.3203 37.4063V38.8125H36.1406M39.9609 30.1406C38.6484 30.1406 37.5703 31.2422 37.5703 32.6016V36.0469H35.8594V22.9219H45.3047V36.0469H42.3516V32.6016C42.3516 31.2891 41.2969 30.1406 39.9609 30.1406Z" stroke="black" stroke-width="0.234375" stroke-linecap="square"/>
<path d="M42.0703 14.0625H37.7109V22.0312H42.0703V14.0625Z" fill="black"/>
<path d="M37.7344 20.7891H41.5312V19.4297H44.3203V20.7891H46.1953V19.4297H47.3438V21.8672H37.7344M46.2187 21.8672H38.0156V22.9219H46.2187V21.8672ZM42.9375 11.1562V19.4531H41.5312V17.1797C41.5312 16.3359 40.9453 15.6328 40.1016 15.5859H40.0078C39.7985 15.5859 39.5913 15.6272 39.3979 15.7073C39.2045 15.7873 39.0289 15.9047 38.8809 16.0527C38.7329 16.2007 38.6155 16.3764 38.5354 16.5698C38.4553 16.7631 38.4141 16.9704 38.4141 17.1797V19.4531H37.0781V11.1562H42.9375ZM43.4766 10.0312V11.1562H36.6094V10.0312H43.4766ZM44.3437 7.89844V10.0312H36.1406V7.89844H37.3828V9H38.9297V7.89844H41.2734V9H42.7969V7.89844H44.3437ZM47.3438 37.4063H36.0938H47.3438ZM28.8281 36.75H36.4219L38.7187 37.8516V39.4922H28.8281" fill="#DA000C"/>
<path d="M37.7344 20.7891H41.5312V19.4297H44.3203V20.7891H46.1953V19.4297H47.3438V21.8672H37.7344M47.3438 37.4063H36.0938M28.8281 36.75H36.4219L38.7187 37.8516V39.4922H28.8281M46.2187 21.8672H38.0156V22.9219H46.2187V21.8672ZM42.9375 11.1562V19.4531H41.5312V17.1797C41.5312 16.3359 40.9453 15.6328 40.1016 15.5859H40.0078C39.7985 15.5859 39.5913 15.6272 39.3979 15.7073C39.2045 15.7873 39.0289 15.9047 38.8809 16.0527C38.7329 16.2007 38.6155 16.3764 38.5354 16.5698C38.4553 16.7631 38.4141 16.9704 38.4141 17.1797V19.4531H37.0781V11.1562H42.9375ZM43.4766 10.0312V11.1562H36.6094V10.0312H43.4766ZM44.3437 7.89844V10.0312H36.1406V7.89844H37.3828V9H38.9297V7.89844H41.2734V9H42.7969V7.89844H44.3437Z" stroke="black" stroke-width="0.234375" stroke-linecap="square"/>
<path d="M38.7188 37.8516H28.5938H38.7188Z" fill="#DA000C"/>
<path d="M38.7188 37.8516H28.5938" stroke="black" stroke-width="0.234375"/>
<path d="M34.0549 35.1562C33.422 35.3906 32.883 35.7188 32.297 36.0469C31.5679 36.4634 30.8707 36.9334 30.2111 37.4531C29.9767 37.6172 29.7424 37.7812 29.5783 38.0156C29.3439 38.2031 29.1095 38.4844 29.1564 38.8359C29.1564 38.9766 29.3439 38.6484 29.4846 38.625C29.7071 38.5059 29.9656 38.4725 30.2111 38.5312C30.5158 38.2031 30.9142 37.9922 31.2424 37.7344C32.1977 37.043 33.2181 36.4464 34.2892 35.9531L34.0549 35.1562Z" fill="#F8D80E" stroke="black" stroke-width="0.1875" stroke-linecap="round"/>
<path d="M31.0312 36.8906V37.8047V36.8906ZM31.5937 36.4922V37.4063V36.4922ZM32.1563 36.1406V37.0313V36.1406ZM32.7422 35.7891V36.7266V35.7891Z" fill="#F8D80E"/>
<path d="M31.0312 36.8906V37.8047M31.5937 36.4922V37.4063M32.1563 36.1406V37.0313M32.7422 35.7891V36.7266" stroke="black" stroke-width="0.234375" stroke-linecap="round"/>
<path d="M25.9922 35.2031L25.7109 35.9766C27.0061 36.4734 28.247 37.1017 29.4141 37.8516C29.8125 38.1328 30.2344 38.3906 30.5391 38.7656C30.6094 38.9531 30.4219 39.1172 30.2344 39.0469C30.0703 39 29.8828 38.9297 29.7188 39.0469C29.4609 39.1641 29.2266 39.5625 29.6016 39.6797C30.1641 40.0547 31.0313 39.8906 31.2891 39.2578C31.4297 38.9297 31.4531 38.5078 31.1719 38.2266C30.7031 37.6875 30.0469 37.2891 29.4375 36.8906C28.3432 36.2237 27.1899 35.6588 25.9922 35.2031Z" fill="#F8D80E" stroke="black" stroke-width="0.1875" stroke-linecap="round"/>
<path d="M29.5313 37.0313L29.4609 37.8281L29.5313 37.0313ZM30.1875 37.4297L30 38.2031L30.1875 37.4297ZM30.8906 37.9688L30.4688 38.5781L30.8906 37.9688ZM31.1016 39.4219L30.4922 39.0938L31.1016 39.4219ZM31.2891 38.7656L30.5859 38.8359L31.2891 38.7656ZM30.3984 39.7734L30.3516 39.1641L30.3984 39.7734ZM30.1172 39.0938L29.5547 39.5156L30.1172 39.0938ZM27.3516 35.8359V36.5625V35.8359ZM28.8281 36.6328V37.4531V36.6328ZM28.0781 36.2344V37.0078V36.2344Z" fill="#F8D80E"/>
<path d="M29.5313 37.0313L29.4609 37.8281M30.1875 37.4297L30 38.2031M30.8906 37.9688L30.4688 38.5781M31.1016 39.4219L30.4922 39.0938M31.2891 38.7656L30.5859 38.8359M30.3984 39.7734L30.3516 39.1641M30.1172 39.0938L29.5547 39.5156M27.3516 35.8359V36.5625M28.8281 36.6328V37.4531M28.0781 36.2344V37.0078" stroke="black" stroke-width="0.234375" stroke-linecap="round"/>
<path d="M25.2656 53.3438V55.2188H26.4375V54.2812H28.0547V55.2188H29.3203V53.3438H25.2656ZM25.2656 55.9219V57.7969H29.2969V55.9219H28.0313V56.8594H26.4141V55.9219H25.2656Z" fill="#F8D80E" stroke="black" stroke-width="0.234375"/>
<path d="M29.2969 45.3984H30.4688V58.9922H29.2969V45.3984Z" fill="#F8D80E" stroke="black" stroke-width="0.234375"/>
<path d="M29.2969 46.5703H30.4687V58.2891H29.2969V46.5703ZM29.9062 42.0469L32.3906 43.5L29.9062 44.9531L27.3984 43.5L29.9062 42.0469ZM26.5547 42.9844H25.9219V44.0156H26.5547L29.9062 45.9609L33.2344 44.0156H33.8906V42.9844H33.2344L29.9062 41.0391L26.5547 42.9844Z" fill="#F8D80E" stroke="black" stroke-width="0.234375"/>
<path d="M29.8359 38.5078C29.5631 38.5633 29.319 38.714 29.1472 38.933C28.9755 39.152 28.8873 39.425 28.8984 39.7031V42.3281C28.9199 42.6069 29.0404 42.8688 29.2382 43.0665C29.4359 43.2642 29.6977 43.3847 29.9765 43.4062C30.2084 43.4236 30.4402 43.3702 30.641 43.253C30.8419 43.1358 31.0025 42.9604 31.1015 42.75L30.7031 42.5156C30.6478 42.6529 30.5492 42.7684 30.4223 42.8445C30.2954 42.9207 30.1471 42.9533 30 42.9375C29.625 42.9375 29.3203 42.5625 29.3672 42.2109V39.5859C29.3849 39.414 29.4675 39.2553 29.5981 39.1421C29.7287 39.0289 29.8976 38.9697 30.0703 38.9766C30.2109 38.9297 30.4218 39.1406 30.5156 38.9766C30.6562 38.7656 30.4218 38.625 30.2812 38.5078H29.8359ZM31.1953 39.4219C31.0807 39.5823 30.9276 39.7113 30.75 39.7969V41.5547L31.2187 41.8125V39.4219H31.1953Z" fill="#F8D80E" stroke="black" stroke-width="0.234375"/>
<path d="M26.4375 9H33.3047V21.4687H26.4375V9Z" fill="black"/>
<path d="M25.9688 9V19.4297H28.1484V16.3359C28.1484 15.6328 28.6172 14.625 30 14.625C31.3828 14.625 31.875 15.6328 31.875 16.3359V19.4531H34.0313V9H25.9688ZM29.6719 10.1719H30.3281V13.7344H29.6719V10.1719ZM27.7266 10.875H28.4297V13.4766H27.7266V10.875ZM31.5937 10.875H32.2734V13.4766H31.5703L31.5937 10.875ZM25.2188 7.5V8.97656H34.7812V7.5H25.2188ZM24.3281 5.76562V7.5H35.6953V5.76562H34.2656V6.70312H32.625V5.76562H30.7969V6.70312H29.2031V5.76562H27.3516V6.70312H25.7812V5.76562H24.3281ZM22.2188 22.9219V24H37.8047V22.9219H22.2188Z" fill="#DA000C" stroke="black" stroke-width="0.234375"/>
<path d="M21.5625 19.4297V22.9453H38.4375V19.4297H36.8438V20.7891H34.6875V19.4297H31.8281V20.7891H28.125V19.4297H25.2656V20.7891H23.1563V19.4297H21.5625Z" fill="#DA000C" stroke="black" stroke-width="0.234375"/>
<path d="M23.6016 24V36.75H26.6016V31.9687C26.6016 29.7422 28.1016 28.6875 30 28.6875C31.8281 28.6875 33.3984 29.7422 33.3984 31.9687V36.75H36.3984V24H23.6016Z" fill="#DA000C" stroke="black" stroke-width="0.234375" stroke-linejoin="round"/>
</g>
</g>
</g>
</g>
</g>
</g>
</g>
</g>
</g>
<defs>
<clipPath id="clip0_14078_3362">
<rect width="60" height="60" fill="white"/>
</clipPath>
<clipPath id="clip1_14078_3362">
<rect width="80" height="60" fill="white" transform="translate(-15)"/>
</clipPath>
<clipPath id="clip2_14078_3362">
<rect width="80" height="60" fill="white" transform="translate(-15)"/>
</clipPath>
<clipPath id="clip3_14078_3362">
<rect width="80" height="60" fill="white" transform="translate(-15)"/>
</clipPath>
<clipPath id="clip4_14078_3362">
<rect width="80" height="60" fill="white" transform="translate(-15)"/>
</clipPath>
<clipPath id="clip5_14078_3362">
<rect width="80" height="60" fill="white" transform="translate(-4)"/>
</clipPath>
<clipPath id="clip6_14078_3362">
<rect width="80" height="60" fill="white" transform="translate(-10)"/>
</clipPath>
<clipPath id="clip7_14078_3362">
<rect width="80" height="60" fill="white" transform="translate(-10)"/>
</clipPath>
</defs>
</svg>
