<svg width="60" height="60" viewBox="0 0 60 60" fill="none" xmlns="http://www.w3.org/2000/svg">
<mask id="mask0_13628_11142" style="mask-type:luminance" maskUnits="userSpaceOnUse" x="0" y="0" width="60" height="60">
<path d="M30 60C46.5685 60 60 46.5685 60 30C60 13.4315 46.5685 0 30 0C13.4315 0 0 13.4315 0 30C0 46.5685 13.4315 60 30 60Z" fill="white"/>
</mask>
<g mask="url(#mask0_13628_11142)">
<mask id="mask1_13628_11142" style="mask-type:luminance" maskUnits="userSpaceOnUse" x="-10" y="0" width="80" height="60">
<path d="M70 0H-10V60H70V0Z" fill="white"/>
</mask>
<g mask="url(#mask1_13628_11142)">
<path d="M-10 0H70V60H-10" fill="#EC1B2E"/>
<path d="M33.29 12.89C23.38 12.25 18.83 25.24 28.2 30.04C24.95 27.24 25.62 23.13 26.94 20.99L27.18 21.13C25.46 24.07 25.78 27.72 28.57 30.01C26.98 28.47 27.38 25.13 30.08 23.9C32.78 22.66 33.03 18.99 32.13 17.76C30.91 15.63 31.29 14.01 33.29 12.9V12.89ZM28.49 20.5L27.9 21.42L27.67 20.35L26.59 20.06L27.57 19.52L27.49 18.41L28.3 19.17L29.3401 18.76L28.88 19.77L29.58 20.62L28.48 20.5H28.49Z" fill="white"/>
<path d="M47.0602 29.03C44.6002 19.41 30.8502 19.09 29.1802 29.49C30.8402 25.53 34.9602 24.9 37.4002 25.49L37.3402 25.76C34.0102 25.03 30.6402 26.46 29.3302 29.82C30.3002 27.84 33.6002 27.18 35.6102 29.37C37.6202 31.56 41.1902 30.66 42.0802 29.42C43.7302 27.6 45.3902 27.46 47.0602 29.02V29.03ZM38.3402 26.82L37.2802 26.55L38.2302 26L38.1702 24.89L38.9802 25.65L40.0102 25.23L39.5402 26.24L40.2502 27.1L39.1402 26.97L38.5502 27.9L38.3302 26.82H38.3402Z" fill="white"/>
<path d="M35.96 47.1199C44.35 41.8099 40.4 28.6299 30 30.2599C34.28 30.6099 36.15 34.3399 36.34 36.8399L36.07 36.8699C35.74 33.4799 33.33 30.7199 29.73 30.5099C31.92 30.8199 33.56 33.7599 32.1 36.3399C30.64 38.9299 32.6 42.0499 34.05 42.5099C36.29 43.5199 36.93 45.0499 35.97 47.1299L35.96 47.1199ZM35.37 38.1399L35.3 37.0499L36.11 37.7899L37.15 37.3899L36.68 38.3999L37.39 39.2599L36.28 39.1199L35.68 40.0599L35.46 38.9699L34.39 38.6899L35.35 38.1399H35.37Z" fill="white"/>
<path d="M15.3298 42.1501C22.9698 48.4901 34.2898 40.6601 29.5298 31.2701C30.5098 35.4501 27.5498 38.3801 25.2298 39.3301L25.1198 39.0801C28.2398 37.7201 30.1198 34.5701 29.2098 31.0801C29.5898 33.2601 27.3098 35.7201 24.3898 35.1401C21.4798 34.5501 19.1198 37.3801 19.1198 38.9001C18.8598 41.3501 17.5898 42.4301 15.3198 42.1501H15.3298ZM23.6898 38.8101L24.7098 38.4101L24.2598 39.4101L24.9598 40.2701L23.8598 40.1301L23.2698 41.0701L23.0598 39.9801L21.9798 39.7001L22.9498 39.1501L22.8798 38.0501L23.6998 38.8001L23.6898 38.8101Z" fill="white"/>
<path d="M13.68 21C10.01 30.23 20.96 38.57 28.42 31.14C24.75 33.37 21.05 31.45 19.42 29.54L19.62 29.36C21.88 31.91 25.45 32.73 28.49 30.78C26.54 31.81 23.49 30.4 23.14 27.45C22.8 24.5 19.38 23.13 17.94 23.6C15.53 24.11 14.11 23.24 13.67 20.99L13.68 21ZM19.44 27.92L20.14 28.76L19.05 28.64L18.44 29.57L18.23 28.48L17.15 28.21L18.13 27.67L18.06 26.56L18.88 27.31L19.9 26.91L19.44 27.92Z" fill="white"/>
</g>
</g>
</svg>
