<svg width="60" height="60" viewBox="0 0 60 60" fill="none" xmlns="http://www.w3.org/2000/svg">
<mask id="mask0_13628_11143" style="mask-type:luminance" maskUnits="userSpaceOnUse" x="0" y="0" width="60" height="60">
<path d="M30 60C46.5685 60 60 46.5685 60 30C60 13.4315 46.5685 0 30 0C13.4315 0 0 13.4315 0 30C0 46.5685 13.4315 60 30 60Z" fill="white"/>
</mask>
<g mask="url(#mask0_13628_11143)">
<mask id="mask1_13628_11143" style="mask-type:luminance" maskUnits="userSpaceOnUse" x="-10" y="0" width="80" height="60">
<path d="M70 0H-10V60H70V0Z" fill="white"/>
</mask>
<g mask="url(#mask1_13628_11143)">
<path d="M-10 0H70V20H-10V0Z" fill="#FF9933"/>
<path d="M-10 20H70V40H-10V20Z" fill="white"/>
<path d="M-10 40H70V60H-10V40Z" fill="#128807"/>
<path d="M30 38C34.42 38 38 34.42 38 30C38 25.58 34.42 22 30 22C25.58 22 22 25.58 22 30C22 34.42 25.58 38 30 38Z" fill="#000088"/>
<path d="M30 37C33.87 37 37 33.87 37 30C37 26.13 33.87 23 30 23C26.13 23 23 26.13 23 30C23 33.87 26.13 37 30 37Z" fill="white"/>
<path d="M30.0001 31.4001C30.7701 31.4001 31.4001 30.7701 31.4001 30.0001C31.4001 29.2301 30.7701 28.6001 30.0001 28.6001C29.2301 28.6001 28.6001 29.2301 28.6001 30.0001C28.6001 30.7701 29.2301 31.4001 30.0001 31.4001Z" fill="#000088"/>
<path d="M36.8903 31.27C37.0903 31.3 37.2703 31.16 37.2903 30.96C37.3203 30.76 37.1802 30.58 36.9802 30.56C36.7802 30.53 36.6002 30.67 36.5802 30.87C36.5502 31.07 36.6903 31.25 36.8903 31.27Z" fill="#000088"/>
<path d="M29.9998 37L30.2397 32.8L29.9998 30.8L29.7598 32.8L29.9998 37Z" fill="#000088"/>
<path d="M36.3297 33.0099C36.5097 33.0899 36.7198 32.9999 36.7998 32.8199C36.8798 32.6399 36.7897 32.4299 36.6097 32.3499C36.4297 32.2699 36.2197 32.3599 36.1397 32.5399C36.0597 32.7199 36.1497 32.9299 36.3297 33.0099Z" fill="#000088"/>
<path d="M28.1899 36.76L29.51 32.77L29.8 30.78L29.05 32.65L28.1899 36.77V36.76Z" fill="#000088"/>
<path d="M35.3298 34.5501C35.4898 34.6701 35.7098 34.6401 35.8298 34.4801C35.9498 34.3201 35.9199 34.1001 35.7599 33.9801C35.5999 33.8601 35.3799 33.8901 35.2599 34.0501C35.1399 34.2101 35.1698 34.4301 35.3298 34.5501Z" fill="#000088"/>
<path d="M26.5 36.0599L28.8101 32.5399L29.6 30.6899L28.39 32.2999L26.5 36.0599Z" fill="#000088"/>
<path d="M33.9698 35.7701C34.0898 35.9301 34.3198 35.9601 34.4698 35.8401C34.6298 35.7201 34.6599 35.4901 34.5399 35.3401C34.4199 35.1801 34.1899 35.1501 34.0399 35.2701C33.8799 35.3901 33.8498 35.6201 33.9698 35.7701Z" fill="#000088"/>
<path d="M25.0498 34.9501L28.1897 32.1501L29.4298 30.5701L27.8497 31.8101L25.0498 34.9501Z" fill="#000088"/>
<path d="M32.3399 36.61C32.4199 36.79 32.63 36.88 32.81 36.8C32.99 36.72 33.0799 36.51 32.9999 36.33C32.9199 36.15 32.71 36.06 32.53 36.14C32.35 36.22 32.2599 36.43 32.3399 36.61Z" fill="#000088"/>
<path d="M23.9399 33.4999L27.7 31.6099L29.3101 30.3999L27.46 31.1899L23.9399 33.4999Z" fill="#000088"/>
<path d="M30.5499 36.99C30.5799 37.19 30.7599 37.33 30.9499 37.3C31.1499 37.27 31.2899 37.09 31.2599 36.9C31.2299 36.7 31.0499 36.56 30.8599 36.59C30.6599 36.62 30.5199 36.8 30.5499 36.99Z" fill="#000088"/>
<path d="M23.2402 31.8099L27.3602 30.95L29.2302 30.2L27.2402 30.49L23.2502 31.8099H23.2402Z" fill="#000088"/>
<path d="M28.7301 36.89C28.7001 37.09 28.8402 37.27 29.0402 37.29C29.2402 37.32 29.4201 37.18 29.4401 36.98C29.4701 36.78 29.3301 36.6 29.1301 36.58C28.9301 36.55 28.7501 36.69 28.7301 36.89Z" fill="#000088"/>
<path d="M23 30L27.2 30.24L29.2 30L27.2 29.76L23 30Z" fill="#000088"/>
<path d="M26.9898 36.33C26.9098 36.51 26.9999 36.72 27.1799 36.8C27.3599 36.88 27.5698 36.79 27.6498 36.61C27.7298 36.43 27.6398 36.22 27.4598 36.14C27.2798 36.06 27.0698 36.15 26.9898 36.33Z" fill="#000088"/>
<path d="M23.24 28.1899L27.23 29.5099L29.22 29.7999L27.35 29.0499L23.23 28.1899H23.24Z" fill="#000088"/>
<path d="M25.4498 35.3301C25.3298 35.4901 25.3598 35.7101 25.5198 35.8301C25.6798 35.9501 25.8998 35.9201 26.0198 35.7601C26.1398 35.6001 26.1098 35.3801 25.9498 35.2601C25.7898 35.1401 25.5698 35.1701 25.4498 35.3301Z" fill="#000088"/>
<path d="M23.9399 26.5L27.46 28.81L29.3101 29.6L27.7 28.39L23.9399 26.5Z" fill="#000088"/>
<path d="M24.2302 33.9701C24.0702 34.0901 24.0403 34.3201 24.1603 34.4701C24.2803 34.6301 24.5103 34.6601 24.6603 34.5401C24.8203 34.4201 24.8502 34.1901 24.7302 34.0401C24.6102 33.8801 24.3802 33.8501 24.2302 33.9701Z" fill="#000088"/>
<path d="M25.0498 25.05L27.8497 28.1901L29.4298 29.43L28.1897 27.85L25.0498 25.05Z" fill="#000088"/>
<path d="M23.3898 32.3399C23.2098 32.4199 23.1198 32.6299 23.1998 32.8099C23.2798 32.9899 23.4899 33.0799 23.6699 32.9999C23.8499 32.9199 23.9398 32.7099 23.8598 32.5299C23.7798 32.3499 23.5698 32.2599 23.3898 32.3399Z" fill="#000088"/>
<path d="M26.5 23.9399L28.39 27.6999L29.6 29.3099L28.8101 27.4599L26.5 23.9399Z" fill="#000088"/>
<path d="M23.0099 30.5499C22.8099 30.5799 22.6698 30.7599 22.6998 30.9499C22.7298 31.1499 22.9099 31.2899 23.0999 31.2599C23.2999 31.2299 23.4399 31.0499 23.4099 30.8599C23.3799 30.6599 23.1999 30.5199 23.0099 30.5499Z" fill="#000088"/>
<path d="M28.1899 23.24L29.05 27.36L29.8 29.23L29.51 27.24L28.1899 23.25V23.24Z" fill="#000088"/>
<path d="M23.1101 28.7299C22.9101 28.6999 22.7301 28.8399 22.7101 29.0399C22.6801 29.2399 22.8202 29.4199 23.0202 29.4399C23.2202 29.4699 23.4002 29.3299 23.4202 29.1299C23.4502 28.9299 23.3101 28.7499 23.1101 28.7299Z" fill="#000088"/>
<path d="M29.9998 23L29.7598 27.2L29.9998 29.2L30.2397 27.2L29.9998 23Z" fill="#000088"/>
<path d="M23.6699 26.9901C23.4899 26.9101 23.2798 27.0001 23.1998 27.1801C23.1198 27.3601 23.2098 27.5701 23.3898 27.6501C23.5698 27.7301 23.7798 27.6401 23.8598 27.4601C23.9398 27.2801 23.8499 27.0701 23.6699 26.9901Z" fill="#000088"/>
<path d="M31.8103 23.24L30.4902 27.23L30.2002 29.22L30.9502 27.35L31.8103 23.23V23.24Z" fill="#000088"/>
<path d="M24.67 25.45C24.51 25.33 24.29 25.36 24.17 25.52C24.05 25.68 24.08 25.9 24.24 26.02C24.4 26.14 24.62 26.11 24.74 25.95C24.86 25.79 24.83 25.57 24.67 25.45Z" fill="#000088"/>
<path d="M33.4999 23.9399L31.1898 27.4599L30.3999 29.3099L31.6099 27.6999L33.4999 23.9399Z" fill="#000088"/>
<path d="M26.0301 24.23C25.9101 24.07 25.6801 24.04 25.5301 24.16C25.3701 24.28 25.34 24.51 25.46 24.66C25.58 24.82 25.81 24.85 25.96 24.73C26.12 24.61 26.1501 24.38 26.0301 24.23Z" fill="#000088"/>
<path d="M34.9498 25.05L31.8099 27.85L30.5698 29.43L32.1499 28.1901L34.9498 25.05Z" fill="#000088"/>
<path d="M27.6601 23.39C27.5801 23.21 27.37 23.12 27.19 23.2C27.01 23.28 26.9201 23.49 27.0001 23.67C27.0801 23.85 27.2901 23.94 27.4701 23.86C27.6501 23.78 27.7401 23.57 27.6601 23.39Z" fill="#000088"/>
<path d="M36.0601 26.5L32.3 28.39L30.6899 29.6L32.54 28.81L36.0601 26.5Z" fill="#000088"/>
<path d="M29.4498 23.0101C29.4198 22.8101 29.2399 22.6701 29.0499 22.7001C28.8499 22.7301 28.7099 22.9101 28.7399 23.1001C28.7699 23.3001 28.9499 23.4401 29.1399 23.4101C29.3399 23.3801 29.4798 23.2001 29.4498 23.0101Z" fill="#000088"/>
<path d="M36.76 28.1899L32.64 29.0499L30.77 29.7999L32.76 29.5099L36.75 28.1899H36.76Z" fill="#000088"/>
<path d="M31.2702 23.1101C31.3002 22.9101 31.1601 22.7301 30.9601 22.7101C30.7601 22.6801 30.5802 22.8201 30.5602 23.0201C30.5302 23.2201 30.6701 23.4001 30.8701 23.4201C31.0701 23.4501 31.2502 23.3101 31.2702 23.1101Z" fill="#000088"/>
<path d="M36.9998 30L32.7998 29.76L30.7998 30L32.7998 30.24L36.9998 30Z" fill="#000088"/>
<path d="M33.0097 23.67C33.0897 23.49 32.9996 23.28 32.8196 23.2C32.6396 23.12 32.4297 23.21 32.3497 23.39C32.2697 23.57 32.3597 23.78 32.5397 23.86C32.7197 23.94 32.9297 23.85 33.0097 23.67Z" fill="#000088"/>
<path d="M36.7603 31.8099L32.7703 30.49L30.7803 30.2L32.6503 30.95L36.7703 31.8099H36.7603Z" fill="#000088"/>
<path d="M34.5501 24.67C34.6701 24.51 34.64 24.29 34.48 24.17C34.32 24.05 34.1 24.08 33.98 24.24C33.86 24.4 33.8901 24.62 34.0501 24.74C34.2101 24.86 34.4301 24.83 34.5501 24.67Z" fill="#000088"/>
<path d="M36.0601 33.4999L32.54 31.1899L30.6899 30.3999L32.3 31.6099L36.0601 33.4999Z" fill="#000088"/>
<path d="M35.7701 26.0301C35.9301 25.9101 35.9601 25.6801 35.8401 25.5301C35.7201 25.3701 35.4901 25.3401 35.3401 25.4601C35.1801 25.5801 35.1501 25.8101 35.2701 25.9601C35.3901 26.1201 35.6201 26.1501 35.7701 26.0301Z" fill="#000088"/>
<path d="M34.9498 34.9501L32.1499 31.8101L30.5698 30.5701L31.8099 32.1501L34.9498 34.9501Z" fill="#000088"/>
<path d="M36.6097 27.6601C36.7897 27.5801 36.8798 27.3701 36.7998 27.1901C36.7198 27.0101 36.5097 26.9201 36.3297 27.0001C36.1497 27.0801 36.0597 27.2901 36.1397 27.4701C36.2197 27.6501 36.4297 27.7401 36.6097 27.6601Z" fill="#000088"/>
<path d="M33.4999 36.0599L31.6099 32.2999L30.3999 30.6899L31.1898 32.5399L33.4999 36.0599Z" fill="#000088"/>
<path d="M36.99 29.4499C37.19 29.4199 37.3301 29.2399 37.3001 29.0499C37.2701 28.8499 37.09 28.7099 36.9 28.7399C36.7 28.7699 36.56 28.9499 36.59 29.1399C36.62 29.3399 36.8 29.4799 36.99 29.4499Z" fill="#000088"/>
<path d="M31.8103 36.76L30.9502 32.64L30.2002 30.77L30.4902 32.76L31.8103 36.75V36.76Z" fill="#000088"/>
</g>
</g>
</svg>
