<svg width="60" height="60" viewBox="0 0 60 60" fill="none" xmlns="http://www.w3.org/2000/svg">
<mask id="mask0_13628_11144" style="mask-type:luminance" maskUnits="userSpaceOnUse" x="0" y="0" width="60" height="60">
<path d="M30 60C46.5685 60 60 46.5685 60 30C60 13.4315 46.5685 0 30 0C13.4315 0 0 13.4315 0 30C0 46.5685 13.4315 60 30 60Z" fill="white"/>
</mask>
<g mask="url(#mask0_13628_11144)">
<path d="M-10 0H70V60H-10V0Z" fill="white"/>
<mask id="mask1_13628_11144" style="mask-type:luminance" maskUnits="userSpaceOnUse" x="-10" y="0" width="80" height="60">
<path d="M70 0H-10V60H70V0Z" fill="white"/>
</mask>
<g mask="url(#mask1_13628_11144)">
<path fill-rule="evenodd" clip-rule="evenodd" d="M-22.5 0H82.5V60H-22.5V0Z" fill="white"/>
<path fill-rule="evenodd" clip-rule="evenodd" d="M-22.5 40.29H82.5V60H-22.5V40.29Z" fill="#DA0000"/>
<path fill-rule="evenodd" clip-rule="evenodd" d="M-2.53027 41.1299H3.20972V41.5199H-2.53027V41.1299ZM-1.67029 43.0999H-1.27026V43.4899H-1.67029V43.0999ZM3.23975 43.0999V43.4899H2.08972V43.0899H3.23975V43.0999ZM3.84973 41.1299H4.24976V43.4699H3.84973V41.1299Z" fill="white"/>
<path fill-rule="evenodd" clip-rule="evenodd" d="M6.14014 43.0899V43.4899H3.96008V43.0899H6.14014ZM2.09009 42.1599H2.47009V43.4799H2.08008V42.1599H2.09009Z" fill="white"/>
<path fill-rule="evenodd" clip-rule="evenodd" d="M5.80981 41.1299H6.20972V43.4699H5.80981V41.1299ZM4.82971 41.1299H5.21973V43.4699H4.82971V41.1299ZM-0.420288 42.0699V42.4699H-2.53027V42.0699H-0.420288ZM4.1897 42.0699V42.4699H2.07971V42.0699H4.1897Z" fill="white"/>
<path fill-rule="evenodd" clip-rule="evenodd" d="M2.09009 42.1799H2.47009V43.4799H2.08008V42.1799H2.09009Z" fill="white"/>
<path fill-rule="evenodd" clip-rule="evenodd" d="M2.09009 42.1799H2.47009V43.4799H2.08008V42.1799H2.09009Z" fill="white"/>
<path fill-rule="evenodd" clip-rule="evenodd" d="M2.08997 42.1799H2.46997V43.4799H2.07996V42.1799H2.08997ZM-2.52002 42.1799H-2.13V43.4799H-2.52002V42.1799ZM0.859985 42.1799H1.26001V43.4799H0.859985V42.1799ZM-0.819946 42.1799H-0.420044V43.4799H-0.819946V42.1799Z" fill="white"/>
<path fill-rule="evenodd" clip-rule="evenodd" d="M1.12012 43.0901V43.4901H-0.649902V43.0901H1.12012ZM1.24011 42.0701V42.4701H0.120117V42.0701H1.24011Z" fill="white"/>
<path fill-rule="evenodd" clip-rule="evenodd" d="M6.83008 41.1299H12.5701V41.5199H6.83008V41.1299ZM7.69006 43.0999H8.09009V43.4899H7.69006V43.0999ZM12.6001 43.0999V43.4899H11.4501V43.0899H12.6001V43.0999ZM13.2201 41.1299H13.6201V43.4699H13.2201V41.1299Z" fill="white"/>
<path fill-rule="evenodd" clip-rule="evenodd" d="M15.5002 43.0899V43.4899H13.3202V43.0899H15.5002ZM11.4502 42.1599H11.8502V43.4799H11.4502V42.1599Z" fill="white"/>
<path fill-rule="evenodd" clip-rule="evenodd" d="M15.1799 41.1299H15.5798V43.4699H15.1799V41.1299ZM14.1998 41.1299H14.5999V43.4699H14.1898V41.1299H14.1998ZM8.94983 42.0699V42.4699H6.83984V42.0699H8.94983ZM13.5599 42.0699V42.4699H11.4498V42.0699H13.5599Z" fill="white"/>
<path fill-rule="evenodd" clip-rule="evenodd" d="M11.4502 42.1799H11.8502V43.4799H11.4502V42.1799Z" fill="white"/>
<path fill-rule="evenodd" clip-rule="evenodd" d="M11.4502 42.1799H11.8502V43.4799H11.4502V42.1799Z" fill="white"/>
<path fill-rule="evenodd" clip-rule="evenodd" d="M11.4498 42.1799H11.8499V43.4799H11.4498V42.1799ZM6.83984 42.1799H7.23987V43.4799H6.83984V42.1799ZM10.2098 42.1799H10.6099V43.4799H10.2098V42.1799ZM8.52991 42.1799H8.92993V43.4799H8.52991V42.1799Z" fill="white"/>
<path fill-rule="evenodd" clip-rule="evenodd" d="M10.4998 43.0901V43.4901H8.71973V43.0901H10.4998ZM10.6198 42.0701V42.4701H9.49976V42.0701H10.6198Z" fill="white"/>
<path fill-rule="evenodd" clip-rule="evenodd" d="M16.25 41.1299H22V41.5199H16.26V41.1299H16.25ZM17.12 43.0999H17.51V43.4899H17.12V43.0999ZM22.02 43.0999V43.4899H20.87V43.0899H22.02V43.0999ZM22.64 41.1299H23.04V43.4699H22.64V41.1299Z" fill="white"/>
<path fill-rule="evenodd" clip-rule="evenodd" d="M24.9401 43.0899V43.4899H22.7601V43.0899H24.9401ZM20.8701 42.1599H21.2701V43.4799H20.8701V42.1599Z" fill="white"/>
<path fill-rule="evenodd" clip-rule="evenodd" d="M24.6097 41.1299H25.0098V43.4699H24.6097V41.1299ZM23.6097 41.1299H24.0098V43.4699H23.6097V41.1299ZM18.3597 42.0699V42.4699H16.2598V42.0699H18.3597ZM22.9697 42.0699V42.4699H20.8698V42.0699H22.9697Z" fill="white"/>
<path fill-rule="evenodd" clip-rule="evenodd" d="M20.8701 42.1799H21.2701V43.4799H20.8701V42.1799Z" fill="white"/>
<path fill-rule="evenodd" clip-rule="evenodd" d="M20.8701 42.1799H21.2701V43.4799H20.8701V42.1799Z" fill="white"/>
<path fill-rule="evenodd" clip-rule="evenodd" d="M20.8698 42.1799H21.2698V43.4799H20.8698V42.1799ZM16.2598 42.1799H16.6598V43.4799H16.2598V42.1799ZM19.6398 42.1799H20.0398V43.4799H19.6398V42.1799ZM17.9797 42.1799H18.3698V43.4799H17.9797V42.1799Z" fill="white"/>
<path fill-rule="evenodd" clip-rule="evenodd" d="M19.9199 43.0901V43.4901H18.1499V43.0901H19.9199ZM20.0399 42.0701V42.4701H18.9199V42.0701H20.0399Z" fill="white"/>
<path fill-rule="evenodd" clip-rule="evenodd" d="M25.7197 41.1299H31.4597V41.5199H25.7197V41.1299ZM26.5797 43.0999H26.9797V43.4899H26.5797V43.0999ZM31.4897 43.0999V43.4899H30.3397V43.0899H31.4897V43.0999ZM32.1097 41.1299H32.4998V43.4699H32.1097V41.1299Z" fill="white"/>
<path fill-rule="evenodd" clip-rule="evenodd" d="M34.3899 43.0899V43.4899H32.2098V43.0899H34.3899ZM30.3398 42.1599H30.7399V43.4799H30.3398V42.1599Z" fill="white"/>
<path fill-rule="evenodd" clip-rule="evenodd" d="M34.0699 41.1299H34.47V43.4699H34.0699V41.1299ZM33.09 41.1299H33.49V43.4699H33.09V41.1299ZM27.84 42.0699V42.4699H25.73V42.0699H27.84ZM32.45 42.0699V42.4699H30.34V42.0699H32.45Z" fill="white"/>
<path fill-rule="evenodd" clip-rule="evenodd" d="M30.3398 42.1799H30.7399V43.4799H30.3398V42.1799Z" fill="white"/>
<path fill-rule="evenodd" clip-rule="evenodd" d="M30.3398 42.1799H30.7399V43.4799H30.3398V42.1799Z" fill="white"/>
<path fill-rule="evenodd" clip-rule="evenodd" d="M30.34 42.1799H30.74V43.4799H30.34V42.1799ZM25.73 42.1799H26.12V43.4799H25.73V42.1799ZM29.11 42.1799H29.51V43.4799H29.11V42.1799ZM27.4301 42.1799H27.83V43.4799H27.42V42.1799H27.4301Z" fill="white"/>
<path fill-rule="evenodd" clip-rule="evenodd" d="M29.3899 43.0901V43.4901H27.6099V43.0901H29.3899ZM29.5099 42.0701V42.4701H28.3599V42.0701H29.5099Z" fill="white"/>
<path fill-rule="evenodd" clip-rule="evenodd" d="M-22.5 0H82.5V19.71H-22.5V0Z" fill="#239F40"/>
<path fill-rule="evenodd" clip-rule="evenodd" d="M35.2402 41.1299H40.9802V41.5199H35.2402V41.1299ZM36.1002 43.0999H36.5002V43.4899H36.1002V43.0999ZM41.0103 43.0999V43.4899H39.8502V43.0899H41.0103V43.0999ZM41.6302 41.1299H42.0203V43.4699H41.6302V41.1299Z" fill="white"/>
<path fill-rule="evenodd" clip-rule="evenodd" d="M43.9102 43.0899V43.4899H41.7301V43.0899H43.9102ZM39.8601 42.1599H40.2601V43.4799H39.8501V42.1599H39.8601Z" fill="white"/>
<path fill-rule="evenodd" clip-rule="evenodd" d="M43.59 41.1299H43.98V43.4699H43.59V41.1299ZM42.59 41.1299H42.99V43.4699H42.59V41.1299ZM37.34 42.0699V42.4699H35.23V42.0699H37.34ZM41.95 42.0699V42.4699H39.84V42.0699H41.95Z" fill="white"/>
<path fill-rule="evenodd" clip-rule="evenodd" d="M39.8398 42.1799H40.2499V43.4799H39.8398V42.1799Z" fill="white"/>
<path fill-rule="evenodd" clip-rule="evenodd" d="M39.8398 42.1799H40.2499V43.4799H39.8398V42.1799Z" fill="white"/>
<path fill-rule="evenodd" clip-rule="evenodd" d="M39.84 42.1799H40.25V43.4799H39.84V42.1799ZM35.25 42.1799H35.65V43.4799H35.25V42.1799ZM38.63 42.1799H39.03V43.4799H38.63V42.1799ZM36.95 42.1799H37.35V43.4799H36.95V42.1799Z" fill="white"/>
<path fill-rule="evenodd" clip-rule="evenodd" d="M38.9099 43.0901V43.4901H37.1299V43.0901H38.9099ZM39.0299 42.0701V42.4701H37.9099V42.0701H39.0299Z" fill="white"/>
<path fill-rule="evenodd" clip-rule="evenodd" d="M44.7002 41.1299H50.4402V41.5199H44.7002V41.1299ZM45.5603 43.0999H45.9602V43.4899H45.5603V43.0999ZM50.4802 43.0999V43.4899H49.3202V43.0899H50.4802V43.0999ZM51.0902 41.1299H51.4902V43.4699H51.0902V41.1299Z" fill="white"/>
<path fill-rule="evenodd" clip-rule="evenodd" d="M53.3699 43.0899V43.4899H51.1898V43.0899H53.3699ZM49.3198 42.1599H49.7198V43.4799H49.3198V42.1599Z" fill="white"/>
<path fill-rule="evenodd" clip-rule="evenodd" d="M53.0503 41.1299H53.4402V43.4699H53.0503V41.1299ZM52.0503 41.1299H52.4502V43.4699H52.0503V41.1299ZM46.8003 42.0699V42.4699H44.7002V42.0699H46.8003ZM51.4103 42.0699V42.4699H49.3103V42.0699H51.4103Z" fill="white"/>
<path fill-rule="evenodd" clip-rule="evenodd" d="M49.3101 42.1799H49.71V43.4799H49.3101V42.1799Z" fill="white"/>
<path fill-rule="evenodd" clip-rule="evenodd" d="M49.3101 42.1799H49.71V43.4799H49.3101V42.1799Z" fill="white"/>
<path fill-rule="evenodd" clip-rule="evenodd" d="M49.3103 42.1799H49.7102V43.4799H49.3103V42.1799ZM44.7002 42.1799H45.1002V43.4799H44.7002V42.1799ZM48.0802 42.1799H48.4802V43.4799H48.0802V42.1799ZM46.4003 42.1799H46.8003V43.4799H46.4103V42.1799H46.4003Z" fill="white"/>
<path fill-rule="evenodd" clip-rule="evenodd" d="M48.3599 43.0901V43.4901H46.5898V43.0901H48.3599ZM48.4799 42.0701V42.4701H47.3398V42.0701H48.4799Z" fill="white"/>
<path fill-rule="evenodd" clip-rule="evenodd" d="M54.1602 41.1299H59.9001V41.5199H54.1602V41.1299ZM55.0201 43.0999H55.4202V43.4899H55.0201V43.0999ZM59.9302 43.0999V43.4899H58.7802V43.0899H59.9302V43.0999ZM60.5402 41.1299H60.9401V43.4699H60.5402V41.1299Z" fill="white"/>
<path fill-rule="evenodd" clip-rule="evenodd" d="M62.84 43.0899V43.4899H60.66V43.0899H62.84ZM58.77 42.1599H59.17V43.4799H58.77V42.1599Z" fill="white"/>
<path fill-rule="evenodd" clip-rule="evenodd" d="M62.5099 41.1299H62.9099V43.4699H62.5099V41.1299ZM61.5299 41.1299H61.9199V43.4699H61.5299V41.1299ZM56.2799 42.0699V42.4699H54.1699V42.0699H56.2799ZM60.8899 42.0699V42.4699H58.7799V42.0699H60.8899Z" fill="white"/>
<path fill-rule="evenodd" clip-rule="evenodd" d="M58.7803 42.1799H59.1703V43.4799H58.7803V42.1799Z" fill="white"/>
<path fill-rule="evenodd" clip-rule="evenodd" d="M58.7803 42.1799H59.1703V43.4799H58.7803V42.1799Z" fill="white"/>
<path fill-rule="evenodd" clip-rule="evenodd" d="M58.7802 42.1799H59.1702V43.4799H58.7802V42.1799ZM54.1602 42.1799H54.5602V43.4799H54.1602V42.1799ZM57.5502 42.1799H57.9401V43.4799H57.5502V42.1799ZM55.8701 42.1799H56.2701V43.4799H55.8701V42.1799Z" fill="white"/>
<path fill-rule="evenodd" clip-rule="evenodd" d="M57.8197 43.0901V43.4901H56.0498V43.0901H57.8197ZM57.9397 42.0701V42.4701H56.8197V42.0701H57.9397Z" fill="white"/>
<path fill-rule="evenodd" clip-rule="evenodd" d="M-2.53027 16.8H3.20972V17.2001H-2.53027V16.8ZM-1.67029 18.7901H-1.27026V19.17H-1.67029V18.7901ZM3.23975 18.7701V19.17H2.08972V18.7701H3.23975ZM3.84973 16.8H4.24976V19.17H3.84973V16.8Z" fill="white"/>
<path fill-rule="evenodd" clip-rule="evenodd" d="M6.14014 18.7701V19.1701H3.96008V18.7701H6.14014ZM2.09009 17.8401H2.47009V19.1601H2.08008V17.8401H2.09009Z" fill="white"/>
<path fill-rule="evenodd" clip-rule="evenodd" d="M5.80981 16.8H6.20972V19.17H5.80981V16.8ZM4.82971 16.8H5.21973V19.17H4.82971V16.8ZM-0.420288 17.74V18.14H-2.53027V17.75H-0.420288V17.74ZM4.1897 17.74V18.14H2.07971V17.75H4.1897V17.74Z" fill="white"/>
<path fill-rule="evenodd" clip-rule="evenodd" d="M2.09009 17.8501H2.47009V19.1701H2.08008V17.8501H2.09009Z" fill="white"/>
<path fill-rule="evenodd" clip-rule="evenodd" d="M2.09009 17.8501H2.47009V19.1701H2.08008V17.8501H2.09009Z" fill="white"/>
<path fill-rule="evenodd" clip-rule="evenodd" d="M2.08997 17.8501H2.46997V19.1701H2.07996V17.8501H2.08997ZM-2.52002 17.8501H-2.13V19.1701H-2.52002V17.8501ZM0.859985 17.8501H1.26001V19.1701H0.859985V17.8501ZM-0.819946 17.8501H-0.420044V19.1701H-0.819946V17.8501Z" fill="white"/>
<path fill-rule="evenodd" clip-rule="evenodd" d="M1.12012 18.77V19.17H-0.649902V18.77H1.12012ZM1.24011 17.75V18.14H0.120117V17.75H1.24011Z" fill="white"/>
<path fill-rule="evenodd" clip-rule="evenodd" d="M6.83008 16.8H12.5701V17.2001H6.83008V16.8ZM7.69006 18.7901H8.09009V19.17H7.69006V18.7901ZM12.6001 18.7701V19.17H11.4501V18.7701H12.6001ZM13.2201 16.8H13.6201V19.17H13.2201V16.8Z" fill="white"/>
<path fill-rule="evenodd" clip-rule="evenodd" d="M15.5002 18.7701V19.1701H13.3202V18.7701H15.5002ZM11.4502 17.8401H11.8502V19.1601H11.4502V17.8401Z" fill="white"/>
<path fill-rule="evenodd" clip-rule="evenodd" d="M15.1799 16.8H15.5798V19.17H15.1799V16.8ZM14.1998 16.8H14.5999V19.17H14.1898V16.8H14.1998ZM8.94983 17.74V18.14H6.83984V17.75H8.94983V17.74ZM13.5599 17.74V18.14H11.4498V17.75H13.5599V17.74Z" fill="white"/>
<path fill-rule="evenodd" clip-rule="evenodd" d="M11.4502 17.8501H11.8502V19.1701H11.4502V17.8501Z" fill="white"/>
<path fill-rule="evenodd" clip-rule="evenodd" d="M11.4502 17.8501H11.8502V19.1701H11.4502V17.8501Z" fill="white"/>
<path fill-rule="evenodd" clip-rule="evenodd" d="M11.4498 17.8501H11.8499V19.1701H11.4498V17.8501ZM6.83984 17.8501H7.23987V19.1701H6.83984V17.8501ZM10.2098 17.8501H10.6099V19.1701H10.2098V17.8501ZM8.52991 17.8501H8.92993V19.1701H8.52991V17.8501Z" fill="white"/>
<path fill-rule="evenodd" clip-rule="evenodd" d="M10.4998 18.77V19.17H8.71973V18.77H10.4998ZM10.6198 17.75V18.14H9.49976V17.75H10.6198Z" fill="white"/>
<path fill-rule="evenodd" clip-rule="evenodd" d="M16.25 16.8H22V17.2001H16.26V16.8H16.25ZM17.12 18.7901H17.51V19.17H17.12V18.7901ZM22.02 18.7701V19.17H20.87V18.7701H22.02ZM22.64 16.8H23.04V19.17H22.64V16.8Z" fill="white"/>
<path fill-rule="evenodd" clip-rule="evenodd" d="M24.9401 18.7701V19.1701H22.7601V18.7701H24.9401ZM20.8701 17.8401H21.2701V19.1601H20.8701V17.8401Z" fill="white"/>
<path fill-rule="evenodd" clip-rule="evenodd" d="M24.6097 16.8H25.0098V19.17H24.6097V16.8ZM23.6097 16.8H24.0098V19.17H23.6097V16.8ZM18.3597 17.74V18.14H16.2598V17.75H18.3597V17.74ZM22.9697 17.74V18.14H20.8698V17.75H22.9697V17.74Z" fill="white"/>
<path fill-rule="evenodd" clip-rule="evenodd" d="M20.8701 17.8501H21.2701V19.1701H20.8701V17.8501Z" fill="white"/>
<path fill-rule="evenodd" clip-rule="evenodd" d="M20.8701 17.8501H21.2701V19.1701H20.8701V17.8501Z" fill="white"/>
<path fill-rule="evenodd" clip-rule="evenodd" d="M20.8698 17.8501H21.2698V19.1701H20.8698V17.8501ZM16.2598 17.8501H16.6598V19.1701H16.2598V17.8501ZM19.6398 17.8501H20.0398V19.1701H19.6398V17.8501ZM17.9797 17.8501H18.3698V19.1701H17.9797V17.8501Z" fill="white"/>
<path fill-rule="evenodd" clip-rule="evenodd" d="M19.9199 18.77V19.17H18.1499V18.77H19.9199ZM20.0399 17.75V18.14H18.9199V17.75H20.0399Z" fill="white"/>
<path fill-rule="evenodd" clip-rule="evenodd" d="M25.7197 16.8H31.4597V17.2001H25.7197V16.8ZM26.5797 18.7901H26.9797V19.17H26.5797V18.7901ZM31.4897 18.7701V19.17H30.3397V18.7701H31.4897ZM32.1097 16.8H32.4998V19.17H32.1097V16.8Z" fill="white"/>
<path fill-rule="evenodd" clip-rule="evenodd" d="M34.3899 18.7701V19.1701H32.2098V18.7701H34.3899ZM30.3398 17.8401H30.7399V19.1601H30.3398V17.8401Z" fill="white"/>
<path fill-rule="evenodd" clip-rule="evenodd" d="M34.0699 16.8H34.47V19.17H34.0699V16.8ZM33.09 16.8H33.49V19.17H33.09V16.8ZM27.84 17.74V18.14H25.73V17.75H27.84V17.74ZM32.45 17.74V18.14H30.34V17.75H32.45V17.74Z" fill="white"/>
<path fill-rule="evenodd" clip-rule="evenodd" d="M30.3398 17.8501H30.7399V19.1701H30.3398V17.8501Z" fill="white"/>
<path fill-rule="evenodd" clip-rule="evenodd" d="M30.3398 17.8501H30.7399V19.1701H30.3398V17.8501Z" fill="white"/>
<path fill-rule="evenodd" clip-rule="evenodd" d="M30.34 17.8501H30.74V19.1701H30.34V17.8501ZM25.73 17.8501H26.12V19.1701H25.73V17.8501ZM29.11 17.8501H29.51V19.1701H29.11V17.8501ZM27.4301 17.8501H27.83V19.1701H27.42V17.8501H27.4301Z" fill="white"/>
<path fill-rule="evenodd" clip-rule="evenodd" d="M29.3899 18.77V19.17H27.6099V18.77H29.3899ZM29.5099 17.75V18.14H28.3599V17.75H29.5099Z" fill="white"/>
<path fill-rule="evenodd" clip-rule="evenodd" d="M35.2402 16.8H40.9802V17.2001H35.2402V16.8ZM36.1002 18.7901H36.5002V19.17H36.1002V18.7901ZM41.0103 18.7701V19.17H39.8502V18.7701H41.0103ZM41.6302 16.8H42.0203V19.17H41.6302V16.8Z" fill="white"/>
<path fill-rule="evenodd" clip-rule="evenodd" d="M43.9102 18.7701V19.1701H41.7301V18.7701H43.9102ZM39.8601 17.8401H40.2601V19.1601H39.8501V17.8401H39.8601Z" fill="white"/>
<path fill-rule="evenodd" clip-rule="evenodd" d="M43.59 16.8H43.98V19.17H43.59V16.8ZM42.59 16.8H42.99V19.17H42.59V16.8ZM37.34 17.74V18.14H35.23V17.75H37.34V17.74ZM41.95 17.74V18.14H39.84V17.75H41.95V17.74Z" fill="white"/>
<path fill-rule="evenodd" clip-rule="evenodd" d="M39.8398 17.8501H40.2499V19.1701H39.8398V17.8501Z" fill="white"/>
<path fill-rule="evenodd" clip-rule="evenodd" d="M39.8398 17.8501H40.2499V19.1701H39.8398V17.8501Z" fill="white"/>
<path fill-rule="evenodd" clip-rule="evenodd" d="M39.84 17.8501H40.25V19.1701H39.84V17.8501ZM35.25 17.8501H35.65V19.1701H35.25V17.8501ZM38.63 17.8501H39.03V19.1701H38.63V17.8501ZM36.95 17.8501H37.35V19.1701H36.95V17.8501Z" fill="white"/>
<path fill-rule="evenodd" clip-rule="evenodd" d="M38.9099 18.77V19.17H37.1299V18.77H38.9099ZM39.0299 17.75V18.14H37.9099V17.75H39.0299Z" fill="white"/>
<path fill-rule="evenodd" clip-rule="evenodd" d="M44.7002 16.8H50.4402V17.2001H44.7002V16.8ZM45.5603 18.7901H45.9602V19.17H45.5603V18.7901ZM50.4802 18.7701V19.17H49.3202V18.7701H50.4802ZM51.0902 16.8H51.4902V19.17H51.0902V16.8Z" fill="white"/>
<path fill-rule="evenodd" clip-rule="evenodd" d="M53.3699 18.7701V19.1701H51.1898V18.7701H53.3699ZM49.3198 17.8401H49.7198V19.1601H49.3198V17.8401Z" fill="white"/>
<path fill-rule="evenodd" clip-rule="evenodd" d="M53.0503 16.8H53.4402V19.17H53.0503V16.8ZM52.0503 16.8H52.4502V19.17H52.0503V16.8ZM46.8003 17.74V18.14H44.7002V17.75H46.8003V17.74ZM51.4103 17.74V18.14H49.3103V17.75H51.4103V17.74Z" fill="white"/>
<path fill-rule="evenodd" clip-rule="evenodd" d="M49.3101 17.8501H49.71V19.1701H49.3101V17.8501Z" fill="white"/>
<path fill-rule="evenodd" clip-rule="evenodd" d="M49.3101 17.8501H49.71V19.1701H49.3101V17.8501Z" fill="white"/>
<path fill-rule="evenodd" clip-rule="evenodd" d="M49.3103 17.8501H49.7102V19.1701H49.3103V17.8501ZM44.7002 17.8501H45.1002V19.1701H44.7002V17.8501ZM48.0802 17.8501H48.4802V19.1701H48.0802V17.8501ZM46.4003 17.8501H46.8003V19.1701H46.4103V17.8501H46.4003Z" fill="white"/>
<path fill-rule="evenodd" clip-rule="evenodd" d="M48.3599 18.77V19.17H46.5898V18.77H48.3599ZM48.4799 17.75V18.14H47.3398V17.75H48.4799Z" fill="white"/>
<path fill-rule="evenodd" clip-rule="evenodd" d="M54.1602 16.8H59.9001V17.2001H54.1602V16.8ZM55.0201 18.7901H55.4202V19.17H55.0201V18.7901ZM59.9302 18.7701V19.17H58.7802V18.7701H59.9302ZM60.5402 16.8H60.9401V19.17H60.5402V16.8Z" fill="white"/>
<path fill-rule="evenodd" clip-rule="evenodd" d="M62.84 18.7701V19.1701H60.66V18.7701H62.84ZM58.77 17.8401H59.17V19.1601H58.77V17.8401Z" fill="white"/>
<path fill-rule="evenodd" clip-rule="evenodd" d="M62.5099 16.8H62.9099V19.17H62.5099V16.8ZM61.5299 16.8H61.9199V19.17H61.5299V16.8ZM56.2799 17.74V18.14H54.1699V17.75H56.2799V17.74ZM60.8899 17.74V18.14H58.7799V17.75H60.8899V17.74Z" fill="white"/>
<path fill-rule="evenodd" clip-rule="evenodd" d="M58.7803 17.8501H59.1703V19.1701H58.7803V17.8501Z" fill="white"/>
<path fill-rule="evenodd" clip-rule="evenodd" d="M58.7803 17.8501H59.1703V19.1701H58.7803V17.8501Z" fill="white"/>
<path fill-rule="evenodd" clip-rule="evenodd" d="M58.7802 17.8501H59.1702V19.1701H58.7802V17.8501ZM54.1602 17.8501H54.5602V19.1701H54.1602V17.8501ZM57.5502 17.8501H57.9401V19.1701H57.5502V17.8501ZM55.8701 17.8501H56.2701V19.1701H55.8701V17.8501Z" fill="white"/>
<path fill-rule="evenodd" clip-rule="evenodd" d="M57.8197 18.77V19.17H56.0498V18.77H57.8197ZM57.9397 17.75V18.14H56.8197V17.75H57.9397Z" fill="white"/>
<path fill-rule="evenodd" clip-rule="evenodd" d="M-8.06006 39.79H-7.35999V41.02H-8.06006V39.79ZM10.75 39.79H11.45V41.02H10.75V39.79ZM-22.5 39.79H-21.8V41.02H-22.5V39.79ZM-12.95 39.79H-12.25V41.02H-12.95V39.79ZM-3.46997 39.79H-2.77002V41.02H-3.46997V39.79ZM1.21997 39.79H1.92004V41.02H1.21997V39.79ZM6.01001 39.79H6.70996V41.02H6.01001V39.79ZM15.4301 39.79H16.13V41.02H15.4301V39.79ZM39.22 39.79H39.9301V41.02H39.23V39.79H39.22ZM20.22 39.79H20.92V41.02H20.22V39.79ZM24.91 39.79H25.61V41.02H24.91V39.79ZM29.66 39.79H30.36V41.02H29.66V39.79ZM34.39 39.79H35.09V41.02H34.39V39.79ZM72.27 39.79H72.97V41.02H72.27V39.79ZM43.83 39.79H44.53V41.02H43.83V39.79ZM48.61 39.79H49.3101V41.02H48.61V39.79ZM53.45 39.79H54.15V41.02H53.45V39.79ZM58 39.79H58.7V41.02H58V39.79ZM62.84 39.79H63.54V41.02H62.84V39.79ZM67.5699 39.79H68.27V41.02H67.5699V39.79ZM81.6 39.79H82.3V41.02H81.6V39.79ZM77.05 39.79H77.75V41.02H77.05V39.79ZM-17.74 39.79H-17.04V41.02H-17.74V39.79Z" fill="#D90000"/>
<path fill-rule="evenodd" clip-rule="evenodd" d="M-8.06006 19.05H-7.35999V20.2801H-8.06006V19.05ZM10.75 19.05H11.45V20.2801H10.75V19.05ZM-22.5 19.05H-21.8V20.2801H-22.5V19.05ZM-12.95 19.05H-12.25V20.2801H-12.95V19.05ZM-3.46997 19.05H-2.77002V20.2801H-3.46997V19.05ZM1.21997 19.05H1.92004V20.2801H1.21997V19.05ZM6.01001 19.05H6.70996V20.2801H6.01001V19.05ZM15.4301 19.05H16.13V20.2801H15.4301V19.05ZM39.22 19.05H39.9301V20.2801H39.23V19.05H39.22ZM20.22 19.05H20.92V20.2801H20.22V19.05ZM24.91 19.05H25.61V20.2801H24.91V19.05ZM29.66 19.05H30.36V20.2801H29.66V19.05ZM34.39 19.05H35.09V20.2801H34.39V19.05ZM72.27 19.05H72.97V20.2801H72.27V19.05ZM43.83 19.05H44.53V20.2801H43.83V19.05ZM48.61 19.05H49.3101V20.2801H48.61V19.05ZM53.45 19.05H54.15V20.2801H53.45V19.05ZM58 19.05H58.7V20.2801H58V19.05ZM62.84 19.05H63.54V20.2801H62.84V19.05ZM67.5699 19.05H68.27V20.2801H67.5699V19.05ZM81.6 19.05H82.3V20.2801H81.6V19.05ZM77.05 19.05H77.75V20.2801H77.05V19.05ZM-17.74 19.05H-17.04V20.2801H-17.74V19.05Z" fill="#239E3F"/>
<path fill-rule="evenodd" clip-rule="evenodd" d="M32.79 23.1399C33.77 24.3599 36.8299 31.0599 30.9499 35.4699C28.1699 37.5599 29.8999 37.6499 29.9799 37.9999C34.4299 35.6399 35.8699 32.4299 35.8399 29.5599C35.8199 26.6999 34.29 24.1699 32.79 23.1399Z" fill="#DA0000"/>
<path fill-rule="evenodd" clip-rule="evenodd" d="M33.3802 22.8301C34.4702 23.4901 35.3901 24.3901 36.0901 25.4501C36.7901 26.5101 37.2402 27.7201 37.4202 28.9801C37.6002 30.2401 37.4901 31.5201 37.1101 32.7401C36.7301 33.9501 36.0801 35.0701 35.2201 36.0001C38.4101 35.3001 42.4902 25.8801 33.3802 22.8301ZM26.6302 22.8301C25.5402 23.4901 24.6202 24.3901 23.9202 25.4501C23.2202 26.5101 22.7701 27.7201 22.5901 28.9801C22.4201 30.2401 22.5202 31.5201 22.9002 32.7401C23.2802 33.9501 23.9302 35.0701 24.7902 36.0001C21.5902 35.3001 17.5202 25.8801 26.6202 22.8301H26.6302Z" fill="#DA0000"/>
<path fill-rule="evenodd" clip-rule="evenodd" d="M27.2101 23.1399C26.2301 24.3599 23.1701 31.0599 29.0501 35.4699C31.8201 37.5599 30.1001 37.6499 30.0201 37.9999C25.5701 35.6399 24.1301 32.4299 24.1601 29.5599C24.1801 26.6999 25.7101 24.1699 27.2101 23.1399Z" fill="#DA0000"/>
<path fill-rule="evenodd" clip-rule="evenodd" d="M35.65 37.3899C33.9 37.4099 31.71 37.1599 30.08 36.2999C30.35 36.8299 30.57 37.1599 30.84 37.6699C32.39 37.8199 34.53 37.9999 35.64 37.3899H35.65ZM24.52 37.3899C26.27 37.4099 28.46 37.1599 30.09 36.2999C29.82 36.8299 29.6 37.1599 29.33 37.6699C27.78 37.8199 25.64 37.9999 24.53 37.3899H24.52ZM27.72 21.1399C28.07 22.0799 29 22.2199 29.98 21.6699C30.71 22.0899 31.82 22.1299 32.21 21.1899C32.5 23.5099 30.07 22.9499 29.98 22.4999C29.07 23.3799 27.38 22.8799 27.72 21.1399Z" fill="#DA0000"/>
<path fill-rule="evenodd" clip-rule="evenodd" d="M30.0502 38.86L30.9601 37.81L31.0901 23.74L30.0001 22.78L28.9102 23.69L29.1301 37.87L30.0402 38.87L30.0502 38.86Z" fill="#DA0000"/>
</g>
</g>
</svg>
