<svg width="60" height="60" viewBox="0 0 60 60" fill="none" xmlns="http://www.w3.org/2000/svg">
<mask id="mask0_13628_11146" style="mask-type:luminance" maskUnits="userSpaceOnUse" x="0" y="0" width="60" height="60">
<path d="M30 60C46.5685 60 60 46.5685 60 30C60 13.4315 46.5685 0 30 0C13.4315 0 0 13.4315 0 30C0 46.5685 13.4315 60 30 60Z" fill="white"/>
</mask>
<g mask="url(#mask0_13628_11146)">
<mask id="mask1_13628_11146" style="mask-type:luminance" maskUnits="userSpaceOnUse" x="-10" y="0" width="80" height="60">
<path d="M70 0H-10V60H70V0Z" fill="white"/>
</mask>
<g mask="url(#mask1_13628_11146)">
<path fill-rule="evenodd" clip-rule="evenodd" d="M-10 0H70V60H-10V0Z" fill="white"/>
<path fill-rule="evenodd" clip-rule="evenodd" d="M-10 0H16.66V60H-10V0Z" fill="#009246"/>
<path fill-rule="evenodd" clip-rule="evenodd" d="M43.3398 0H69.9999V60H43.3398V0Z" fill="#CE2B37"/>
</g>
</g>
</svg>
