<svg width="60" height="60" viewBox="0 0 60 60" fill="none" xmlns="http://www.w3.org/2000/svg">
<mask id="mask0_13628_11147" style="mask-type:luminance" maskUnits="userSpaceOnUse" x="0" y="0" width="60" height="60">
<path d="M30 60C46.5685 60 60 46.5685 60 30C60 13.4315 46.5685 0 30 0C13.4315 0 0 13.4315 0 30C0 46.5685 13.4315 60 30 60Z" fill="white"/>
</mask>
<g mask="url(#mask0_13628_11147)">
<path d="M-10.1001 0H69.8999V60H-10.1001V0Z" fill="white"/>
<mask id="mask1_13628_11147" style="mask-type:luminance" maskUnits="userSpaceOnUse" x="-11" y="0" width="81" height="60">
<path d="M69.8999 0H-10.1001V60H69.8999V0Z" fill="white"/>
</mask>
<g mask="url(#mask1_13628_11147)">
<path d="M-10.1001 0H69.8999V60H-10.1001V0Z" fill="white"/>
<path fill-rule="evenodd" clip-rule="evenodd" d="M-20.1001 0V4L23.7 30L-19.9001 56V60H-13.5001L30.0999 34L73.4999 60H79.8999V56L36.4999 30L80.0999 4V0H73.4999L29.8999 26L-13.5001 0H-20.1001Z" fill="#DF112D"/>
<path d="M35.0997 8.99994C36.4997 14.1999 35.6998 20.5999 29.8998 24.1999C24.0998 20.5999 23.2998 14.1999 24.6998 8.99994C26.0998 7.79994 32.2997 6.99994 35.0997 8.99994Z" fill="#E8112D"/>
<path d="M29.8998 7.9999C31.8998 7.9999 33.4997 8.3999 35.0997 9.1999C35.3897 7.4699 36.0697 5.8199 37.0997 4.3999C36.0997 4.3999 35.6998 4.7999 35.6998 5.3999C35.4998 4.7999 34.4997 4.7999 34.0997 5.1999C35.2997 5.7999 34.4998 7.1999 33.4998 6.9999C32.8998 6.7999 32.6998 6.3999 32.6998 5.9999C32.8498 5.9699 32.9798 5.8999 33.0698 5.7799C33.1598 5.6599 33.2098 5.5099 33.1898 5.3599C33.1698 5.2099 33.1098 5.0699 32.9998 4.9699C32.8898 4.8699 32.7397 4.8099 32.5897 4.8099C32.4397 4.8099 32.2898 4.8699 32.1798 4.9699C32.0698 5.0699 31.9997 5.2099 31.9897 5.3599C31.9797 5.5099 32.0197 5.6599 32.1097 5.7799C32.1997 5.8999 32.3397 5.9799 32.4797 5.9999C32.1097 6.3799 31.6098 6.5899 31.0798 6.5999C30.8498 6.4899 30.6498 6.3199 30.5098 6.1099C30.3698 5.8999 30.2898 5.6499 30.2798 5.3999C30.2798 4.3999 31.4798 4.1999 31.6798 4.3999C31.6798 3.7999 30.4798 2.9999 30.2798 3.7999C30.4898 3.4099 30.5597 2.9699 30.4897 2.5299C30.4197 2.0999 30.1998 1.6999 29.8798 1.3999C29.5998 1.6899 29.4197 2.0499 29.3397 2.4399C29.2697 2.8299 29.3197 3.2399 29.4797 3.5999C29.0797 2.9999 28.0798 3.5999 28.0798 4.3999C28.2798 4.1999 29.2798 4.3999 29.2798 5.3999C29.2798 5.7999 29.2798 6.3999 28.6798 6.3999C28.4398 6.4999 28.1698 6.5099 27.9098 6.4399C27.6598 6.3699 27.4298 6.2099 27.2798 5.9999L27.6798 5.7999C27.7898 5.7299 27.8798 5.6299 27.9298 5.5099C27.9798 5.3899 27.9898 5.2499 27.9598 5.1299C27.9298 4.9999 27.8498 4.8899 27.7498 4.8099C27.6498 4.7299 27.5198 4.6899 27.3798 4.6899C27.2398 4.6899 27.1198 4.7299 27.0098 4.8099C26.9098 4.8899 26.8298 4.9999 26.7998 5.1299C26.7698 5.2599 26.7698 5.3899 26.8298 5.5099C26.8798 5.6299 26.9698 5.7299 27.0798 5.7999C27.0798 6.3999 26.6798 6.7999 26.2798 6.7999C26.0698 6.7999 25.8698 6.7299 25.6998 6.6099C25.5298 6.4899 25.3997 6.3099 25.3397 6.1099C25.2697 5.9099 25.2697 5.6999 25.3397 5.4999C25.3997 5.2999 25.5298 5.1199 25.6898 4.9999C25.2898 4.5999 24.2897 4.5999 24.0897 5.3999C24.0897 4.7999 23.6897 4.3999 22.4897 4.3999C23.5197 5.8199 24.1997 7.4699 24.4897 9.1999C26.1497 8.3299 28.0198 7.9199 29.8898 7.9999H29.8998Z" fill="#F9DD16"/>
<path d="M34.4999 13.1999H34.0999H34.7C34.9 13.1999 35.0999 12.9999 34.8999 12.7999H35.2999L34.8999 12.3999H35.2999L34.8999 11.9999H35.0999C35.0599 11.9399 35.0499 11.8699 35.0499 11.7999C35.0499 11.7299 35.0699 11.6599 35.0999 11.5999H33.7L32.7 11.3999L33.8999 10.7999C33.8999 10.3999 33.2999 9.79991 32.2999 10.1999L30.0999 9.99991L31.4999 9.59991L33.0999 9.39991H31.7C31.1 9.39991 29.7 9.19991 29.7 9.99991C29.7 10.7999 31.0999 10.5999 32.4999 10.3999L33.7 10.5999L32.4999 10.9999C31.9099 10.8599 31.29 10.8599 30.7 10.9999H29.2999C28.8999 10.9999 28.2999 10.9999 27.8999 10.5999C27.8999 10.5999 27.0999 10.9999 27.0999 11.3999V11.9999C27.4999 12.3999 27.1 12.1999 26.7 12.1999L25.7 11.9999C25.5 11.5999 25.2999 11.3999 24.8999 11.5999V11.9999H25.2999C25.2399 11.9599 25.1699 11.9499 25.0999 11.9499C25.0299 11.9499 24.9599 11.9699 24.8999 11.9999V12.3999H25.4999H25.0999V12.5999H25.8999C25.7899 12.5999 25.6899 12.6399 25.6199 12.7199C25.5399 12.7899 25.4999 12.8999 25.4999 12.9999C25.6999 12.7999 25.8999 12.9999 26.2999 12.9999L25.8999 13.1999C26.0999 13.1999 27.2999 13.3999 27.2999 12.9999V13.1999C27.2999 13.1999 27.8999 13.1999 27.8999 12.7999V13.1999C27.8999 13.1999 28.2999 13.1999 28.4999 12.7999V12.3999H29.4999C29.8999 11.9999 30.0999 12.3999 30.2999 12.1999H30.7C30.9 12.1999 31.0999 12.1999 31.2999 11.7999C31.6999 11.9999 32.2999 12.1999 33.4999 11.9999C34.0999 11.9999 34.4999 12.1999 34.4999 12.5999H33.4999C33.4999 12.5999 33.2999 12.7999 33.4999 12.9999C33.6999 13.1999 33.5 12.9999 33.7 12.9999C33.7 12.9999 33.5 13.1999 33.7 13.3999L34.2999 13.1999H34.4999ZM26.4999 9.79991V9.99991L26.7 10.3999L26.8999 9.79991H26.4999Z" fill="#F9DD16"/>
<path d="M27.8999 10C28.0999 9.80005 28.2999 9.80005 28.2999 10L28.0999 10.4L27.8999 9.80005V10Z" fill="#F9DD16"/>
<path d="M27.3 9.6001C27.9 9.6001 28.1 10.0001 28.1 10.4001L27.7001 11.2001L27.3 11.4001L26.9 11.2001C26.9 10.6001 26.5 10.8001 26.5 10.4001C26.5 10.0001 26.5 9.6001 27.3 9.6001Z" fill="#F9DD16"/>
<path d="M25.7 11.1999H25.2999C25.4999 11.1999 25.4999 11.5999 26.0999 11.5999H25.7C25.9 11.5999 26.1 11.9999 26.7 11.9999C26.7 12.1999 27.0999 11.9999 27.2999 12.3999C27.2999 12.1999 26.8999 11.7999 27.2999 11.3999C26.4999 11.3999 26.2999 10.9999 26.0999 10.7999C25.6999 10.5999 25.6999 10.1999 25.4999 9.79995C25.4999 9.79995 25.2999 9.39995 25.0999 9.59995V9.99994H24.8999C25.0999 9.99994 24.8999 10.3999 25.2999 10.5999C25.0999 10.3999 24.9 10.1999 24.7 10.3999H24.8999L25.7 11.1999ZM30.8999 13.1999H31.8999L32.2999 12.9999V12.5999C32.0999 12.5999 31.8999 12.3999 32.0999 12.1999C31.4999 11.3999 30.2999 11.7999 30.2999 12.1999L31.0999 12.5999H31.2999H29.8999L30.0999 12.7999L29.7 12.9999C29.7 13.3999 30.0999 12.9999 30.0999 12.9999V13.1999C30.0999 13.1999 30.0999 13.3999 30.2999 13.1999C30.4299 13.1499 30.57 13.1499 30.7 13.1999H30.8999Z" fill="#F9DD16"/>
<path d="M27.2999 11.2H27.4999V10.8H26.8999V11L27.2999 11.2Z" fill="#FF0016"/>
<path d="M25.1 9.60012C25.1 9.40012 24.7001 9.60012 24.7001 9.60012H25.1ZM25.1 9.80012L24.5 10.0001H24.9L25.1 9.80012ZM25.1 11.8001C24.9 11.8001 24.7001 11.8001 24.7001 12.2001C24.7001 12.0001 24.9 12.2001 25.1 12.2001V11.8001ZM25.1 12.2001L24.7001 12.6001L25.1 12.4001V12.0001V12.2001ZM25.1 12.4001C25.1 12.4001 24.9 12.6001 25.1 12.8001V12.2001V12.4001ZM30.1 13.0001C29.9 13.0001 29.7001 13.0001 29.7001 13.4001L30.1 13.2001V13.0001ZM30.3 13.0001C30.1 13.0001 29.9 13.4001 30.1 13.6001L30.3 13.4001V13.0001ZM30.3 12.6001C29.9 12.6001 29.7001 12.6001 29.7001 13.0001L30.1 12.8001L30.3 12.6001ZM33.5 13.0001C33.5 13.0001 33.1 13.2001 33.3 13.4001L33.5 13.2001V13.0001ZM33.5 12.8001L33.1 13.0001H33.5V12.4001V12.8001ZM33.5 13.2001C33.5 13.2001 33.3 13.6001 33.5 13.6001H33.7001V13.0001L33.5 13.2001ZM27.5 11.2001V12.0001C27.2333 12.0001 27.1 11.8668 27.1 11.6001V11.2001H27.5Z" fill="#0051BA"/>
<path d="M33.6998 17.4H34.0997C34.0997 17.4 34.2997 17.4 34.0997 17.2H34.4998L34.2998 16.8H34.4998L34.2998 16.4C34.2598 16.34 34.2498 16.27 34.2498 16.2C34.2498 16.13 34.2698 16.06 34.2998 16H33.2998L32.2998 15.8C32.8998 16 33.4998 15.6 33.4998 15.2C33.4998 14.8 32.8997 14.4 32.0997 14.8L29.8998 14.6L31.0997 14.2H32.6998L31.2998 14C30.6998 13.8 29.4998 14 29.4998 14.6C29.4998 15.2 30.8997 15.2 32.0997 15H33.0997L32.0997 15.4C31.5697 15.28 31.0298 15.28 30.4998 15.4L29.0997 15.6C28.8997 15.6 28.2998 15.6 27.8998 15.2L27.0997 15.8L27.2998 16.6C27.4998 16.8 27.2998 16.6 26.8998 16.6H25.8998C25.8998 16.2 25.4998 16 25.2998 16.2V16.4H25.6998C25.6398 16.36 25.5698 16.35 25.4998 16.35C25.4298 16.35 25.3598 16.37 25.2998 16.4V16.8H25.6998H25.4998C25.8998 16.8 25.8997 17.2 26.0997 17C26.0297 16.98 25.9698 16.98 25.8998 17C25.8998 17 26.2998 17.4 26.4998 17.2L26.2998 17.6C26.2998 17.4 27.4998 17.6 27.4998 17.2V17.6C27.4998 17.6 27.8997 17.6 28.0997 17.2H28.4998V16.8H28.8998L29.4998 16.6H30.4998C30.6998 16.6 30.8997 16.6 31.0997 16.2C31.4997 16.4 31.8997 16.6 33.0997 16.4C33.4997 16.4 33.6998 16.4 33.6998 16.8V17H32.8998V17.4C32.8998 17.6 33.0998 17.4 33.2998 17.4C33.0998 17.4 32.8997 17.4 33.0997 17.6H33.2998L33.6998 17.4ZM26.8998 14.4H26.4998L26.6998 15L26.8998 14.4Z" fill="#F9DD16"/>
<path d="M27.8999 14.3999H28.2999L28.0999 14.9999L27.8999 14.3999Z" fill="#F9DD16"/>
<path d="M27.4999 14.2C28.0999 14.2 28.0999 14.6 28.0999 15C28.0999 15.4 27.9 15 27.7 15.6L27.2999 15.8H27.0999C27.0999 15.2 26.7 15.2 26.7 15C26.7 14.8 26.6999 14.2 27.4999 14.2Z" fill="#F9DD16"/>
<path d="M25.8999 15.6H25.7C25.7 15.6 25.6999 16 26.2999 16H25.8999L26.7 16.4L27.4999 16.8C27.4999 16.4 27.0999 16.2 27.2999 15.8C26.6999 15.8 26.4999 15.4 26.2999 15.2C25.8999 15.2 25.8999 14.8 25.8999 14.4L25.4999 14.2V14.6H25.2999L25.4999 15H25.0999C25.4999 15 25.6999 15.6 25.8999 15.6ZM30.7 17.4H30.4999H32.0999V17C31.8999 17 31.6999 16.8 31.8999 16.4C31.2999 15.8 30.2999 16.2 30.2999 16.4L31.0999 16.8C31.0999 16.8 31.4999 16.8 31.0999 17H30.7C30.3 17 30.0999 16.8 29.8999 17V17.4H30.0999C30.0999 17.4 30.0999 17.6 30.2999 17.4C30.4299 17.35 30.57 17.35 30.7 17.4Z" fill="#F9DD16"/>
<path d="M27.4999 15.6C27.4999 15.6 27.6999 15.4 27.4999 15.2C27.4999 15.4 27.6999 15.4 27.4999 15.2C27.4999 15.4 27.0999 15.4 27.0999 15.2V15.6H27.4999Z" fill="#FF0016"/>
<path d="M26.8999 15.2L27.0999 15.3L27.2999 15.2H26.8999Z" fill="black"/>
<path d="M27.8999 15.2L27.6999 15.3L27.4999 15.2H27.8999Z" fill="black"/>
<path d="M25.4999 14L25.0999 14.2H25.4999V14ZM25.4999 14.4L24.8999 14.6H25.2999L25.4999 14.4ZM25.2999 15C25.2999 14.8 24.8999 15 24.8999 15H25.2999ZM25.2999 16.2L24.8999 16.4H25.4999L25.2999 16.2ZM25.2999 16.6C25.2999 16.6 24.8999 16.6 25.2999 17V16.6ZM25.7 16.6L25.2999 17.2L25.7 17V16.6ZM29.7 17.2C29.7 17.2 29.5 17.2 29.7 17.6L29.8999 17.4V17.2H29.7ZM30.0999 17.4C30.0999 17.4 29.6999 17.6 29.8999 17.8L30.0999 17.6V17.4ZM30.0999 16.8C29.8999 16.8 29.5 17 29.7 17.2H29.8999V17L30.0999 16.8ZM32.8999 17.4C32.8999 17.4 32.6999 17.4 32.8999 17.6V17.2V17.4ZM32.8999 17L32.7 17.2H33.0999V17H32.8999ZM33.0999 17.6C33.0999 17.6 32.8999 17.6 33.0999 17.8V17.6ZM27.4999 15.6V16.4V16C27.4999 15.8 27.4999 15.6 27.2999 15.8V15.6H27.4999Z" fill="#0051BA"/>
<path d="M33.6998 20.86C33.5898 20.86 33.5898 21.01 33.5598 21.01C33.7798 21.01 33.8998 20.92 33.9498 20.8V20.98C34.1198 20.92 34.1697 20.77 34.1197 20.68L34.3198 20.74C34.2098 20.65 34.2897 20.44 34.0997 20.32C34.1597 20.32 34.2698 20.38 34.3198 20.47C34.2898 20.26 34.2597 20.14 34.0997 20.02H34.2397C34.2397 20.02 34.1697 19.96 34.1497 19.92C34.1297 19.88 34.1197 19.83 34.1197 19.78C34.1197 19.66 34.0598 19.66 33.9498 19.69L33.4498 19.72C33.1698 19.72 32.8898 19.72 32.6698 19.54C33.0298 19.72 33.5097 19.36 33.5097 19.09C33.5097 18.79 33.1197 18.49 32.3897 18.67C31.6597 18.85 30.7697 18.79 30.7697 18.52C30.7697 18.25 31.4097 18.22 31.7497 18.28C32.0897 18.34 32.3098 18.37 32.9298 18.13C32.7898 18.19 32.2897 18.22 31.8897 18.1C31.4997 17.98 30.5498 17.98 30.5498 18.52C30.5498 19.09 31.5598 19.03 32.4498 18.88C32.9498 18.82 33.2297 18.88 33.2297 19.03C33.2297 19.21 32.7497 19.27 32.3897 19.24C32.0097 19.18 31.6097 19.22 31.2397 19.33C30.8797 19.45 30.6197 19.33 30.2297 19.42C30.0297 19.42 29.5598 19.42 29.3298 19C29.1898 19.12 28.7698 19.33 28.6898 19.57C28.6098 19.75 28.6898 19.96 28.7998 20.17C28.9698 20.41 28.7197 20.38 28.5197 20.38C28.2997 20.38 27.9598 20.38 27.7898 20.14C27.6198 19.96 27.4297 19.81 27.2597 19.93C27.1797 20.02 27.2598 20.11 27.3198 20.08L27.5398 20.14C27.5398 20.14 27.4497 20.11 27.3997 20.11C27.3497 20.11 27.2997 20.13 27.2597 20.17C27.1797 20.23 27.2597 20.35 27.3397 20.32C27.3997 20.29 27.5397 20.26 27.6197 20.32C27.5397 20.32 27.4197 20.32 27.3997 20.38C27.3697 20.44 27.3997 20.5 27.4797 20.5C27.6497 20.5 27.6797 20.62 27.8397 20.59C27.7997 20.59 27.7597 20.6 27.7297 20.63C27.6997 20.65 27.6697 20.68 27.6497 20.71C27.8197 20.62 27.9597 20.83 28.1497 20.77C28.0897 20.8 27.9498 20.89 27.9498 20.95C28.0598 20.8 28.8497 21.07 28.8497 20.74L28.8198 20.98C28.8998 20.92 29.2098 20.89 29.3198 20.68C29.3198 20.74 29.3197 20.83 29.2597 20.86C29.3397 20.86 29.4797 20.8 29.6197 20.59C29.6797 20.5 29.6798 20.44 29.6798 20.38C29.8198 20.38 29.8997 20.35 30.0197 20.26C30.1397 20.17 30.2398 20.35 30.4398 20.2C30.6098 20.08 30.7797 20.2 30.8897 20.14C30.9697 20.08 31.1097 20.14 31.2297 20.08C31.3497 20.02 31.5098 20.11 31.6798 19.96C31.9598 20.08 32.3197 20.26 33.1397 20.11C33.5897 20.02 33.7597 20.2 33.7597 20.41C33.7597 20.59 33.6497 20.59 33.5897 20.59C33.3097 20.62 33.2297 20.5 33.1097 20.53C33.0497 20.56 32.9997 20.68 33.1097 20.74C33.0297 20.77 33.0298 20.86 33.0798 20.89C33.1398 20.92 33.2198 20.89 33.2998 20.86C33.1898 20.89 33.0997 20.98 33.1597 21.07C33.1897 21.13 33.2697 21.16 33.3597 21.07C33.4397 20.95 33.5798 20.86 33.6998 20.86ZM28.4897 18.46C28.2697 18.37 28.2097 18.37 28.2397 18.58C28.2397 18.67 28.3197 18.79 28.3797 18.85C28.3797 18.76 28.4097 18.55 28.4897 18.49V18.46Z" fill="#F9DD16" stroke="black" stroke-width="0.03"/>
<path d="M29.2397 18.49C29.4597 18.37 29.5497 18.37 29.4897 18.58C29.4897 18.67 29.4097 18.79 29.3497 18.85C29.3497 18.76 29.3497 18.55 29.2397 18.49Z" fill="#F9DD16" stroke="black" stroke-width="0.03"/>
<path d="M28.8799 18.3401C29.3299 18.3401 29.3799 18.5801 29.3599 18.8501C29.3599 19.1501 29.2199 19.0301 29.1399 19.4501C29.1099 19.5701 28.9999 19.6001 28.8599 19.6001C28.7799 19.6001 28.6599 19.6001 28.6099 19.4201C28.5299 19.0301 28.3899 19.1201 28.3899 18.8201C28.3899 18.5801 28.4499 18.3401 28.8899 18.3401H28.8799Z" fill="#F9DD16" stroke="black" stroke-width="0.03"/>
<path d="M27.7298 19.4501C27.6198 19.3901 27.5298 19.4501 27.4798 19.4501C27.6498 19.4801 27.6498 19.6901 27.9798 19.7501C27.8998 19.7501 27.8699 19.8101 27.7799 19.7501C27.9199 19.8701 28.0599 20.0201 28.3999 20.0201C28.5999 20.0201 28.4598 20.1101 28.3398 20.0501C28.4498 20.2001 28.6998 20.0801 28.8698 20.3501C28.8698 20.1401 28.5898 19.8401 28.7298 19.6301C28.2498 19.6001 28.2298 19.3301 27.9698 19.1201C27.7498 18.9401 27.7198 18.7601 27.6298 18.4301C27.5998 18.2801 27.4298 18.1901 27.3498 18.2201C27.2698 18.2201 27.2099 18.3101 27.2899 18.3701C27.3499 18.4301 27.4599 18.4301 27.4599 18.5801C27.3799 18.4601 27.2399 18.4301 27.1799 18.4901C27.1499 18.5501 27.1798 18.6401 27.2398 18.6401C27.3798 18.6401 27.2999 18.8201 27.4399 18.9401C27.2999 18.7901 27.1898 18.7601 27.0998 18.8501C27.0698 18.9101 27.0999 19.0001 27.2099 19.0001C27.3499 19.0001 27.4899 19.3601 27.7099 19.4501H27.7298ZM31.3698 20.8301C31.3098 20.8301 31.3398 20.9801 31.2298 20.9801C31.4498 20.9801 31.5899 20.9201 31.6799 20.8301L31.6198 20.9801C31.7298 20.8901 32.0399 20.8601 32.1799 20.8901C32.3199 20.9201 32.3499 20.8601 32.3999 20.7701C32.4599 20.6501 32.3999 20.5901 32.3199 20.5301C32.2399 20.4401 32.2098 20.3201 32.2398 20.1401C31.8498 19.5401 31.1198 19.8401 31.1198 20.0801C31.3698 20.4101 31.3998 20.3801 31.6198 20.4101C31.8198 20.4701 31.9599 20.4701 31.8199 20.5901C31.7599 20.6501 31.5399 20.5901 31.3999 20.6201C31.0399 20.6201 30.8398 20.3501 30.7598 20.5001C30.6798 20.6201 30.7599 20.6801 30.9299 20.6801C30.8199 20.6801 30.6499 20.6801 30.6799 20.8001C30.7399 21.0101 30.8998 20.7701 30.9898 20.8301C30.9298 20.8301 30.8199 20.8601 30.8199 20.9201C30.8199 20.9801 30.9598 21.0701 31.0998 20.9201C31.1798 20.8601 31.2798 20.8301 31.3798 20.8301H31.3698Z" fill="#F9DD16" stroke="black" stroke-width="0.03"/>
<path d="M31.6798 19.9599C31.5698 19.8999 31.4298 19.8699 31.2898 19.8999M29.7197 19.8999C29.6097 20.1399 29.6598 20.2599 29.6898 20.3799M28.5698 18.6999C28.6298 18.7599 28.6798 18.6399 28.7898 18.7599M28.7898 18.7599C28.7898 18.7599 28.7098 18.8499 28.6198 18.7599M28.7898 18.7599V18.8499C28.7598 19.0599 28.7097 19.1499 28.8497 19.1499C29.0197 19.1499 28.9598 19.0599 28.9298 18.8499V18.7599M28.9298 18.7599C29.0398 18.6399 29.0998 18.7299 29.1798 18.7299M28.9298 18.7599C28.9298 18.7599 29.0097 18.8499 29.0997 18.7599" stroke="black" stroke-width="0.03"/>
<path d="M28.8798 19.5101C28.9898 19.5101 29.0498 19.5101 29.0498 19.3301C29.0498 19.2701 29.1298 19.2401 29.0798 19.1201C29.1398 19.2401 28.8798 19.2401 28.8798 19.1801C28.8798 19.2401 28.5998 19.2401 28.6598 19.1201C28.6298 19.2401 28.7198 19.2701 28.6898 19.3301C28.6898 19.5101 28.7498 19.5101 28.8898 19.5101H28.8798Z" fill="#FF0016" stroke="black" stroke-width="0.03"/>
<path d="M28.46 19.0601L28.7399 19.1501H28.46M28.7399 19.1801L28.4899 19.2701M29.2499 19.0601L28.9698 19.1501H29.3099M28.9698 19.1801L29.2499 19.2701" stroke="black" stroke-width="0.03"/>
<path d="M26.4999 20.2C26.4999 20 26.2999 20.2 26.2999 20.2H26.4999ZM26.4999 20.2C26.4999 20.2 26.2999 20.6 26.4999 20.6V20.2ZM29.8999 20.8C29.8999 20.8 29.5 21 29.7 21.2V20.8H29.8999ZM29.8999 20.6L29.7 20.8H29.8999V20.6ZM32.0999 21.2V21.4H32.2999V21.2H32.0999Z" fill="#0051BA"/>
</g>
</g>
</svg>
