<svg width="60" height="60" viewBox="0 0 60 60" fill="none" xmlns="http://www.w3.org/2000/svg">
<mask id="mask0_13628_11148" style="mask-type:luminance" maskUnits="userSpaceOnUse" x="0" y="0" width="60" height="60">
<path d="M30 60C46.5685 60 60 46.5685 60 30C60 13.4315 46.5685 0 30 0C13.4315 0 0 13.4315 0 30C0 46.5685 13.4315 60 30 60Z" fill="white"/>
</mask>
<g mask="url(#mask0_13628_11148)">
<mask id="mask1_13628_11148" style="mask-type:luminance" maskUnits="userSpaceOnUse" x="-11" y="0" width="81" height="60">
<path d="M69.98 0H-10.02V60H69.98V0Z" fill="white"/>
</mask>
<g mask="url(#mask1_13628_11148)">
<path d="M-10.02 0H69.98V60H-10.02V0Z" fill="white"/>
<path d="M-10.02 0H69.98V18H-10.02V0Z" fill="black"/>
<path d="M-10.02 42H69.98V60H-10.02V42Z" fill="#006600"/>
<path d="M19.26 47.81L19.9299 48.19L37.4399 17.81C38.4499 17.58 39.02 16.61 39.58 15.63C39.96 14.95 41.46 12.37 42.09 8.98999C40.31 10.57 38.8 12.43 37.63 14.5C37.07 15.48 36.51 16.45 36.77 17.46L19.26 47.8V47.81Z" fill="black" stroke="black" stroke-width="0.38"/>
<path d="M19.26 47.81L19.9299 48.19L37.4399 17.81C38.4499 17.58 39.02 16.61 39.58 15.63C39.96 14.95 41.46 12.37 42.09 8.98999C40.31 10.57 38.8 12.43 37.63 14.5C37.07 15.48 36.51 16.45 36.77 17.46L19.26 47.8V47.81Z" fill="white"/>
<path d="M40.7101 47.81L40.03 48.19L22.5201 17.81C21.5101 17.58 20.9401 16.61 20.3801 15.63C20.0001 14.95 18.5001 12.37 17.8701 8.98999C19.6501 10.57 21.1601 12.43 22.3301 14.5C22.8901 15.48 23.4501 16.45 23.1901 17.46L40.7001 47.8L40.7101 47.81Z" fill="black" stroke="black" stroke-width="0.38"/>
<path d="M40.7101 47.81L40.03 48.19L22.5201 17.81C21.5101 17.58 20.9401 16.61 20.3801 15.63C20.0001 14.95 18.5001 12.37 17.8701 8.98999C19.6501 10.57 21.1601 12.43 22.3301 14.5C22.8901 15.48 23.4501 16.45 23.1901 17.46L40.7001 47.8L40.7101 47.81Z" fill="white"/>
<path d="M70.0499 21H37.11C35.99 18 32.23 12 29.99 12C27.75 12 23.99 18 22.87 21H-10.03V39H22.87C23.99 42 27.75 48 29.99 48C32.23 48 35.99 42 37.11 39H70.0499V21Z" fill="#BB0000"/>
<path d="M37.11 39C38.23 36 38.99 33 38.99 30C38.99 27 38.24 24 37.11 21C35.99 24 35.23 27 35.23 30C35.23 33 35.98 36 37.11 39Z" fill="black"/>
<path d="M22.86 39C21.74 36 20.98 33 20.98 30C20.98 27 21.73 24 22.86 21C23.98 24 24.74 27 24.74 30C24.74 33 23.99 36 22.86 39Z" fill="black"/>
<path d="M29.98 32.25C30.81 32.25 31.48 31.24 31.48 30C31.48 28.76 30.81 27.75 29.98 27.75C29.15 27.75 28.48 28.76 28.48 30C28.48 31.24 29.15 32.25 29.98 32.25Z" fill="white"/>
<path d="M30.3599 32.1699C30.3599 32.1699 31.8599 35.1699 31.8599 40.0499C31.8599 44.9299 30.3599 47.9299 30.3599 47.9299V32.1799V32.1699Z" fill="white"/>
<path d="M29.6099 27.8301C29.6099 27.8301 28.1099 24.8301 28.1099 19.9501C28.1099 15.0701 29.6099 12.0701 29.6099 12.0701V27.8201V27.8301Z" fill="white"/>
<path d="M29.6099 32.1699C29.6099 32.1699 28.1099 35.1699 28.1099 40.0499C28.1099 44.9299 29.6099 47.9299 29.6099 47.9299V32.1799V32.1699Z" fill="white"/>
<path d="M30.3599 27.8301C30.3599 27.8301 31.8599 24.8301 31.8599 19.9501C31.8599 15.0701 30.3599 12.0701 30.3599 12.0701V27.8201V27.8301Z" fill="white"/>
</g>
</g>
</svg>
