<svg width="60" height="60" viewBox="0 0 60 60" fill="none" xmlns="http://www.w3.org/2000/svg">
<mask id="mask0_13628_11150" style="mask-type:luminance" maskUnits="userSpaceOnUse" x="0" y="0" width="60" height="60">
<path d="M30 60C46.5685 60 60 46.5685 60 30C60 13.4315 46.5685 0 30 0C13.4315 0 0 13.4315 0 30C0 46.5685 13.4315 60 30 60Z" fill="white"/>
</mask>
<g mask="url(#mask0_13628_11150)">
<path d="M-10 0H70V60H-10V0Z" fill="white"/>
<mask id="mask1_13628_11150" style="mask-type:luminance" maskUnits="userSpaceOnUse" x="-10" y="0" width="80" height="60">
<path d="M70 0H-10V60H70V0Z" fill="white"/>
</mask>
<g mask="url(#mask1_13628_11150)">
<path d="M-10 0H70V60H-10V0Z" fill="#CC0000"/>
<path d="M-10 0H70V4.29H-10V0Z" fill="#CC0000"/>
<path d="M-10 4.29004H70V8.58004H-10V4.29004Z" fill="white"/>
<path d="M-10 8.57007H70V12.8601H-10V8.57007Z" fill="#CC0000"/>
<path d="M-10 12.8601H70V17.1201H-10V12.8601Z" fill="white"/>
<path d="M-10 17.1399H70V21.4299H-10V17.1399Z" fill="#CC0000"/>
<path d="M-10 21.4199H70V25.7099H-10V21.4199Z" fill="white"/>
<path d="M-10 25.71H70V30H-10V25.71Z" fill="#CC0000"/>
<path d="M-10 30H70V34.29H-10V30Z" fill="white"/>
<path d="M-10 34.29H70V38.58H-10V34.29Z" fill="#CC0000"/>
<path d="M-10 38.5801H70V42.8701H-10V38.5801Z" fill="white"/>
<path d="M-10 42.8601H70V47.1201H-10V42.8601Z" fill="#CC0000"/>
<path d="M-10 47.1399H70V51.4299H-10V47.1399Z" fill="white"/>
<path d="M-10 51.4199H70V55.7099H-10V51.4199Z" fill="#CC0000"/>
<path d="M-10 55.71H70V60H-10V55.71Z" fill="white"/>
<path d="M-10 0.0600586H30V34.3501H-10V0.0600586Z" fill="#000066"/>
<path d="M15.9399 9.22009L16.6899 14.3101L19.5699 10.0601L18.02 14.9601L22.46 12.3601L18.95 16.1101L24.0699 15.7101L19.28 17.5601L24.0699 19.4101L18.95 19.0101L22.46 22.7601L18.02 20.1601L19.5601 25.0701L16.6801 20.8101L15.9301 25.9001L15.1899 20.8101L12.3101 25.0601L13.86 20.1601L9.42004 22.7601L12.92 19.0101L7.80005 19.4101L12.6 17.5601L7.81006 15.7101L12.9301 16.1101L9.42004 12.3601L13.86 14.9601L12.3101 10.0501L15.1899 14.3101L15.9399 9.22009ZM11.78 9.43009C10.43 8.83009 8.93997 8.57009 7.46997 8.69009C5.98997 8.81009 4.56996 9.29009 3.32996 10.1001C2.08996 10.9101 1.06999 12.0101 0.359985 13.3101C-0.350015 14.6101 -0.719961 16.0701 -0.709961 17.5501C-0.709961 19.0301 -0.340015 20.4901 0.359985 21.7901C1.06999 23.0901 2.08996 24.2001 3.32996 25.0001C4.56996 25.8101 5.99997 26.2901 7.46997 26.4101C8.94997 26.5301 10.43 26.2701 11.78 25.6701C10.29 26.7401 8.51994 27.3801 6.68994 27.5201C4.85994 27.6601 3.02 27.2801 1.38 26.4401C-0.259995 25.6001 -1.62996 24.3201 -2.57996 22.7501C-3.53996 21.1801 -4.04004 19.3801 -4.04004 17.5401C-4.04004 15.7001 -3.52995 13.9001 -2.56995 12.3301C-1.60995 10.7601 -0.239975 9.49009 1.40002 8.65009C3.04002 7.81009 4.86995 7.44009 6.69995 7.57009C8.52995 7.71009 10.29 8.34009 11.79 9.41009L11.78 9.43009Z" fill="#FFCC00"/>
</g>
</g>
</svg>
