<svg width="60" height="60" viewBox="0 0 60 60" fill="none" xmlns="http://www.w3.org/2000/svg">
<g clip-path="url(#clip0_14015_14822)">
<mask id="mask0_14015_14822" style="mask-type:alpha" maskUnits="userSpaceOnUse" x="0" y="0" width="60" height="60">
<circle cx="30" cy="30" r="30" fill="#D9D9D9"/>
</mask>
<g mask="url(#mask0_14015_14822)">
<path d="M-10 0H70V60H-10V0Z" fill="#D21034"/>
<path d="M5 15H55V45H5V15Z" fill="#007E3A"/>
<path d="M33.75 40C39.2728 40 43.75 35.5228 43.75 30C43.75 24.4772 39.2728 20 33.75 20C28.2272 20 23.75 24.4772 23.75 30C23.75 35.5228 28.2272 40 33.75 40Z" fill="white"/>
<path d="M37.5 40C43.0228 40 47.5 35.5228 47.5 30C47.5 24.4772 43.0228 20 37.5 20C31.9772 20 27.5 24.4772 27.5 30C27.5 35.5228 31.9772 40 37.5 40Z" fill="#007E3A"/>
</g>
</g>
<defs>
<clipPath id="clip0_14015_14822">
<rect width="60" height="60" fill="white"/>
</clipPath>
</defs>
</svg>
