<svg width="60" height="60" viewBox="0 0 60 60" fill="none" xmlns="http://www.w3.org/2000/svg">
<g clip-path="url(#clip0_14015_15016)">
<mask id="mask0_14015_15016" style="mask-type:alpha" maskUnits="userSpaceOnUse" x="0" y="0" width="60" height="60">
<circle cx="30" cy="30" r="30" fill="#012169"/>
</mask>
<g mask="url(#mask0_14015_15016)">
<g clip-path="url(#clip1_14015_15016)">
<g clip-path="url(#clip2_14015_15016)">
<g clip-path="url(#clip3_14015_15016)">
<g clip-path="url(#clip4_14015_15016)">
<g clip-path="url(#clip5_14015_15016)">
<path d="M-4 0H76V60H-4V0Z" fill="#DA2032"/>
<path d="M22.6626 0H49.3376V60H22.6626V0Z" fill="#0066B3"/>
<path d="M9.3374 27.7251C12.0988 27.7251 14.3374 25.4865 14.3374 22.7251C14.3374 19.9637 12.0988 17.7251 9.3374 17.7251C6.57598 17.7251 4.3374 19.9637 4.3374 22.7251C4.3374 25.4865 6.57598 27.7251 9.3374 27.7251Z" fill="#FFD900"/>
<path d="M9.3377 25.9C12.3476 25.9 14.7877 23.46 14.7877 20.45C14.7877 17.44 12.3476 15 9.3377 15C6.32774 15 3.8877 17.44 3.8877 20.45C3.8877 23.46 6.32774 25.9 9.3377 25.9Z" fill="#DA2032"/>
<path d="M9.3377 25.0001C11.3466 25.0001 12.9752 23.3715 12.9752 21.3626C12.9752 19.3537 11.3466 17.7251 9.3377 17.7251C7.32876 17.7251 5.7002 19.3537 5.7002 21.3626C5.7002 23.3715 7.32876 25.0001 9.3377 25.0001Z" fill="#FFD900"/>
<path d="M9.7124 9.55005C9.52786 9.63079 9.36938 9.76119 9.25461 9.92673C9.13984 10.0923 9.0733 10.2864 9.0624 10.4875C9.0374 10.8 9.1749 11.15 9.1874 11.45C9.1874 11.975 8.6499 12.15 8.6499 12.8875C8.6499 13.1375 8.8874 13.425 8.8874 14.0875C8.8374 14.4375 8.6374 14.525 8.4249 14.55C8.36474 14.5501 8.30519 14.538 8.24976 14.5146C8.19433 14.4912 8.14416 14.457 8.1022 14.4139C8.06025 14.3707 8.02737 14.3196 8.0055 14.2636C7.98364 14.2076 7.97323 14.1477 7.9749 14.0875C7.97458 13.9711 8.01938 13.8591 8.0999 13.775C8.11568 13.7614 8.13239 13.7489 8.1499 13.7375C8.2499 13.625 8.3999 13.5875 8.3999 13.3125C8.3999 13.175 8.2999 13.0375 8.2124 12.7875C8.1249 12.5375 8.1874 12.1375 8.3874 11.9C8.0624 12.025 7.8749 12.325 7.7624 12.6C7.6624 12.9375 7.7624 13.125 7.6124 13.4125C7.5249 13.5875 7.4249 13.6625 7.3249 13.8125C7.1999 13.9875 7.0749 14.3625 7.0749 14.55C7.11743 15.1227 7.37492 15.658 7.79571 16.0487C8.2165 16.4394 8.76946 16.6565 9.34365 16.6565C9.91785 16.6565 10.4708 16.4394 10.8916 16.0487C11.3124 15.658 11.5699 15.1227 11.6124 14.55C11.6124 14.3625 11.4749 13.9875 11.3624 13.8125C11.2499 13.6625 11.1499 13.5875 11.0624 13.4125C10.9124 13.125 11.0124 12.9375 10.8999 12.6C10.7999 12.325 10.6124 12.025 10.2874 11.9C10.4874 12.15 10.5374 12.55 10.4624 12.7875C10.3749 13.0375 10.2874 13.1625 10.2874 13.3125C10.2874 13.5875 10.4249 13.625 10.5374 13.7375C10.5506 13.7493 10.5631 13.7618 10.5749 13.775C10.6554 13.8591 10.7002 13.9711 10.6999 14.0875C10.7016 14.1477 10.6912 14.2076 10.6693 14.2636C10.6474 14.3196 10.6146 14.3707 10.5726 14.4139C10.5306 14.457 10.4805 14.4912 10.425 14.5146C10.3696 14.538 10.3101 14.5501 10.2499 14.55C9.9999 14.5125 9.8124 14.4 9.7874 14.0875C9.7874 13.2125 10.1624 13.1625 10.1624 12.5125C10.1624 11.5875 9.3374 11.15 9.3374 10.475C9.3374 10.25 9.3874 9.85005 9.7124 9.55005ZM-0.662598 28.625H3.8749V50.4375H-0.662598V28.625ZM14.7874 28.625H19.3374V50.4375H14.7874V28.625ZM4.7874 28.625H13.8749L9.3374 31.35L4.7874 28.625ZM4.7874 32.25H13.8749V34.0751H4.7874V32.25ZM4.7874 44.9875H13.8749V46.8125H4.7874V44.9875ZM4.7874 47.7126H13.8749L9.3374 50.4375L4.7874 47.7126Z" fill="#FFD900"/>
<path d="M9.3376 44.1C11.8505 44.1 13.8876 42.0629 13.8876 39.55C13.8876 37.0371 11.8505 35 9.3376 35C6.8247 35 4.7876 37.0371 4.7876 39.55C4.7876 42.0629 6.8247 44.1 9.3376 44.1Z" fill="#FFD900"/>
<path d="M9.33194 38.0418C9.83401 38.0418 10.241 37.6348 10.241 37.1327C10.241 36.6306 9.83401 36.2236 9.33194 36.2236C8.82986 36.2236 8.42285 36.6306 8.42285 37.1327C8.42285 37.6348 8.82986 38.0418 9.33194 38.0418Z" fill="#DA2032"/>
<path d="M9.33194 42.8599C9.83401 42.8599 10.241 42.4529 10.241 41.9508C10.241 41.4488 9.83401 41.0417 9.33194 41.0417C8.82986 41.0417 8.42285 41.4488 8.42285 41.9508C8.42285 42.4529 8.82986 42.8599 9.33194 42.8599Z" fill="#DA2032"/>
<path d="M9.33171 34.4509C10.043 34.4509 10.7251 34.7335 11.228 35.2364C11.731 35.7393 12.0135 36.4215 12.0135 37.1327C12.0135 37.844 11.731 38.5261 11.228 39.0291C10.7251 39.532 10.043 39.8145 9.33171 39.8145C8.76511 39.8145 8.22172 40.0396 7.82108 40.4403C7.42043 40.8409 7.19535 41.3843 7.19535 41.9509C7.19535 42.5175 7.42043 43.0609 7.82108 43.4615C8.22172 43.8622 8.76511 44.0873 9.33171 44.0873V44.6327C8.62045 44.6327 7.93832 44.3502 7.43539 43.8472C6.93245 43.3443 6.6499 42.6622 6.6499 41.9509C6.6499 41.2396 6.93245 40.5575 7.43539 40.0546C7.93832 39.5516 8.62045 39.2691 9.33171 39.2691C9.89831 39.2691 10.4417 39.044 10.8423 38.6434C11.243 38.2427 11.4681 37.6993 11.4681 37.1327C11.4681 36.5661 11.243 36.0227 10.8423 35.6221C10.4417 35.2215 9.89831 34.9964 9.33171 34.9964V34.4509Z" fill="#DA2032"/>
</g>
</g>
</g>
</g>
</g>
</g>
</g>
<defs>
<clipPath id="clip0_14015_15016">
<rect width="60" height="60" fill="white"/>
</clipPath>
<clipPath id="clip1_14015_15016">
<rect width="80" height="60" fill="white" transform="translate(-15)"/>
</clipPath>
<clipPath id="clip2_14015_15016">
<rect width="80" height="60" fill="white" transform="translate(-15)"/>
</clipPath>
<clipPath id="clip3_14015_15016">
<rect width="80" height="60" fill="white" transform="translate(-15)"/>
</clipPath>
<clipPath id="clip4_14015_15016">
<rect width="80" height="60" fill="white" transform="translate(-15)"/>
</clipPath>
<clipPath id="clip5_14015_15016">
<rect width="80" height="60" fill="white" transform="translate(-4)"/>
</clipPath>
</defs>
</svg>
