<svg width="60" height="60" viewBox="0 0 60 60" fill="none" xmlns="http://www.w3.org/2000/svg">
<mask id="mask0_13628_11151" style="mask-type:luminance" maskUnits="userSpaceOnUse" x="0" y="0" width="60" height="60">
<path d="M30 60C46.5685 60 60 46.5685 60 30C60 13.4315 46.5685 0 30 0C13.4315 0 0 13.4315 0 30C0 46.5685 13.4315 60 30 60Z" fill="white"/>
</mask>
<g mask="url(#mask0_13628_11151)">
<path d="M-10 0H70V60H-10V0Z" fill="white"/>
<mask id="mask1_13628_11151" style="mask-type:luminance" maskUnits="userSpaceOnUse" x="-10" y="0" width="80" height="60">
<path d="M70 0H-10V60H70V0Z" fill="white"/>
</mask>
<g mask="url(#mask1_13628_11151)">
<path fill-rule="evenodd" clip-rule="evenodd" d="M-10 0H70V60H-10V0Z" fill="white"/>
<path fill-rule="evenodd" clip-rule="evenodd" d="M-13.3 0.03L-13.2001 43.23L54.0599 0L-13.3 0.03Z" fill="#3662A2"/>
<path fill-rule="evenodd" clip-rule="evenodd" d="M73.2998 59.95L73.1199 15.04L5.27979 59.98L73.2798 59.96H73.2898L73.2998 59.95Z" fill="#38A100"/>
<path fill-rule="evenodd" clip-rule="evenodd" d="M-13.25 46.47L-13.2001 60H1.48999L73.1799 11.93L73.09 0.170039L58.59 0.0400391L-13.25 46.47Z" fill="#C70000"/>
<path fill-rule="evenodd" clip-rule="evenodd" d="M17.45 21.5L14.72 19.85L13.1499 22.61L11.62 19.84L8.87 21.45L8.94995 18.27L5.7699 18.29L7.41992 15.57L4.65991 14.01L7.42993 12.47L5.82996 9.71999L9.01001 9.78999V6.59999L11.71 8.24999L13.2799 5.48999L14.7999 8.25999L17.5499 6.64999L17.48 9.81999L20.6499 9.79999L19 12.53L21.76 14.09L18.98 15.63L20.58 18.38L17.4099 18.3L17.4299 21.49L17.45 21.5Z" fill="#FFE700"/>
<path fill-rule="evenodd" clip-rule="evenodd" d="M19.0499 14.05C19.0499 17.25 16.44 19.84 13.23 19.84C10.02 19.84 7.3999 17.25 7.3999 14.05C7.3999 10.85 9.99998 8.28003 13.23 8.28003C16.46 8.28003 19.0499 10.87 19.0499 14.05Z" fill="#3662A2"/>
<path fill-rule="evenodd" clip-rule="evenodd" d="M17.7899 14.05C17.7899 15.26 17.31 16.42 16.45 17.28C15.59 18.14 14.43 18.62 13.22 18.62C12.01 18.62 10.85 18.14 9.98999 17.28C9.12999 16.42 8.6499 15.26 8.6499 14.05C8.6499 12.84 9.12999 11.68 9.98999 10.82C10.85 9.95998 12.01 9.47998 13.22 9.47998C14.43 9.47998 15.59 9.95998 16.45 10.82C17.31 11.68 17.7899 12.84 17.7899 14.05Z" fill="#FFE700"/>
</g>
</g>
</svg>
