<svg width="60" height="60" viewBox="0 0 60 60" fill="none" xmlns="http://www.w3.org/2000/svg">
<mask id="mask0_13628_11152" style="mask-type:luminance" maskUnits="userSpaceOnUse" x="0" y="0" width="60" height="60">
<path d="M30 60C46.5685 60 60 46.5685 60 30C60 13.4315 46.5685 0 30 0C13.4315 0 0 13.4315 0 30C0 46.5685 13.4315 60 30 60Z" fill="white"/>
</mask>
<g mask="url(#mask0_13628_11152)">
<path d="M0.0200195 0.330078H60.02V60.3301H0.0200195V0.330078Z" fill="white"/>
<path fill-rule="evenodd" clip-rule="evenodd" d="M0.780029 59.5701H45.1699L16.12 30.1101L46.27 30.1501L0.790039 1.1001V59.5801H0.780029V59.5701Z" fill="#CE0000" stroke="#000063" stroke-width="1.62"/>
<path fill-rule="evenodd" clip-rule="evenodd" d="M21.1898 43.9L18.0299 44.95L20.5099 47.27L17.1698 47.06L18.5399 50.13L15.5498 48.69L15.6099 52.04L13.4099 49.59L12.1599 52.71L11.0798 49.63L8.69983 52.04L8.90991 48.79L5.75989 50.13L7.23987 47.2L3.80981 47.27L6.32983 45.13L3.12988 43.9L6.28992 42.85L3.78992 40.53L7.11987 40.74L5.75989 37.67L8.75989 39.11L8.69983 35.76L10.8999 38.21L12.1499 35.09L13.2198 38.17L15.6099 35.76L15.3899 39.01L18.5498 37.67L17.0598 40.6L20.5099 40.53L17.9899 42.67L21.1898 43.9ZM17.3899 22.26L16.0698 23.24L16.7299 23.78C18.2699 22.7 19.51 21.25 20.33 19.56C20.54 22.06 18.2599 27.65 12.2799 27.7C11.1899 27.71 10.0998 27.51 9.08984 27.1C8.07984 26.69 7.14987 26.09 6.36987 25.32C5.58987 24.55 4.9698 23.64 4.5498 22.63C4.1298 21.62 3.8999 20.54 3.8999 19.45C5.0699 21.58 5.7999 22.61 7.6499 23.73L8.19983 23.21L6.95984 22.17L8.56982 21.75L7.69983 20.3L9.38989 20.42L9.17981 18.73L10.6599 19.6L11.1299 18.02L12.1798 19.29L13.1798 18.08L13.7198 19.72L15.0999 18.76L14.9198 20.44L16.5798 20.24L15.7899 21.79L17.3999 22.26H17.3899Z" fill="white"/>
</g>
</svg>
