<svg width="60" height="60" viewBox="0 0 60 60" fill="none" xmlns="http://www.w3.org/2000/svg">
<mask id="mask0_13628_11154" style="mask-type:luminance" maskUnits="userSpaceOnUse" x="0" y="0" width="60" height="60">
<path d="M30 60C46.5685 60 60 46.5685 60 30C60 13.4315 46.5685 0 30 0C13.4315 0 0 13.4315 0 30C0 46.5685 13.4315 60 30 60Z" fill="white"/>
</mask>
<g mask="url(#mask0_13628_11154)">
<mask id="mask1_13628_11154" style="mask-type:luminance" maskUnits="userSpaceOnUse" x="-10" y="0" width="80" height="60">
<path d="M70 0H-10V60H70V0Z" fill="white"/>
</mask>
<g mask="url(#mask1_13628_11154)">
<path fill-rule="evenodd" clip-rule="evenodd" d="M-10 0H70V60H-10V0Z" fill="#00247D"/>
<path d="M51.3 13.3999V15.2999L55.09 13.3999H51.3Z" fill="white"/>
<path d="M52.0601 15.6699L51.3 14.1499L55.09 13.3899L52.0601 15.6699Z" fill="white"/>
<path d="M51.3 13.3999V15.2999L47.51 13.3999H51.3Z" fill="white"/>
<path d="M50.54 15.6699L51.3 14.1499L47.51 13.3899L50.54 15.6699Z" fill="white"/>
<path d="M52.3899 14.1799L50.5898 14.7699L53.5698 17.7899L52.3999 14.1799H52.3899Z" fill="white"/>
<path d="M50.46 15.6099L51.67 14.4199L53.5601 17.7899L50.46 15.6099Z" fill="white"/>
<path d="M50.22 14.1801L52.02 14.7701L51.39 10.5801L50.22 14.1901V14.1801Z" fill="white"/>
<path d="M52.62 14.1701L50.9399 14.4201L51.39 10.5801L52.62 14.1701Z" fill="white"/>
<path d="M50.22 14.1799L52.02 14.7699L49.04 17.7899L50.21 14.1799H50.22Z" fill="white"/>
<path d="M52.15 15.6099L50.9399 14.4199L49.05 17.7899L52.15 15.6099Z" fill="white"/>
<path d="M51.3 13.78V15.03L53.8101 13.78H51.3Z" fill="#CC142B"/>
<path d="M51.8 15.29L51.3 14.29L53.8101 13.79L51.8101 15.29H51.8Z" fill="#CC142B"/>
<path d="M51.3 13.78V15.03L48.79 13.78H51.3Z" fill="#CC142B"/>
<path d="M50.8 15.29L51.3 14.29L48.79 13.79L50.79 15.29H50.8Z" fill="#CC142B"/>
<path d="M52.0201 14.3L50.8301 14.69L52.8002 16.69L52.0302 14.31L52.0201 14.3Z" fill="#CC142B"/>
<path d="M50.74 15.25L51.54 14.46L52.79 16.69L50.74 15.25Z" fill="#CC142B"/>
<path d="M50.5898 14.2999L51.7799 14.6899L51.3599 11.9199L50.5898 14.2999Z" fill="#CC142B"/>
<path d="M52.17 14.2899L51.0601 14.4599L51.36 11.9199L52.17 14.2899Z" fill="#CC142B"/>
<path d="M50.59 14.3L51.78 14.69L49.8101 16.69L50.58 14.31L50.59 14.3Z" fill="#CC142B"/>
<path d="M51.86 15.25L51.0601 14.46L49.8101 16.69L51.86 15.25Z" fill="#CC142B"/>
<path d="M61.2401 22.1499V23.8399L57.8701 22.1499H61.2401Z" fill="white"/>
<path d="M60.5599 24.1699L61.2299 22.8199L57.8599 22.1499L60.5599 24.1699Z" fill="white"/>
<path d="M60.28 22.8501L61.88 23.3701L59.23 26.0601L60.27 22.8501H60.28Z" fill="white"/>
<path d="M61.99 24.1201L60.91 23.0601L59.23 26.0601L61.99 24.1201Z" fill="white"/>
<path d="M61.2399 22.54V23.58L59.1499 22.54H61.2399Z" fill="#CC142B"/>
<path d="M60.8198 23.79L61.2399 22.95L59.1499 22.53L60.8198 23.78V23.79Z" fill="#CC142B"/>
<path d="M60.64 22.97L61.63 23.29L59.99 24.95L60.64 22.96V22.97Z" fill="#CC142B"/>
<path d="M39.73 25.05V26.95L43.52 25.05H39.73Z" fill="white"/>
<path d="M40.49 27.33L39.73 25.81L43.52 25.05L40.49 27.33Z" fill="white"/>
<path d="M39.73 25.05V26.95L35.9399 25.05H39.73Z" fill="white"/>
<path d="M38.97 27.33L39.73 25.81L35.9399 25.05L38.97 27.33Z" fill="white"/>
<path d="M40.8101 25.8401L39.01 26.4301L41.99 29.4501L40.8199 25.8401H40.8101Z" fill="white"/>
<path d="M38.8799 27.2601L40.0898 26.0701L41.9799 29.4401L38.8799 27.2601Z" fill="white"/>
<path d="M38.6499 25.84L40.4498 26.43L39.8198 22.24L38.6499 25.85V25.84Z" fill="white"/>
<path d="M41.0502 25.82L39.3701 26.07L39.8201 22.23L41.0502 25.82Z" fill="white"/>
<path d="M38.65 25.8401L40.45 26.4301L37.47 29.4501L38.64 25.8401H38.65Z" fill="white"/>
<path d="M40.58 27.2601L39.37 26.0701L37.48 29.4401L40.58 27.2601Z" fill="white"/>
<path d="M39.73 25.4399V26.6899L42.24 25.4399H39.73Z" fill="#CC142B"/>
<path d="M40.23 26.9399L39.73 25.9399L42.24 25.4399L40.24 26.9399H40.23Z" fill="#CC142B"/>
<path d="M39.73 25.4399V26.6899L37.22 25.4399H39.73Z" fill="#CC142B"/>
<path d="M39.23 26.9399L39.73 25.9399L37.22 25.4399L39.22 26.9399H39.23Z" fill="#CC142B"/>
<path d="M40.4399 25.96L39.25 26.35L41.22 28.35L40.45 25.97L40.4399 25.96Z" fill="#CC142B"/>
<path d="M39.1699 26.9001L39.9698 26.1101L41.2198 28.3401L39.1699 26.9001Z" fill="#CC142B"/>
<path d="M39.01 25.9601L40.2 26.3501L39.78 23.5801L39.01 25.9601Z" fill="#CC142B"/>
<path d="M40.6 25.9401L39.49 26.1101L39.79 23.5701L40.6 25.9401Z" fill="#CC142B"/>
<path d="M39.01 25.96L40.2 26.35L38.23 28.35L39 25.97L39.01 25.96Z" fill="#CC142B"/>
<path d="M40.29 26.9001L39.49 26.1101L38.24 28.3401L40.29 26.9001Z" fill="#CC142B"/>
<path d="M51.3 43.3401V45.4401L55.51 43.3401H51.3Z" fill="white"/>
<path d="M52.15 45.8701L51.3101 44.1901L55.52 43.3501L52.15 45.8801V45.8701Z" fill="white"/>
<path d="M51.2999 43.3401V45.4401L47.0898 43.3401H51.2999Z" fill="white"/>
<path d="M50.4598 45.8701L51.2999 44.1901L47.0898 43.3501L50.4598 45.8801V45.8701Z" fill="white"/>
<path d="M52.5 44.22L50.5 44.87L53.8 48.22L52.5 44.22Z" fill="white"/>
<path d="M50.3599 45.8L51.6998 44.48L53.7999 48.22L50.3599 45.8Z" fill="white"/>
<path d="M50.1001 44.22L52.1001 44.87L51.4001 40.22L50.1001 44.22Z" fill="white"/>
<path d="M52.7599 44.2L50.8999 44.48L51.3999 40.22L52.7599 44.2Z" fill="white"/>
<path d="M50.1 44.22L52.1 44.87L48.8 48.22L50.1 44.22Z" fill="white"/>
<path d="M52.24 45.8L50.9 44.48L48.8 48.22L52.24 45.8Z" fill="white"/>
<path d="M51.3 43.73V45.19L54.22 43.73H51.3Z" fill="#CC142B"/>
<path d="M51.89 45.48L51.3101 44.31L54.23 43.73L51.89 45.48Z" fill="#CC142B"/>
<path d="M51.2999 43.73V45.19L48.3799 43.73H51.2999Z" fill="#CC142B"/>
<path d="M50.7198 45.48L51.2999 44.31L48.3799 43.73L50.7198 45.48Z" fill="#CC142B"/>
<path d="M52.14 44.3401L50.75 44.7901L53.04 47.1201L52.14 44.3401Z" fill="#CC142B"/>
<path d="M50.6499 45.43L51.5798 44.51L53.0399 47.11L50.6499 45.43Z" fill="#CC142B"/>
<path d="M50.47 44.3401L51.86 44.7901L51.37 41.5601L50.47 44.3401Z" fill="#CC142B"/>
<path d="M52.3199 44.32L51.03 44.51L51.38 41.55L52.33 44.32H52.3199Z" fill="#CC142B"/>
<path d="M50.4698 44.3401L51.8599 44.7901L49.5698 47.1201L50.4698 44.3401Z" fill="#CC142B"/>
<path d="M51.9598 45.43L51.0299 44.51L49.5698 47.11L51.9598 45.43Z" fill="#CC142B"/>
<path d="M-10 0H30V30H-10V0Z" fill="#012169"/>
<path d="M-5.31006 0L9.93994 11.31L25.13 0H30.01V3.88L15.01 15.07L30.01 26.19V30H25.01L10.01 18.81L-4.93005 30H-9.98999V26.25L4.94995 15.13L-9.98999 4.01V0.0100021H-5.30005L-5.31006 0Z" fill="white"/>
<path d="M16.5 17.56L30 27.5V30L13.0601 17.56H16.5ZM5 18.81L5.38 21L-6.62 30H-10L5 18.81ZM30 0V0.190002L14.4399 11.94L14.5601 9.19L26.87 0H29.99H30ZM-10 0L4.93994 11H1.18994L-10 2.62V0Z" fill="#C8102E"/>
<path d="M5.06006 0V30H15.0601V0H5.06006ZM-10 10V20H30V10H-10Z" fill="white"/>
<path d="M-10 12.06V18.06H30V12.06H-10ZM7.06006 0V30H13.0601V0H7.06006Z" fill="#C8102E"/>
</g>
</g>
</svg>
