<svg width="60" height="60" viewBox="0 0 60 60" fill="none" xmlns="http://www.w3.org/2000/svg">
<mask id="mask0_13628_11155" style="mask-type:luminance" maskUnits="userSpaceOnUse" x="0" y="0" width="60" height="60">
<path d="M30 60C46.5685 60 60 46.5685 60 30C60 13.4315 46.5685 0 30 0C13.4315 0 0 13.4315 0 30C0 46.5685 13.4315 60 30 60Z" fill="white"/>
</mask>
<g mask="url(#mask0_13628_11155)">
<path d="M0.0200195 0.209961H80.02V60.21H0.0200195V0.209961Z" fill="white"/>
<mask id="mask1_13628_11155" style="mask-type:luminance" maskUnits="userSpaceOnUse" x="0" y="0" width="81" height="61">
<path d="M80.02 0.209961H0.0200195V60.21H80.02V0.209961Z" fill="white"/>
</mask>
<g mask="url(#mask1_13628_11155)">
<path fill-rule="evenodd" clip-rule="evenodd" d="M-0.390137 -2.48999H87.3999V66.63H-0.390137V-2.48999Z" fill="#EF2D29"/>
<path fill-rule="evenodd" clip-rule="evenodd" d="M21.8499 39.8701H88.8099V65.8301H21.8499V39.8701Z" fill="#009025"/>
<path fill-rule="evenodd" clip-rule="evenodd" d="M21.8499 -4.21997H92.4598V19.53H21.8398V-4.21997H21.8499Z" fill="white"/>
<path d="M17.5199 8.91016H14.6499C14.4999 8.91016 14.3699 9.03015 14.3699 9.17015V10.5302C14.3699 10.6702 14.4999 10.7902 14.6499 10.7902H17.5199C17.6699 10.7902 17.7999 10.6702 17.7999 10.5302V9.17015C17.7999 9.03015 17.6699 8.91016 17.5199 8.91016Z" fill="white" stroke="#EF2D28" stroke-width="0.03"/>
<path d="M17.45 8.98999H14.73C14.58 8.98999 14.46 9.1 14.46 9.23V10.48C14.46 10.61 14.58 10.72 14.73 10.72H17.45C17.6 10.72 17.72 10.61 17.72 10.48V9.23C17.72 9.1 17.6 8.98999 17.45 8.98999Z" fill="white" stroke="#EF2D28" stroke-width="0.03"/>
<path fill-rule="evenodd" clip-rule="evenodd" d="M15.98 9.45996H16.14V9.53996L16.28 9.60996L16.38 9.51996L16.51 9.58996L16.39 9.66996L16.42 9.76996H16.5699V9.89996H16.45L16.39 9.97997L16.53 10.08L16.4301 10.16L16.3199 10.07L16.16 10.1V10.23L15.99 10.24L15.97 10.12L15.8199 10.06L15.74 10.15L15.61 10.09L15.6801 9.98996L15.59 9.92996H15.46V9.74996L15.58 9.75996L15.67 9.65997L15.5699 9.57996L15.71 9.48996L15.8101 9.55996L15.97 9.53996L15.99 9.46996L15.98 9.45996Z" fill="white" stroke="#EF2D28" stroke-width="0.02"/>
<path d="M16.0199 9.97993C16.1199 9.97993 16.1998 9.90993 16.1998 9.82993C16.1998 9.74993 16.1199 9.67993 16.0199 9.67993C15.9199 9.67993 15.8398 9.74993 15.8398 9.82993C15.8398 9.90993 15.9199 9.97993 16.0199 9.97993Z" fill="white" stroke="#EF2D28" stroke-width="0.02"/>
<path d="M14.7649 9.19007L14.8549 9.11006L14.9449 9.19007L15.0349 9.11006L15.1223 9.1878L15.2099 9.10697L15.2999 9.19007L15.3899 9.10703L15.4799 9.19007L15.5699 9.10697L15.6599 9.19007L15.7499 9.10703L15.8398 9.19007L15.9257 9.1108L16.0174 9.19233L16.0999 9.11621L16.1049 9.1116L16.1099 9.11622L16.1923 9.19233L16.2849 9.11006L16.3749 9.19007L16.4641 9.1108L16.5499 9.19007L16.6399 9.10703L16.7299 9.19007L16.8199 9.10697L16.9099 9.19007L16.9999 9.10703L17.0898 9.19007L17.1799 9.10697L17.2699 9.19007L17.3599 9.10703L17.4498 9.19007L17.3599 9.27311L17.2699 9.19007L17.1799 9.27317L17.0898 9.19007L16.9999 9.27311L16.9099 9.19007L16.8199 9.27317L16.7299 9.19007L16.6399 9.27311L16.5499 9.19007L16.4641 9.26933L16.3749 9.19007L16.2806 9.27385L16.2756 9.27834L16.1873 9.19684L16.1049 9.27008L16.0225 9.19687L15.9349 9.27778L15.9299 9.27317L15.8398 9.19007L15.7499 9.27311L15.6599 9.19007L15.5699 9.27317L15.4799 9.19007L15.3899 9.27311L15.2999 9.19007L15.2141 9.26933L15.1223 9.1878L15.034 9.26932L14.9449 9.19007L14.8549 9.27008L14.7649 9.19007Z" fill="white"/>
<path d="M14.7649 10.5347L14.8508 10.4554L14.9349 10.5301L15.0249 10.4501L15.1149 10.5301L15.204 10.4508L15.2899 10.5301L15.3799 10.447L15.4698 10.5301L15.5599 10.447L15.6499 10.5301L15.7399 10.447L15.8298 10.5301L15.9199 10.447L16.0099 10.5301L16.0899 10.4562L16.0949 10.4516L16.1824 10.5323L16.2698 10.4545L16.3549 10.5301L16.4449 10.4501L16.5349 10.5301L16.624 10.4509L16.7098 10.5301L16.7999 10.447L16.8899 10.5301L16.9799 10.447L17.0698 10.5301L17.1599 10.447L17.2499 10.5301L17.3399 10.447L17.4299 10.5301L17.3399 10.6132L17.2499 10.5301L17.1599 10.6132L17.0698 10.5301L16.9799 10.6131L16.8899 10.5301L16.7999 10.6132L16.7098 10.5301L16.624 10.6093L16.5349 10.5301L16.4449 10.6101L16.3549 10.5301L16.2657 10.6093L16.2606 10.6138L16.1773 10.5368L16.0957 10.6093L16.0099 10.5301L15.9199 10.6132L15.8298 10.5301L15.7399 10.6131L15.6499 10.5301L15.5599 10.6132L15.4698 10.5301L15.3799 10.6131L15.2899 10.5301L15.204 10.6093L15.1149 10.5301L15.0249 10.6101L14.9349 10.5301L14.8457 10.6093L14.7649 10.5347Z" fill="white"/>
<path d="M14.8999 9.07007L14.6299 9.31007M15.0698 9.07007L14.7999 9.31007M15.2399 9.07007L14.9799 9.31007M15.4199 9.07007L15.1599 9.31007M15.5999 9.07007L15.3398 9.31007M15.7799 9.07007L15.5199 9.31007M15.9598 9.07007L15.6998 9.31007M16.1399 9.07007L15.8799 9.31007M16.3198 9.07007L16.0499 9.31007M16.4899 9.07007L16.2198 9.31007M16.6599 9.07007L16.3999 9.31007M16.8398 9.07007L16.5798 9.31007M17.0199 9.07007L16.7599 9.31007M17.1998 9.07007L16.9398 9.31007M17.3799 9.07007L17.1199 9.31007M17.5599 9.07007L17.2999 9.31007M17.2999 9.07007L17.5599 9.31007M17.1199 9.07007L17.3799 9.31007M16.9398 9.07007L17.1998 9.31007M16.7599 9.07007L17.0199 9.31007M16.5798 9.07007L16.8398 9.31007M16.3999 9.07007L16.6599 9.31007M16.2198 9.07007L16.4899 9.31007M16.0499 9.07007L16.3099 9.31007M15.8699 9.07007L16.1399 9.31007M15.6998 9.07007L15.9598 9.31007M15.5199 9.07007L15.7799 9.31007M15.3398 9.07007L15.5999 9.31007M15.1599 9.07007L15.4199 9.31007M14.9799 9.07007L15.2499 9.31007M14.8099 9.07007L15.0798 9.31007M14.6399 9.07007L14.9099 9.31007M14.9099 10.4101L14.6499 10.6501M15.0898 10.4101L14.8198 10.6501M15.2599 10.4101L14.9899 10.6501M15.4299 10.4101L15.1699 10.6501M15.6099 10.4101L15.3499 10.6501M15.7899 10.4101L15.5299 10.6501M15.9698 10.4101L15.7098 10.6501M16.1499 10.4101L15.8899 10.6501M16.3298 10.4101L16.0599 10.6501M16.4999 10.4101L16.2299 10.6501M16.6799 10.4101L16.4099 10.6501M16.8499 10.4101L16.5898 10.6501M17.0299 10.4101L16.7699 10.6501M17.2098 10.4101L16.9498 10.6501M17.3899 10.4101L17.1299 10.6501M17.5698 10.4101L17.3099 10.6501M17.3099 10.4101L17.5698 10.6501M17.1299 10.4101L17.3899 10.6501M16.9498 10.4101L17.2098 10.6501M16.7699 10.4101L17.0299 10.6501M16.5898 10.4101L16.8499 10.6501M16.4099 10.4101L16.6799 10.6501M16.2399 10.4101L16.5099 10.6501M16.0698 10.4101L16.3298 10.6501M15.8899 10.4101L16.1499 10.6501M15.7098 10.4101L15.9698 10.6501M15.5299 10.4101L15.7899 10.6501M15.3499 10.4101L15.6099 10.6501M16.0499 10.4101L16.3099 10.6501M15.1699 10.4101L15.4299 10.6501M14.9899 10.4101L15.2599 10.6501M14.8198 10.4101L15.0898 10.6501M14.6499 10.4101L14.9099 10.6501" stroke="#EF2D28" stroke-width="0.03"/>
<path d="M5.99988 8.83008H3.12988C2.97988 8.83008 2.84985 8.95007 2.84985 9.09007V10.4501C2.84985 10.5901 2.97988 10.7101 3.12988 10.7101H5.99988C6.14988 10.7101 6.27991 10.5901 6.27991 10.4501V9.09007C6.27991 8.95007 6.14988 8.83008 5.99988 8.83008Z" fill="white" stroke="#EF2D28" stroke-width="0.03"/>
<path d="M5.93005 8.91016H3.20996C3.05996 8.91016 2.93994 9.02015 2.93994 9.15015V10.4002C2.93994 10.5302 3.05996 10.6402 3.20996 10.6402H5.93005C6.08005 10.6402 6.19995 10.5302 6.19995 10.4002V9.15015C6.19995 9.02015 6.08005 8.91016 5.93005 8.91016Z" fill="white" stroke="#EF2D28" stroke-width="0.03"/>
<path fill-rule="evenodd" clip-rule="evenodd" d="M4.44983 9.38013H4.60986V9.46013L4.74988 9.53013L4.84985 9.44013L4.97986 9.51013L4.85986 9.59013L4.88989 9.69013H5.03992V9.82013H4.91992L4.85986 9.90013L4.99988 10.0001L4.8999 10.0801L4.78992 9.99013L4.62988 10.0201V10.1501L4.45984 10.1601L4.43982 10.0401L4.28992 9.98013L4.20984 10.0701L4.07983 10.0101L4.1499 9.91013L4.05994 9.85013H3.92993V9.67013L4.04993 9.68013L4.13989 9.58013L4.03992 9.50013L4.17993 9.41013L4.27991 9.48013L4.43982 9.46013L4.45984 9.39013L4.44983 9.38013Z" fill="white" stroke="#EF2D28" stroke-width="0.02"/>
<path d="M4.49988 9.91011C4.59988 9.91011 4.67993 9.84011 4.67993 9.76011C4.67993 9.68011 4.59988 9.61011 4.49988 9.61011C4.39988 9.61011 4.31982 9.68011 4.31982 9.76011C4.31982 9.84011 4.39988 9.91011 4.49988 9.91011Z" fill="white" stroke="#EF2D28" stroke-width="0.02"/>
<path d="M3.24487 9.10999L3.3349 9.02997L3.42493 9.10999L3.51489 9.03003L3.60231 9.10773L3.68988 9.02689L3.77991 9.10999L3.86987 9.02695L3.95984 9.10999L4.04987 9.02689L4.13989 9.10999L4.22986 9.02695L4.31982 9.10999L4.4057 9.03073L4.49742 9.11226L4.5799 9.03613L4.5849 9.03151L4.5899 9.03613L4.67238 9.11226L4.76489 9.03003L4.85486 9.10999L4.94404 9.03073L5.02991 9.10999L5.11987 9.02695L5.20984 9.10999L5.29987 9.02689L5.38989 9.10999L5.47986 9.02695L5.56982 9.10999L5.65985 9.02689L5.74988 9.10999L5.8399 9.02689L5.92993 9.10999L5.8399 9.19309L5.74988 9.10999L5.65985 9.19309L5.56982 9.10999L5.47986 9.19304L5.38989 9.10999L5.29987 9.19309L5.20984 9.10999L5.11987 9.19304L5.02991 9.10999L4.94404 9.18926L4.85486 9.10999L4.76064 9.19374L4.75554 9.19827L4.66728 9.11679L4.5849 9.19001L4.50252 9.11679L4.41486 9.19771L4.40985 9.19309L4.31982 9.10999L4.22986 9.19304L4.13989 9.10999L4.04987 9.19309L3.95984 9.10999L3.86987 9.19304L3.77991 9.10999L3.69404 9.18926L3.60231 9.10773L3.51404 9.1892L3.42493 9.10999L3.3349 9.19001L3.24487 9.10999Z" fill="white"/>
<path d="M3.24487 10.4546L3.33084 10.3753L3.41492 10.45L3.50488 10.37L3.59485 10.45L3.68403 10.3707L3.7699 10.45L3.85986 10.367L3.94983 10.45L4.03986 10.3669L4.12988 10.45L4.2199 10.3669L4.30988 10.45L4.39985 10.3669L4.48987 10.45L4.56989 10.3761L4.57489 10.3715L4.66237 10.4523L4.74988 10.3745L4.83484 10.45L4.92487 10.37L5.01489 10.45L5.10406 10.3707L5.18988 10.45L5.27986 10.3669L5.36987 10.45L5.4599 10.3669L5.54993 10.45L5.63989 10.367L5.72986 10.45L5.81989 10.3669L5.90991 10.45L5.81989 10.5331L5.72986 10.45L5.63989 10.533L5.54993 10.45L5.4599 10.5331L5.36987 10.45L5.27986 10.5331L5.18988 10.45L5.10406 10.5292L5.01489 10.45L4.92487 10.53L4.83484 10.45L4.74572 10.5292L4.74062 10.5337L4.65727 10.4568L4.57574 10.5293L4.48987 10.45L4.39985 10.5331L4.30988 10.45L4.2199 10.5331L4.12988 10.45L4.03986 10.5331L3.94983 10.45L3.85986 10.533L3.7699 10.45L3.68403 10.5293L3.59485 10.45L3.50488 10.53L3.41492 10.45L3.32574 10.5293L3.24487 10.4546Z" fill="white"/>
<path d="M3.37988 8.98999L3.10986 9.23M3.54993 8.98999L3.27991 9.23M3.71985 8.98999L3.45984 9.23M3.8999 8.98999L3.63989 9.23M4.07983 8.98999L3.81982 9.23M4.25989 8.98999L3.99988 9.23M4.43982 8.98999L4.17993 9.23M4.61987 8.98999L4.35986 9.23M4.79993 8.98999L4.52991 9.23M4.96985 8.98999L4.69983 9.23M5.13989 8.98999L4.87988 9.23M5.31982 8.98999L5.05994 9.23M5.49988 8.98999L5.23987 9.23M5.67993 8.98999L5.41992 9.23M5.85986 8.98999L5.59985 9.23M6.03992 8.98999L5.77991 9.23M5.77991 8.98999L6.03992 9.23M5.59985 8.98999L5.85986 9.23M5.41992 8.98999L5.67993 9.23M5.23987 8.98999L5.49988 9.23M5.05994 8.98999L5.31982 9.23M4.87988 8.98999L5.13989 9.23M4.69983 8.98999L4.96985 9.23M4.52991 8.98999L4.78992 9.23M4.34985 8.98999L4.61987 9.23M4.17993 8.98999L4.43982 9.23M3.99988 8.98999L4.25989 9.23M3.81982 8.98999L4.07983 9.23M3.63989 8.98999L3.8999 9.23M3.45984 8.98999L3.72986 9.23M3.28992 8.98999L3.55994 9.23M3.11987 8.98999L3.38989 9.23M3.38989 10.33L3.12988 10.57M3.56982 10.33L3.29993 10.57M3.73987 10.33L3.46985 10.57M3.90991 10.33L3.6499 10.57M4.08984 10.33L3.82983 10.57M4.2699 10.33L4.00989 10.57M4.44983 10.33L4.18982 10.57M4.62988 10.33L4.36987 10.57M4.80994 10.33L4.53992 10.57M4.97986 10.33L4.70984 10.57M5.15991 10.33L4.88989 10.57M5.32983 10.33L5.06982 10.57M5.50989 10.33L5.24988 10.57M5.68982 10.33L5.42993 10.57M5.86987 10.33L5.60986 10.57M6.04993 10.33L5.78992 10.57M5.78992 10.33L6.04993 10.57M5.60986 10.33L5.86987 10.57M5.42993 10.33L5.68982 10.57M5.24988 10.33L5.50989 10.57M5.06982 10.33L5.32983 10.57M4.88989 10.33L5.15991 10.57M4.71985 10.33L4.98987 10.57M4.54993 10.33L4.80994 10.57M4.36987 10.33L4.62988 10.57M4.18982 10.33L4.44983 10.57M4.00989 10.33L4.2699 10.57M3.82983 10.33L4.08984 10.57M4.52991 10.33L4.78992 10.57M3.6499 10.33L3.90991 10.57M3.46985 10.33L3.73987 10.57M3.29993 10.33L3.56982 10.57M3.12988 10.33L3.38989 10.57" stroke="#EF2D28" stroke-width="0.03"/>
<path fill-rule="evenodd" clip-rule="evenodd" d="M8.22991 12.7799C3.95991 16.9599 2.13993 17.4899 2.99993 17.8299C3.85993 18.1699 6.59989 16.0099 9.45989 13.1399C12.3199 10.2699 14.0699 7.71994 13.2099 7.37994C12.3499 7.03994 12.7699 8.32994 8.22991 12.7799Z" fill="white" stroke="#EF2D28" stroke-width="0.05"/>
<path fill-rule="evenodd" clip-rule="evenodd" d="M4.6499 15.8201L6.1499 16.2101C4.7399 17.5501 3.15984 18.1001 2.71984 17.8601C2.27984 17.6201 3.50991 17.0701 4.65991 15.8201H4.6499Z" fill="white" stroke="#EF2D28" stroke-width="0.03"/>
<path fill-rule="evenodd" clip-rule="evenodd" d="M4.64996 15.98L5.87994 16.29C4.50994 17.58 3.14999 17.94 2.79999 17.78C2.44999 17.62 3.52995 17.18 4.63995 15.97L4.64996 15.98Z" fill="white" stroke="#EF2D28" stroke-width="0.03"/>
<path d="M9.22986 12.6001C9.22986 12.6001 9.21984 12.7101 9.20984 12.7501C9.20984 12.8001 9.20983 12.8401 9.19983 12.8801C9.18983 12.9101 9.1899 12.9501 9.1499 12.9601C9.1299 12.9901 9.09994 13.0201 9.05994 13.0301C9.02994 13.0501 8.98983 13.0701 8.94983 13.0901C8.90983 13.1101 8.85982 13.1101 8.81982 13.0901C8.77982 13.0701 8.74985 13.0401 8.71985 13.0201C8.71985 12.9901 8.70983 12.9401 8.69983 12.9101C8.70983 12.9501 8.71985 12.9901 8.71985 13.0401C8.71985 13.0901 8.69993 13.1101 8.67993 13.1501" stroke="#EF2D28" stroke-width="0.03"/>
<path d="M8.82971 13.2499H8.8197C8.8197 13.2499 8.83979 13.2499 8.77979 13.2199C8.73979 13.1999 8.68977 13.1899 8.63977 13.1799H8.48975C8.42975 13.1799 8.38973 13.1799 8.34973 13.1999C8.31973 13.2299 8.26975 13.2399 8.23975 13.2699C8.20975 13.2899 8.18981 13.3199 8.17981 13.3499C8.14981 13.3799 8.12973 13.4199 8.09973 13.4399C8.08973 13.4899 8.0598 13.4799 8.0498 13.5199C8.0998 13.5199 8.1398 13.5199 8.1698 13.5599C8.2198 13.5799 8.12974 13.5399 8.10974 13.5199C8.07974 13.5199 8.06977 13.4999 8.00977 13.4999C7.95977 13.4799 7.92976 13.5099 7.87976 13.5199C7.84976 13.5399 7.8398 13.5399 7.7998 13.5399" stroke="#EF2D28" stroke-width="0.03"/>
<path d="M8.24988 13.7299C8.24988 13.7299 8.12984 13.7499 8.08984 13.7299C8.03984 13.7199 8.01987 13.6999 7.98987 13.6599C7.97987 13.6299 7.98987 13.7099 7.98987 13.7399C7.98987 13.7999 7.96993 13.7999 7.92993 13.8399C7.89993 13.8599 7.86983 13.8799 7.82983 13.8999C7.79983 13.9199 7.76986 13.9399 7.72986 13.9499C7.69986 13.9699 7.65988 13.9799 7.62988 13.9999C7.58988 14.0199 7.59982 14.0499 7.56982 14.0899C7.56982 14.1399 7.57986 14.1599 7.60986 14.1899C7.61986 14.2199 7.64993 14.2599 7.67993 14.2799C7.70993 14.3299 7.73992 14.3499 7.66992 14.3599C7.62992 14.3799 7.60982 14.3599 7.56982 14.3599" stroke="#EF2D28" stroke-width="0.03"/>
<path d="M7.54993 14.4101C7.54993 14.4101 7.42989 14.3801 7.38989 14.3601H7.23987C7.17987 14.3601 7.16987 14.3801 7.11987 14.4001C7.08987 14.4301 7.0699 14.4501 7.0199 14.4701C6.9999 14.5001 6.94993 14.5401 6.92993 14.5801C6.91993 14.6201 6.90991 14.6601 6.90991 14.7001C6.90991 14.7601 6.92993 14.7701 6.92993 14.8201C6.93993 14.8601 6.95988 14.9001 6.99988 14.9401C6.99988 14.9501 6.9999 14.9601 7.0199 14.9601" stroke="#EF2D28" stroke-width="0.03"/>
<path d="M7.03992 15.0802C7.03992 15.0802 7.02989 15.1001 7.00989 15.1301C6.96989 15.1701 6.96992 15.1702 6.91992 15.1702C6.86992 15.1702 6.87984 15.1502 6.83984 15.1402C6.81984 15.1202 6.79992 15.1002 6.78992 15.0602C6.77992 15.0402 6.76988 15.0102 6.74988 14.9902C6.73988 14.9702 6.71983 14.9502 6.69983 14.9302C6.68983 14.9302 6.67991 14.9202 6.65991 14.9102C6.69991 14.9102 6.70987 14.9302 6.73987 14.9602C6.74987 14.9802 6.76991 15.0102 6.77991 15.0302C6.77991 15.0602 6.78993 15.0901 6.79993 15.1301C6.79993 15.1701 6.79991 15.2002 6.77991 15.2402C6.75991 15.2602 6.74986 15.2802 6.72986 15.2902C6.70986 15.3102 6.68993 15.3302 6.67993 15.3502L6.60986 15.4002C6.60986 15.4002 6.55991 15.4302 6.52991 15.4302C6.47991 15.4302 6.46982 15.4102 6.43982 15.4002C6.40982 15.3802 6.38986 15.3702 6.35986 15.3502C6.33986 15.3302 6.31994 15.3102 6.30994 15.2902C6.26994 15.2902 6.23985 15.2902 6.21985 15.3102C6.19985 15.3202 6.17992 15.3402 6.16992 15.3602C6.15992 15.3602 6.13987 15.3802 6.11987 15.3902" stroke="#EF2D28" stroke-width="0.03"/>
<path d="M6.17993 15.4001C6.17993 15.4001 6.23989 15.4401 6.25989 15.4501C6.26989 15.4901 6.28993 15.5101 6.29993 15.5601C6.30993 15.6001 6.30994 15.6501 6.30994 15.6901C6.29994 15.7401 6.27989 15.7701 6.25989 15.8101C6.22989 15.8301 6.20992 15.8501 6.16992 15.8701C6.12992 15.8701 6.08993 15.8801 6.04993 15.8801C6.01993 15.8801 5.95993 15.8901 5.92993 15.8801C5.88993 15.8801 5.84982 15.8601 5.81982 15.8401C5.77982 15.8201 5.75985 15.8001 5.71985 15.7801C5.69985 15.7501 5.66989 15.7301 5.63989 15.6901C5.61989 15.6601 5.59983 15.6401 5.57983 15.6001C5.59983 15.6401 5.61988 15.6801 5.62988 15.7101C5.64988 15.7501 5.66992 15.7701 5.66992 15.8101C5.68992 15.8501 5.67993 15.9001 5.67993 15.9401C5.67993 15.9701 5.67991 16.0301 5.65991 16.0501V16.0801" stroke="#EF2D28" stroke-width="0.03"/>
<path d="M4.75977 16.26V16.28C4.75977 16.28 4.75979 16.26 4.77979 16.34C4.80979 16.37 4.87981 16.38 4.92981 16.37C4.97981 16.33 4.9797 16.3 5.0697 16.29C5.1597 16.29 5.18975 16.32 5.23975 16.35C5.28975 16.37 5.33974 16.4 5.35974 16.45C5.37974 16.5 5.38971 16.53 5.32971 16.55C5.27971 16.58 5.21979 16.6 5.15979 16.61C5.08979 16.61 5.03977 16.61 5.00977 16.64C4.95977 16.68 4.96973 16.71 4.96973 16.79C4.94973 16.81 4.9497 16.89 4.9397 16.92C4.8997 16.94 4.8498 16.95 4.7998 16.95C4.7798 16.91 4.76976 16.83 4.74976 16.78C4.73976 16.73 4.73971 16.66 4.69971 16.63C4.66971 16.59 4.63972 16.56 4.58972 16.53C4.55972 16.5 4.52976 16.49 4.49976 16.48C4.55976 16.51 4.56971 16.54 4.57971 16.6C4.52971 16.62 4.50981 16.64 4.42981 16.64C4.33981 16.64 4.31979 16.61 4.28979 16.57C4.28979 16.64 4.25975 16.66 4.23975 16.73C4.20975 16.77 4.1998 16.81 4.1698 16.87C4.1798 16.94 4.20972 16.94 4.20972 17.02C4.22972 17.08 4.22978 17.13 4.26978 17.16C4.28978 17.18 4.29973 17.18 4.34973 17.19C4.25973 17.19 4.20978 17.19 4.14978 17.15C4.10978 17.12 4.06979 17.09 4.02979 17.07C3.96979 17.03 3.90972 17 3.83972 16.99C3.76972 16.99 3.7197 16.99 3.6897 17.02C3.6497 17.05 3.61973 17.1 3.59973 17.16C3.58973 17.23 3.57975 17.28 3.61975 17.33C3.63975 17.38 3.64975 17.4 3.61975 17.47C3.57975 17.51 3.52971 17.52 3.44971 17.54C3.38971 17.54 3.3398 17.53 3.2998 17.51" stroke="#EF2D28" stroke-width="0.03"/>
<path fill-rule="evenodd" clip-rule="evenodd" d="M13.1099 9.01015C14.9999 5.74015 16.2599 2.94015 15.9099 2.79015C15.5599 2.63015 13.7499 5.16015 11.8599 8.44015L13.1099 9.02014V9.01015Z" fill="white" stroke="#EF2D28" stroke-width="0.04"/>
<path fill-rule="evenodd" clip-rule="evenodd" d="M12.98 8.95001C14.81 5.79001 16.06 3.12001 15.79 2.99001C15.51 2.86001 13.81 5.33001 11.98 8.49001" fill="white"/>
<path d="M12.98 8.95001C14.81 5.79001 16.06 3.12001 15.79 2.99001C15.51 2.86001 13.81 5.33001 11.98 8.49001" stroke="#EF2D28" stroke-width="0.03"/>
<path fill-rule="evenodd" clip-rule="evenodd" d="M12.67 7.30005C12.45 7.67005 12.21 8.09004 11.98 8.49004L12.98 8.95004C13.21 8.56004 13.46 8.14005 13.67 7.76005L12.67 7.30005Z" fill="white" stroke="#EF2D28" stroke-width="0.04"/>
<path fill-rule="evenodd" clip-rule="evenodd" d="M12.7599 7.42993C12.5399 7.79993 12.3799 8.07993 12.1499 8.47993L12.8999 8.82993C13.1299 8.43993 13.2999 8.15993 13.5099 7.77993L12.7599 7.42993Z" fill="white" stroke="#EF2D28" stroke-width="0.04"/>
<path fill-rule="evenodd" clip-rule="evenodd" d="M13.2999 7.85997L12.7999 7.62997L12.3599 8.39997L12.8599 8.62997L13.2999 7.85997Z" fill="white"/>
<path d="M13.2999 7.85997L12.7999 7.62997M13.2999 7.85997L12.8599 8.62997M13.2999 7.85997L12.3599 8.39997M12.7999 7.62997L12.3599 8.39997M12.7999 7.62997L12.8599 8.62997M12.8599 8.62997L12.3599 8.39997M15.5599 3.94997L15.0599 3.71997" stroke="#EF2D28" stroke-width="0.04"/>
<path d="M15.5499 3.59011C15.4699 3.61011 15.3999 3.57011 15.3799 3.50011C15.3599 3.43011 15.4099 3.36011 15.4899 3.34011C15.5699 3.32011 15.6399 3.36011 15.6599 3.43011C15.6799 3.50011 15.6299 3.57011 15.5499 3.59011Z" fill="#EF0000" stroke="#EF2D28" stroke-width="0.05"/>
<path fill-rule="evenodd" clip-rule="evenodd" d="M12.3699 12.7001C16.6399 16.8801 18.4599 17.4101 17.5999 17.7501C16.7399 18.0901 13.9999 15.9301 11.1399 13.0601C8.27993 10.1901 6.52993 7.64011 7.38993 7.30011C8.24993 6.96011 7.82991 8.2501 12.3699 12.7001Z" fill="white" stroke="#EF2D28" stroke-width="0.05"/>
<path fill-rule="evenodd" clip-rule="evenodd" d="M15.9497 15.75L14.4497 16.14C15.8597 17.48 17.4398 18.03 17.8798 17.79C18.3198 17.55 17.0897 17 15.9397 15.75H15.9497Z" fill="white" stroke="#EF2D28" stroke-width="0.03"/>
<path fill-rule="evenodd" clip-rule="evenodd" d="M15.9497 15.8901L14.7197 16.2001C16.0897 17.4901 17.4498 17.8501 17.7998 17.6901C18.1498 17.5301 17.0697 17.0901 15.9597 15.8801L15.9497 15.8901Z" fill="white" stroke="#EF2D28" stroke-width="0.03"/>
<path d="M11.3699 12.51C11.3699 12.51 11.3799 12.62 11.3899 12.66C11.3899 12.71 11.3899 12.75 11.3999 12.79C11.4099 12.82 11.4098 12.86 11.4498 12.87C11.4698 12.9 11.4999 12.93 11.5399 12.94C11.5699 12.96 11.6099 12.98 11.6499 13C11.6899 13.02 11.7399 13.02 11.7799 13C11.8199 12.98 11.8499 12.95 11.8799 12.93C11.8799 12.9 11.8899 12.85 11.8999 12.82C11.8899 12.86 11.8799 12.9 11.8799 12.95C11.8799 13 11.8999 13.02 11.9199 13.06" stroke="#EF2D28" stroke-width="0.03"/>
<path d="M11.77 13.1601H11.78C11.78 13.1601 11.7599 13.1601 11.8199 13.1301C11.8599 13.1101 11.91 13.1001 11.96 13.0901H12.11C12.17 13.0901 12.21 13.0901 12.25 13.1101C12.28 13.1401 12.33 13.1501 12.36 13.1801C12.39 13.2001 12.41 13.2301 12.42 13.2601C12.45 13.2901 12.47 13.3301 12.5 13.3501C12.51 13.4001 12.54 13.3901 12.55 13.4301C12.5 13.4301 12.4601 13.4301 12.4301 13.4701C12.3801 13.4901 12.47 13.4501 12.49 13.4301C12.52 13.4301 12.53 13.4101 12.59 13.4101C12.64 13.3901 12.67 13.4201 12.72 13.4301C12.75 13.4501 12.76 13.4501 12.8 13.4501" stroke="#EF2D28" stroke-width="0.03"/>
<path d="M12.3499 13.6601C12.3499 13.6601 12.4699 13.6801 12.5099 13.6601C12.5599 13.6501 12.5799 13.6301 12.6099 13.5901C12.6199 13.5601 12.6099 13.6401 12.6099 13.6701C12.6099 13.7301 12.6299 13.7301 12.6699 13.7701C12.6999 13.7901 12.7299 13.8101 12.7699 13.8301C12.7999 13.8501 12.8299 13.8701 12.8699 13.8801C12.8999 13.9001 12.9398 13.9101 12.9698 13.9301C13.0098 13.9501 12.9999 13.9801 13.0299 14.0201C13.0299 14.0701 13.0199 14.0901 12.9899 14.1201C12.9799 14.1501 12.9499 14.1901 12.9199 14.2101C12.8899 14.2601 12.8599 14.2801 12.9299 14.2901C12.9699 14.3101 12.9899 14.2901 13.0299 14.2901" stroke="#EF2D28" stroke-width="0.03"/>
<path d="M13.0498 14.33C13.0498 14.33 13.1697 14.3 13.2097 14.28H13.3597C13.4197 14.28 13.4297 14.3 13.4797 14.32C13.5097 14.35 13.5297 14.37 13.5797 14.39C13.5997 14.42 13.6498 14.46 13.6698 14.5C13.6798 14.54 13.6897 14.58 13.6897 14.62C13.6897 14.68 13.6698 14.69 13.6698 14.74C13.6598 14.78 13.6397 14.82 13.5997 14.86C13.5997 14.87 13.5997 14.88 13.5797 14.88" stroke="#EF2D28" stroke-width="0.03"/>
<path d="M13.5698 15.0001C13.5698 15.0001 13.5799 15.0201 13.5999 15.0501C13.6399 15.0901 13.6398 15.0901 13.6898 15.0901C13.7398 15.0901 13.7299 15.0701 13.7699 15.0601C13.7899 15.0401 13.8098 15.0201 13.8198 14.9801C13.8298 14.9601 13.8399 14.9301 13.8599 14.9101C13.8699 14.8901 13.8899 14.8701 13.9099 14.8501C13.9199 14.8501 13.9298 14.8401 13.9498 14.8301C13.9098 14.8301 13.8999 14.8501 13.8699 14.8801C13.8599 14.9001 13.8398 14.9301 13.8298 14.9501C13.8298 14.9801 13.8199 15.0101 13.8099 15.0501C13.8099 15.0901 13.8098 15.1201 13.8298 15.1601C13.8498 15.1801 13.8599 15.2001 13.8799 15.2101C13.8999 15.2301 13.9199 15.2501 13.9299 15.2701L13.9999 15.3201C13.9999 15.3201 14.0498 15.3501 14.0798 15.3501C14.1298 15.3501 14.1399 15.3301 14.1699 15.3201C14.1999 15.3001 14.2199 15.2901 14.2499 15.2701C14.2699 15.2501 14.2899 15.2301 14.2999 15.2101C14.3399 15.2101 14.3699 15.2101 14.3899 15.2301C14.4099 15.2401 14.4298 15.2601 14.4398 15.2801C14.4498 15.2801 14.4699 15.3001 14.4899 15.3101" stroke="#EF2D28" stroke-width="0.03"/>
<path d="M14.42 15.3101C14.42 15.3101 14.36 15.3501 14.34 15.3601C14.33 15.4001 14.31 15.4201 14.3 15.4701C14.29 15.5101 14.29 15.5601 14.29 15.6001C14.3 15.6501 14.32 15.6801 14.34 15.7201C14.37 15.7401 14.3901 15.7601 14.4301 15.7801C14.4701 15.7801 14.51 15.7901 14.55 15.7901C14.58 15.7901 14.64 15.8001 14.67 15.7901C14.71 15.7901 14.75 15.7701 14.78 15.7501C14.82 15.7301 14.84 15.7101 14.88 15.6901C14.9 15.6601 14.93 15.6401 14.96 15.6001C14.98 15.5701 15 15.5501 15.02 15.5101C15 15.5501 14.98 15.5901 14.97 15.6201C14.95 15.6601 14.9301 15.6801 14.9301 15.7201C14.9101 15.7601 14.92 15.8101 14.92 15.8501C14.92 15.8801 14.9199 15.9401 14.9399 15.9601V15.9901" stroke="#EF2D28" stroke-width="0.03"/>
<path d="M15.8398 16.1899V16.2099C15.8398 16.2099 15.8398 16.1899 15.8198 16.2699C15.7898 16.2999 15.7199 16.3099 15.6699 16.2999C15.6199 16.2599 15.6199 16.2299 15.5299 16.2199C15.4399 16.2199 15.4098 16.2499 15.3598 16.2799C15.3098 16.2999 15.2598 16.3299 15.2398 16.3799C15.2198 16.4299 15.2099 16.4599 15.2699 16.4799C15.3199 16.5099 15.3798 16.5299 15.4398 16.5399C15.5098 16.5399 15.5598 16.5399 15.5898 16.5699C15.6398 16.6099 15.6299 16.6399 15.6299 16.7199C15.6499 16.7399 15.6499 16.8199 15.6599 16.8499C15.6999 16.8699 15.7499 16.8799 15.7999 16.8799C15.8199 16.8399 15.8298 16.7599 15.8498 16.7099C15.8598 16.6599 15.8599 16.5899 15.8999 16.5599C15.9299 16.5199 15.9599 16.4899 16.0099 16.4599C16.0399 16.4299 16.0698 16.4199 16.0998 16.4099C16.0398 16.4399 16.0299 16.4699 16.0199 16.5299C16.0699 16.5499 16.0899 16.5699 16.1699 16.5699C16.2599 16.5699 16.2799 16.5399 16.3099 16.4999C16.3099 16.5699 16.3398 16.5899 16.3598 16.6599C16.3898 16.6999 16.3999 16.7399 16.4299 16.7999C16.4199 16.8699 16.3899 16.8699 16.3899 16.9499C16.3699 17.0099 16.3698 17.0599 16.3298 17.0899C16.3098 17.1099 16.2998 17.1099 16.2498 17.1199C16.3398 17.1199 16.3898 17.1199 16.4498 17.0799C16.4898 17.0499 16.5298 17.0199 16.5698 16.9999C16.6298 16.9599 16.6899 16.9299 16.7599 16.9199C16.8299 16.9199 16.8799 16.9199 16.9099 16.9499C16.9499 16.9799 16.9798 17.0299 16.9998 17.0899C17.0098 17.1599 17.0198 17.2099 16.9798 17.2599C16.9598 17.3099 16.9498 17.3299 16.9798 17.3999C17.0198 17.4399 17.0699 17.4499 17.1499 17.4699C17.2099 17.4699 17.2599 17.4599 17.2999 17.4399" stroke="#EF2D28" stroke-width="0.03"/>
<path fill-rule="evenodd" clip-rule="evenodd" d="M7.48979 8.93007C5.59979 5.66007 4.33974 2.86007 4.68974 2.71007C5.03974 2.55007 6.84979 5.08007 8.73979 8.36007L7.48979 8.94007V8.93007Z" fill="white" stroke="#EF2D28" stroke-width="0.04"/>
<path fill-rule="evenodd" clip-rule="evenodd" d="M7.62003 8.87994C5.79003 5.71994 4.5401 3.04994 4.8101 2.91994C5.0901 2.78994 6.79003 5.25994 8.62003 8.41994" fill="white"/>
<path d="M7.62003 8.87994C5.79003 5.71994 4.5401 3.04994 4.8101 2.91994C5.0901 2.78994 6.79003 5.25994 8.62003 8.41994" stroke="#EF2D28" stroke-width="0.03"/>
<path fill-rule="evenodd" clip-rule="evenodd" d="M7.92993 7.22998C8.14993 7.59998 8.38987 8.01998 8.61987 8.41998L7.61987 8.87997C7.38987 8.48997 7.13993 8.06998 6.92993 7.68998L7.92993 7.22998Z" fill="white" stroke="#EF2D28" stroke-width="0.04"/>
<path fill-rule="evenodd" clip-rule="evenodd" d="M7.83984 7.36011C8.05984 7.73011 8.21983 8.01011 8.44983 8.41011L7.69983 8.76011C7.46983 8.37011 7.29984 8.09011 7.08984 7.71011L7.83984 7.36011Z" fill="white" stroke="#EF2D28" stroke-width="0.04"/>
<path fill-rule="evenodd" clip-rule="evenodd" d="M7.30005 7.78014L7.80005 7.55014L8.23999 8.32014L7.73999 8.55014L7.30005 7.78014Z" fill="white"/>
<path d="M7.30005 7.78014L7.80005 7.55014M7.30005 7.78014L7.73999 8.55014M7.30005 7.78014L8.23999 8.32014M7.80005 7.55014L8.23999 8.32014M7.80005 7.55014L7.73999 8.55014M7.73999 8.55014L8.23999 8.32014M5.04004 3.87014L5.54004 3.64014" stroke="#EF2D28" stroke-width="0.04"/>
<path d="M5.03993 3.51003C5.11993 3.53003 5.18986 3.49003 5.20986 3.42003C5.22986 3.35003 5.17987 3.28003 5.09987 3.26003C5.01987 3.24003 4.94995 3.28003 4.92995 3.35003C4.90995 3.42003 4.95993 3.49003 5.03993 3.51003Z" fill="#EF0000" stroke="#EF2D28" stroke-width="0.05"/>
<path fill-rule="evenodd" clip-rule="evenodd" d="M9.01001 7.26001C9.01001 10.01 9.02995 11.05 8.81995 11.19C8.62995 11.34 3.29004 11.19 3.29004 11.98C3.29004 12.77 7.68 13.55 9 13.55C10.76 13.55 11.64 12.76 11.64 11.19V7.26001H9H9.01001Z" fill="white" stroke="#EF2D28" stroke-width="0.04"/>
<path fill-rule="evenodd" clip-rule="evenodd" d="M9.00977 8.05005V8.44005C9.87977 8.57005 10.7698 8.57005 11.6398 8.44005V8.05005C10.7698 8.18005 9.87977 8.18005 9.00977 8.05005Z" fill="white" stroke="#EF2D28" stroke-width="0.03"/>
<path fill-rule="evenodd" clip-rule="evenodd" d="M9.00977 7.26001V7.65001C9.87977 7.78001 10.7698 7.78001 11.6398 7.65001V7.26001C10.7698 7.39001 9.87977 7.39001 9.00977 7.26001Z" fill="white" stroke="#EF2D28" stroke-width="0.03"/>
<path fill-rule="evenodd" clip-rule="evenodd" d="M9.00977 7.65015V8.04015C9.87977 8.17015 10.7698 8.17015 11.6398 8.04015V7.65015C10.7698 7.78015 9.87977 7.78015 9.00977 7.65015Z" fill="white" stroke="#EF2D28" stroke-width="0.03"/>
<path fill-rule="evenodd" clip-rule="evenodd" d="M9.00977 8.43994V8.82994C9.87977 8.95994 10.7698 8.95994 11.6398 8.82994V8.43994C10.7698 8.56994 9.87977 8.56994 9.00977 8.43994Z" fill="white" stroke="#EF2D28" stroke-width="0.03"/>
<path d="M9.12976 7.96004C9.19976 7.96004 9.24976 7.92004 9.24976 7.88004C9.24976 7.84004 9.19976 7.80005 9.12976 7.80005C9.05976 7.80005 9.00977 7.84004 9.00977 7.88004C9.00977 7.92004 9.05976 7.96004 9.12976 7.96004Z" fill="white" stroke="#EF2D28" stroke-width="0.03"/>
<path d="M9.60974 8.00009C9.67974 8.00009 9.72974 7.96009 9.72974 7.92009C9.72974 7.88009 9.67974 7.84009 9.60974 7.84009C9.53974 7.84009 9.48975 7.88009 9.48975 7.92009C9.48975 7.96009 9.53974 8.00009 9.60974 8.00009Z" fill="white" stroke="#EF2D28" stroke-width="0.03"/>
<path d="M10.0897 8.05014C10.1597 8.05014 10.2097 8.01014 10.2097 7.97014C10.2097 7.93014 10.1597 7.89014 10.0897 7.89014C10.0197 7.89014 9.96973 7.93014 9.96973 7.97014C9.96973 8.01014 10.0197 8.05014 10.0897 8.05014Z" fill="white" stroke="#EF2D28" stroke-width="0.03"/>
<path d="M10.5601 8.05014C10.6301 8.05014 10.6801 8.01014 10.6801 7.97014C10.6801 7.93014 10.6301 7.89014 10.5601 7.89014C10.4901 7.89014 10.4399 7.93014 10.4399 7.97014C10.4399 8.01014 10.4901 8.05014 10.5601 8.05014Z" fill="white" stroke="#EF2D28" stroke-width="0.03"/>
<path d="M11.0399 8.00009C11.1099 8.00009 11.1599 7.96009 11.1599 7.92009C11.1599 7.88009 11.1099 7.84009 11.0399 7.84009C10.9699 7.84009 10.9199 7.88009 10.9199 7.92009C10.9199 7.96009 10.9699 8.00009 11.0399 8.00009Z" fill="white" stroke="#EF2D28" stroke-width="0.03"/>
<path d="M11.5199 7.96004C11.5899 7.96004 11.6399 7.92004 11.6399 7.88004C11.6399 7.84004 11.5899 7.80005 11.5199 7.80005C11.4499 7.80005 11.3999 7.84004 11.3999 7.88004C11.3999 7.92004 11.4499 7.96004 11.5199 7.96004Z" fill="white" stroke="#EF2D28" stroke-width="0.03"/>
<path d="M9.14772 9.34098L9.27011 9.43964L9.40964 9.34133L9.52781 9.43556L9.66396 9.34414L9.78633 9.43925L9.92851 9.34691L10.0554 9.44349L10.1961 9.34397L10.3268 9.44047L10.4578 9.34375L10.5931 9.43945L10.7203 9.3426L10.8677 9.43836L10.9898 9.34346L11.1262 9.43501L11.2438 9.34089L11.3897 9.44366L11.5424 9.55124L11.4325 9.64068L11.5941 9.74917L11.4841 9.83871L11.3323 9.96229L11.4835 10.0692L11.3384 10.1873L11.493 10.3015L11.3428 10.4237L11.4952 10.5397L11.3521 10.6562L11.4966 10.7685L11.3495 10.8883L11.4984 11.0071L11.3572 11.122L11.5053 11.2414L11.3572 11.362L11.5047 11.4809L11.3535 11.6028L11.5026 11.722L11.3527 11.8421L11.5015 11.9612L11.3571 12.078L11.2083 12.1984L11.3599 12.3198L11.2143 12.4359L11.069 12.5517L11.2236 12.675L11.0883 12.7829L10.9426 12.8991L10.8026 13.0107L10.6564 13.1273L10.4999 13.0056L10.3233 13.1464L10.1794 13.0311L10.0237 12.9064L9.87935 12.7908L9.73932 12.6786L9.59071 12.5595L9.44209 12.4405L9.29967 12.3264L9.15106 12.2073L9.00244 12.0883L8.86002 11.9742L9.01282 11.8498L8.86197 11.7326L9.01197 11.6105L8.86668 11.4969L9.01051 11.3798L8.85146 11.2548L8.99698 11.1384L9.14662 11.0186L9.29169 10.9026L9.13971 10.7814L9.2915 10.6634L9.14235 10.544L9.29034 10.4313L9.14332 10.3142L9.29904 10.1992L9.15259 10.082L9.31181 9.96942L9.15867 9.84692L9.04757 9.75803L9.22203 9.64089L9.11125 9.55158L9.01034 9.47025L9.14772 9.34098Z" fill="white"/>
<path d="M9.01001 9.22998L11.64 11.35L8.91003 13.55M9.26001 9.22998L11.63 11.12M9.60999 9.30997L11.63 10.88M9.87 9.30997L11.63 10.65L8.72998 13.01M10.13 9.30997L11.62 10.41M10.39 9.30997L11.62 10.18M10.65 9.30997L11.62 9.93998L8.71997 12.3M10.92 9.30997L11.62 9.77998M11.1801 9.30997L11.62 9.61998M11.4399 9.30997L11.61 9.46998L8.70996 11.83M8.97998 9.46998L11.61 11.59M11.61 9.22998L8.70996 11.59M11.35 9.22998L8.80005 11.27M11 9.29998L8.97998 10.87M10.74 9.29998L8.97998 10.64M10.48 9.29998L8.98999 10.4M10.22 9.29998L8.98999 10.17L11.45 12.13M9.95996 9.29998L8.98999 9.92998M9.68994 9.29998L8.98999 9.76997M9.43005 9.29998L8.98999 9.60998M9.16003 9.29998L8.98999 9.45998M11.63 9.69997L8.72998 12.06M11.63 10.17L8.72998 12.53M11.63 10.41L8.72998 12.77M11.63 10.89L8.72998 13.25M11.63 11.13L8.72998 13.49M11.63 11.6L9.17004 13.57M11.54 11.92L9.59998 13.49M11.45 12.23L9.87 13.49M11.28 12.63L10.49 13.26M9 9.71998L11.55 11.76M9 9.94997L11.55 11.99M9 10.42L11.46 12.39M9 10.66L11.37 12.55M8.91003 10.82L11.28 12.71M8.91003 11.06L11.11 12.79M8.81995 11.22L11.02 12.95M8.72998 11.38L10.84 13.03M8.72998 11.61L10.75 13.18M8.72998 11.84L10.49 13.25" stroke="#EF2D28" stroke-width="0.03"/>
<path fill-rule="evenodd" clip-rule="evenodd" d="M9.00977 8.83008V9.22008C9.87977 9.35008 10.7698 9.35008 11.6398 9.22008V8.83008C10.7698 8.96008 9.87977 8.96008 9.00977 8.83008Z" fill="white" stroke="#EF2D28" stroke-width="0.03"/>
<path d="M8.73975 12.0601L10.3197 13.3201M8.73975 12.3001L10.1498 13.4001M8.73975 12.5301L9.96973 13.4701M8.73975 12.7601L9.61975 13.4701M8.73975 13.0001L9.4397 13.5501M8.73975 13.2401L9.17981 13.5501" stroke="#EF2D28" stroke-width="0.03"/>
<path d="M9.12976 9.13998C9.19976 9.13998 9.24976 9.09997 9.24976 9.05997C9.24976 9.01997 9.19976 8.97998 9.12976 8.97998C9.05976 8.97998 9.00977 9.01997 9.00977 9.05997C9.00977 9.09997 9.05976 9.13998 9.12976 9.13998Z" fill="white" stroke="#EF2D28" stroke-width="0.03"/>
<path d="M9.60974 9.18002C9.67974 9.18002 9.72974 9.14002 9.72974 9.10002C9.72974 9.06002 9.67974 9.02002 9.60974 9.02002C9.53974 9.02002 9.48975 9.06002 9.48975 9.10002C9.48975 9.14002 9.53974 9.18002 9.60974 9.18002Z" fill="white" stroke="#EF2D28" stroke-width="0.03"/>
<path d="M10.0897 9.23007C10.1597 9.23007 10.2097 9.19007 10.2097 9.15007C10.2097 9.11007 10.1597 9.07007 10.0897 9.07007C10.0197 9.07007 9.96973 9.11007 9.96973 9.15007C9.96973 9.19007 10.0197 9.23007 10.0897 9.23007Z" fill="white" stroke="#EF2D28" stroke-width="0.03"/>
<path d="M10.5601 9.23007C10.6301 9.23007 10.6801 9.19007 10.6801 9.15007C10.6801 9.11007 10.6301 9.07007 10.5601 9.07007C10.4901 9.07007 10.4399 9.11007 10.4399 9.15007C10.4399 9.19007 10.4901 9.23007 10.5601 9.23007Z" fill="white" stroke="#EF2D28" stroke-width="0.03"/>
<path d="M11.0399 9.18002C11.1099 9.18002 11.1599 9.14002 11.1599 9.10002C11.1599 9.06002 11.1099 9.02002 11.0399 9.02002C10.9699 9.02002 10.9199 9.06002 10.9199 9.10002C10.9199 9.14002 10.9699 9.18002 11.0399 9.18002Z" fill="white" stroke="#EF2D28" stroke-width="0.03"/>
<path d="M11.5199 9.13998C11.5899 9.13998 11.6399 9.09997 11.6399 9.05997C11.6399 9.01997 11.5899 8.97998 11.5199 8.97998C11.4499 8.97998 11.3999 9.01997 11.3999 9.05997C11.3999 9.09997 11.4499 9.13998 11.5199 9.13998Z" fill="white" stroke="#EF2D28" stroke-width="0.03"/>
<path d="M5.22998 12.92L8.39001 11.27M5.05005 12.84L8.04004 11.27M4.95996 12.68L7.68005 11.27M4.87 12.53L7.23999 11.27M4.68994 12.37L6.89001 11.27M4.78003 12.14L6.27002 11.35M4.68994 11.98L5.82996 11.35M4.68994 11.74L5.47998 11.35M5.47998 13L8.46997 11.43M5.75 13.08L8.56006 11.59M6.01001 13.16L8.65002 11.75M6.28003 13.24L8.47998 12.06M6.63 13.24L8.56995 12.22M6.90002 13.32L8.56995 12.46M7.16003 13.4L8.47998 12.69M7.51001 13.4L8.56006 12.85M7.85999 13.48L8.56006 13.09M8.20996 13.48L8.65002 13.24" stroke="#EF2D28" stroke-width="0.03"/>
<path fill-rule="evenodd" clip-rule="evenodd" d="M8.82979 11.1899H8.38984C8.23984 11.9699 8.23984 12.7699 8.38984 13.5499H8.82979C8.67979 12.7699 8.67979 11.9699 8.82979 11.1899Z" fill="white" stroke="#EF2D28" stroke-width="0.03"/>
<path d="M3.63989 12.29L4.68982 11.5M3.63989 11.74L4.68982 12.68" stroke="#EF2D28" stroke-width="0.03"/>
<path fill-rule="evenodd" clip-rule="evenodd" d="M5.22989 11.3501L4.69986 11.4301C4.57986 11.9301 4.57986 12.3501 4.69986 12.8501L5.22989 13.0101C5.10989 12.5101 5.10989 11.8601 5.22989 11.3601V11.3501Z" fill="white" stroke="#EF2D28" stroke-width="0.02"/>
<path fill-rule="evenodd" clip-rule="evenodd" d="M11.64 7.42004V7.02004C11.24 7.02004 10.98 6.79005 10.98 6.55005H9.66003C9.66003 6.79005 9.4 7.02004 9 7.02004V7.41005H11.64V7.42004Z" fill="white" stroke="#EF2D28" stroke-width="0.04"/>
<path fill-rule="evenodd" clip-rule="evenodd" d="M9.75977 6.07996H10.8898V6.54996H9.75977V6.07996ZM9.85974 5.60996H10.7998V6.07996H9.85974V5.60996ZM9.85974 5.13996H10.7998V5.60996H9.85974V5.13996ZM9.94971 4.50996H10.6997V5.13996H9.94971V4.50996ZM9.9198 3.95996H10.7397V4.50996H9.9198V3.95996Z" fill="white"/>
<path d="M10.79 5.60996H9.84998M10.79 5.60996V6.07996H9.84998V5.60996M10.79 5.60996V5.13996H9.84998V5.60996M9.75 6.07996H10.88V6.54996H9.75V6.07996ZM9.93994 4.50996H10.6899V5.13996H9.93994V4.50996ZM9.91003 3.95996H10.73V4.50996H9.91003V3.95996Z" stroke="#EF2D28" stroke-width="0.03"/>
<path d="M10.3698 4.19995C10.9698 4.19995 11.4597 3.86995 11.4597 3.44995C11.4597 3.02995 10.9698 2.69995 10.3698 2.69995C9.76975 2.69995 9.27979 3.02995 9.27979 3.44995C9.27979 3.86995 9.76975 4.19995 10.3698 4.19995Z" fill="white" stroke="#EF2D28" stroke-width="0.03"/>
<path fill-rule="evenodd" clip-rule="evenodd" d="M10.91 3.40996C10.91 3.61996 11.1801 3.95995 11.1801 3.95995C10.9801 4.09995 10.66 4.19995 10.36 4.19995C10.06 4.19995 9.69004 4.13995 9.54004 3.95995C9.54004 3.95995 9.81006 3.61996 9.81006 3.40996C9.81006 3.19996 9.54004 2.93996 9.54004 2.93996C9.78004 2.78996 10.07 2.70995 10.36 2.69995C10.66 2.69995 10.9801 2.79996 11.1801 2.93996C11.1801 2.93996 10.91 3.20996 10.91 3.40996Z" fill="white" stroke="#EF2D28" stroke-width="0.03"/>
<path fill-rule="evenodd" clip-rule="evenodd" d="M10.7297 3.40996C10.7297 3.61996 10.9998 4.03996 10.9998 4.03996C10.7998 4.16996 10.6697 4.19995 10.3597 4.19995C10.0497 4.19995 9.86973 4.21996 9.71973 4.03996C9.71973 4.03996 9.98975 3.61996 9.98975 3.40996C9.98975 3.19996 9.71973 2.85995 9.71973 2.85995C9.91973 2.72995 10.0497 2.69995 10.3597 2.69995C10.6697 2.69995 10.7998 2.71995 10.9998 2.85995C10.9998 2.85995 10.7297 3.19996 10.7297 3.40996Z" fill="white" stroke="#EF2D28" stroke-width="0.03"/>
<path d="M9.27979 3.71999C9.42979 3.71999 9.5498 3.61 9.5498 3.48C9.5498 3.35 9.42979 3.23999 9.27979 3.23999C9.12979 3.23999 9.00977 3.35 9.00977 3.48C9.00977 3.61 9.12979 3.71999 9.27979 3.71999Z" fill="white" stroke="#EF2D28" stroke-width="0.03"/>
<path d="M11.46 3.71999C11.61 3.71999 11.73 3.61 11.73 3.48C11.73 3.35 11.61 3.23999 11.46 3.23999C11.31 3.23999 11.1899 3.35 11.1899 3.48C11.1899 3.61 11.31 3.71999 11.46 3.71999Z" fill="white" stroke="#EF2D28" stroke-width="0.03"/>
<path d="M10.3699 3.71999C10.5199 3.71999 10.6399 3.61 10.6399 3.48C10.6399 3.35 10.5199 3.23999 10.3699 3.23999C10.2199 3.23999 10.0999 3.35 10.0999 3.48C10.0999 3.61 10.2199 3.71999 10.3699 3.71999Z" fill="white" stroke="#EF2D28" stroke-width="0.03"/>
<path d="M10.3699 2.93996C10.5199 2.93996 10.6399 2.82996 10.6399 2.69996C10.6399 2.56996 10.5199 2.45996 10.3699 2.45996C10.2199 2.45996 10.0999 2.56996 10.0999 2.69996C10.0999 2.82996 10.2199 2.93996 10.3699 2.93996Z" fill="white" stroke="#EF2D28" stroke-width="0.03"/>
<path d="M9.56995 7.41994C9.72995 7.41994 9.84998 7.30994 9.84998 7.17994C9.84998 7.04994 9.71995 6.93994 9.56995 6.93994C9.41995 6.93994 9.29004 7.04994 9.29004 7.17994C9.29004 7.30994 9.41995 7.41994 9.56995 7.41994Z" fill="white" stroke="#EF2D28" stroke-width="0.03"/>
<path d="M11.0699 7.41994C11.2299 7.41994 11.35 7.30994 11.35 7.17994C11.35 7.04994 11.2199 6.93994 11.0699 6.93994C10.9199 6.93994 10.79 7.04994 10.79 7.17994C10.79 7.30994 10.9199 7.41994 11.0699 7.41994Z" fill="white" stroke="#EF2D28" stroke-width="0.03"/>
<path fill-rule="evenodd" clip-rule="evenodd" d="M9.65991 6.55005H10.9799L10.3198 7.26005L9.65991 6.55005Z" fill="white" stroke="#EF2D28" stroke-width="0.03"/>
<path d="M10.3199 7.42004C10.5299 7.42004 10.7 7.28005 10.7 7.11005C10.7 6.94005 10.5299 6.80005 10.3199 6.80005C10.1099 6.80005 9.93994 6.94005 9.93994 7.11005C9.93994 7.28005 10.1099 7.42004 10.3199 7.42004Z" fill="white" stroke="#EF2D28" stroke-width="0.04"/>
<path d="M10.7999 9.44995H8.98987C8.92987 9.44995 8.87988 9.48995 8.87988 9.52995V9.83995C8.87988 9.83995 8.92987 9.91995 8.98987 9.91995H10.7999C10.8599 9.91995 10.9099 9.87995 10.9099 9.83995V9.52995C10.9099 9.52995 10.8599 9.44995 10.7999 9.44995Z" fill="white" stroke="#EF2D28" stroke-width="0.03"/>
<path fill-rule="evenodd" clip-rule="evenodd" d="M11.5198 9.05996C11.2798 9.05996 11.0797 9.23996 11.0797 9.46996V9.82996C11.0797 9.87996 11.0797 9.93997 11.1097 9.97997C11.1297 10.03 11.1597 10.07 11.1997 10.11C11.2397 10.15 11.2897 10.18 11.3397 10.2C11.3897 10.22 11.4498 10.23 11.5098 10.23C11.5698 10.23 11.6298 10.22 11.6798 10.2C11.7298 10.18 11.7797 10.15 11.8197 10.11C11.8597 10.07 11.8898 10.03 11.9098 9.97997C11.9298 9.92997 11.9397 9.87996 11.9397 9.82996V9.47997C11.9397 9.42997 11.9398 9.36996 11.9098 9.31996C11.8798 9.26996 11.8597 9.22996 11.8197 9.18996C11.7797 9.14996 11.7298 9.11996 11.6798 9.09996C11.6298 9.07996 11.5698 9.06996 11.5098 9.06996L11.5198 9.05996ZM11.5198 9.21996C11.3698 9.21996 11.2598 9.36996 11.2598 9.54996V9.75996C11.2598 9.93996 11.3798 10.09 11.5198 10.09C11.6598 10.09 11.7798 9.93996 11.7798 9.75996V9.54996C11.7798 9.36996 11.6598 9.21996 11.5198 9.21996ZM9.22974 9.13996C9.07974 9.13996 8.96973 9.28996 8.96973 9.46996V9.82996C8.96973 10.01 9.08974 10.16 9.22974 10.16C9.36974 10.16 9.48975 10.01 9.48975 9.82996V9.45996C9.48975 9.27996 9.36974 9.12996 9.22974 9.12996V9.13996ZM9.22974 8.97997C9.16974 8.97997 9.10981 8.98996 9.05981 9.00996C9.00981 9.02996 8.9598 9.05996 8.9198 9.09996C8.8798 9.13996 8.84971 9.17997 8.82971 9.22997C8.80971 9.27997 8.7998 9.32996 8.7998 9.37996V9.88996C8.7998 9.93996 8.79971 9.99996 8.82971 10.04C8.84971 10.09 8.8798 10.13 8.9198 10.17C8.9598 10.21 9.00981 10.24 9.05981 10.26C9.10981 10.28 9.16974 10.29 9.22974 10.29C9.46974 10.29 9.6698 10.11 9.6698 9.87996V9.36996C9.6698 9.31996 9.66977 9.25996 9.63977 9.20996C9.61977 9.15996 9.5898 9.11996 9.5498 9.07996C9.5098 9.03996 9.45979 9.00996 9.40979 8.98996C9.35979 8.96996 9.29975 8.95996 9.23975 8.95996L9.22974 8.97997Z" fill="white" stroke="#EF2D28" stroke-width="0.03"/>
<path fill-rule="evenodd" clip-rule="evenodd" d="M8.52991 9.30012C8.37991 9.30012 8.2699 9.45011 8.2699 9.63011V9.72012C8.2699 9.90012 8.38991 10.0501 8.52991 10.0501C8.66991 10.0501 8.79993 9.90012 8.79993 9.72012V9.63011C8.79993 9.45011 8.67991 9.30012 8.52991 9.30012ZM8.52991 9.14011C8.46991 9.14011 8.40986 9.15011 8.35986 9.17011C8.30986 9.19011 8.25985 9.22012 8.21985 9.26012C8.17985 9.30012 8.14988 9.34011 8.12988 9.39011C8.10988 9.44011 8.09985 9.49012 8.09985 9.54012V9.78011C8.09985 9.83011 8.09988 9.89011 8.12988 9.93011C8.14988 9.98011 8.17985 10.0201 8.21985 10.0601C8.25985 10.1001 8.30986 10.1301 8.35986 10.1501C8.40986 10.1701 8.46991 10.1801 8.52991 10.1801C8.76991 10.1801 8.96985 10.0001 8.96985 9.77011V9.53011C8.96985 9.48011 8.96982 9.42012 8.93982 9.37012C8.91982 9.32012 8.88985 9.27011 8.84985 9.24011C8.80985 9.20011 8.75983 9.17012 8.69983 9.15012C8.64983 9.13012 8.58991 9.12012 8.52991 9.12012V9.14011Z" fill="white" stroke="#EF2D28" stroke-width="0.03"/>
<path fill-rule="evenodd" clip-rule="evenodd" d="M7.47986 9.08015C7.20986 9.08015 6.99988 9.24015 6.99988 9.45015V9.86015C6.99988 10.0602 7.20986 10.2302 7.47986 10.2302C7.74986 10.2302 7.94983 10.0702 7.94983 9.86015V9.45015C7.94983 9.25015 7.73986 9.08015 7.47986 9.08015ZM7.47986 8.91016C7.36986 8.91016 7.26992 8.92015 7.16992 8.95015C7.06992 8.97015 6.97991 9.01016 6.90991 9.05016C6.83991 9.09016 6.77987 9.14015 6.73987 9.20015C6.69987 9.25015 6.67993 9.31016 6.67993 9.37016V9.95015C6.67993 10.0101 6.68986 10.0702 6.72986 10.1202C6.76986 10.1802 6.8299 10.2301 6.8999 10.2701C6.9699 10.3101 7.05991 10.3502 7.15991 10.3702C7.25991 10.3902 7.35985 10.4102 7.46985 10.4102C7.90985 10.4102 8.25989 10.2001 8.25989 9.95015V9.37016C8.25989 9.31016 8.23984 9.25015 8.20984 9.20015C8.16984 9.14015 8.10992 9.09016 8.03992 9.05016C7.96992 9.01016 7.87991 8.97015 7.77991 8.95015C7.67991 8.93015 7.57985 8.91016 7.46985 8.91016H7.47986Z" fill="white" stroke="#EF2D28" stroke-width="0.03"/>
<path fill-rule="evenodd" clip-rule="evenodd" d="M13.1898 9.16C12.9198 9.16 12.7098 9.31999 12.7098 9.52999V9.93999C12.7098 10.14 12.9198 10.31 13.1898 10.31C13.4598 10.31 13.6599 10.15 13.6599 9.93999V9.52999C13.6599 9.32999 13.4498 9.16 13.1898 9.16ZM13.1898 8.98999C13.0798 8.98999 12.9799 8.99999 12.8799 9.02999C12.7799 9.04999 12.6899 9.08999 12.6199 9.12999C12.5499 9.16999 12.4898 9.21999 12.4498 9.27999C12.4098 9.32999 12.3899 9.38999 12.3899 9.44999V10.03C12.3899 10.09 12.3998 10.15 12.4398 10.2C12.4798 10.26 12.5399 10.31 12.6099 10.35C12.6799 10.39 12.7699 10.43 12.8699 10.45C12.9699 10.47 13.0699 10.49 13.1799 10.49C13.6199 10.49 13.9698 10.28 13.9698 10.03V9.44999C13.9698 9.38999 13.9499 9.32999 13.9199 9.27999C13.8799 9.21999 13.8199 9.16999 13.7499 9.12999C13.6799 9.08999 13.5899 9.04999 13.4899 9.02999C13.3899 9.00999 13.2899 8.98999 13.1799 8.98999H13.1898Z" fill="white" stroke="#EF2D28" stroke-width="0.03"/>
<path d="M12.6899 9.44995H11.75C11.75 9.44995 11.6899 9.48995 11.6899 9.52995V9.83995C11.6899 9.83995 11.72 9.91995 11.75 9.91995H12.6899C12.6899 9.91995 12.75 9.87995 12.75 9.83995V9.52995C12.75 9.52995 12.7199 9.44995 12.6899 9.44995Z" fill="white" stroke="#EF2D28" stroke-width="0.03"/>
<path d="M11.3101 9.38013H10.76C10.76 9.38013 10.73 9.43013 10.73 9.49013V9.90013C10.73 9.96013 10.74 10.0101 10.76 10.0101H11.3101C11.3101 10.0101 11.34 9.96013 11.34 9.90013V9.49013C11.34 9.43013 11.3301 9.38013 11.3101 9.38013Z" fill="white" stroke="#EF2D28" stroke-width="0.03"/>
<path d="M8.40991 9.38013H7.85986C7.85986 9.38013 7.82983 9.43013 7.82983 9.49013V9.90013C7.82983 9.96013 7.83986 10.0101 7.85986 10.0101H8.40991C8.40991 10.0101 8.43982 9.96013 8.43982 9.90013V9.49013C8.43982 9.43013 8.42991 9.38013 8.40991 9.38013Z" fill="white" stroke="#EF2D28" stroke-width="0.03"/>
<path d="M7.05994 9.30005H5.95984C5.95984 9.30005 5.8999 9.36005 5.8999 9.44005V9.95004C5.8999 10.02 5.92984 10.09 5.95984 10.09H7.05994C7.05994 10.09 7.11987 10.03 7.11987 9.95004V9.44005C7.11987 9.37005 7.08994 9.30005 7.05994 9.30005Z" fill="white" stroke="#EF2D28" stroke-width="0.03"/>
<path d="M14.62 9.38013H13.6C13.6 9.38013 13.54 9.44013 13.54 9.52013V10.0301C13.54 10.1001 13.57 10.1701 13.6 10.1701H14.62C14.62 10.1701 14.6801 10.1101 14.6801 10.0301V9.52013C14.6801 9.45013 14.65 9.38013 14.62 9.38013Z" fill="white" stroke="#EF2D28" stroke-width="0.03"/>
</g>
</g>
</svg>
