<svg width="60" height="60" viewBox="0 0 60 60" fill="none" xmlns="http://www.w3.org/2000/svg">
<g clip-path="url(#clip0_14015_14950)">
<mask id="mask0_14015_14950" style="mask-type:alpha" maskUnits="userSpaceOnUse" x="0" y="0" width="60" height="60">
<circle cx="30" cy="30" r="30" fill="#012169"/>
</mask>
<g mask="url(#mask0_14015_14950)">
<g clip-path="url(#clip1_14015_14950)">
<g clip-path="url(#clip2_14015_14950)">
<mask id="mask1_14015_14950" style="mask-type:luminance" maskUnits="userSpaceOnUse" x="-10" y="0" width="80" height="60">
<path d="M-10 0H70V60H-10V0Z" fill="white"/>
</mask>
<g mask="url(#mask1_14015_14950)">
<path d="M-10 0H70V60H-10V0Z" fill="white"/>
<path fill-rule="evenodd" clip-rule="evenodd" d="M1.5623 0H61.2123V60H1.5498L1.5623 0Z" fill="white"/>
<path fill-rule="evenodd" clip-rule="evenodd" d="M30.375 0.449951H75.125V28.1625H30.375V0.449951Z" fill="#DB0000"/>
<path fill-rule="evenodd" clip-rule="evenodd" d="M-9.6001 28.1625H30.3874V60H-9.6001V28.1625ZM16.8499 22.2125L11.5999 18.5375L6.3874 22.2375L8.3249 16.2375L3.1249 12.5L9.5749 12.45L11.5749 6.44995L13.6124 12.4375H20.0624L14.8749 16.1875L16.8624 22.1875L16.8499 22.2125Z" fill="#0000AB"/>
<path fill-rule="evenodd" clip-rule="evenodd" d="M54.6125 51.7374L49.3125 48.2749L44.05 51.7749L46 46.0749L40.75 42.5749L47.25 42.5124L49.275 36.8374L51.325 42.4999H57.825L52.6 46.0624L54.6 51.7374H54.6125Z" fill="#D80000"/>
</g>
</g>
</g>
</g>
</g>
<defs>
<clipPath id="clip0_14015_14950">
<rect width="60" height="60" fill="white"/>
</clipPath>
<clipPath id="clip1_14015_14950">
<rect width="80" height="60" fill="white" transform="translate(-10)"/>
</clipPath>
<clipPath id="clip2_14015_14950">
<rect width="80" height="60" fill="white" transform="translate(-10)"/>
</clipPath>
</defs>
</svg>
