<svg width="60" height="60" viewBox="0 0 60 60" fill="none" xmlns="http://www.w3.org/2000/svg">
<mask id="mask0_13628_11157" style="mask-type:luminance" maskUnits="userSpaceOnUse" x="0" y="0" width="60" height="60">
<path d="M30 60C46.5685 60 60 46.5685 60 30C60 13.4315 46.5685 0 30 0C13.4315 0 0 13.4315 0 30C0 46.5685 13.4315 60 30 60Z" fill="white"/>
</mask>
<g mask="url(#mask0_13628_11157)">
<mask id="mask1_13628_11157" style="mask-type:luminance" maskUnits="userSpaceOnUse" x="-11" y="0" width="81" height="60">
<path d="M69.9302 0H-10.0698V60H69.9302V0Z" fill="white"/>
</mask>
<g mask="url(#mask1_13628_11157)">
<path fill-rule="evenodd" clip-rule="evenodd" d="M-9.87 0L-9.92993 60H70.0701L-9.87 0Z" fill="black"/>
<path fill-rule="evenodd" clip-rule="evenodd" d="M70 60L70.0601 0H-9.93994L70 60Z" fill="#FF0000"/>
<path d="M39.4601 14.93L38.41 14.87C38.08 14.1 37.1601 13.82 36.5801 14.15C35.5101 14.15 34.4301 14.13 33.3601 14.09L35.3301 14.95C35.8601 16.3 37.52 16.58 37.52 16.58C37.35 19.01 35.0501 16.28 33.1101 17.66C31.7201 18.49 31.7201 19.46 30.9701 21.06C30.7201 21.5 29.75 22.66 29.75 22.66L31.39 22.52L30.8601 23.21L32.8 22.93L32.38 23.32C32.66 23.38 34.6001 22.85 34.6001 22.85L34.4601 23.49L36.6801 22.69C36.6801 22.69 37.12 23.05 37.51 23.22L37.79 22.11L38.9 22.39L39.1801 21.28C40.8401 23.49 41.4001 25.7 44.4501 26.26L44.17 25.15C44.98 25.5 45.7901 25.87 46.5801 26.26L46.8301 25.79C48.1601 26.73 49.2401 26.7 49.9901 26.81L49.4301 25.43L49.9901 25.71L49.16 23.5L49.9901 23.78L48.88 22.12L49.3 21.84L49.16 21.01C50.82 21.56 53.0401 22.39 53.3201 24.33C53.6001 27.37 50.27 28.2 48.05 27.92C49.71 29.3 52.77 28.75 54.15 27.37C54.71 26.82 54.98 25.99 55.26 25.16C55.54 25.99 56.0901 27.1 56.0901 28.2C55.8101 30.69 52.48 31.52 50.26 31.79C52.76 33.17 57.2001 31.51 57.4701 27.92C57.4701 24.88 55.5301 23.5 54.7001 22.11L54.42 20.62L55.25 21.01C55.25 21.01 54.7501 20.1 54.7001 19.9C54.7001 19.9 53.84 17.55 53.53 17.02L54.14 17.13L51.8601 14.28L52.5 14.22C52.5 14.22 49.86 12.15 49.14 11.87L49.9701 11.59C48.3101 10.76 46.3601 11.31 44.7001 12.42L44.9801 11.59L44.4801 11.65V10.68L44.9801 9.92999L44.15 9.64999L44.7101 8.26999L43.88 8.55L44.16 7.16999C44.16 7.16999 43.55 7.44999 43.16 7.41999C43.32 7.10999 43.4701 6.8 43.6001 6.48C43.3201 6.07 43.6001 5.23999 43.6001 5.23999C41.6601 5.51999 41.38 5.78999 40.27 7.44999C38.61 10.49 39.1601 11.87 39.4401 14.92L39.4601 14.93Z" fill="#FFCC00" stroke="#FFCC00" stroke-width="0.3"/>
<path fill-rule="evenodd" clip-rule="evenodd" d="M49.9502 19.47C50.0902 19.72 51.6702 20.47 52.8402 21.13C52.5302 19.86 50.2302 19.58 49.9502 19.47Z" fill="#FF0000" stroke="#FF0000" stroke-width="0.39"/>
<path fill-rule="evenodd" clip-rule="evenodd" d="M11.8099 49.8801L10.0399 48.7601L7.65991 49.9001L8.19995 47.8701L6.38989 45.9801L8.47998 45.8601L9.72998 43.5601L10.49 45.5001L13.08 45.9801L11.46 47.3001L11.8199 49.8901L11.8099 49.8801ZM16.34 40.0001L15.5099 39.6201L14.72 40.0701L14.84 39.1701L14.1699 38.5601L15.0599 38.4001L15.4399 37.5701L15.8799 38.3701L16.7799 38.4701L16.1599 39.1201L16.35 40.0001H16.34ZM20.34 34.3501L18.5299 33.4701L16.7899 34.4501L17.08 32.4901L15.6 31.1401L17.5599 30.7901L18.3899 28.9901L19.34 30.7401L21.3099 30.9701L19.9299 32.4101L20.33 34.3601L20.34 34.3501ZM12.11 26.4801L9.98999 25.4201L7.92993 26.5601L8.27991 24.2401L6.54993 22.6201L8.88989 22.2401L9.88989 20.1201L10.98 22.2101L13.33 22.5001L11.6699 24.1701L12.1199 26.5001L12.11 26.4801ZM4.50989 34.6601L2.38989 33.4101L0.269897 34.7001L0.809937 32.2901L-1.08008 30.6601L1.37988 30.4301L2.33997 28.1401L3.32996 30.4101L5.80994 30.6101L3.94995 32.2301L4.5199 34.6401L4.50989 34.6601Z" fill="white"/>
</g>
</g>
</svg>
