<svg width="60" height="60" viewBox="0 0 60 60" fill="none" xmlns="http://www.w3.org/2000/svg">
<mask id="mask0_13628_11158" style="mask-type:luminance" maskUnits="userSpaceOnUse" x="0" y="0" width="60" height="60">
<path d="M30 60C46.5685 60 60 46.5685 60 30C60 13.4315 46.5685 0 30 0C13.4315 0 0 13.4315 0 30C0 46.5685 13.4315 60 30 60Z" fill="white"/>
</mask>
<g mask="url(#mask0_13628_11158)">
<mask id="mask1_13628_11158" style="mask-type:luminance" maskUnits="userSpaceOnUse" x="-10" y="0" width="80" height="60">
<path d="M70 0H-10V60H70V0Z" fill="white"/>
</mask>
<g mask="url(#mask1_13628_11158)">
<path d="M-10 0H70V60H-10V0Z" fill="#8D1B3D"/>
<path d="M-10 -2.28882e-05V60H9.80005L22.03 56.66L9.80005 53.34L22.01 50L9.80005 46.66L22.01 43.34L9.80005 40L22.03 36.66L9.80005 33.34L22.01 30L9.80005 26.66L22.01 23.33L9.80005 19.99L22.03 16.65L9.80005 13.32L22.01 9.97998L9.80005 6.63998L22.03 3.31998L9.79004 -0.0200195H-10V-2.28882e-05Z" fill="white"/>
</g>
</g>
</svg>
