<svg width="60" height="60" viewBox="0 0 60 60" fill="none" xmlns="http://www.w3.org/2000/svg">
<g clip-path="url(#clip0_14015_14831)">
<mask id="mask0_14015_14831" style="mask-type:alpha" maskUnits="userSpaceOnUse" x="0" y="0" width="60" height="60">
<circle cx="30" cy="30" r="30" fill="#D9D9D9"/>
</mask>
<g mask="url(#mask0_14015_14831)">
<g clip-path="url(#clip1_14015_14831)">
<mask id="mask1_14015_14831" style="mask-type:luminance" maskUnits="userSpaceOnUse" x="-10" y="0" width="80" height="60">
<path d="M-9.99609 0H69.9961V60H-9.99609V0Z" fill="white"/>
</mask>
<g mask="url(#mask1_14015_14831)">
<path fill-rule="evenodd" clip-rule="evenodd" d="M-15 0H75V60H-15V0Z" fill="#165D31"/>
<path fill-rule="evenodd" clip-rule="evenodd" d="M7.67562 17.004C7.58187 18.4103 7.44124 20.8712 8.64827 21.129C10.0897 21.2696 9.2928 18.6915 9.82015 18.2228C9.9139 17.9884 10.0897 17.9884 10.1014 18.2813V20.4728C10.1014 21.1759 10.5701 21.3868 10.9217 21.5274C11.2967 21.504 11.5545 21.5274 11.6951 21.879L11.8826 25.6642C11.8826 25.6642 12.7498 25.922 12.7967 23.5431C12.8319 22.1368 12.5155 20.9767 12.703 20.7071C12.703 20.4376 13.0545 20.4259 13.2889 20.5548C13.6639 20.8126 13.828 21.1407 14.4139 21.0235C15.3045 20.7657 15.8436 20.3321 15.8553 19.6524C15.8377 18.9845 15.6987 18.3253 15.4451 17.7071C15.492 17.5899 15.2811 17.2735 15.328 17.1563C15.4803 17.4142 15.7264 17.3907 15.7733 17.1563C15.6209 16.6642 15.3866 16.1837 15.0116 15.9845C14.6951 15.7032 14.2264 15.7501 14.0741 16.336C13.9803 17.004 14.3084 17.7892 14.7889 18.4454C14.8944 18.6915 15.035 19.1134 14.9764 19.4884C14.7186 19.6407 14.4608 19.5704 14.2381 19.3478C14.2381 19.3478 13.535 18.8204 13.535 18.6915C13.7225 17.4962 13.5701 17.3556 13.4647 17.0157C13.3944 16.5587 13.1717 16.4063 12.9959 16.1017C12.8201 15.9142 12.5858 15.9142 12.4686 16.1017C12.1522 16.6407 12.3045 17.8009 12.5272 18.3282C12.6912 18.8087 12.9373 19.1134 12.8201 19.1134C12.7264 19.3829 12.5272 19.3126 12.3748 18.9962C12.2033 18.3303 12.1206 17.6447 12.1287 16.9571C12.0701 16.4181 11.9998 15.2696 11.6366 14.9649C11.4256 14.6837 11.1092 14.8243 10.992 15.0821C10.9611 15.6057 10.9728 16.1308 11.0272 16.6524C11.2616 17.5196 11.3436 18.2931 11.4608 19.172C11.4959 20.3556 10.7811 19.6876 10.8162 19.0899C10.97 18.3386 10.958 17.5627 10.7811 16.8165C10.6639 16.5118 10.535 16.4415 10.242 16.4884C10.0194 16.4884 9.44515 17.1095 9.28109 18.1642C9.28109 18.1642 9.14046 18.7032 9.08187 19.1837C8.99984 19.7228 8.64827 20.1212 8.39046 19.1134C8.17952 18.3751 8.0389 16.5821 7.68734 17.004H7.67562Z" fill="white"/>
<path fill-rule="evenodd" clip-rule="evenodd" d="M11.6016 22.7578L7.85156 24.5625C7.88672 23.707 9.62109 22.1719 10.8164 22.1602C11.5781 22.1719 11.3906 22.4531 11.5898 22.7578H11.6016Z" fill="white"/>
<path fill-rule="evenodd" clip-rule="evenodd" d="M10.9338 23.9296C8.96501 29.0272 15.5627 29.7421 16.301 24.1405C16.3713 23.9061 16.6525 23.6835 16.6994 24.0585C16.547 29.1327 11.59 29.4725 10.7463 27.8788C10.5478 27.3304 10.4486 26.751 10.4533 26.1679C10.3361 25.1718 9.80876 25.5585 9.72673 26.5429C9.6447 27.0936 9.66814 27.246 9.66814 27.7733C9.92595 31.7811 16.3127 30.0585 17.3556 26.7538C17.9064 24.9257 17.2619 23.578 17.5549 23.578C18.1877 24.2577 19.0783 23.6718 19.2775 23.4374C19.3595 23.3202 19.5705 23.2382 19.7111 23.3905C20.2033 23.7421 21.0705 23.578 21.258 22.9569C21.3635 22.3358 21.4455 21.703 21.4689 21.0585C21.0588 21.1757 20.7658 21.2577 20.7306 21.4335L20.6486 21.9725C20.6135 22.1483 20.2736 22.1483 20.2502 21.9257C20.0978 21.2225 19.465 21.1405 19.0783 22.2186C18.8322 22.4296 18.3635 22.4764 18.3166 22.16C18.3752 21.4335 18.0822 21.3397 17.4963 21.6796L16.9338 17.4374C17.1681 17.4374 17.4025 17.6132 17.6252 17.3319C17.3908 16.5702 16.8635 15.0233 16.5705 14.9061C16.4416 14.7421 16.3244 14.8475 16.1369 14.8944C15.8322 14.9882 15.551 15.246 15.6447 15.7616C15.9963 17.9647 16.2306 19.6405 16.5939 21.8554C16.6525 22.1014 16.4416 22.4413 16.1603 22.4061C15.6916 22.0897 15.5744 21.4452 14.7541 21.4686C14.1681 21.4686 13.5119 22.1132 13.4299 22.7225C13.3244 23.2147 13.2892 23.7421 13.4299 24.1639C13.84 24.6561 14.3322 24.6093 14.7658 24.5038C15.1174 24.3514 15.4103 23.9999 15.5392 24.0819C15.6213 24.1874 15.551 25.3593 13.8635 26.2499C12.8439 26.7186 12.0236 26.8124 11.59 25.9804C11.3205 25.453 11.6135 23.4725 10.9338 23.9296Z" fill="white"/>
<path fill-rule="evenodd" clip-rule="evenodd" d="M19.3357 18.7501C19.7224 18.6095 21.5974 16.4532 21.5974 16.4532L21.3162 16.2188C21.2107 16.1368 21.2224 16.0431 21.3162 15.961C21.7849 15.6798 21.6326 15.0938 21.3982 14.8126C21.2391 14.735 21.0641 14.6957 20.8871 14.6977C20.7101 14.6998 20.536 14.7431 20.3787 14.8243C20.0506 15.1407 19.9802 15.6446 20.2381 15.9493C20.4841 16.0665 20.7302 16.3243 20.5662 16.4649C19.7927 17.2853 17.6951 18.7032 17.9412 18.7501C17.9881 18.8204 19.2888 18.8204 19.324 18.7501H19.3357ZM7.96852 26.3673C7.2654 27.4923 7.2068 29.1681 7.59352 29.672C7.80446 29.9063 8.1443 30.0118 8.3904 29.9298C8.83571 29.7423 9.03493 28.8399 8.92946 28.5235C8.77712 28.2892 8.65993 28.254 8.50758 28.4415C8.2029 29.0743 8.07399 28.6407 8.03883 28.2892C8.00525 27.6938 8.03668 27.0965 8.13258 26.5079C8.21462 26.0157 8.13258 26.1563 7.96852 26.3673ZM38.0974 24.5743C37.4177 23.0978 36.4685 21.6446 36.1756 21.0938C35.2623 19.6501 34.2928 18.2428 33.2693 16.8751C32.5427 16.0079 34.4646 17.2384 33.0349 15.504L31.992 14.6251C31.7576 14.461 31.1951 14.1563 31.1013 14.6485C31.0545 15.0938 31.0779 15.3282 31.1482 15.6915C31.2068 15.9259 31.5584 16.336 31.7341 16.5704C34.1366 19.7526 36.2468 23.1453 38.0388 26.7071C38.3435 26.5548 38.2732 24.8204 38.0974 24.5743Z" fill="white"/>
<path fill-rule="evenodd" clip-rule="evenodd" d="M35.1096 29.4725C34.969 29.6249 35.4377 30.2694 36.0471 30.2694C37.0549 30.1522 37.9455 29.5897 38.7658 28.0897C39.0992 27.5907 39.3118 27.021 39.3869 26.4257C39.4862 23.5808 39.2581 20.734 38.7072 17.9413C38.6721 17.7069 38.7072 17.4257 38.7307 17.3554C38.801 17.2733 39.0236 17.3554 39.1408 17.1561C39.3166 16.9804 38.6721 15.5155 38.3205 14.9647C38.2033 14.7069 38.1447 14.5429 37.9338 14.9882C37.6793 15.4795 37.558 16.0291 37.5822 16.5819C38.0627 19.9218 38.2151 22.8397 38.5197 26.1796C38.5549 26.5077 38.508 26.9765 38.2854 27.164C37.4011 28.1485 36.3189 28.9352 35.1096 29.4725ZM48.7619 29.4608C48.0354 29.8827 48.0354 30.3632 48.6213 30.3749C49.6291 30.2577 50.8244 30.1757 51.6447 28.9335C51.9345 28.3484 52.102 27.7104 52.1369 27.0585C52.2845 24.2575 52.0996 21.4488 51.5861 18.6913C51.5627 18.4569 51.4572 17.9061 51.4924 17.8358C51.5627 17.6718 51.8908 17.8475 52.008 17.66C52.1721 17.4843 51.1526 16.1718 50.7893 15.6093C50.6721 15.3515 50.6252 15.1874 50.4026 15.6327C50.1665 16.1286 50.0927 16.6862 50.1916 17.2265C50.7307 20.8593 51.1291 23.578 51.2111 26.789C51.1643 27.0936 51.1526 27.2577 51.0119 27.6444C50.6955 28.0429 50.344 28.5585 50.0158 28.8046C49.6877 29.039 48.9846 29.2733 48.7619 29.4608Z" fill="white"/>
<path fill-rule="evenodd" clip-rule="evenodd" d="M49.3009 26.2149C49.3009 25.3594 49.3126 24.6328 49.2892 23.9883C49.2816 23.4424 49.1619 22.904 48.9376 22.4063C48.7267 21.9258 48.8556 21.5391 48.7501 21.0235C48.6564 20.5078 48.6798 19.7344 48.5392 19.1367C48.4923 18.9024 48.3751 18.1406 48.4103 18.0586C48.4689 17.8945 48.6915 18.0586 48.8087 17.8711C48.9728 17.6953 48.2228 15.7617 47.8478 15.211C47.7189 14.9649 47.4611 15.0469 47.1681 15.4453C46.8751 15.7149 46.9806 16.3125 47.0978 16.8867C47.8126 20.6719 48.3634 24.1055 48.2462 27.7031C48.1993 28.0078 49.3009 26.7891 49.3009 26.2149ZM43.9454 21.5274C43.4884 21.5039 42.5392 20.625 42.2579 20.1211C42.2119 19.998 42.1923 19.8665 42.2004 19.7353C42.2084 19.604 42.244 19.476 42.3048 19.3594C42.4806 19.2422 42.7384 19.125 42.9376 19.2422C42.9376 19.2422 43.1368 19.5235 43.1017 19.5586C43.3361 19.6758 43.4532 19.6172 43.4767 19.5117C43.4884 19.336 43.4064 19.2305 43.4064 19.043C43.5118 18.5039 44.1095 18.4219 44.3439 18.7617C44.5079 18.9727 44.5782 19.4063 44.59 19.6992C44.59 19.8516 44.3556 19.6758 44.2032 19.6992C44.0743 19.7461 44.0392 19.9102 44.0275 20.0508C44.004 20.4375 43.9571 21.0586 43.9454 21.5156V21.5274ZM35.5314 27.1524C35.6486 26.0039 35.4845 23.9531 35.4728 23.2735C35.4101 21.5254 35.2654 19.7813 35.0392 18.0469C34.8986 17.0625 35.4376 18.1524 35.3673 17.5781C35.1915 16.6055 34.6525 15.9375 34.0079 15.0586C33.8087 14.7656 33.8087 14.707 33.4923 15.1289C33.1407 15.9141 33.4454 16.4649 33.5392 17.086C33.9962 19.1016 34.2657 20.9531 34.3946 22.793C34.5296 24.7042 34.5452 26.622 34.4415 28.5352C34.7931 28.5469 35.3321 27.9844 35.5314 27.1524Z" fill="white"/>
<path fill-rule="evenodd" clip-rule="evenodd" d="M50.8592 25.3125C50.0506 23.9531 48.8435 22.5 48.5154 21.9492C47.4288 20.4317 46.2874 18.9542 45.0935 17.5195C44.0974 16.4648 45.5623 17.3437 44.906 16.5234C44.3553 15.9257 44.2029 15.7265 43.7224 15.3632C43.4881 15.2109 43.3474 14.9179 43.2537 15.4218C43.2163 15.8583 43.2085 16.2968 43.2303 16.7343C43.2303 16.9336 43.4412 17.3203 43.6287 17.5546C46.0545 20.5429 48.7146 23.5898 50.8474 27.4218C51.1521 27.2695 51.0467 25.5468 50.8474 25.3125H50.8592Z" fill="white"/>
<path fill-rule="evenodd" clip-rule="evenodd" d="M14.367 22.8163C14.3084 22.9218 14.1795 23.0507 14.2264 23.1796C14.3084 23.2968 14.3904 23.332 14.5311 23.332C14.66 23.332 14.8475 23.3671 14.8826 23.2968C14.9529 23.2148 14.9998 23.0624 14.9529 22.9101C14.8123 22.5585 14.4373 22.6992 14.367 22.8163Z" fill="#165D31"/>
<path fill-rule="evenodd" clip-rule="evenodd" d="M41.5078 42.4804C42.5859 42.5273 43.2891 42.539 44.2383 42.6445L45.3633 42.5273C46.6055 42.4101 46.6523 44.2968 46.6523 44.2968C46.6523 45.4101 46.2188 45.4687 45.668 45.5859C45.3516 45.6327 45.1992 45.3984 45.0234 45.164C44.7584 45.2489 44.4761 45.2651 44.2031 45.2109C43.7461 45.1874 43.3008 45.1874 42.8555 45.1523C42.3867 45.1171 42.1289 45.2109 41.6484 45.164C41.5547 45.3163 41.4141 45.5273 41.1328 45.4687C40.8984 45.4335 40.6055 44.7656 40.6875 44.2382C40.8633 43.8632 40.8047 43.9921 40.8047 43.8281C36.3984 43.7109 31.957 43.5116 27.6445 43.5702C24.2695 43.582 20.9414 43.7226 17.6016 43.8632C15.8203 43.8398 14.4609 43.5585 13.5234 42.1874C13.6172 42.1874 18.0703 42.4335 19.3711 42.3515C21.7734 42.3281 23.9766 42.1288 26.4258 42.0585C31.2539 42.1406 36.0469 42.1406 40.875 42.4804C40.4062 42.164 40.4062 41.4257 41.1094 41.2382C41.168 41.1913 41.2031 41.6015 41.3086 41.5898C41.8828 41.5546 41.625 42.3281 41.5078 42.4804ZM22.1016 15.8554C21.375 17.9413 22.5234 20.2382 23.3203 20.0156C23.9062 20.2499 24.2578 19.1484 24.4922 17.9531C24.668 17.6132 24.7852 17.5781 24.8672 17.7538C24.8437 19.3476 24.9844 19.7109 25.3945 20.1913C26.3086 20.8945 27.0703 20.2851 27.1289 20.2265L27.832 19.5116C27.9961 19.3359 28.207 19.3359 28.4297 19.4765C28.6523 19.6757 28.6172 20.0156 29.0859 20.2499C29.4844 20.414 30.3164 20.2968 30.5156 19.957C30.7734 19.4999 30.8438 19.3476 30.9609 19.1835C31.1484 18.9374 31.4648 19.0429 31.4648 19.1249C31.4297 19.2656 31.2422 19.3945 31.3711 19.6523C31.6055 19.8163 31.6523 19.7109 31.7813 19.6757C32.25 19.4413 32.6016 18.4335 32.6016 18.4335C32.6133 18.0585 32.4023 18.082 32.2617 18.1757L31.8984 18.4218C31.6641 18.457 31.2305 18.6093 31.0078 18.2695C30.7852 17.871 30.7852 17.2968 30.6211 16.8866C30.6211 16.8632 30.3164 16.2421 30.5977 16.207C30.7383 16.2304 31.0313 16.3124 31.0781 16.0663C31.2188 15.8202 30.7734 15.1288 30.457 14.7773C30.1875 14.4843 29.8125 14.4491 29.4492 14.7538C29.1914 14.9882 29.2266 15.246 29.1797 15.4921C29.1352 15.6685 29.1333 15.8529 29.174 16.0301C29.2148 16.2074 29.2971 16.3724 29.4141 16.5116C29.6719 17.0038 30.1289 17.6484 29.9766 18.5624C29.9766 18.5624 29.707 18.9843 29.2383 18.9257C29.0391 18.8906 28.7227 18.8085 28.5586 17.5429C28.4297 16.6054 28.582 15.2695 28.1836 14.6484C28.0312 14.2616 27.9258 13.8984 27.5742 14.5429C27.4805 14.8007 27.0703 15.1874 27.3633 15.9726C27.6405 16.6801 27.7215 17.4494 27.5977 18.1991C27.4219 18.457 27.3867 18.539 27.1641 18.7851C26.8594 19.1366 26.5195 19.0429 26.2617 18.914C26.0273 18.7616 25.8398 18.6796 25.7227 18.1523C25.7461 17.332 25.793 15.9843 25.6406 15.7031C25.418 15.2577 25.0547 15.4218 24.9023 15.5624C24.2052 16.3369 23.7385 17.2907 23.5547 18.3163C23.3437 18.996 23.1211 18.7968 22.9687 18.5273C22.5937 18.1757 22.5586 15.3984 22.1016 15.8554Z" fill="white"/>
<path fill-rule="evenodd" clip-rule="evenodd" d="M24.3048 20.4024C24.6447 20.168 24.4923 20.0039 24.9845 20.4961C25.6198 21.6202 25.9886 22.8751 26.0626 24.1641C26.0392 24.4688 26.2501 24.6563 26.3556 24.586C26.4025 23.8828 28.1251 22.8985 29.7072 22.7578C29.9415 22.6993 29.8244 22.2422 29.8595 22.0078C29.7658 21.1289 30.3517 20.3321 31.172 20.2735C32.297 20.4375 32.672 21.0352 32.6954 21.9375C32.5665 23.6953 30.7384 23.9883 29.7189 24.1289C29.5665 24.1875 29.4962 24.2578 29.7189 24.3399L34.0079 24.3633L34.2306 24.4805C34.254 24.5977 34.1603 24.5039 33.9962 24.7852C33.7603 25.1997 33.6127 25.6585 33.5626 26.1328C32.2853 26.5547 30.9611 26.7188 29.6251 26.8946C29.1564 27.1289 28.922 27.4453 29.0158 27.7969C29.1798 28.1836 30.2111 28.5821 30.2111 28.5938C30.4103 28.711 30.6329 29.0039 30.1525 29.6016C28.0665 29.5078 26.4376 28.6172 25.8751 27.3633C25.7111 27.2344 25.5236 27.3633 25.4064 27.5274C24.5861 28.5821 23.7892 29.5196 22.3947 30.0352C21.5744 30.2461 20.7189 29.9063 20.3204 29.3672C20.0509 29.0508 20.0626 28.711 19.9689 28.6407C19.5119 28.8399 15.6447 30.4805 16.1369 29.7071C17.0744 28.711 18.715 27.961 20.1447 26.9766C20.2501 26.6368 20.4376 25.5118 21.0001 25.1485C21.0353 25.1485 20.9181 25.8047 20.9298 26.086C20.9298 26.3203 20.9064 26.4024 20.9533 26.3438C21.0587 26.2852 22.7931 24.9141 22.9454 24.4922C23.1095 24.2578 22.9806 23.6485 22.9806 23.625C22.6525 22.7813 22.1954 22.711 22.0314 22.2891C21.879 21.7383 21.9494 21.1055 22.2658 20.918C22.547 20.6719 22.8751 20.6953 23.1915 20.9766C23.5431 21.293 23.8478 21.9141 23.9415 22.3711C23.8829 22.5469 23.4728 22.2539 23.3556 22.336C23.5812 22.5952 23.7311 22.9114 23.7892 23.25C24.0236 24.211 23.9533 24.586 23.7189 25.2071C22.9454 26.836 21.9611 27.3164 21.0939 27.9258C21.0704 27.9258 21.0587 28.336 21.3751 28.5586C21.4923 28.6758 21.9494 28.7344 22.4767 28.5586C23.6033 27.933 24.5143 26.9811 25.09 25.8282C25.1896 24.9508 25.0935 24.0624 24.8087 23.2266C24.4689 22.4414 24.0704 21.3282 24.0704 21.3047C24.0587 20.8125 24.0939 20.6485 24.3048 20.4024ZM13.0783 15.8789C13.5704 16.1133 14.5079 16.0078 14.4611 15.211L14.4376 14.8477C14.3439 14.6133 14.0626 14.6719 14.004 14.9063C13.9806 14.9883 14.0392 15.1172 13.9689 15.1524C13.922 15.1993 13.7697 15.1758 13.7697 14.9532C13.7697 14.8828 13.7228 14.8125 13.6876 14.7657C13.6642 14.7422 13.6408 14.7422 13.5822 14.7422C13.5119 14.7422 13.5119 14.7539 13.4767 14.8125C13.465 14.8711 13.4415 14.9297 13.4415 15C13.4415 15.0821 13.3947 15.1055 13.3478 15.1172C13.2775 15.1172 13.2892 15.1172 13.2306 15.0938C13.2072 15.0586 13.172 15.0469 13.172 14.9766L13.1369 14.7891C13.1134 14.7539 13.0665 14.7305 13.0197 14.7188C12.7501 14.7188 12.7267 15.0352 12.7501 15.1524C12.7267 15.1758 12.715 15.7266 13.0783 15.8789Z" fill="white"/>
<path fill-rule="evenodd" clip-rule="evenodd" d="M27.551 21.996C28.0431 22.2304 29.2267 22.1015 28.9338 21.3397L28.9103 20.9647C28.8049 20.7304 28.5353 20.789 28.4767 21.0351C28.4533 21.1054 28.5119 21.2343 28.4299 21.2694C28.3947 21.3163 28.2306 21.2929 28.2424 21.0819C28.2424 21.0116 28.1955 20.9296 28.1603 20.8827C28.1252 20.871 28.1135 20.8593 28.0431 20.8593C27.9845 20.8593 27.9845 20.8827 27.9494 20.9413C27.926 20.9999 27.9142 21.0585 27.9142 21.1288C27.9025 21.1991 27.8674 21.2226 27.8088 21.246C27.7502 21.246 27.7619 21.246 27.715 21.2108C27.6799 21.1757 27.6447 21.164 27.6447 21.1054L27.6095 20.9179C27.5861 20.8827 27.5392 20.8593 27.4924 20.8476C27.2228 20.8476 27.1994 21.1522 27.2111 21.2694C27.1994 21.2929 27.1877 21.8554 27.5627 21.996H27.551ZM35.9885 19.4647C36.4806 19.6991 37.4064 19.5936 37.3713 18.8085L37.3478 18.4335C37.2424 18.1991 36.9728 18.2577 36.9142 18.4921C36.8908 18.5741 36.9494 18.703 36.8674 18.7499C36.8322 18.7851 36.6681 18.7616 36.6799 18.539C36.6799 18.4686 36.633 18.3983 36.5978 18.3515C36.5627 18.328 36.551 18.328 36.4806 18.328C36.422 18.328 36.422 18.3515 36.3869 18.4101L36.3517 18.5858C36.34 18.6679 36.3049 18.703 36.2463 18.703C36.1877 18.703 36.1994 18.703 36.1525 18.6796C36.1174 18.6444 36.0822 18.6327 36.0822 18.5741C36.0822 18.5155 36.0705 18.4218 36.047 18.3749C36.0236 18.3397 35.9767 18.328 35.9299 18.3163C35.6603 18.3163 35.6369 18.621 35.6486 18.7382C35.6369 18.7616 35.6252 19.3124 36.0002 19.4647H35.9885ZM40.3595 25.828C39.5041 26.8007 39.8791 28.4061 40.0783 28.7577C40.3595 29.3202 40.5822 29.6835 41.133 29.9647C41.6369 30.328 42.0353 30.1054 42.2463 29.8476C42.7502 29.3202 42.7619 27.9726 42.9963 27.7147C43.1603 27.2226 43.5822 27.3046 43.7814 27.5272C43.9678 27.7918 44.2176 28.0054 44.508 28.1483C44.9767 28.5585 45.5392 28.6405 46.1017 28.2655C46.4767 28.0429 46.7228 27.7733 46.9455 27.2226C47.1799 26.5663 47.0627 23.5194 47.0041 21.7147L46.5119 19.1952C46.5119 19.1718 46.4533 17.9999 46.3947 17.7304C46.3947 17.6132 46.3596 17.578 46.4767 17.5897C46.6056 17.7069 46.6174 17.7069 46.7111 17.7421C46.8283 17.7655 46.9455 17.5429 46.8635 17.3554L45.6916 15.1757C45.5978 15.0819 45.4689 14.9882 45.3166 15.1991C45.2267 15.2805 45.1552 15.38 45.1067 15.4911C45.0582 15.6023 45.0339 15.7224 45.0353 15.8436C45.0705 16.3593 45.1525 16.8866 45.1877 17.4022L45.6564 20.0507C45.8088 21.9257 45.8439 23.4726 45.9963 25.3593C45.9728 26.1561 45.7267 26.8476 45.4924 26.953C45.4924 26.953 45.1408 27.1522 44.9064 26.9296C44.7306 26.8593 44.0392 25.7694 44.0392 25.7694C43.6877 25.453 43.4533 25.5351 43.2072 25.7694C42.5041 26.4491 42.1994 27.6913 41.7189 28.5585C41.6017 28.7577 41.2502 28.9101 40.8752 28.5468C39.9142 27.2226 40.4767 25.3476 40.3595 25.828ZM36.2111 14.8476C36.6564 15.0233 36.9611 15.9257 36.8674 16.371C36.7736 16.8983 36.5392 17.4843 36.3752 17.414C36.1877 17.3437 36.4924 16.8749 36.3166 16.3827C36.2228 16.0546 35.6135 15.4687 35.6838 15.3046C35.5666 14.9413 35.9416 14.7772 36.2111 14.8358V14.8476Z" fill="white"/>
<path fill-rule="evenodd" clip-rule="evenodd" d="M41.7889 26.3671C41.8709 25.289 41.7186 24.6328 41.6951 24C41.6717 23.3671 40.9803 18.539 40.8397 18.0703C40.6639 17.1562 41.5076 17.9531 41.4139 17.414C41.1209 16.7578 40.4061 15.7851 40.1834 15.2109C40.0428 14.9765 40.1014 14.7421 39.7967 15.1523C39.5343 15.8714 39.4421 16.6415 39.5272 17.4023C40.2537 21.1875 40.992 24.3281 40.8748 27.9257C41.2264 27.9257 41.6131 27.1406 41.7889 26.3671ZM49.3358 16.371C49.7459 16.5703 49.9803 17.6953 49.9334 18.0117C49.8514 18.5976 49.6404 19.2304 49.4881 19.1484C49.3123 19.0781 49.5233 18.2812 49.4412 18.0351C49.3475 17.6835 48.7967 17.0507 48.8553 16.8632C48.7381 16.4648 49.0897 16.3007 49.3358 16.371ZM19.3709 24.3281C19.7576 24.4804 19.992 25.3007 19.9568 25.5351C19.8631 25.9687 19.6639 26.4375 19.5115 26.3671C19.3592 26.3203 19.5467 25.7343 19.4764 25.5468C19.4412 25.1132 18.9022 24.8789 18.9139 24.6914C18.8201 24.3398 19.1483 24.2812 19.3826 24.3281H19.3709Z" fill="white"/>
<path fill-rule="evenodd" clip-rule="evenodd" d="M28.6992 25.5703C29.1914 25.5938 29.4375 25.9922 28.9805 26.1563C28.5117 26.3086 28.0781 26.4375 28.0664 27.0938C28.2422 28.0313 27.832 27.7031 27.5977 27.5859C27.3164 27.375 26.5195 26.8828 26.4023 25.8281C26.3906 25.582 26.5898 25.3594 26.9063 25.3594C27.375 25.4883 28.0781 25.5 28.6992 25.5703Z" fill="#165D31"/>
<path fill-rule="evenodd" clip-rule="evenodd" d="M9.07009 14.5782C9.63259 14.7423 9.66774 15.586 9.63259 15.8321C9.55055 16.2774 9.35134 16.7579 9.21071 16.6993C9.04665 16.6407 9.21071 16.0313 9.12868 15.8438C9.04665 15.586 8.56618 15.0938 8.61305 14.9532C8.50759 14.6602 8.84743 14.5196 9.07009 14.5782ZM20.3084 18.5157C19.8631 18.7501 19.699 19.4532 19.9685 19.8751C20.2263 20.2266 20.6248 20.0977 20.6716 20.0977C21.1052 20.1446 21.3631 19.2891 21.3631 19.2891C21.3631 19.2891 21.3748 19.0548 20.8709 19.5118C20.6482 19.547 20.6365 19.4649 20.5779 19.3477C20.5242 19.1246 20.5448 18.8901 20.6365 18.6798C20.7185 18.4688 20.5545 18.3751 20.3084 18.5157ZM23.5896 14.2501C23.3552 14.4024 22.9216 14.8595 22.9099 15.3751C22.8982 15.6681 22.8396 15.6681 23.0271 15.8438C23.1795 16.0548 23.3084 16.0431 23.5896 15.8907C23.6597 15.8466 23.7198 15.7884 23.7662 15.7198C23.8126 15.6512 23.8443 15.5737 23.8591 15.4923C23.9295 15.1641 23.5076 15.6563 23.4607 15.2813C23.367 14.9298 23.6365 14.7891 23.8943 14.461C23.8943 14.2266 23.8943 14.0743 23.5779 14.2501H23.5896ZM26.2146 14.7188C26.1113 15.1456 26.0485 15.5811 26.0271 16.0196C25.9568 16.3477 26.3787 16.4884 26.5545 16.0665C26.8357 15.3048 26.8357 14.9766 26.8591 14.6602C26.7771 14.1563 26.4373 14.1681 26.2146 14.7188ZM42.8552 23.1915C42.9021 23.1329 45.199 21.504 45.199 21.504C45.4334 21.422 45.3748 22.3477 45.2693 22.336C44.557 23.0225 43.7377 23.5885 42.8435 24.0118C42.7263 24.0938 42.6209 23.3907 42.8435 23.1915H42.8552ZM44.9295 23.1681C45.3396 23.3673 45.5037 24.5509 45.4568 24.8673C45.4568 25.5001 45.0701 25.9923 44.906 25.922C44.742 25.8399 44.9295 25.1368 44.8474 24.8907C44.7537 24.5391 44.4138 23.8946 44.4724 23.7071C44.3552 23.3087 44.6834 23.0977 44.9412 23.1681H44.9295ZM31.3357 28.254C31.5258 28.0321 31.7468 27.8387 31.992 27.6798C32.2263 27.5626 32.4373 27.7735 32.4256 27.7618C32.4607 27.9962 32.2849 28.1954 32.3435 28.5001C32.3904 28.6173 32.4256 28.7579 32.6482 28.711C33.0115 28.4181 33.3513 28.3946 33.7029 28.3829C33.9959 28.3946 34.0076 28.8751 33.8201 28.8751C33.1521 29.0157 32.8591 29.2032 32.3787 29.379C32.1443 29.5196 31.9568 29.3438 31.9568 29.3321C31.9568 29.3204 31.8279 29.2032 31.9099 28.8985C31.9334 28.6641 31.8396 28.5235 31.6287 28.547C31.4881 28.6407 31.3474 28.6876 31.2771 28.5118C31.242 28.3946 31.2302 28.3243 31.3357 28.254ZM47.3435 28.8868C47.4373 29.004 47.5076 29.1212 47.3318 29.3321L46.8982 29.7071C46.8279 29.8243 46.781 30.0352 47.0154 30.0938C47.4373 30.211 48.4216 29.5665 48.4216 29.5548C48.5857 29.4376 48.5388 29.2032 48.5154 29.2032C48.4216 29.0977 48.2107 29.1681 48.0701 29.1446C47.9998 29.1446 47.7771 29.1212 47.8826 28.9102C47.9613 28.8067 48.0245 28.6922 48.0701 28.5704C48.1287 28.4298 48.0701 28.336 47.8357 28.254C47.5896 28.2071 47.4841 28.2306 47.2146 28.254C47.074 28.2774 47.0271 28.3477 46.992 28.5235C47.0037 28.7931 47.1677 28.7813 47.3435 28.8751V28.8868Z" fill="white"/>
<path fill-rule="evenodd" clip-rule="evenodd" d="M31.4179 22.2304C31.3593 22.3476 31.1484 22.3476 30.9492 22.2304C30.7499 22.1132 30.6328 21.9257 30.7031 21.8202C30.7734 21.7148 30.9726 21.7148 31.1718 21.8202C31.371 21.9257 31.4765 22.1249 31.4179 22.2304ZM20.9882 15.9492C20.871 15.9843 20.707 15.8788 20.6367 15.7148C20.5663 15.5507 20.6015 15.4101 20.7187 15.3749C20.8359 15.3398 20.9882 15.457 21.0703 15.6093C21.1523 15.7616 21.1054 15.9257 20.9765 15.9609L20.9882 15.9492ZM41.6249 43.9452C42.7265 43.9921 43.7578 43.9452 44.8476 44.0038C45.0468 44.1796 44.9062 44.5898 44.7773 44.5663L43.8632 44.5312C43.8515 44.1796 42.9609 44.2382 42.9843 44.5429C42.5038 44.6015 42.0703 44.5312 41.5781 44.5077C41.4374 44.332 41.4609 44.0156 41.6249 43.9452Z" fill="#165D31"/>
</g>
</g>
</g>
</g>
<defs>
<clipPath id="clip0_14015_14831">
<rect width="60" height="60" fill="white"/>
</clipPath>
<clipPath id="clip1_14015_14831">
<rect width="80" height="60" fill="white" transform="translate(-10)"/>
</clipPath>
</defs>
</svg>
