<svg width="60" height="60" viewBox="0 0 60 60" fill="none" xmlns="http://www.w3.org/2000/svg">
<mask id="mask0_13628_11160" style="mask-type:luminance" maskUnits="userSpaceOnUse" x="0" y="0" width="60" height="60">
<path d="M30 60C46.5685 60 60 46.5685 60 30C60 13.4315 46.5685 0 30 0C13.4315 0 0 13.4315 0 30C0 46.5685 13.4315 60 30 60Z" fill="white"/>
</mask>
<g mask="url(#mask0_13628_11160)">
<path d="M0 0H80V60H0V0Z" fill="white"/>
<mask id="mask1_13628_11160" style="mask-type:luminance" maskUnits="userSpaceOnUse" x="0" y="0" width="80" height="60">
<path d="M80 0H0V60H80V0Z" fill="white"/>
</mask>
<g mask="url(#mask1_13628_11160)">
<path fill-rule="evenodd" clip-rule="evenodd" d="M-2.5 0H87.5V60H-2.5V0Z" fill="white"/>
<path fill-rule="evenodd" clip-rule="evenodd" d="M-2.5 0H87.5V30H-2.5V0Z" fill="#DF0000"/>
<path fill-rule="evenodd" clip-rule="evenodd" d="M18.25 5.03005C15.88 5.54005 13.76 6.85006 12.24 8.73006C10.72 10.6201 9.89998 12.9701 9.90998 15.3901C9.91998 17.8101 10.77 20.1601 12.3 22.0301C13.84 23.9001 15.97 25.1901 18.34 25.6801C16.98 26.0701 15.56 26.1901 14.15 26.0401C12.74 25.8801 11.38 25.4501 10.14 24.7601C8.90002 24.0701 7.81 23.1501 6.93 22.0401C6.05 20.9301 5.40002 19.6601 5.01002 18.3001C4.24002 15.5701 4.58003 12.6401 5.96003 10.1501C7.34003 7.67006 9.65001 5.83006 12.38 5.05006C14.38 4.47006 16.23 4.46005 18.24 5.02005H18.23L18.25 5.03005Z" fill="white"/>
<path fill-rule="evenodd" clip-rule="evenodd" d="M16.62 13.7499L17.23 15.6299L15.61 14.4799L14.01 15.6499L14.6 13.7499L13 12.5899L14.99 12.5699L15.61 10.6899L16.23 12.5699H18.21L16.62 13.7599V13.7499ZM18.81 20.2499L19.43 22.1399L17.81 20.9899L16.2 22.1499L16.8 20.2599L15.2 19.0799H17.19L17.8 17.1799L18.42 19.0599H20.42L18.81 20.2499ZM26.12 20.1999L26.73 22.0999L25.11 20.9399L23.51 22.0999L24.1 20.2099L22.5 19.0499L24.49 19.0299L25.11 17.1499L25.73 19.0299H27.71L26.12 20.2099V20.1999ZM28.29 13.7499L28.9 15.6399L27.28 14.4899L25.68 15.6499L26.28 13.7599L24.67 12.5799H26.67L27.27 10.6799L27.89 12.5599H29.89L28.29 13.7499ZM22.5 9.4599L23.12 11.3599L21.5 10.1999L19.89 11.3799L20.49 9.4799L18.89 8.2999H20.87L21.49 6.3999L22.11 8.2699H24.11L22.5 9.4599Z" fill="white"/>
</g>
</g>
</svg>
