<svg width="60" height="60" viewBox="0 0 60 60" fill="none" xmlns="http://www.w3.org/2000/svg">
<mask id="mask0_13628_11162" style="mask-type:luminance" maskUnits="userSpaceOnUse" x="0" y="0" width="60" height="60">
<path d="M30 60C46.5685 60 60 46.5685 60 30C60 13.4315 46.5685 0 30 0C13.4315 0 0 13.4315 0 30C0 46.5685 13.4315 60 30 60Z" fill="white"/>
</mask>
<g mask="url(#mask0_13628_11162)">
<mask id="mask1_13628_11162" style="mask-type:luminance" maskUnits="userSpaceOnUse" x="-10" y="0" width="80" height="60">
<path d="M70 0H-10V60H70V0Z" fill="white"/>
</mask>
<g mask="url(#mask1_13628_11162)">
<path d="M-10 0H70V60H-10V0Z" fill="#FFB700"/>
<path d="M-6.66016 30.0001L4.33984 3.34009H15.3398V56.6601H4.33984L-6.66016 30.0001Z" fill="#FF5B00"/>
<path d="M-6.66016 3.34009H4.33984V56.6601H-6.66016V3.34009Z" fill="#005641"/>
<path d="M18.6602 3.34009H67.0002V56.6601H18.6602V3.34009Z" fill="#8D2029"/>
<path d="M23.2503 51.0801C23.2503 51.0801 22.8003 51.9901 22.3003 52.3801C21.5503 52.9301 20.0503 52.8801 19.3903 53.5401C18.6303 54.3001 19.4503 55.3201 19.4503 55.4201L19.4003 55.9501C19.4003 55.9501 19.9203 55.9501 20.1503 55.9901C20.4803 56.0401 20.6002 56.3201 21.2302 56.2801C22.7702 56.1801 22.7102 54.7801 22.7902 53.5901C22.8702 53.1401 23.0403 52.5401 23.1503 52.0901C23.2403 51.7101 23.2503 51.0901 23.2503 51.0901V51.0801Z" fill="#FFB700" stroke="black" stroke-width="0.14"/>
<path d="M23.26 8.92997C23.26 8.92997 22.81 8.01996 22.31 7.62996C21.56 7.07996 20.06 7.12997 19.4 6.46997C18.64 5.70997 19.46 4.68996 19.46 4.58996L19.41 4.05996C19.41 4.05996 19.93 4.05996 20.16 4.01996C20.48 3.96996 20.61 3.68997 21.23 3.72997C22.77 3.82997 22.71 5.22997 22.79 6.41997C22.86 6.86997 23.04 7.46997 23.15 7.91997C23.24 8.29997 23.25 8.91997 23.25 8.91997L23.26 8.92997Z" fill="#FFB700" stroke="black" stroke-width="0.14"/>
<path d="M35.4398 42.4799L35.7297 42.3099L35.8497 42.4799C36.0097 42.7099 36.4698 42.6899 36.7698 42.4799L37.0098 42.2899L37.2098 42.4699C37.4598 42.7099 37.9398 42.7099 38.2498 42.4699C38.4598 42.3199 38.4998 42.3099 38.6298 42.4299C38.7198 42.5099 38.9697 42.5799 39.1797 42.6199C39.4464 42.6532 39.6531 42.5532 39.7997 42.3199C39.9997 42.0299 40.0197 41.9199 39.9897 41.6299C39.9597 41.4099 39.9297 41.1899 39.9097 40.9699C39.8897 40.6399 39.8997 40.6399 40.3597 40.4699C40.5897 40.3999 40.8098 40.3199 41.0298 40.2199C41.2198 40.1099 41.7397 39.4899 41.7397 39.3699C41.7397 39.3499 41.5397 39.2899 41.2897 39.2699C40.2897 39.1499 40.1298 38.6199 40.7798 37.6499C41.8198 36.0299 42.4498 34.4599 42.4498 33.4799C42.4498 33.0299 42.4897 32.8799 42.5397 32.9799C42.7797 33.3699 42.3497 35.0299 41.7297 36.2299L41.4797 36.6999L41.7197 36.6499C41.8397 36.6099 42.6397 36.2699 43.4697 35.8999C45.7497 34.8699 46.5198 34.6699 47.9998 34.7399C49.2398 34.7899 49.7498 35.0299 50.6198 35.9399C51.0798 36.4399 51.5298 36.7799 52.3398 37.2899C54.0598 38.3599 54.1397 38.4599 54.2297 39.7399C54.3197 41.0299 54.2697 41.0999 53.2897 41.3199C52.4497 41.5099 51.9297 41.8999 51.7897 42.4399C51.7097 42.7199 51.8797 42.7299 52.2897 42.4499L52.5997 42.2499L52.7397 42.4499C52.9297 42.7099 53.2998 42.7099 53.6198 42.4499L53.8698 42.2599L54.1198 42.4499C54.4998 42.7599 54.9998 42.6899 55.1498 42.2999C55.1698 42.2399 55.2498 42.2499 55.3998 42.3899C55.6898 42.6399 56.3997 42.7399 56.4697 42.5399C56.4997 42.4599 56.4397 42.2899 56.3497 42.1399C55.9397 41.5199 55.7997 41.2299 55.7997 40.8899C55.7997 40.4199 55.9197 40.1799 56.4797 39.7999C57.1297 39.3299 57.3298 38.7299 56.8298 38.7299C56.5298 38.7299 56.2198 38.4499 56.0198 38.0199C55.6198 37.1199 55.7098 36.1199 56.3098 34.4399C56.7698 33.4499 56.9997 32.3799 56.9897 31.2899C56.9897 30.3699 56.9598 30.2199 56.7698 29.6999C56.6098 29.3399 56.4198 28.9999 56.1898 28.6899L55.8398 28.2299L56.2798 27.8499C57.6298 26.7399 57.3597 24.9099 55.7297 24.2099C55.2297 23.9799 55.1097 23.9699 54.2297 23.9699C53.7297 23.9699 52.9197 24.0499 52.4797 24.1299C51.8897 24.2199 51.2998 24.2699 50.7098 24.2799C49.8598 24.2799 49.7098 24.2599 49.3798 24.0799C49.0398 23.8999 48.9797 23.8199 48.9197 23.3899C48.9197 23.3499 48.8998 23.3099 48.8698 23.2799C48.8498 23.2499 48.8098 23.2199 48.7798 23.1999C48.6598 23.1599 48.1297 23.6199 48.0497 23.8199C47.9997 23.9299 47.9697 23.9199 47.8597 23.7799C47.7497 23.6399 47.6697 23.4899 47.6097 23.3299C47.4897 22.9199 47.6498 22.6199 48.1398 22.3799L48.5198 22.1999L48.2897 22.0599C47.8397 21.7699 47.0697 21.9699 46.7897 22.4399C46.6997 22.5599 46.6198 22.6899 46.5898 22.6899C46.5598 22.6899 46.4098 22.5699 46.2598 22.3999C45.6698 21.8199 45.8697 20.9699 46.6597 20.7199C47.0697 20.5799 47.4498 20.6799 47.5198 20.9699C47.6398 21.3799 47.9897 20.8299 47.9297 20.3199C47.8897 19.9799 47.8898 19.9699 48.1298 19.9699C48.4598 19.9699 49.1297 20.3999 49.3497 20.7199C49.5997 21.1099 49.5797 21.7199 49.2997 22.1699L49.0898 22.5199L49.3798 22.4699C49.7798 22.3799 50.1798 22.1299 50.3798 21.8199C50.4898 21.6199 50.5397 21.3999 50.5497 21.1799C50.5497 20.9499 50.5197 20.7299 50.4297 20.5199C50.2397 20.1799 50.2697 20.1299 50.5397 20.2499C50.9897 20.4399 51.2397 20.6499 51.4197 21.0099C51.5897 21.3399 51.6098 21.4099 51.5198 21.7599C51.4598 21.9699 51.3697 22.1799 51.2397 22.3599C51.0897 22.5599 51.0798 22.5999 51.1998 22.5999C51.4198 22.5999 51.8697 22.3899 52.0397 22.2199C52.1297 22.1199 52.2498 21.9099 52.3198 21.7199L52.4398 21.4099L52.5598 21.6599C52.7498 21.9999 53.1198 22.3099 53.5698 22.5099C54.0598 22.7099 54.2598 22.7199 54.0098 22.5299C53.8398 22.4099 53.5098 21.4699 53.6198 21.3799C54.1598 21.6799 54.6498 22.0599 55.0798 22.4999C55.7898 23.1399 56.2398 23.3499 56.8898 23.3499C57.7298 23.3499 58.2098 22.6199 57.8398 21.9399C57.6298 21.5399 57.1398 21.4799 56.8398 21.8199C56.7198 21.9799 56.6797 22.1099 56.7197 22.2799C56.7697 22.4799 56.7598 22.5099 56.5698 22.5099C56.3198 22.5099 55.8498 22.1999 54.9998 21.4899C53.8198 20.4699 52.4597 19.6799 50.9897 19.1499C49.9897 18.9199 48.9698 18.8599 47.9498 18.9899C47.1498 19.1399 46.1997 19.5999 45.6697 20.0899C44.7597 20.9699 44.7498 22.1299 45.6298 23.1899L45.8798 23.4899L45.7197 23.7599C45.5997 23.9599 45.5397 24.1899 45.5497 24.4199C45.5497 24.6499 45.6398 24.8799 45.7698 25.0599C45.8898 25.2299 46.0198 25.3699 46.0598 25.3699C46.0798 25.3699 46.1098 25.2599 46.1198 25.1199C46.1398 24.7799 46.2897 24.5599 46.5397 24.4699C46.7597 24.3799 46.9198 24.4299 47.9398 24.8499C49.0298 25.2799 50.8198 25.2999 52.7098 24.9299C53.5298 24.7399 54.3898 24.7499 55.2098 24.9499C56.1098 25.3299 56.3097 26.2899 55.6597 27.0099C55.3697 27.3399 55.1098 27.4599 54.1998 27.7099C53.4098 27.9199 52.5798 27.9799 51.7598 27.8999C50.4098 27.8899 49.9198 27.9099 49.3798 28.0199C48.7698 28.1399 48.4097 28.1599 46.6597 28.1199L44.6198 28.0699L44.8398 28.2499C44.9598 28.3599 45.0897 28.4499 45.2297 28.5399C45.3897 28.6299 45.3798 28.6399 45.1498 28.7299C45.0298 28.7799 44.7297 28.8199 44.4897 28.8199H44.0798L44.0298 29.1699C43.9998 29.3299 43.9998 29.5099 44.0298 29.6699C44.0798 29.7899 44.0597 29.8199 43.9297 29.7699C43.8397 29.7299 43.5998 29.6699 43.3898 29.6299C43.1798 29.5799 42.9698 29.5199 42.7698 29.4299C42.5298 29.3099 42.5097 29.3099 42.4197 29.4699C42.3397 29.5899 41.6397 30.1199 41.5397 30.1199C41.4897 29.7999 41.3998 29.4799 41.2598 29.1799C41.1398 28.9199 41.0197 28.6199 40.9897 28.5299C40.9497 28.3899 40.9298 28.3799 40.8698 28.4899C40.8298 28.5499 40.7798 28.7399 40.7498 28.8899C40.7098 29.0899 40.6298 29.2899 40.5198 29.4699L40.3298 29.7399L40.2098 29.4999C40.0898 29.2499 39.8798 28.9699 39.8098 28.9699C39.7798 28.9699 39.7497 29.0499 39.7197 29.1599C39.6597 29.3599 39.1697 29.9499 39.0497 29.9499C39.0097 29.9499 38.9697 29.7899 38.9697 29.5699C38.9697 29.3799 38.9298 29.2099 38.8798 29.2099C38.8298 29.2099 38.7897 29.2699 38.7897 29.3299C38.7897 29.4799 38.3797 29.9499 38.2297 29.9499C38.1797 29.9499 38.0798 29.9999 38.0198 30.0699C37.8698 30.2299 37.7498 30.2099 37.8098 30.0199C37.8298 29.8599 37.8098 29.6999 37.7598 29.5499L37.6398 29.1499C37.6198 29.0899 37.4698 29.1099 37.1398 29.2099C36.6398 29.3699 36.4697 29.3299 36.7297 29.1399C36.8297 29.0599 36.9798 28.7999 37.0598 28.5599C37.1498 28.3099 37.2698 28.0999 37.3298 28.0699C37.4198 28.0499 37.4198 28.0699 37.3098 28.2199C37.2398 28.3099 37.1897 28.4299 37.1697 28.5499C37.1697 28.6099 37.1097 28.7699 37.0497 28.9099C36.9697 29.0299 36.9298 29.1599 36.9398 29.1699C36.9498 29.1799 37.1498 29.1099 37.3798 29.0099L37.7798 28.8099V28.9899C37.7798 29.0899 37.8298 29.3399 37.8898 29.5499L37.9998 29.9299L38.2698 29.8099C38.5498 29.6899 38.8098 29.2299 38.8098 28.8699C38.8098 28.6899 38.9098 28.7199 38.9598 28.9099C38.9598 28.9599 39.0398 29.1699 39.0798 29.3699L39.1998 29.7199L39.3898 29.4999C39.4998 29.3799 39.6297 29.1199 39.6797 28.9599C39.7797 28.6599 39.9297 28.5199 39.9297 28.7499C39.9297 28.8999 40.3497 29.4699 40.4297 29.4199C40.4797 29.3999 40.5498 29.1799 40.6198 28.9399C40.7398 28.4399 40.9298 28.1199 41.0598 28.1899C41.1098 28.2099 41.1197 28.2699 41.0997 28.3099C41.0797 28.3299 41.1798 28.6599 41.3298 29.0099C41.4398 29.2699 41.5498 29.5299 41.6498 29.7999C41.6998 29.9199 41.7498 29.9199 42.0598 29.6399C42.2498 29.4599 42.4398 29.2799 42.4498 29.2099C42.4898 29.1099 42.5198 29.1199 42.6998 29.2399C43.0698 29.4299 43.4698 29.5499 43.8898 29.5899C43.9098 29.5699 43.9398 29.3399 43.9398 29.0899V28.6299L44.1998 28.6799C44.3198 28.7199 44.6098 28.7199 44.8198 28.6799L45.1998 28.6299L44.8597 28.3799C44.6697 28.2599 44.4798 28.0899 44.4398 28.0199C44.3998 27.9399 44.2297 27.8699 44.0397 27.8599C43.5297 27.8099 42.6198 27.3099 42.6198 27.0599C42.6198 27.0099 42.7398 27.0999 42.8998 27.2299C43.2498 27.5399 43.7198 27.7299 44.1498 27.7299H44.4498L44.2598 27.4799C44.1298 27.2899 44.0398 27.0599 44.0098 26.8299C43.9798 26.4499 43.9498 26.3999 43.5598 26.1399C43.3398 25.9799 43.1298 25.7999 42.9398 25.5999L42.7297 25.3599L42.6198 25.6499C42.5598 25.8099 42.4998 25.9399 42.4598 25.9399C42.4298 25.9399 42.3098 25.8399 42.2098 25.7299C42.1398 25.6499 42.0498 25.5799 41.9598 25.5299C41.9198 25.5299 41.8397 25.6799 41.7297 25.8699L41.5598 26.2099L41.4398 26.0199C41.3298 25.8699 41.1998 25.7199 41.0598 25.5899C40.9098 25.4699 40.8498 25.3699 40.8998 25.3699C40.9498 25.3699 41.1098 25.4899 41.2798 25.6599L41.5497 25.9499L41.6697 25.7399C41.7397 25.5899 41.7597 25.4299 41.7297 25.2599C41.6797 25.0299 41.6898 25.0199 41.7698 25.1699C41.8798 25.3099 41.9998 25.4399 42.1498 25.5499L42.4197 25.7799L42.6097 25.4399C42.7364 25.2066 42.8231 25.1599 42.8698 25.2999C42.9898 25.5599 43.8097 26.2399 44.4897 26.6299C44.6097 26.6899 44.5698 26.4899 44.3698 26.0099C44.3098 25.8499 44.2798 25.6799 44.2698 25.5099C44.2698 25.2799 44.2097 25.1799 43.9197 24.9599C43.7397 24.8499 43.5897 24.6899 43.4797 24.5099C43.3697 24.3299 43.3097 24.1199 43.2897 23.9099C43.2497 23.6999 43.1798 23.4699 43.1198 23.3999C43.0398 23.2799 43.0197 23.3499 43.0397 23.7299C43.0697 23.9899 43.0297 24.3199 42.9697 24.4599L42.8698 24.7099L42.7897 24.4999C42.7397 24.3899 42.5397 24.1899 42.3497 24.0599C42.1597 23.9299 42.0297 23.8099 42.0497 23.7899C42.0797 23.7699 42.2797 23.8799 42.4897 24.0399C42.8297 24.2999 42.8898 24.3299 42.9398 24.2199C42.9898 24.0999 42.9398 23.5199 42.8398 23.1199C42.8064 22.9866 42.8731 23.0032 43.0397 23.1699C43.2197 23.3499 43.3198 23.5699 43.3998 23.9399C43.4998 24.4199 43.5497 24.4999 43.9897 24.8899C44.2497 25.1299 44.4898 25.2999 44.4998 25.2899C44.5298 25.2699 44.5498 24.6699 44.5798 23.9399C44.6298 22.5499 44.5797 22.2199 44.2397 21.7899L44.0698 21.5599L44.3497 21.2699C44.6597 20.9799 44.8598 20.5899 44.9398 20.1699L44.9897 19.8299L44.6898 20.1199C44.4398 20.3599 44.3098 20.4099 44.0298 20.4099C43.7498 20.4099 43.6298 20.3599 43.4398 20.1599C43.1498 19.8799 42.7898 19.6699 42.3998 19.5599C42.2498 19.5099 42.1998 19.5399 42.1998 19.6399C42.1998 19.7199 42.1198 19.9099 42.0298 20.0999L41.8597 20.4299L41.4797 20.0499C41.2397 19.8399 40.9798 19.6499 40.7698 19.5999C40.2598 19.4799 40.2297 19.4799 40.2297 19.8599C40.2297 20.4499 39.9798 20.5599 39.5298 20.1699C39.1798 19.8699 38.9097 19.7899 38.2397 19.8799L37.7397 19.9299L37.8298 20.1599C37.9098 20.3499 37.8897 20.4299 37.7297 20.6499C37.4697 20.9999 37.1297 21.1499 36.6097 21.1499C36.3597 21.1499 36.0597 21.1999 35.9297 21.2599C35.7997 21.3199 35.4797 21.3799 35.2197 21.4099C34.9697 21.4299 34.6797 21.4899 34.5997 21.5099C34.4797 21.5599 34.4798 21.5099 34.5098 21.2399C34.5698 20.8099 34.2597 20.4899 33.7997 20.4899C33.1897 20.4899 32.9098 21.0399 33.1498 21.7599C33.1998 21.9199 33.2398 22.0699 33.2698 22.2399C33.4298 22.5499 33.6497 22.8299 33.9197 23.0599C34.2397 23.3899 34.5398 23.7199 34.5898 23.8099C34.6898 23.9399 34.8197 24.0499 34.9697 24.1199L35.2397 24.2699L35.1998 23.9699C35.1598 23.6499 35.2298 23.5899 35.3998 23.8299C35.4598 23.8999 35.6198 24.0399 35.7498 24.1199C35.9598 24.2399 35.9998 24.2399 35.9998 24.1499C35.9998 24.0699 36.0398 23.9099 36.0898 23.7899L36.1797 23.5599L36.3398 23.8699C36.4298 24.0499 36.7197 24.4299 36.9797 24.7499C37.4897 25.3399 37.8198 25.9999 37.6498 26.1499C37.5698 26.2099 37.3998 26.2099 37.0298 26.1399C36.7498 26.0899 36.4098 26.0499 36.2498 26.0799C35.9598 26.1199 35.9398 26.0799 36.1298 25.8499C36.3198 25.5999 36.2797 25.5599 35.9097 25.5599C35.4697 25.5599 34.3798 25.3499 33.9598 25.1799C33.5598 25.0199 33.4598 25.0599 33.3398 25.4399L33.1298 26.1399L33.0098 26.5199L33.4598 26.4799C33.6898 26.4599 33.9198 26.4099 34.1498 26.3599C34.2398 26.3299 34.3297 26.3199 34.4297 26.3199C34.4497 26.3299 34.3898 26.4799 34.3098 26.6599L34.1398 26.9599L34.4097 26.9099C34.5597 26.8699 34.7897 26.7999 34.9097 26.7399C35.1397 26.6399 35.1598 26.6399 35.3298 26.9299C35.5398 27.2699 35.7097 27.2499 35.7397 26.8899C35.7797 26.5099 35.8998 26.5599 36.1398 27.0599C36.3698 27.5399 36.5898 27.7099 36.6398 27.4399C36.6498 27.3399 36.7598 27.1899 36.8998 27.0899C37.1798 26.8999 37.3797 26.9699 37.4897 27.2499C37.6097 27.5599 37.3398 27.8699 36.5698 28.3499C35.8498 28.7499 35.2298 29.2999 34.7598 29.9699C34.2898 30.6399 33.9797 31.4099 33.8497 32.2199C33.6097 33.6899 34.3497 35.2199 35.7997 36.3299C36.4997 36.8499 37.6097 37.4099 37.5397 37.2099C37.2397 36.2999 37.2497 34.5899 37.5497 34.2999C37.5997 34.2499 37.5898 34.4199 37.5098 34.6899C37.2598 35.6799 37.3898 36.4499 38.0098 38.2799C38.5598 39.9299 38.4898 40.6399 37.6898 41.1099C37.4398 41.2599 37.2798 41.2799 36.5898 41.2699C35.8398 41.2699 35.7498 41.2699 35.5098 41.4699C35.2198 41.7599 35.0297 42.1399 34.9697 42.5499C34.9697 42.7099 35.1397 42.6899 35.4697 42.4999H35.4797L35.4398 42.4799Z" fill="#FFB700" stroke="black" stroke-width="0.7"/>
<path d="M47.56 42.44L47.87 42.24L48.0801 42.44C48.3601 42.7 48.6901 42.69 48.9601 42.43C49.0801 42.31 49.1901 42.23 49.2001 42.24L49.31 42.44C49.37 42.55 49.5101 42.6 49.7601 42.63C50.0501 42.64 50.1401 42.63 50.2601 42.46L50.3801 42.25L50.6901 42.45C51.5401 43 51.99 42.42 51.6 41.29C51.41 40.71 51.5201 40.39 52.1401 39.67C52.4001 39.36 52.62 39.02 52.62 38.92C52.62 38.78 52.57 38.76 52.22 38.77C51.89 38.77 51.8 38.73 51.62 38.55C51.33 38.24 51.36 37.87 51.67 37.47L51.92 37.16L51.47 36.86C51.11 36.59 50.78 36.3 50.47 35.97C50.2 35.65 49.86 35.38 49.49 35.19C49.11 35 48.7001 34.88 48.2801 34.85L47.6901 34.79V35.24C47.6901 35.8 47.9701 36.35 48.6901 37.28C49.5201 38.33 49.57 38.49 49.6 39.87L49.6401 41.03L49.3901 41.25C49.1801 41.45 49.0901 41.49 48.3901 41.53C47.7301 41.57 47.5801 41.61 47.3901 41.78C47.1701 41.94 47.02 42.18 46.97 42.44C46.93 42.63 46.9401 42.67 47.0801 42.67C47.1701 42.67 47.38 42.58 47.56 42.47V42.44ZM29.7801 39.44C29.8601 39.33 29.9001 39.2 29.9001 39.06C29.9001 38.94 29.98 38.89 30.3 38.84L30.6901 38.79L30.4401 38.58C30.1301 38.33 30.09 38.14 30.37 38.14C30.65 38.14 31.09 37.86 31.17 37.65C31.21 37.55 31.17 37.42 31.12 37.36C30.97 37.19 30.6801 37.21 30.6301 37.41C30.5701 37.61 30.4801 37.61 30.2501 37.41C29.9401 37.1 29.9301 36.46 30.2501 36.09C30.3434 35.97 30.3267 35.85 30.2001 35.73C30.0001 35.53 29.8501 35.16 29.9501 35.06C29.9801 35.04 30.14 35.06 30.3 35.12C30.55 35.2 30.64 35.2 30.74 35.12C31.03 34.88 30.71 34.58 30.24 34.66C30.04 34.68 29.9601 34.66 29.9401 34.56C29.9201 34.48 29.75 34.39 29.56 34.34C29.3334 34.28 29.22 34.33 29.22 34.49C29.22 34.74 29.07 34.79 28.8 34.63C28.57 34.51 28.36 34.61 28.36 34.84C28.36 35.06 28.57 35.17 28.98 35.14C29.28 35.13 29.2901 35.35 29.0001 35.68L28.79 35.93L28.9501 36.17C29.2001 36.52 29.17 37.11 28.91 37.41L28.7001 37.63L28.56 37.44C28.36 37.19 28.1001 37.2 28.0201 37.48C27.9801 37.65 28.02 37.73 28.24 37.93C28.39 38.05 28.62 38.16 28.73 38.16C29.02 38.16 29.0101 38.4 28.7101 38.62L28.4601 38.81L28.8401 38.86C29.0401 38.9 29.22 38.95 29.22 38.98C29.22 39.14 29.47 39.63 29.55 39.63C29.6 39.63 29.7001 39.54 29.7701 39.44H29.7801Z" fill="#FFB700" stroke="black" stroke-width="0.7"/>
<path d="M34.5598 37.3601C34.8998 37.2401 35.6198 36.6101 35.6198 36.4701C35.6198 36.4201 35.4197 36.2001 35.1697 35.9701C34.6697 35.5201 34.1098 34.7301 33.9598 34.2801C33.8798 34.0301 33.5198 33.6301 32.4998 32.6301L31.1398 31.3201L30.7498 31.4201C30.5298 31.4701 30.2597 31.5201 30.1597 31.5201C30.0331 31.5201 30.0531 31.5867 30.2197 31.7201L30.4697 31.9201L30.8497 31.7201C31.1897 31.5201 31.1997 31.5201 31.2397 31.6801C31.2697 31.7701 31.2198 31.9301 31.1198 32.0401C31.0298 32.1501 30.9798 32.2901 30.9998 32.3301C31.0398 32.3701 30.9498 32.4501 30.8098 32.5301C30.5598 32.6501 30.3698 33.0701 30.5698 33.0701C30.7598 33.0701 31.1597 32.5701 31.1097 32.4101C31.0797 32.3201 31.1098 32.2401 31.1298 32.2101C31.2898 32.1201 31.2798 32.5101 31.1298 32.7101C31.0298 32.8101 30.9798 32.9301 31.0098 32.9801C31.0398 33.0201 30.9498 33.1101 30.8098 33.1801C30.5598 33.3001 30.3698 33.7201 30.5698 33.7201C30.7698 33.7201 31.1598 33.2501 31.1198 33.0701C31.0998 32.9801 31.0998 32.8801 31.1298 32.8601C31.2398 32.8101 31.2898 33.1101 31.2098 33.2601C31.1898 33.3001 31.1797 33.3501 31.1797 33.4001C31.1797 33.4501 31.1898 33.5001 31.2098 33.5401C31.2998 33.7001 31.2097 34.0001 31.0497 34.1001C30.9897 34.1401 31.0198 34.2201 31.1998 34.3501C31.4498 34.5201 31.4498 34.5501 31.4498 35.3501C31.4498 36.0201 31.4797 36.2001 31.5997 36.3101C31.7197 36.4301 31.7498 36.4301 31.7498 36.3101C31.7498 36.1901 31.9998 36.0101 32.1898 36.0101C32.2498 36.0101 32.6198 36.3201 32.9998 36.7001C33.3898 37.0801 33.7997 37.4101 33.9097 37.4201L34.1797 37.4701C34.1797 37.4701 34.3898 37.4301 34.5698 37.3501L34.5598 37.3601ZM30.3998 34.1001C30.3998 33.8901 29.9497 33.6501 29.4097 33.6001C28.9697 33.5401 28.9697 33.5501 28.9697 33.7601C28.9697 33.9301 29.0297 34.0101 29.3497 34.1401C29.8197 34.3501 30.3998 34.3301 30.3998 34.1001Z" fill="#FFB700" stroke="black" stroke-width="0.7"/>
<path d="M30.8899 34.08C31.1199 33.88 31.2199 33.66 31.0799 33.66C30.9299 33.66 30.5299 34.01 30.5299 34.16C30.5299 34.36 30.6099 34.35 30.9099 34.08H30.8999H30.8899ZM30.4299 33.44C30.4399 33.32 30.3699 33.24 30.1399 33.13C29.6399 32.92 29.0699 32.8 28.9299 32.92C28.6699 33.13 28.8399 33.41 29.2599 33.46C29.4299 33.47 29.6599 33.52 29.7699 33.57C30.0999 33.69 30.3899 33.63 30.4299 33.45V33.44ZM30.4299 32.78C30.4499 32.62 30.3399 32.55 29.4299 32.23C28.7399 31.98 28.4399 32.11 28.6699 32.52C28.7499 32.66 28.8699 32.72 29.1599 32.77C29.3699 32.79 29.6599 32.86 29.7999 32.91C30.1799 33.03 30.3999 32.98 30.4199 32.79H30.4299V32.78ZM30.8799 32.17C31.0199 32.03 31.1299 31.87 31.1299 31.8C31.1299 31.61 30.5899 31.96 30.5199 32.21C30.4499 32.5 30.5799 32.48 30.8999 32.17H30.8899H30.8799ZM30.4299 32.13C30.4499 31.93 30.1299 31.75 29.4799 31.62C28.9899 31.51 28.7799 31.57 28.8199 31.8C28.8399 31.92 29.0099 32.01 29.4399 32.15C30.1799 32.37 30.3899 32.37 30.4299 32.14V32.13ZM31.0499 31.21C31.8999 30.83 31.9599 29.9 31.1699 29.65C30.8399 29.55 30.6399 29.61 30.5199 29.82C30.4199 29.99 30.4799 30.3 30.6099 30.3C30.6599 30.3 30.6999 30.36 30.6999 30.42C30.6999 30.76 29.4299 30.9 28.8999 30.63C28.7099 30.54 28.6499 30.29 28.7899 30.29C28.9099 30.29 28.9899 30.04 28.9299 29.88C28.8499 29.63 28.5999 29.55 28.2699 29.65C27.4799 29.85 27.5099 30.77 28.3099 31.15C29.1999 31.47 30.1599 31.49 31.0599 31.2L31.0499 31.21Z" fill="#FFB700" stroke="black" stroke-width="0.7"/>
<path d="M30.5398 30.48C30.5398 30.48 30.5698 30.36 30.4898 30.31C30.3198 30.17 30.3298 29.96 30.5098 29.72C30.6598 29.55 30.6698 29.27 30.7198 26.58C30.8098 21.94 31.1598 18.46 31.6098 17.6C31.7998 17.27 31.7698 17.27 31.2998 17.6C30.6798 18.03 30.1698 18.62 29.8398 19.3C29.0698 20.74 28.7998 22.68 28.7998 26.83C28.7998 29.18 28.8098 29.49 28.9498 29.71C29.0698 29.93 29.0698 30.01 28.9998 30.23C28.9398 30.37 28.9098 30.52 28.9398 30.54C29.1098 30.7 30.3598 30.66 30.5398 30.48ZM37.5498 26.06C37.5498 26.06 37.5198 25.81 37.4298 25.61C37.2798 25.29 37.2198 25.23 37.0098 25.23C36.0098 25.14 35.0398 24.87 34.1298 24.43C33.4898 24.14 33.2498 24.08 33.1898 24.16C32.9898 24.35 33.3098 24.78 33.8098 25.02C34.5498 25.29 35.3198 25.44 36.0998 25.48C36.4398 25.48 36.4498 25.48 36.2498 25.77L36.1298 25.97H36.5098L37.1298 26.04C37.3832 26.1 37.5231 26.1034 37.5498 26.05V26.06Z" fill="#FFB700" stroke="black" stroke-width="0.7"/>
<path d="M41.5001 28.14C41.5001 28.02 41.14 27.7 40.79 27.49C40.5 27.33 40.4501 27.32 40.4501 27.45C40.4501 27.65 40.2801 28.16 40.2001 28.16C40.1601 28.16 40.1001 28.06 40.0801 27.95C40.0401 27.83 39.9101 27.57 39.7701 27.41L39.5201 27.1L39.35 27.39C39.17 27.66 38.86 27.93 38.73 27.93C38.7 27.93 38.69 27.78 38.73 27.62C38.74 27.42 38.73 27.27 38.67 27.24C38.62 27.2 38.5701 27.22 38.5701 27.26C38.5701 27.36 38.1501 27.84 38.0701 27.84C38.0201 27.84 37.9701 27.72 37.9501 27.54L37.85 26.94C37.82 26.79 37.89 26.89 37.97 27.19L38.17 27.7L38.3701 27.39C38.4601 27.26 38.5301 27.12 38.5701 26.97C38.5701 26.91 38.61 26.88 38.66 26.91C38.71 26.94 38.77 27.15 38.8 27.37L38.86 27.79L39.0801 27.54C39.2001 27.41 39.31 27.28 39.41 27.14C39.5 26.99 39.5101 26.99 39.7001 27.14C39.8001 27.24 39.9601 27.45 40.0601 27.63C40.1601 27.8 40.2501 27.93 40.2601 27.92L40.3401 27.52L40.3901 27.14C40.4001 27.08 41.0601 27.52 41.3101 27.73C41.4601 27.87 41.6101 27.97 41.6401 27.94C41.6701 27.91 41.6901 27.71 41.6901 27.48C41.6901 27.13 41.6501 27.03 41.4401 26.84C41.2734 26.6866 41.1568 26.6666 41.0901 26.78C40.9701 26.99 40.8301 26.99 40.8301 26.78C40.8301 26.63 40.3601 26.04 40.2401 26.04C40.2001 26.04 40.1001 26.16 40.0101 26.33C39.9201 26.49 39.82 26.62 39.8 26.62C39.68 26.62 39.0101 25.87 39.0101 25.74C39.0101 25.64 39.06 25.66 39.17 25.84C39.28 26 39.4101 26.16 39.5601 26.29C39.8101 26.52 39.9101 26.47 40.0101 26.03C40.0501 25.91 40.1001 25.8 40.1301 25.8C40.2301 25.8 40.8001 26.41 40.8801 26.61L40.97 26.81L41.0301 26.58C41.1101 26.31 41.1901 26.31 41.3201 26.56C41.3701 26.66 41.6201 26.88 41.8701 27.03L42.3301 27.33L42.42 27.03C42.47 26.87 42.5401 26.78 42.5701 26.83C42.6201 26.89 42.49 27.39 42.41 27.49C42.41 27.5 42.2501 27.41 42.0801 27.3L41.7701 27.07V27.47C41.7701 27.68 41.74 27.95 41.72 28.05C41.66 28.25 41.5101 28.3 41.5101 28.12H41.5201L41.5001 28.14ZM39.1901 24.97C38.6401 24.52 38.5701 24.42 38.5701 24.2V23.97L38.6201 24.18C38.6501 24.3 38.79 24.51 38.97 24.66L39.29 24.91L39.48 24.68C39.59 24.56 39.6801 24.41 39.6801 24.35C39.6801 24.2 39.7101 24.21 40.0801 24.54C40.4101 24.83 40.4201 24.83 40.4601 24.64C40.5001 24.54 40.4801 24.34 40.4601 24.2C40.3401 23.82 40.3601 23.78 40.5201 24L40.8201 24.35C40.9401 24.49 40.9601 24.49 41.0101 24.31C41.0501 24.2 41.0701 24.01 41.0701 23.88V23.64L41.36 23.98C41.65 24.31 41.6701 24.32 41.7501 24.15C41.8101 24.06 41.85 23.85 41.85 23.69C41.85 23.46 41.87 23.42 41.92 23.49C42.02 23.64 41.9601 24.01 41.7801 24.34L41.66 24.59L41.5001 24.33C41.2901 24 41.2101 24 41.0901 24.35C40.9701 24.69 40.8801 24.71 40.7501 24.45C40.6701 24.29 40.65 24.31 40.6 24.66L40.54 25.04L40.16 24.75L39.7801 24.46L39.5901 24.65C39.5001 24.76 39.4301 24.9 39.4301 24.95C39.4301 25.07 39.3301 25.07 39.1901 24.95V24.97ZM44.0701 23.27C43.8801 23.1 43.7401 22.92 43.7701 22.89C43.8101 22.85 43.83 22.84 43.85 22.87C43.97 23 44.1 23.12 44.23 23.25C44.65 23.7 44.5701 23.71 44.0901 23.27H44.0801H44.0701ZM37.5701 22.6C37.4001 22.35 37.4101 22.2 37.6301 21.92C37.7801 21.73 37.8501 21.71 38.1301 21.75C38.3201 21.76 38.7101 21.92 38.9901 22.1C39.4101 22.35 39.8801 22.48 40.3701 22.48L40.16 22.13C39.88 21.72 39.8801 21.67 40.2101 21.92C40.5401 22.18 40.92 22.26 41.8 22.23H42.23L41.98 21.97C41.64 21.63 41.7401 21.59 42.1301 21.93C42.4801 22.24 42.4701 22.27 41.7101 22.34C41.3901 22.37 41.0701 22.35 40.7601 22.28C40.3401 22.16 40.3101 22.17 40.4001 22.3C40.4501 22.39 40.5201 22.45 40.5601 22.45C40.6101 22.45 40.6501 22.5 40.6501 22.55C40.6501 22.71 39.7301 22.56 39.2701 22.35C38.2701 21.84 38.1501 21.79 37.8901 21.86C37.8201 21.89 37.7601 21.92 37.7101 21.97C37.6601 22.02 37.6201 22.08 37.5901 22.14C37.4301 22.55 38.0101 22.88 38.2501 22.52C38.3301 22.41 38.3101 22.35 38.1901 22.21C38.0201 22.04 38.0401 22.01 38.2701 22.09C38.4301 22.15 38.44 22.54 38.3 22.69C38.14 22.85 37.7401 22.81 37.5901 22.6H37.5701Z" fill="black" stroke="black" stroke-width="0.7"/>
<path d="M41.5498 21.5801C41.4298 21.4601 41.5199 21.4301 42.0899 21.4201C42.7899 21.4101 43.2099 21.3001 43.7099 20.9701C44.1099 20.7201 44.2199 20.7701 43.8299 21.0301C43.4899 21.2801 42.9498 21.4501 42.4198 21.5101L41.7799 21.6001C41.6799 21.6201 41.5699 21.6101 41.5299 21.5901H41.5398L41.5498 21.5801Z" fill="black" stroke="black" stroke-width="0.7"/>
<path d="M35.4398 42.4799L35.7297 42.3099L35.8497 42.4799C36.0097 42.7099 36.4698 42.6899 36.7698 42.4799L37.0098 42.2899L37.2098 42.4699C37.4598 42.7099 37.9398 42.7099 38.2498 42.4699C38.4598 42.3199 38.4998 42.3099 38.6298 42.4299C38.7198 42.5099 38.9697 42.5799 39.1797 42.6199C39.4464 42.6532 39.6531 42.5532 39.7997 42.3199C39.9997 42.0299 40.0197 41.9199 39.9897 41.6299C39.9597 41.4099 39.9297 41.1899 39.9097 40.9699C39.8897 40.6399 39.8997 40.6399 40.3597 40.4699C40.5897 40.3999 40.8098 40.3199 41.0298 40.2199C41.2198 40.1099 41.7397 39.4899 41.7397 39.3699C41.7397 39.3499 41.5397 39.2899 41.2897 39.2699C40.2897 39.1499 40.1298 38.6199 40.7798 37.6499C41.8198 36.0299 42.4498 34.4599 42.4498 33.4799C42.4498 33.0299 42.4897 32.8799 42.5397 32.9799C42.7797 33.3699 42.3497 35.0299 41.7297 36.2299L41.4797 36.6999L41.7197 36.6499C41.8397 36.6099 42.6397 36.2699 43.4697 35.8999C45.7497 34.8699 46.5198 34.6699 47.9998 34.7399C49.2398 34.7899 49.7498 35.0299 50.6198 35.9399C51.0798 36.4399 51.5298 36.7799 52.3398 37.2899C54.0598 38.3599 54.1397 38.4599 54.2297 39.7399C54.3197 41.0299 54.2697 41.0999 53.2897 41.3199C52.4497 41.5099 51.9297 41.8999 51.7897 42.4399C51.7097 42.7199 51.8797 42.7299 52.2897 42.4499L52.5997 42.2499L52.7397 42.4499C52.9297 42.7099 53.2998 42.7099 53.6198 42.4499L53.8698 42.2599L54.1198 42.4499C54.4998 42.7599 54.9998 42.6899 55.1498 42.2999C55.1698 42.2399 55.2498 42.2499 55.3998 42.3899C55.6898 42.6399 56.3997 42.7399 56.4697 42.5399C56.4997 42.4599 56.4397 42.2899 56.3497 42.1399C55.9397 41.5199 55.7997 41.2299 55.7997 40.8899C55.7997 40.4199 55.9197 40.1799 56.4797 39.7999C57.1297 39.3299 57.3298 38.7299 56.8298 38.7299C56.5298 38.7299 56.2198 38.4499 56.0198 38.0199C55.6198 37.1199 55.7098 36.1199 56.3098 34.4399C56.7698 33.4499 56.9997 32.3799 56.9897 31.2899C56.9897 30.3699 56.9598 30.2199 56.7698 29.6999C56.6098 29.3399 56.4198 28.9999 56.1898 28.6899L55.8398 28.2299L56.2798 27.8499C57.6298 26.7399 57.3597 24.9099 55.7297 24.2099C55.2297 23.9799 55.1097 23.9699 54.2297 23.9699C53.7297 23.9699 52.9197 24.0499 52.4797 24.1299C51.8897 24.2199 51.2998 24.2699 50.7098 24.2799C49.8598 24.2799 49.7098 24.2599 49.3798 24.0799C49.0398 23.8999 48.9797 23.8199 48.9197 23.3899C48.9197 23.3499 48.8998 23.3099 48.8698 23.2799C48.8498 23.2499 48.8098 23.2199 48.7798 23.1999C48.6598 23.1599 48.1297 23.6199 48.0497 23.8199C47.9997 23.9299 47.9697 23.9199 47.8597 23.7799C47.7497 23.6399 47.6697 23.4899 47.6097 23.3299C47.4897 22.9199 47.6498 22.6199 48.1398 22.3799L48.5198 22.1999L48.2897 22.0599C47.8397 21.7699 47.0697 21.9699 46.7897 22.4399C46.6997 22.5599 46.6198 22.6899 46.5898 22.6899C46.5598 22.6899 46.4098 22.5699 46.2598 22.3999C45.6698 21.8199 45.8697 20.9699 46.6597 20.7199C47.0697 20.5799 47.4498 20.6799 47.5198 20.9699C47.6398 21.3799 47.9897 20.8299 47.9297 20.3199C47.8897 19.9799 47.8898 19.9699 48.1298 19.9699C48.4598 19.9699 49.1297 20.3999 49.3497 20.7199C49.5997 21.1099 49.5797 21.7199 49.2997 22.1699L49.0898 22.5199L49.3798 22.4699C49.7798 22.3799 50.1798 22.1299 50.3798 21.8199C50.4898 21.6199 50.5397 21.3999 50.5497 21.1799C50.5497 20.9499 50.5197 20.7299 50.4297 20.5199C50.2397 20.1799 50.2697 20.1299 50.5397 20.2499C50.9897 20.4399 51.2397 20.6499 51.4197 21.0099C51.5897 21.3399 51.6098 21.4099 51.5198 21.7599C51.4598 21.9699 51.3697 22.1799 51.2397 22.3599C51.0897 22.5599 51.0798 22.5999 51.1998 22.5999C51.4198 22.5999 51.8697 22.3899 52.0397 22.2199C52.1297 22.1199 52.2498 21.9099 52.3198 21.7199L52.4398 21.4099L52.5598 21.6599C52.7498 21.9999 53.1198 22.3099 53.5698 22.5099C54.0598 22.7099 54.2598 22.7199 54.0098 22.5299C53.8398 22.4099 53.5098 21.4699 53.6198 21.3799C54.1598 21.6799 54.6498 22.0599 55.0798 22.4999C55.7898 23.1399 56.2398 23.3499 56.8898 23.3499C57.7298 23.3499 58.2098 22.6199 57.8398 21.9399C57.6298 21.5399 57.1398 21.4799 56.8398 21.8199C56.7198 21.9799 56.6797 22.1099 56.7197 22.2799C56.7697 22.4799 56.7598 22.5099 56.5698 22.5099C56.3198 22.5099 55.8498 22.1999 54.9998 21.4899C53.8198 20.4699 52.4597 19.6799 50.9897 19.1499C49.9897 18.9199 48.9698 18.8599 47.9498 18.9899C47.1498 19.1399 46.1997 19.5999 45.6697 20.0899C44.7597 20.9699 44.7498 22.1299 45.6298 23.1899L45.8798 23.4899L45.7197 23.7599C45.5997 23.9599 45.5397 24.1899 45.5497 24.4199C45.5497 24.6499 45.6398 24.8799 45.7698 25.0599C45.8898 25.2299 46.0198 25.3699 46.0598 25.3699C46.0798 25.3699 46.1098 25.2599 46.1198 25.1199C46.1398 24.7799 46.2897 24.5599 46.5397 24.4699C46.7597 24.3799 46.9198 24.4299 47.9398 24.8499C49.0298 25.2799 50.8198 25.2999 52.7098 24.9299C53.5298 24.7399 54.3898 24.7499 55.2098 24.9499C56.1098 25.3299 56.3097 26.2899 55.6597 27.0099C55.3697 27.3399 55.1098 27.4599 54.1998 27.7099C53.4098 27.9199 52.5798 27.9799 51.7598 27.8999C50.4098 27.8899 49.9198 27.9099 49.3798 28.0199C48.7698 28.1399 48.4097 28.1599 46.6597 28.1199L44.6198 28.0699L44.8398 28.2499C44.9598 28.3599 45.0897 28.4499 45.2297 28.5399C45.3897 28.6299 45.3798 28.6399 45.1498 28.7299C45.0298 28.7799 44.7297 28.8199 44.4897 28.8199H44.0798L44.0298 29.1699C43.9998 29.3299 43.9998 29.5099 44.0298 29.6699C44.0798 29.7899 44.0597 29.8199 43.9297 29.7699C43.8397 29.7299 43.5998 29.6699 43.3898 29.6299C43.1798 29.5799 42.9698 29.5199 42.7698 29.4299C42.5298 29.3099 42.5097 29.3099 42.4197 29.4699C42.3397 29.5899 41.6397 30.1199 41.5397 30.1199C41.4897 29.7999 41.3998 29.4799 41.2598 29.1799C41.1398 28.9199 41.0197 28.6199 40.9897 28.5299C40.9497 28.3899 40.9298 28.3799 40.8698 28.4899C40.8298 28.5499 40.7798 28.7399 40.7498 28.8899C40.7098 29.0899 40.6298 29.2899 40.5198 29.4699L40.3298 29.7399L40.2098 29.4999C40.0898 29.2499 39.8798 28.9699 39.8098 28.9699C39.7798 28.9699 39.7497 29.0499 39.7197 29.1599C39.6597 29.3599 39.1697 29.9499 39.0497 29.9499C39.0097 29.9499 38.9697 29.7899 38.9697 29.5699C38.9697 29.3799 38.9298 29.2099 38.8798 29.2099C38.8298 29.2099 38.7897 29.2699 38.7897 29.3299C38.7897 29.4799 38.3797 29.9499 38.2297 29.9499C38.1797 29.9499 38.0798 29.9999 38.0198 30.0699C37.8698 30.2299 37.7498 30.2099 37.8098 30.0199C37.8298 29.8599 37.8098 29.6999 37.7598 29.5499L37.6398 29.1499C37.6198 29.0899 37.4698 29.1099 37.1398 29.2099C36.6398 29.3699 36.4697 29.3299 36.7297 29.1399C36.8297 29.0599 36.9798 28.7999 37.0598 28.5599C37.1498 28.3099 37.2698 28.0999 37.3298 28.0699C37.4198 28.0499 37.4198 28.0699 37.3098 28.2199C37.2398 28.3099 37.1897 28.4299 37.1697 28.5499C37.1697 28.6099 37.1097 28.7699 37.0497 28.9099C36.9697 29.0299 36.9298 29.1599 36.9398 29.1699C36.9498 29.1799 37.1498 29.1099 37.3798 29.0099L37.7798 28.8099V28.9899C37.7798 29.0899 37.8298 29.3399 37.8898 29.5499L37.9998 29.9299L38.2698 29.8099C38.5498 29.6899 38.8098 29.2299 38.8098 28.8699C38.8098 28.6899 38.9098 28.7199 38.9598 28.9099C38.9598 28.9599 39.0398 29.1699 39.0798 29.3699L39.1998 29.7199L39.3898 29.4999C39.4998 29.3799 39.6297 29.1199 39.6797 28.9599C39.7797 28.6599 39.9297 28.5199 39.9297 28.7499C39.9297 28.8999 40.3497 29.4699 40.4297 29.4199C40.4797 29.3999 40.5498 29.1799 40.6198 28.9399C40.7398 28.4399 40.9298 28.1199 41.0598 28.1899C41.1098 28.2099 41.1197 28.2699 41.0997 28.3099C41.0797 28.3299 41.1798 28.6599 41.3298 29.0099C41.4398 29.2699 41.5498 29.5299 41.6498 29.7999C41.6998 29.9199 41.7498 29.9199 42.0598 29.6399C42.2498 29.4599 42.4398 29.2799 42.4498 29.2099C42.4898 29.1099 42.5198 29.1199 42.6998 29.2399C43.0698 29.4299 43.4698 29.5499 43.8898 29.5899C43.9098 29.5699 43.9398 29.3399 43.9398 29.0899V28.6299L44.1998 28.6799C44.3198 28.7199 44.6098 28.7199 44.8198 28.6799L45.1998 28.6299L44.8597 28.3799C44.6697 28.2599 44.4798 28.0899 44.4398 28.0199C44.3998 27.9399 44.2297 27.8699 44.0397 27.8599C43.5297 27.8099 42.6198 27.3099 42.6198 27.0599C42.6198 27.0099 42.7398 27.0999 42.8998 27.2299C43.2498 27.5399 43.7198 27.7299 44.1498 27.7299H44.4498L44.2598 27.4799C44.1298 27.2899 44.0398 27.0599 44.0098 26.8299C43.9798 26.4499 43.9498 26.3999 43.5598 26.1399C43.3398 25.9799 43.1298 25.7999 42.9398 25.5999L42.7297 25.3599L42.6198 25.6499C42.5598 25.8099 42.4998 25.9399 42.4598 25.9399C42.4298 25.9399 42.3098 25.8399 42.2098 25.7299C42.1398 25.6499 42.0498 25.5799 41.9598 25.5299C41.9198 25.5299 41.8397 25.6799 41.7297 25.8699L41.5598 26.2099L41.4398 26.0199C41.3298 25.8699 41.1998 25.7199 41.0598 25.5899C40.9098 25.4699 40.8498 25.3699 40.8998 25.3699C40.9498 25.3699 41.1098 25.4899 41.2798 25.6599L41.5497 25.9499L41.6697 25.7399C41.7397 25.5899 41.7597 25.4299 41.7297 25.2599C41.6797 25.0299 41.6898 25.0199 41.7698 25.1699C41.8798 25.3099 41.9998 25.4399 42.1498 25.5499L42.4197 25.7799L42.6097 25.4399C42.7364 25.2066 42.8231 25.1599 42.8698 25.2999C42.9898 25.5599 43.8097 26.2399 44.4897 26.6299C44.6097 26.6899 44.5698 26.4899 44.3698 26.0099C44.3098 25.8499 44.2798 25.6799 44.2698 25.5099C44.2698 25.2799 44.2097 25.1799 43.9197 24.9599C43.7397 24.8499 43.5897 24.6899 43.4797 24.5099C43.3697 24.3299 43.3097 24.1199 43.2897 23.9099C43.2497 23.6999 43.1798 23.4699 43.1198 23.3999C43.0398 23.2799 43.0197 23.3499 43.0397 23.7299C43.0697 23.9899 43.0297 24.3199 42.9697 24.4599L42.8698 24.7099L42.7897 24.4999C42.7397 24.3899 42.5397 24.1899 42.3497 24.0599C42.1597 23.9299 42.0297 23.8099 42.0497 23.7899C42.0797 23.7699 42.2797 23.8799 42.4897 24.0399C42.8297 24.2999 42.8898 24.3299 42.9398 24.2199C42.9898 24.0999 42.9398 23.5199 42.8398 23.1199C42.8064 22.9866 42.8731 23.0032 43.0397 23.1699C43.2197 23.3499 43.3198 23.5699 43.3998 23.9399C43.4998 24.4199 43.5497 24.4999 43.9897 24.8899C44.2497 25.1299 44.4898 25.2999 44.4998 25.2899C44.5298 25.2699 44.5498 24.6699 44.5798 23.9399C44.6298 22.5499 44.5797 22.2199 44.2397 21.7899L44.0698 21.5599L44.3497 21.2699C44.6597 20.9799 44.8598 20.5899 44.9398 20.1699L44.9897 19.8299L44.6898 20.1199C44.4398 20.3599 44.3098 20.4099 44.0298 20.4099C43.7498 20.4099 43.6298 20.3599 43.4398 20.1599C43.1498 19.8799 42.7898 19.6699 42.3998 19.5599C42.2498 19.5099 42.1998 19.5399 42.1998 19.6399C42.1998 19.7199 42.1198 19.9099 42.0298 20.0999L41.8597 20.4299L41.4797 20.0499C41.2397 19.8399 40.9798 19.6499 40.7698 19.5999C40.2598 19.4799 40.2297 19.4799 40.2297 19.8599C40.2297 20.4499 39.9798 20.5599 39.5298 20.1699C39.1798 19.8699 38.9097 19.7899 38.2397 19.8799L37.7397 19.9299L37.8298 20.1599C37.9098 20.3499 37.8897 20.4299 37.7297 20.6499C37.4697 20.9999 37.1297 21.1499 36.6097 21.1499C36.3597 21.1499 36.0597 21.1999 35.9297 21.2599C35.7997 21.3199 35.4797 21.3799 35.2197 21.4099C34.9697 21.4299 34.6797 21.4899 34.5997 21.5099C34.4797 21.5599 34.4798 21.5099 34.5098 21.2399C34.5698 20.8099 34.2597 20.4899 33.7997 20.4899C33.1897 20.4899 32.9098 21.0399 33.1498 21.7599C33.1998 21.9199 33.2398 22.0699 33.2698 22.2399C33.4298 22.5499 33.6497 22.8299 33.9197 23.0599C34.2397 23.3899 34.5398 23.7199 34.5898 23.8099C34.6898 23.9399 34.8197 24.0499 34.9697 24.1199L35.2397 24.2699L35.1998 23.9699C35.1598 23.6499 35.2298 23.5899 35.3998 23.8299C35.4598 23.8999 35.6198 24.0399 35.7498 24.1199C35.9598 24.2399 35.9998 24.2399 35.9998 24.1499C35.9998 24.0699 36.0398 23.9099 36.0898 23.7899L36.1797 23.5599L36.3398 23.8699C36.4298 24.0499 36.7197 24.4299 36.9797 24.7499C37.4897 25.3399 37.8198 25.9999 37.6498 26.1499C37.5698 26.2099 37.3998 26.2099 37.0298 26.1399C36.7498 26.0899 36.4098 26.0499 36.2498 26.0799C35.9598 26.1199 35.9398 26.0799 36.1298 25.8499C36.3198 25.5999 36.2797 25.5599 35.9097 25.5599C35.4697 25.5599 34.3798 25.3499 33.9598 25.1799C33.5598 25.0199 33.4598 25.0599 33.3398 25.4399L33.1298 26.1399L33.0098 26.5199L33.4598 26.4799C33.6898 26.4599 33.9198 26.4099 34.1498 26.3599C34.2398 26.3299 34.3297 26.3199 34.4297 26.3199C34.4497 26.3299 34.3898 26.4799 34.3098 26.6599L34.1398 26.9599L34.4097 26.9099C34.5597 26.8699 34.7897 26.7999 34.9097 26.7399C35.1397 26.6399 35.1598 26.6399 35.3298 26.9299C35.5398 27.2699 35.7097 27.2499 35.7397 26.8899C35.7797 26.5099 35.8998 26.5599 36.1398 27.0599C36.3698 27.5399 36.5898 27.7099 36.6398 27.4399C36.6498 27.3399 36.7598 27.1899 36.8998 27.0899C37.1798 26.8999 37.3797 26.9699 37.4897 27.2499C37.6097 27.5599 37.3398 27.8699 36.5698 28.3499C35.8498 28.7499 35.2298 29.2999 34.7598 29.9699C34.2898 30.6399 33.9797 31.4099 33.8497 32.2199C33.6097 33.6899 34.3497 35.2199 35.7997 36.3299C36.4997 36.8499 37.6097 37.4099 37.5397 37.2099C37.2397 36.2999 37.2497 34.5899 37.5497 34.2999C37.5997 34.2499 37.5898 34.4199 37.5098 34.6899C37.2598 35.6799 37.3898 36.4499 38.0098 38.2799C38.5598 39.9299 38.4898 40.6399 37.6898 41.1099C37.4398 41.2599 37.2798 41.2799 36.5898 41.2699C35.8398 41.2699 35.7498 41.2699 35.5098 41.4699C35.2198 41.7599 35.0297 42.1399 34.9697 42.5499C34.9697 42.7099 35.1397 42.6899 35.4697 42.4999H35.4797L35.4398 42.4799Z" fill="#FFB700"/>
<path d="M47.56 42.44L47.87 42.24L48.0801 42.44C48.3601 42.7 48.6901 42.69 48.9601 42.43C49.0801 42.31 49.1901 42.23 49.2001 42.24L49.31 42.44C49.37 42.55 49.5101 42.6 49.7601 42.63C50.0501 42.64 50.1401 42.63 50.2601 42.46L50.3801 42.25L50.6901 42.45C51.5401 43 51.99 42.42 51.6 41.29C51.41 40.71 51.5201 40.39 52.1401 39.67C52.4001 39.36 52.62 39.02 52.62 38.92C52.62 38.78 52.57 38.76 52.22 38.77C51.89 38.77 51.8 38.73 51.62 38.55C51.33 38.24 51.36 37.87 51.67 37.47L51.92 37.16L51.47 36.86C51.11 36.59 50.78 36.3 50.47 35.97C50.2 35.65 49.86 35.38 49.49 35.19C49.11 35 48.7001 34.88 48.2801 34.85L47.6901 34.79V35.24C47.6901 35.8 47.9701 36.35 48.6901 37.28C49.5201 38.33 49.57 38.49 49.6 39.87L49.6401 41.03L49.3901 41.25C49.1801 41.45 49.0901 41.49 48.3901 41.53C47.7301 41.57 47.5801 41.61 47.3901 41.78C47.1701 41.94 47.02 42.18 46.97 42.44C46.93 42.63 46.9401 42.67 47.0801 42.67C47.1701 42.67 47.38 42.58 47.56 42.47V42.44ZM29.7801 39.44C29.8601 39.33 29.9001 39.2 29.9001 39.06C29.9001 38.94 29.98 38.89 30.3 38.84L30.6901 38.79L30.4401 38.58C30.1301 38.33 30.09 38.14 30.37 38.14C30.65 38.14 31.09 37.86 31.17 37.65C31.21 37.55 31.17 37.42 31.12 37.36C30.97 37.19 30.6801 37.21 30.6301 37.41C30.5701 37.61 30.4801 37.61 30.2501 37.41C29.9401 37.1 29.9301 36.46 30.2501 36.09C30.3434 35.97 30.3267 35.85 30.2001 35.73C30.0001 35.53 29.8501 35.16 29.9501 35.06C29.9801 35.04 30.14 35.06 30.3 35.12C30.55 35.2 30.64 35.2 30.74 35.12C31.03 34.88 30.71 34.58 30.24 34.66C30.04 34.68 29.9601 34.66 29.9401 34.56C29.9201 34.48 29.75 34.39 29.56 34.34C29.3334 34.28 29.22 34.33 29.22 34.49C29.22 34.74 29.07 34.79 28.8 34.63C28.57 34.51 28.36 34.61 28.36 34.84C28.36 35.06 28.57 35.17 28.98 35.14C29.28 35.13 29.2901 35.35 29.0001 35.68L28.79 35.93L28.9501 36.17C29.2001 36.52 29.17 37.11 28.91 37.41L28.7001 37.63L28.56 37.44C28.36 37.19 28.1001 37.2 28.0201 37.48C27.9801 37.65 28.02 37.73 28.24 37.93C28.39 38.05 28.62 38.16 28.73 38.16C29.02 38.16 29.0101 38.4 28.7101 38.62L28.4601 38.81L28.8401 38.86C29.0401 38.9 29.22 38.95 29.22 38.98C29.22 39.14 29.47 39.63 29.55 39.63C29.6 39.63 29.7001 39.54 29.7701 39.44H29.7801Z" fill="#FFB700"/>
<path d="M34.5598 37.3601C34.8998 37.2401 35.6198 36.6101 35.6198 36.4701C35.6198 36.4201 35.4197 36.2001 35.1697 35.9701C34.6697 35.5201 34.1098 34.7301 33.9598 34.2801C33.8798 34.0301 33.5198 33.6301 32.4998 32.6301L31.1398 31.3201L30.7498 31.4201C30.5298 31.4701 30.2597 31.5201 30.1597 31.5201C30.0331 31.5201 30.0531 31.5867 30.2197 31.7201L30.4697 31.9201L30.8497 31.7201C31.1897 31.5201 31.1997 31.5201 31.2397 31.6801C31.2697 31.7701 31.2198 31.9301 31.1198 32.0401C31.0298 32.1501 30.9798 32.2901 30.9998 32.3301C31.0398 32.3701 30.9498 32.4501 30.8098 32.5301C30.5598 32.6501 30.3698 33.0701 30.5698 33.0701C30.7598 33.0701 31.1597 32.5701 31.1097 32.4101C31.0797 32.3201 31.1098 32.2401 31.1298 32.2101C31.2898 32.1201 31.2798 32.5101 31.1298 32.7101C31.0298 32.8101 30.9798 32.9301 31.0098 32.9801C31.0398 33.0201 30.9498 33.1101 30.8098 33.1801C30.5598 33.3001 30.3698 33.7201 30.5698 33.7201C30.7698 33.7201 31.1598 33.2501 31.1198 33.0701C31.0998 32.9801 31.0998 32.8801 31.1298 32.8601C31.2398 32.8101 31.2898 33.1101 31.2098 33.2601C31.1898 33.3001 31.1797 33.3501 31.1797 33.4001C31.1797 33.4501 31.1898 33.5001 31.2098 33.5401C31.2998 33.7001 31.2097 34.0001 31.0497 34.1001C30.9897 34.1401 31.0198 34.2201 31.1998 34.3501C31.4498 34.5201 31.4498 34.5501 31.4498 35.3501C31.4498 36.0201 31.4797 36.2001 31.5997 36.3101C31.7197 36.4301 31.7498 36.4301 31.7498 36.3101C31.7498 36.1901 31.9998 36.0101 32.1898 36.0101C32.2498 36.0101 32.6198 36.3201 32.9998 36.7001C33.3898 37.0801 33.7997 37.4101 33.9097 37.4201L34.1797 37.4701C34.1797 37.4701 34.3898 37.4301 34.5698 37.3501L34.5598 37.3601ZM30.3998 34.1001C30.3998 33.8901 29.9497 33.6501 29.4097 33.6001C28.9697 33.5401 28.9697 33.5501 28.9697 33.7601C28.9697 33.9301 29.0297 34.0101 29.3497 34.1401C29.8197 34.3501 30.3998 34.3301 30.3998 34.1001Z" fill="#FFB700"/>
<path d="M30.8899 34.08C31.1199 33.88 31.2199 33.66 31.0799 33.66C30.9299 33.66 30.5299 34.01 30.5299 34.16C30.5299 34.36 30.6099 34.35 30.9099 34.08H30.8999H30.8899ZM30.4299 33.44C30.4399 33.32 30.3699 33.24 30.1399 33.13C29.6399 32.92 29.0699 32.8 28.9299 32.92C28.6699 33.13 28.8399 33.41 29.2599 33.46C29.4299 33.47 29.6599 33.52 29.7699 33.57C30.0999 33.69 30.3899 33.63 30.4299 33.45V33.44ZM30.4299 32.78C30.4499 32.62 30.3399 32.55 29.4299 32.23C28.7399 31.98 28.4399 32.11 28.6699 32.52C28.7499 32.66 28.8699 32.72 29.1599 32.77C29.3699 32.79 29.6599 32.86 29.7999 32.91C30.1799 33.03 30.3999 32.98 30.4199 32.79H30.4299V32.78ZM30.8799 32.17C31.0199 32.03 31.1299 31.87 31.1299 31.8C31.1299 31.61 30.5899 31.96 30.5199 32.21C30.4499 32.5 30.5799 32.48 30.8999 32.17H30.8899H30.8799ZM30.4299 32.13C30.4499 31.93 30.1299 31.75 29.4799 31.62C28.9899 31.51 28.7799 31.57 28.8199 31.8C28.8399 31.92 29.0099 32.01 29.4399 32.15C30.1799 32.37 30.3899 32.37 30.4299 32.14V32.13ZM31.0499 31.21C31.8999 30.83 31.9599 29.9 31.1699 29.65C30.8399 29.55 30.6399 29.61 30.5199 29.82C30.4199 29.99 30.4799 30.3 30.6099 30.3C30.6599 30.3 30.6999 30.36 30.6999 30.42C30.6999 30.76 29.4299 30.9 28.8999 30.63C28.7099 30.54 28.6499 30.29 28.7899 30.29C28.9099 30.29 28.9899 30.04 28.9299 29.88C28.8499 29.63 28.5999 29.55 28.2699 29.65C27.4799 29.85 27.5099 30.77 28.3099 31.15C29.1999 31.47 30.1599 31.49 31.0599 31.2L31.0499 31.21Z" fill="#FFB700"/>
<path d="M30.5398 30.48C30.5398 30.48 30.5698 30.36 30.4898 30.31C30.3198 30.17 30.3298 29.96 30.5098 29.72C30.6598 29.55 30.6698 29.27 30.7198 26.58C30.8098 21.94 31.1598 18.46 31.6098 17.6C31.7998 17.27 31.7698 17.27 31.2998 17.6C30.6798 18.03 30.1698 18.62 29.8398 19.3C29.0698 20.74 28.7998 22.68 28.7998 26.83C28.7998 29.18 28.8098 29.49 28.9498 29.71C29.0698 29.93 29.0698 30.01 28.9998 30.23C28.9398 30.37 28.9098 30.52 28.9398 30.54C29.1098 30.7 30.3598 30.66 30.5398 30.48ZM37.5498 26.06C37.5498 26.06 37.5198 25.81 37.4298 25.61C37.2798 25.29 37.2198 25.23 37.0098 25.23C36.0098 25.14 35.0398 24.87 34.1298 24.43C33.4898 24.14 33.2498 24.08 33.1898 24.16C32.9898 24.35 33.3098 24.78 33.8098 25.02C34.5498 25.29 35.3198 25.44 36.0998 25.48C36.4398 25.48 36.4498 25.48 36.2498 25.77L36.1298 25.97H36.5098L37.1298 26.04C37.3832 26.1 37.5231 26.1034 37.5498 26.05V26.06Z" fill="#FFB700"/>
<path d="M41.5001 28.14C41.5001 28.02 41.14 27.7 40.79 27.49C40.5 27.33 40.4501 27.32 40.4501 27.45C40.4501 27.65 40.2801 28.16 40.2001 28.16C40.1601 28.16 40.1001 28.06 40.0801 27.95C40.0401 27.83 39.9101 27.57 39.7701 27.41L39.5201 27.1L39.35 27.39C39.17 27.66 38.86 27.93 38.73 27.93C38.7 27.93 38.69 27.78 38.73 27.62C38.74 27.42 38.73 27.27 38.67 27.24C38.62 27.2 38.5701 27.22 38.5701 27.26C38.5701 27.36 38.1501 27.84 38.0701 27.84C38.0201 27.84 37.9701 27.72 37.9501 27.54L37.85 26.94C37.82 26.79 37.89 26.89 37.97 27.19L38.17 27.7L38.3701 27.39C38.4601 27.26 38.5301 27.12 38.5701 26.97C38.5701 26.91 38.61 26.88 38.66 26.91C38.71 26.94 38.77 27.15 38.8 27.37L38.86 27.79L39.0801 27.54C39.2001 27.41 39.31 27.28 39.41 27.14C39.5 26.99 39.5101 26.99 39.7001 27.14C39.8001 27.24 39.9601 27.45 40.0601 27.63C40.1601 27.8 40.2501 27.93 40.2601 27.92L40.3401 27.52L40.3901 27.14C40.4001 27.08 41.0601 27.52 41.3101 27.73C41.4601 27.87 41.6101 27.97 41.6401 27.94C41.6701 27.91 41.6901 27.71 41.6901 27.48C41.6901 27.13 41.6501 27.03 41.4401 26.84C41.2734 26.6866 41.1568 26.6666 41.0901 26.78C40.9701 26.99 40.8301 26.99 40.8301 26.78C40.8301 26.63 40.3601 26.04 40.2401 26.04C40.2001 26.04 40.1001 26.16 40.0101 26.33C39.9201 26.49 39.82 26.62 39.8 26.62C39.68 26.62 39.0101 25.87 39.0101 25.74C39.0101 25.64 39.06 25.66 39.17 25.84C39.28 26 39.4101 26.16 39.5601 26.29C39.8101 26.52 39.9101 26.47 40.0101 26.03C40.0501 25.91 40.1001 25.8 40.1301 25.8C40.2301 25.8 40.8001 26.41 40.8801 26.61L40.97 26.81L41.0301 26.58C41.1101 26.31 41.1901 26.31 41.3201 26.56C41.3701 26.66 41.6201 26.88 41.8701 27.03L42.3301 27.33L42.42 27.03C42.47 26.87 42.5401 26.78 42.5701 26.83C42.6201 26.89 42.49 27.39 42.41 27.49C42.41 27.5 42.2501 27.41 42.0801 27.3L41.7701 27.07V27.47C41.7701 27.68 41.74 27.95 41.72 28.05C41.66 28.25 41.5101 28.3 41.5101 28.12H41.5201L41.5001 28.14ZM39.1901 24.97C38.6401 24.52 38.5701 24.42 38.5701 24.2V23.97L38.6201 24.18C38.6501 24.3 38.79 24.51 38.97 24.66L39.29 24.91L39.48 24.68C39.59 24.56 39.6801 24.41 39.6801 24.35C39.6801 24.2 39.7101 24.21 40.0801 24.54C40.4101 24.83 40.4201 24.83 40.4601 24.64C40.5001 24.54 40.4801 24.34 40.4601 24.2C40.3401 23.82 40.3601 23.78 40.5201 24L40.8201 24.35C40.9401 24.49 40.9601 24.49 41.0101 24.31C41.0501 24.2 41.0701 24.01 41.0701 23.88V23.64L41.36 23.98C41.65 24.31 41.6701 24.32 41.7501 24.15C41.8101 24.06 41.85 23.85 41.85 23.69C41.85 23.46 41.87 23.42 41.92 23.49C42.02 23.64 41.9601 24.01 41.7801 24.34L41.66 24.59L41.5001 24.33C41.2901 24 41.2101 24 41.0901 24.35C40.9701 24.69 40.8801 24.71 40.7501 24.45C40.6701 24.29 40.65 24.31 40.6 24.66L40.54 25.04L40.16 24.75L39.7801 24.46L39.5901 24.65C39.5001 24.76 39.4301 24.9 39.4301 24.95C39.4301 25.07 39.3301 25.07 39.1901 24.95V24.97ZM44.0701 23.27C43.8801 23.1 43.7401 22.92 43.7701 22.89C43.8101 22.85 43.83 22.84 43.85 22.87C43.97 23 44.1 23.12 44.23 23.25C44.65 23.7 44.5701 23.71 44.0901 23.27H44.0801H44.0701ZM37.5701 22.6C37.4001 22.35 37.4101 22.2 37.6301 21.92C37.7801 21.73 37.8501 21.71 38.1301 21.75C38.3201 21.76 38.7101 21.92 38.9901 22.1C39.4101 22.35 39.8801 22.48 40.3701 22.48L40.16 22.13C39.88 21.72 39.8801 21.67 40.2101 21.92C40.5401 22.18 40.92 22.26 41.8 22.23H42.23L41.98 21.97C41.64 21.63 41.7401 21.59 42.1301 21.93C42.4801 22.24 42.4701 22.27 41.7101 22.34C41.3901 22.37 41.0701 22.35 40.7601 22.28C40.3401 22.16 40.3101 22.17 40.4001 22.3C40.4501 22.39 40.5201 22.45 40.5601 22.45C40.6101 22.45 40.6501 22.5 40.6501 22.55C40.6501 22.71 39.7301 22.56 39.2701 22.35C38.2701 21.84 38.1501 21.79 37.8901 21.86C37.8201 21.89 37.7601 21.92 37.7101 21.97C37.6601 22.02 37.6201 22.08 37.5901 22.14C37.4301 22.55 38.0101 22.88 38.2501 22.52C38.3301 22.41 38.3101 22.35 38.1901 22.21C38.0201 22.04 38.0401 22.01 38.2701 22.09C38.4301 22.15 38.44 22.54 38.3 22.69C38.14 22.85 37.7401 22.81 37.5901 22.6H37.5701Z" fill="black"/>
<path d="M41.5498 21.5801C41.4298 21.4601 41.5199 21.4301 42.0899 21.4201C42.7899 21.4101 43.2099 21.3001 43.7099 20.9701C44.1099 20.7201 44.2199 20.7701 43.8299 21.0301C43.4899 21.2801 42.9498 21.4501 42.4198 21.5101L41.7799 21.6001C41.6799 21.6201 41.5699 21.6101 41.5299 21.5901H41.5398L41.5498 21.5801Z" fill="black"/>
</g>
</g>
</svg>
