<svg width="60" height="60" viewBox="0 0 60 60" fill="none" xmlns="http://www.w3.org/2000/svg">
<g clip-path="url(#clip0_14226_22783)">
<circle cx="30" cy="30" r="30" fill="#D9D9D9"/>
<path d="M9.3526 25.2858V22.8384H20.8845V25.2858H16.446V38H13.7911V25.2858H9.3526ZM23.0176 38V22.8384H29.0532C32.0399 22.8384 33.8651 24.394 33.8651 26.9244C33.8651 28.6044 33.1184 29.8073 31.6873 30.4088C33.2844 30.9274 34.0932 32.1303 34.0932 33.8933C34.0932 36.4859 32.2888 38 29.1569 38H23.0176ZM28.8251 25.1821H25.6724V29.3096H28.8873C30.3391 29.3096 31.148 28.5421 31.148 27.194C31.148 25.8873 30.3184 25.1821 28.8251 25.1821ZM29.0532 31.5496H25.6724V35.6563H29.0532C30.5466 35.6563 31.3762 34.9303 31.3762 33.5614C31.3762 32.2755 30.5258 31.5496 29.0532 31.5496ZM43.0402 38.2489C38.6224 38.2489 35.7601 35.1792 35.7601 30.4296C35.7601 25.7214 38.7261 22.5895 43.1646 22.5895C46.7528 22.5895 49.4284 24.6843 49.9469 27.9407H47.1469C46.6284 26.1777 45.1143 25.1406 43.1024 25.1406C40.3024 25.1406 38.5394 27.1733 38.5394 30.4088C38.5394 33.6237 40.3231 35.6978 43.1024 35.6978C45.1558 35.6978 46.7321 34.6192 47.2299 32.9392H49.9884C49.4076 36.1333 46.6284 38.2489 43.0402 38.2489Z" fill="#3A3A3A"/>
</g>
<defs>
<clipPath id="clip0_14226_22783">
<rect width="60" height="60" fill="white"/>
</clipPath>
</defs>
</svg>
