<svg width="60" height="60" viewBox="0 0 60 60" fill="none" xmlns="http://www.w3.org/2000/svg">
<mask id="mask0_13628_11163" style="mask-type:luminance" maskUnits="userSpaceOnUse" x="0" y="0" width="60" height="60">
<path d="M30 60C46.5685 60 60 46.5685 60 30C60 13.4315 46.5685 0 30 0C13.4315 0 0 13.4315 0 30C0 46.5685 13.4315 60 30 60Z" fill="white"/>
</mask>
<g mask="url(#mask0_13628_11163)">
<path d="M-10 0H69.99V60H-10V0Z" fill="white"/>
<mask id="mask1_13628_11163" style="mask-type:luminance" maskUnits="userSpaceOnUse" x="-10" y="0" width="80" height="60">
<path d="M70 0H-10V60H70V0Z" fill="white"/>
</mask>
<g mask="url(#mask1_13628_11163)">
<path fill-rule="evenodd" clip-rule="evenodd" d="M-15 40.01H75V50.01H-15V40.01Z" fill="#FFE700"/>
<path fill-rule="evenodd" clip-rule="evenodd" d="M-15 30H75V40H-15V30Z" fill="black"/>
<path fill-rule="evenodd" clip-rule="evenodd" d="M-15 20.01H75V30.01H-15V20.01Z" fill="#DE3908"/>
<path fill-rule="evenodd" clip-rule="evenodd" d="M-15 10.01H75V20.01H-15V10.01Z" fill="#FFE700"/>
<path fill-rule="evenodd" clip-rule="evenodd" d="M-15 0H75V10H-15V0Z" fill="black"/>
<path fill-rule="evenodd" clip-rule="evenodd" d="M39.3402 29.9999C39.3402 32.4799 38.3602 34.8499 36.6002 36.5999C34.8502 38.3499 32.4702 39.3399 30.0002 39.3399C27.5302 39.3399 25.1502 38.3599 23.4002 36.5999C21.6502 34.8499 20.6602 32.4699 20.6602 29.9999C20.6602 27.5299 21.6402 25.1499 23.4002 23.3999C25.1502 21.6499 27.5302 20.6599 30.0002 20.6599C32.4702 20.6599 34.8502 21.6399 36.6002 23.3999C38.3502 25.1499 39.3402 27.5299 39.3402 29.9999Z" fill="#FFFDFF" stroke="black" stroke-width="0.12"/>
<path fill-rule="evenodd" clip-rule="evenodd" d="M28.36 22.8401L27.75 21.7301C27.98 21.5001 28.37 21.3101 29 21.3101L28.93 22.5401L28.34 22.8401H28.35H28.36Z" fill="#DE3108" stroke="black" stroke-width="0.12"/>
<path fill-rule="evenodd" clip-rule="evenodd" d="M28.9502 22.5401L29.0302 21.3101C29.0302 21.3101 30.2802 21.2401 30.9602 22.0601L30.2902 23.0201L28.9302 22.5501H28.9402L28.9502 22.5401Z" fill="#FFE700" stroke="black" stroke-width="0.12"/>
<path fill-rule="evenodd" clip-rule="evenodd" d="M30.2998 23.01L30.9198 22.05C31.3298 22.48 31.5098 22.79 31.5598 23.26C31.5698 23.27 30.5898 23.51 30.5898 23.49L30.2998 23.01Z" fill="#DE3108" stroke="black" stroke-width="0.12"/>
<path fill-rule="evenodd" clip-rule="evenodd" d="M28.66 38.8001C28.66 38.8001 29.82 37.4801 32.07 37.7601C31.73 37.2101 30.63 37.2801 30.63 37.2801C30.63 37.2801 30.3 34.7001 30.56 34.5601C30.82 34.4201 31.97 34.5701 31.97 34.5701C32.11 34.5701 32.37 34.1701 32.16 33.9101C31.96 33.6501 31.36 32.6801 31.61 32.4801C31.86 32.2901 33.18 32.6001 33.18 32.6001L29.43 27.8001C29.43 27.8001 29.04 25.9801 29.82 25.1001C30.75 24.3401 30.64 23.5101 30.62 23.5201C30.49 22.6801 29.21 22.0801 28.35 22.8501C27.85 23.4601 28.19 23.9301 28.19 23.9301C28.19 23.9301 26.84 24.2901 26.8 24.5301C26.74 24.7601 28.31 24.4901 28.31 24.4901L28.16 25.5601C28.16 25.5601 25.11 28.3301 27.46 30.7201L27.53 30.6301C27.53 30.6301 28.35 31.6401 29.21 31.8601C30.03 32.6801 29.95 32.5601 29.95 32.5601C29.95 32.5601 30.1 33.8601 29.95 34.1201C29.75 34.0601 27.69 33.9801 27.38 34.1001C27.1 34.1901 26.04 34.1401 26.3 35.8701L26.69 34.9901C26.69 34.9901 26.65 35.6101 26.91 35.8301C26.86 35.1701 27.16 34.7301 27.16 34.7301C27.16 34.7301 27.21 35.4601 27.37 35.5501C27.53 35.6701 27.53 34.3801 28.42 34.5001C29.29 34.6101 29.93 34.5701 29.93 34.5701C29.93 34.5701 30.22 37.0801 30.13 37.3101C29.5 37.1601 27.97 37.3701 27.88 37.7601C28.77 37.7001 29.18 37.8101 29.18 37.8101C29.18 37.8101 28.47 38.4501 28.69 38.8201L28.66 38.8001Z" fill="black" stroke="black" stroke-width="0.11" stroke-linecap="round" stroke-linejoin="round"/>
<path fill-rule="evenodd" clip-rule="evenodd" d="M29.02 25.1699C29.02 25.1699 26.81 27.6099 27.77 29.4699C27.82 29.2099 27.79 29.0499 27.83 29.0599C27.77 29.0199 28.1 29.2799 28.08 29.2399C28.08 29.0999 27.99 28.8099 27.99 28.8099L28.28 28.8899L28.0999 28.5599L28.53 28.6099C28.53 28.6099 28.38 28.2099 28.42 28.2099L28.77 28.2299C28.14 27.1099 28.73 26.1699 29.02 25.1599V25.1699Z" fill="#9CA69C" stroke="#9CA69C" stroke-width="0.11" stroke-linecap="round" stroke-linejoin="round"/>
<path fill-rule="evenodd" clip-rule="evenodd" d="M29.79 23.0801C29.79 23.0801 29.91 23.9201 29.44 24.1601C29.38 24.2201 29.09 24.3101 29.14 24.4901C29.19 24.7201 29.32 24.6801 29.49 24.6301C29.97 24.5501 30.53 23.5301 29.79 23.0801Z" fill="#9CA69C" stroke="#9CA69C" stroke-width="0.12"/>
<path fill-rule="evenodd" clip-rule="evenodd" d="M28.9698 23.7901C28.9698 23.7901 28.9499 23.8801 28.9199 23.9101C28.8899 23.9401 28.8399 23.9601 28.7999 23.9601C28.7599 23.9601 28.7099 23.9401 28.6799 23.9101C28.6499 23.8801 28.6299 23.8301 28.6299 23.7901C28.6299 23.7501 28.6499 23.7001 28.6799 23.6701C28.7099 23.6401 28.7599 23.6201 28.7999 23.6201C28.8399 23.6201 28.8899 23.6401 28.9199 23.6701C28.9499 23.7001 28.9698 23.7501 28.9698 23.7901Z" fill="white"/>
<path fill-rule="evenodd" clip-rule="evenodd" d="M28.2501 24.49C28.1301 24.6 27.5202 25.23 28.1302 25.46C28.7502 25.3 28.5801 25.18 28.7201 25.04C28.7201 24.75 28.4201 24.68 28.2501 24.5V24.49Z" fill="#DE3108" stroke="black" stroke-width="0.12"/>
<path fill-rule="evenodd" clip-rule="evenodd" d="M29.5999 30.53C29.5599 30.67 29.4199 31.19 29.6099 31.58C30.1499 31.35 30.4 31.42 30.57 31.53C30.14 31.18 29.9599 31.03 29.5999 30.52V30.53Z" fill="#9CA69C" stroke="#9CA69C" stroke-width="0.11" stroke-linecap="round" stroke-linejoin="round"/>
<path fill-rule="evenodd" clip-rule="evenodd" d="M30.52 32.9399L30.54 34.1399C30.54 34.1399 30.96 34.2099 31.15 34.1399C31.34 34.0699 31.15 33.3199 30.52 32.9399Z" fill="white" stroke="white" stroke-width="0.11" stroke-linecap="round" stroke-linejoin="round"/>
<path fill-rule="evenodd" clip-rule="evenodd" d="M33.5198 33.0999C33.5198 33.0999 32.7598 31.2499 30.7998 30.7799C28.8398 30.3099 29.0998 28.2299 29.2498 28.0999C29.3398 27.9199 29.3998 27.6399 29.9598 27.9099C30.5198 28.1799 33.1198 29.4799 33.4998 29.5499C33.8798 29.6199 33.5498 33.1499 33.5198 33.0999Z" fill="#9CA69C"/>
<path d="M33.5198 33.0999C33.5198 33.0999 32.7598 31.2499 30.7998 30.7799C28.8398 30.3099 29.0998 28.2299 29.2498 28.0999C29.3398 27.9199 29.3998 27.6399 29.9598 27.9099C30.5198 28.1799 33.1198 29.4799 33.4998 29.5499C33.8798 29.6199 33.5498 33.1499 33.5198 33.0999ZM33.5198 33.0999H33.5098" stroke="black" stroke-width="0.12"/>
<path fill-rule="evenodd" clip-rule="evenodd" d="M31.6602 30.76C31.6602 30.76 34.2702 32.33 33.4802 33.65C34.2302 33.15 34.0002 32.28 34.0002 32.28C34.0002 32.28 34.6102 33.89 33.1102 34.67C33.2702 34.81 33.3802 34.79 33.3802 34.79L33.1202 35.04C33.1202 35.04 33.0002 35.24 34.0102 34.75C33.7402 34.97 33.7202 35.14 33.7202 35.14C33.7202 35.14 33.7902 35.35 34.4502 34.78C33.9202 35.35 33.8102 35.65 33.8102 35.64C35.2502 35.52 38.3802 30.84 32.8302 29.46L33.0802 29.72L31.6702 30.77H31.6802L31.6602 30.76Z" fill="#DE3108" stroke="black" stroke-width="0.11" stroke-linejoin="round"/>
<path fill-rule="evenodd" clip-rule="evenodd" d="M31.78 30.31C32.13 30.57 32.26 30.66 32.31 30.78C31.98 30.71 31.69 30.73 31.69 30.73C31.69 30.73 30.98 30.05 30.85 29.99C30.76 29.99 30.19 29.64 30.19 29.64C29.92 29.5 29.66 28.55 30.68 28.82C31.07 29.02 31.47 29.2 31.89 29.36L33.14 29.76L33.87 30.57C33.87 30.57 32.58 29.94 32.42 29.93C32.77 30.21 32.97 30.61 32.97 30.61C32.56 30.49 32.21 30.38 31.79 30.32L31.78 30.31Z" fill="white" stroke="black" stroke-width="0.11" stroke-linecap="round" stroke-linejoin="round"/>
<path d="M26.77 24.6001C26.77 24.6001 28 24.3001 28.15 24.3401" stroke="white" stroke-width="0.11" stroke-linecap="round"/>
<path fill-rule="evenodd" clip-rule="evenodd" d="M-15 50.01H75V60.01H-15V50.01Z" fill="#DE3908"/>
</g>
</g>
</svg>
