<svg width="60" height="60" viewBox="0 0 60 60" fill="none" xmlns="http://www.w3.org/2000/svg">
<mask id="mask0_13628_11166" style="mask-type:luminance" maskUnits="userSpaceOnUse" x="0" y="0" width="60" height="60">
<path d="M30 60C46.5685 60 60 46.5685 60 30C60 13.4315 46.5685 0 30 0C13.4315 0 0 13.4315 0 30C0 46.5685 13.4315 60 30 60Z" fill="white"/>
</mask>
<g mask="url(#mask0_13628_11166)">
<path d="M0 0V60L37.33 35.37H80V24.63H37.33L0 0Z" fill="white"/>
<mask id="mask1_13628_11166" style="mask-type:luminance" maskUnits="userSpaceOnUse" x="0" y="0" width="80" height="60">
<path d="M80 0H0V60H80V0Z" fill="white"/>
</mask>
<g mask="url(#mask1_13628_11166)">
<path d="M0 0H80V60H0V0Z" fill="#009543"/>
<path d="M0 0H80V30H0V0Z" fill="#D21034"/>
<path d="M0 0L37.33 24.63H80V35.37H37.33L0 60" fill="black"/>
<path d="M0 0L37.33 24.63H80V35.37H37.33L0 60" stroke="#FDCE12" stroke-width="11.66"/>
<path d="M0 0L37.33 24.63H80M80 35.37H37.33L0 60" stroke="black" stroke-width="6.36"/>
<path d="M10.7501 35.7501V39.1601C13.7201 39.1601 19.5501 36.8901 19.5501 29.5501C19.5501 22.2101 13.3201 20.8501 11.4701 20.8501C9.62009 20.8501 3.8501 22.1901 3.8501 28.1801C3.8501 34.1701 9.50011 34.7501 10.6101 34.7501C11.7201 34.7501 15.8901 33.7401 15.4101 29.2401C15.2901 30.3401 14.7601 31.3501 13.9401 32.0801C13.1101 32.8101 12.0501 33.2201 10.9401 33.2101C7.91009 33.2101 6.0101 30.9601 6.0101 28.7401C6.0101 26.5201 7.85011 23.5401 11.0501 23.5401C14.2501 23.5401 16.5801 26.3801 16.5801 29.2401C16.5801 32.1001 14.3301 35.7501 10.7401 35.7501H10.7501Z" fill="#FDCE12"/>
<path d="M8.14014 31.2899L8.32013 31.4199C8.32013 31.4199 9.73013 28.1999 13.5101 25.9099C13.0301 26.1599 10.5001 27.4299 8.14014 31.2899Z" fill="#FDCE12" stroke="#FDCE12" stroke-width="0.1"/>
<path d="M8.49979 30.7299C8.49979 30.7299 8.06981 29.8499 8.44981 29.4399C8.82981 29.0499 8.6598 30.4899 8.6598 30.4899L8.8198 30.2499C8.8198 30.2499 8.5698 29.1599 8.8498 28.9399C9.1398 28.6999 8.99979 29.9899 8.99979 29.9899L9.17982 29.7599C9.17982 29.7599 8.98981 28.6999 9.26981 28.4999C9.55981 28.2999 9.3798 29.5099 9.3798 29.5099L9.57981 29.2599C9.57981 29.2599 9.42981 28.2499 9.76981 28.0099C10.1098 27.7699 9.80979 28.9699 9.80979 28.9699L10.0398 28.7199C10.0398 28.7199 9.9398 27.7999 10.2298 27.5799C10.5198 27.3799 10.2798 28.4599 10.2798 28.4599L10.4798 28.2299C10.4798 28.2299 10.4198 27.3699 10.6898 27.1699C10.9798 26.9699 10.7198 27.9899 10.7198 27.9899L10.9298 27.7899C10.9298 27.7899 10.8798 26.9199 11.2298 26.7499C11.5798 26.5899 11.1698 27.5599 11.1698 27.5599L11.4198 27.3599C11.4198 27.3599 11.4798 26.3499 11.7898 26.2599C12.0898 26.1599 11.6598 27.1399 11.6598 27.1399L11.8698 26.9599C11.8698 26.9599 11.9798 26.0999 12.3098 25.9999C12.6498 25.8899 12.1098 26.7799 12.1098 26.7799L12.3198 26.6199C12.3198 26.6199 12.5598 25.7599 12.8798 25.6599C13.1798 25.5699 12.5498 26.4799 12.5498 26.4799L12.7598 26.3299C12.7598 26.3299 13.0998 25.5499 13.3898 25.4999C13.6598 25.4499 13.0598 26.1399 13.0598 26.1399L13.3298 25.9899C13.3298 25.9899 13.7698 25.1799 13.9398 25.4199C14.0898 25.6699 13.3098 26.0399 13.3098 26.0399L13.0598 26.1899C13.0598 26.1899 14.0098 25.7399 14.1198 25.9599C14.2298 26.1899 12.8198 26.3399 12.8198 26.3399L12.5898 26.4899C12.5898 26.4899 13.5398 26.2399 13.4198 26.4799C13.2898 26.7199 12.3598 26.6699 12.3598 26.6699L12.1498 26.8199C12.1498 26.8199 13.0998 26.5899 12.9698 26.8199C12.8398 27.0199 11.9198 27.0099 11.9198 27.0099L11.6898 27.1999C11.6898 27.1999 12.6098 26.9499 12.4698 27.2399C12.3398 27.5199 11.2798 27.5099 11.2798 27.5099L11.0298 27.7599C11.0298 27.7599 11.9998 27.4199 11.9098 27.6799C11.8298 27.9299 10.7198 28.0599 10.7198 28.0599L10.4698 28.3099C10.4698 28.3099 11.5198 27.9699 11.1998 28.2799C10.8998 28.6099 10.1298 28.6799 10.1298 28.6799L9.83979 29.0599C9.83979 29.0599 10.8798 28.4299 10.7198 28.7799C10.5798 29.1299 9.55979 29.3699 9.55979 29.3699L9.35981 29.6199C9.35981 29.6199 10.2898 29.0799 10.1898 29.3699C10.0998 29.6899 9.0998 29.9999 9.0998 29.9999L8.9398 30.2299C8.9398 30.2299 10.0398 29.5699 9.94981 29.9099C9.84981 30.2399 8.79981 30.4799 8.79981 30.4799L8.66981 30.6899C8.66981 30.6899 9.67982 30.0999 9.67982 30.3899C9.70982 30.6699 8.48981 30.9499 8.48981 30.9499L8.45982 30.7099L8.49979 30.7299Z" fill="#FDCE12"/>
<path d="M14.1498 31.2899L13.9698 31.4199C13.9698 31.4199 12.5598 28.1999 8.77979 25.9099C9.25979 26.1599 11.7898 27.4299 14.1498 31.2899Z" fill="#FDCE12" stroke="#FDCE12" stroke-width="0.1"/>
<path d="M13.7799 30.7299C13.7799 30.7299 14.2099 29.8499 13.8299 29.4399C13.4499 29.0499 13.6199 30.4899 13.6199 30.4899L13.4599 30.2499C13.4599 30.2499 13.7099 29.1599 13.4299 28.9399C13.1399 28.6999 13.2799 29.9899 13.2799 29.9899L13.0999 29.7599C13.0999 29.7599 13.2899 28.6999 13.0099 28.4999C12.7199 28.2999 12.8999 29.5099 12.8999 29.5099L12.6999 29.2599C12.6999 29.2599 12.8499 28.2499 12.5099 28.0099C12.1699 27.7699 12.4699 28.9699 12.4699 28.9699L12.2399 28.7199C12.2399 28.7199 12.3399 27.7999 12.0499 27.5799C11.7599 27.3799 11.9999 28.4599 11.9999 28.4599L11.7999 28.2299C11.7999 28.2299 11.8599 27.3699 11.5899 27.1699C11.2999 26.9699 11.5599 27.9899 11.5599 27.9899L11.3499 27.7899C11.3499 27.7899 11.3999 26.9199 11.0499 26.7499C10.6999 26.5899 11.1099 27.5599 11.1099 27.5599L10.8599 27.3599C10.8599 27.3599 10.7999 26.3499 10.4899 26.2599C10.1899 26.1599 10.6199 27.1399 10.6199 27.1399L10.4099 26.9599C10.4099 26.9599 10.2999 26.0999 9.96992 25.9999C9.62992 25.8899 10.1699 26.7799 10.1699 26.7799L9.95994 26.6199C9.95994 26.6199 9.71992 25.7599 9.39992 25.6599C9.09992 25.5699 9.72993 26.4799 9.72993 26.4799L9.51994 26.3299C9.51994 26.3299 9.17994 25.5499 8.88994 25.4999C8.61994 25.4499 9.21992 26.1399 9.21992 26.1399L8.94993 25.9899C8.94993 25.9899 8.50992 25.1799 8.33992 25.4199C8.18992 25.6699 8.96992 26.0399 8.96992 26.0399L9.21992 26.1899C9.21992 26.1899 8.26993 25.7399 8.15993 25.9599C8.04993 26.1899 9.45994 26.3399 9.45994 26.3399L9.68992 26.4899C9.68992 26.4899 8.73994 26.2399 8.85994 26.4799C8.98994 26.7199 9.91994 26.6699 9.91994 26.6699L10.1299 26.8199C10.1299 26.8199 9.17992 26.5899 9.30992 26.8199C9.43992 27.0199 10.3599 27.0099 10.3599 27.0099L10.5899 27.1999C10.5899 27.1999 9.66992 26.9499 9.80992 27.2399C9.93992 27.5199 10.9999 27.5099 10.9999 27.5099L11.2499 27.7599C11.2499 27.7599 10.2799 27.4199 10.3699 27.6799C10.4499 27.9299 11.5599 28.0599 11.5599 28.0599L11.8099 28.3099C11.8099 28.3099 10.7599 27.9699 11.0799 28.2799C11.3799 28.6099 12.1499 28.6799 12.1499 28.6799L12.4399 29.0599C12.4399 29.0599 11.3999 28.4299 11.5599 28.7799C11.6999 29.1299 12.7199 29.3699 12.7199 29.3699L12.9199 29.6199C12.9199 29.6199 11.9899 29.0799 12.0899 29.3699C12.1799 29.6899 13.1799 29.9999 13.1799 29.9999L13.3399 30.2299C13.3399 30.2299 12.2399 29.5699 12.3299 29.9099C12.4299 30.2399 13.4799 30.4799 13.4799 30.4799L13.6099 30.6899C13.6099 30.6899 12.5999 30.0999 12.5999 30.3899C12.5699 30.6699 13.7899 30.9499 13.7899 30.9499L13.8199 30.7099L13.7799 30.7299Z" fill="#FDCE12"/>
</g>
</g>
</svg>
