<svg width="60" height="60" viewBox="0 0 60 60" fill="none" xmlns="http://www.w3.org/2000/svg">
<mask id="mask0_13628_11167" style="mask-type:luminance" maskUnits="userSpaceOnUse" x="0" y="0" width="60" height="60">
<path d="M30 60C46.5685 60 60 46.5685 60 30C60 13.4315 46.5685 0 30 0C13.4315 0 0 13.4315 0 30C0 46.5685 13.4315 60 30 60Z" fill="white"/>
</mask>
<g mask="url(#mask0_13628_11167)">
<mask id="mask1_13628_11167" style="mask-type:luminance" maskUnits="userSpaceOnUse" x="-10" y="0" width="80" height="60">
<path d="M70 0H-10V60H70V0Z" fill="white"/>
</mask>
<g mask="url(#mask1_13628_11167)">
<path fill-rule="evenodd" clip-rule="evenodd" d="M-10 0H70V66H-10V0Z" fill="#800000"/>
<path d="M15.8802 41.3899L12.1502 37.5499L11.7002 33.4799L13.2802 28.6199L14.3002 24.9999L14.4102 22.9699L14.1802 21.1599L13.6202 19.3499L13.3902 17.6499L15.4202 15.6199L18.4702 13.0199L20.8402 13.5799L23.6702 13.8099L26.1602 13.1299L29.4402 11.6599L30.4602 11.9999L35.2102 13.6999L38.4902 13.5899L40.6402 12.9099L45.5002 17.3199L46.0602 17.6599L44.8202 20.7099L44.4802 22.7399L45.6102 27.3699L47.3102 32.6799L48.1002 35.6199L47.3102 37.8799L44.7102 41.0399L43.5802 41.8299L16.2302 42.0599L15.8902 41.3799L15.8802 41.3899Z" fill="#76D7EA"/>
<path d="M30.18 48.2799L33.86 46.1999L36.66 44.9199L40.26 43.4799L42.74 42.1199L44.1 41.6399L16.77 41.7999L19.73 43.1599L23.49 44.7599L28.92 47.5599L30.2 48.2799H30.18Z" fill="#99D5A6"/>
<path d="M16.55 41.3399H15.5L12.52 38.5799L12.64 37.6799L14.52 37.7199L16.55 41.3299V41.3399Z" fill="#76D7EA"/>
<path d="M43.7901 40.5399L44.2101 40.8999L42.9301 41.5999L42.8201 41.5699H42.3501L42.4801 40.5899L42.9901 40.3999L43.7801 40.5299L43.7901 40.5399Z" fill="#BFCBCA"/>
<path d="M43.0202 40.6399L43.3203 40.7899L43.6102 40.9899L43.7702 41.2299L43.1403 41.5299L42.9102 41.5699H42.2402L42.2603 41.1299L42.5002 40.7799L43.0103 40.6499L43.0202 40.6399Z" fill="#5A7270"/>
<path d="M19.7298 14.6499C19.8398 14.4599 19.9898 14.2999 20.1798 14.1899C21.1598 14.9599 21.5498 16.2299 21.8298 17.3799C22.5198 15.9199 24.0098 14.7199 25.7098 14.7799C26.0098 14.9399 26.3098 15.1199 26.5998 15.3099C26.5798 16.1999 25.6098 15.2999 25.1198 15.3099C23.7798 15.5099 22.7898 16.7699 22.4298 18.0199C23.0198 17.4999 23.5298 16.8699 24.2498 16.5099H25.9798C26.1798 16.5699 26.3798 16.6299 26.5798 16.7099C26.8398 16.9599 27.2098 17.1799 27.1798 17.5899C26.7698 17.6399 26.4198 17.4299 26.1198 17.1799C25.6598 16.8799 24.9298 16.8399 24.4498 17.1299C23.9698 17.4099 23.4698 17.6699 23.0298 18.0099C22.7298 18.2699 22.5198 18.6299 22.3798 18.9999C22.7298 18.8099 23.0898 18.5099 23.5098 18.7299C23.1598 18.7999 22.4198 19.5199 23.1898 19.3699C23.2698 19.4199 23.4198 19.5099 23.4998 19.5599C23.2698 19.6999 23.0498 19.8399 22.8298 19.9999C23.2698 20.1799 23.7798 20.1999 24.1698 20.4799C23.9298 20.5699 23.6998 20.6399 23.4498 20.6999L23.2798 20.6299C23.0898 20.5599 21.4698 20.4799 21.9898 21.0699C22.0098 21.1599 22.0398 21.3399 22.0598 21.4299C21.9698 21.7699 22.5198 22.6999 21.8698 22.4799C21.9298 21.9299 21.6798 21.4699 21.4298 21.0199C21.4198 20.9299 21.3998 20.7499 21.3898 20.6599C21.4698 20.6199 21.6198 20.5399 21.6998 20.4999C22.3498 20.3599 21.9598 19.5099 22.0298 19.0099C22.0898 18.6899 21.8698 18.4999 21.6298 18.3399C21.6298 18.6499 21.6298 19.2799 21.6198 19.5999C20.6098 19.1699 19.5798 19.4799 18.6998 20.0099C18.3298 20.2499 17.9798 20.5299 17.7598 20.9199C17.5298 20.9799 17.3098 21.0299 17.0798 21.0699C17.0998 20.7599 17.1498 20.4599 17.2098 20.1599C17.6798 19.7599 18.2498 19.5199 18.7798 19.1999C19.4498 19.0999 20.1298 19.0599 20.7998 18.9799C20.8798 18.5399 20.4198 18.3999 20.0998 18.2499C19.2398 18.2499 18.1798 18.1399 17.4998 18.7999C17.0898 19.0799 16.7898 19.5999 16.2598 19.6499C16.0398 18.4799 17.3198 17.9399 18.2598 17.6999C18.8398 17.7199 19.4198 17.7299 20.0098 17.7499C20.2798 17.8199 20.5398 17.9099 20.8198 17.9699C20.4098 17.4699 19.9698 16.9499 19.3398 16.7499C18.7198 16.7199 18.1098 16.8699 17.4898 16.9199C17.5498 16.7099 17.6098 16.4999 17.6798 16.2899C18.0498 16.1899 18.4698 16.1899 18.7598 15.9199C19.9098 15.9899 20.6898 16.9999 21.4098 17.8099C21.3798 17.4799 21.2098 17.1899 21.0298 16.9099C20.5098 16.1899 20.5398 15.1399 19.7098 14.6399L19.7298 14.6499Z" fill="#78BE46"/>
<path d="M21.6401 18.3501C21.8701 18.5101 22.1001 18.7001 22.0401 19.0201C21.9701 19.5201 22.3701 20.3701 21.7101 20.5101C21.7101 20.3301 21.6901 20.1601 21.6601 19.9901C21.6501 19.8701 21.6401 19.7401 21.6201 19.6201C21.6201 19.3101 21.6201 18.6801 21.6301 18.3601L21.6401 18.3501Z" fill="#800000"/>
<path d="M23.1499 19.3799C23.7099 19.1699 24.3099 19.2099 24.8999 19.1799C25.6299 19.5099 26.2599 20.2299 26.0999 21.0799C25.5799 21.2299 25.3299 20.8799 25.2099 20.4299C24.9699 19.6999 24.0999 19.6299 23.4599 19.5599L23.1499 19.3699V19.3799Z" fill="#77BF8E"/>
<path d="M18.9401 20.68C19.8701 20.51 20.6901 19.8 21.6701 19.99C21.6901 20.16 21.7101 20.34 21.7201 20.51C21.2101 20.07 20.6301 20.5 20.1401 20.74C20.0501 20.78 19.8801 20.86 19.7901 20.9C19.3801 20.98 18.9301 21.17 18.9301 21.65C18.7201 21.85 18.5101 22.05 18.3101 22.27C17.7301 22.75 17.7101 23.57 17.2801 24.15C16.9001 24.14 16.9101 23.62 16.8301 23.34C17.2801 22.27 18.0101 21.36 18.9401 20.68Z" fill="#80C192"/>
<path d="M39.9702 24.3299C40.0002 24.0999 39.7102 23.4699 40.1202 23.5499C40.1302 23.8899 40.0802 24.3299 40.5702 24.1699C41.0102 24.2799 40.5702 23.7299 40.5702 23.5399C41.1402 23.3799 40.9502 23.9899 40.9502 24.3399C40.6202 24.3499 40.1902 24.7299 39.9702 24.3399V24.3299Z" fill="#F3E4C1"/>
<path d="M40.1201 23.55C40.2301 23.55 40.4601 23.54 40.5701 23.53C40.5701 23.72 41.0101 24.27 40.5701 24.16C40.0801 24.32 40.1401 23.88 40.1201 23.54V23.55Z" fill="#EBD197"/>
<path d="M33.1901 24.3901C33.6801 24.2301 33.8401 24.8101 33.7701 25.1801C33.4901 25.1901 33.2101 25.1901 32.9301 25.1801C32.9301 24.8901 32.8901 24.5501 33.1801 24.3901H33.1901Z" fill="#EBD0A5"/>
<path d="M21.8501 25.3899L22.0401 25.4099C22.0401 25.8199 22.0401 26.2199 22.0401 26.6299C22.0401 27.8599 22.0301 29.0999 22.0401 30.3299C22.0401 30.7399 22.0401 31.1499 22.0401 31.5599H21.8401C21.8301 29.4999 21.8401 27.4399 21.8501 25.3799V25.3899Z" fill="#CA7977"/>
<path d="M21.8298 31.5701H22.0298C22.0298 32.4801 22.0298 33.4001 21.8598 34.3001C21.8398 33.5901 21.8298 32.8901 21.8198 32.1901V31.5701H21.8298Z" fill="#AE7972"/>
<path d="M28.4901 37.23C29.7801 37.37 30.5001 35.73 31.8301 36.19C32.7201 36.4 34.0001 35.99 34.5901 36.9C33.6901 36.8 32.7801 36.71 31.8801 36.69L31.7101 36.66C30.9901 36.26 30.3801 36.48 30.0301 37.1C29.3701 37.31 28.6701 37.44 28.0601 37.8C27.5201 38.34 27.3401 39.42 26.3701 39.21C26.7701 38.72 27.4001 38.41 27.5801 37.76C27.8601 37.55 28.1501 37.33 28.4901 37.23Z" fill="#CEDCDE"/>
<path d="M30.0298 37.0999C30.3898 36.4799 30.9998 36.2599 31.7098 36.6599C31.5498 36.7999 31.3998 36.9399 31.2498 37.0899C30.8898 37.6099 30.4398 37.5299 30.0298 37.0899V37.0999Z" fill="#C2D1D2"/>
<path d="M31.2498 37.0999C31.3998 36.9499 31.5498 36.8099 31.7098 36.6699L31.8799 36.6999C32.9099 36.6999 33.8599 37.0099 34.4499 37.8699C35.2499 37.6499 36.0798 38.5899 36.8098 38.1299C37.1398 37.8999 37.5299 38.1299 37.8899 38.1499C37.9799 38.2099 38.1699 38.3299 38.2599 38.3899C38.8399 38.9599 39.6098 38.8599 40.3398 38.9599C40.3798 39.0199 40.4699 39.1399 40.5099 39.1999C40.7999 39.8899 41.8499 39.6699 42.4799 39.9399C42.5199 39.9999 42.6098 40.1199 42.6498 40.1799L42.6098 40.3799C42.2898 40.4799 41.9699 40.5899 41.6399 40.6499C41.6799 40.4499 41.7098 40.2499 41.7498 40.0399C41.1698 39.7599 40.5598 39.8999 39.9598 39.9699C39.3098 39.6499 38.6398 39.1699 37.8698 39.5599C37.0898 39.9699 36.2999 39.3699 35.5399 39.2499C35.2899 38.9799 35.0099 38.7499 34.6399 38.6799C33.7899 38.3199 32.7598 38.3599 31.9298 38.7699C31.2198 39.0999 30.5698 38.4899 29.8398 38.7199V37.5299C30.3498 37.8399 30.7599 38.4499 31.4199 38.3599C31.3999 38.0799 31.2698 37.7199 31.6498 37.6399C31.5298 37.4399 31.3798 37.2599 31.2498 37.0799V37.0999Z" fill="#9AAEB1"/>
<path d="M31.8801 36.7C32.7901 36.71 33.6901 36.81 34.5901 36.91C34.5501 37.63 35.1901 37.64 35.6601 37.31C36.2001 37.34 36.7201 37.44 37.2501 37.56C37.4401 37.77 37.6601 37.97 37.8801 38.15C37.5201 38.13 37.1301 37.9 36.8001 38.13C36.0601 38.6 35.2401 37.65 34.4401 37.87C33.8501 37.01 32.9001 36.7 31.8701 36.7H31.8801Z" fill="#ADBFC3"/>
<path d="M34.5902 36.8999C34.6902 36.8999 34.8902 36.9099 34.9902 36.9199C35.2102 37.0499 35.4402 37.1799 35.6602 37.3099C35.1802 37.6399 34.5502 37.6299 34.5902 36.9099V36.8999Z" fill="#CBD9DB"/>
<path d="M34.9902 36.9199C35.7702 36.9799 36.8302 36.7099 37.2502 37.5599C36.7302 37.4399 36.2002 37.3399 35.6602 37.3099C35.4402 37.1799 35.2102 37.0499 34.9902 36.9199Z" fill="#E5EDEF"/>
<path d="M28.0598 37.8001C28.6598 37.4401 29.3598 37.3101 30.0298 37.1001C30.4298 37.5301 30.8798 37.6101 31.2498 37.1001C31.3798 37.2901 31.5298 37.4701 31.6498 37.6601C31.2698 37.7401 31.3898 38.1001 31.4198 38.3801C30.7598 38.4701 30.3498 37.8601 29.8498 37.5501V38.7401C29.6198 38.7901 29.3998 38.8501 29.1898 38.9301C28.6798 39.1501 28.1798 39.4201 27.5998 39.4301C27.1998 39.2901 26.8298 39.4801 26.5398 39.7401L26.3198 39.7601C26.3298 39.6201 26.3498 39.3501 26.3698 39.2101C27.3398 39.4201 27.5198 38.3501 28.0598 37.8001Z" fill="#AABDC1"/>
<path d="M31.9299 38.7799C32.7599 38.3599 33.78 38.3299 34.64 38.6899C34.22 38.8099 33.7899 38.8899 33.3799 39.0199C33.3199 39.3099 33.6799 39.8299 33.2099 39.8699C32.3699 39.9799 32.1299 40.8599 31.6799 41.4599C31.1299 41.4299 30.5999 41.2299 30.0699 41.0699C30.1399 40.4899 29.7099 40.0799 29.2599 39.7999C28.2999 40.4199 27.6999 41.7599 26.3699 41.4799L26.5599 41.8699C25.4399 41.8599 24.2999 41.9199 23.1899 41.6899C23.3399 41.6799 23.6299 41.6499 23.7799 41.6399C23.6999 41.1899 24.2199 41.0999 24.5199 40.9199C24.7999 41.1499 25.0599 41.4099 25.3599 41.6099C26.0199 41.3899 27.2199 41.1099 26.6599 40.0899C26.6299 40.0099 26.5799 39.8299 26.5499 39.7499C26.9399 39.9299 27.4399 39.8899 27.6099 39.4399C28.1799 39.4299 28.68 39.1499 29.2 38.9399C29.74 38.9399 30.3399 38.9399 30.5699 39.5299C31.1099 39.6199 31.6399 39.2399 31.9399 38.7999L31.9299 38.7799Z" fill="#7E9294"/>
<path d="M38.2598 38.3901C39.0098 38.4101 39.9898 38.0901 40.3398 38.9601C39.6098 38.8501 38.8398 38.9601 38.2598 38.3901Z" fill="#D0E1E1"/>
<path d="M29.8399 38.73C30.5699 38.5 31.2199 39.11 31.9299 38.78C31.6299 39.22 31.0999 39.61 30.5599 39.51C30.3299 38.92 29.7299 38.93 29.1899 38.92C29.3999 38.84 29.6199 38.78 29.8399 38.73Z" fill="#8E9EA1"/>
<path d="M33.3799 39.0199C33.7999 38.8899 34.23 38.8099 34.64 38.6899C35.01 38.7499 35.2899 38.9899 35.5399 39.2599C36.2999 39.3799 37.0999 39.9799 37.8699 39.5699C37.5899 40.3099 36.6899 39.8999 36.0799 40.0399C36.2299 40.8899 35.4499 40.9299 34.8199 41.0199C34.3499 40.4099 33.5499 40.1699 32.7999 40.2499C32.4899 40.7299 32.4699 41.6499 31.6899 41.4499C32.1399 40.8499 32.3799 39.9699 33.2199 39.8599C33.6899 39.8199 33.33 39.2999 33.39 39.0099L33.3799 39.0199Z" fill="#77878A"/>
<path d="M40.5098 39.2C41.1498 39.44 42.0398 39.37 42.4798 39.94C41.8598 39.67 40.8098 39.89 40.5098 39.2Z" fill="#CBD8D8"/>
<path d="M26.5498 39.74C26.8398 39.48 27.2098 39.29 27.6098 39.43C27.4398 39.88 26.9398 39.92 26.5498 39.74Z" fill="#8EA5AB"/>
<path d="M37.8699 39.57C38.6299 39.18 39.3099 39.66 39.9599 39.98C40.5599 39.91 41.1699 39.77 41.7499 40.05C41.7199 40.25 41.68 40.46 41.64 40.66C41.97 40.6 42.2899 40.49 42.6099 40.39C42.7199 40.46 42.9299 40.6 43.0299 40.67L42.9399 40.83C42.8499 40.88 42.6599 40.97 42.5699 41.01L42.2399 40.99C41.4399 40.85 40.7199 40.46 39.9799 40.21C39.8499 40.73 40.14 41.73 38.92 41.04C38.41 41.15 38.9899 39.84 38.3599 40.33C37.5799 40.9 36.2899 40.54 35.9899 41.65C34.4199 41.67 32.8499 41.65 31.2899 41.65C30.2499 41.63 29.2199 41.69 28.1899 41.63C28.2599 40.56 29.3899 41 30.0699 41.06C30.5999 41.22 31.1299 41.42 31.6799 41.45C32.4599 41.65 32.4799 40.72 32.7899 40.25C33.5499 40.17 34.3499 40.41 34.8099 41.02C35.4499 40.93 36.2199 40.89 36.0699 40.04C36.6899 39.89 37.5899 40.31 37.8599 39.57H37.8699Z" fill="#697E80"/>
<path d="M25.3301 40.38C25.5701 40.03 25.8801 39.75 26.3301 39.76C26.1301 40.11 26.4901 40.33 26.5901 40.63C26.1601 40.59 25.7501 40.47 25.3301 40.38Z" fill="#ACBFC3"/>
<path d="M26.33 39.76L26.55 39.74C26.58 39.83 26.63 40 26.66 40.08C27.22 41.1 26.03 41.38 25.36 41.6C25.06 41.4 24.8 41.14 24.52 40.91C24.86 40.84 25.17 40.71 25.33 40.38C25.75 40.47 26.16 40.59 26.59 40.63C26.49 40.33 26.13 40.11 26.33 39.76Z" fill="#8DA2A4"/>
<path d="M26.3699 41.47C27.6999 41.75 28.2999 40.41 29.2599 39.8C29.7099 40.08 30.1399 40.49 30.0699 41.07C29.3799 41.01 28.2499 40.57 28.1899 41.64C29.2199 41.7 30.2599 41.64 31.2899 41.66V41.86C30.7299 41.86 30.1799 41.87 29.6199 41.88H29.4499C28.4799 41.86 27.5199 41.87 26.5499 41.86L26.3599 41.46L26.3699 41.47Z" fill="#718B88"/>
<path d="M38.37 40.33C38.99 39.84 38.42 41.14 38.93 41.04C40.14 41.73 39.86 40.74 39.99 40.21C40.73 40.45 41.45 40.84 42.25 40.99C41.63 41.39 40.88 40.89 40.32 41.38C40.62 41.46 40.92 41.53 41.22 41.62C40.6 41.62 39.99 41.65 39.37 41.64C38.87 41.01 37.54 40.8 37.22 41.65C36.81 41.65 36.41 41.66 36 41.65C36.3 40.54 37.6 40.9 38.37 40.33Z" fill="#5A7170"/>
<path d="M42.6501 40.1799C43.0901 40.1899 43.5101 40.2999 43.8501 40.5799C43.5801 40.5999 43.3101 40.6299 43.0401 40.6499C42.9401 40.5799 42.7201 40.4399 42.6201 40.3699L42.6601 40.1699L42.6501 40.1799Z" fill="#BECBCA"/>
<path d="M23.1902 41.6799C23.4502 40.7299 24.4502 40.4199 25.3202 40.3799C25.1602 40.7099 24.8502 40.8399 24.5102 40.9099C24.2102 41.0899 23.6902 41.1899 23.7702 41.6299C23.6202 41.6399 23.3302 41.6599 23.1802 41.6799H23.1902Z" fill="#B4BDC1"/>
<path d="M37.2102 41.64C37.5302 40.78 38.8602 41 39.3602 41.63C39.0802 41.64 38.8002 41.66 38.5202 41.68C38.0802 41.67 37.6402 41.66 37.2002 41.64H37.2102Z" fill="#4C6865"/>
<path d="M40.3198 41.37C40.8798 40.88 41.6298 41.38 42.2498 40.98L42.5798 41C42.9898 41.42 42.5398 41.52 42.1598 41.63C41.8498 41.63 41.5398 41.63 41.2298 41.62C40.9298 41.53 40.6298 41.46 40.3298 41.38L40.3198 41.37Z" fill="#4C645E"/>
<path d="M31.29 41.65C32.86 41.64 34.42 41.65 35.99 41.65C36.4 41.65 36.8 41.65 37.21 41.65C37.65 41.66 38.09 41.67 38.53 41.68C38.46 41.73 38.31 41.84 38.24 41.9C37.43 41.88 36.61 41.87 35.8 41.87C34.3 41.85 32.8 41.87 31.3 41.87V41.6699L31.29 41.65Z" fill="#68A787"/>
<path d="M23.8398 43.33C24.1898 42.59 25.0298 43.11 25.5598 43.36C25.4198 44 24.4498 43.42 23.9398 43.67C23.9198 43.58 23.8598 43.41 23.8398 43.33Z" fill="#D9F1D2"/>
<path fill-rule="evenodd" clip-rule="evenodd" d="M32.5899 16.4601L31.9599 16.1501L31.3499 16.5001L31.4399 15.8001L30.9199 15.3301L31.6099 15.2001L31.8999 14.5601L32.2299 15.1801L32.9299 15.2601L32.4499 15.7701L32.5899 16.4601ZM37.8899 17.4801L37.2599 17.1701L36.6499 17.5201L36.7399 16.8201L36.2199 16.3501L36.9099 16.2201L37.1999 15.5801L37.5299 16.2001L38.2299 16.2801L37.7499 16.7901L37.8899 17.4801ZM41.1099 24.7501L40.4799 24.4401L39.8699 24.7901L39.9599 24.0901L39.4399 23.6201L40.1299 23.4901L40.4199 22.8501L40.7499 23.4701L41.4499 23.5501L40.9699 24.0601L41.1099 24.7501ZM33.9499 25.6201L33.3199 25.3101L32.7099 25.6601L32.7999 24.9601L32.2799 24.4901L32.9699 24.3601L33.2599 23.7201L33.5899 24.3401L34.2899 24.4201L33.8099 24.9301L33.9499 25.6201ZM37.5899 19.9101L37.2299 19.7201L36.8899 19.9401L36.9399 19.5101L36.6499 19.2201L37.0399 19.1401L37.1999 18.7401L37.3899 19.1201L37.7899 19.1701L37.5199 19.4801L37.5999 19.9101H37.5899ZM36.1699 20.0601L35.8099 19.8701L35.4699 20.0901L35.5199 19.6601L35.2299 19.3701L35.6199 19.2901L35.7799 18.8901L35.9699 19.2701L36.3599 19.3201L36.0899 19.6301L36.1699 20.0601ZM36.1499 21.5301L35.7899 21.3401L35.4499 21.5601L35.4999 21.1301L35.2099 20.8401L35.5999 20.7601L35.7599 20.3601L35.9499 20.7401L36.3499 20.7901L36.0799 21.1001L36.1599 21.5301H36.1499ZM36.7699 22.7801L36.4099 22.5901L36.0699 22.8101L36.1199 22.3801L35.8299 22.0901L36.2199 22.0101L36.3799 21.6101L36.5699 21.9901L36.9599 22.0401L36.6899 22.3501L36.7699 22.7801ZM37.4099 24.2101L37.0499 24.0201L36.7099 24.2401L36.7599 23.8101L36.4699 23.5201L36.8599 23.4401L37.0199 23.0401L37.2099 23.4201L37.6099 23.4701L37.3399 23.7801L37.4199 24.2001L37.4099 24.2101ZM34.6499 20.5401L34.2899 20.3501L33.9499 20.5701L33.9999 20.1401L33.7099 19.8501L34.0999 19.7701L34.2599 19.3701L34.4499 19.7501L34.8399 19.8001L34.5699 20.1101L34.6499 20.5401Z" fill="#F7C02D"/>
<path fill-rule="evenodd" clip-rule="evenodd" d="M21.8701 33.9101C21.8501 33.4401 21.8301 32.1001 21.8401 31.8401V31.5801H22.0301V31.9601C22.0301 32.6701 22.0001 33.2501 21.9301 33.7901C21.8801 34.2001 21.8801 34.2101 21.8601 33.9201L21.8701 33.9101Z" fill="#CA7978"/>
<path fill-rule="evenodd" clip-rule="evenodd" d="M24.9102 25.08C24.5502 24.95 24.3802 24.73 23.9202 23.8C23.6502 23.26 23.0402 22.22 22.8002 21.88C22.6102 21.62 22.3802 21.38 22.0802 21.1C21.9902 21.02 21.9002 20.92 21.8802 20.89C21.7802 20.69 22.1402 20.56 22.7902 20.57C23.0302 20.57 23.0202 20.58 22.7502 20.6C22.6402 20.6 22.5602 20.62 22.5602 20.63C22.5602 20.64 22.6902 20.81 22.8502 21.02C23.8802 22.34 24.4102 23.2 24.7502 24.15C24.8502 24.43 25.0302 25.05 25.0102 25.09C25.0102 25.12 24.9902 25.12 24.8902 25.09L24.9102 25.08ZM25.0402 22.26C24.6002 21.75 24.0502 21.19 23.6102 20.81C23.4602 20.69 23.4402 20.65 23.4702 20.64C23.6802 20.56 24.1102 20.44 24.1402 20.46C24.2602 20.51 25.0702 21.3 25.4202 21.7L25.5502 21.85L25.4402 22.13C25.3802 22.28 25.3202 22.43 25.3002 22.46L25.2702 22.52L25.0502 22.26H25.0402ZM21.8002 22.89C21.8002 22.89 21.7502 22.68 21.6902 22.46C21.5602 21.94 21.4902 21.53 21.4702 21.29V21.1L21.6102 21.41C21.7902 21.77 21.8502 21.98 21.8702 22.29V22.51L21.9502 22.52C22.0602 22.54 22.0902 22.53 22.1502 22.47C22.2002 22.42 22.2102 22.4 22.2002 22.3C22.1802 22.15 22.1802 22.11 22.1202 21.85C22.0902 21.73 22.0702 21.59 22.0802 21.55C22.0802 21.48 22.1002 21.49 22.2102 21.72C22.3302 21.96 22.3902 22.12 22.4602 22.37L22.4902 22.5L22.2702 22.66C21.9702 22.87 21.8302 22.94 21.8002 22.87V22.89ZM27.5502 19.81C27.2802 19.71 27.0502 19.6 26.5902 19.35C25.8502 18.94 25.5502 18.81 25.1602 18.72C24.8702 18.65 24.4202 18.65 23.8602 18.72C23.5302 18.76 23.4702 18.76 23.4002 18.73C23.3002 18.69 23.1402 18.67 23.1302 18.69C23.1302 18.69 23.0802 18.71 23.0302 18.71C22.9402 18.71 22.5502 18.89 22.4802 18.96C22.4402 19 22.3902 19.02 22.3902 19C22.3902 19 22.4102 18.96 22.4202 18.92C22.4402 18.88 22.4502 18.85 22.4402 18.83C22.4402 18.82 22.4402 18.81 22.4402 18.8C22.4502 18.8 22.5002 18.73 22.5402 18.65C22.6602 18.45 22.8002 18.26 22.9002 18.16L22.9902 18.07V18.22C23.0302 18.47 22.9902 18.46 23.5602 18.29C24.2302 18.09 24.4402 18.05 24.7802 18.05H25.0502L25.1802 18.14C25.5202 18.38 25.9502 18.5 26.2102 18.44C26.2902 18.42 26.3102 18.43 26.5702 18.56C27.0402 18.8 27.4702 19.16 27.6202 19.43C27.6902 19.55 27.7702 19.8 27.7502 19.85C27.7502 19.87 27.7002 19.86 27.5402 19.81H27.5502Z" fill="#78BE8D"/>
<path fill-rule="evenodd" clip-rule="evenodd" d="M34.7501 41.8599C31.3601 41.8499 31.3301 41.8499 31.3301 41.7599C31.3301 41.6699 31.3601 41.6699 34.9101 41.6699H38.4901L38.3601 41.7799C38.2901 41.8399 38.2201 41.8799 38.2101 41.8799C38.2001 41.8799 36.6501 41.8699 34.7601 41.8599H34.7501Z" fill="#99D5A6"/>
<path fill-rule="evenodd" clip-rule="evenodd" d="M16.5 41.5701H43.49V41.8801H16.5V41.5701Z" fill="#99D5A6"/>
<path fill-rule="evenodd" clip-rule="evenodd" d="M21.73 32.4401V23.3101H22.17V41.5701H21.73V32.4401Z" fill="#800000"/>
<path fill-rule="evenodd" clip-rule="evenodd" d="M21.73 23.3199C21.75 23.1999 21.76 23.1399 21.76 23.1399L21.78 23.0599L21.81 23.0299L21.85 22.9599L21.89 22.9199H21.95H22.01L22.04 22.9499L22.07 22.9999L22.09 23.0399L22.11 23.0899L22.13 23.1499V23.2499L22.15 23.2699V23.3199L21.73 23.3099V23.3199Z" fill="#800000"/>
<path fill-rule="evenodd" clip-rule="evenodd" d="M29.4502 48.6599C29.0302 48.3299 28.1202 47.7999 26.9802 47.2299C25.9902 46.7299 22.2202 44.9999 20.3902 44.1899C16.6702 42.5599 15.0001 41.7399 14.2401 41.1599C12.9301 40.1599 11.8201 38.6199 11.2201 36.9599C10.7401 35.6599 11.0102 33.9199 12.1702 30.8999C12.8402 29.1299 13.2701 27.5899 13.6601 25.4499C14.2701 22.1199 14.1502 21.0499 12.8902 18.4599L12.4802 17.6299L12.6201 17.4899C12.7001 17.4099 14.0101 16.2799 15.5301 14.9699C17.8501 12.9699 18.3301 12.5899 18.4601 12.6199C18.5501 12.6399 19.0501 12.7499 19.5702 12.8799C21.1002 13.2499 22.3502 13.4299 23.3202 13.4299C24.4102 13.4299 25.8901 12.8899 28.2101 11.6399C28.7301 11.3599 29.2101 11.0899 29.2801 11.0499C29.3901 10.9799 29.4601 11.0099 29.7801 11.1999C30.9301 11.8999 32.9201 12.7899 34.0801 13.1399C35.5401 13.5699 37.4201 13.4799 39.7201 12.8899L40.5601 12.6699L40.7801 12.8199C41.2001 13.1099 44.2701 15.5799 46.4001 17.3399C46.5101 17.4299 46.5001 17.4599 46.2401 18.0499C45.8601 18.8799 45.2902 20.3799 45.1702 20.8499C44.9002 21.9199 45.2301 24.4599 45.9701 26.9999C46.1301 27.5599 46.6402 29.1499 47.1002 30.5199C48.2502 33.9599 48.5101 35.0899 48.4401 36.1399C48.3301 37.7599 47.0302 39.8099 45.2902 41.1199C44.5802 41.6599 43.3001 42.3199 40.7101 43.4699C33.6001 46.6499 31.2201 47.8099 30.1201 48.6499C29.9401 48.7799 29.7901 48.8899 29.7701 48.8899C29.7601 48.8899 29.6201 48.7799 29.4601 48.6599H29.4502ZM30.0801 47.7399C30.4201 47.4599 31.4801 46.8399 32.3501 46.3899C33.1301 45.9899 37.0802 44.1699 39.8202 42.9499C41.2402 42.3199 43.0001 41.4799 43.6501 41.1399C44.0101 40.9499 44.7102 40.4099 45.1402 39.9799C46.3502 38.7799 47.4501 36.6599 47.4401 35.5099C47.4401 34.6599 47.0001 32.9399 46.4001 31.3699C45.7601 29.6999 45.5502 29.0799 45.1402 27.5599C44.4002 24.8199 44.1001 23.1999 44.1501 22.1099C44.1901 21.0899 44.5901 19.6599 45.2701 18.0399L45.3701 17.8099L43.9301 16.5899C43.1401 15.9199 42.0302 14.9799 41.4802 14.5199L40.4802 13.6699L39.3902 13.8699C37.2802 14.2499 36.0101 14.3699 35.0801 14.2699C34.0801 14.1599 32.7801 13.6999 30.8101 12.7699C30.2201 12.4899 29.6901 12.2499 29.6301 12.2299C29.5801 12.2099 29.1201 12.3999 28.6001 12.6499C27.4601 13.1999 26.0701 13.7699 25.2701 14.0099C23.9001 14.4299 22.6901 14.3999 19.7701 13.8599L18.6801 13.6599L17.8401 14.3799C17.3801 14.7699 16.2902 15.7099 15.4202 16.4499L13.8401 17.7999L14.1501 18.5699C14.5501 19.5699 14.8002 20.3299 14.9802 21.1699C15.2302 22.3099 15.1001 23.7399 14.5301 26.3199C14.0901 28.2899 13.7401 29.4299 13.1101 30.8699C12.3101 32.7099 11.9802 33.9799 11.9802 35.2599C11.9802 36.0099 12.0001 36.1499 12.1601 36.6199C12.6901 38.1599 13.7702 39.6699 15.0402 40.6299C15.6602 41.1099 17.2002 41.8699 20.2002 43.1999C26.2502 45.8799 28.4702 46.9699 29.3902 47.6999C29.5502 47.8199 29.7202 47.9299 29.7602 47.9299C29.8102 47.9299 29.9501 47.8499 30.0801 47.7399Z" fill="#F7912D"/>
<path d="M29.95 43.38C30.3 42.64 31.14 43.16 31.67 43.41C31.53 44.05 30.5599 43.47 30.0499 43.72C30.0299 43.63 29.97 43.46 29.95 43.38ZM29.7699 45.48C30.1199 44.74 30.9599 45.26 31.4899 45.51C31.3499 46.15 30.3799 45.57 29.8699 45.82C29.8499 45.73 29.7899 45.56 29.7699 45.48ZM26.9999 44.92C27.3499 44.18 28.1899 44.7 28.7199 44.95C28.5799 45.59 27.6099 45.01 27.0999 45.26C27.0799 45.17 27.0199 45 26.9999 44.92ZM27.0699 42.93C27.4199 42.19 28.2599 42.71 28.7899 42.96C28.6499 43.6 27.68 43.02 27.17 43.27C27.15 43.18 27.0899 43.01 27.0699 42.93ZM20.9399 43.09C21.2899 42.35 22.1299 42.87 22.6599 43.12C22.5199 43.76 21.5499 43.18 21.0399 43.43C21.0199 43.34 20.9599 43.17 20.9399 43.09ZM32.7699 44.02C33.1199 43.28 33.9599 43.8 34.4899 44.05C34.3499 44.69 33.3799 44.11 32.8699 44.36C32.8499 44.27 32.7899 44.1 32.7699 44.02ZM34.9099 42.83C35.2599 42.09 36.0999 42.61 36.6299 42.86C36.4899 43.5 35.5199 42.92 35.0099 43.17C34.9899 43.08 34.9299 42.91 34.9099 42.83ZM38.1899 42.38C38.5399 41.64 39.3799 42.16 39.9099 42.41C39.7699 43.05 38.7999 42.47 38.2899 42.72C38.2699 42.63 38.2099 42.46 38.1899 42.38Z" fill="#D9F1D2"/>
<path d="M22.4 22.44L22.23 21.83L22.11 21.53L22.07 21.37L21.53 20.95H21.46L21.49 21.34L21.68 21.98L21.89 22.66L22.42 22.44H22.4Z" fill="#78BE8D"/>
<path d="M22.9601 18.3799L23.0001 18.1399L22.9801 17.9299L22.3501 18.3699L22.4201 18.9399L23.0001 18.7299L22.9601 18.3699V18.3799Z" fill="#77BF8E"/>
<path d="M19.8501 20.8501L19.5301 21.0701L19.0801 21.4301L18.8701 21.6901L18.6401 21.6201L18.8701 21.1601L19.3301 20.8901L19.8401 20.8601L19.8501 20.8501Z" fill="#77BF8F"/>
<path fill-rule="evenodd" clip-rule="evenodd" d="M18.7499 21.6401L18.6499 21.6101L18.7599 21.3801L18.8699 21.1501L19.0999 21.0201L19.3299 20.8901H19.5599C19.6899 20.8701 19.7999 20.8601 19.8099 20.8601C19.8199 20.8601 19.7699 20.9001 19.6799 20.9601C19.5999 21.0101 19.4299 21.1401 19.2999 21.2401C19.0999 21.4001 19.0599 21.4401 18.9799 21.5301C18.9299 21.5901 18.8899 21.6501 18.8799 21.6601C18.8699 21.6801 18.8599 21.6801 18.7399 21.6401H18.7499Z" fill="#78BE8D"/>
<path fill-rule="evenodd" clip-rule="evenodd" d="M18.7499 21.6401C18.6999 21.6201 18.6499 21.6101 18.6499 21.6101C18.6499 21.6101 18.6999 21.5001 18.7599 21.3801L18.8699 21.1501L19.0999 21.0201L19.3299 20.8901H19.5399C19.6199 20.8701 19.7099 20.8701 19.7899 20.8601C19.8299 20.8601 19.8299 20.8601 19.8199 20.8701C19.6899 20.9501 19.4699 21.1101 19.2999 21.2501C19.0899 21.4201 19.0299 21.4801 18.9299 21.6201C18.9099 21.6501 18.8799 21.6801 18.8699 21.6801C18.8699 21.6801 18.8099 21.6701 18.7599 21.6501L18.7499 21.6401Z" fill="#78BE8D"/>
<path fill-rule="evenodd" clip-rule="evenodd" d="M18.7602 21.6401C18.7602 21.6401 18.6902 21.6201 18.6602 21.6101C18.6602 21.6101 18.7101 21.5001 18.7701 21.3801L18.8802 21.1501L19.1201 21.0101L19.3601 20.8701H19.6002C19.7302 20.8501 19.8401 20.8501 19.8401 20.8501C19.8401 20.8501 19.8001 20.8901 19.7401 20.9301C19.6001 21.0201 19.5102 21.0901 19.3102 21.2501C19.1102 21.4101 19.0601 21.4601 18.9601 21.5901C18.9201 21.6401 18.8902 21.6801 18.8802 21.6801C18.8402 21.6801 18.8101 21.6601 18.7701 21.6501L18.7602 21.6401Z" fill="#78BE8D"/>
<path fill-rule="evenodd" clip-rule="evenodd" d="M17.1901 24.1299C17.1301 24.1199 17.0901 24.0899 17.0401 24.0299C16.9701 23.9499 16.9301 23.8399 16.8701 23.5199L16.8301 23.3299L16.8701 23.2399C17.0201 22.8999 17.2401 22.4999 17.4701 22.1799C17.6901 21.8599 17.8901 21.6299 18.1901 21.3299C18.4301 21.0899 18.5501 20.9899 18.7801 20.7999L18.9401 20.6799L19.0501 20.6599C19.2301 20.6199 19.5301 20.5099 19.9501 20.3399C20.1701 20.2499 20.4201 20.1499 20.5001 20.1199C20.6601 20.0599 20.8901 19.9999 21.0401 19.9799C21.2001 19.9599 21.4301 19.9499 21.5601 19.9699C21.6201 19.9699 21.6701 19.9899 21.6801 19.9899C21.6901 19.9999 21.7301 20.4999 21.7201 20.4899C21.7201 20.4899 21.6801 20.4599 21.6401 20.4399C21.4701 20.3299 21.2701 20.2899 21.0401 20.3399C20.8701 20.3699 20.7201 20.4399 20.3401 20.6299C20.2401 20.6799 20.0901 20.7599 20.0201 20.7899C19.9001 20.8499 19.8801 20.8499 19.8101 20.8499C19.7701 20.8499 19.6501 20.8499 19.5501 20.8599H19.3601L19.1301 20.9999L18.9001 21.1299L18.7801 21.3599C18.7201 21.4899 18.6601 21.5899 18.6601 21.5999C18.6601 21.5999 18.7101 21.6199 18.7701 21.6399C18.8301 21.6599 18.8801 21.6699 18.8801 21.6699C18.8801 21.6699 18.7201 21.8399 18.5201 22.0399C18.2901 22.2699 18.1301 22.4399 18.0801 22.4999C17.9401 22.6899 17.8501 22.8699 17.6601 23.3599C17.5201 23.7399 17.4501 23.8699 17.3401 24.0499C17.2801 24.1399 17.2801 24.1399 17.2001 24.1199L17.1901 24.1299Z" fill="#78BE8D"/>
<path fill-rule="evenodd" clip-rule="evenodd" d="M23.9301 23.8201C23.7501 23.4701 23.4601 22.9401 23.1801 22.4801C22.8001 21.8601 22.6701 21.6901 22.1801 21.2001C22.0301 21.0501 21.9001 20.9201 21.9001 20.9301C21.9001 20.9301 21.9401 21.0001 21.9601 21.0401C21.9801 21.0701 22.0001 21.1201 22.0401 21.3001C22.0801 21.5101 22.0901 21.5301 22.1401 21.6301C22.2201 21.7801 22.3101 21.9801 22.3501 22.1001C22.3901 22.2001 22.4701 22.4801 22.4701 22.5101C22.4701 22.5101 22.4501 22.5301 22.4301 22.5501C22.1401 22.7501 22.0501 22.8101 21.9601 22.8501C21.8501 22.9101 21.8101 22.9101 21.7901 22.8701C21.7701 22.8101 21.6401 22.2801 21.5701 21.9701C21.5201 21.7101 21.4601 21.3801 21.4501 21.2301C21.4501 21.1501 21.4101 20.8101 21.4001 20.7101V20.6601L21.5601 20.5801C21.6501 20.5401 21.7501 20.4901 21.7701 20.4901C21.8401 20.4701 21.9301 20.4101 21.9701 20.3501C22.0901 20.1901 22.1101 19.9901 22.0501 19.5201C22.0301 19.3201 22.0201 19.1301 22.0301 18.9301C22.0301 18.8501 22.0301 18.8201 22.0201 18.7701C21.9901 18.6901 21.9201 18.5901 21.8401 18.5101C21.7701 18.4401 21.6501 18.3501 21.6301 18.3501C21.6301 18.3501 21.6301 18.6301 21.6201 18.9701C21.6201 19.3101 21.6201 19.5901 21.6101 19.5901C21.6101 19.5901 21.5601 19.5801 21.5101 19.5601C20.8601 19.3201 20.1501 19.3501 19.3801 19.6701C18.9001 19.8701 18.4601 20.1401 18.1301 20.4601C17.9901 20.6001 17.9101 20.6901 17.8101 20.8301C17.7801 20.8801 17.7401 20.9201 17.7301 20.9301C17.6701 20.9501 17.3901 21.0101 17.2701 21.0301C17.1901 21.0401 17.1201 21.0601 17.1001 21.0601H17.0801V20.9701C17.1001 20.7401 17.1901 20.1701 17.2101 20.1501C17.3901 19.9901 17.7001 19.7901 18.1901 19.5201C18.3401 19.4401 18.5401 19.3301 18.6201 19.2801L18.7701 19.1901L19.0101 19.1601C19.2801 19.1301 19.4501 19.1101 20.0501 19.0501C20.2801 19.0301 20.5401 19.0001 20.6301 18.9901L20.7901 18.9701V18.9201C20.8101 18.7901 20.7601 18.6501 20.6601 18.5501C20.5801 18.4701 20.4801 18.4101 20.2601 18.3101L20.0901 18.2301H19.5701C19.0301 18.2301 18.8901 18.2301 18.6201 18.2701C18.4701 18.2901 18.2601 18.3401 18.1301 18.3901C17.9301 18.4601 17.7101 18.5901 17.5601 18.7201C17.5201 18.7501 17.4501 18.8101 17.4001 18.8501C17.3501 18.8901 17.2201 19.0001 17.1101 19.1101C16.7601 19.4401 16.6201 19.5401 16.4001 19.6001C16.3601 19.6101 16.3101 19.6201 16.2901 19.6201C16.2501 19.6201 16.2501 19.6201 16.2401 19.5801C16.2201 19.5001 16.2301 19.2501 16.2401 19.1501C16.3201 18.7601 16.5801 18.4401 17.0401 18.1601C17.2601 18.0301 17.6101 17.8801 17.9301 17.7801C18.2501 17.6801 18.1201 17.6901 19.1301 17.7201L20.0101 17.7501L20.2701 17.8201C20.6101 17.9201 20.7901 17.9701 20.8001 17.9601C20.8001 17.9601 20.7601 17.9001 20.7001 17.8301C20.2101 17.2401 19.8501 16.9401 19.4501 16.7801C19.3201 16.7301 19.2201 16.7201 18.9401 16.7401C18.7101 16.7501 18.5701 16.7701 18.1501 16.8301C17.7601 16.8801 17.5101 16.9101 17.5001 16.9101C17.4901 16.9001 17.6601 16.3301 17.6801 16.3001C17.6801 16.3001 17.7001 16.2901 17.7201 16.2801C17.8801 16.2501 18.2301 16.1701 18.3201 16.1501L18.4301 16.1201H18.9701H19.5101L19.6401 16.1901C19.9701 16.3601 20.2901 16.6201 20.6501 16.9801C20.7801 17.1201 21.1701 17.5501 21.3501 17.7601C21.3801 17.7901 21.4001 17.8201 21.4101 17.8201C21.4101 17.8201 21.4101 17.7101 21.3701 17.6001C21.3201 17.4101 21.2201 17.2001 21.0201 16.8901C20.9301 16.7501 20.8501 16.6001 20.7801 16.4401C20.7301 16.3401 20.6601 16.1401 20.6601 16.1201C20.6601 16.1201 20.8401 16.1201 21.0501 16.1201H21.4401V16.1501C21.5501 16.4201 21.6701 16.8201 21.7601 17.1701C21.7901 17.2701 21.8101 17.3701 21.8201 17.3701C21.8201 17.3701 21.8601 17.3301 21.9101 17.2301C22.1001 16.8701 22.3301 16.5301 22.6001 16.2301L22.7001 16.1101H23.5601L23.4601 16.2101C23.0901 16.5801 22.7701 17.0901 22.5601 17.6301C22.5101 17.7701 22.4301 18.0101 22.4301 18.0101C22.4301 18.0101 22.6001 17.8601 22.9501 17.5301C23.5501 16.9601 23.7901 16.7601 24.1601 16.5601L24.2601 16.5001H25.9801L26.1301 16.5501C26.3201 16.6101 26.5701 16.7001 26.5901 16.7101C26.6001 16.7101 26.6001 16.8001 26.6001 17.1001V17.4701L26.5501 17.4401C26.4501 17.3901 26.3701 17.3401 26.2401 17.2401C26.0901 17.1301 26.0101 17.0801 25.8901 17.0401C25.4801 16.8801 24.9801 16.8801 24.6101 17.0401C24.5301 17.0701 23.9501 17.4001 23.6901 17.5601C23.4401 17.7101 23.1301 17.9201 23.0201 18.0101L22.9901 18.0401L23.0101 18.2001C23.0301 18.3901 23.0401 18.4101 23.1001 18.4101C23.1501 18.4101 23.1801 18.4101 23.6601 18.2601C24.2801 18.0801 24.4301 18.0501 24.8101 18.0401H25.0301L25.1601 18.1201C25.3701 18.2601 25.5501 18.3401 25.7601 18.4001C25.8501 18.4201 25.8901 18.4301 26.0101 18.4301C26.0801 18.4301 26.1501 18.4301 26.2301 18.4301H26.3001L26.4401 18.5001L26.5801 18.5701V18.9501C26.5801 19.1601 26.5801 19.3301 26.5801 19.3301C26.5801 19.3301 26.4501 19.2601 26.2901 19.1801C25.3001 18.6601 24.9401 18.5901 23.8201 18.7001C23.6801 18.7101 23.5401 18.7301 23.5001 18.7301C23.4201 18.7301 23.3601 18.7601 23.2101 18.8501C23.0801 18.9401 22.9001 19.1101 22.8601 19.1901C22.8401 19.2201 22.8301 19.2601 22.8301 19.2801C22.8301 19.3201 22.8701 19.3601 22.9201 19.3701C22.9901 19.3801 23.1301 19.3701 23.2201 19.3401C23.5101 19.2501 23.8201 19.2101 24.4601 19.1901H24.8801L24.9901 19.2401C25.5701 19.5501 25.9501 20.0101 26.0701 20.5401C26.0901 20.6401 26.1001 20.9001 26.0801 21.0101V21.0701L26.0201 21.0801C25.8401 21.1301 25.6601 21.1001 25.5201 20.9901C25.4001 20.9001 25.2801 20.7101 25.2101 20.4801C25.1101 20.1701 24.9501 19.9801 24.6701 19.8301C24.4501 19.7101 24.1701 19.6401 23.7401 19.5901C23.6201 19.5801 23.5101 19.5601 23.4901 19.5601C23.4601 19.5601 23.4101 19.5901 23.2601 19.6801C23.1101 19.7801 22.8601 19.9401 22.8201 19.9701C22.8401 19.9901 23.0901 20.0701 23.3301 20.1301C23.6701 20.2201 23.8001 20.2601 23.9401 20.3301C24.0501 20.3801 24.1601 20.4501 24.1501 20.4501C24.1501 20.4501 24.1801 20.4801 24.2201 20.5201C24.4501 20.7101 25.0201 21.2701 25.3001 21.5801L25.4801 21.7701L25.5201 21.8101L25.4201 22.0601C25.3601 22.2001 25.3001 22.3501 25.2801 22.3901L25.2401 22.4701L25.1401 22.3501C24.8101 21.9601 24.4601 21.5901 24.1001 21.2401C23.8901 21.0401 23.4801 20.6601 23.4501 20.6601C23.4101 20.6501 23.3701 20.6301 23.3401 20.6201C23.2401 20.5801 23.1901 20.5701 22.9701 20.5501C22.9301 20.5501 22.8301 20.5501 22.7401 20.5501C22.5901 20.5701 22.5501 20.5701 22.5501 20.5801C22.5501 20.5901 22.6301 20.7101 22.9001 21.0501C23.7501 22.1601 24.1901 22.8401 24.5201 23.5601C24.5901 23.7101 24.6801 23.9301 24.6801 23.9401C24.6801 23.9401 24.5301 23.9401 24.3501 23.9401H24.0201L23.9301 23.7601V23.8201ZM22.5801 18.8901C22.5801 18.8901 22.5701 18.8901 22.5501 18.9001C22.5301 18.9001 22.5201 18.9201 22.5201 18.9201C22.5201 18.9201 22.5301 18.9201 22.5501 18.9101C22.5701 18.9101 22.5801 18.8901 22.5801 18.8901Z" fill="#78BE8D"/>
<path fill-rule="evenodd" clip-rule="evenodd" d="M24.8598 25.0499C24.5498 24.9199 24.4198 24.7499 23.9798 23.9099C23.4098 22.8099 22.9298 22.0299 22.5998 21.6499C22.4398 21.4699 21.9398 20.9499 21.9098 20.9499C21.9098 20.9499 21.9098 20.9899 21.9398 21.0399C21.9598 21.0899 22.0098 21.2199 22.0298 21.3299C22.0598 21.4399 22.1098 21.5999 22.1498 21.6799C22.3198 22.0099 22.4898 22.4999 22.4498 22.5399C22.3998 22.5899 22.0298 22.8299 21.9598 22.8699C21.7998 22.9499 21.7998 22.9499 21.7298 22.6499C21.5498 21.8799 21.4798 21.4899 21.4398 21.0199C21.4298 20.8599 21.4098 20.7099 21.4098 20.7099C21.4098 20.7099 21.5098 20.6399 21.6498 20.5699C21.7898 20.4999 21.9298 20.4199 21.9598 20.3899C22.0898 20.2499 22.1198 20.0799 22.0698 19.5699C22.0498 19.3599 22.0398 19.1099 22.0398 18.9999C22.0398 18.7899 22.0198 18.7299 21.9098 18.5899C21.8498 18.5099 21.6798 18.3699 21.6498 18.3699C21.6498 18.3699 21.6298 18.6499 21.6198 18.9799V19.5899L21.4198 19.5299C21.1098 19.4299 20.9798 19.4199 20.6098 19.4199C20.2898 19.4199 19.9698 19.4599 19.8998 19.4999C19.8898 19.4999 19.8498 19.5199 19.8198 19.5199C19.7198 19.5399 19.4098 19.6499 19.1898 19.7599C18.6498 20.0199 18.1898 20.3599 17.8898 20.7499L17.7598 20.9199L17.6198 20.9499C17.2598 21.0299 17.1398 21.0499 17.1298 21.0399C17.1198 21.0299 17.1698 20.6299 17.2198 20.3399L17.2498 20.1599L17.3598 20.0799C17.4198 20.0399 17.4998 19.9799 17.5398 19.9499C17.6298 19.8799 18.0098 19.6599 18.4598 19.4099L18.8198 19.2099L19.1498 19.1699C19.3298 19.1499 19.7798 19.0999 20.1498 19.0599C20.5198 19.0199 20.8198 18.9899 20.8198 18.9799C20.8298 18.9699 20.8398 18.8299 20.8198 18.7799C20.7798 18.6099 20.6698 18.5099 20.3698 18.3599C20.0998 18.2299 20.0398 18.2199 19.2598 18.2499C18.5298 18.2799 18.2598 18.3299 17.8998 18.5199C17.7098 18.6199 17.5898 18.7099 17.2298 19.0299C16.7098 19.4899 16.5498 19.5999 16.3598 19.6099H16.2798V19.4299C16.2798 19.1999 16.2998 19.0599 16.3998 18.8599C16.5898 18.4799 16.9998 18.1699 17.6498 17.9099C18.0698 17.7399 18.1798 17.7199 18.5998 17.7199C18.8098 17.7199 19.2198 17.7199 19.5198 17.7399L20.0598 17.7599L20.4398 17.8699C20.6498 17.9299 20.8198 17.9699 20.8298 17.9599C20.8698 17.9199 20.2398 17.2499 19.9898 17.0599C19.8698 16.9799 19.7498 16.8999 19.6198 16.8399L19.4198 16.7499H19.0698C18.7998 16.7499 18.6098 16.7699 18.2498 16.8199C17.9898 16.8499 17.7198 16.8899 17.6598 16.8999H17.5398L17.5598 16.8299C17.5898 16.6999 17.6998 16.3499 17.7298 16.3199C17.7398 16.3099 17.8098 16.2899 17.8798 16.2699C17.9898 16.2499 18.0998 16.2199 18.1998 16.1899C18.3898 16.1399 18.4198 16.1399 18.9698 16.1299H19.5498L19.7398 16.2299C20.1298 16.4599 20.4698 16.7499 20.9498 17.2699C21.0998 17.4399 21.2798 17.6299 21.3398 17.6999L21.4598 17.8199V17.7299C21.4298 17.5199 21.3298 17.3099 21.0298 16.7999C20.8998 16.5799 20.7298 16.1999 20.7298 16.1399C20.7298 16.1399 20.8998 16.1299 21.1098 16.1299H21.4898L21.5798 16.4199C21.6298 16.5799 21.7098 16.8599 21.7598 17.0399C21.8098 17.2199 21.8598 17.3599 21.8698 17.3599C21.8798 17.3599 21.9598 17.2399 22.0298 17.0999C22.1898 16.8199 22.3698 16.5599 22.5798 16.3099L22.7298 16.1299H23.1498H23.5698L23.4998 16.2099C23.4998 16.2099 23.4198 16.2899 23.4098 16.2899C23.3498 16.3199 22.9898 16.8199 22.8798 17.0299C22.8398 17.0999 22.7998 17.1699 22.7998 17.1699C22.7298 17.2199 22.4198 18.0299 22.4698 18.0099C22.4798 18.0099 22.6798 17.8199 22.9198 17.5999C23.5698 16.9899 23.7598 16.8299 24.0898 16.6299L24.2798 16.5199H25.1598H26.0398L26.3298 16.6199L26.6198 16.7199V17.0799C26.6198 17.2799 26.6198 17.4399 26.6198 17.4399C26.5898 17.4399 26.4698 17.3699 26.2598 17.2299C25.9298 16.9999 25.6798 16.9299 25.2898 16.9199C24.8698 16.9199 24.7498 16.9599 24.0298 17.3699C23.7298 17.5399 23.1998 17.8799 23.0698 17.9899C23.0198 18.0299 23.0198 18.0399 23.0398 18.1999C23.0598 18.3899 23.0798 18.4399 23.1698 18.4199C23.1998 18.4199 23.4298 18.3499 23.6898 18.2799C24.3298 18.0999 24.4198 18.0799 24.7698 18.0699H25.0798L25.1998 18.1399C25.3798 18.2599 25.5598 18.3499 25.7698 18.4099C25.9298 18.4599 25.9898 18.4599 26.1498 18.4499C26.3198 18.4499 26.3498 18.4499 26.4498 18.4899C26.8398 18.6599 27.3698 19.0499 27.5698 19.3199C27.6998 19.4799 27.8298 19.8599 27.7698 19.8599C27.6898 19.8599 27.2598 19.6699 26.7798 19.4199C25.5798 18.7999 25.3898 18.7299 24.8698 18.6799C24.6198 18.6599 24.5598 18.6599 23.8898 18.7099C23.4998 18.7399 23.4698 18.7499 23.3598 18.8099C23.1898 18.8999 22.9298 19.1599 22.9098 19.2499C22.8998 19.3099 22.9098 19.3299 22.9398 19.3599C22.9998 19.4099 23.0898 19.3999 23.3898 19.3199C23.6998 19.2399 23.8298 19.2299 24.2898 19.2099C24.9698 19.1799 24.9298 19.1699 25.1398 19.2999C25.6498 19.5999 25.9798 19.9999 26.1098 20.4699C26.1498 20.5999 26.1698 21.0499 26.1398 21.0799C26.1398 21.0799 26.0598 21.0999 25.9798 21.0999C25.6498 21.1299 25.4398 20.9599 25.2898 20.5399C25.1998 20.2799 25.1098 20.1499 24.9798 20.0199C24.7598 19.8199 24.4398 19.6899 23.9298 19.6199C23.4998 19.5599 23.5398 19.5499 23.1798 19.7799C23.0098 19.8899 22.8698 19.9899 22.8698 19.9999C22.8698 20.0099 23.1198 20.0899 23.5098 20.2099C23.9398 20.3299 24.1398 20.4299 24.3698 20.6399C24.5598 20.8099 25.2598 21.5099 25.4698 21.7399L25.5698 21.8499L25.5398 21.9399C25.4398 22.1999 25.3098 22.4899 25.2998 22.4899C25.2998 22.4899 25.1598 22.3499 25.0098 22.1799C24.6198 21.7399 24.2098 21.3199 23.8298 20.9799C23.4798 20.6599 23.4398 20.6399 23.1598 20.5999C23.0498 20.5799 22.6298 20.5999 22.6098 20.6299C22.6098 20.6299 22.8198 20.9299 23.0798 21.2799C24.1898 22.7699 24.6398 23.5699 24.9498 24.6499C25.0398 24.9799 25.0698 25.0999 25.0398 25.0999C25.0398 25.0999 24.9698 25.0799 24.8998 25.0499H24.8598Z" fill="#78BE46"/>
<path fill-rule="evenodd" clip-rule="evenodd" d="M17.1599 24.1099C17.0099 24.0299 16.9599 23.9099 16.8799 23.5499L16.8398 23.3299L16.9698 23.0699C17.3098 22.3699 17.7799 21.7199 18.3199 21.2199C18.6599 20.8999 18.9398 20.6899 19.0198 20.6699C19.1598 20.6399 19.4298 20.5499 19.9998 20.3299C20.7898 20.0199 21.0199 19.9699 21.5099 19.9799C21.6699 19.9799 21.6698 19.9899 21.6898 20.2799V20.4799L21.6098 20.4199C21.5598 20.3899 21.4599 20.3499 21.3899 20.3299C21.1399 20.2699 20.9099 20.3299 20.3499 20.6099C20.1499 20.7099 19.9499 20.7999 19.9099 20.8199C19.7599 20.8799 19.1198 21.3699 18.9998 21.5299C18.9598 21.5799 18.7498 21.7999 18.5298 22.0299C18.3098 22.2499 18.0998 22.4799 18.0498 22.5399C17.9398 22.6899 17.8399 22.8899 17.6399 23.3899C17.5499 23.6299 17.4298 23.8899 17.3698 23.9799C17.2698 24.1399 17.2298 24.1699 17.1498 24.1199L17.1599 24.1099Z" fill="#78BE46"/>
</g>
</g>
</svg>
