<svg width="34" height="24" viewBox="0 0 34 24" fill="none" xmlns="http://www.w3.org/2000/svg">
<g clip-path="url(#clip0_13616_4898)">
<path d="M32.9493 3.99463C32.5623 2.54224 31.4221 1.39855 29.9741 1.0104C27.3498 0.304979 16.8263 0.304979 16.8263 0.304979C16.8263 0.304979 6.30283 0.304979 3.67843 1.0104C2.23055 1.39855 1.09018 2.54224 0.70321 3.99463C0 6.62696 0 12.1192 0 12.1192C0 12.1192 0 17.6113 0.70321 20.2439C1.09018 21.6961 2.23055 22.8398 3.67843 23.2281C6.30283 23.9333 16.8263 23.9333 16.8263 23.9333C16.8263 23.9333 27.3498 23.9333 29.9741 23.2281C31.4221 22.8398 32.5623 21.6961 32.9493 20.2439C33.6525 17.6113 33.6525 12.1192 33.6525 12.1192C33.6525 12.1192 33.6525 6.62696 32.9493 3.99463Z" fill="#ED1D24"/>
<path d="M13.3838 17.1056L22.1793 12.1193L13.3838 7.13261V17.1056Z" fill="white"/>
</g>
<defs>
<clipPath id="clip0_13616_4898">
<rect width="33.6525" height="23.6284" fill="white" transform="translate(0 0.305054)"/>
</clipPath>
</defs>
</svg>
