<svg width="60" height="60" viewBox="0 0 60 60" fill="none" xmlns="http://www.w3.org/2000/svg">
<mask id="mask0_13628_11168" style="mask-type:luminance" maskUnits="userSpaceOnUse" x="0" y="0" width="60" height="60">
<path d="M30 60C46.5685 60 60 46.5685 60 30C60 13.4315 46.5685 0 30 0C13.4315 0 0 13.4315 0 30C0 46.5685 13.4315 60 30 60Z" fill="white"/>
</mask>
<g mask="url(#mask0_13628_11168)">
<path d="M80.2798 0.0100098H0.279785V60.01H80.2798V0.0100098Z" fill="white"/>
<mask id="mask1_13628_11168" style="mask-type:luminance" maskUnits="userSpaceOnUse" x="0" y="0" width="81" height="61">
<path d="M80.2798 0.0100098H0.279785V60.01H80.2798V0.0100098Z" fill="white"/>
</mask>
<g mask="url(#mask1_13628_11168)">
<path d="M0 -0.0100098H123.08V59.98H0V-0.0100098Z" fill="#006400"/>
<path d="M0 8.56006H123.08V51.4101H0V8.56006Z" fill="#FFD200"/>
<path d="M0 17.1299H123.08V42.8399H0V17.1299Z" fill="#D40000"/>
<path d="M0 25.7H123.08V34.27H0V25.7Z" fill="black"/>
<path d="M0 -0.0100098V59.98L41.03 29.99L0 -7.62939e-06V-0.0100098Z" fill="black" stroke="black" stroke-width="2.89"/>
<path d="M0 -0.0100098V59.98L41.03 29.99L0 -7.62939e-06V-0.0100098Z" fill="white"/>
<path d="M15.6002 14.8999L23.7302 39.2799L2.4502 24.2099H28.7502L7.46021 39.2799L15.5902 14.8999H15.6002Z" fill="#D40000"/>
<path d="M12.1299 36.2301L13.5699 35.9701L16.2199 35.8701L17.1999 35.9601L19.3999 36.3201L19.5599 36.1101V34.5701L19.8199 33.2401L20.2599 31.9001L20.7399 30.8301L21.3599 29.7201L22.3599 29.9601H22.6199L22.6499 29.7701L20.5399 28.0101L18.3399 26.3701L15.1599 24.0601L14.8699 23.9901L14.5299 21.5601L14.2799 20.8301L13.9399 20.5401L13.3099 20.3401L12.6099 20.3701L12.2899 20.5401L11.6199 20.6801L11.2699 20.7401L11.0399 21.0101L11.0099 21.3501L11.9899 21.3801L12.2399 21.4801L12.2099 21.5801L11.6499 21.6501L11.3899 21.7401L11.6999 21.9701L12.0199 22.0801L12.4299 22.2201L12.5199 22.5101L12.5499 26.1901L12.3299 26.7601L12.2599 27.8301L12.5799 29.1201L11.7599 30.0301L11.2899 30.8401L11.1999 31.3401L10.9499 31.8401L10.9199 32.1501L11.0799 32.4901L11.7099 34.5201L12.0299 36.1901L12.1299 36.2201V36.2301Z" fill="#FFCC00"/>
<path d="M12.8902 20.27C12.6302 20.27 12.5102 20.3 12.2602 20.43C12.0502 20.55 11.8202 20.61 11.5902 20.63C11.2202 20.63 10.9302 20.89 10.9302 21.22V21.43H11.4602C13.0102 21.46 11.6102 21.6 11.4902 21.62C11.1102 21.69 11.5802 21.99 12.0302 22.15C12.5102 22.29 12.4802 22.21 12.4802 24.29C12.4802 25.99 12.4802 26.23 12.3302 26.62C12.1402 27.19 12.1402 28.05 12.3302 28.62C12.4202 28.85 12.4802 29.05 12.4802 29.09C12.4802 29.12 12.2502 29.39 11.9702 29.7C11.4602 30.27 11.1502 30.86 11.1502 31.27C11.1302 31.4 11.0802 31.53 11.0002 31.64C10.8102 31.88 10.8102 32.3 10.9902 32.45C11.1802 32.62 11.9602 35.56 11.9702 36.12C11.9702 36.32 12.0002 36.32 13.1902 36.09C14.1602 35.9 16.4302 35.86 17.5902 36C18.1202 36.07 18.7302 36.19 18.9502 36.23C19.6502 36.42 19.6202 36.44 19.6202 35.62C19.6202 34.31 19.8802 33.02 20.3702 31.81C20.6502 31.12 20.9902 30.45 21.3802 29.81C21.3802 29.81 21.6402 29.84 21.9702 29.92C22.5702 30.06 22.7502 30.05 22.7502 29.78C22.7502 29.64 22.1202 29.12 19.0302 26.78C17.7802 25.79 16.5002 24.84 15.1802 23.94C15.0902 23.94 15.0002 23.9 14.9902 23.84L14.7702 22.48C14.6702 21.78 14.5202 21.09 14.4602 20.95C14.2502 20.52 13.8602 20.31 13.2002 20.26C13.1002 20.26 13.0002 20.26 12.9102 20.26L12.8902 20.27ZM12.9002 20.41H13.1902C14.1602 20.47 14.3302 20.72 14.6002 22.41C14.6702 22.86 14.7302 23.3 14.7802 23.75C14.7802 23.86 14.6502 24.01 14.3102 24.22C13.7602 24.6 13.2602 25.06 12.8402 25.58L12.6502 25.84L12.6102 25.24V23.55C12.6502 22.31 12.6102 22.19 12.2002 22.05C11.8602 21.94 11.4202 21.82 11.5402 21.75C11.6902 21.66 11.8302 21.72 12.1802 21.62C12.3302 21.59 12.3102 21.61 12.2802 21.49C12.2502 21.3 12.0502 21.2 11.5002 21.23C11.0602 21.26 11.0202 21.24 11.0502 21.13C11.1102 20.9 11.3402 20.76 11.7102 20.72C11.9302 20.69 12.1502 20.63 12.3502 20.53C12.5102 20.43 12.7002 20.38 12.8902 20.39L12.9002 20.41ZM15.0802 24.09H15.1402C15.3902 24.13 22.5802 29.62 22.5802 29.77C22.5802 29.83 22.5202 29.87 22.4302 29.87C22.3702 29.87 20.5402 29.37 18.3702 28.76C14.9102 27.76 14.4102 27.62 14.2702 27.43C14.1702 27.3 14.1102 27.15 14.1102 26.99C14.1102 26.83 14.1602 26.67 14.2602 26.54C14.3302 26.46 14.3802 26.36 14.4102 26.25C14.4102 26.08 14.0402 26.51 13.9702 26.75C13.9002 27.04 14.0402 27.52 14.2602 27.68C14.3502 27.75 15.0102 27.97 15.7302 28.18C16.9602 28.52 17.0502 28.57 17.1102 28.77C17.2602 29.24 16.7402 29.8 16.0102 29.96C15.7402 30.02 15.4802 30.14 15.2502 30.3C14.4902 30.91 13.6402 31.41 12.7302 31.79C12.6702 31.83 12.6002 32.06 12.5502 32.28C12.4602 32.75 12.4302 32.82 12.2902 32.82C12.2202 32.82 12.2002 32.78 12.2602 32.62C12.3602 32.33 12.3502 31.99 12.2502 31.99C12.1802 31.99 12.1502 32.09 12.1502 32.25C12.1502 32.39 12.1102 32.56 12.0502 32.61C11.9802 32.7 11.9602 32.64 11.9902 32.28C12.0202 32.04 12.0002 31.85 11.9802 31.85C11.9102 31.85 11.7702 32.21 11.7302 32.52C11.7102 32.6467 11.6802 32.6333 11.6402 32.48C11.6002 32.31 11.6102 32.19 11.7402 31.98C11.8202 31.82 11.8702 31.65 11.8902 31.48C11.8902 31.29 12.0402 31.11 12.7302 30.44C13.1702 30 13.7102 29.44 13.9002 29.2C14.2402 28.8 14.2502 28.77 14.2402 28.36C14.2402 28.13 14.2102 27.92 14.1802 27.89C14.0902 27.8 13.9702 28.26 14.0302 28.5C14.0602 28.73 14.0302 28.8 13.5502 29.36C13.2002 29.75 12.8402 30.12 12.4502 30.47C11.8802 30.98 11.6702 31.27 11.6702 31.53C11.6702 31.62 11.6102 31.82 11.5202 32C11.4302 32.19 11.4002 32.37 11.4302 32.41C11.4602 32.45 11.4302 32.45 11.3902 32.41C11.3202 32.34 11.3202 32.22 11.3802 31.98C11.4102 31.86 11.4202 31.73 11.4102 31.61C11.3402 31.47 11.2302 31.64 11.1902 32C11.1602 32.2 11.1202 32.36 11.0702 32.33C10.9702 32.27 11.0002 31.9 11.1302 31.7C11.2002 31.6 11.2802 31.37 11.3202 31.19C11.4202 30.66 11.6602 30.23 12.1702 29.66C12.3302 29.49 12.4902 29.3 12.6402 29.12L12.4902 28.65C12.2902 28.01 12.2802 27.34 12.4602 26.69C12.6502 26.15 13.0302 25.6 13.6302 25.02C14.2202 24.46 14.7902 24.12 15.1002 24.11L15.0802 24.09ZM17.2802 28.69C17.2802 28.69 17.3202 28.69 17.3402 28.69C17.3602 28.69 17.3702 28.69 17.3902 28.71C17.4002 28.71 17.4102 28.73 17.4202 28.74C17.4202 28.75 17.4302 28.76 17.4302 28.78C17.4302 28.8 17.4002 28.81 17.3802 28.82C17.3602 28.83 17.3302 28.84 17.3002 28.84C17.2702 28.84 17.2502 28.84 17.2202 28.82C17.1902 28.8 17.1802 28.8 17.1702 28.78C17.1702 28.76 17.1702 28.74 17.2002 28.73C17.2202 28.71 17.2502 28.7 17.2702 28.7L17.2802 28.69ZM17.6502 28.73C17.6502 28.73 17.6902 28.73 17.7002 28.73C17.7202 28.73 17.7302 28.73 17.7502 28.75C17.7602 28.75 17.7702 28.77 17.7802 28.78C17.7802 28.79 17.7902 28.8 17.7902 28.82C17.7902 28.84 17.7602 28.85 17.7402 28.86C17.7202 28.87 17.6902 28.88 17.6602 28.88C17.6302 28.88 17.6102 28.88 17.5802 28.86C17.5602 28.85 17.5402 28.84 17.5302 28.82C17.5302 28.8 17.5302 28.78 17.5602 28.77C17.5902 28.76 17.6102 28.74 17.6302 28.74L17.6502 28.73ZM18.0302 28.8C18.0302 28.8 18.0702 28.8 18.0902 28.8C18.1102 28.8 18.1202 28.8 18.1402 28.82C18.1502 28.82 18.1602 28.84 18.1702 28.85C18.1702 28.86 18.1802 28.87 18.1802 28.89C18.1802 28.91 18.1502 28.92 18.1302 28.93C18.1102 28.94 18.0802 28.95 18.0502 28.95C18.0202 28.95 18.0002 28.95 17.9702 28.93C17.9502 28.92 17.9302 28.91 17.9202 28.89C17.9202 28.87 17.9202 28.85 17.9502 28.84C17.9802 28.83 18.0002 28.81 18.0202 28.81L18.0302 28.8ZM18.3802 28.87C18.3802 28.87 18.4202 28.87 18.4402 28.87C18.4602 28.87 18.4702 28.87 18.4902 28.89C18.5002 28.89 18.5102 28.91 18.5202 28.92C18.5202 28.93 18.5302 28.94 18.5302 28.96C18.5302 28.98 18.5002 28.99 18.4802 29C18.4602 29.01 18.4302 29.02 18.4002 29.02C18.3702 29.02 18.3502 29.02 18.3202 29C18.3002 28.99 18.2802 28.98 18.2702 28.96C18.2702 28.94 18.2702 28.92 18.3002 28.91C18.3202 28.89 18.3502 28.88 18.3702 28.88L18.3802 28.87ZM17.4602 28.96C17.4602 28.96 17.5002 28.96 17.5102 28.96C17.5302 28.96 17.5402 28.96 17.5602 28.98C17.5702 28.98 17.5802 29 17.5902 29.01C17.5902 29.02 17.6002 29.03 17.6002 29.05C17.6002 29.07 17.5702 29.08 17.5502 29.09C17.5302 29.1 17.5002 29.11 17.4702 29.11C17.4402 29.11 17.4202 29.11 17.3902 29.09C17.3702 29.08 17.3502 29.07 17.3402 29.05C17.3402 29.03 17.3402 29.01 17.3702 29C17.3902 28.98 17.4202 28.97 17.4402 28.97L17.4602 28.96ZM17.8102 29.02C17.8102 29.02 17.8502 29.02 17.8702 29.02C17.8902 29.02 17.9002 29.02 17.9202 29.04C17.9302 29.04 17.9402 29.06 17.9502 29.07C17.9502 29.08 17.9602 29.09 17.9602 29.11C17.9602 29.13 17.9302 29.14 17.9102 29.15C17.8902 29.16 17.8602 29.17 17.8302 29.17C17.8002 29.17 17.7802 29.17 17.7502 29.15C17.7302 29.14 17.7102 29.13 17.7002 29.11C17.7002 29.09 17.7002 29.07 17.7302 29.06C17.7502 29.04 17.7802 29.03 17.8002 29.03L17.8102 29.02ZM18.5702 29.05C18.5702 29.05 18.6102 29.05 18.6202 29.05C18.6402 29.05 18.6502 29.05 18.6702 29.07C18.6802 29.07 18.6902 29.09 18.7002 29.1C18.7002 29.11 18.7102 29.12 18.7102 29.14C18.7102 29.16 18.6802 29.17 18.6602 29.18C18.6402 29.19 18.6102 29.2 18.5802 29.2C18.5502 29.2 18.5302 29.2 18.5002 29.18C18.4802 29.17 18.4602 29.16 18.4502 29.14C18.4502 29.12 18.4502 29.1 18.4802 29.09C18.5002 29.07 18.5302 29.06 18.5502 29.06L18.5702 29.05ZM18.1702 29.05C18.1702 29.05 18.2102 29.05 18.2202 29.05C18.2402 29.05 18.2502 29.05 18.2702 29.07C18.2802 29.07 18.2902 29.09 18.3002 29.1C18.3002 29.11 18.3102 29.12 18.3102 29.14C18.3102 29.16 18.2802 29.17 18.2602 29.18C18.2402 29.19 18.2102 29.2 18.1802 29.2C18.1502 29.2 18.1302 29.2 18.1002 29.18C18.0802 29.17 18.0602 29.16 18.0502 29.14C18.0502 29.12 18.0502 29.1 18.0802 29.09C18.1002 29.07 18.1302 29.06 18.1502 29.06L18.1702 29.05ZM18.9002 29.14C18.9002 29.14 19.4402 29.25 20.0702 29.43L21.2302 29.76L21.0102 30.15C20.8902 30.36 20.7702 30.57 20.6602 30.78C20.5102 31.07 20.4802 31.07 19.7802 30.91C19.0202 30.74 17.8202 30.58 16.5902 30.48L15.4202 30.38L15.8602 30.22C16.1302 30.12 16.3802 30.01 16.6402 29.88C16.9302 29.72 17.0502 29.69 17.5002 29.74C18.1602 29.78 18.6002 29.65 18.7702 29.4L18.9202 29.16H18.9102L18.9002 29.14ZM17.6102 29.23C17.6102 29.23 17.6502 29.23 17.6602 29.23C17.6802 29.23 17.6902 29.23 17.7102 29.25C17.7202 29.25 17.7302 29.27 17.7402 29.28C17.7402 29.29 17.7502 29.3 17.7502 29.32C17.7502 29.34 17.7202 29.35 17.7002 29.36C17.6802 29.37 17.6502 29.38 17.6202 29.38C17.5902 29.38 17.5702 29.38 17.5402 29.36C17.5202 29.35 17.5002 29.34 17.4902 29.32C17.4902 29.3 17.4902 29.28 17.5202 29.27C17.5402 29.25 17.5702 29.24 17.5902 29.24L17.6102 29.23ZM18.4302 29.23C18.4302 29.23 18.4702 29.23 18.4902 29.23C18.5102 29.23 18.5202 29.23 18.5402 29.25C18.5502 29.25 18.5602 29.27 18.5702 29.28C18.5702 29.29 18.5802 29.3 18.5802 29.32C18.5702 29.33 18.5502 29.35 18.5302 29.35C18.5102 29.35 18.4902 29.36 18.4602 29.36C18.4302 29.36 18.4102 29.36 18.3902 29.35C18.3702 29.35 18.3502 29.33 18.3402 29.32C18.3402 29.3 18.3402 29.28 18.3702 29.27C18.4002 29.26 18.4202 29.24 18.4402 29.24H18.4302V29.23ZM17.2602 29.23C17.2602 29.23 17.3002 29.23 17.3202 29.23C17.3402 29.23 17.3502 29.23 17.3702 29.25C17.3802 29.25 17.3902 29.27 17.4002 29.28C17.4002 29.29 17.4102 29.3 17.4102 29.32C17.4102 29.34 17.3802 29.35 17.3602 29.36C17.3402 29.37 17.3102 29.38 17.2802 29.38C17.2502 29.38 17.2302 29.38 17.2002 29.36C17.1802 29.35 17.1602 29.34 17.1502 29.32C17.1502 29.3 17.1702 29.29 17.1802 29.27C17.2002 29.26 17.2202 29.25 17.2502 29.24L17.2602 29.23ZM18.0402 29.26C18.0402 29.26 18.1102 29.26 18.1402 29.28C18.1702 29.29 18.1902 29.31 18.1902 29.33C18.1902 29.35 18.1602 29.36 18.1402 29.37C18.1202 29.38 18.0902 29.39 18.0602 29.39C18.0302 29.39 18.0102 29.39 17.9802 29.37C17.9602 29.36 17.9402 29.35 17.9302 29.33C17.9302 29.31 17.9502 29.3 17.9602 29.28C17.9802 29.27 18.0002 29.26 18.0302 29.25L18.0402 29.26ZM17.0702 29.42C17.0702 29.42 17.1102 29.42 17.1302 29.42C17.1502 29.42 17.1602 29.42 17.1802 29.44C17.1902 29.44 17.2002 29.46 17.2102 29.47C17.2102 29.48 17.2202 29.49 17.2202 29.51C17.2202 29.53 17.1902 29.54 17.1702 29.55C17.1502 29.56 17.1202 29.57 17.0902 29.57C17.0602 29.57 17.0402 29.57 17.0102 29.55C16.9902 29.54 16.9702 29.53 16.9602 29.51C16.9602 29.49 16.9602 29.47 16.9902 29.46C17.0102 29.44 17.0402 29.43 17.0602 29.43L17.0702 29.42ZM17.4402 29.42C17.4402 29.42 17.4802 29.42 17.5002 29.42C17.5202 29.42 17.5402 29.43 17.5502 29.44C17.5602 29.44 17.5702 29.46 17.5802 29.47C17.5802 29.48 17.5802 29.5 17.5802 29.51C17.5802 29.53 17.5502 29.54 17.5302 29.55C17.5102 29.56 17.4802 29.57 17.4502 29.57C17.4202 29.57 17.4002 29.57 17.3702 29.55C17.3502 29.54 17.3302 29.53 17.3202 29.51C17.3202 29.49 17.3202 29.47 17.3502 29.46C17.3802 29.45 17.4002 29.43 17.4202 29.43L17.4402 29.42ZM17.8202 29.45C17.8202 29.45 17.8902 29.45 17.9202 29.47C17.9502 29.48 17.9702 29.5 17.9702 29.52C17.9702 29.54 17.9402 29.55 17.9202 29.56C17.9002 29.57 17.8702 29.58 17.8402 29.58C17.8102 29.58 17.7902 29.58 17.7602 29.56C17.7402 29.55 17.7202 29.54 17.7102 29.52C17.7102 29.5 17.7302 29.49 17.7402 29.47C17.7602 29.46 17.7802 29.45 17.8102 29.44L17.8202 29.45ZM18.2302 29.45C18.2302 29.45 18.2702 29.45 18.2802 29.45C18.3002 29.45 18.3102 29.45 18.3302 29.47C18.3402 29.47 18.3502 29.49 18.3602 29.5C18.3602 29.51 18.3702 29.52 18.3702 29.54C18.3702 29.56 18.3402 29.57 18.3202 29.58C18.3002 29.59 18.2702 29.6 18.2402 29.6C18.2102 29.6 18.1902 29.6 18.1602 29.58C18.1402 29.57 18.1202 29.56 18.1102 29.54C18.1102 29.52 18.1102 29.5 18.1402 29.49C18.1602 29.47 18.1902 29.46 18.2102 29.46L18.2302 29.45ZM15.2602 30.61C16.9902 30.65 18.7102 30.86 20.4002 31.21C20.4102 31.22 20.3102 31.57 20.1502 31.98L19.8602 32.84C19.8502 32.91 19.7402 32.91 19.4902 32.88C18.2702 32.69 14.7602 32.71 13.4102 32.91C12.6302 33.02 12.5302 33.01 12.5902 32.85L12.7402 32.35L12.8302 31.96L13.6202 31.56C14.1502 31.3 14.6502 30.99 15.1102 30.63H15.2402V30.6L15.2602 30.61ZM11.3002 32.64C11.3002 32.64 11.4302 32.68 11.5302 32.75C11.6802 32.84 11.8502 32.91 11.9302 32.91C12.3102 32.91 12.5202 33.44 12.8402 35.2L12.9602 35.83C12.9902 35.97 12.9602 36 12.6202 36.07C12.2102 36.16 12.1102 36.17 12.1102 36.11C12.1102 35.97 11.7002 34.15 11.5202 33.51C11.4302 33.23 11.3502 32.94 11.2902 32.65L11.3002 32.64ZM15.4902 32.93H15.9202L15.7702 33.07C15.5202 33.36 15.4002 33.37 15.2302 33.18C15.1702 33.12 15.1202 33.05 15.0802 32.97C15.0802 32.94 15.2702 32.91 15.4902 32.91V32.93ZM16.3802 32.93H17.1702L16.9902 33.1C16.7802 33.33 16.7702 33.33 16.5502 33.1L16.3702 32.91L16.3802 32.93ZM17.5802 32.93H17.7702C17.8702 32.93 18.0602 32.93 18.1802 32.96L18.4002 33L18.1902 33.19C18.0702 33.29 17.9702 33.38 17.9602 33.36L17.7502 33.13L17.5702 32.92L17.5802 32.93ZM18.8302 32.97L19.0102 33.01C19.1102 33.04 19.3302 33.05 19.4902 33.07H19.7802L19.5602 33.26C19.4802 33.33 19.3902 33.39 19.3002 33.45C19.2902 33.45 19.1502 33.34 19.0502 33.21L18.8302 32.98V32.97ZM14.4102 32.98H14.4402C14.4402 32.98 14.4002 33.12 14.2902 33.22L14.1402 33.42L13.9202 33.25L13.7002 33.06L14.0502 33.02L14.4002 32.98H14.4102ZM14.7502 33.01L14.9802 33.21L15.2102 33.42L14.7702 33.45H14.3302L14.5402 33.25L14.7502 33.01ZM17.3902 33.01C17.3902 33.01 17.4602 33.02 17.5102 33.05C17.5902 33.12 17.6502 33.2 17.7002 33.29C17.7602 33.4 17.7402 33.43 17.5502 33.43L17.1802 33.36L17.0002 33.32L17.1902 33.13C17.2802 33.04 17.3402 32.99 17.4002 32.99H17.3902V33.01ZM16.1702 33.01C16.2402 33.01 16.3202 33.05 16.4002 33.2C16.4669 33.3067 16.3702 33.36 16.1102 33.36H15.7102L15.9202 33.17C16.0202 33.07 16.1102 33.03 16.1702 33.03V33.01ZM18.6602 33.04L18.8402 33.21C19.0502 33.4 19.0702 33.51 18.9302 33.5L18.5202 33.46L18.2002 33.43L18.4302 33.24L18.6602 33.04ZM13.5002 33.14C13.5002 33.14 13.6502 33.21 13.7302 33.31L13.9102 33.5L13.5402 33.56L13.0302 33.63C12.9302 33.66 12.9602 33.59 13.1802 33.4C13.3302 33.26 13.4702 33.14 13.5002 33.14ZM12.9602 33.14H13.0202C13.1402 33.17 13.1402 33.2 12.9302 33.4L12.7102 33.61L12.6402 33.42C12.5802 33.28 12.6002 33.23 12.7302 33.18C12.8102 33.15 12.8802 33.14 12.9602 33.14ZM19.7002 33.4C19.7002 33.4 19.7302 33.43 19.7002 33.49C19.6702 33.6 19.5402 33.63 19.5402 33.52C19.5402 33.49 19.5802 33.45 19.6402 33.42H19.7002V33.4ZM16.5602 33.63C17.6902 33.63 18.8302 33.66 19.1102 33.69C19.5602 33.75 19.6102 33.76 19.6102 33.93C19.6102 34.13 19.5502 34.14 18.9402 34.04C18.7602 34 18.0202 33.94 17.3002 33.88C15.9102 33.8 14.5102 33.85 13.1202 34.02C12.8402 34.05 12.7702 34.02 12.7702 33.93C12.7702 33.74 14.2602 33.62 16.5702 33.62L16.5602 33.63ZM15.0502 34.04H15.8402L15.6602 34.23C15.4402 34.46 15.4302 34.46 15.2202 34.23L15.0402 34.04H15.0502ZM16.0802 34.04L16.2902 34.24L16.5002 34.47H16.0802L15.6602 34.48L15.8802 34.25L16.0902 34.04H16.1002H16.0802ZM16.3902 34.04H17.1802L17.0002 34.23C16.7902 34.46 16.7802 34.46 16.5602 34.23L16.3802 34.04H16.3902ZM14.5102 34.04C14.5102 34.04 14.5102 34.11 14.4102 34.25C14.3102 34.38 14.2002 34.48 14.1902 34.48C14.1602 34.48 14.0602 34.39 13.9702 34.29L13.7902 34.1H14.0502C14.1802 34.1 14.3202 34.08 14.4502 34.04C14.4702 34.04 14.4902 34.04 14.5102 34.04ZM14.8002 34.11L14.9902 34.28L15.2102 34.47L14.8302 34.5L14.4102 34.53L14.6202 34.32L14.8102 34.12L14.8002 34.11ZM17.3502 34.11L17.5602 34.34C17.7902 34.58 17.7802 34.6 17.2502 34.5L17.0002 34.46L17.1802 34.29L17.3602 34.12L17.3502 34.11ZM17.6402 34.11H17.9902C18.3702 34.11 18.4102 34.17 18.2002 34.37C18.0802 34.4633 17.9536 34.44 17.8202 34.3L17.6402 34.11ZM13.1602 34.18C13.3402 34.18 13.3202 34.19 13.1002 34.41C12.9402 34.57 12.9202 34.57 12.8702 34.45C12.8302 34.31 12.9602 34.19 13.1602 34.18ZM18.8502 34.21C18.9102 34.21 19.0302 34.21 19.1402 34.24L19.4802 34.3L19.2902 34.47L19.1102 34.64L18.9502 34.44L18.8002 34.21H18.8402H18.8502ZM13.5802 34.28C13.5802 34.28 13.6702 34.31 13.7402 34.38C13.8402 34.4733 13.8502 34.54 13.7702 34.58C13.6602 34.62 13.5402 34.64 13.4202 34.64H13.1902L13.3802 34.44C13.4802 34.34 13.5302 34.3 13.5702 34.28H13.5802ZM18.5802 34.32C18.6402 34.32 18.6802 34.35 18.7602 34.46L18.8902 34.63H18.5802C18.3702 34.63 18.2902 34.6 18.2902 34.54C18.3202 34.48 18.3902 34.4 18.4802 34.35L18.5802 34.31V34.32ZM19.5202 34.51C19.5202 34.51 19.5502 34.54 19.5502 34.58C19.5502 34.72 19.4202 34.82 19.3602 34.72C19.3502 34.68 19.3702 34.61 19.4302 34.56L19.5202 34.5V34.51ZM15.7202 34.68C16.9902 34.68 18.4002 34.77 19.2402 34.91L19.4702 34.95V35.58C19.4702 36.05 19.4402 36.21 19.3702 36.21L18.6402 36.07C16.9502 35.79 15.2202 35.74 13.5102 35.93L13.1702 35.97L13.0802 35.44C13.0402 35.26 13.0202 35.08 13.0202 34.9C13.0202 34.9 13.3602 34.83 13.7502 34.79C14.2302 34.72 14.9502 34.69 15.7102 34.69L15.7202 34.68Z" fill="black"/>
<path d="M18.2798 31.1001C17.8398 31.1001 17.5298 31.4001 17.5298 31.8401C17.5298 32.5301 18.3198 32.8701 18.7898 32.3801C19.2598 31.8901 18.9398 31.0901 18.2798 31.0901V31.1001ZM18.2798 31.2701C18.3598 31.2701 18.4298 31.2801 18.4998 31.3101C18.5698 31.3401 18.6398 31.3801 18.6898 31.4301C18.7398 31.4801 18.7898 31.5501 18.8198 31.6201C18.8498 31.6901 18.8598 31.7601 18.8598 31.8401C18.8598 32.2701 18.3798 32.5501 17.9798 32.3701C17.5798 32.1601 17.6098 31.5001 18.0398 31.3301C18.1098 31.3001 18.1798 31.2801 18.2598 31.2701H18.2698H18.2798Z" fill="black"/>
<path d="M15.3398 31.01C14.8998 31.01 14.5898 31.31 14.5898 31.75C14.5898 32.44 15.3799 32.78 15.8499 32.29C16.3199 31.8 15.9998 31 15.3398 31V31.01ZM15.3398 31.18C15.4198 31.18 15.4898 31.19 15.5598 31.22C15.6298 31.25 15.6998 31.29 15.7498 31.34C15.7998 31.39 15.8499 31.46 15.8799 31.53C15.9099 31.6 15.9198 31.67 15.9198 31.75C15.9198 32.18 15.4399 32.46 15.0399 32.28C14.6399 32.07 14.6699 31.41 15.0999 31.24C15.1699 31.21 15.2399 31.19 15.3199 31.18H15.3298H15.3398Z" fill="black"/>
<path d="M12.8902 20.75C12.8302 20.75 12.7701 20.78 12.7301 20.83C12.6901 20.87 12.6602 20.93 12.6602 21C12.6602 21.07 12.6902 21.14 12.7402 21.19C12.7902 21.24 12.8502 21.27 12.9202 21.27C12.9902 21.27 13.0502 21.24 13.1002 21.19C13.1502 21.14 13.1802 21.07 13.1802 21C13.1802 20.96 13.1702 20.93 13.1502 20.9C13.1302 20.87 13.1101 20.84 13.0901 20.82C13.0601 20.8 13.0302 20.78 13.0002 20.77C12.9702 20.76 12.9302 20.76 12.9002 20.77L12.8902 20.75ZM12.9002 20.84C12.9002 20.84 12.9902 20.86 13.0202 20.89C13.0502 20.92 13.0702 20.96 13.0702 21C13.0702 21.04 13.0502 21.08 13.0202 21.11C12.9902 21.14 12.9402 21.16 12.9002 21.16C12.8602 21.16 12.8102 21.14 12.7802 21.11C12.7502 21.08 12.7301 21.04 12.7301 21C12.7301 20.98 12.7302 20.96 12.7402 20.94C12.7402 20.92 12.7602 20.9 12.7802 20.89C12.8002 20.88 12.8201 20.86 12.8401 20.86C12.8601 20.86 12.8802 20.85 12.9102 20.85L12.9002 20.84Z" fill="black"/>
</g>
</g>
</svg>
