<svg width="50" height="50" viewBox="0 0 50 50" fill="none" xmlns="http://www.w3.org/2000/svg">
<path d="M31.1934 39.6317C31.1934 36.9608 31.2187 34.2837 31.1807 31.6128C31.1681 30.7774 31.4528 30.4736 32.2881 30.5116C33.4334 30.5622 34.5787 30.5116 35.724 30.5242C36.1922 30.5242 36.5023 30.4293 36.5592 29.866C36.7174 28.4167 36.9073 26.961 37.1287 25.518C37.2426 24.7965 36.9389 24.6446 36.2998 24.6635C34.933 24.6952 33.5663 24.6509 32.1995 24.6762C31.4718 24.6889 31.1617 24.4167 31.1871 23.6636C31.225 22.5813 31.1807 21.499 31.206 20.4168C31.2503 18.4801 32.1615 17.5877 34.1168 17.5371C34.9773 17.5117 35.8379 17.5117 36.6921 17.5371C37.2616 17.5497 37.4957 17.3282 37.4831 16.7523C37.4578 15.5118 37.4704 14.2713 37.4831 13.0308C37.4831 12.5814 37.3502 12.3156 36.8566 12.265C34.8571 12.0561 32.8512 11.9042 30.8707 12.284C27.5107 12.9295 25.353 15.4675 25.2011 18.8978C25.1315 20.4547 25.1441 22.018 25.1695 23.575C25.1821 24.4041 24.8467 24.7142 24.0368 24.6825C22.9231 24.6446 21.8095 24.6889 20.6958 24.6699C20.082 24.6572 19.8416 24.9104 19.8542 25.5243C19.8795 26.8914 19.8859 28.2584 19.8542 29.6255C19.8416 30.2774 20.063 30.5495 20.7338 30.5242C21.8791 30.4862 23.0244 30.5369 24.1697 30.5052C24.8404 30.4862 25.1695 30.7141 25.1695 31.4293C25.1568 37.2203 25.1568 43.0114 25.1695 48.8024C25.1695 49.5872 24.7898 49.7581 24.1001 49.7391C15.254 49.4353 8.35688 45.5556 3.7187 38.0874C-5.55764 23.1889 3.41498 3.77778 20.7338 0.974023C34.2939 -1.22215 47.234 8.46125 48.8855 22.0433C50.3156 33.809 43.6525 44.5557 32.4969 48.467C31.301 48.8847 31.1997 48.8214 31.1934 47.5493C31.1934 44.9101 31.1934 42.2645 31.1934 39.6253V39.6317Z" fill="#3A3A3A"/>
</svg>
