<svg width="61" height="62" viewBox="0 0 61 62" fill="none" xmlns="http://www.w3.org/2000/svg">
<path d="M38.7481 49.2303C38.7481 45.9126 38.7796 42.587 38.7324 39.2693C38.7167 38.2315 39.0704 37.8542 40.1079 37.9013C41.5306 37.9642 42.9533 37.9013 44.376 37.9171C44.9577 37.9171 45.3428 37.7991 45.4135 37.0994C45.6101 35.2991 45.8459 33.4908 46.121 31.6983C46.2624 30.8021 45.8852 30.6134 45.0913 30.637C43.3935 30.6763 41.6957 30.6213 39.9979 30.6527C39.094 30.6684 38.7088 30.3304 38.7403 29.3948C38.7874 28.0504 38.7324 26.7061 38.7639 25.3617C38.8189 22.956 39.9507 21.8474 42.3795 21.7845C43.4485 21.7531 44.5175 21.7531 45.5786 21.7845C46.286 21.8003 46.5769 21.5251 46.5611 20.8097C46.5297 19.2687 46.5454 17.7278 46.5611 16.1869C46.5611 15.6287 46.3961 15.2985 45.783 15.2356C43.2992 14.9762 40.8075 14.7875 38.3473 15.2592C34.1735 16.0611 31.4932 19.2137 31.3046 23.4748C31.2181 25.4089 31.2338 27.3507 31.2653 29.2847C31.281 30.3146 30.8644 30.6999 29.8583 30.6606C28.4749 30.6134 27.0915 30.6684 25.7081 30.6448C24.9457 30.6291 24.647 30.9436 24.6627 31.7062C24.6942 33.4044 24.702 35.1025 24.6627 36.8007C24.647 37.6104 24.9221 37.9485 25.7553 37.9171C27.178 37.8699 28.6007 37.9328 30.0234 37.8935C30.8565 37.8699 31.2653 38.1529 31.2653 39.0413C31.2495 46.2349 31.2495 53.4285 31.2653 60.6221C31.2653 61.597 30.7937 61.8092 29.9369 61.7856C18.9484 61.4083 10.3808 56.589 4.61934 47.312C-6.90365 28.8052 4.24205 4.69288 25.7553 1.21008C42.5996 -1.51798 58.6736 10.5106 60.7251 27.3822C62.5015 41.9974 54.2248 55.3468 40.3673 60.2054C38.8818 60.7243 38.756 60.6457 38.7481 59.0654C38.7481 55.787 38.7481 52.5008 38.7481 49.2224V49.2303Z" fill="white"/>
</svg>
