<svg width="62" height="61" viewBox="0 0 62 61" fill="none" xmlns="http://www.w3.org/2000/svg">
<path d="M31.111 0.00342101C47.7722 -0.256051 61.667 13.7712 61.6434 30.5032C61.6198 47.1487 47.7879 60.9715 31.1346 60.9636C14.4342 60.9557 0.531558 47.0465 0.680879 30.3538C0.830201 13.5353 14.2691 0.0112838 31.111 0.00342101ZM48.4324 30.5032C48.3066 27.5861 48.5267 24.669 48.1887 21.744C47.6543 17.16 44.4557 13.8105 39.866 13.4488C34.0739 12.9849 28.2739 12.9849 22.4818 13.4488C17.8686 13.8183 14.5599 17.0657 14.1591 21.7126C13.6561 27.4996 13.6876 33.3102 14.1513 39.1051C14.5206 43.7913 17.8293 47.1015 22.5054 47.4711C28.2975 47.935 34.0975 47.935 39.8896 47.4711C44.4557 47.1015 47.67 43.7362 48.1966 39.1522C48.5345 36.2745 48.3066 33.3888 48.4402 30.511L48.4324 30.5032Z" fill="white"/>
<path d="M16.6895 30.4635C16.603 27.8924 16.7288 25.3291 16.8624 22.7659C17.0746 18.8345 19.5894 16.3577 23.5347 16.1533C28.6273 15.8938 33.7121 15.8859 38.8048 16.1533C42.75 16.3577 45.2335 18.8581 45.4378 22.8052C45.705 27.9003 45.705 32.9875 45.4378 38.0826C45.2335 42.0611 42.695 44.5615 38.6948 44.7581C33.6414 45.0097 28.5959 45.0097 23.5425 44.7581C19.5502 44.5536 17.0353 42.0454 16.8466 38.0433C16.7209 35.5193 16.603 32.9953 16.6816 30.4635H16.6895ZM31.1815 39.2069C36.117 39.1991 39.9208 35.3542 39.905 30.4006C39.8893 25.5178 36.0777 21.7122 31.1894 21.7044C26.2225 21.6965 22.403 25.4942 22.403 30.4478C22.403 35.3935 26.2303 39.2148 31.1815 39.2069ZM40.4709 19.1804C39.4335 19.1804 38.5376 20.124 38.569 21.1933C38.5926 22.2941 39.3706 23.0489 40.4552 23.0411C41.5319 23.0332 42.4592 22.1132 42.4278 21.0832C42.3964 20.1397 41.4061 19.1804 40.4788 19.1883L40.4709 19.1804Z" fill="white"/>
<path d="M31.19 24.4883C34.4436 24.5119 37.1471 27.2481 37.1235 30.4876C37.0999 33.7349 34.365 36.4476 31.1349 36.4319C27.9049 36.4083 25.1699 33.6485 25.1935 30.4326C25.2171 27.201 27.9756 24.4647 31.19 24.4883Z" fill="white"/>
</svg>
