<svg width="51" height="50" viewBox="0 0 51 50" fill="none" xmlns="http://www.w3.org/2000/svg">
<path d="M25.4727 0.00266918C38.8855 -0.206213 50.0712 11.0861 50.0522 24.5559C50.0332 37.956 38.8981 49.0837 25.4917 49.0774C12.0474 49.0711 0.85536 37.8737 0.975569 24.4356C1.09578 10.8962 11.9145 0.00899895 25.4727 0.00266918ZM39.4169 24.5559C39.3157 22.2075 39.4928 19.8592 39.2208 17.5045C38.7906 13.8142 36.2156 11.1178 32.5208 10.8266C27.8579 10.4531 23.1888 10.4531 18.526 10.8266C14.8122 11.1241 12.1486 13.7383 11.8259 17.4792C11.421 22.1379 11.4463 26.8156 11.8196 31.4806C12.117 35.2532 14.7805 37.918 18.545 38.2155C23.2078 38.589 27.8769 38.589 32.5397 38.2155C36.2156 37.918 38.8032 35.2089 39.2271 31.5186C39.4992 29.2019 39.3157 26.8789 39.4232 24.5622L39.4169 24.5559Z" fill="#3A3A3A"/>
<path d="M13.8627 24.524C13.7931 22.4541 13.8943 20.3906 14.0019 18.3271C14.1727 15.1622 16.1972 13.1683 19.3733 13.0038C23.473 12.7949 27.5664 12.7886 31.6662 13.0038C34.8422 13.1683 36.8414 15.1812 37.0059 18.3588C37.221 22.4605 37.221 26.5558 37.0059 30.6575C36.8414 33.8604 34.7979 35.8732 31.5776 36.0315C27.5095 36.234 23.4477 36.234 19.3796 36.0315C16.1656 35.8669 14.1411 33.8477 13.9892 30.6259C13.888 28.594 13.7931 26.5621 13.8564 24.524H13.8627ZM25.5292 31.5627C29.5024 31.5563 32.5645 28.4611 32.5519 24.4733C32.5392 20.5425 29.4708 17.4789 25.5355 17.4726C21.537 17.4663 18.4622 20.5235 18.4622 24.5113C18.4622 28.4927 21.5434 31.569 25.5292 31.5627ZM33.0074 15.4407C32.1723 15.4407 31.451 16.2003 31.4763 17.0612C31.4953 17.9473 32.1217 18.555 32.9948 18.5487C33.8615 18.5423 34.6081 17.8017 34.5828 16.9725C34.5575 16.213 33.7603 15.4407 33.0138 15.4471L33.0074 15.4407Z" fill="#3A3A3A"/>
<path d="M25.5364 19.7137C28.1557 19.7327 30.3321 21.9355 30.3131 24.5434C30.2941 27.1576 28.0924 29.3413 25.4921 29.3287C22.8918 29.3097 20.6901 27.0879 20.7091 24.4991C20.7281 21.8975 22.9488 19.6948 25.5364 19.7137Z" fill="#3A3A3A"/>
</svg>
