<svg width="570" height="315" viewBox="0 0 570 315" fill="none" xmlns="http://www.w3.org/2000/svg">
<g filter="url(#filter0_d_14459_4142)">
<g clip-path="url(#clip0_14459_4142)">
<g filter="url(#filter1_d_14459_4142)">
<path d="M335.536 301.904H557V13H13V301.904H192.411H267.164H335.536Z" fill="#022FF8"/>
</g>
<g clip-path="url(#clip1_14459_4142)">
<path d="M508.475 -6.96365C485.928 -11.2937 469.436 -10.0258 447.828 -3.60827C432.242 1.0237 417.397 7.58782 401.345 10.6585C383.947 13.988 369.965 5.01737 354.111 -0.175267C336.307 -6.0062 313.277 -5.60942 295.698 0.480283C273.556 8.14848 259.781 23.9679 253.518 45.3164C243.055 80.9748 271.158 111.311 296.491 134.393C304.418 141.613 312.82 149.531 315.554 159.787C318.59 171.173 312.207 183.379 308.136 193.988C298.812 218.295 289.392 245.069 292.109 271.274C294.628 295.581 313.018 313.324 338.334 317.412C375.399 323.399 402.785 297.427 433.044 282.099C462.207 267.332 495.916 275.802 524.165 258.111C560.764 235.201 581.189 189.692 587.65 149.902C597.311 90.4113 569.355 -5.15227 492.388 -9.18907L508.475 -6.97228V-6.96365Z" fill="white"/>
<path d="M509.027 -8.99136C498.193 -11.0529 487.178 -12.1397 476.155 -11.3117C464.976 -10.4663 454.039 -7.8269 443.386 -4.43702C432.104 -0.848752 421.072 3.5417 409.625 6.59518C404.001 8.09604 398.3 9.44165 392.443 9.26051C387.224 9.09662 382.127 7.87178 377.184 6.24153C367.196 2.94653 357.751 -1.8752 347.434 -4.16963C337.118 -6.46405 325.896 -6.99021 315.166 -5.843C296.414 -3.84185 277.998 3.48132 265.542 18.1104C253.76 31.9632 247.178 51.0173 249.835 69.157C252.673 88.5992 265.025 105.367 278.11 119.367C284.985 126.725 292.532 133.332 299.778 140.301C307.023 147.271 314.398 155.81 314.251 166.472C314.174 171.983 312.423 177.357 310.491 182.472C308.559 187.587 306.342 192.806 304.366 198.016C300.131 209.238 296.155 220.598 293.36 232.277C288.685 251.831 286.304 274.741 296.948 292.837C305.841 307.949 322.006 317.205 339.128 319.629C348.866 321.009 358.699 320.336 368.196 317.817C377.693 315.299 386.25 311.305 394.643 306.733C403.035 302.162 411.281 296.926 419.579 291.983C427.877 287.041 436.96 281.848 446.647 278.959C466.874 272.929 488.507 274.077 508.613 267.538C527.296 261.466 542.917 248.062 554.916 232.811C566.69 217.837 575.41 200.655 581.578 182.671C586.839 167.334 590.427 151.239 591.333 135.022C592.127 120.799 591.031 106.472 588.469 92.4635C585.908 78.4555 581.379 63.5245 575.065 50.0684C568.958 37.061 560.911 24.8039 550.672 14.6688C540.476 4.57678 528.09 -3.19493 514.367 -7.44737C507.242 -9.65554 499.841 -10.8804 492.397 -11.2858C490.085 -11.4152 489.482 -7.49913 491.836 -7.17135C497.201 -6.42955 502.558 -5.69637 507.923 -4.95456C509.053 -4.7993 510.157 -5.23058 510.502 -6.42092C510.787 -7.39562 510.157 -8.84473 509.036 -8.99999C503.671 -9.7418 498.314 -10.475 492.949 -11.2168L492.388 -7.10235C506.785 -6.31741 520.741 -2.01321 532.912 5.74124C544.539 13.1507 554.174 23.3893 561.756 34.8442C569.674 46.808 575.514 60.0569 579.654 73.7717C583.777 87.4261 586.279 101.572 587.098 115.813C587.892 129.528 587.02 143.182 584.295 156.647C580.672 174.554 574.634 192.047 565.991 208.159C557.296 224.376 545.824 239.401 531.169 250.675C523.139 256.86 514.358 261.569 504.602 264.381C494.717 267.228 484.47 268.401 474.292 269.66C464.079 270.92 453.789 272.274 443.947 275.405C434.528 278.407 425.928 283.323 417.475 288.361C401.431 297.909 385.577 308.812 367.334 313.703C349.09 318.594 330.304 316.48 315.123 306.164C308.498 301.661 303.021 295.563 299.329 288.447C295.068 280.244 293.748 271.187 293.74 262.026C293.705 238.66 301.865 216.06 310.172 194.531C313.95 184.741 319.358 174.485 318.349 163.651C317.4 153.386 310.646 145.028 303.538 138.076C296.431 131.124 289.116 124.836 282.354 117.719C275.591 110.603 269.329 103.116 264.205 94.7924C259.082 86.4687 255.545 78.2226 254.036 68.9845C252.5 59.5912 253.837 50.2237 257.02 41.3134C262.851 25.0196 274.53 11.9776 290.333 4.8183C299.441 0.686614 309.473 -1.39217 319.418 -2.03909C329.364 -2.68602 340.448 -1.92696 350.522 0.893629C360.597 3.71422 369.758 8.59633 379.746 11.3738C384.689 12.7453 389.838 13.582 394.979 13.4267C400.629 13.2542 406.218 11.8482 411.652 10.3646C433.389 4.42152 453.944 -5.57561 476.716 -7.1886C487.187 -7.93041 497.633 -6.93846 507.923 -4.98044C510.563 -4.48015 511.684 -8.51695 509.036 -9.01724L509.027 -8.99136Z" fill="white"/>
<g clip-path="url(#clip2_14459_4142)">
<path d="M294.087 114.676C294.321 115.505 294.373 116.334 294.381 117.163C294.373 117.993 294.321 118.822 294.087 119.651C293.853 118.822 293.801 117.993 293.793 117.163C293.801 116.334 293.853 115.505 294.087 114.676Z" fill="#9D8BF7"/>
<path d="M294.087 126.164C293.853 125.335 293.801 124.505 293.793 123.676C293.801 122.847 293.853 122.018 294.087 121.189C294.321 122.018 294.373 122.847 294.381 123.676C294.373 124.505 294.321 125.335 294.087 126.164Z" fill="#9D8BF7"/>
<path d="M288.162 120.42C289.014 120.186 289.873 120.133 290.725 120.126C291.577 120.133 292.436 120.186 293.288 120.42C292.436 120.653 291.577 120.706 290.725 120.714C289.873 120.706 289.014 120.653 288.162 120.42Z" fill="#9D8BF7"/>
<path d="M300.004 120.42C299.152 120.653 298.293 120.706 297.441 120.714C296.59 120.706 295.73 120.653 294.878 120.42C295.73 120.186 296.59 120.133 297.441 120.126C298.293 120.133 299.152 120.186 300.004 120.42Z" fill="#9D8BF7"/>
<path d="M341.734 79.8196C341.968 80.6488 342.021 81.4779 342.028 82.3071C342.021 83.1363 341.968 83.9655 341.734 84.7947C341.5 83.9655 341.448 83.1363 341.44 82.3071C341.448 81.4779 341.5 80.6488 341.734 79.8196Z" fill="#9D8BF7"/>
<path d="M341.734 91.3076C341.5 90.4784 341.448 89.6492 341.44 88.8201C341.448 87.9909 341.5 87.1617 341.734 86.3325C341.968 87.1617 342.021 87.9909 342.028 88.8201C342.021 89.6492 341.968 90.4784 341.734 91.3076Z" fill="#9D8BF7"/>
<path d="M335.809 85.5633C336.661 85.3296 337.52 85.2768 338.372 85.2693C339.224 85.2768 340.083 85.3296 340.935 85.5633C340.083 85.7969 339.224 85.8497 338.372 85.8573C337.52 85.8497 336.661 85.7969 335.809 85.5633Z" fill="#9D8BF7"/>
<path d="M347.659 85.5633C346.807 85.7969 345.948 85.8497 345.096 85.8573C344.244 85.8497 343.385 85.7969 342.533 85.5633C343.385 85.3296 344.244 85.2768 345.096 85.2693C345.948 85.2768 346.807 85.3296 347.659 85.5633Z" fill="#9D8BF7"/>
<path d="M514.822 98.4158C515.056 99.245 515.109 100.074 515.116 100.903C515.109 101.732 515.056 102.562 514.822 103.391C514.589 102.562 514.536 101.732 514.528 100.903C514.536 100.074 514.589 99.245 514.822 98.4158Z" fill="#9D8BF7"/>
<path d="M514.822 109.904C514.589 109.074 514.536 108.245 514.528 107.416C514.536 106.587 514.589 105.758 514.822 104.928C515.056 105.758 515.109 106.587 515.116 107.416C515.109 108.245 515.056 109.074 514.822 109.904Z" fill="#9D8BF7"/>
<path d="M508.905 104.159C509.757 103.926 510.616 103.873 511.468 103.865C512.32 103.873 513.179 103.926 514.031 104.159C513.179 104.393 512.32 104.446 511.468 104.453C510.616 104.446 509.757 104.393 508.905 104.159Z" fill="#9D8BF7"/>
<path d="M520.747 104.159C519.895 104.393 519.036 104.446 518.184 104.453C517.332 104.446 516.473 104.393 515.621 104.159C516.473 103.926 517.332 103.873 518.184 103.865C519.036 103.873 519.895 103.926 520.747 104.159Z" fill="#9D8BF7"/>
<path d="M518.184 43.7349C518.418 44.564 518.471 45.3932 518.478 46.2224C518.471 47.0516 518.418 47.8808 518.184 48.71C517.951 47.8808 517.898 47.0516 517.89 46.2224C517.898 45.3932 517.951 44.564 518.184 43.7349Z" fill="#9D8BF7"/>
<path d="M518.184 55.2234C517.951 54.3942 517.898 53.565 517.89 52.7358C517.898 51.9067 517.951 51.0775 518.184 50.2483C518.418 51.0775 518.471 51.9067 518.478 52.7358C518.471 53.565 518.418 54.3942 518.184 55.2234Z" fill="#9D8BF7"/>
<path d="M512.26 49.4788C513.111 49.2451 513.971 49.1924 514.822 49.1848C515.674 49.1924 516.534 49.2451 517.385 49.4788C516.534 49.7125 515.674 49.7652 514.822 49.7728C513.971 49.7652 513.111 49.7125 512.26 49.4788Z" fill="#9D8BF7"/>
<path d="M524.109 49.4788C523.257 49.7125 522.398 49.7652 521.546 49.7728C520.695 49.7652 519.835 49.7125 518.983 49.4788C519.835 49.2451 520.695 49.1924 521.546 49.1848C522.398 49.1924 523.257 49.2451 524.109 49.4788Z" fill="#9D8BF7"/>
<path d="M489.472 31.5615C489.705 32.0967 489.758 32.6319 489.766 33.1596C489.758 33.6948 489.705 34.23 489.472 34.7576C489.238 34.2224 489.185 33.6872 489.178 33.1596C489.185 32.6244 489.238 32.0892 489.472 31.5615Z" fill="#9D8BF7"/>
<path d="M489.472 38.9632C489.238 38.428 489.185 37.8928 489.178 37.3651C489.185 36.8299 489.238 36.2948 489.472 35.7671C489.705 36.3023 489.758 36.8375 489.766 37.3651C489.758 37.9003 489.705 38.4355 489.472 38.9632Z" fill="#9D8BF7"/>
<path d="M485.657 35.2627C486.208 35.0291 486.758 34.9763 487.308 34.9688C487.859 34.9763 488.409 35.0291 488.959 35.2627C488.409 35.4964 487.859 35.5492 487.308 35.5567C486.758 35.5492 486.208 35.4964 485.657 35.2627Z" fill="#9D8BF7"/>
<path d="M493.294 35.2627C492.743 35.4964 492.193 35.5492 491.643 35.5567C491.092 35.5492 490.542 35.4964 489.992 35.2627C490.542 35.0291 491.092 34.9763 491.643 34.9688C492.193 34.9763 492.743 35.0291 493.294 35.2627Z" fill="#9D8BF7"/>
<path d="M499.656 77.5581C499.588 78.0255 499.37 78.3873 499.128 78.719C498.864 79.0431 498.571 79.3371 498.133 79.518C498.201 79.0506 498.412 78.6888 498.661 78.3571C498.925 78.033 499.219 77.7466 499.656 77.5581Z" fill="#9D8BF7"/>
<path d="M496.128 82.0812C496.196 81.6139 496.415 81.252 496.656 80.9204C496.92 80.5962 497.214 80.3023 497.651 80.1213C497.583 80.5887 497.372 80.9505 497.123 81.2822C496.859 81.6063 496.565 81.8928 496.128 82.0812Z" fill="#9D8BF7"/>
<path d="M495.555 78.0032C496.038 78.0786 496.407 78.3047 496.746 78.561C497.078 78.8324 497.379 79.1339 497.575 79.5786C497.093 79.5032 496.724 79.2771 496.384 79.0208C496.053 78.7494 495.751 78.4479 495.555 78.0032Z" fill="#9D8BF7"/>
<path d="M500.229 81.6436C499.747 81.5682 499.377 81.342 499.038 81.0857C498.706 80.8144 498.405 80.5129 498.209 80.0681C498.691 80.1435 499.061 80.3696 499.4 80.6259C499.731 80.8973 500.033 81.1988 500.229 81.6511V81.6436Z" fill="#9D8BF7"/>
<path d="M328 130.302C327.933 130.769 327.714 131.131 327.473 131.463C327.209 131.787 326.915 132.081 326.478 132.262C326.546 131.794 326.757 131.432 327.005 131.101C327.269 130.777 327.563 130.49 328 130.302Z" fill="#9D8BF7"/>
<path d="M324.465 134.832C324.533 134.365 324.752 134.003 324.993 133.672C325.257 133.347 325.551 133.053 325.988 132.873C325.92 133.34 325.709 133.702 325.46 134.033C325.196 134.358 324.902 134.644 324.465 134.832Z" fill="#9D8BF7"/>
<path d="M323.9 130.747C324.382 130.822 324.752 131.048 325.091 131.305C325.423 131.576 325.724 131.878 325.92 132.322C325.438 132.247 325.068 132.021 324.729 131.764C324.397 131.493 324.096 131.192 323.9 130.739V130.747Z" fill="#9D8BF7"/>
<path d="M328.566 134.387C328.083 134.312 327.714 134.086 327.375 133.829C327.043 133.558 326.742 133.257 326.546 132.812C327.028 132.887 327.397 133.113 327.737 133.37C328.068 133.641 328.37 133.942 328.566 134.387Z" fill="#9D8BF7"/>
<path d="M364.348 64.8718C364.281 65.3392 364.062 65.701 363.821 66.0327C363.557 66.3568 363.263 66.6508 362.826 66.8317C362.894 66.3644 363.105 66.0025 363.353 65.6709C363.617 65.3467 363.911 65.0603 364.348 64.8718Z" fill="#9D8BF7"/>
<path d="M360.821 69.4025C360.888 68.9352 361.107 68.5733 361.348 68.2417C361.612 67.9175 361.906 67.6235 362.343 67.4426C362.275 67.91 362.064 68.2718 361.816 68.6035C361.552 68.9276 361.258 69.2141 360.821 69.4025Z" fill="#9D8BF7"/>
<path d="M360.248 65.3159C360.73 65.3913 361.099 65.6174 361.439 65.8737C361.77 66.1451 362.072 66.4466 362.268 66.8914C361.785 66.816 361.416 66.5898 361.077 66.3336C360.745 66.0622 360.444 65.7607 360.248 65.3159Z" fill="#9D8BF7"/>
<path d="M364.921 68.9573C364.439 68.8819 364.07 68.6558 363.73 68.3995C363.399 68.1281 363.097 67.8266 362.901 67.3818C363.384 67.4572 363.753 67.6834 364.092 67.9396C364.424 68.211 364.725 68.5125 364.921 68.9648V68.9573Z" fill="#9D8BF7"/>
<path d="M417.755 42.8833C417.989 43.2979 418.042 43.7125 418.049 44.1271C418.042 44.5417 417.989 44.9563 417.755 45.3708C417.521 44.9563 417.469 44.5417 417.461 44.1271C417.469 43.7125 417.521 43.2979 417.755 42.8833Z" fill="#9D8BF7"/>
<path d="M417.755 48.6277C417.521 48.2131 417.469 47.7985 417.461 47.3839C417.469 46.9693 417.521 46.5547 417.755 46.1401C417.989 46.5547 418.042 46.9693 418.049 47.3839C418.042 47.7985 417.989 48.2131 417.755 48.6277Z" fill="#9D8BF7"/>
<path d="M414.793 45.7557C415.222 45.522 415.645 45.4692 416.074 45.4617C416.504 45.4692 416.926 45.522 417.356 45.7557C416.926 45.9893 416.504 46.0421 416.074 46.0496C415.645 46.0421 415.222 45.9893 414.793 45.7557Z" fill="#9D8BF7"/>
<path d="M420.718 45.7557C420.288 45.9893 419.866 46.0421 419.436 46.0496C419.007 46.0421 418.584 45.9893 418.155 45.7557C418.584 45.522 419.007 45.4692 419.436 45.4617C419.866 45.4692 420.288 45.522 420.718 45.7557Z" fill="#9D8BF7"/>
<path d="M284.054 60.877C284.287 61.3292 284.34 61.7815 284.348 62.2338C284.34 62.6861 284.287 63.1384 284.054 63.5906C283.82 63.1384 283.767 62.6861 283.76 62.2338C283.767 61.7815 283.82 61.3292 284.054 60.877Z" fill="#9D8BF7"/>
<path d="M284.054 67.1412C283.82 66.6889 283.767 66.2366 283.76 65.7843C283.767 65.3321 283.82 64.8798 284.054 64.4275C284.287 64.8798 284.34 65.3321 284.348 65.7843C284.34 66.2366 284.287 66.6889 284.054 67.1412Z" fill="#9D8BF7"/>
<path d="M279.938 64.0052C280.533 63.7715 281.121 63.7187 281.717 63.7112C282.312 63.7187 282.9 63.7715 283.496 64.0052C282.9 64.2388 282.312 64.2916 281.717 64.2991C281.121 64.2916 280.533 64.2388 279.938 64.0052Z" fill="#9D8BF7"/>
<path d="M288.162 64.0052C287.566 64.2388 286.978 64.2916 286.383 64.2991C285.787 64.2916 285.2 64.2388 284.604 64.0052C285.2 63.7715 285.787 63.7187 286.383 63.7112C286.978 63.7187 287.566 63.7715 288.162 64.0052Z" fill="#9D8BF7"/>
<path d="M541.643 75.199C541.876 75.6513 541.929 76.1035 541.937 76.5558C541.929 77.0081 541.876 77.4604 541.643 77.9127C541.409 77.4604 541.356 77.0081 541.349 76.5558C541.356 76.1035 541.409 75.6513 541.643 75.199Z" fill="#9D8BF7"/>
<path d="M541.643 81.4625C541.409 81.0102 541.356 80.5579 541.349 80.1056C541.356 79.6533 541.409 79.2011 541.643 78.7488C541.876 79.2011 541.929 79.6533 541.937 80.1056C541.929 80.5579 541.876 81.0102 541.643 81.4625Z" fill="#9D8BF7"/>
<path d="M537.534 78.3345C538.13 78.1008 538.718 78.0481 539.313 78.0405C539.909 78.0481 540.497 78.1008 541.092 78.3345C540.497 78.5682 539.909 78.621 539.313 78.6285C538.718 78.621 538.13 78.5682 537.534 78.3345Z" fill="#9D8BF7"/>
<path d="M545.751 78.3345C545.155 78.5682 544.567 78.621 543.972 78.6285C543.376 78.621 542.788 78.5682 542.193 78.3345C542.788 78.1008 543.376 78.0481 543.972 78.0405C544.567 78.0481 545.155 78.1008 545.751 78.3345Z" fill="#9D8BF7"/>
<path d="M268.917 96.9607C269.209 96.9607 269.445 96.7312 269.445 96.4481C269.445 96.165 269.209 95.9355 268.917 95.9355C268.626 95.9355 268.39 96.165 268.39 96.4481C268.39 96.7312 268.626 96.9607 268.917 96.9607Z" fill="#8B1A47" stroke="#9D8BF7" stroke-width="0.595503" stroke-miterlimit="10"/>
<path d="M297.434 41.9862C297.434 42.2651 297.2 42.4988 296.906 42.4988C296.612 42.4988 296.378 42.2727 296.378 41.9862C296.378 41.6998 296.612 41.4736 296.906 41.4736C297.2 41.4736 297.434 41.6998 297.434 41.9862Z" fill="#8B1A47" stroke="#9D8BF7" stroke-width="0.595503" stroke-miterlimit="10"/>
<path d="M390.196 58.9161C390.196 59.1951 389.963 59.4287 389.669 59.4287C389.375 59.4287 389.141 59.2026 389.141 58.9161C389.141 58.6297 389.375 58.4036 389.669 58.4036C389.963 58.4036 390.196 58.6297 390.196 58.9161Z" fill="#8B1A47" stroke="#9D8BF7" stroke-width="0.595503" stroke-miterlimit="10"/>
<path d="M490 58.4039C490 58.6828 489.766 58.9165 489.472 58.9165C489.178 58.9165 488.944 58.6904 488.944 58.4039C488.944 58.1175 489.178 57.8914 489.472 57.8914C489.766 57.8914 490 58.1175 490 58.4039Z" fill="#8B1A47" stroke="#9D8BF7" stroke-width="0.595503" stroke-miterlimit="10"/>
<path d="M446.091 32.2472C446.091 32.5261 445.857 32.7598 445.563 32.7598C445.269 32.7598 445.035 32.5336 445.035 32.2472C445.035 31.9608 445.269 31.7346 445.563 31.7346C445.857 31.7346 446.091 31.9608 446.091 32.2472Z" fill="#8B1A47" stroke="#9D8BF7" stroke-width="0.595503" stroke-miterlimit="10"/>
<path d="M492.947 121.203C492.774 121.422 492.449 121.459 492.216 121.278C491.99 121.097 491.944 120.773 492.118 120.555C492.291 120.336 492.615 120.298 492.849 120.479C493.075 120.66 493.12 120.984 492.947 121.203Z" fill="#8B1A47" stroke="#9D8BF7" stroke-width="0.595503" stroke-miterlimit="10"/>
<path d="M519.262 80.2792C519.089 80.4978 518.765 80.5355 518.531 80.3546C518.297 80.1737 518.26 79.8495 518.433 79.6309C518.606 79.4123 518.931 79.3746 519.164 79.5555C519.398 79.7365 519.436 80.0606 519.262 80.2792Z" fill="#8B1A47" stroke="#9D8BF7" stroke-width="0.595503" stroke-miterlimit="10"/>
<path d="M542.577 102.72C542.404 102.939 542.08 102.977 541.846 102.796C541.613 102.615 541.575 102.291 541.748 102.072C541.922 101.853 542.246 101.816 542.479 101.997C542.706 102.178 542.751 102.502 542.577 102.72Z" fill="#8B1A47" stroke="#9D8BF7" stroke-width="0.595503" stroke-miterlimit="10"/>
<path d="M345.617 114.675C345.617 114.954 345.383 115.188 345.089 115.188C344.795 115.188 344.561 114.962 344.561 114.675C344.561 114.389 344.795 114.163 345.089 114.163C345.383 114.163 345.617 114.389 345.617 114.675Z" fill="#8B1A47" stroke="#9D8BF7" stroke-width="0.595503" stroke-miterlimit="10"/>
<path d="M334.845 64.4266C334.845 64.7056 334.611 64.9392 334.317 64.9392C334.023 64.9392 333.79 64.7131 333.79 64.4266C333.79 64.1402 334.023 63.9141 334.317 63.9141C334.611 63.9141 334.845 64.1402 334.845 64.4266Z" fill="#8B1A47" stroke="#9D8BF7" stroke-width="0.595503" stroke-miterlimit="10"/>
<path d="M410.602 85.0514C410.602 85.3303 410.368 85.564 410.074 85.564C409.78 85.564 409.546 85.3378 409.546 85.0514C409.546 84.765 409.78 84.5388 410.074 84.5388C410.368 84.5388 410.602 84.765 410.602 85.0514Z" fill="#8B1A47" stroke="#9D8BF7" stroke-width="0.595503" stroke-miterlimit="10"/>
<path d="M304.663 85.9625C304.663 86.2414 304.429 86.4751 304.135 86.4751C303.841 86.4751 303.607 86.249 303.607 85.9625C303.607 85.6761 303.841 85.45 304.135 85.45C304.429 85.45 304.663 85.6761 304.663 85.9625Z" fill="#8B1A47" stroke="#9D8BF7" stroke-width="0.595503" stroke-miterlimit="10"/>
<path d="M320.439 44.5115C320.673 44.9261 320.726 45.3407 320.733 45.7552C320.726 46.1698 320.673 46.5844 320.439 46.999C320.206 46.5844 320.153 46.1698 320.146 45.7552C320.153 45.3407 320.206 44.9261 320.439 44.5115Z" fill="#9D8BF7"/>
<path d="M320.439 50.2559C320.206 49.8413 320.153 49.4267 320.146 49.0121C320.153 48.5975 320.206 48.1829 320.439 47.7683C320.673 48.1829 320.726 48.5975 320.733 49.0121C320.726 49.4267 320.673 49.8413 320.439 50.2559Z" fill="#9D8BF7"/>
<path d="M317.477 47.3838C317.907 47.1501 318.329 47.0974 318.759 47.0898C319.188 47.0974 319.61 47.1501 320.04 47.3838C319.61 47.6175 319.188 47.6703 318.759 47.6778C318.329 47.6703 317.907 47.6175 317.477 47.3838Z" fill="#9D8BF7"/>
<path d="M323.402 47.3838C322.972 47.6175 322.55 47.6703 322.12 47.6778C321.691 47.6703 321.269 47.6175 320.839 47.3838C321.269 47.1501 321.691 47.0974 322.12 47.0898C322.55 47.0974 322.972 47.1501 323.402 47.3838Z" fill="#9D8BF7"/>
</g>
</g>
<g clip-path="url(#clip3_14459_4142)">
<path d="M315.726 223.078H303.583V226.336H315.726V223.078Z" fill="#B7AFFD" stroke="#B7AFFD" stroke-width="0.403521" stroke-miterlimit="10"/>
<path d="M333.451 223.078H321.308V226.336H333.451V223.078Z" fill="#B7AFFD" stroke="#B7AFFD" stroke-width="0.403521" stroke-miterlimit="10"/>
<path d="M304.906 226.336H299.033V349.111H304.906V226.336Z" fill="#EEC255" stroke="#EEC255" stroke-width="0.403521" stroke-miterlimit="10"/>
<path d="M304.906 242.125V226.336H299.033V246.474C300.781 244.793 302.724 243.321 304.906 242.125Z" fill="#3D1466" stroke="#3D1466" stroke-width="0.403521" stroke-miterlimit="10"/>
<path d="M300.759 248.089V349.111" stroke="#F9FAF6" stroke-width="0.403521" stroke-miterlimit="10"/>
<path d="M321.607 226.336H315.734V349.111H321.607V226.336Z" fill="#EEC255" stroke="#EEC255" stroke-width="0.403521" stroke-miterlimit="10"/>
<path d="M321.607 242.125V226.336H315.734V246.474C317.482 244.793 319.425 243.321 321.607 242.125Z" fill="#3D1466" stroke="#3D1466" stroke-width="0.403521" stroke-miterlimit="10"/>
<path d="M317.46 248.089V349.111" stroke="#F9FAF6" stroke-width="0.403521" stroke-miterlimit="10"/>
<path d="M339.407 226.336H333.534V349.111H339.407V226.336Z" fill="#EEC255" stroke="#EEC255" stroke-width="0.403521" stroke-miterlimit="10"/>
<path d="M339.407 242.125V226.336H333.534V246.474C335.282 244.793 337.225 243.321 339.407 242.125Z" fill="#3D1466" stroke="#3D1466" stroke-width="0.403521" stroke-miterlimit="10"/>
<path d="M335.26 248.089V349.111" stroke="#F9FAF6" stroke-width="0.403521" stroke-miterlimit="10"/>
<path d="M352.85 82.2338C352.85 82.2338 365.621 133.586 378.661 130.768C394.891 127.264 414.141 107.484 414.141 107.484L398.859 88.8769L379.67 102.634L365.404 74.4697L352.85 82.2338Z" fill="#F0E3E4" stroke="#140327" stroke-width="0.403521" stroke-miterlimit="10"/>
<path d="M418.759 87.2858L429.37 93.7272L431.29 86.4563L443.007 88.2572L441.049 96.3052L453.312 102.246L424.968 113.709L418.759 87.2858Z" fill="#F0E3E4" stroke="#140327" stroke-width="0.403521" stroke-miterlimit="10"/>
<path d="M443.949 97.2848C452.355 100.371 473.159 110.631 453.304 131.607C453.304 131.607 437.963 172.512 438.053 182.525C438.053 182.525 394.428 160.085 365.217 175.927L383.563 114.263L375.388 96.6646C375.388 96.6646 409.388 68.5526 424.243 89.9841C421.381 96.3283 423.018 103.001 426.717 105.393C431.215 108.299 440.287 105.863 443.941 97.2848H443.949Z" fill="#3F7AFF" stroke="#3F7AFF" stroke-width="0.508138" stroke-miterlimit="10"/>
<path opacity="0.66" d="M400.197 157.858C391.245 156.767 379.468 155.639 370.262 159.016L365.233 175.927C394.443 160.085 438.068 182.525 438.068 182.525C438.046 180.224 438.845 176.293 440.078 171.6C427.943 164.217 414.32 159.577 400.205 157.866L400.197 157.858Z" fill="#F9FAF6" stroke="#F9FAF6" stroke-width="0.508138" stroke-miterlimit="10"/>
<path opacity="0.66" d="M428.301 110.011C435.834 112.193 442.118 104.593 446.467 98.286C445.555 97.89 444.704 97.5537 443.949 97.2772C440.295 105.856 431.223 108.292 426.725 105.385C423.026 102.994 421.389 96.3282 424.251 89.9765C422.884 88.0037 421.352 86.4494 419.7 85.2612C417.272 94.1088 417.727 106.939 428.301 110.003V110.011Z" fill="#F9FAF6" stroke="#F9FAF6" stroke-width="0.508138" stroke-miterlimit="10"/>
<path opacity="0.66" d="M397.342 126.958C401.077 126.958 404.105 123.93 404.105 120.195C404.105 116.46 401.077 113.433 397.342 113.433C393.607 113.433 390.58 116.46 390.58 120.195C390.58 123.93 393.607 126.958 397.342 126.958Z" fill="#F9FAF6" stroke="#F9FAF6" stroke-width="0.508138" stroke-miterlimit="10"/>
<path d="M399.898 92.1357L393.456 101.387" stroke="#3D58B3" stroke-width="0.508138" stroke-miterlimit="10"/>
<path d="M390.841 58.2693L341.081 91.5374C339.751 93.3532 339.848 95.7743 341.208 97.3062C342.299 98.5317 344.062 99.0175 345.744 98.584C362.318 87.4797 378.892 76.3754 395.467 65.2711L390.848 58.2693H390.841Z" fill="#3D1466" stroke="#3D1466" stroke-width="0.508138" stroke-miterlimit="10"/>
<path d="M396.633 70.0161L387.882 55.9153L450.503 16.6467C451.511 16.9681 455.27 18.2907 457.788 22.2811C460.292 26.2565 459.896 30.2245 459.754 31.2856C438.718 44.1983 417.675 57.1109 396.633 70.0236V70.0161Z" fill="#EEC255" stroke="#EEC255" stroke-width="0.433412" stroke-miterlimit="10"/>
<path d="M395.99 65.8537L420.276 51.1625L415.747 43.4583L391.327 58.0299L395.99 65.8537Z" fill="#F0E3E4" stroke="#F0E3E4" stroke-width="0.433412" stroke-miterlimit="10"/>
<path d="M367.258 171.965C367.258 171.965 357.76 209.784 377.248 249.352L410.868 243.784L414.851 269.565L440.026 267.981C440.026 267.981 447.536 232.463 436.85 180.058C436.85 180.058 399.958 158.335 367.258 171.965Z" fill="#3D58B3" stroke="#3D58B3" stroke-width="0.403521" stroke-miterlimit="10"/>
<path d="M374.357 169.559C374.357 169.559 362.729 208.82 384.871 248.088" stroke="#140327" stroke-width="0.403521" stroke-miterlimit="10"/>
<path d="M432.792 177.927C432.792 177.927 443.351 230.624 436.028 268.227" stroke="#140327" stroke-width="0.403521" stroke-miterlimit="10"/>
<path d="M410.801 242.955C407.856 210.083 403.171 186.926 403.171 186.926" stroke="#140327" stroke-width="0.508138" stroke-miterlimit="10"/>
<path d="M442.776 270.267C441.349 277.851 436.372 295.987 420.657 304.588L400.025 326.558C400.025 326.558 417.676 344.403 399.988 356.889L367.116 320.782L414.41 267.547C414.41 267.547 426.538 260.358 440.004 265.357C442.007 266.097 443.172 268.182 442.776 270.274V270.267Z" fill="#B7AFFD" stroke="#140327" stroke-width="0.508138" stroke-miterlimit="10"/>
<path d="M405.682 277.357C405.682 277.357 417.041 290.397 437.508 286.183" stroke="#140327" stroke-width="0.508138" stroke-miterlimit="10"/>
<path d="M403.171 280.183C403.171 280.183 414.253 294.239 434.892 291.003" stroke="#140327" stroke-width="0.508138" stroke-miterlimit="10"/>
<path d="M399.674 284.128C399.674 284.128 410.509 298.744 430.842 296.286" stroke="#140327" stroke-width="0.508138" stroke-miterlimit="10"/>
<path d="M414.41 267.539C414.41 267.539 433.757 263.212 442.739 269.564L414.41 267.539Z" fill="#B7AFFD"/>
<path d="M414.41 267.539C414.41 267.539 433.757 263.212 442.739 269.564" stroke="#140327" stroke-width="0.508138" stroke-miterlimit="10"/>
<path d="M377.249 249.351C377.249 249.351 378.721 229.982 394.144 228.249C409.568 226.515 410.86 243.784 410.86 243.784L429.437 330.638C429.437 330.638 444.405 333.336 442.582 343.573C442.582 343.573 427.995 356.509 409.986 350.583L398.03 321.768C395.108 315.626 392.022 307.922 389.616 298.805C387.396 290.398 386.268 282.761 385.723 276.297C385.633 275.229 385.409 274.183 385.072 273.166C382.457 265.231 379.849 257.295 377.234 249.351H377.249Z" fill="#CBC5FD" stroke="#140327" stroke-width="0.508138" stroke-miterlimit="10"/>
<path d="M381.478 262.204C381.478 262.204 391.006 249.336 413.214 254.753" stroke="#140327" stroke-width="0.508138" stroke-miterlimit="10"/>
<path d="M383.234 267.965C383.234 267.965 392.59 255.097 414.388 260.514" stroke="#140327" stroke-width="0.508138" stroke-miterlimit="10"/>
<path d="M384.871 273.166C384.871 273.166 394.092 260.366 415.591 265.761" stroke="#140327" stroke-width="0.500665" stroke-miterlimit="10"/>
<path d="M386.021 279.077C386.021 279.077 395.242 266.276 416.741 271.664" stroke="#140327" stroke-width="0.500665" stroke-miterlimit="10"/>
<path d="M423.033 81.5245C420.44 81.3227 418.49 79.0361 418.692 76.4431L419.058 71.7578C419.26 69.1648 421.546 67.2144 424.139 67.4162C426.732 67.618 428.682 69.9046 428.481 72.4976L428.115 77.1829C427.913 79.7759 425.626 81.7263 423.033 81.5245Z" fill="#3D1466" stroke="#3D1466" stroke-width="0.545501" stroke-miterlimit="10"/>
<path d="M453.395 80.0379C452.289 83.1764 450.54 86.0907 448.172 88.4147C444.174 92.3453 438.973 94.1163 434.123 92.6367C430.319 91.471 427.42 88.5118 425.784 84.6111C425.784 84.6037 425.776 84.5887 425.761 84.5663C425.716 84.4542 425.672 84.3496 425.634 84.245C425.5 83.9461 425.395 83.6546 425.29 83.3483C425.283 83.3109 425.268 83.2586 425.246 83.2212C424.939 82.2946 424.715 81.3307 424.543 80.3293C424.349 79.1412 424.237 77.9082 424.244 76.6379C424.244 76.3987 424.244 76.1596 424.259 75.913C424.259 75.7038 424.267 75.4796 424.289 75.2629C424.289 75.2479 424.289 75.2255 424.289 75.2106C424.289 74.9939 424.312 74.7473 424.326 74.5156C424.356 74.2391 424.379 73.9851 424.416 73.7161C424.439 73.5143 424.468 73.2901 424.498 73.0884C424.655 71.9974 424.902 70.8914 425.238 69.7929C425.5 68.8962 425.813 68.0294 426.157 67.1999C429.796 58.5616 437.815 53.5101 445.041 55.7369C452.67 58.0908 455.36 66.7516 454.718 73.9851C454.531 76.0326 454.097 78.0801 453.402 80.0379H453.395Z" fill="#F0E3E4" stroke="#140327" stroke-width="0.403521" stroke-miterlimit="10"/>
<path opacity="0.21" d="M437.299 81.2336C437.149 83.8341 439.129 86.0609 441.722 86.2104C444.315 86.3598 446.542 84.3796 446.699 81.7791C446.849 79.1787 444.868 76.9518 442.275 76.8024C439.682 76.6529 437.448 78.6332 437.299 81.2336Z" fill="#CE4646" stroke="#CE4646" stroke-width="0.717371" stroke-miterlimit="10"/>
<path d="M446.064 71.8096C446.064 71.8096 444.248 68.9775 440.183 69.1792L446.064 71.8096Z" fill="#140327"/>
<path d="M446.012 71.8477C445.354 71.6534 444.846 71.474 444.368 71.2872C443.89 71.1079 443.456 70.9285 443.023 70.7492C442.59 70.5698 442.171 70.3457 441.708 70.1289C441.244 69.8898 440.751 69.6582 440.183 69.2472V69.1276C440.736 69.0903 441.312 69.0903 441.872 69.1874C442.433 69.2621 442.986 69.434 443.509 69.6507C444.032 69.8749 444.517 70.1887 444.958 70.5399C445.407 70.8912 445.803 71.3022 446.109 71.7879L446.005 71.8551L446.012 71.8477Z" fill="#140327"/>
<path d="M432.785 67.8497C432.785 67.8497 429.781 66.3253 426.381 68.5596L432.785 67.8497Z" fill="#140327"/>
<path d="M432.756 67.9025C432.091 68.0669 431.56 68.1716 431.052 68.2538C430.551 68.336 430.088 68.4107 429.617 68.463C429.154 68.5302 428.676 68.5452 428.167 68.59C427.652 68.6199 427.106 68.6648 426.404 68.605L426.337 68.5078C426.807 68.194 427.293 67.9025 427.831 67.7008C428.354 67.4766 428.915 67.3496 429.475 67.2674C430.043 67.2001 430.618 67.2225 431.179 67.2973C431.739 67.3795 432.292 67.5289 432.808 67.7905L432.756 67.8951V67.9025Z" fill="#140327"/>
<path opacity="0.21" d="M424.827 74.9562C424.797 75.1729 424.79 75.3971 424.775 75.6138C424.76 75.8679 424.745 76.107 424.745 76.3536C424.708 77.6464 424.782 78.9018 424.947 80.1198C425.096 81.1436 425.298 82.1299 425.582 83.079C425.597 83.1163 425.612 83.1686 425.619 83.206C425.716 83.5198 425.821 83.8188 425.948 84.1326C428.212 84.3045 430.327 82.8099 430.865 80.5233C431.47 77.9901 429.909 75.4494 427.375 74.8516C426.494 74.6424 425.619 74.6872 424.812 74.9562H424.827Z" fill="#CE4646" stroke="#CE4646" stroke-width="0.717371" stroke-miterlimit="10"/>
<path d="M439.608 74.9265C439.503 75.9802 440.004 76.8918 440.736 76.9665C441.468 77.0413 442.148 76.2492 442.253 75.1955C442.357 74.1419 441.857 73.2302 441.125 73.1555C440.392 73.0808 439.712 73.8729 439.608 74.9265Z" fill="#140327"/>
<path d="M427.622 73.3723C427.517 74.426 428.018 75.3376 428.75 75.4123C429.483 75.4871 430.163 74.695 430.267 73.6413C430.372 72.5877 429.871 71.676 429.139 71.6013C428.407 71.5266 427.727 72.3187 427.622 73.3723Z" fill="#140327"/>
<path opacity="0.21" d="M434.877 73.3428L432.949 77.4975L434.691 77.647" fill="#CE4646"/>
<path d="M434.877 73.3428L432.949 77.4975L434.691 77.647" stroke="#140327" stroke-width="0.388576" stroke-miterlimit="10"/>
<path d="M437.65 78.6552C436.709 80.5309 435.349 81.8685 433.66 81.7863C431.448 81.6817 430.738 79.1185 430.693 77.624" stroke="#140327" stroke-width="0.418466" stroke-miterlimit="10"/>
<path d="M446.012 55.975C450.339 57.5144 453.403 61.1535 454.748 65.652C454.748 65.6446 454.919 66.2573 454.919 66.2573C455.868 69.8367 455.741 73.9093 454.322 77.8922C454.18 78.2957 454.023 78.6843 453.851 79.0728C453.537 79.1775 453.208 79.2373 452.879 79.2522C450.234 79.3344 448 76.1735 447.873 72.198C447.843 71.0248 447.992 69.9114 448.284 68.9176C445.937 68.7606 443.3 67.9162 440.819 66.3619C436.948 63.9408 434.452 60.4735 434.019 57.3873C437.717 55.2053 442.014 54.5627 446.012 55.9825V55.975Z" fill="#140327" stroke="#140327" stroke-width="0.702426" stroke-miterlimit="10"/>
<path d="M425.985 67.633C427.398 66.9082 428.735 65.6005 430.163 63.9864C432.09 61.7969 433.301 59.4281 433.54 57.6646C430.163 59.8017 427.562 63.2914 425.985 67.633Z" fill="#140327" stroke="#140327" stroke-width="0.702426" stroke-miterlimit="10"/>
<path d="M421.538 76.0168C421.538 76.0168 444.666 77.9821 452.908 81.9426C452.908 81.9426 450.637 97.9116 434.466 95.4232C417.727 92.8452 421.538 76.0168 421.538 76.0168Z" stroke="#140327" stroke-width="0.500665" stroke-miterlimit="10"/>
<path d="M426.77 76.5547L425.888 91.7689" stroke="#140327" stroke-width="0.500665" stroke-miterlimit="10"/>
<path d="M434.691 77.7876L432.352 95.3109" stroke="#140327" stroke-width="0.500665" stroke-miterlimit="10"/>
<path d="M441.887 78.946L439.182 95.8043" stroke="#140327" stroke-width="0.500665" stroke-miterlimit="10"/>
<path d="M448.926 80.7769L446.49 92.9871" stroke="#140327" stroke-width="0.500665" stroke-miterlimit="10"/>
<path d="M421.427 83.3252L450.675 88.16" stroke="#140327" stroke-width="0.500665" stroke-miterlimit="10"/>
<path d="M454.411 86.2322C451.84 85.8212 450.076 83.3852 450.487 80.8221L451.227 76.1816C451.638 73.611 454.074 71.8474 456.637 72.2584C459.208 72.6694 460.972 75.1055 460.561 77.6686L459.821 82.3091C459.41 84.8797 456.974 86.6432 454.411 86.2322Z" fill="#3D1466" stroke="#3D1466" stroke-width="0.545501" stroke-miterlimit="10"/>
<path d="M418.632 66.5342C418.632 66.5342 436.088 74.3132 462.04 73.5884L460.359 70.1286C460.359 70.1286 462.713 49.9002 444.629 47.4492C425.955 44.9234 421.09 64.3074 421.09 64.3074L418.625 66.5342H418.632Z" fill="#CE4646" stroke="#CE4646" stroke-width="0.597809" stroke-miterlimit="10"/>
<path d="M436.648 59.6668C436.648 61.7367 434.967 63.418 432.897 63.418C430.827 63.418 429.146 61.7367 429.146 59.6668C429.146 57.5969 430.827 55.9155 432.897 55.9155C434.967 55.9155 436.648 57.5969 436.648 59.6668Z" fill="#F0E3E4" stroke="#F0E3E4" stroke-width="0.261542" stroke-miterlimit="10"/>
<path d="M421.098 64.3074C421.098 64.3074 439.144 70.7712 460.366 70.1285" stroke="#140327" stroke-width="0.373631" stroke-miterlimit="10"/>
<path d="M368.827 72.5937L364.134 75.6649C364.134 75.6649 367.228 81.3068 369.978 83.5261C370.575 84.0044 371.031 84.6171 371.188 85.2897C371.427 86.3582 371.248 87.6958 368.797 87.5464C368.797 87.5464 370.837 91.5667 366.144 90.4532C366.144 90.4532 366.809 93.7711 362.983 92.5232C362.983 92.5232 359.165 97.3878 352.372 88.4057C346.558 80.7164 359.934 70.7704 368.834 72.6012L368.827 72.5937Z" fill="#9D8BF7" stroke="#140327" stroke-width="0.508138" stroke-miterlimit="10"/>
<path d="M369.32 87.8077C369.32 87.8077 362.662 84.7663 361.041 79.2366" stroke="#140327" stroke-width="0.590337" stroke-miterlimit="10"/>
<path d="M366.668 90.7145C366.668 90.7145 359.202 88.1738 357.17 81.4485" stroke="#140327" stroke-width="0.590337" stroke-miterlimit="10"/>
<path d="M363.507 92.7839C363.507 92.7839 356.124 91.4612 354.345 83.5178" stroke="#140327" stroke-width="0.590337" stroke-miterlimit="10"/>
<path d="M372.742 90.4466C372.742 90.4466 374.917 108.777 385.214 120.113C391.431 126.958 400.825 128.893 409.672 129.461C419.416 130.081 429.183 129.857 438.927 130.305C439.6 130.335 449 130.32 449.113 130.769L442.581 104.166L405.248 104.704L385.648 84.1995L372.742 90.4466Z" fill="#F0E3E4" stroke="#140327" stroke-width="0.403521" stroke-miterlimit="10"/>
<path d="M452.348 101.842L421.568 104.076L427.091 130.679C427.091 130.679 446.303 133.421 453.305 131.605" fill="#3F7AFF"/>
<path d="M452.348 101.842L421.568 104.076L427.091 130.679C427.091 130.679 446.303 133.421 453.305 131.605" stroke="#3D58B3" stroke-width="0.508138" stroke-miterlimit="10"/>
<path d="M363.461 74.4397C363.461 74.4397 360.45 69.8142 364.956 70.2999C364.956 70.2999 364.336 66.1601 368.991 66.7803C368.991 66.7803 370.202 63.5148 373.744 65.1065C373.744 65.1065 374.864 62.4686 377.936 65.1961L381.119 68.3271C382.658 69.8441 383.652 71.8243 383.944 73.969L384.601 80.7167L371.674 88.1744L363.461 74.4472V74.4397Z" fill="#9D8BF7" stroke="#140327" stroke-width="0.508138" stroke-miterlimit="10"/>
<path d="M364.956 70.2998L369.036 75.1495" stroke="#140327" stroke-width="0.747261" stroke-miterlimit="10"/>
<path d="M368.999 66.7808L373.557 72.5272" stroke="#140327" stroke-width="0.747261" stroke-miterlimit="10"/>
<path d="M373.751 65.0991L378.272 70.3001" stroke="#140327" stroke-width="0.747261" stroke-miterlimit="10"/>
<path d="M371.943 91.2982L386.686 83.9227L384.609 80.7095L371.495 87.6366L371.943 91.2982Z" fill="#140327" stroke="#140327" stroke-width="0.747261" stroke-miterlimit="10"/>
<path d="M341.94 21.4964C341.342 25.3821 337.711 28.0499 333.825 27.4595C329.939 26.8617 327.272 23.23 327.862 19.3443C328.46 15.4585 332.091 12.7908 335.977 13.3811C339.863 13.9789 342.531 17.6106 341.94 21.4964Z" fill="#CE4646" stroke="#CE4646" stroke-width="0.597809" stroke-miterlimit="10"/>
</g>
<path d="M35.0796 71.4361V98.1013H31.4652V71.4361H35.0796ZM52.3623 98.507C44.7647 98.507 39.712 93.0486 39.712 84.7871C39.712 76.5626 44.9122 70.9935 52.5467 70.9935C58.5583 70.9935 63.1685 74.571 64.1643 80.0295H60.2917C59.296 76.5626 56.3086 74.4604 52.436 74.4604C47.0513 74.4604 43.5107 78.5173 43.5107 84.7503C43.5107 90.9832 47.0513 95.0402 52.436 95.0402C56.3454 95.0402 59.4435 92.9379 60.4393 89.6555H64.2749C63.1316 94.9664 58.3739 98.507 52.3623 98.507ZM79.7712 98.507C72.1736 98.507 67.1208 93.0486 67.1208 84.7871C67.1208 76.5626 72.3211 70.9935 79.9556 70.9935C85.9672 70.9935 90.5774 74.571 91.5732 80.0295H87.7006C86.7048 76.5626 83.7175 74.4604 79.8449 74.4604C74.4602 74.4604 70.9196 78.5173 70.9196 84.7503C70.9196 90.9832 74.4602 95.0402 79.8449 95.0402C83.7543 95.0402 86.8524 92.9379 87.8482 89.6555H91.6838C90.5405 94.9664 85.7828 98.507 79.7712 98.507ZM109.741 98.1013H106.2V71.4361H109.741L118.924 93.86L128.108 71.4361H131.722V98.1013H128.182V87.5533C128.182 82.5743 128.219 80.7671 128.403 78.8861L120.621 98.1013H117.228L109.483 78.9599C109.667 80.2507 109.741 82.98 109.741 86.705V98.1013ZM145.123 98.5439C139.812 98.5439 136.161 94.7082 136.161 89.1023C136.161 83.4594 139.739 79.55 144.976 79.55C150.102 79.55 153.458 83.0906 153.458 88.4384V89.7293L139.517 89.7661C139.775 93.5649 141.767 95.6671 145.197 95.6671C147.889 95.6671 149.66 94.5607 150.25 92.4954H153.495C152.61 96.3679 149.586 98.5439 145.123 98.5439ZM144.976 82.4636C141.951 82.4636 140.034 84.2708 139.591 87.4426H149.992C149.992 84.4552 148.037 82.4636 144.976 82.4636ZM160.797 98.1013H157.331V80.0663H160.466L160.834 82.8324C161.978 80.7671 164.264 79.55 166.809 79.55C171.567 79.55 173.743 82.4636 173.743 87.0738V98.1013H170.276V87.8483C170.276 84.197 168.579 82.7218 165.924 82.7218C162.678 82.7218 160.797 85.0453 160.797 88.549V98.1013ZM182.693 74.1284C182.693 76.8208 180.812 78.9968 178.23 79.3287V77.7797C179.668 77.5215 180.701 76.5626 180.701 75.3824C180.443 75.5299 180.111 75.6037 179.668 75.6037C178.562 75.6037 177.603 74.7923 177.603 73.3539C177.603 71.9524 178.562 70.9198 180.037 70.9198C181.512 70.9198 182.693 72.1368 182.693 74.1284ZM184.201 92.8642H187.52C187.52 94.7082 188.922 95.8147 191.208 95.8147C193.642 95.8147 195.044 94.8189 195.044 93.1592C195.044 91.9421 194.454 91.2045 192.573 90.725L189.401 89.9874C186.192 89.2129 184.68 87.627 184.68 84.9716C184.68 81.6522 187.483 79.55 191.466 79.55C195.413 79.55 197.994 81.7629 198.068 85.1928H194.749C194.675 83.3857 193.458 82.2423 191.356 82.2423C189.18 82.2423 187.963 83.2013 187.963 84.8609C187.963 86.078 188.848 86.8894 190.618 87.332L193.79 88.1065C196.851 88.8441 198.363 90.2456 198.363 92.9379C198.363 96.3679 195.413 98.5439 191.134 98.5439C186.893 98.5439 184.201 96.2941 184.201 92.8642ZM35.0796 148.101H31.4652V121.436H41.5338C47.2504 121.436 50.6435 124.46 50.6435 129.439C50.6435 133.127 48.7995 135.783 45.4801 136.853L50.9017 148.101H46.8816L41.9026 137.553H35.0796V148.101ZM35.0796 124.682V134.345H41.5707C44.9269 134.345 46.8447 132.537 46.8447 129.476C46.8447 126.378 44.8532 124.682 41.5338 124.682H35.0796ZM59.5602 148.544C55.6876 148.544 53.401 146.368 53.401 143.085C53.401 139.766 55.872 137.701 60.1134 137.369L65.7931 136.926V136.41C65.7931 133.386 63.9859 132.316 61.5518 132.316C58.6381 132.316 56.9785 133.607 56.9785 135.783H53.9542C53.9542 132.021 57.0522 129.55 61.6993 129.55C66.1619 129.55 69.1862 131.91 69.1862 136.779V148.101H66.2357L65.8669 145.188C64.9448 147.253 62.4738 148.544 59.5602 148.544ZM60.556 145.852C63.8384 145.852 65.83 143.712 65.83 140.319V139.36L61.2198 139.729C58.1587 140.024 56.9047 141.205 56.9047 142.975C56.9047 144.893 58.3062 145.852 60.556 145.852ZM77.4543 148.101H73.9874V130.066H77.1223L77.4911 132.832C78.6345 130.767 80.9211 129.55 83.4659 129.55C88.2236 129.55 90.3996 132.464 90.3996 137.074V148.101H86.9328V137.848C86.9328 134.197 85.2362 132.722 82.5808 132.722C79.3352 132.722 77.4543 135.045 77.4543 138.549V148.101ZM98.742 148.101H95.2752V120.957H98.742V138.549L106.745 130.066H111.097L104.2 137.258L111.06 148.101H107.077L101.803 139.766L98.742 142.975V148.101ZM115.627 125.788C114.373 125.788 113.34 124.755 113.34 123.501C113.34 122.211 114.373 121.215 115.627 121.215C116.881 121.215 117.913 122.211 117.913 123.501C117.913 124.755 116.881 125.788 115.627 125.788ZM113.93 148.101V130.066H117.397V148.101H113.93ZM125.897 148.101H122.43V130.066H125.565L125.934 132.832C127.077 130.767 129.364 129.55 131.909 129.55C136.666 129.55 138.842 132.464 138.842 137.074V148.101H135.376V137.848C135.376 134.197 133.679 132.722 131.024 132.722C127.778 132.722 125.897 135.045 125.897 138.549V148.101ZM142.501 138.623C142.501 133.533 145.783 129.55 151.02 129.55C153.934 129.55 156.184 130.878 157.327 133.127L157.585 130.066H160.683V147.364C160.683 153.043 157.18 156.658 151.647 156.658C146.742 156.658 143.386 153.892 142.722 149.318H146.189C146.632 151.974 148.623 153.523 151.647 153.523C155.041 153.523 157.253 151.31 157.253 147.88V144.266C156.073 146.368 153.713 147.622 150.873 147.622C145.746 147.622 142.501 143.676 142.501 138.623ZM145.968 138.549C145.968 141.942 148.07 144.598 151.463 144.598C154.967 144.598 157.106 142.09 157.106 138.549C157.106 135.082 155.041 132.574 151.5 132.574C148.033 132.574 145.968 135.23 145.968 138.549Z" fill="white"/>
<path opacity="0.5" d="M62.1751 208.164C62.1751 198.828 54.6069 191.26 45.2711 191.26C35.9353 191.26 28.3672 198.828 28.3672 208.164C28.3672 217.499 35.9353 225.068 45.2711 225.068C54.6069 225.068 62.1751 217.499 62.1751 208.164Z" fill="#F5F5F5"/>
<path d="M52.7575 208.164L42.4406 218.48L40.5894 216.629L49.0548 208.164L40.5894 199.698L42.4407 197.847L52.7575 208.164Z" fill="#F5F5F5"/>
<path d="M49.0548 208.164L40.5894 199.699L42.4407 197.847L52.7575 208.164L49.0548 208.164Z" fill="#F5F5F5"/>
</g>
</g>
<defs>
<filter id="filter0_d_14459_4142" x="0.706215" y="0.706215" width="568.588" height="313.492" filterUnits="userSpaceOnUse" color-interpolation-filters="sRGB">
<feFlood flood-opacity="0" result="BackgroundImageFix"/>
<feColorMatrix in="SourceAlpha" type="matrix" values="0 0 0 0 0 0 0 0 0 0 0 0 0 0 0 0 0 0 127 0" result="hardAlpha"/>
<feOffset/>
<feGaussianBlur stdDeviation="6.14689"/>
<feComposite in2="hardAlpha" operator="out"/>
<feColorMatrix type="matrix" values="0 0 0 0 0 0 0 0 0 0 0 0 0 0 0 0 0 0 0.14 0"/>
<feBlend mode="normal" in2="BackgroundImageFix" result="effect1_dropShadow_14459_4142"/>
<feBlend mode="normal" in="SourceGraphic" in2="effect1_dropShadow_14459_4142" result="shape"/>
</filter>
<filter id="filter1_d_14459_4142" x="0.706215" y="0.706215" width="568.588" height="313.492" filterUnits="userSpaceOnUse" color-interpolation-filters="sRGB">
<feFlood flood-opacity="0" result="BackgroundImageFix"/>
<feColorMatrix in="SourceAlpha" type="matrix" values="0 0 0 0 0 0 0 0 0 0 0 0 0 0 0 0 0 0 127 0" result="hardAlpha"/>
<feOffset/>
<feGaussianBlur stdDeviation="6.14689"/>
<feComposite in2="hardAlpha" operator="out"/>
<feColorMatrix type="matrix" values="0 0 0 0 0 0 0 0 0 0 0 0 0 0 0 0 0 0 0.14 0"/>
<feBlend mode="normal" in2="BackgroundImageFix" result="effect1_dropShadow_14459_4142"/>
<feBlend mode="normal" in="SourceGraphic" in2="effect1_dropShadow_14459_4142" result="shape"/>
</filter>
<clipPath id="clip0_14459_4142">
<rect x="13" y="13" width="544" height="288.904" rx="15.3672" fill="white"/>
</clipPath>
<clipPath id="clip1_14459_4142">
<rect width="342.335" height="331.932" fill="white" transform="translate(249.249 -11.5876)"/>
</clipPath>
<clipPath id="clip2_14459_4142">
<rect width="277.655" height="103.391" fill="white" transform="translate(268.096 31.4407)"/>
</clipPath>
<clipPath id="clip3_14459_4142">
<rect width="163.688" height="344.226" fill="white" transform="translate(298.831 13)"/>
</clipPath>
</defs>
</svg>
