<svg width="69" height="70" viewBox="0 0 69 70" fill="none" xmlns="http://www.w3.org/2000/svg">
<g clip-path="url(#clip0_14382_13921)">
<path d="M34.5 1C15.4482 1 0 16.4451 0 35.4985C0 54.5518 15.4467 69.997 34.5 69.997C53.5549 69.997 69 54.5518 69 35.4985C69 16.4451 53.5549 1 34.5 1Z" fill="#969EBA"/>
<path d="M45.9112 22.2281C45.9112 15.927 40.8027 10.817 34.4986 10.817C28.1975 10.817 23.089 15.927 23.089 22.2281C23.089 28.5307 28.1975 33.6392 34.4986 33.6392C40.8027 33.6392 45.9112 28.5307 45.9112 22.2281Z" fill="white"/>
<path d="M18.0032 54.3989C22.4449 58.1889 28.2035 60.4787 34.491 60.4787C40.78 60.4787 46.5401 58.1889 50.9802 54.3974C52.0638 53.4745 52.6851 52.1242 52.6851 50.7028C52.6851 44.3123 47.5327 39.1977 41.1391 39.1977H27.861C21.469 39.1977 16.2969 44.3123 16.2969 50.7028C16.2969 52.1227 16.9212 53.476 18.0032 54.3989Z" fill="white"/>
</g>
<defs>
<clipPath id="clip0_14382_13921">
<rect width="69" height="69" fill="white" transform="translate(0 0.5)"/>
</clipPath>
</defs>
</svg>
