<svg width="570" height="315" viewBox="0 0 570 315" fill="none" xmlns="http://www.w3.org/2000/svg">
<g filter="url(#filter0_d_13014_7079)">
<g clip-path="url(#clip0_13014_7079)">
<g filter="url(#filter1_d_13014_7079)">
<path d="M335.643 302H557.181V13H13V302H192.47H267.248H335.643Z" fill="#FF6621"/>
</g>
<g clip-path="url(#clip1_13014_7079)">
<path d="M545.939 -6.97013C523.384 -11.3016 506.886 -10.0333 485.272 -3.61364C469.68 1.01987 454.831 7.58617 438.773 10.6579C421.369 13.9885 407.382 5.01488 391.523 -0.17949C373.714 -6.01237 350.676 -5.61545 333.091 0.476277C310.942 8.14703 297.162 23.9717 290.897 45.3273C280.431 80.9976 308.543 111.344 333.885 134.434C341.814 141.656 350.219 149.577 352.954 159.836C355.991 171.226 349.606 183.435 345.533 194.048C336.206 218.364 326.783 245.146 329.501 271.36C332.021 295.675 350.417 313.424 375.742 317.514C412.818 323.502 440.214 297.522 470.483 282.189C499.656 267.417 533.376 275.89 561.634 258.193C598.245 235.275 618.678 189.751 625.14 149.948C634.804 90.4372 606.839 -5.15814 529.847 -9.19629L545.939 -6.97876V-6.97013Z" fill="white"/>
<path d="M546.492 -8.99856C535.654 -11.0608 524.636 -12.148 513.608 -11.3196C502.426 -10.474 491.485 -7.83371 480.829 -4.4427C469.543 -0.853238 458.507 3.53868 447.057 6.59317C441.431 8.09453 435.728 9.44058 429.869 9.25938C424.648 9.09544 419.549 7.87019 414.605 6.2394C404.613 2.94331 395.165 -1.88003 384.845 -4.17522C374.525 -6.4704 363.3 -6.99674 352.566 -5.84915C333.807 -3.84733 315.386 3.47828 302.926 18.1122C291.139 31.9696 284.556 51.03 287.213 69.1758C290.052 88.6245 302.408 105.398 315.498 119.402C322.375 126.763 329.925 133.372 337.173 140.344C344.421 147.316 351.798 155.858 351.651 166.523C351.574 172.036 349.822 177.412 347.889 182.529C345.956 187.645 343.739 192.866 341.763 198.077C337.526 209.303 333.549 220.667 330.753 232.35C326.076 251.91 323.695 274.828 334.342 292.93C343.238 308.048 359.408 317.306 376.536 319.731C386.277 321.111 396.114 320.438 405.614 317.919C415.114 315.399 423.673 311.404 432.069 306.831C440.465 302.258 448.713 297.02 457.014 292.076C465.315 287.132 474.401 281.938 484.09 279.047C504.324 273.016 525.965 274.163 546.078 267.623C564.767 261.549 580.393 248.14 592.395 232.885C604.173 217.906 612.897 200.718 619.066 182.727C624.33 167.386 627.919 151.285 628.825 135.063C629.619 120.835 628.523 106.503 625.96 92.49C623.398 78.4773 618.868 63.5414 612.552 50.0809C606.443 37.0691 598.392 24.808 588.15 14.6695C577.951 4.5741 565.561 -3.20019 551.833 -7.45405C544.706 -9.66295 537.302 -10.8882 529.856 -11.2937C527.544 -11.4232 526.94 -7.50582 529.295 -7.17794C534.662 -6.43589 540.02 -5.70246 545.387 -4.96041C546.518 -4.8051 547.622 -5.23652 547.967 -6.42726C548.252 -7.40228 547.622 -8.85187 546.5 -9.00718C541.133 -9.74924 535.775 -10.4827 530.408 -11.2247L529.847 -7.10891C544.248 -6.32372 558.209 -2.01809 570.384 5.73895C582.015 13.1508 591.653 23.3929 599.238 34.8516C607.159 46.8193 613 60.0727 617.142 73.792C621.266 87.451 623.769 101.602 624.588 115.847C625.382 129.567 624.511 143.226 621.784 156.695C618.16 174.608 612.12 192.106 603.474 208.224C594.777 224.446 583.301 239.477 568.641 250.754C560.608 256.941 551.824 261.652 542.065 264.465C532.177 267.312 521.926 268.486 511.745 269.746C501.529 271.005 491.235 272.36 481.39 275.492C471.967 278.495 463.365 283.413 454.909 288.452C438.86 298.004 423 308.91 404.751 313.803C386.502 318.695 367.709 316.581 352.523 306.262C345.896 301.757 340.417 295.657 336.724 288.539C332.461 280.333 331.141 271.273 331.133 262.109C331.098 238.735 339.261 216.128 347.57 194.591C351.349 184.798 356.759 174.539 355.75 163.701C354.801 153.433 348.045 145.072 340.935 138.118C333.825 131.163 326.508 124.873 319.743 117.754C312.978 110.636 306.714 103.146 301.589 94.8197C296.463 86.4932 292.926 78.2444 291.416 69.0032C289.88 59.6068 291.217 50.2362 294.401 41.3229C300.234 25.0237 311.917 11.9774 327.724 4.8157C336.836 0.682638 346.871 -1.39683 356.82 -2.04397C366.768 -2.69111 377.856 -1.9318 387.934 0.889723C398.012 3.71125 407.176 8.59499 417.168 11.3734C422.112 12.7453 427.263 13.5823 432.406 13.427C438.057 13.2544 443.648 11.8479 449.084 10.3638C470.828 4.41879 491.39 -5.58166 514.169 -7.1952C524.644 -7.93725 535.094 -6.94497 545.387 -4.9863C548.028 -4.48584 549.149 -8.52399 546.5 -9.02444L546.492 -8.99856Z" fill="white"/>
<g clip-path="url(#clip2_13014_7079)">
<path d="M294.18 114.709C294.414 115.539 294.467 116.368 294.474 117.198C294.467 118.027 294.414 118.857 294.18 119.686C293.946 118.857 293.894 118.027 293.886 117.198C293.894 116.368 293.946 115.539 294.18 114.709Z" fill="#D64C0E"/>
<path d="M294.18 126.202C293.946 125.372 293.894 124.543 293.886 123.713C293.894 122.884 293.946 122.054 294.18 121.225C294.414 122.054 294.467 122.884 294.474 123.713C294.467 124.543 294.414 125.372 294.18 126.202Z" fill="#D64C0E"/>
<path d="M288.253 120.455C289.105 120.222 289.965 120.169 290.817 120.161C291.669 120.169 292.529 120.222 293.381 120.455C292.529 120.689 291.669 120.742 290.817 120.75C289.965 120.742 289.105 120.689 288.253 120.455Z" fill="#D64C0E"/>
<path d="M300.099 120.455C299.247 120.689 298.388 120.742 297.536 120.75C296.684 120.742 295.824 120.689 294.972 120.455C295.824 120.222 296.684 120.169 297.536 120.161C298.388 120.169 299.247 120.222 300.099 120.455Z" fill="#D64C0E"/>
<path d="M341.844 79.8418C342.077 80.6713 342.13 81.5007 342.138 82.3302C342.13 83.1596 342.077 83.9891 341.844 84.8185C341.61 83.9891 341.557 83.1596 341.55 82.3302C341.557 81.5007 341.61 80.6713 341.844 79.8418Z" fill="#D64C0E"/>
<path d="M341.844 91.3334C341.61 90.504 341.557 89.6745 341.55 88.8451C341.557 88.0156 341.61 87.1861 341.844 86.3567C342.077 87.1861 342.13 88.0156 342.138 88.8451C342.13 89.6745 342.077 90.504 341.844 91.3334Z" fill="#D64C0E"/>
<path d="M335.917 85.5875C336.769 85.3538 337.628 85.301 338.481 85.2935C339.333 85.301 340.192 85.3538 341.044 85.5875C340.192 85.8213 339.333 85.8741 338.481 85.8816C337.628 85.8741 336.769 85.8213 335.917 85.5875Z" fill="#D64C0E"/>
<path d="M347.77 85.5875C346.918 85.8213 346.059 85.8741 345.207 85.8816C344.355 85.8741 343.495 85.8213 342.643 85.5875C343.495 85.3538 344.355 85.301 345.207 85.2935C346.059 85.301 346.918 85.3538 347.77 85.5875Z" fill="#D64C0E"/>
<path d="M514.989 98.4441C515.223 99.2735 515.276 100.103 515.283 100.932C515.276 101.762 515.223 102.591 514.989 103.421C514.755 102.591 514.703 101.762 514.695 100.932C514.703 100.103 514.755 99.2735 514.989 98.4441Z" fill="#D64C0E"/>
<path d="M514.989 109.936C514.755 109.106 514.703 108.277 514.695 107.447C514.703 106.618 514.755 105.788 514.989 104.959C515.223 105.788 515.276 106.618 515.283 107.447C515.276 108.277 515.223 109.106 514.989 109.936Z" fill="#D64C0E"/>
<path d="M509.07 104.19C509.922 103.956 510.782 103.903 511.634 103.896C512.486 103.903 513.345 103.956 514.197 104.19C513.345 104.423 512.486 104.476 511.634 104.484C510.782 104.476 509.922 104.423 509.07 104.19Z" fill="#D64C0E"/>
<path d="M520.916 104.19C520.064 104.423 519.204 104.476 518.352 104.484C517.5 104.476 516.641 104.423 515.789 104.19C516.641 103.956 517.5 103.903 518.352 103.896C519.204 103.903 520.064 103.956 520.916 104.19Z" fill="#D64C0E"/>
<path d="M518.352 43.7451C518.586 44.5746 518.639 45.404 518.647 46.2335C518.639 47.0629 518.586 47.8924 518.352 48.7219C518.119 47.8924 518.066 47.0629 518.058 46.2335C518.066 45.404 518.119 44.5746 518.352 43.7451Z" fill="#D64C0E"/>
<path d="M518.352 55.2375C518.119 54.408 518.066 53.5786 518.058 52.7491C518.066 51.9197 518.119 51.0902 518.352 50.2607C518.586 51.0902 518.639 51.9197 518.647 52.7491C518.639 53.5786 518.586 54.408 518.352 55.2375Z" fill="#D64C0E"/>
<path d="M512.426 49.4906C513.278 49.2569 514.137 49.2041 514.989 49.1965C515.841 49.2041 516.701 49.2569 517.553 49.4906C516.701 49.7244 515.841 49.7772 514.989 49.7847C514.137 49.7772 513.278 49.7244 512.426 49.4906Z" fill="#D64C0E"/>
<path d="M524.279 49.4906C523.427 49.7244 522.567 49.7772 521.715 49.7847C520.863 49.7772 520.004 49.7244 519.152 49.4906C520.004 49.2569 520.863 49.2041 521.715 49.1965C522.567 49.2041 523.427 49.2569 524.279 49.4906Z" fill="#D64C0E"/>
<path d="M489.63 31.5676C489.864 32.103 489.917 32.6384 489.924 33.1662C489.917 33.7016 489.864 34.237 489.63 34.7648C489.396 34.2294 489.344 33.6941 489.336 33.1662C489.344 32.6308 489.396 32.0955 489.63 31.5676Z" fill="#D64C0E"/>
<path d="M489.63 38.9716C489.396 38.4362 489.344 37.9008 489.336 37.373C489.344 36.8376 489.396 36.3023 489.63 35.7744C489.864 36.3098 489.917 36.8452 489.924 37.373C489.917 37.9084 489.864 38.4438 489.63 38.9716Z" fill="#D64C0E"/>
<path d="M485.815 35.2699C486.365 35.0362 486.916 34.9834 487.466 34.9758C488.017 34.9834 488.567 35.0362 489.117 35.2699C488.567 35.5037 488.017 35.5565 487.466 35.564C486.916 35.5565 486.365 35.5037 485.815 35.2699Z" fill="#D64C0E"/>
<path d="M493.453 35.2699C492.903 35.5037 492.352 35.5565 491.802 35.564C491.252 35.5565 490.701 35.5037 490.151 35.2699C490.701 35.0362 491.252 34.9834 491.802 34.9758C492.352 34.9834 492.903 35.0362 493.453 35.2699Z" fill="#D64C0E"/>
<path d="M499.818 77.5796C499.75 78.0471 499.532 78.409 499.29 78.7408C499.026 79.0651 498.732 79.3592 498.295 79.5401C498.363 79.0726 498.574 78.7107 498.823 78.3789C499.087 78.0546 499.381 77.7681 499.818 77.5796Z" fill="#D64C0E"/>
<path d="M496.289 82.1041C496.357 81.6366 496.576 81.2746 496.817 80.9428C497.081 80.6186 497.375 80.3245 497.812 80.1436C497.744 80.6111 497.533 80.973 497.284 81.3048C497.02 81.629 496.726 81.9156 496.289 82.1041Z" fill="#D64C0E"/>
<path d="M495.716 78.0244C496.199 78.0998 496.568 78.326 496.907 78.5824C497.239 78.8539 497.541 79.1555 497.737 79.6004C497.254 79.525 496.885 79.2988 496.546 79.0424C496.214 78.7709 495.912 78.4693 495.716 78.0244Z" fill="#D64C0E"/>
<path d="M500.391 81.6663C499.909 81.5909 499.539 81.3647 499.2 81.1083C498.868 80.8368 498.566 80.5352 498.37 80.0903C498.853 80.1657 499.222 80.392 499.562 80.6483C499.894 80.9198 500.195 81.2214 500.391 81.6738V81.6663Z" fill="#D64C0E"/>
<path d="M328.105 130.341C328.038 130.808 327.819 131.17 327.578 131.502C327.314 131.826 327.02 132.12 326.582 132.301C326.65 131.834 326.861 131.472 327.11 131.14C327.374 130.816 327.668 130.529 328.105 130.341Z" fill="#D64C0E"/>
<path d="M324.569 134.873C324.637 134.405 324.855 134.043 325.097 133.712C325.361 133.387 325.655 133.093 326.092 132.912C326.024 133.38 325.813 133.742 325.564 134.074C325.3 134.398 325.006 134.684 324.569 134.873Z" fill="#D64C0E"/>
<path d="M324.003 130.786C324.486 130.861 324.855 131.087 325.195 131.344C325.527 131.615 325.828 131.917 326.024 132.362C325.542 132.286 325.172 132.06 324.833 131.804C324.501 131.532 324.199 131.231 324.003 130.778V130.786Z" fill="#D64C0E"/>
<path d="M328.671 134.428C328.188 134.352 327.819 134.126 327.48 133.87C327.148 133.598 326.846 133.296 326.65 132.852C327.133 132.927 327.502 133.153 327.842 133.41C328.173 133.681 328.475 133.983 328.671 134.428Z" fill="#D64C0E"/>
<path d="M364.465 64.8892C364.397 65.3567 364.179 65.7186 363.937 66.0504C363.674 66.3746 363.379 66.6687 362.942 66.8497C363.01 66.3822 363.221 66.0202 363.47 65.6885C363.734 65.3642 364.028 65.0777 364.465 64.8892Z" fill="#D64C0E"/>
<path d="M360.936 69.4212C361.004 68.9537 361.223 68.5918 361.464 68.26C361.728 67.9357 362.022 67.6417 362.459 67.4607C362.392 67.9282 362.18 68.2902 361.932 68.6219C361.668 68.9462 361.374 69.2327 360.936 69.4212Z" fill="#D64C0E"/>
<path d="M360.364 65.3335C360.846 65.4089 361.216 65.6351 361.555 65.8915C361.887 66.163 362.188 66.4646 362.384 66.9095C361.902 66.8341 361.532 66.6078 361.193 66.3515C360.861 66.08 360.56 65.7784 360.364 65.3335Z" fill="#D64C0E"/>
<path d="M365.038 68.9759C364.556 68.9005 364.186 68.6742 363.847 68.4179C363.515 68.1464 363.214 67.8448 363.018 67.3999C363.5 67.4753 363.87 67.7015 364.209 67.9579C364.541 68.2294 364.842 68.531 365.038 68.9834V68.9759Z" fill="#D64C0E"/>
<path d="M417.89 42.8933C418.124 43.308 418.177 43.7228 418.184 44.1375C418.177 44.5522 418.124 44.967 417.89 45.3817C417.656 44.967 417.603 44.5522 417.596 44.1375C417.603 43.7228 417.656 43.308 417.89 42.8933Z" fill="#D64C0E"/>
<path d="M417.89 48.6395C417.656 48.2248 417.603 47.81 417.596 47.3953C417.603 46.9806 417.656 46.5659 417.89 46.1511C418.124 46.5659 418.177 46.9806 418.184 47.3953C418.177 47.81 418.124 48.2248 417.89 48.6395Z" fill="#D64C0E"/>
<path d="M414.927 45.7665C415.356 45.5327 415.779 45.48 416.208 45.4724C416.638 45.48 417.06 45.5327 417.49 45.7665C417.06 46.0002 416.638 46.053 416.208 46.0606C415.779 46.053 415.356 46.0002 414.927 45.7665Z" fill="#D64C0E"/>
<path d="M420.853 45.7665C420.424 46.0002 420.001 46.053 419.571 46.0606C419.142 46.053 418.719 46.0002 418.29 45.7665C418.719 45.5327 419.142 45.48 419.571 45.4724C420.001 45.48 420.424 45.5327 420.853 45.7665Z" fill="#D64C0E"/>
<path d="M284.144 60.8931C284.377 61.3455 284.43 61.7979 284.438 62.2504C284.43 62.7028 284.377 63.1552 284.144 63.6077C283.91 63.1552 283.857 62.7028 283.85 62.2504C283.857 61.7979 283.91 61.3455 284.144 60.8931Z" fill="#D64C0E"/>
<path d="M284.144 67.1589C283.91 66.7065 283.857 66.2541 283.85 65.8016C283.857 65.3492 283.91 64.8968 284.144 64.4443C284.377 64.8968 284.43 65.3492 284.438 65.8016C284.43 66.2541 284.377 66.7065 284.144 67.1589Z" fill="#D64C0E"/>
<path d="M280.027 64.0219C280.623 63.7881 281.211 63.7353 281.806 63.7278C282.402 63.7353 282.99 63.7881 283.586 64.0219C282.99 64.2556 282.402 64.3084 281.806 64.3159C281.211 64.3084 280.623 64.2556 280.027 64.0219Z" fill="#D64C0E"/>
<path d="M288.253 64.0219C287.658 64.2556 287.07 64.3084 286.474 64.3159C285.878 64.3084 285.29 64.2556 284.694 64.0219C285.29 63.7881 285.878 63.7353 286.474 63.7278C287.07 63.7353 287.658 63.7881 288.253 64.0219Z" fill="#D64C0E"/>
<path d="M541.819 75.2195C542.052 75.6719 542.105 76.1243 542.113 76.5768C542.105 77.0292 542.052 77.4816 541.819 77.9341C541.585 77.4816 541.532 77.0292 541.524 76.5768C541.532 76.1243 541.585 75.6719 541.819 75.2195Z" fill="#D64C0E"/>
<path d="M541.819 81.4853C541.585 81.0329 541.532 80.5805 541.524 80.128C541.532 79.6756 541.585 79.2232 541.819 78.7708C542.052 79.2232 542.105 79.6756 542.113 80.128C542.105 80.5805 542.052 81.0329 541.819 81.4853Z" fill="#D64C0E"/>
<path d="M537.709 78.3561C538.305 78.1223 538.893 78.0696 539.489 78.062C540.084 78.0696 540.672 78.1223 541.268 78.3561C540.672 78.5898 540.084 78.6426 539.489 78.6502C538.893 78.6426 538.305 78.5898 537.709 78.3561Z" fill="#D64C0E"/>
<path d="M545.928 78.3561C545.332 78.5898 544.744 78.6426 544.148 78.6502C543.553 78.6426 542.965 78.5898 542.369 78.3561C542.965 78.1223 543.553 78.0696 544.148 78.062C544.744 78.0696 545.332 78.1223 545.928 78.3561Z" fill="#D64C0E"/>
<path d="M269.002 96.9884C269.294 96.9884 269.53 96.7588 269.53 96.4756C269.53 96.1925 269.294 95.9629 269.002 95.9629C268.711 95.9629 268.475 96.1925 268.475 96.4756C268.475 96.7588 268.711 96.9884 269.002 96.9884Z" fill="#8B1A47" stroke="#D64C0E" stroke-width="0.595701" stroke-miterlimit="10"/>
<path d="M297.528 41.9957C297.528 42.2747 297.295 42.5084 297 42.5084C296.706 42.5084 296.473 42.2822 296.473 41.9957C296.473 41.7091 296.706 41.4829 297 41.4829C297.295 41.4829 297.528 41.7091 297.528 41.9957Z" fill="#8B1A47" stroke="#D64C0E" stroke-width="0.595701" stroke-miterlimit="10"/>
<path d="M390.322 58.9312C390.322 59.2102 390.088 59.444 389.794 59.444C389.5 59.444 389.266 59.2178 389.266 58.9312C389.266 58.6447 389.5 58.4185 389.794 58.4185C390.088 58.4185 390.322 58.6447 390.322 58.9312Z" fill="#8B1A47" stroke="#D64C0E" stroke-width="0.595701" stroke-miterlimit="10"/>
<path d="M490.158 58.4188C490.158 58.6978 489.925 58.9315 489.631 58.9315C489.337 58.9315 489.103 58.7053 489.103 58.4188C489.103 58.1322 489.337 57.906 489.631 57.906C489.925 57.906 490.158 58.1322 490.158 58.4188Z" fill="#8B1A47" stroke="#D64C0E" stroke-width="0.595701" stroke-miterlimit="10"/>
<path d="M446.235 32.2537C446.235 32.5327 446.001 32.7665 445.707 32.7665C445.413 32.7665 445.179 32.5403 445.179 32.2537C445.179 31.9672 445.413 31.741 445.707 31.741C446.001 31.741 446.235 31.9672 446.235 32.2537Z" fill="#8B1A47" stroke="#D64C0E" stroke-width="0.595701" stroke-miterlimit="10"/>
<path d="M493.107 121.239C492.933 121.458 492.609 121.495 492.375 121.314C492.149 121.133 492.104 120.809 492.277 120.59C492.451 120.372 492.775 120.334 493.009 120.515C493.235 120.696 493.28 121.02 493.107 121.239Z" fill="#8B1A47" stroke="#D64C0E" stroke-width="0.595701" stroke-miterlimit="10"/>
<path d="M519.431 80.3017C519.257 80.5204 518.933 80.5581 518.699 80.3771C518.466 80.1961 518.428 79.8719 518.601 79.6532C518.775 79.4345 519.099 79.3968 519.333 79.5778C519.567 79.7588 519.604 80.083 519.431 80.3017Z" fill="#8B1A47" stroke="#D64C0E" stroke-width="0.595701" stroke-miterlimit="10"/>
<path d="M542.754 102.75C542.58 102.969 542.256 103.006 542.022 102.825C541.788 102.644 541.751 102.32 541.924 102.101C542.098 101.883 542.422 101.845 542.656 102.026C542.882 102.207 542.927 102.531 542.754 102.75Z" fill="#8B1A47" stroke="#D64C0E" stroke-width="0.595701" stroke-miterlimit="10"/>
<path d="M345.727 114.709C345.727 114.988 345.494 115.222 345.199 115.222C344.905 115.222 344.672 114.995 344.672 114.709C344.672 114.422 344.905 114.196 345.199 114.196C345.494 114.196 345.727 114.422 345.727 114.709Z" fill="#8B1A47" stroke="#D64C0E" stroke-width="0.595701" stroke-miterlimit="10"/>
<path d="M334.952 64.4439C334.952 64.7229 334.718 64.9567 334.424 64.9567C334.13 64.9567 333.896 64.7304 333.896 64.4439C333.896 64.1574 334.13 63.9312 334.424 63.9312C334.718 63.9312 334.952 64.1574 334.952 64.4439Z" fill="#8B1A47" stroke="#D64C0E" stroke-width="0.595701" stroke-miterlimit="10"/>
<path d="M410.734 85.0753C410.734 85.3543 410.5 85.588 410.206 85.588C409.912 85.588 409.678 85.3618 409.678 85.0753C409.678 84.7887 409.912 84.5625 410.206 84.5625C410.5 84.5625 410.734 84.7887 410.734 85.0753Z" fill="#8B1A47" stroke="#D64C0E" stroke-width="0.595701" stroke-miterlimit="10"/>
<path d="M304.76 85.9869C304.76 86.2659 304.526 86.4996 304.232 86.4996C303.938 86.4996 303.704 86.2734 303.704 85.9869C303.704 85.7003 303.938 85.4741 304.232 85.4741C304.526 85.4741 304.76 85.7003 304.76 85.9869Z" fill="#8B1A47" stroke="#D64C0E" stroke-width="0.595701" stroke-miterlimit="10"/>
<path d="M320.542 44.522C320.776 44.9367 320.829 45.3514 320.836 45.7662C320.829 46.1809 320.776 46.5956 320.542 47.0103C320.308 46.5956 320.256 46.1809 320.248 45.7662C320.256 45.3514 320.308 44.9367 320.542 44.522Z" fill="#D64C0E"/>
<path d="M320.542 50.2682C320.308 49.8534 320.256 49.4387 320.248 49.024C320.256 48.6092 320.308 48.1945 320.542 47.7798C320.776 48.1945 320.829 48.6092 320.836 49.024C320.829 49.4387 320.776 49.8534 320.542 50.2682Z" fill="#D64C0E"/>
<path d="M317.579 47.3952C318.008 47.1614 318.431 47.1086 318.86 47.1011C319.29 47.1086 319.713 47.1614 320.142 47.3952C319.713 47.6289 319.29 47.6817 318.86 47.6892C318.431 47.6817 318.008 47.6289 317.579 47.3952Z" fill="#D64C0E"/>
<path d="M323.505 47.3952C323.076 47.6289 322.653 47.6817 322.224 47.6892C321.794 47.6817 321.371 47.6289 320.942 47.3952C321.371 47.1614 321.794 47.1086 322.224 47.1011C322.653 47.1086 323.076 47.1614 323.505 47.3952Z" fill="#D64C0E"/>
</g>
</g>
<path d="M36.8578 98.1167L28.9257 71.4426H32.6889L37.5588 87.7496C37.9278 89.1516 38.2967 90.5535 38.6656 92.5827C39.1084 90.4428 39.5142 89.1516 39.92 87.7496L44.9744 71.4426H48.8852L53.9027 87.7496C54.3454 89.1884 54.7144 90.5904 55.1202 92.5827C55.5629 90.3321 55.9318 88.9671 56.3008 87.7865L61.2076 71.4426H64.897L56.8542 98.1167H53.3862L46.9298 77.0136L40.3996 98.1167H36.8578ZM64.4324 89.0778C64.4324 83.5068 68.4169 79.5961 73.8402 79.5961C79.2267 79.5961 83.2112 83.5068 83.2112 89.0778C83.2112 94.6487 79.2267 98.5594 73.8402 98.5594C68.4169 98.5594 64.4324 94.6487 64.4324 89.0778ZM67.9373 89.0778C67.9373 92.8409 70.3353 95.4604 73.8402 95.4604C77.3082 95.4604 79.7432 92.8409 79.7432 89.0778C79.7432 85.3146 77.3082 82.6952 73.8402 82.6952C70.3353 82.6952 67.9373 85.3146 67.9373 89.0778ZM90.5182 98.1167H87.0502V80.0757H90.1492L90.4813 82.4369C91.4036 80.7398 93.3221 79.5592 95.8677 79.5592C98.6717 79.5592 100.664 80.9612 101.586 83.2117C102.435 80.9612 104.612 79.5592 107.415 79.5592C111.548 79.5592 114.056 82.1418 114.056 86.3107V98.1167H110.662V87.1593C110.662 84.3185 109.076 82.6952 106.641 82.6952C104.021 82.6952 102.287 84.5398 102.287 87.4175V98.1167H98.8561V87.1224C98.8561 84.2816 97.3066 82.7321 94.8716 82.7321C92.2522 82.7321 90.5182 84.5398 90.5182 87.4175V98.1167ZM126.648 98.5594C121.336 98.5594 117.683 94.7225 117.683 89.1147C117.683 83.4699 121.262 79.5592 126.501 79.5592C131.629 79.5592 134.986 83.101 134.986 88.4506V89.7418L121.04 89.7787C121.299 93.5788 123.291 95.6817 126.722 95.6817C129.415 95.6817 131.186 94.5749 131.776 92.5089H135.023C134.138 96.3827 131.112 98.5594 126.648 98.5594ZM126.501 82.4738C123.475 82.4738 121.557 84.2816 121.114 87.4544H131.518C131.518 84.4661 129.563 82.4738 126.501 82.4738ZM142.328 98.1167H138.86V80.0757H141.996L142.365 82.8427C143.508 80.7767 145.796 79.5592 148.341 79.5592C153.101 79.5592 155.277 82.4738 155.277 87.0855V98.1167H151.809V87.8603C151.809 84.2078 150.112 82.7321 147.456 82.7321C144.209 82.7321 142.328 85.0564 142.328 88.5613V98.1167ZM164.23 74.1358C164.23 76.8291 162.349 79.0058 159.766 79.3378V77.7883C161.205 77.5301 162.238 76.5708 162.238 75.3902C161.98 75.5378 161.648 75.6116 161.205 75.6116C160.098 75.6116 159.139 74.7999 159.139 73.3611C159.139 71.9591 160.098 70.9261 161.574 70.9261C163.05 70.9261 164.23 72.1436 164.23 74.1358ZM165.739 92.8778H169.059C169.059 94.7225 170.461 95.8293 172.749 95.8293C175.184 95.8293 176.585 94.8332 176.585 93.173C176.585 91.9555 175.995 91.2176 174.114 90.738L170.941 90.0001C167.731 89.2253 166.218 87.6389 166.218 84.9826C166.218 81.6621 169.022 79.5592 173.007 79.5592C176.954 79.5592 179.537 81.7728 179.611 85.2039H176.29C176.217 83.3961 174.999 82.2524 172.896 82.2524C170.719 82.2524 169.502 83.2117 169.502 84.8719C169.502 86.0894 170.387 86.901 172.158 87.3438L175.331 88.1185C178.393 88.8564 179.906 90.2584 179.906 92.9516C179.906 96.3827 176.954 98.5594 172.675 98.5594C168.432 98.5594 165.739 96.3089 165.739 92.8778ZM35.087 148.117H31.4714V121.443H41.5433C47.2618 121.443 50.6561 124.468 50.6561 129.449C50.6561 133.138 48.8114 135.794 45.491 136.864L50.9143 148.117H46.8929L41.9123 137.565H35.087V148.117ZM35.087 124.689V134.355H41.5802C44.9375 134.355 46.856 132.548 46.856 129.485C46.856 126.386 44.8638 124.689 41.5433 124.689H35.087ZM59.5757 148.559C55.7018 148.559 53.4144 146.383 53.4144 143.099C53.4144 139.779 55.8863 137.713 60.1291 137.381L65.8107 136.938V136.421C65.8107 133.396 64.0029 132.326 61.5679 132.326C58.6533 132.326 56.9931 133.618 56.9931 135.794H53.9678C53.9678 132.031 57.0669 129.559 61.7155 129.559C66.1796 129.559 69.2049 131.92 69.2049 136.79V148.117H66.2534L65.8845 145.202C64.9621 147.268 62.4903 148.559 59.5757 148.559ZM60.5718 145.866C63.8553 145.866 65.8476 143.726 65.8476 140.332V139.373L61.2359 139.742C58.1737 140.037 56.9193 141.218 56.9193 142.988C56.9193 144.907 58.3213 145.866 60.5718 145.866ZM77.4757 148.117H74.0077V130.076H77.1437L77.5126 132.843C78.6563 130.777 80.9437 129.559 83.4894 129.559C88.2486 129.559 90.4254 132.474 90.4254 137.086V148.117H86.9574V137.86C86.9574 134.208 85.2603 132.732 82.6039 132.732C79.3573 132.732 77.4757 135.056 77.4757 138.561V148.117ZM98.7705 148.117H95.3025V120.963H98.7705V138.561L106.776 130.076H111.13L104.231 137.27L111.093 148.117H107.108L101.833 139.779L98.7705 142.988V148.117ZM115.661 125.796C114.406 125.796 113.373 124.763 113.373 123.509C113.373 122.217 114.406 121.221 115.661 121.221C116.915 121.221 117.948 122.217 117.948 123.509C117.948 124.763 116.915 125.796 115.661 125.796ZM113.964 148.117V130.076H117.432V148.117H113.964ZM125.935 148.117H122.467V130.076H125.603L125.971 132.843C127.115 130.777 129.403 129.559 131.948 129.559C136.708 129.559 138.884 132.474 138.884 137.086V148.117H135.416V137.86C135.416 134.208 133.719 132.732 131.063 132.732C127.816 132.732 125.935 135.056 125.935 138.561V148.117ZM142.544 138.635C142.544 133.544 145.827 129.559 151.066 129.559C153.981 129.559 156.231 130.887 157.375 133.138L157.633 130.076H160.732V147.379C160.732 153.06 157.228 156.676 151.694 156.676C146.787 156.676 143.429 153.909 142.765 149.334H146.233C146.676 151.991 148.668 153.54 151.694 153.54C155.088 153.54 157.301 151.326 157.301 147.895V144.28C156.121 146.383 153.76 147.637 150.919 147.637C145.791 147.637 142.544 143.689 142.544 138.635ZM146.012 138.561C146.012 141.955 148.115 144.612 151.509 144.612C155.014 144.612 157.154 142.103 157.154 138.561C157.154 135.093 155.088 132.584 151.546 132.584C148.078 132.584 146.012 135.241 146.012 138.561Z" fill="white"/>
<g clip-path="url(#clip3_13014_7079)">
<g clip-path="url(#clip4_13014_7079)">
<path d="M332.459 204.057H326.596V333.04H332.459V204.057Z" fill="#FF6621"/>
<path d="M332.459 204.057H326.596V333.04H332.459V204.057Z" fill="#EEC255" stroke="#EEC255" stroke-width="0.403655" stroke-miterlimit="10"/>
<path d="M352.391 204.057H346.527V333.04H352.391V204.057Z" fill="#FF6621"/>
<path d="M352.391 204.057H346.527V333.04H352.391V204.057Z" fill="#EEC255" stroke="#EEC255" stroke-width="0.403655" stroke-miterlimit="10"/>
<path d="M372.322 204.057H366.458V333.04H372.322V204.057Z" fill="#FF6621"/>
<path d="M372.322 204.057H366.458V333.04H372.322V204.057Z" fill="#EEC255" stroke="#EEC255" stroke-width="0.403655" stroke-miterlimit="10"/>
<path d="M349.459 202.555H328.896V204.057H349.459V202.555Z" fill="#FF6621"/>
<path d="M333.522 200.542H334.073C334.417 200.542 334.696 200.822 334.696 201.166V205.455C334.696 205.799 334.417 206.079 334.073 206.079H333.522C333.179 206.079 332.899 205.799 332.899 205.455V201.166C332.899 200.822 333.179 200.542 333.522 200.542Z" fill="#FF6621"/>
<path d="M335.319 200.542H335.871C336.214 200.542 336.494 200.822 336.494 201.166V205.455C336.494 205.799 336.214 206.079 335.871 206.079H335.319C334.976 206.079 334.696 205.799 334.696 205.455V201.166C334.696 200.822 334.976 200.542 335.319 200.542Z" fill="#FF6621"/>
<path d="M337.109 200.542H337.66C338.004 200.542 338.283 200.822 338.283 201.166V205.455C338.283 205.799 338.004 206.079 337.66 206.079H337.109C336.765 206.079 336.486 205.799 336.486 205.455V201.166C336.486 200.822 336.765 200.542 337.109 200.542Z" fill="#FF6621"/>
<path d="M338.906 200.542H339.458C339.801 200.542 340.081 200.822 340.081 201.166V205.455C340.081 205.799 339.801 206.079 339.458 206.079H338.906C338.563 206.079 338.283 205.799 338.283 205.455V201.166C338.283 200.822 338.563 200.542 338.906 200.542Z" fill="#FF6621"/>
<path d="M340.696 200.542H341.247C341.59 200.542 341.87 200.822 341.87 201.166V205.455C341.87 205.799 341.59 206.079 341.247 206.079H340.696C340.352 206.079 340.073 205.799 340.073 205.455V201.166C340.073 200.822 340.352 200.542 340.696 200.542Z" fill="#FF6621"/>
<path d="M342.493 200.542H343.044C343.388 200.542 343.668 200.822 343.668 201.166V205.455C343.668 205.799 343.388 206.079 343.044 206.079H342.493C342.15 206.079 341.87 205.799 341.87 205.455V201.166C341.87 200.822 342.15 200.542 342.493 200.542Z" fill="#FF6621"/>
<path d="M344.283 200.542H344.834C345.177 200.542 345.457 200.822 345.457 201.166V205.455C345.457 205.799 345.177 206.079 344.834 206.079H344.283C343.939 206.079 343.659 205.799 343.659 205.455V201.166C343.659 200.822 343.939 200.542 344.283 200.542Z" fill="#FF6621"/>
<path d="M370.022 202.555H349.459V204.057H370.022V202.555Z" fill="#FF6621"/>
<path d="M354.093 200.542H354.644C354.987 200.542 355.267 200.822 355.267 201.165V205.455C355.267 205.799 354.987 206.078 354.644 206.078H354.093C353.749 206.078 353.469 205.799 353.469 205.455V201.165C353.469 200.822 353.749 200.542 354.093 200.542Z" fill="#FF6621"/>
<path d="M355.882 200.542H356.433C356.777 200.542 357.056 200.822 357.056 201.165V205.455C357.056 205.799 356.777 206.078 356.433 206.078H355.882C355.538 206.078 355.259 205.799 355.259 205.455V201.165C355.259 200.822 355.538 200.542 355.882 200.542Z" fill="#FF6621"/>
<path d="M357.679 200.542H358.23C358.574 200.542 358.854 200.822 358.854 201.165V205.455C358.854 205.799 358.574 206.078 358.23 206.078H357.679C357.336 206.078 357.056 205.799 357.056 205.455V201.165C357.056 200.822 357.336 200.542 357.679 200.542Z" fill="#FF6621"/>
<path d="M359.469 200.542H360.02C360.364 200.542 360.643 200.822 360.643 201.165V205.455C360.643 205.799 360.364 206.078 360.02 206.078H359.469C359.125 206.078 358.846 205.799 358.846 205.455V201.165C358.846 200.822 359.125 200.542 359.469 200.542Z" fill="#FF6621"/>
<path d="M361.258 200.542H361.81C362.153 200.542 362.433 200.822 362.433 201.165V205.455C362.433 205.799 362.153 206.078 361.81 206.078H361.258C360.915 206.078 360.635 205.799 360.635 205.455V201.165C360.635 200.822 360.915 200.542 361.258 200.542Z" fill="#FF6621"/>
<path d="M363.599 200.542H363.055C362.711 200.542 362.432 200.821 362.432 201.165V205.455C362.432 205.799 362.711 206.078 363.055 206.078H363.599C363.943 206.078 364.222 205.799 364.222 205.455V201.165C364.222 200.821 363.943 200.542 363.599 200.542Z" fill="#FF6621"/>
<path d="M364.845 200.542H365.396C365.74 200.542 366.019 200.822 366.019 201.165V205.455C366.019 205.799 365.74 206.078 365.396 206.078H364.845C364.502 206.078 364.222 205.799 364.222 205.455V201.165C364.222 200.822 364.502 200.542 364.845 200.542Z" fill="#FF6621"/>
<path d="M530.593 335.9C531.408 335.9 545.883 336.603 547.121 335.493C559.671 324.245 576.511 296.325 576.87 294.839C577.11 293.904 562.459 281.538 562.395 281.458C561.029 279.948 539.364 261.127 539.364 261.127L515.702 285.692L538.262 306.151L538.701 306.582C538.701 306.582 537.639 314.946 535.026 322.599C534.667 323.662 530.002 328.239 529.69 329.118C528.66 332.034 529.458 335.9 530.593 335.9Z" fill="#EB9481"/>
<path d="M530.593 335.9C531.408 335.9 545.883 336.603 547.121 335.492C559.671 324.252 576.511 296.332 576.87 294.847C577.11 293.912 562.459 281.538 562.387 281.466C561.836 280.859 558.025 277.464 553.656 273.621L529.85 298.521L538.262 306.15L538.701 306.582C538.701 306.582 537.639 314.946 535.026 322.599C534.659 323.661 530.002 328.231 529.69 329.117C528.659 332.033 529.458 335.9 530.593 335.9Z" fill="#37474F"/>
<path d="M556.308 275.961C556.507 276.145 556.707 276.313 556.899 276.489L532.742 301.149L532.15 300.606L556.308 275.961ZM533.964 302.252L534.555 302.787L558.736 278.118C558.544 277.943 558.345 277.767 558.145 277.591L533.964 302.252Z" fill="#FF6621"/>
<path d="M530.026 336.116C530.497 336.435 546.418 336.555 547.473 335.604C557.522 326.529 577.829 296.277 578.045 294.464C578.165 293.513 571.047 287.074 563.186 281.658L538.494 306.622C538.494 306.622 536.936 317.039 534.915 322.615C534.451 323.885 529.882 328.063 529.467 328.99C528.188 331.834 529.363 335.652 530.034 336.108L530.026 336.116Z" fill="#FF6621"/>
<path d="M541.562 307.605C541.562 307.605 541.562 307.597 541.578 307.589C542.536 306.67 543.567 305.767 544.549 304.841C545.971 303.491 547.321 302.045 548.256 300.343C549.135 298.713 549.63 296.245 547.873 295.023C547.801 294.967 547.737 294.919 547.657 294.871C545.532 293.625 543.423 295.526 542.536 297.323C541.506 299.416 540.859 302.005 540.691 304.489C540.635 305.112 540.619 305.751 540.659 306.374C540.659 306.542 540.659 306.702 540.691 306.886C540.675 306.886 540.691 306.894 540.691 306.91C540.691 306.934 540.683 306.981 540.707 307.029C540.707 307.117 540.707 307.221 540.715 307.325C540.731 307.405 540.795 307.429 540.851 307.413C540.97 307.669 541.314 307.836 541.562 307.597V307.605ZM541.562 306.294C541.426 306.43 541.314 306.558 541.186 306.702C541.13 306.75 541.082 306.798 541.034 306.854C541.042 306.782 541.066 306.71 541.074 306.63V306.614C541.29 305.456 541.466 304.297 541.713 303.139C541.857 302.428 542.017 301.725 542.217 301.03C542.488 300.119 542.776 299.185 543.167 298.322C543.671 297.196 545.907 294.463 547.241 295.853C547.521 296.133 547.745 296.572 547.92 297.251C548.48 299.44 545.74 302.132 544.398 303.483C543.455 304.433 542.488 305.344 541.554 306.302L541.562 306.294Z" fill="#263238"/>
<path d="M529.898 333.951C534.196 333.384 538.59 333.479 542.903 333.064C543.407 333.016 543.91 332.968 544.413 332.92C544.964 332.864 545.508 332.88 545.931 332.473C546.658 331.762 547.233 330.843 547.856 330.044C549.15 328.391 550.437 326.721 551.715 325.059C556.875 318.373 561.924 311.607 566.933 304.809C568.347 302.891 569.769 300.974 571.191 299.057C572.613 297.132 574.154 295.302 575.584 293.385C575.632 293.313 575.752 293.385 575.704 293.457C574.506 295.262 573.42 297.14 572.181 298.921C570.943 300.702 569.713 302.492 568.451 304.249C565.942 307.748 563.386 311.223 560.806 314.674C558.225 318.125 555.613 321.553 552.977 324.964C551.651 326.681 550.309 328.399 548.967 330.1C548.32 330.923 547.673 331.754 547.009 332.577C546.45 333.272 545.931 333.631 545.02 333.719C540.035 334.19 534.947 334.071 529.938 334.318C529.73 334.326 529.682 333.983 529.898 333.951Z" fill="#263238"/>
<path d="M407.45 132.048C407.45 132.048 414.831 155.598 420.151 161.47C420.151 161.47 453.631 233.351 466.708 247.506C479.211 261.039 531.136 302.204 531.136 302.204L555.309 275.075C555.309 275.075 518.929 237.105 494.189 223.661C490.363 221.584 463.305 157.212 463.265 155.694C463.265 155.694 463.689 150.997 462.586 147.65C458.736 135.915 449.23 123.884 449.23 123.884L407.442 132.048H407.45Z" fill="#FF6621"/>
<path opacity="0.1" d="M453.543 129.939L447.392 216.239C434.019 191.243 420.151 161.47 420.151 161.47C414.831 155.598 407.449 132.048 407.449 132.048L449.237 123.884C449.237 123.884 451.115 126.265 453.543 129.939Z" fill="black"/>
<path d="M493.502 254.561C493.502 254.561 506.22 241.723 510.118 233.095L517.475 238.576C517.475 238.576 512.411 248.753 500.779 260.624L493.502 254.561Z" fill="#EBEBEB"/>
<path d="M476.678 242.434C476.678 242.434 486.863 235.907 494.556 222.399L502.465 226.377C502.465 226.377 499.661 234.174 485.377 246.181L476.678 242.434Z" fill="#EBEBEB"/>
<path d="M524.857 280.683C524.857 280.683 537.575 267.845 541.465 259.218L548.822 264.698C548.822 264.698 543.758 274.875 532.126 286.746L524.849 280.683H524.857Z" fill="#EBEBEB"/>
<path d="M535.569 304.593C531.104 304.872 488.086 272.095 485.785 269.851C483.484 267.606 461.26 253.131 455.301 241.379C452.281 235.412 453.535 228.981 455.692 227.168C459.918 223.621 468.945 227.056 477.78 233.103C491.129 242.234 503.655 257.476 508.848 261.207C514.048 264.946 544.357 291.795 544.868 293.536C545.339 295.134 541.721 297.762 538.997 300.638C537.559 302.164 537.111 304.497 535.561 304.593H535.569Z" fill="#DBDBDB"/>
<path d="M455.804 241.115C461.212 247.21 467.875 252.403 474.002 257.787C477.948 261.079 481.847 264.45 485.953 267.541C488.501 269.283 491.073 271.024 493.518 272.894C504.103 280.786 519.96 293.232 530.632 300.638C531.248 301.061 532.566 301.884 533.285 302.211C532.486 301.868 531.319 301.213 530.569 300.742C517.619 292.306 505.477 282.687 493.046 273.533C490.61 271.647 488.03 269.882 485.513 268.14C481.415 265.001 477.501 261.638 473.61 258.259C467.523 252.731 461.028 247.498 455.812 241.123L455.804 241.115Z" fill="#C7C7C7"/>
<path d="M458.512 238.048C463.92 244.143 470.583 249.336 476.71 254.72C480.656 258.011 484.555 261.382 488.661 264.474C491.209 266.215 493.782 267.957 496.226 269.826C506.811 277.719 522.668 290.165 533.341 297.57C533.956 297.994 535.274 298.817 535.993 299.144C535.194 298.801 534.028 298.145 533.277 297.674C520.327 289.238 508.185 279.62 495.755 270.465C493.318 268.58 490.738 266.815 488.222 265.073C484.123 261.934 480.209 258.57 476.319 255.191C470.231 249.663 463.737 244.431 458.52 238.056L458.512 238.048Z" fill="#C7C7C7"/>
<path d="M463.904 235.603C467.251 237.752 470.223 240.436 473.283 242.953C479.33 248.097 485.266 253.394 491.289 258.562C492.807 259.817 494.269 261.167 495.962 262.173C509.423 272.399 521.813 283.926 535.346 294.063C536.152 294.631 536.959 295.238 537.87 295.629C536.943 295.27 536.112 294.703 535.274 294.167C522.939 285.66 507.514 271.967 495.539 262.804C493.821 261.766 492.351 260.392 490.818 259.106C482.126 251.78 472.891 242.45 463.896 235.595L463.904 235.603Z" fill="#C7C7C7"/>
<path d="M468.01 256.541C468.122 258.586 470.95 260.336 470.95 260.336C470.95 260.336 472.484 263.028 474.593 263.739C474.593 263.739 476.087 265.76 478.915 265.632C479.961 265.584 484.682 263.156 487.79 260.496C489.611 258.938 494.844 251.692 494.676 251.277C494.508 250.861 485.178 241.563 484.235 241.563C483.3 241.563 477.357 249.272 474.801 251.58C472.244 253.889 467.986 256.054 468.01 256.541Z" fill="#EBEBEB"/>
<path d="M470.95 260.336C472.069 259.489 474.321 257.811 475.448 256.98C479.258 254.312 482.302 250.717 485.465 247.338L487.391 245.293C484.714 249.144 481.791 252.914 478.124 255.878C475.847 257.548 473.443 259.018 470.95 260.336Z" fill="#C7C7C7"/>
<path d="M474.585 263.739C477.645 261.838 480.896 260.04 483.5 257.556C485.433 255.662 487.271 253.609 489.084 251.58L490.937 249.551C488.924 252.627 486.672 255.527 484.051 258.131C481.335 260.679 477.988 262.349 474.585 263.739Z" fill="#C7C7C7"/>
<path d="M455.309 241.387C454.406 238.799 454.254 235.795 455.532 233.247C458.536 227.599 466.181 230.147 470.775 232.184C478.364 235.715 484.746 241.339 490.81 246.987C495.866 251.708 500.404 256.965 505.604 261.494C513.234 267.462 520.487 273.924 527.789 280.275C531.935 283.942 536.073 287.625 540.067 291.467C540.754 292.242 541.721 292.881 542.128 293.84C542.184 294.223 542.04 294.575 541.872 294.886C540.339 297.235 537.862 298.713 536.145 300.894C535.322 301.9 534.938 303.666 533.476 303.889C534.938 303.65 535.282 301.876 536.105 300.862C537.774 298.673 540.251 297.131 541.729 294.806C541.888 294.511 542 294.183 541.952 293.872C541.529 293.009 540.586 292.346 539.915 291.627C535.881 287.84 531.687 284.229 527.509 280.595C521.23 275.17 514.919 269.77 508.48 264.538C506.331 262.804 504.015 261.199 502.082 259.209C498.111 255.335 494.285 251.341 490.259 247.554C484.251 241.922 477.972 236.346 470.503 232.735C466.061 230.69 458.848 228.054 455.756 233.367C454.446 235.779 454.478 238.767 455.301 241.379L455.309 241.387Z" fill="#C7C7C7"/>
<path d="M408.56 335.763C409.359 335.915 426.934 336.602 428.356 335.739C442.751 326.984 464.432 302.627 465.055 301.229C465.462 300.358 453.328 285.508 453.272 285.428C452.201 283.694 434.363 261.222 434.363 261.222L406.603 281.026L425.032 305.271L425.384 305.774C425.384 305.774 422.812 313.803 418.833 320.841C418.282 321.815 409.391 328.118 408.927 328.925C407.378 331.601 407.458 335.556 408.568 335.763H408.56Z" fill="#EB9481"/>
<path d="M408.56 335.763C409.359 335.915 426.934 336.602 428.356 335.731C442.751 326.984 464.424 302.627 465.055 301.229C465.462 300.35 453.328 285.507 453.272 285.419C452.84 284.724 449.717 280.682 446.13 276.105L418.162 296.22L425.032 305.263L425.384 305.766C425.384 305.766 422.804 313.795 418.833 320.84C418.274 321.815 409.391 328.118 408.92 328.933C407.37 331.609 407.45 335.555 408.56 335.763Z" fill="#37474F"/>
<path d="M448.295 278.901C448.455 279.117 448.622 279.316 448.782 279.524L420.511 299.336L420.031 298.696L448.295 278.901ZM421.509 300.646L421.989 301.277L450.284 281.457C450.124 281.25 449.964 281.042 449.797 280.834L421.501 300.646H421.509Z" fill="#FF6621"/>
<path d="M407.961 335.876C408.36 336.275 427.461 336.659 428.675 335.916C440.219 328.838 465.726 302.819 466.269 301.078C466.557 300.167 460.749 292.538 454.007 285.764L425.16 305.775C425.16 305.775 421.725 315.729 418.713 320.841C418.026 322.008 409.295 327.935 408.712 328.774C406.938 331.338 407.386 335.308 407.961 335.876Z" fill="#FF6621"/>
<path d="M454.031 294.471C457.25 291.763 461.46 296.756 458.241 299.472C455.021 302.18 450.811 297.187 454.031 294.471Z" fill="#263238"/>
<path d="M417.906 308.147C420.111 308.546 422.364 308.275 424.593 307.931C424.753 307.907 424.904 307.883 425.056 307.851C425.967 307.708 426.878 307.564 427.764 307.444C427.884 307.42 427.964 307.364 428.012 307.292C428.132 307.148 428.14 306.925 428.052 306.773C428.108 306.741 428.132 306.669 428.076 306.613C427.98 306.525 427.892 306.445 427.788 306.35L427.708 306.254C427.708 306.254 427.7 306.262 427.7 306.246C427.581 306.15 427.453 306.046 427.333 305.934C427.053 305.694 426.758 305.455 426.438 305.239C424.289 303.617 421.605 302.355 419.105 301.804C417.148 301.381 414.344 301.844 413.992 304.289C413.665 306.597 416.005 307.811 417.898 308.155L417.906 308.147ZM415.71 305.966C413.241 302.699 418.074 302.547 419.504 302.907C420.423 303.146 421.334 303.506 422.204 303.865C423.498 304.392 424.713 305.031 425.919 305.694C426.366 305.95 426.814 306.19 427.269 306.437C427.269 306.437 427.277 306.44 427.293 306.445C427.365 306.485 427.429 306.525 427.501 306.565C427.421 306.565 427.333 306.581 427.253 306.589C427.173 306.589 427.077 306.589 426.989 306.613C426.342 306.677 425.695 306.741 425.048 306.821C424.289 306.909 423.522 307.013 422.756 307.092C420.87 307.3 417.06 307.764 415.71 305.966Z" fill="#263238"/>
<path d="M427.996 307.309C427.996 307.309 428.004 307.301 428.012 307.293C429.123 306.566 430.297 305.871 431.439 305.136C433.085 304.066 434.675 302.899 435.905 301.397C437.071 299.951 438.006 297.627 436.504 296.093C436.448 296.029 436.384 295.965 436.32 295.909C434.459 294.296 432.038 295.773 430.84 297.387C429.442 299.256 428.332 301.677 427.717 304.09C427.549 304.689 427.421 305.312 427.341 305.943C427.309 306.111 427.277 306.27 427.277 306.454C427.261 306.454 427.269 306.462 427.269 306.478C427.261 306.502 427.245 306.55 427.269 306.598C427.245 306.686 427.229 306.782 427.229 306.885C427.229 306.965 427.285 307.005 427.349 306.997C427.421 307.269 427.733 307.501 428.012 307.309H427.996ZM428.236 306.023C428.076 306.127 427.94 306.238 427.788 306.35C427.725 306.39 427.669 306.422 427.613 306.47C427.637 306.398 427.677 306.334 427.693 306.262V306.246C428.116 305.144 428.507 304.042 428.963 302.947C429.234 302.268 429.514 301.613 429.841 300.966C430.281 300.119 430.728 299.248 431.279 298.474C431.982 297.459 434.683 295.182 435.737 296.788C435.961 297.108 436.097 297.587 436.152 298.282C436.304 300.535 433.117 302.676 431.543 303.762C430.449 304.529 429.322 305.24 428.236 306.015V306.023Z" fill="#263238"/>
<path d="M408.224 333.719C412.554 333.95 425.655 332.656 426.159 332.704C426.71 332.752 427.245 332.864 427.732 332.544C428.579 331.977 429.314 331.178 430.073 330.507C431.647 329.117 433.212 327.719 434.786 326.313C441.081 320.681 447.288 314.962 453.455 309.194C455.197 307.564 456.946 305.951 458.688 304.321C460.437 302.691 462.291 301.174 464.048 299.552C464.112 299.496 464.208 299.576 464.152 299.64C462.642 301.197 461.236 302.843 459.686 304.369C458.145 305.895 456.603 307.421 455.037 308.922C451.93 311.902 448.782 314.85 445.611 317.766C442.439 320.681 439.244 323.581 436.032 326.449C434.411 327.895 432.781 329.333 431.143 330.763C430.353 331.458 429.562 332.153 428.763 332.84C428.084 333.423 427.517 333.591 426.598 333.599C421.254 333.639 413.161 334.757 408.192 334.086C407.985 334.054 408.009 333.711 408.216 333.719H408.224Z" fill="#263238"/>
<path d="M416.916 298.122L447.776 276.561C447.776 276.561 407.825 216.79 408.304 215.464C409.79 211.358 435.657 182.855 451.091 161.134C455.509 154.919 459.87 141.491 458.728 139.038C456.307 133.83 449.238 123.876 449.238 123.876L407.45 132.04L408.456 144.303C406.763 147.027 366.013 196.859 366.788 215.808C367.811 240.796 416.908 298.114 416.908 298.114L416.916 298.122Z" fill="#FF6621"/>
<path d="M431.895 185.89C436.152 180.586 442.192 173.261 446.194 167.916C448.431 164.857 450.739 161.757 452.281 158.402C453.368 155.79 454.47 153.106 455.389 150.413C455.684 149.511 456.004 148.6 456.132 147.649C456.212 148.616 456.06 149.591 455.908 150.541C455.381 153.409 454.566 156.181 453.575 158.921C452.074 162.588 449.781 165.727 447.448 168.851C442.751 174.962 437.542 180.65 431.895 185.882V185.89Z" fill="#263238"/>
<path d="M395.115 244.271C395.115 244.271 410.845 235.38 416.94 228.134L422.532 235.412C422.532 235.412 414.887 243.831 400.468 252.084L395.115 244.263V244.271Z" fill="#EBEBEB"/>
<path d="M383.021 222.166C383.021 222.166 395.115 222.103 408.847 214.801L413.401 222.39C413.401 222.39 406.866 227.479 388.373 229.979L383.021 222.158V222.166Z" fill="#EBEBEB"/>
<path d="M418.178 277.942C418.178 277.942 433.907 269.051 440.003 261.805L445.595 269.083C445.595 269.083 437.95 277.503 423.53 285.755L418.178 277.934V277.942Z" fill="#EBEBEB"/>
<path d="M421.981 303.865C417.611 302.922 385.138 259.664 383.532 256.884C381.934 254.104 364.479 234.117 361.955 221.192C360.669 214.633 363.633 208.777 366.197 207.619C371.23 205.358 378.979 211.118 385.833 219.346C396.194 231.768 404.094 249.838 408.081 254.847C412.067 259.856 433.916 293.951 433.94 295.756C433.956 297.418 429.762 298.96 426.358 300.989C424.561 302.059 423.491 304.184 421.981 303.857V303.865Z" fill="#DBDBDB"/>
<path d="M362.506 221.072C366.053 228.406 371.046 235.22 375.479 242.066C378.379 246.308 381.215 250.606 384.323 254.704C386.304 257.069 388.309 259.449 390.146 261.91C398.183 272.383 410.054 288.679 418.306 298.713C418.777 299.288 419.832 300.446 420.431 300.949C419.76 300.398 418.809 299.456 418.218 298.793C408.057 287.153 398.99 274.587 389.515 262.397C387.686 259.92 385.681 257.524 383.732 255.159C380.648 251.021 377.788 246.723 374.968 242.41C370.622 235.436 365.789 228.629 362.506 221.072Z" fill="#C7C7C7"/>
<path d="M365.941 218.858C369.488 226.192 374.481 233.006 378.915 239.852C381.814 244.094 384.65 248.392 387.758 252.49C389.739 254.855 391.744 257.235 393.581 259.696C401.618 270.169 413.489 286.465 421.741 296.499C422.212 297.074 423.267 298.232 423.866 298.736C423.195 298.184 422.244 297.242 421.653 296.579C411.492 284.939 402.425 272.374 392.95 260.183C391.121 257.707 389.116 255.31 387.167 252.945C384.083 248.807 381.223 244.51 378.403 240.196C374.057 233.222 369.224 226.416 365.941 218.858Z" fill="#C7C7C7"/>
<path d="M371.797 217.972C374.433 220.952 376.558 224.339 378.827 227.598C383.244 234.197 387.518 240.907 391.904 247.521C393.022 249.143 394.061 250.845 395.419 252.275C405.588 265.775 414.376 280.25 424.633 293.679C425.256 294.446 425.863 295.245 426.638 295.876C425.839 295.277 425.2 294.502 424.545 293.759C414.999 282.216 403.879 264.841 394.852 252.762C393.478 251.292 392.439 249.574 391.313 247.921C384.946 238.502 378.595 227.015 371.813 217.964L371.797 217.972Z" fill="#C7C7C7"/>
<path d="M370.047 239.238C369.6 241.235 371.845 243.687 371.845 243.687C371.845 243.687 372.588 246.691 374.417 247.953C374.417 247.953 375.304 250.302 378.06 250.949C379.082 251.188 384.283 250.134 387.997 248.416C390.17 247.41 397.176 241.866 397.136 241.418C397.088 240.971 390.642 229.484 389.739 229.236C388.836 228.988 381.015 234.78 377.932 236.306C374.848 237.832 370.159 238.75 370.047 239.23V239.238Z" fill="#EBEBEB"/>
<path d="M371.845 243.687C373.147 243.175 375.775 242.169 377.085 241.682C381.479 240.148 385.385 237.528 389.348 235.131L391.76 233.685C388.141 236.665 384.299 239.493 379.961 241.354C377.317 242.345 374.601 243.104 371.845 243.695V243.687Z" fill="#C7C7C7"/>
<path d="M374.417 247.953C377.876 246.954 381.495 246.116 384.682 244.43C387.063 243.136 389.379 241.658 391.68 240.196L394.013 238.75C391.241 241.163 388.277 243.344 385.058 245.125C381.75 246.835 378.068 247.538 374.417 247.945V247.953Z" fill="#C7C7C7"/>
<path d="M361.955 221.191C361.787 218.451 362.466 215.519 364.383 213.418C368.809 208.801 375.48 213.331 379.338 216.542C385.681 222.006 390.29 229.156 394.588 236.242C398.167 242.161 401.107 248.456 404.877 254.232C410.589 262.053 415.814 270.241 421.11 278.349C424.106 283.006 427.085 287.672 429.881 292.457C430.337 293.391 431.088 294.262 431.215 295.301C431.16 295.684 430.928 295.988 430.688 296.235C428.571 298.081 425.791 298.824 423.546 300.461C422.476 301.204 421.629 302.802 420.159 302.618C421.637 302.786 422.444 301.172 423.507 300.421C425.711 298.776 428.507 297.961 430.568 296.124C430.8 295.884 431 295.596 431.04 295.285C430.872 294.334 430.137 293.439 429.69 292.569C426.846 287.831 423.786 283.214 420.758 278.581C416.197 271.647 411.596 264.737 406.819 257.954C405.221 255.702 403.431 253.521 402.113 251.092C399.349 246.283 396.753 241.402 393.909 236.657C389.667 229.603 385.138 222.525 378.939 217.021C375.224 213.85 369.001 209.344 364.575 213.61C362.658 215.575 361.875 218.459 361.955 221.199V221.191Z" fill="#C7C7C7"/>
<path d="M403.08 69.7777C402.641 69.8417 402.209 69.9775 401.826 70.2011C400.068 71.2237 399.381 73.2847 399.134 75.178C398.87 77.2071 399.062 79.4359 398.127 81.3052C397.768 82.0401 397.209 82.7032 396.442 83.0147C395.571 83.3662 394.668 83.1106 393.869 82.7112C393.023 82.2958 392.112 81.6167 391.113 81.8005C390.283 81.9443 389.667 82.6552 389.332 83.3902C388.445 85.2915 389.348 87.5123 389.276 89.5014C389.204 91.6343 388.477 93.7114 387.215 95.4289C386.033 97.0346 384.355 98.2488 382.494 98.9359C381.583 99.2714 380.616 99.495 379.65 99.559C378.563 99.6229 377.485 99.4551 376.398 99.4791C375.392 99.503 374.258 99.7187 373.571 100.526C373.035 101.141 372.564 104.12 374.305 107.364C374.433 107.595 374.002 107.803 373.794 107.619C373.379 107.26 372.995 106.876 372.636 106.469C369.608 103.098 368.338 98.3926 369.321 93.967C369.848 91.6024 370.974 89.4215 372.548 87.5842C373.419 86.5696 374.385 85.611 375.08 84.4527C375.696 83.4221 375.975 82.2798 376.063 81.0895C376.207 78.8287 375.815 76.552 376.351 74.3152C376.838 72.3181 377.876 70.4887 379.25 68.9709C382.134 65.7995 386.304 64.1378 390.562 64.2497C394.764 64.3615 403.336 69.7298 403.096 69.7698L403.08 69.7777Z" fill="#263238"/>
<path d="M402.944 69.8018C402.097 70.0255 401.251 70.3371 400.58 70.9122C399.973 71.4315 399.541 72.1345 399.262 72.8774C398.63 74.555 398.742 76.3285 398.79 78.0859C398.838 79.7316 398.806 81.4811 397.864 82.911C397.464 83.5101 396.921 84.0614 396.258 84.3569C395.499 84.6925 394.7 84.6285 393.933 84.3489C392.543 83.8457 390.953 82.7592 389.468 83.614C388.03 84.4368 387.99 86.4419 387.942 87.8958C387.838 91.4348 388.221 96.0361 384.906 98.3448C383.229 99.5112 381 100.022 379.003 100.246C377.557 100.414 375.727 100.606 374.865 101.94C374.833 101.988 374.913 102.028 374.944 101.98C375.879 100.574 377.748 100.701 379.234 100.598C380.976 100.47 382.781 100.086 384.347 99.3114C385.969 98.5126 387.079 97.1386 387.694 95.453C388.317 93.7355 388.421 91.9221 388.437 90.1087C388.437 89.182 388.437 88.2553 388.461 87.3287C388.493 86.4979 388.565 85.6111 388.956 84.8602C389.38 84.0534 390.163 83.6939 391.049 83.8137C391.92 83.9256 392.679 84.3649 393.486 84.6765C394.205 84.9561 394.956 85.1398 395.731 84.988C396.346 84.8682 396.913 84.5566 397.384 84.1492C398.471 83.2146 399.046 81.8405 399.206 80.4346C399.437 78.4454 399.006 76.4403 399.27 74.4512C399.405 73.4366 399.717 72.3981 400.364 71.5913C401.051 70.7445 402.01 70.385 403 70.0016C403.136 69.9536 403.064 69.7619 402.928 69.7939L402.944 69.8018Z" fill="#263238"/>
<path d="M389.172 62.9959C384.882 62.8042 380.888 65.2966 378.667 68.8755C377.421 70.8806 376.758 73.1733 376.574 75.514C376.398 77.7028 376.51 79.9556 375.863 82.0805C375.144 84.4291 373.267 85.9629 371.677 87.7124C370.391 89.1344 369.424 90.796 368.849 92.6254C367.739 96.1323 368.066 100.087 369.784 103.338C370 103.753 370.239 104.161 370.503 104.552C370.535 104.6 370.615 104.552 370.583 104.504C368.57 101.397 368.114 97.4345 369.025 93.8716C369.472 92.1221 370.255 90.4605 371.366 89.0305C372.732 87.2651 374.609 85.923 375.743 83.9658C376.806 82.1364 376.958 79.9636 377.038 77.9025C377.125 75.6418 377.221 73.413 378.06 71.288C379.618 67.3337 383.133 64.2262 387.399 63.6191C392.16 62.948 396.522 65.4085 400.22 68.1246C400.715 68.4841 401.211 68.8515 401.698 69.219C401.754 69.2589 401.826 69.1791 401.77 69.1391C398.143 66.1914 394.021 63.2196 389.18 63.0039L389.172 62.9959Z" fill="#263238"/>
<path d="M403.519 66.3271C402.801 66.2632 401.834 66.7345 401.674 67.1979C401.514 67.6612 402.809 71.2241 403.679 71.5756C404.55 71.9271 405.429 70.4252 405.429 70.4252L403.512 66.3351L403.519 66.3271Z" fill="#FF6621"/>
<path d="M412.642 95.6922C409.367 101.236 390.466 126.807 387.446 128.932C371.709 139.989 360.613 134.021 362.969 125.649C366.66 112.516 392.255 95.4605 407.322 86.6651C417.06 80.9773 418.114 86.4335 412.642 95.7002V95.6922Z" fill="#EB9481"/>
<path d="M390.25 94.686L399.82 114.122C399.82 114.122 413.872 94.8857 416.405 88.0635C419.257 80.3866 414.711 80.6022 407.601 83.7897C400.492 86.9691 390.25 94.694 390.25 94.694V94.686Z" fill="#FF6621"/>
<path d="M402.073 109.64C401.85 108.913 398.958 102.81 398.303 101.5C397.648 100.19 395.019 94.7973 394.229 93.4951C394.197 93.4392 394.109 93.4712 394.133 93.5351C394.66 94.9491 397.296 100.397 397.943 101.747C398.582 103.097 401.57 109.073 401.993 109.688C402.025 109.736 402.097 109.688 402.081 109.64H402.073Z" fill="#263238"/>
<path opacity="0.1" d="M416.405 88.0636C413.864 94.8858 399.821 114.122 399.821 114.122L394.508 103.33L416.173 82.0322C417.467 82.7272 417.691 84.5886 416.405 88.0636Z" fill="black"/>
<path d="M403.448 117.461C403.448 117.461 404.446 128.797 405.477 130.57C405.9 131.297 407.754 132.424 407.754 132.424L449.542 124.26C449.542 124.26 450.516 122.27 449.685 120.289C446.346 112.293 434.355 92.9285 422.956 84.4847C415.67 79.0844 410.781 81.6008 407.586 87.3126C406.779 88.7585 399.757 103.218 399.422 110.367C399.206 114.865 403.448 117.453 403.448 117.453V117.461Z" fill="#FF6621"/>
<path d="M414.344 112.932C412.603 113.371 410.861 113.914 409.192 114.753C408.361 115.168 407.554 115.64 406.747 116.143C406.348 116.391 405.94 116.622 405.533 116.846C405.117 117.078 404.662 117.301 404.207 117.365C404.167 117.365 404.175 117.461 404.215 117.461C404.662 117.437 405.085 117.413 405.517 117.301C405.932 117.198 406.332 117.022 406.731 116.822C407.578 116.415 408.401 115.943 409.247 115.52C410.941 114.665 412.635 113.81 414.376 113.147C414.456 113.115 414.416 112.908 414.336 112.924L414.344 112.932Z" fill="#263238"/>
<path d="M418.93 114.929C417.46 114.841 415.966 114.849 414.504 115.017C413.769 115.097 413.05 115.249 412.323 115.424C411.98 115.512 411.636 115.6 411.293 115.704C410.917 115.816 410.55 116 410.174 116.103C410.134 116.111 410.142 116.207 410.182 116.199C410.542 116.119 410.917 116.135 411.277 116.087C411.644 116.04 412.004 115.992 412.371 115.944C413.098 115.848 413.833 115.768 414.56 115.656C416.022 115.44 417.476 115.257 418.946 115.121C419.025 115.121 419.002 114.937 418.93 114.937V114.929Z" fill="#263238"/>
<path d="M407.754 132.424V135.763L451.699 127.231L449.542 124.26L407.754 132.424Z" fill="#263238"/>
<path d="M370.058 123.719L376.633 120.009L371.884 111.591L365.309 115.3L370.058 123.719Z" fill="#FF6621"/>
<path opacity="0.5" d="M370.058 123.719L376.633 120.009L371.884 111.591L365.309 115.3L370.058 123.719Z" fill="white"/>
<path d="M394.131 168.021L402.132 163.507L377.364 119.604L369.363 124.118L394.131 168.021Z" fill="#FF6621"/>
<path opacity="0.3" d="M369.353 124.108L369.752 124.811L380.689 125.506L380.042 124.364L370.048 123.717L369.353 124.108Z" fill="white"/>
<path opacity="0.3" d="M374.082 132.505L385.035 133.2L384.38 132.049L373.435 131.354L374.082 132.505Z" fill="white"/>
<path opacity="0.3" d="M378.42 140.189L389.372 140.892L388.717 139.742L377.773 139.039L378.42 140.189Z" fill="white"/>
<path opacity="0.3" d="M382.766 147.882L393.71 148.577L393.063 147.435L382.111 146.732L382.766 147.882Z" fill="white"/>
<path opacity="0.3" d="M387.104 155.575L398.048 156.27L397.401 155.12L386.449 154.425L387.104 155.575Z" fill="white"/>
<path opacity="0.3" d="M390.794 162.11L391.442 163.26L401.427 163.907L402.13 163.508L401.731 162.805L390.794 162.11Z" fill="white"/>
<path d="M304.238 9.91857L312.698 5.13344C317.747 2.28154 324.154 4.07895 326.974 9.15167L376.287 97.7923C377.749 100.421 377.581 103.648 375.855 106.108L371.917 111.74L365.311 115.479L358.225 116.054C355.197 116.302 352.297 114.776 350.787 112.14L300.316 24.218C297.424 19.1932 299.19 12.7705 304.238 9.91857Z" fill="#FF6621"/>
<path d="M304.238 9.91857L312.698 5.13344C317.747 2.28154 324.154 4.07895 326.974 9.15167L376.287 97.7923C377.749 100.421 377.581 103.648 375.855 106.108L371.917 111.74L365.311 115.479L358.225 116.054C355.197 116.302 352.297 114.776 350.787 112.14L300.316 24.218C297.424 19.1932 299.19 12.7705 304.238 9.91857Z" fill="#EEC255" stroke="#EEC255" stroke-width="0.433556" stroke-miterlimit="10"/>
<g opacity="0.1">
<path d="M314.847 18.843C331.303 46.4354 349.07 77.4069 364.631 105.534C348.175 77.9181 330.385 46.9706 314.847 18.843Z" fill="black"/>
</g>
<path d="M428.3 91.4751C437 109.968 442.448 128.869 438.477 133.495C432.774 140.133 418.666 151.269 408.528 154.944C405.549 156.022 395.435 135.084 398.615 133.926C402.457 132.528 419.744 120.657 420.072 120.409C420.775 119.874 418.882 98.8884 418.73 93.1606C418.442 82.6398 423.571 81.4175 428.3 91.4751Z" fill="#EB9481"/>
<path d="M371.981 148.913C372.244 151.413 374.793 151.932 374.793 151.932C374.793 151.932 373.858 153.706 374.409 155.559C375.04 157.676 378.627 157.62 378.627 157.62C378.627 157.62 378.052 159.617 378.827 161.51C379.634 163.476 383.269 163.939 383.269 163.939C383.269 163.939 383.756 166.088 385.601 167.246C388.757 169.219 393.869 166.743 397.129 165.193C400.396 163.651 409.119 155.687 410.749 154.417L398.958 133.846C398.958 133.846 383.484 136.658 379.905 139.023C376.886 141.012 371.685 146.125 371.981 148.929V148.913Z" fill="#C7C7C7"/>
<path d="M374.777 151.525C377.477 148.641 380.88 146.708 384.171 144.591C384.243 144.543 384.315 144.663 384.243 144.703C380.944 146.772 378.1 149.472 374.897 151.669C374.809 151.732 374.705 151.605 374.777 151.525Z" fill="#263238"/>
<path d="M378.564 157.309C379.195 156.678 380.033 156.246 380.8 155.807C381.631 155.327 382.462 154.872 383.309 154.417C384.994 153.522 386.704 152.659 388.437 151.852C388.517 151.813 388.589 151.924 388.509 151.964C386.832 152.859 385.162 153.786 383.524 154.752C382.702 155.24 381.887 155.727 381.072 156.222C380.313 156.686 379.554 157.237 378.707 157.524C378.58 157.564 378.476 157.397 378.564 157.301V157.309Z" fill="#263238"/>
<path d="M383.333 163.883C383.86 163.308 384.731 162.988 385.418 162.636C386.193 162.245 386.968 161.846 387.742 161.446C389.284 160.639 390.834 159.84 392.352 158.978C392.424 158.938 392.504 159.05 392.424 159.09C390.89 159.968 389.364 160.871 387.822 161.734C387.063 162.157 386.305 162.581 385.538 162.996C384.891 163.347 384.116 163.867 383.373 163.955C383.333 163.955 383.309 163.907 383.333 163.875V163.883Z" fill="#263238"/>
<path d="M413.521 152.818L409.527 156.118L396.138 134.189L400.724 131.801L413.521 152.818Z" fill="#DBDBDB"/>
<path d="M419.073 113.196L440.706 114.298C440.706 114.298 430.744 92.6573 426.015 87.1213C420.695 80.8902 418.674 84.9724 417.995 92.7292C417.316 100.486 419.073 113.188 419.073 113.188V113.196Z" fill="#FF6621"/>
<path d="M437.886 110.152C437.143 110.001 430.409 109.545 428.939 109.481C427.469 109.417 421.478 109.09 419.96 109.146C419.896 109.146 419.88 109.242 419.952 109.25C421.446 109.473 427.493 109.825 428.979 109.921C430.473 110.017 437.143 110.32 437.886 110.248C437.95 110.248 437.934 110.16 437.886 110.144V110.152Z" fill="#263238"/>
<path d="M420.064 113.195C419.417 113.116 419.017 113.052 419.017 113.052C418.961 110.024 418.722 106.885 418.53 103.865C418.338 100.789 418.058 97.7297 417.835 94.6541C417.835 94.6062 417.763 94.6142 417.763 94.6541C417.779 96.4036 417.803 98.1451 417.843 99.8866C417.803 99.6709 417.755 99.4552 417.715 99.2395C417.563 98.4726 417.387 97.7057 417.268 96.9308C417.26 96.8669 417.156 96.8669 417.164 96.9308C417.228 97.7217 417.3 98.5126 417.459 99.2875C417.571 99.8307 417.723 100.366 417.883 100.901C417.915 101.9 417.931 102.898 417.987 103.897C418.154 106.964 418.106 110.376 418.514 113.419C418.514 113.419 419.305 113.443 420.072 113.331C420.167 113.315 420.159 113.195 420.064 113.179V113.195Z" fill="#263238"/>
<path d="M437.574 114.138C438.621 114.122 439.659 114.146 440.706 114.154L440.57 114.354C438.932 111.007 434.731 102.443 433.125 99.2236L430.584 94.2068C434.667 100.518 437.91 107.332 440.834 114.242L440.93 114.466C439.811 114.354 438.693 114.266 437.582 114.138H437.574Z" fill="#263238"/>
<path d="M432.525 96.02C433.54 97.2582 434.091 98.8959 434.035 100.494C433.676 99.3752 432.925 97.1304 432.525 96.02Z" fill="#263238"/>
<path d="M358.992 124.795C355.868 127.983 352.936 135.012 356.164 139.933C359.383 144.854 365.342 145.845 372.995 143.584L358.992 124.787V124.795Z" fill="#EB9481"/>
<path d="M384.219 105.974C386.408 107.284 385.793 109.849 385.793 109.849C385.793 109.849 387.822 109.753 389.292 111.047C390.97 112.525 389.38 115.808 389.38 115.808C389.38 115.808 391.457 116.136 392.871 117.653C394.333 119.235 393.206 122.774 393.206 122.774C393.206 122.774 394.972 124.14 395.251 126.329C395.723 130.076 391.257 133.71 388.437 136.051C385.617 138.392 374.569 143.009 372.708 143.968L358.832 124.332C358.832 124.332 368.027 111.31 371.733 109.026C374.849 107.101 381.775 104.504 384.227 105.974H384.219Z" fill="#C7C7C7"/>
<path d="M385.426 109.664C381.615 110.91 378.388 113.219 375.032 115.344C374.961 115.392 375.032 115.504 375.104 115.456C378.42 113.307 382.11 111.845 385.505 109.84C385.601 109.784 385.529 109.632 385.426 109.664Z" fill="#263238"/>
<path d="M389.124 115.616C388.269 115.928 387.526 116.511 386.791 117.03C386.001 117.589 385.218 118.156 384.443 118.739C382.893 119.906 381.375 121.112 379.889 122.358C379.825 122.414 379.889 122.526 379.961 122.47C381.503 121.312 383.069 120.169 384.658 119.075C385.457 118.524 386.256 117.989 387.063 117.453C387.814 116.958 388.645 116.495 389.268 115.832C389.364 115.736 389.252 115.56 389.124 115.608V115.616Z" fill="#263238"/>
<path d="M393.134 122.813C392.384 123.053 391.713 123.716 391.097 124.203C390.402 124.747 389.707 125.29 389.004 125.833C387.606 126.912 386.208 127.99 384.771 129.013C384.699 129.06 384.771 129.18 384.842 129.124C386.304 128.086 387.782 127.071 389.244 126.017C389.955 125.498 390.674 124.978 391.377 124.459C391.976 124.012 392.783 123.524 393.19 122.877C393.214 122.837 393.174 122.797 393.134 122.805V122.813Z" fill="#263238"/>
<path d="M372.508 144.007C376.918 141.515 381.447 139.262 386.017 137.097C387.479 136.322 388.765 135.26 390.051 134.205C391.688 132.727 393.51 131.273 394.516 129.276C393.805 131.449 392.024 133.071 390.458 134.669C389.22 135.835 387.894 136.969 386.384 137.792C381.831 140.005 377.213 142.138 372.508 144.007Z" fill="#263238"/>
<path d="M370.055 145.836L374.801 143.576L360.357 121.895L356.203 125.09L370.055 145.836Z" fill="#DBDBDB"/>
<path d="M418.985 83.3261C418.842 84.2448 414.975 90.4199 410.837 90.5318C409.487 90.5637 408.968 83.2223 408.968 83.2223L408.808 82.687L406.539 75.2178L415.031 68.8269L416.261 67.9722C416.261 67.9722 416.749 70.0572 417.324 72.6614C417.348 72.7813 417.38 72.9011 417.404 73.0289C417.444 73.1727 417.476 73.3165 417.508 73.4523C417.595 73.8357 417.691 74.2352 417.771 74.6346C417.835 74.9382 417.899 75.2257 417.955 75.5453C418.019 75.8648 418.075 76.1764 418.139 76.4959C418.706 79.6514 419.025 82.9347 418.969 83.3261H418.985Z" fill="#EB9481"/>
<path d="M406.539 75.2186L407.873 79.6122C412.898 80.9144 417.124 79.3167 418.506 78.6856C418.402 77.9746 418.29 77.2237 418.154 76.4967C418.09 76.1772 418.027 75.8736 417.971 75.5541C417.915 75.2265 417.851 74.939 417.787 74.6354C417.707 74.236 417.611 73.8365 417.523 73.4611C417.491 73.3253 417.451 73.1815 417.419 73.0377C417.387 72.9099 417.364 72.79 417.34 72.6622C416.764 70.066 416.277 67.981 416.277 67.981L415.039 68.8357L406.539 75.2265V75.2186Z" fill="#263238"/>
<path d="M408.808 82.6951L411.724 89.4534L419.002 80.666L421.478 83.0785C421.478 83.0785 414.776 96.6271 414.68 96.0519L411.564 90.7475L408.073 94.9175L407.203 84.4606L408.8 82.6951H408.808Z" fill="#FF6621"/>
<path d="M407.131 84.5564C407.131 84.5005 407.219 84.4685 407.235 84.5324C407.682 86.0422 408.129 92.9363 408.257 94.3982C408.257 94.3982 408.265 94.3823 408.273 94.3823C408.417 94.1985 411.524 90.6996 411.556 90.7475C412.203 91.5783 414.488 95.4367 414.648 95.7882C415.71 93.6393 419.801 85.7946 421.095 83.7336C421.135 83.6776 421.223 83.7096 421.199 83.7815C420.296 86.0343 414.896 96.5871 414.792 96.5711C414.728 96.627 411.9 91.8739 411.532 90.9632C411.021 91.7141 407.922 95.6365 407.89 95.3968C407.674 93.8071 407.083 86.1621 407.123 84.5564H407.131Z" fill="#263238"/>
<path d="M426.367 63.7382C426.479 77.4385 418.291 79.0522 415.335 79.0762C412.651 79.0922 403.52 78.8206 401.994 65.2081C400.468 51.5957 406.795 47.21 412.93 46.8425C419.057 46.475 426.255 50.0459 426.375 63.7382H426.367Z" fill="#EB9481"/>
<path d="M424.146 62.8761C423.819 62.924 423.515 62.908 423.188 62.924C422.82 62.94 422.525 62.9879 422.197 62.7802C422.021 62.6684 421.957 62.3728 422.045 62.197C422.253 61.7737 422.7 61.6458 423.148 61.6139C423.627 61.5739 424.01 61.6698 424.41 61.9494C424.793 62.213 424.586 62.8202 424.154 62.8841L424.146 62.8761Z" fill="#263238"/>
<path d="M414.911 60.8709C415.215 61.0067 415.511 61.0866 415.822 61.1904C416.174 61.3103 416.437 61.4381 416.813 61.3342C417.012 61.2783 417.156 61.0147 417.124 60.815C417.044 60.3516 416.653 60.104 416.238 59.9442C415.782 59.7685 415.391 59.7525 414.935 59.9043C414.488 60.0481 414.52 60.6951 414.911 60.8709Z" fill="#263238"/>
<path d="M416.797 64.2585C416.797 64.2585 416.717 64.2985 416.717 64.3384C416.661 65.2891 416.429 66.3595 415.55 66.5992C415.526 66.5992 415.518 66.6551 415.55 66.6551C416.605 66.6072 416.892 65.1772 416.797 64.2665V64.2585Z" fill="#263238"/>
<path d="M416.046 63.1874C414.536 62.9318 414.129 65.9674 415.527 66.207C416.901 66.4387 417.308 63.4031 416.046 63.1874Z" fill="#263238"/>
<path d="M415.431 63.2752C415.143 63.411 414.84 63.6826 414.52 63.6666C414.145 63.6507 413.905 63.2992 413.705 62.9636C413.681 62.9317 413.657 62.9477 413.649 62.9956C413.561 63.5788 413.705 64.2019 414.32 64.3696C414.88 64.5214 415.359 64.0661 415.583 63.4989C415.622 63.395 415.551 63.2193 415.439 63.2752H415.431Z" fill="#263238"/>
<path d="M422.069 64.6248C422.069 64.6248 422.141 64.6807 422.133 64.7206C421.989 65.6633 421.981 66.7577 422.796 67.1731C422.82 67.1891 422.812 67.229 422.78 67.221C421.758 66.9494 421.782 65.4875 422.069 64.6248Z" fill="#263238"/>
<path d="M423.036 63.7383C424.57 63.8102 424.314 66.8618 422.9 66.7979C421.502 66.734 421.75 63.6824 423.036 63.7383Z" fill="#263238"/>
<path d="M423.651 63.9935C423.883 64.1773 424.09 64.4888 424.378 64.5288C424.713 64.5767 424.985 64.2652 425.225 63.9696C425.249 63.9376 425.273 63.9696 425.273 64.0095C425.241 64.5927 425.001 65.1838 424.426 65.2557C423.907 65.3196 423.571 64.7844 423.475 64.1933C423.459 64.0814 423.555 63.9296 423.643 64.0015L423.651 63.9935Z" fill="#263238"/>
<path d="M415.671 71.7906C415.854 72.0462 416.022 72.3897 416.358 72.4776C416.677 72.5655 417.085 72.4776 417.404 72.4217C417.436 72.4217 417.46 72.4536 417.436 72.4776C417.132 72.7892 416.581 72.925 416.158 72.7732C415.75 72.6214 415.607 72.222 415.575 71.8146C415.575 71.7586 415.647 71.7506 415.671 71.7906Z" fill="#263238"/>
<path d="M416.661 69.3863C417.14 70.2171 417.883 70.6884 418.706 70.8881C419.074 70.976 419.457 71.008 419.841 70.992C419.912 70.992 419.992 70.992 420.056 70.976C420.128 70.976 420.184 70.968 420.264 70.952C420.376 70.9441 420.44 70.8562 420.464 70.7523C420.464 70.7124 420.464 70.6804 420.464 70.6485V70.5606C420.52 69.8496 420.496 68.7552 420.496 68.7552C420.751 68.899 422.053 69.5541 422.053 69.1866C422.013 66.087 421.966 62.644 421.263 59.5684C421.247 59.4646 421.087 59.4805 421.095 59.5844C421.015 62.5641 421.462 65.5358 421.438 68.5315C421.023 68.3478 420.344 68.0203 419.968 68.0123C419.865 68.0362 420.04 70.1212 419.992 70.4328C419.992 70.4328 419.992 70.4488 419.992 70.4648C418.786 70.5606 417.899 70.1612 416.765 69.2984C416.701 69.2425 416.621 69.2984 416.677 69.3783L416.661 69.3863Z" fill="#263238"/>
<path d="M419.129 70.6804C419.129 70.6804 418.506 71.3195 417.747 71.4713C417.468 71.5272 417.172 71.5272 416.884 71.4074C416.293 71.1597 416.357 70.5925 416.533 70.1212C416.677 69.7378 416.916 69.4182 416.916 69.4182C416.916 69.4182 417.699 70.3848 419.129 70.6804Z" fill="#263238"/>
<path d="M417.739 71.4714C417.46 71.5273 417.164 71.5273 416.877 71.4075C416.285 71.1598 416.349 70.5927 416.525 70.1213C417.18 70.2811 417.771 70.8243 417.731 71.4714H417.739Z" fill="#FF9CBD"/>
<path d="M402.114 64.5139C403.631 64.5938 408.033 60.8872 408.976 53.6096C408.976 53.6096 407.674 60.0883 407.075 60.991C406.475 61.8937 409.535 58.898 410.382 53.0424C410.382 53.0424 413.369 55.7585 416.062 56.853C418.754 57.9474 420.455 58.1071 420.671 57.9314C420.895 57.7557 416.948 56.0062 415.99 54.6082C415.99 54.6082 422.988 58.874 426.367 59.5211C426.758 59.593 426.894 53.2182 422.013 49.184C417.14 45.1498 409.631 46.2602 407.146 48.1694C407.146 48.1694 405.165 48.7206 402.912 51.8042C400.045 55.7346 400.468 64.4341 402.106 64.5219L402.114 64.5139Z" fill="#263238"/>
<path d="M410.621 52.2986C410.613 52.1309 410.358 52.1149 410.358 52.2827C410.302 55.0866 409.535 57.4433 408.401 59.9836C408.385 60.0156 408.44 60.0475 408.464 60.0156C409.854 57.5631 410.813 55.1505 410.629 52.2907L410.621 52.2986Z" fill="#263238"/>
<path d="M419.569 58.2504C415.662 57.3397 412.403 55.702 410.102 52.3149C410.054 52.243 409.934 52.2989 409.982 52.3788C411.78 55.9976 415.702 57.843 419.545 58.3942C419.624 58.4101 419.656 58.2664 419.569 58.2504Z" fill="#263238"/>
<path d="M404.63 66.0955C404.63 66.0955 402.201 61.4781 400.14 62.293C398.079 63.1078 399.533 69.5385 401.682 70.6649C403.831 71.7913 404.917 69.8181 404.917 69.8181L404.622 66.0955H404.63Z" fill="#EB9481"/>
<path d="M400.612 64.1219C400.612 64.1219 400.564 64.1619 400.596 64.1779C402.098 65.0246 402.745 66.5984 403.136 68.1961C402.737 67.549 402.137 67.1496 401.283 67.6049C401.235 67.6289 401.267 67.7008 401.315 67.6928C401.978 67.6369 402.433 67.8046 402.809 68.3798C403.072 68.7872 403.224 69.2825 403.392 69.7299C403.448 69.8817 403.711 69.8337 403.679 69.666C403.679 69.65 403.679 69.642 403.671 69.626C403.967 67.6129 402.753 64.5853 400.612 64.106V64.1219Z" fill="#263238"/>
<path d="M407.666 58.8897C407.666 58.8897 406.339 60.1678 406.228 60.3596C406.491 60.8069 411.228 69.3546 411.332 70.4171C411.668 73.7963 405.932 76.6322 403.344 74.1637C401.291 72.2065 399.501 69.4265 398.351 68.0445C397.504 68.3321 397.336 68.4919 397.233 68.4759C396.777 68.3641 395.156 64.3858 395.363 59.1453C395.539 54.6398 400.076 43.7115 412.379 43.9511C424.673 44.1988 427.046 56.8127 426.526 59.9841C426.526 59.9841 421.35 58.2346 418.985 58.3145C416.022 58.4104 407.658 58.8897 407.658 58.8897H407.666Z" fill="#FF6621"/>
<path opacity="0.5" d="M407.666 58.8897C407.666 58.8897 406.339 60.1678 406.228 60.3596C406.491 60.8069 411.228 69.3546 411.332 70.4171C411.668 73.7963 405.932 76.6322 403.344 74.1637C401.291 72.2065 399.501 69.4265 398.351 68.0445C397.504 68.3321 397.336 68.4919 397.233 68.4759C396.777 68.3641 395.156 64.3858 395.363 59.1453C395.539 54.6398 400.076 43.7115 412.379 43.9511C424.673 44.1988 427.046 56.8127 426.526 59.9841C426.526 59.9841 421.35 58.2346 418.985 58.3145C416.022 58.4104 407.658 58.8897 407.658 58.8897H407.666Z" fill="white"/>
<path d="M405.892 56.4611C405.022 59.0494 402.577 60.5673 400.444 59.8483C398.311 59.1293 397.289 56.4452 398.16 53.8569C399.03 51.2686 401.475 49.7508 403.608 50.4698C405.741 51.1887 406.763 53.8729 405.892 56.4611Z" fill="white"/>
<path d="M423.563 59.0893C421.989 58.6739 420.152 58.2745 418.993 58.3065C418.698 58.3145 418.362 58.3304 417.979 58.3384C417.564 55.838 416.757 50.965 414.823 48.7602C412.906 46.5633 410.078 44.9497 408.664 44.2227C408.696 44.2147 408.728 44.2067 408.752 44.2067C409.152 44.1348 409.575 44.0789 409.998 44.039C410.134 44.023 410.262 44.015 410.398 43.999C413.769 44.4224 415.383 45.4609 418.53 47.7856C421.718 50.1342 423.147 56.8366 423.555 59.0814L423.563 59.0893Z" fill="#FF6621"/>
<path d="M420.072 78.1898C419.872 78.1259 414.073 75.9929 413.825 75.8971L413.729 75.8651L411.181 72.9733L410.933 58.4022L411.708 58.3862L411.828 65.512L422.101 68.979L428.851 68.9391L425.161 77.9102L424.921 77.9262C420.352 78.2856 420.168 78.2217 420.08 78.1898H420.072ZM414.184 75.2021C415.862 75.8172 419.848 77.2791 420.288 77.4389C420.623 77.4548 422.7 77.311 424.617 77.1672L427.685 69.714H421.909L411.836 66.3268L411.948 72.6697L414.176 75.2021H414.184Z" fill="#DBDBDB"/>
<path d="M421.655 69.279L419.815 77.7407L420.572 77.9054L422.412 69.4437L421.655 69.279Z" fill="#DBDBDB"/>
<path d="M411.181 69.5221L405.86 60.3672L407.666 58.6257L411.324 57.9946L419.369 58.1544L427.669 59.9119L426.407 69.3863L425.64 69.2824L426.798 60.519L419.249 58.9213L411.34 58.7775L408.033 59.3527L406.835 60.503L411.852 69.1386L411.181 69.5221Z" fill="#DBDBDB"/>
<path d="M407.41 61.6694L406.955 61.0383L408.313 60.0557L411.396 59.5205L419.425 59.6723L427.19 61.246L427.03 62.0049L419.305 60.4392L411.42 60.2954L408.624 60.7907L407.41 61.6694Z" fill="#DBDBDB"/>
<path d="M426.667 69.1956L423.362 77.4841L424.082 77.7711L427.387 69.4826L426.667 69.1956Z" fill="#DBDBDB"/>
<path d="M546.702 112.476C548.703 107.603 546.376 102.031 541.503 100.029C536.63 98.0277 531.057 100.355 529.056 105.228C527.054 110.101 529.382 115.674 534.255 117.675C539.128 119.677 544.7 117.349 546.702 112.476Z" fill="#FF6621"/>
<path d="M546.702 112.476C548.703 107.603 546.376 102.031 541.503 100.029C536.63 98.0277 531.057 100.355 529.056 105.228C527.054 110.101 529.382 115.674 534.255 117.675C539.128 119.677 544.7 117.349 546.702 112.476Z" fill="#CE4646" stroke="#CE4646" stroke-width="0.598008" stroke-miterlimit="10"/>
<path d="M540.962 99.8228C539.883 105.798 534.723 110.719 529.107 112.612C534.212 109.681 538.797 105.391 540.962 99.8228Z" fill="#FFC727"/>
<path d="M531.232 115.608C536.009 114.257 540.211 110.806 542.552 106.445C543.318 104.975 543.83 103.377 544.133 101.708C544.117 102.554 544.069 103.409 543.886 104.256C542.624 110.103 537.167 115 531.224 115.616L531.232 115.608Z" fill="#FFC727"/>
<path d="M530.033 114.282C535.889 111.645 540.986 106.916 542.52 100.517C542.128 107.268 536.376 112.724 530.033 114.282Z" fill="white"/>
<path d="M554.047 99.3274C563.346 97.0586 572.628 94.4384 581.4 90.572C581.967 90.2844 582.55 90.0048 583.125 89.7332C578.835 92.5851 573.946 94.4224 569.073 96.0041C564.169 97.514 559.152 98.7762 554.039 99.3274H554.047Z" fill="#263238"/>
<path d="M550.492 104.487C568.331 100.493 586.305 95.061 601.587 84.7718L604.566 82.6069C589.892 95.061 569.249 101.428 550.5 104.487H550.492Z" fill="#263238"/>
</g>
</g>
<path opacity="0.5" d="M62.1915 208.229C62.1915 198.89 54.6208 191.319 45.2819 191.319C35.943 191.319 28.3723 198.89 28.3723 208.229C28.3723 217.568 35.943 225.138 45.2819 225.138C54.6208 225.138 62.1915 217.568 62.1915 208.229Z" fill="#F5F5F5"/>
<path d="M52.7703 208.229L42.45 218.549L40.5981 216.697L49.0664 208.229L40.5981 199.76L42.4501 197.909L52.7703 208.229Z" fill="#F5F5F5"/>
<path d="M49.0664 208.229L40.5981 199.76L42.4501 197.909L52.7703 208.229L49.0664 208.229Z" fill="#F5F5F5"/>
</g>
</g>
<defs>
<filter id="filter0_d_13014_7079" x="0.702127" y="0.702127" width="568.777" height="313.596" filterUnits="userSpaceOnUse" color-interpolation-filters="sRGB">
<feFlood flood-opacity="0" result="BackgroundImageFix"/>
<feColorMatrix in="SourceAlpha" type="matrix" values="0 0 0 0 0 0 0 0 0 0 0 0 0 0 0 0 0 0 127 0" result="hardAlpha"/>
<feOffset/>
<feGaussianBlur stdDeviation="6.14894"/>
<feComposite in2="hardAlpha" operator="out"/>
<feColorMatrix type="matrix" values="0 0 0 0 0 0 0 0 0 0 0 0 0 0 0 0 0 0 0.14 0"/>
<feBlend mode="normal" in2="BackgroundImageFix" result="effect1_dropShadow_13014_7079"/>
<feBlend mode="normal" in="SourceGraphic" in2="effect1_dropShadow_13014_7079" result="shape"/>
</filter>
<filter id="filter1_d_13014_7079" x="0.702127" y="0.702127" width="568.777" height="313.596" filterUnits="userSpaceOnUse" color-interpolation-filters="sRGB">
<feFlood flood-opacity="0" result="BackgroundImageFix"/>
<feColorMatrix in="SourceAlpha" type="matrix" values="0 0 0 0 0 0 0 0 0 0 0 0 0 0 0 0 0 0 127 0" result="hardAlpha"/>
<feOffset/>
<feGaussianBlur stdDeviation="6.14894"/>
<feComposite in2="hardAlpha" operator="out"/>
<feColorMatrix type="matrix" values="0 0 0 0 0 0 0 0 0 0 0 0 0 0 0 0 0 0 0.14 0"/>
<feBlend mode="normal" in2="BackgroundImageFix" result="effect1_dropShadow_13014_7079"/>
<feBlend mode="normal" in="SourceGraphic" in2="effect1_dropShadow_13014_7079" result="shape"/>
</filter>
<clipPath id="clip0_13014_7079">
<rect x="13" y="13" width="544.181" height="289" rx="15.3723" fill="white"/>
</clipPath>
<clipPath id="clip1_13014_7079">
<rect width="342.449" height="332.043" fill="white" transform="translate(249.327 -11.5959)"/>
</clipPath>
<clipPath id="clip2_13014_7079">
<rect width="277.747" height="103.426" fill="white" transform="translate(268.181 31.4465)"/>
</clipPath>
<clipPath id="clip3_13014_7079">
<rect width="347.53" height="378.16" fill="white" transform="translate(268.181 3.77612)"/>
</clipPath>
<clipPath id="clip4_13014_7079">
<rect width="305.633" height="332.57" fill="white" transform="translate(298.926 3.77612)"/>
</clipPath>
</defs>
</svg>
