<svg width="62" height="62" viewBox="0 0 62 62" fill="none" xmlns="http://www.w3.org/2000/svg">
<path d="M30.8512 0.826579C47.4747 0.597612 61.3762 14.6199 61.321 31.3898C61.2658 48.0097 47.4353 61.8346 30.7645 61.7872C14.0937 61.7477 0.271042 47.8439 0.357828 31.1135C0.444614 14.5488 14.212 0.589716 30.8591 0.826579H30.8512ZM30.8828 18.0307C26.6303 18.2123 22.4409 18.3229 18.2673 18.5755C14.5197 18.8045 13.0286 20.0599 12.5236 23.6207C11.782 28.8475 11.7583 34.0979 12.6025 39.3168C13.0838 42.3092 14.3461 43.4146 17.3757 43.8251C18.354 43.9593 19.3403 44.0146 20.3186 44.0857C28.0504 44.6226 35.7901 44.5357 43.5141 43.9751C47.238 43.7067 48.6423 42.4592 49.1394 38.9536C49.8652 33.8453 49.881 28.7054 49.1394 23.597C48.6502 20.2572 47.4668 19.1835 44.1768 18.7176C39.7429 18.086 35.2615 18.386 30.8828 18.0307Z" fill="white"/>
<path d="M27.0078 30.8998C27.0078 29.3764 27.0154 27.8453 27.0078 26.3218C27.0078 25.5982 27.2667 25.4306 27.9063 25.7963C30.6473 27.3806 33.3884 28.9574 36.137 30.5342C36.6929 30.8541 36.6167 31.136 36.1142 31.4254C33.3732 33.0022 30.6245 34.5713 27.8834 36.1557C27.1906 36.5518 27.0154 36.2471 27.0154 35.5844C27.023 34.0229 27.0154 32.4537 27.0154 30.8922L27.0078 30.8998Z" fill="white"/>
</svg>
