<svg width="51" height="50" viewBox="0 0 51 50" fill="none" xmlns="http://www.w3.org/2000/svg">
<path d="M25.4957 0.665294C38.878 0.480969 50.0692 11.7693 50.0247 25.2696C49.9803 38.6491 38.8463 49.7785 25.4258 49.7404C12.0053 49.7086 0.877728 38.5156 0.947593 25.0471C1.01746 11.7121 12.1006 0.474613 25.502 0.665294H25.4957ZM25.5211 14.5151C22.0977 14.6613 18.7251 14.7503 15.3652 14.9537C12.3483 15.138 11.1479 16.1486 10.7414 19.0152C10.1444 23.2229 10.1253 27.4497 10.8049 31.6511C11.1924 34.06 12.2086 34.9499 14.6475 35.2804C15.4351 35.3884 16.229 35.4329 17.0166 35.4901C23.2409 35.9223 29.4716 35.8524 35.6896 35.4011C38.6875 35.185 39.818 34.1808 40.2182 31.3587C40.8025 27.2463 40.8152 23.1085 40.2182 18.9962C39.8244 16.3075 38.8717 15.4431 36.2232 15.0681C32.6537 14.5596 29.0461 14.8012 25.5211 14.5151Z" fill="#3A3A3A"/>
<path d="M22.4023 24.8752C22.4023 23.6488 22.4085 22.4162 22.4023 21.1898C22.4023 20.6072 22.6107 20.4723 23.1256 20.7667C25.3322 22.0421 27.5389 23.3115 29.7516 24.5808C30.1991 24.8384 30.1378 25.0653 29.7333 25.2983C27.5266 26.5676 25.3139 27.8309 23.1073 29.1063C22.5495 29.4252 22.4085 29.1799 22.4085 28.6464C22.4146 27.3893 22.4085 26.1261 22.4085 24.8691L22.4023 24.8752Z" fill="#3A3A3A"/>
</svg>
